<svg
   xmlns="http://www.w3.org/2000/svg"
   viewBox="0 0 34 34">
  <path
     d="m 31.99455,9.824381 h -0.071 c -0.6061,0 -1.0434,-0.43673 -1.0434,-1.04345 v -0.06925 c 0,-0.47508 -0.142,-0.895773 -0.4425,-1.196844 -0.3005,-0.30107 -0.7212,-0.442448 -1.1968,-0.442448 h -7.0723 c -0.4751,0 -0.8958,0.14195 -1.1963,0.442448 -0.3005,0.300498 -0.4424,0.721764 -0.4424,1.196844 v 0.07097 c 0,0.60672 -0.4373,1.04345 -1.0441,1.04345 h -0.0709 c -0.4751,0 -0.8958,0.14195 -1.1963,0.44244 -0.3005,0.3005 -0.4424,0.7212 -0.4424,1.19684 v 11.06923 c 0,0.4756 0.1419,0.8963 0.4424,1.1968 0.3005,0.3005 0.7212,0.4425 1.1963,0.4425 h 0.0709 c 0.6068,0 1.0441,0.4373 1.0441,1.0434 v 0.071 c 0,0.4756 0.1419,0.8963 0.4424,1.1968 0.3005,0.3005 0.7212,0.4425 1.1963,0.4425 h 7.078 c 0.4751,0 0.8958,-0.142 1.1963,-0.4425 0.3005,-0.3005 0.443,-0.7212 0.443,-1.1968 v -0.071 c 0,-0.6061 0.4367,-1.0434 1.0434,-1.0434 h 0.071 c 0.4751,0 0.8958,-0.142 1.1963,-0.4425 0.3005,-0.3005 0.4424,-0.7212 0.4424,-1.1968 v -11.07095 c 0,-0.47564 -0.1419,-0.89634 -0.4424,-1.19683 -0.3005,-0.3005 -0.7252,-0.44245 -1.202,-0.44245 z m -10.5232,10.27183 v -8.56672 c 2e-4,-0.27679 0.1102,-0.54219 0.306,-0.73786 0.1958,-0.19567 0.4612,-0.30558 0.738,-0.30558 h 5.7313 c 0.1411,6e-5 0.2795,0.03852 0.4005,0.11124 0.1209,0.07273 0.2198,0.17699 0.286,0.30161 0.0662,0.12462 0.0973,0.26491 0.0899,0.40583 -0.0074,0.14093 -0.053,0.27719 -0.1319,0.39418 l -6.0043,8.8346 c -0.4264,0.6337 -1.4155,0.3274 -1.4155,-0.4373 z m 8.7477,2.3657 c 0,0.2767 -0.11,0.5421 -0.3057,0.7378 -0.1956,0.1957 -0.461,0.3056 -0.7378,0.3056 h -5.5675 c -0.1411,0 -0.2794,-0.0386 -0.4002,-0.1115 -0.1207,-0.0729 -0.2193,-0.1774 -0.285,-0.3023 -0.0657,-0.1248 -0.096,-0.2652 -0.0877,-0.4061 0.0083,-0.1408 0.0548,-0.2767 0.1347,-0.3929 l 5.8285,-8.52331 c 0.4316,-0.62962 1.4149,-0.32225 1.4149,0.4373 v 8.25541 z m -15.643,-12.63753 h -0.071 c -0.6067,0 -1.0434,-0.43673 -1.0434,-1.04345 v -0.06925 c 0,-0.47508 -0.1426,-0.895773 -0.4431,-1.196844 -0.3005,-0.30107 -0.7211,-0.442448 -1.1962,-0.442448 h -7.07 c -0.4751,0 -0.8964,0.14195 -1.1969,0.442448 -0.3005,0.300498 -0.4424,0.721764 -0.4424,1.196844 v 0.07097 c 0,0.60672 -0.4367,1.04345 -1.0434,1.04345 h -0.071 c -0.4751,0 -0.8958,0.14195 -1.1963,0.44244 -0.3005,0.3005 -0.4413,0.71948 -0.4413,1.19513 v 11.06924 c 0,0.4756 0.142,0.8963 0.443,1.1968 0.3011,0.3005 0.7212,0.4424 1.1963,0.4424 h 0.071 c 0.6067,0 1.0434,0.4373 1.0434,1.0435 v 0.071 c 0,0.4756 0.142,0.8963 0.4425,1.1968 0.3005,0.3005 0.7217,0.4425 1.1968,0.4425 h 7.074 c 0.4751,0 0.8958,-0.142 1.1963,-0.4425 0.3005,-0.3005 0.4424,-0.7212 0.4424,-1.1968 v -0.071 c 0,-0.6062 0.4373,-1.0435 1.0435,-1.0435 h 0.0709 c 0.4757,0 0.8964,-0.1419 1.1969,-0.4424 0.3005,-0.3005 0.4424,-0.7212 0.4424,-1.1968 v -11.06924 c 0,-0.47565 -0.1419,-0.89635 -0.4424,-1.19684 -0.3005,-0.3005 -0.7269,-0.44245 -1.202,-0.44245 z m -10.5232,10.27183 v -8.56672 c 2e-4,-0.27669 0.1102,-0.54201 0.3058,-0.73766 0.1957,-0.19565 0.461,-0.30563 0.7377,-0.30578 h 5.7318 c 0.1411,6e-5 0.2795,0.03852 0.4005,0.11124 0.1209,0.07273 0.2198,0.17699 0.286,0.30161 0.0662,0.12462 0.0973,0.26491 0.0899,0.40584 -0.0074,0.14092 -0.053,0.27718 -0.1319,0.39417 l -6.0048,8.8346 c -0.4259,0.6337 -1.415,0.3274 -1.415,-0.4373 z m 8.7477,2.3657 c -2e-4,0.2768 -0.1102,0.5422 -0.306,0.7378 -0.1958,0.1957 -0.4613,0.3056 -0.738,0.3056 h -5.5618 c -0.1412,2e-4 -0.2797,-0.0382 -0.4006,-0.111 -0.121,-0.0729 -0.2197,-0.1774 -0.2855,-0.3023 -0.0658,-0.1248 -0.0963,-0.2653 -0.088,-0.4063 0.0082,-0.1409 0.0548,-0.2769 0.1347,-0.3932 l 5.8297,-8.52331 c 0.4316,-0.62961 1.4155,-0.32225 1.4155,0.4373 z"/>
</svg>
