<svg
   xmlns="http://www.w3.org/2000/svg"
   viewBox="0 0 707 707">
  <path
     d="M 298.00586,20.895546 C 277.09956,20.921501 208.08438,27.351404 181,108.60453 172.8,88.204534 165.30078,58.405312 165.30078,58.405312 c 0,0 -47.30156,41.500782 -25.10156,110.300778 -54.300007,-19.8 -131.7988294,-47.30078 -134.7988294,-47.80078 -4.1,-0.6 -5.30078123,1.19922 -5.30078123,1.19922 0,0 -1.19921877,1.70117 2.30078123,4.70117 6.5,5.1 129.0003894,95.59961 155.9003894,113.09961 -5.8,21 -5.8,30.90078 0,40.80078 8.2,13.4 8.69961,20.39883 7.59961,30.29883 -1.2,9.9 -11.7,95.70117 -14,106.20117 -2.3,10.5 -26.80117,47.79844 -25.70117,58.89844 1.2,11.1 16.30078,58.30156 29.80078,63.60156 9.9,3.5 34.39922,11.09961 50.69922,11.09961 5.8,0 11.10039,-1.2 13.40039,-3.5 9.9,-8.7 12.80078,-10.5 19.80078,-10.5 h 1.69922 c 2.9,0 6.4,0.59961 10.5,0.59961 9.3,0 21.60078,-1.80039 30.30078,-9.90039 12.8,-12.8 35,-30.3 42,-38.5 8.8,-11.1 13.39961,-26.20039 11.09961,-41.40039 -1.8,-14 5.79961,-26.3 14.59961,-38.5 11.1,-14.6 31.5,-40.79883 31.5,-40.79883 40.3,30.2 65.40039,76.29961 65.40039,127.59961 0,91 -79.30078,164.5 -177.30078,164.5 -15.2,0 -29.69883,-1.69922 -44.29883,-5.19922 44.9,15.7 82.79883,21 113.79883,21 65.9,0 100.90039,-23.90039 100.90039,-23.90039 0,0 -12.19961,15.79883 -32.09961,33.79883 h 0.59961 c 109.1,-15.2 162.20117,-105 162.20117,-105 0,0 -4.10078,29.2 -9.30078,49 145.1,-109.1 120.6,-245.59922 120,-250.19922 1.2,1.7 15.80078,19.19961 23.30078,28.59961 23.4,-240.4 -173.20117,-317.999996 -173.20117,-317.999996 0,0 29.2,1.20117 59.5,4.70117 -68.3,-53.700001 -133,-69.400392 -185.5,-69.400392 -72.3,0 -121.29883,29.800001 -124.29883,31.500001 l 22.79883,-36.201172 c 0,0 -2.22221,-0.213791 -6.09375,-0.208985 z m -28.30664,20.609375 c -52.5,31.5 -42,106.701169 -42,106.701169 -50.2,-76.299994 37.9,-104.901169 42,-106.701169 z m 135.40039,1.201172 c 40.2,0.6 80.40039,10.499219 118.90039,29.699219 -86.9,-16.3 -142.89922,-8.2 -183.19922,7.000002 C 339.60078,74.705312 335.5,65.405703 332,57.805703 c -12.1,14.6 -24.99961,32.099221 -33.09961,43.199217 -22.2,15.2 -31.5,29.80078 -31.5,29.80078 12.8,-43.799996 50.19922,-76.399607 95.69922,-84.599607 12.8,-2.3 26.8,-3.5 42,-3.5 z m -74.79883,29.298828 c 0,0 21.59883,47.201169 -1.20117,81.701169 -23.3,34.4 -46.09961,40.79883 -46.09961,40.79883 0,0 32.10078,5.80117 61.80078,-15.79883 12.2,28.6 23.9,58.29844 24.5,62.39844 -1.8,4.1 -25.10039,60.10156 -27.40039,63.60156 -1.2,1.2 -9.30117,3.49922 -15.20117,4.69922 -9.9,2.9 -15.69961,4.70039 -18.09961,6.40039 -4.1,3.5 -22.8,54.80039 -31.5,79.90039 -10.5,2.9 -20.99961,8.79844 -28.59961,20.39844 4.1,-2.9 16.90078,-4.69883 26.30078,-5.79883 8.2,-0.6 33.19922,12.80039 39.69922,37.90039 v 1.19922 c 1.3,9.2 -1.60078,18 -6.30078,25 -2.3,2.9 -12.19922,11.69961 -19.19922,18.09961 -7,6.4 -14.60039,12.80117 -20.40039,18.70117 -2.3,2.3 -7,3.5 -14,3.5 h -6.40039 -3.5 -2.29883 -5.30078 c 8.8,-11.7 34.40117,-38.50078 43.20117,-44.30078 10.5,-7 15.79883,-13.99922 9.29883,-26.19922 -6.4,-12.3 -23.29883,-9.30078 -23.29883,-9.30078 0,0 9.89922,-4.09961 18.69922,-4.09961 -11.1,-2.9 -25.1,3.9e-4 -31.5,6.40039 -7,6.4 -5.79922,29.19922 -8.69922,43.69922 -2.9,15.2 -12.8,22.80078 -28,36.80078 -8.2,7.6 -14.00117,9.89844 -18.70117,9.89844 -9.9,-1.7 -21.59883,-4.69961 -29.79883,-7.59961 -5.8,-7.6 -14.60039,-32.69922 -16.90039,-43.19922 1.7,-5.8 8.69922,-18.09961 12.19922,-25.09961 7,-13.4 11.10078,-21 12.30078,-28 2.3,-9.9 9.89883,-71.20078 12.79883,-96.80078 7.6,9.9 18.10117,26.30078 15.70117,36.80078 16.9,-23.9 4.69883,-47.30156 -1.20117,-56.60156 -5.2,-9.3 -12.19844,-27.99883 -6.39844,-47.79883 5.8,-19.8 26.79883,-74.70117 26.79883,-74.70117 0,0 7.00039,12.30039 16.90039,9.90039 9.9,-2.3 89.80078,-122.499999 89.80078,-122.499999 z m -172,26.099613 c 0,0.6 4.59883,62.400776 44.29883,86.300776 -68.2,-2.3 -45.49883,-81.70078 -44.29883,-86.300776 z M 324.59961,106.8057 285.5,164.60453 c -0.6,0 13.90039,0.60078 30.90039,-18.69922 13.4,-15.8 8.19922,-39.09961 8.19922,-39.09961 z m 150.17578,3.99609 c 51.94179,0.25288 101.98008,21.13477 137.92383,59.10352 l 1.20117,1.19922 c 48.4,51.3 73.49961,115.40156 74.59961,190.10156 C 662.2,290.60609 624.89922,230.5057 542.69922,176.3057 463.39922,123.8057 378.2,127.90492 373.5,128.50492 h -1.19922 c 2.9,-1.2 5.79922,-1.79883 8.69922,-2.29883 18.1,-5.8 41.40078,-10.50039 64.80078,-13.40039 9.67188,-1.39063 19.35576,-2.05074 28.97461,-2.00391 z m -102.47461,35.70313 c 119.6,12.9 213,114.40039 213,237.40039 0,94.5 -55.40039,176.80078 -135.90039,215.30078 37.9,-29.2 67.10039,-70.00156 79.90039,-116.10156 0.6,-1.7 5.79883,-4.7 9.29883,-7 5.8,-2.9 11.70078,-6.39961 12.80078,-11.09961 2.3,-13.4 3.5,-27.40039 3.5,-41.40039 0,-5.2 -5.3,-10.49922 -10.5,-15.69922 -2.9,-3.5 -7.59961,-7.6 -7.59961,-10.5 -4.7,-42.6 -21.60078,-82.79961 -47.80078,-116.09961 -11.7,-70 -58.3,-91.60117 -59.5,-92.20117 1.2,1.8 31.5,45.50078 10.5,96.80078 -21.6,51.9 -76.99922,43.80078 -81.69922,44.30078 -4.7,0 -22.7,23.3 -45.5,66.5 -2.9,-1.2 -15.20117,-4.10117 -29.20117,-1.70117 10.5,-29.2 26.30117,-70.59961 29.20117,-74.09961 1.2,-1.2 9.89883,-3.49922 15.79883,-5.19922 11.1,-2.9 16.29961,-4.7 18.09961,-7 1.2,-1.8 7.00078,-15.20117 12.80078,-29.20117 5.3,0 18.70078,-1.19883 19.80078,-1.79883 1.2,-1.2 12.29883,-29.70117 12.29883,-33.20117 0,-2.9 -22.8,-59.49961 -31.5,-81.09961 4.1,-4.7 8.20117,-10.50039 12.20117,-16.90039 z M 88.300781,169.3057 c 43.199999,15.2 86.898439,31.5 93.898439,35 0,0 0.60117,0.59961 1.20117,1.09961 3.5,2.9 7.00039,8.20078 2.90039,15.80078 -2.3,4.1 -5.80156,3.49922 -11.10156,1.19922 -7,-3.5 -48.99844,-27.99961 -86.898439,-53.09961 z m 203.499999,37.40039 c 0,0 -59.50117,93.29961 -64.70117,95.09961 -5.3,1.8 -10.5,-18.70117 -10.5,-18.70117 -11.1,42.6 18.70117,48.4 22.20117,35 16.3,-4.2 44.29844,-21.69844 55.39844,-33.89844 11.1,-12.8 5.30078,-36.70078 -15.19922,-40.80078 5.3,-12.2 12.80078,-36.69922 12.80078,-36.69922 z m -18.10156,48.29883 c 0,0 17.50117,8.80078 8.70117,22.80078 -11,16.3 -39,29.09961 -39,29.09961 z m 217.10156,38.5 c 22.7,30.3 36.69883,67.1 40.79883,105 0.6,4.7 5.20039,9.3 9.90039,14 4.1,3.5 8.80078,8.19961 8.80078,11.09961 0,13.4 -1.2,26.80078 -3.5,40.30078 -0.6,1.7 -5.80039,4.7 -9.90039,7 -5.8,2.9 -11.10117,5.8 -12.20117,10.5 -12.8,44.9 -40.3,84.59961 -77,112.59961 54.2,-56.6 80.40039,-149.99961 38.40039,-224.09961 5.8,-29.7 6.40117,-55.40039 4.70117,-76.40039 z m 98,7.09961 c 5.3,5.3 10.49922,11.10078 15.19922,16.30078 57.7,64.1 64.7,160.40039 14.5,230.40039 -8.8,11.7 -18.70078,23.89961 -30.30078,35.59961 75.2,-144.7 3.50156,-277.10078 0.60156,-282.30078 z m -399,137.60156 c 0,0 -19.3,33.8 -21,38.5 -1.8,5.3 1.19922,14.6 8.69922,14 7.6,-0.6 16.90039,-11.70078 16.90039,-19.80078 0,-10.5 -9.30078,-9.40039 -9.30078,-9.40039 z m 78.50195,5.5625 c 5.26888,0.0333 12.59766,2.45586 12.59766,9.03711 0,7.6 -8.2,9.29961 -14,14.59961 -4.2,4 -12.4,12.8 -13.5,14 5.3,-7.6 4.69883,-20.4 5.29883,-24.5 0.6,-4.1 1.70039,-11.70078 6.40039,-12.80078 0.88125,-0.225 1.98723,-0.34363 3.20312,-0.33594 z" />
</svg>
