<svg
   xmlns="http://www.w3.org/2000/svg"
   viewBox="0 0 800 800">
  <path
     d="M 761.20586,728.00813 482.36702,53.864208 C 466.63983,19.009352 443.26157,2.0069837 412.44478,2.0069837 h -24.65344 c -30.81679,0 -54.19505,17.0023683 -69.92224,51.8572243 L 196.51469,347.58013 H 104.7019 c -27.416317,0.21253 -49.731926,22.31561 -49.944456,49.94446 v 0.63758 c 0.21253,27.41632 22.528139,49.73193 49.944456,49.94446 h 49.30687 L 38.180135,728.00813 c -2.125296,6.16336 -3.400474,12.53924 -3.400474,19.12766 0,15.72719 4.888181,28.05391 13.601895,37.61774 8.713714,9.56383 21.252961,14.23949 36.980152,14.23949 10.413951,-0.21253 20.402842,-3.40048 28.691502,-9.56384 8.92624,-6.16335 15.0896,-15.0896 19.97778,-25.29102 L 261.54875,447.8941 h 88.41232 c 27.41632,-0.21253 49.73193,-22.31561 49.94446,-49.94446 v -1.27517 C 399.693,369.25815 377.37739,346.94254 349.96107,346.73001 H 302.7795 l 97.33856,-242.49628 265.23695,659.6919 c 4.88818,10.20142 11.05154,19.12767 19.97778,25.29102 8.28866,6.16336 18.49008,9.35131 28.6915,9.56384 15.72719,0 28.05391,-4.67565 36.98015,-14.23949 8.92625,-9.56383 13.6019,-21.89055 13.6019,-37.61774 0.21253,-6.37589 -0.85012,-12.9643 -3.40048,-18.91513 z" />
</svg>
