<svg
   xmlns="http://www.w3.org/2000/svg"
   viewBox="0 0 22 22">
  <g
     transform="translate(-5,-5)">
    <path
       d="M 6.5,10.487 16,5 25.5,10.487 V 21.513 L 16,27 6.5,21.513 Z m 0.912,9.97 3.81,-2.205 1.933,-3.385 -5.743,-3.323 z m 0.457,0.791 7.702,4.449 V 21.44 l -4.038,-2.313 -3.664,2.12 z m 16.719,-9.673 -5.692,3.293 1.932,3.382 3.76,2.176 z m -0.43,-0.808 -7.675,-4.433 v 4.309 l 1.96,3.431 z m -6.047,4.555 -1.172,0.678 2.325,1.345 z m -0.453,-0.794 -1.175,-2.06 v 2.74 z m -4.864,2.815 2.32,-1.343 -1.169,-0.676 -1.15,2.019 z m -0.346,1.256 3.123,1.788 v -3.595 z m -4.58,-7.847 5.74,3.32 1.963,-3.435 V 6.303 Z m 16.29,10.481 -3.636,-2.104 -4.039,2.341 v 4.196 z M 19.61,18.601 16.483,16.792 v 3.622 L 19.61,18.6 Z m -5.212,-4.071 1.173,0.678 v -2.735 z" />
  </g>
</svg>
