<svg
   xmlns="http://www.w3.org/2000/svg"
   viewBox="0 0 2000 2000">
  <path
     d="M 1002.8008,135.22543 C 911.25411,293.3121 819.26961,451.12488 726.84961,608.66488 c -9.78,13.35 -10.25977,29.93102 -10.25977,45.79102 0.24,217.59998 0.24,435.1566 0,652.67 57.36,-39.59 117.84961,-76.0809 184.84961,-96.7109 125.21005,-41.02 262.71065,-33.3903 386.14065,10.2597 V 665.90512 c 0.36,-23.5 -3.461,-47.5 -16.461,-67.5 -89.91,-154.08 -177.5683,-309.57969 -268.3183,-463.17969 z M 506.83008,990.15508 C 337.33008,1280.2019 168.38667,1570.4662 0,1860.9462 c 169.34,1.19 338.68039,-0.361 507.90039,1.209 0.12,-290.64 2.14969,-581.38 -1.07031,-872.00012 z m 988.00972,1.4297 c -1.91,290.98012 -1.0707,581.96092 -0.4707,873.05092 168.5,-1 337.0109,0.6 505.6309,0 -168.74,-290.86 -333.6702,-583.9808 -505.1602,-873.05092 z m -423.8203,381.42982 c -20.878,0.054 -41.779,1.7886 -62.4902,5.3105 -130.59,20.27 -243.6393,122.8306 -277.5293,250.3106 -21.44,76.59 -12.49992,157.5891 6.58008,233.6191 183.53,0.71 367.05962,2.0305 550.59962,1.3105 -5.61,-143.7 -1.5495,-287.64 -3.9395,-431.58 -64.375,-37.9141 -138.6562,-59.1645 -213.2207,-58.9707 z" />
</svg>
