<svg
   xmlns="http://www.w3.org/2000/svg"
   viewBox="0 0 375 375">
  <path
     d="m 186.64062,14.246094 c -5.23645,0.246094 -9.5664,4.359375 -9.9414,9.703125 -0.3,5.8 4.10078,10.701562 9.80078,11.101562 5.7,0.3 10.6,-4.100781 11,-9.800781 0.4,-5.7 -4.10078,-10.6 -9.80078,-11 -0.35625,-0.01875 -0.7095,-0.02031 -1.0586,-0.0039 z m 89.97266,9.55664 c -2.6123,0.03711 -5.15039,1.333985 -6.71289,3.646485 -2.4,3.8 -1.29961,8.90039 2.40039,11.40039 3.8,2.5 8.79883,1.39961 11.29883,-2.40039 2.5,-3.8 1.39961,-8.798828 -2.40039,-11.298828 -1.425,-0.9375 -3.01856,-1.369922 -4.58594,-1.347657 z M 97.720703,24.193359 c -1.323242,-0.0415 -2.669922,0.232422 -3.919922,0.857422 -4,2 -5.601562,6.898438 -3.601562,10.898438 2,4.1 6.9,5.801172 11.000001,3.701172 4,-2 5.60156,-7 3.60156,-11 -1.375,-2.75 -4.16894,-4.365723 -7.080077,-4.457032 z M 253.31641,60.189453 c -4.06446,0.05078 -8.04102,2.035156 -10.41602,5.660156 -3.9,5.9 -2.30039,13.7 3.59961,17.5 5.8,3.8 13.7,2.200391 17.5,-3.599609 3.8,-5.8 2.20039,-13.7 -3.59961,-17.5 -2.175,-1.425 -4.64531,-2.091016 -7.08398,-2.060547 z m -131.77344,0.337891 c -2.03089,-0.06702 -4.10547,0.353515 -6.04297,1.322265 -6.2,3.1 -8.69961,10.700391 -5.59961,16.900391 3.1,6.2 10.70039,8.699609 16.90039,5.599609 6.2,-3.1 8.69961,-10.70039 5.59961,-16.90039 -2.13125,-4.2625 -6.38948,-6.774439 -10.85742,-6.921875 z m 64.93555,10.207031 c -7.5271,0.310181 -13.70313,6.328125 -14.07813,14.015625 -0.4,8.2 5.8,15.199609 14,15.59961 8.2,0.5 15.19961,-5.800001 15.59961,-14.000001 0.5,-8.2 -5.8,-15.199609 -14,-15.599609 -0.5125,-0.03125 -1.01968,-0.0363 -1.52148,-0.01563 z m 142.0039,24.679687 c -1.67859,-0.04016 -3.38867,0.324219 -4.98242,1.136719 -5.1,2.6 -7.09961,8.798439 -4.59961,13.898439 2.7,5.1 8.89961,7.20156 14.09961,4.60156 5.1,-2.6 7.1,-8.9 4.5,-14 -1.7875,-3.506249 -5.32468,-5.548363 -9.01758,-5.636718 z M 46.177734,95.970703 c -3.328125,0.0459 -6.578125,1.679688 -8.578125,4.679687 -3.2,4.8 -1.8,11.30039 3,14.40039 4.8,3.1 11.200391,1.8 14.400391,-3 3.1,-4.8 1.8,-11.20039 -3,-14.400389 -1.8,-1.1625 -3.825391,-1.707227 -5.822266,-1.679688 z M 157.16602,110.63086 c -3.67018,0.0687 -7.37774,0.94687 -10.86524,2.71875 -12.5,6.4 -17.50117,21.6 -11.20117,34 4.3,8.5 12.99961,13.90039 22.59961,13.90039 13.9,0 25.20117,-11.30078 25.20117,-25.30078 0,-3.9 -0.90117,-7.79844 -2.70117,-11.39844 -4.52813,-8.98437 -13.65387,-14.09554 -23.0332,-13.91992 z m 59.93359,0.0195 c -8.5,0 -16.39961,4.30039 -21.09961,11.40039 -7.6,11.7 -4.39922,27.29844 7.30078,34.89844 11.7,7.6 27.29844,4.40117 34.89844,-7.29883 7.6,-11.7 4.40117,-27.30039 -7.29883,-34.90039 -4.1,-2.7 -8.90078,-4.09961 -13.80078,-4.09961 z m 59.00586,10.86523 c -2.38623,-0.0804 -4.82422,0.41016 -7.10547,1.53516 -7.3,3.7 -10.29961,12.59844 -6.59961,19.89844 3.7,7.3 12.60039,10.30156 19.90039,6.60156 7.3,-3.7 10.29961,-12.60039 6.59961,-19.90039 -2.54375,-5.01875 -7.54521,-7.95779 -12.79492,-8.13477 z m -177.263673,0.39844 c -4.766602,0.0645 -9.392578,2.42383 -12.142578,6.73633 -4.5,6.8 -2.599219,16 4.300781,20.5 6.9,4.5 16.1,2.59922 20.5,-4.30078 4.5,-6.9 2.59922,-16.1 -4.30078,-20.5 -2.5875,-1.6875 -5.49746,-2.47422 -8.357423,-2.43555 z m 148.261723,40.19532 c -13.3417,-0.0866 -24.62461,10.37421 -25.30274,23.83984 -0.8,13.9 9.89883,25.90156 23.79883,26.60156 H 247 c 13.9,0 25.19922,-11.30078 25.19922,-25.30078 0.1,-13.3 -10.39883,-24.39961 -23.79883,-25.09961 -0.43437,-0.025 -0.8665,-0.0382 -1.29687,-0.041 z M 128,162.34961 c -13.4,0 -24.49922,10.50039 -25.19922,23.90039 -0.8,13.9 9.89883,25.79961 23.79883,26.59961 h 1.5 c 14,0 25.30117,-11.29883 25.20117,-25.29883 0,-14 -11.30078,-25.30117 -25.30078,-25.20117 z m 191.20117,12.29101 c -6.41748,0.27833 -11.62695,5.34766 -12.00195,11.91016 -0.4,7 4.90039,12.89883 11.90039,13.29883 6.9,0.4 12.90078,-5.00039 13.30078,-11.90039 0.4,-7 -4.90039,-12.89883 -11.90039,-13.29883 -0.4375,-0.025 -0.871,-0.0283 -1.29883,-0.01 z m -264.599608,0.59961 c -6.41748,0.27832 -11.626953,5.34766 -12.001953,11.91016 -0.4,7 4.900391,12.89883 11.900391,13.29883 7,0.4 12.900781,-4.89844 13.300781,-11.89844 0.4,-6.9 -4.90039,-12.90078 -11.90039,-13.30078 -0.4375,-0.025 -0.870996,-0.0283 -1.298829,-0.01 z m 311.863278,3.69727 c -4.13708,0.15381 -7.57812,3.49414 -7.76562,7.71289 -0.2,4.5 3.20117,8.39961 7.70117,8.59961 4.5,0.3 8.29961,-3.19922 8.59961,-7.69922 0.2,-4.5 -3.19922,-8.30156 -7.69922,-8.60156 -0.28125,-0.0187 -0.56013,-0.022 -0.83594,-0.0117 z M 7.7636719,179.73828 C 3.6265869,179.89209 0.1875,183.23047 0,187.44922 c -0.2,4.5 3.1992188,8.40156 7.6992188,8.60156 4.5000002,0.3 8.3015622,-3.20117 8.6015622,-7.70117 0.3,-4.5 -3.201172,-8.29961 -7.7011716,-8.59961 -0.28125,-0.0188 -0.5601319,-0.022 -0.8359375,-0.0117 z M 216.86719,213.73047 c -3.67018,0.0687 -7.37969,0.94687 -10.86719,2.71875 -12.5,6.3 -17.49922,21.50039 -11.19922,33.90039 6.3,12.5 21.49844,17.50117 33.89844,11.20117 12.4,-6.2 17.50078,-21.20117 11.30078,-33.70117 0,-0.1 3.9e-4,-0.0992 -0.0996,-0.19922 -4.52812,-8.98437 -13.65387,-14.09554 -23.0332,-13.91992 z m -59.35352,0.10547 c -8.10351,0.11035 -16.00195,4.10156 -20.81445,11.41406 -7.7,11.7 -4.39922,27.3 7.30078,35 4.1,2.7 8.90078,4.09961 13.80078,4.09961 8.6,0.1 16.49922,-4.20039 21.19922,-11.40039 7.6,-11.7 4.39922,-27.3 -7.30078,-35 -4.3875,-2.85 -9.32344,-4.17949 -14.18555,-4.11328 z m 118.12695,9.57812 c -4.7666,0.0645 -9.39062,2.42383 -12.14062,6.73633 -4.5,6.9 -2.59922,16.1 4.30078,20.5 6.9,4.5 16.1,2.59922 20.5,-4.30078 4.5,-6.8 2.59922,-16 -4.30078,-20.5 -2.5875,-1.6875 -5.49941,-2.47422 -8.35938,-2.43555 z m -175.835932,0.45703 c -2.386231,-0.0791 -4.824219,0.42188 -7.105469,1.57813 -7.3,3.7 -10.29961,12.60039 -6.59961,19.90039 3.7,7.3 12.600391,10.29961 19.900391,6.59961 7.3,-3.7 10.29961,-12.59844 6.59961,-19.89844 -2.54375,-5.01875 -7.54522,-8.00566 -12.794922,-8.17969 z M 328.57812,258.27148 C 325.25,258.31738 322,259.94922 320,262.94922 c -3.1,4.8 -1.8,11.20039 3,14.40039 4.8,3.1 11.20039,1.8 14.40039,-3 3.2,-4.8 1.8,-11.30039 -3,-14.40039 -1.8,-1.1625 -3.82539,-1.70527 -5.82227,-1.67774 z M 46.982422,258.83789 C 45.303833,258.7843 43.59375,259.13672 42,259.94922 c -5.1,2.6 -7.199609,8.8 -4.599609,14 2.6,5.1 8.8,7.20156 14,4.60156 5.1,-2.6 7.199609,-8.8 4.599609,-14 -1.7875,-3.50625 -5.324683,-5.59499 -9.017578,-5.71289 z m 138.996098,15.79688 c -7.5271,0.31018 -13.70313,6.32812 -14.07813,14.01562 -0.5,8.2 5.8,15.19961 14,15.59961 8.2,0.4 15.19961,-5.8 15.59961,-14 0.5,-8.1 -5.8,-15.19961 -14,-15.59961 -0.5125,-0.0312 -1.01968,-0.0363 -1.52148,-0.0156 z m 68.33398,14.64648 c -2.04871,-0.0657 -4.14453,0.36914 -6.11328,1.36914 -6.2,3.2 -8.7,10.8 -5.5,17 3.2,6.2 10.8,8.7 17,5.5 6.2,-3.1 8.70156,-10.70039 5.60156,-16.90039 -2.2,-4.2625 -6.48113,-6.82427 -10.98828,-6.96875 z m -132.89648,0.30859 C 117.35156,289.64062 113.375,291.625 111,295.25 c -3.8,5.8 -2.20039,13.7 3.59961,17.5 5.8,3.8 13.7,2.20039 17.5,-3.59961 3.9,-5.8 2.30039,-13.7 -3.59961,-17.5 -2.175,-1.425 -4.64531,-2.09102 -7.08398,-2.06055 z m 156.3496,44.86133 c -1.32458,-0.0432 -2.68359,0.24219 -3.96484,0.89844 -4,2 -5.60156,7 -3.60156,11 2,4 7,5.59961 11,3.59961 4,-2 5.60156,-6.89844 3.60156,-10.89844 -1.375,-2.81875 -4.12107,-4.50454 -7.03516,-4.59961 z m -179.751948,0.35156 c -2.612305,0.0371 -5.150391,1.33399 -6.712891,3.64649 -2.5,3.8 -1.401172,8.80078 2.298828,11.30078 3.8,2.5 8.800781,1.39922 11.300781,-2.30078 2.6,-3.7 1.49922,-8.79883 -2.30078,-11.29883 -1.425,-0.9375 -3.018555,-1.36992 -4.585938,-1.34766 z m 88.328128,5.14454 c -5.23645,0.25708 -9.56641,4.45898 -9.94141,9.80273 -0.4,5.7 4.09883,10.6 9.79883,11 5.7,0.3 10.6,-3.99922 11,-9.69922 0.3,-5.8 -4.09883,-10.70156 -9.79883,-11.10156 -0.35625,-0.0188 -0.7095,-0.0191 -1.05859,-0.002 z" />
</svg>
