<svg
   xmlns="http://www.w3.org/2000/svg"
   viewBox="0 0 14 14">
  <path
     style="clip-rule:evenodd;fill-rule:evenodd"
     d="m 6.2217041,3.5791625 c -0.18489,0.35698 -0.50011,1.58265 0.34498,2.88869 0.30138,0.46584 0.62238,0.98193 0.93998,1.522 0.7649,-0.3122 1.4856,-0.63947 2.0761,-0.98221 0.6828999,-0.39631 1.0515999,-0.73545 1.1886999,-0.9787 0.4398,-0.78024 0.5016,-1.4634 0.3526,-2.0051 -0.1492,-0.5428 -0.5424,-1.0617 -1.2353999,-1.45346 -1.2923,-0.7305 -2.9311,-0.27858 -3.66696,1.00878 z m 2.23746,6.13879 c 0.7322,-0.3047 1.4673,-0.6428 2.1077999,-1.0146 0.7442,-0.4319 1.5054,-0.9892 1.9126,-1.71178 0.6489,-1.15133 0.8436,-2.36526 0.535,-3.48753 -0.3083,-1.12117 -1.0867,-2.03313 -2.1611,-2.64046 -2.2387999,-1.26551998 -5.0795799,-0.47653998 -6.3450999,1.76224 l -0.00579,0.01024 -0.00554,0.01038 c -0.45993,0.86126 -0.88066,2.8709 0.42357,4.88653 0.23673,0.36588 0.48405,0.76108 0.73041,1.17188 -0.2865,0.1071 -0.56587,0.2115 -0.83622,0.3151 -0.69645,0.2668 -1.41343,0.5556 -1.83903,0.8535002 -0.6341,0.4439003 -1.20834,0.9091003 -1.59573,1.5548003 -0.40051002,0.6675 -0.53796002,1.4162 -0.53796002,2.3118 H 2.8027041 c 0,-0.6974 0.10763,-1.0515 0.25855,-1.3031 0.16403,-0.2734 0.44757,-0.5434 1.03886,-0.9573 0.18709,-0.1309 0.65133,-0.3359 1.41609,-0.6289 0.24413,-0.0935 0.5136,-0.1942 0.79796,-0.3005 0.10119,-0.0379 0.20426,-0.0764 0.30875,-0.1155 0.09566,0.1839 0.18822,0.3673 0.27675,0.5489 0.2873,0.5892 0.5247,1.1452 0.6887,1.6352 0.1682,0.5029 0.2384,0.877 0.2384,1.1212 h 1.9607 c 0,-0.5523 -0.1442,-1.1585 -0.3398,-1.7431 -0.1999,-0.5976 -0.4755,-1.2363 -0.7856,-1.8725 -0.0659,-0.1351003 -0.1336,-0.2707003 -0.2029,-0.4065005 z" />
</svg>
