<svg
   xmlns="http://www.w3.org/2000/svg"
   viewBox="0 0 400 400">
  <g
     transform="translate(0,224.74226)">
    <path
       d="m 49.514758,-94.694898 c -17.359338,-0.07576 -40.2361894,0.517198 -41.5136825,1.514953 -2.675337,2.090213 0.5917838,4.454122 7.6144025,5.50712 3.25257,0.488167 6.396819,1.871778 8.08342,3.558379 l 2.761267,2.759063 v 54.080308 54.080304 l -3.197256,3.45268 c -1.961688,2.11727 -5.892376,4.3029 -10.170886,5.65466 -5.1342118,1.62234 -6.9736294,2.75589 -6.9736294,4.30044 0,1.98649 2.85153,2.12165 53.6795504,2.49482 60.379416,0.44308 54.087216,1.44904 55.577656,-8.89154 0.41488,-2.87714 1.82769,-9.32154 3.13999,-14.32159 3.62575,-13.8096104 -0.7449,-15.9227504 -7.0595,-3.41304 -7.86705,15.58415 -13.929312,18.33612 -40.249756,18.27412 -21.291082,-0.0507 -23.458012,-0.53788 -25.646309,-5.77356 -2.047371,-4.89971 -2.501152,-106.098587 -0.49324,-109.851725 1.100349,-2.05639 6.39386,-4.078677 18.353394,-7.011062 4.727218,-1.160102 7.301529,-3.721518 5.524735,-5.498312 -0.585547,-0.585547 -9.014553,-0.870563 -19.430156,-0.916018 z m 310.831852,36.944601 c -1.24196,0.09793 -3.06114,1.856487 -9.0743,7.609997 -4.49948,4.30444 -9.8907,9.245108 -11.98091,10.976805 -4.92677,4.08347 -3.5929,7.891849 2.76568,7.891849 h 4.02739 v 25.9920146 c 0,35.2348604 1.19551,40.6407504 10.36246,46.8820804 8.35183,5.68551 21.53885,4.13616 31.86026,-3.74554 7.64382,-5.83659 7.34067,-11.36101 -0.38094,-6.94721 -4.59418,2.62686 -16.48039,2.24657 -20.15461,-0.64297 -4.85461,-3.81853 -5.56336,-8.74564 -5.18342,-35.9691304 l 0.3501,-24.9879236 14.27976,-0.328094 c 13.80172,-0.315674 14.31447,-0.416752 15.32349,-3.069541 2.58289,-6.792628 1.16172,-7.546652 -14.91172,-7.900658 l -14.69153,-0.323689 0.24662,-6.933994 c 0.15671,-4.407034 -0.26747,-7.258651 -1.16263,-7.827992 -0.66552,-0.422777 -1.11117,-0.720518 -1.6757,-0.676004 z m -81.81628,12.969585 c -32.35611,0.395814 -57.10683,38.5537616 -40.82887,68.463551 16.58867,30.47832 64.36836,27.97277 79.3809,-4.16171 13.03508,-27.8999464 -1.29819,-58.081707 -30.18235,-63.559778 -2.83095,-0.536839 -5.62764,-0.775606 -8.36968,-0.742063 z m -102.28136,0.0023 c -37.5174,-0.440678 -64.5597,50.4334306 -34.05122,78.555171 21.86155,20.15127 58.83367,12.66579 71.54631,-14.48894 11.50744,-24.5774704 0.82041,-52.778384 -23.2858,-61.445891 -4.83623,-1.739166 -9.60189,-2.566222 -14.20929,-2.62034 z m -3.87987,6.669757 c 15.84846,0.370212 27.7354,17.349563 27.80865,42.2865736 0.0812,27.7139204 -14.35798,41.3088004 -33.85084,31.8712604 -23.87623,-11.55816 -26.14748,-64.389062 -3.12019,-72.598841 3.15674,-1.125469 6.22748,-1.62755 9.16238,-1.558993 z m 103.39996,0.04404 c 15.82103,0.471415 27.91406,17.639411 27.8703,42.2425236 -0.0451,24.7939404 -8.99297,35.9972004 -27.11943,33.9543404 -28.25507,-3.18493 -36.45342,-65.2038 -9.87141,-74.681911 3.13207,-1.116662 6.19072,-1.602253 9.12054,-1.514953 z" />
  </g>
</svg>
