<svg
   xmlns="http://www.w3.org/2000/svg"
   viewBox="0 0 10 10">
  <path
     d="m 6.1610922,2.4700182 c -5.40200996,6.44832 -5.18424996,6.17432 -5.15289,6.48352 0.03846,0.3797 0.46939,0.7124005 0.81147,0.6265 0.16788,-0.0423 1.11939,-1.1045 2.93145,-3.2728 1.47567,-1.76574 2.72007,-3.21035 2.76537,-3.21035 0.0453,0 0.0823,1.39215 0.0823,3.09375 0,2.8697 0.0133,3.1057 0.1833,3.2597 0.252,0.2284005 0.7739,0.2106005 1.0188,-0.0346 0.194,-0.1943 0.2003,-0.3343 0.2003,-4.41317 0,-4.07884997 -0.0063,-4.21886997 -0.2003,-4.41314994 -0.1234,-0.12357 -0.3339,-0.2006 -0.5483,-0.2006 -0.33,0 -0.4381,0.10762 -2.0915,2.08119994 z" />
</svg>
