<svg
   xmlns="http://www.w3.org/2000/svg"
   version="1.1"
   viewBox="0 0 32 32">
  <path
     d="M 16,0.126266 A 15.873734,15.873734 0 1 0 31.873734,16 15.887907,15.887907 0 0 0 16,0.126266 Z M 7.1702356,22.066034 10.146561,24.362056 H 5.8946677 Z m 0.1275568,-0.907071 v 0 L 5.6253811,19.85505 v -7.001451 l 4.4361419,3.458206 5.541634,4.52118 v 6.76051 z m 9.0990506,3.911742 h 3.245612 l -3.245612,2.52279 z m 0,-0.793687 V 20.648736 A 0.41101632,0.41101632 0 0 0 16.255114,20.336931 L 10.812691,15.900789 16,7.0568516 25.921084,24.277018 Z m 5.754229,-8.177807 4.251893,-3.259785 v 6.944759 l -1.488163,1.204703 z M 21.754229,15.418908 16.340151,6.0789162 A 0.45353525,0.45353525 0 0 0 16,5.8663215 v 0 A 0.41101632,0.41101632 0 0 0 15.659849,6.0647432 L 10.18908,15.404735 5.8663217,12.031567 16,3.9813156 26.204543,12.031567 Z M 0.91995289,16 A 15.108393,15.108393 0 0 1 15.603157,0.9199527 V 3.2443209 L 4.9734242,11.748107 v 0 l -0.070865,0.08504 v 0 a 0.51022716,0.51022716 0 0 0 0,0.155903 v 8.021904 A 0.41101632,0.41101632 0 0 0 5.058462,20.32276 l 1.5590274,1.204703 -1.7432761,3.04719 a 0.36849739,0.36849739 0 0 0 0,0.38267 0.38267037,0.38267037 0 0 0 0.3401514,0.198422 h 5.9384773 l 4.436142,3.444033 v 2.480271 A 15.108393,15.108393 0 0 1 0.91995289,16 Z M 16.396843,31.080047 v -2.480271 l 4.535353,-3.529071 h 5.669191 a 0.43936227,0.43936227 0 0 0 0.354324,-0.198422 0.39684335,0.39684335 0 0 0 0,-0.396843 l -1.629892,-2.834595 1.729103,-1.417298 a 0.36849739,0.36849739 0 0 0 0.155902,-0.297632 v -7.922694 a 0.19842167,0.19842167 0 0 0 0,-0.09921 c 0,0 0,0 0,0 0,0 0,0 0,0 0,0 0,0 0,0 v 0 L 16.396843,3.2443209 V 0.9199527 a 15.080047,15.080047 0 0 1 0,30.1600943 z" />
</svg>
