<svg version="1.0" id="Layer_1" xmlns="http://www.w3.org/2000/svg" x="0px" y="0px"
	 viewBox="317 192 450 444">
<style type="text/css">
	.st2{fill:#D26B7F;}
	.st3{fill:#FEECAC;}
	.st4{fill:#FFFFFF;}
	.st5{fill:#9D988D;}
</style>
<path class="st2" d="M510.9,230.9c5.2,6.3,8.4,14,11.2,21.6c4.7,13.8,6.9,28.3,8.5,42.7c1.5,15.3,2.2,30.6,3,45.9
	c0.2,4.4,0.7,8.7,0.4,13.1c-1.4,0.1-2.8,0.1-4.1,0.3c-0.6-34.9-6.6-69.5-14.4-103.4C514.1,244.2,512,237.7,510.9,230.9z"/>
<path class="st2" d="M653.6,329.4c18.8-8.9,40.6-11.8,60.8-6.3c-4.4,1.1-8.9,0.3-13.4,0.6c-15.2,1-30.1,5-43.8,11.6
	c-22.2,10.5-40.7,27.4-56.2,46.1c-2.5,3.1-4.8,6.4-7.5,9.4c-0.8-1.6-1.7-3.2-2.5-4.8c-0.3-1.1,0.5-2,1-2.9
	c8.5-11.3,17.9-21.7,28.3-31.2C630.2,342.9,641.4,335.3,653.6,329.4z"/>
<path class="st2" d="M363.6,391.7c14.6-6.9,31.3-8,47.1-5.8c22.3,3.5,42.9,13.2,63,23c0,1.1-0.1,2.2-0.1,3.3
	c-0.1,1.8-0.2,3.6-0.3,5.4c-14.3-6.4-28.4-13.3-43.5-17.8c-14.2-4.4-29.4-6.9-44.3-5c-7.7,1.1-15.2,3.3-22.1,6.7
	c-3,1.6-5.9,3.4-9.1,4.7C352.7,399.7,358,393.8,363.6,391.7z"/>
<path class="st2" d="M587,456.9c1-1.5,2-3,3-4.5c45.5,17,86.4,44.1,124.6,73.8c3,2,4,5.8,4.5,9.2c0.3,1.7-1.1,2.9-1.8,4.3
	c-6.5-6-12.4-12.7-19.3-18.2c-32.9-27.8-71.6-47.9-111.5-63.5L587,456.9z"/>
<path class="st2" d="M511.8,489.5c2.2-3.2,3.6-7.2,6.6-9.8l0.9,0.1c1,0.3,2,0.6,3.1,1c0.5,0.7,0.1,1.5-0.3,2.2
	c-15.2,23.5-26.8,49.2-43.7,71.6c-5.9,7.3-12.3,14.6-20.8,19c-4.1,2.1-8.8,3-13.4,2.7c6.2-4.4,12-9.3,17.4-14.7
	C481.9,540.2,496.3,514.3,511.8,489.5z"/>
<path class="st3" d="M490.9,373.8c10.2-10.9,24.1-17.8,39-19.4c1.4-0.1,2.8-0.2,4.1-0.3c23.1-1.3,45.8,11.9,57,32
	c0.8,1.6,1.7,3.2,2.5,4.8c9,19.4,7.8,43.3-3.5,61.5c-1,1.5-2,3.1-3,4.5c-8.7,11.9-21.3,20.3-35.5,24c-9.5,2.2-19.6,2.7-29-0.2
	c-1-0.4-2-0.7-3.1-1c-13.2-4.6-24.4-14-32.7-25.3c-7.7-10.7-13.4-23.5-13.3-36.9c0.1-1.8,0.2-3.6,0.3-5.4
	C475,397.8,481.1,384.3,490.9,373.8z"/>
<path class="st4" d="M482.8,199c13.5-6.4,28.8-7,43.5-5.9c11.7,0.9,23.6,2.8,34.3,8c10.2,4.8,18.8,12.3,24.8,21.8
	c8.4,13.2,11.8,28.8,13.3,44.2c0.6,9.4,1.2,18.8,0.6,28.2c2.7-1.9,5.3-4,8-5.9c17.9-12.4,38.6-21,60.3-23.8c2.5-0.3,4.9-0.6,7.4-0.8
	c2.7,0,5.4,0,8.1,0c3.9,0.1,7.7,0.4,11.5,0.9c11.5,1.7,22.4,5.9,32.1,12.2c11.3,7.4,20.5,17.7,27.5,29.1
	c6.3,10.4,11.7,21.9,12.4,34.3c0.9,13.4-2.2,26.8-9,38.5c-9.4,16.7-24,29.8-39.7,40.4c19.4,14.6,35.9,34,43.8,57.2
	c4.7,13.8,6.2,28.5,4.2,43c-2,14.9-7.5,29.2-15,42.2c-6.4,11-15.7,20.6-27.2,26.1c-14.5,7.3-31.5,8.3-47.3,5.5
	c-23.2-3.9-44.8-14.6-63.8-28.1c-7.5-5.4-14.6-11.3-21.2-17.6c-1.9-1.8-3.5-3.8-5.7-5.2c-8.1,24.3-23.2,46-42,63.2
	c-10.9,9.8-23.3,18.2-37,23.4c-12.9,4.9-27.1,6.8-40.8,4.4c-14.4-2.4-27.7-9.3-39-18.4c-8.4-6.8-16.3-14.5-22-23.8
	c-8-12.9-11.5-28.4-10.8-43.5c0.7-18.1,6.5-35.6,14.7-51.6c2.5-5,5.4-9.7,8.2-14.5c-15.2,0.5-30.6-0.8-45-5.8
	c-11.6-3.8-22-10.5-30.4-19.4c-10.1-10.9-16.5-24.8-19.5-39.3c-2.4-9-3.5-18.3-3.4-27.6c-0.4-18.7,0.7-38.2,8.7-55.5
	c3.5-7.7,8.8-14.6,15.4-20c5.8-4.2,12.3-7.1,19.2-8.6c13.3-2.8,27.1-1.1,40,2.5c18.8,5.2,36.2,14.4,52.5,25
	c-3.3-17.2-6.2-34.5-6.6-52c-0.5-18.7,1-37.9,8.7-55.2C461.7,215.1,470.8,204.6,482.8,199z M510.9,230.9c1.1,6.8,3.2,13.3,4.6,20
	c7.8,34,13.8,68.5,14.4,103.4c-14.9,1.6-28.7,8.5-39,19.4c-9.9,10.5-16,24-17.3,38.4c0-1.1,0.1-2.2,0.1-3.3
	c-20.1-9.8-40.7-19.5-63-23c-15.8-2.2-32.5-1.1-47.1,5.8c-5.7,2.1-10.9,8.1-9.2,14.5c3.1-1.3,6-3.1,9.1-4.7c7-3.4,14.5-5.6,22.1-6.7
	c14.9-1.9,30,0.6,44.3,5c15,4.5,29.2,11.4,43.5,17.8c-0.1,13.4,5.6,26.2,13.3,36.9c8.2,11.2,19.4,20.6,32.7,25.3l-0.9-0.1
	c-3,2.6-4.4,6.5-6.6,9.8c-15.5,24.8-29.9,50.7-50.2,72c-5.4,5.3-11.2,10.3-17.4,14.7c4.6,0.3,9.3-0.6,13.4-2.7
	c8.4-4.4,14.9-11.6,20.8-19c16.9-22.4,28.5-48.1,43.7-71.6c0.4-0.7,0.9-1.4,0.3-2.2c9.4,2.9,19.5,2.4,29,0.2
	c14.3-3.6,26.8-12.1,35.6-24l-0.7,1c39.9,15.6,78.6,35.8,111.5,63.5c6.9,5.6,12.8,12.3,19.3,18.2c0.7-1.3,2.2-2.6,1.8-4.3
	c-0.5-3.4-1.5-7.2-4.5-9.2c-38.2-29.7-79.1-56.8-124.6-73.8c11.2-18.2,12.5-42.1,3.5-61.5c2.7-3,5-6.3,7.5-9.4
	c15.6-18.7,34-35.6,56.3-46.1c13.7-6.6,28.6-10.6,43.8-11.6c4.5-0.4,9,0.4,13.4-0.6c-20.1-5.4-42-2.6-60.8,6.3
	c-12.2,5.8-23.4,13.4-33.3,22.5c-10.4,9.5-19.8,20-28.3,31.2c-0.5,0.9-1.3,1.8-1,2.9c-11.2-20-33.9-33.3-57-32
	c0.3-4.4-0.2-8.7-0.4-13.1c-0.8-15.3-1.5-30.6-3-45.9c-1.6-14.4-3.7-28.9-8.5-42.7C519.3,244.9,516.1,237.2,510.9,230.9z"/>
<path class="st5" d="M427.9,726.2c1.2-0.5,1.6,0,1.3,1.2C428,727.9,427.5,727.5,427.9,726.2z"/>
<path class="st5" d="M440,744.1c1,0.1,1.2,0.7,0.5,1.5C439.4,745.5,439.3,745,440,744.1z"/>
<path class="st5" d="M419.9,747.6c1.3-0.5,1.7-0.1,1.3,1.2C419.9,749.2,419.5,748.8,419.9,747.6z"/>
</svg>
