<svg
   xmlns="http://www.w3.org/2000/svg"
   viewBox="0 0 124.1 124.1"
>
<path
   d="m 57.580398,16.064833 c -0.896,0.716799 -1.971201,1.971201 -2.688001,4.300801 -0.716801,2.329601 -4.659202,13.798407 -9.676805,28.134412 H 78.726007 C 73.708405,34.164041 69.766003,22.695235 69.049203,20.365634 c -0.7168,-2.3296 -1.792001,-3.584002 -2.688001,-4.300801 -0.896001,-0.7168 -2.150401,-1.254401 -4.480002,-1.254401 -2.329601,0 -3.404801,0.537601 -4.300802,1.254401 z M 8.1211762,48.500046 H 30.879586 C 36.434789,32.19284 41.273191,18.573633 41.989992,16.064833 43.423591,11.764031 45.753193,8.0008289 49.337194,5.3128277 52.921196,2.6248265 57.221997,1.3704259 61.701999,1.3704259 c 4.480002,0 8.780805,1.0752005 12.364806,3.9424018 3.584002,2.6880012 5.913603,6.4512033 7.347203,10.7520053 0.896,2.5088 5.555203,15.948806 11.110406,32.435213 h 23.116806 c 3.76321,0 6.80961,3.046403 6.80961,6.809604 0,3.763202 -3.0464,6.809603 -6.80961,6.809603 H 97.542015 83.385209 40.556391 26.399584 8.1211762 c -3.7632019,0 -6.6304031,-3.046401 -6.6304031,-6.809603 0,-3.763201 3.0464013,-6.809604 6.6304031,-6.809604 z m 0,26.880012 c -3.7632019,0 -6.6304031,3.046403 -6.6304031,6.809604 0,3.763202 3.0464013,6.809603 6.6304031,6.809603 H 17.08118 l -3.584002,10.393605 -3.5840007,10.3936 -1.4336009,3.9424 c -1.2544012,3.58401 0.7168005,7.3472 4.1216016,8.6016 3.584001,1.25441 7.347203,-0.7168 8.601604,-4.1216 l 1.433601,-3.94241 3.584001,-10.39359 c 1.433601,-4.300801 3.225602,-9.318402 5.196802,-14.873605 h 61.286427 c 1.792001,5.376002 3.584002,10.572804 5.196803,14.873605 l 3.584004,10.39359 1.4336,3.94241 c 1.2544,3.584 5.0176,5.37601 8.6016,4.1216 3.584,-1.2544 5.37601,-5.01759 4.1216,-8.6016 v 0 l -1.4336,-3.9424 -3.584,-10.3936 -3.58401,-10.393605 h 8.96002 c 3.7632,0 6.8096,-3.046401 6.8096,-6.809603 0,-3.763201 -3.0464,-6.809604 -6.8096,-6.809604 H 102.38042 88.223611 36.255588 22.098782 Z m 100.8896438,40.320012 6.272,-2.1504 c 0,0 0,0 -6.272,2.1504 z m 0,0 c -6.272,2.1504 -6.272,2.1504 -6.272,2.1504 z m -94.080041,0 6.272003,2.1504 c 0,0 0,0 -6.272003,-2.1504 z m 0,0 c -6.272003,-2.1504 -6.272003,-2.1504 -6.272003,-2.1504 z" />
</svg>