<svg
   xmlns="http://www.w3.org/2000/svg"
   viewBox="0 0 40 40"
 >
<path
   d="m 22.6,0.6 13.1,6.7 c 1.9,1 3.1,2.9 3.1,5.1 v 3.1 H 34 v -3.1 c 0,-0.3 -0.2,-0.6 -0.5,-0.8 L 20.4,4.9 C 20.2,4.8 19.9,4.8 19.6,4.9 L 6.5,11.6 C 6.2,11.7 6,12 6,12.4 v 3.1 H 1.2 V 12.4 C 1.2,10.3 2.4,8.3 4.3,7.3 L 17.4,0.6 c 1.6,-0.8 3.5,-0.8 5.2,0 z m 1.5,19.2 c 0,-2.3 -1.9,-4.1 -4.1,-4.1 -2.3,0 -4.1,1.8 -4.1,4.1 0,2.3 1.9,4.1 4.1,4.1 2.2,0 4.1,-1.8 4.1,-4.1 z m 9.3,8.6 c 0.3,-0.1 0.5,-0.4 0.5,-0.8 v -3.1 h 4.8 v 3.1 c 0,2.1 -1.2,4.1 -3.1,5.1 L 22.5,39.4 C 21.7,39.8 20.8,40 19.9,40 19,40 18.1,39.8 17.3,39.4 L 4.3,32.7 C 2.4,31.7 1.2,29.8 1.2,27.6 V 24.5 H 6 v 3.1 c 0,0.3 0.2,0.6 0.5,0.8 L 17.6,34 v -5.6 c -3.8,-1.1 -6.5,-4.5 -6.5,-8.6 0,-4.9 4,-9 9,-9 4.9,0 9,4 9,9 0,4.1 -2.8,7.6 -6.5,8.6 V 34 Z" />
</svg>