<svg viewBox="0 0 40 40" fill="none" xmlns="http://www.w3.org/2000/svg">
<path d="M15.896 2.04663L14.0696 0.108116C17.2273 -0.298857 25.5591 0.223026 33.6247 5.56635C33.7296 6.30434 33.707 7.04 33.707 7.04L34.3014 7.36182L34.3048 7.36693L34.306 7.35936L34.318 7.36671C34.6514 7.93938 34.9884 8.79323 35.2037 9.79789C35.4642 11.0135 35.5384 12.413 35.2347 13.7513C34.9287 15.0997 34.3479 16.2126 33.7792 17.0266C33.359 17.6281 32.9583 18.0486 32.695 18.2788C31.6647 18.3006 29.7468 18.9919 29.1985 21.3886C27.5462 22.3345 24.9523 23.2799 21.5261 23.2799C18.2532 23.2799 14.9147 22.3318 12.405 20.4956C9.90545 18.6668 8.22679 15.9597 8.22679 12.3957C8.22679 9.56062 9.49689 7.34601 11.1077 5.7173C12.7239 4.08328 14.9331 2.75936 16.2144 2.31996L15.896 2.04663ZM30.0493 6.69717C29.4143 7.38951 28.8206 7.72168 28.6511 7.81176C24.9431 6.98615 23.6072 4.9782 23.6072 4.9782C27.1048 4.95562 30.2615 5.82639 32.5711 7.29943C32.5711 7.29943 31.3209 6.87534 30.0493 6.69717Z" fill="white"/>
<path d="M14.0177 2.58265C6.0676 4.1843 0 11.3456 0 20.0054C0 30.9537 9.23985 40 20.6378 40C29.1489 40 36.2336 34.788 39.938 27.8147C35.0114 28.9849 29.1293 26.9043 29.0917 22.3564C27.3184 23.2694 24.7647 24.0799 21.5261 24.0799C18.1127 24.0799 14.6019 23.0937 11.9338 21.1416C9.25559 19.1821 7.42803 16.2471 7.42803 12.3957C7.42803 9.29858 8.82158 6.89204 10.5403 5.1543C11.5346 4.15838 12.8979 3.21323 14.0177 2.58265Z" fill="white"/>
</svg>
