<svg viewBox="31 34 126 115" fill="none" xmlns="http://www.w3.org/2000/svg">

<path d="M155.87 63.8194C155.482 66.0904 155.027 67.1914 154.495 68.4664L154.494 68.4694C153.919 69.8504 153.267 71.4184 152.677 74.5294C152.442 75.7744 152.325 76.6884 152.223 77.4934L152.216 77.5434L152.21 77.5904C152.046 78.8794 151.936 79.7484 151.412 81.2944C150.987 82.5564 150.276 84.6634 148.564 86.9324C147.181 88.7684 144.866 91.8414 141.777 92.2094C141.509 92.2274 140.948 92.2554 140.719 92.1384C131.956 87.6634 124.427 84.3574 121.821 83.6154C118.79 82.7564 119.178 76.1474 119.521 70.3164C119.675 67.7104 119.82 65.2464 119.698 63.1364C119.272 55.7754 117.969 47.7184 111.558 43.7904C107.731 41.4464 102.794 40.7584 98.0771 40.7484C98.9511 40.3324 99.9262 39.7674 100.988 39.1494L101.021 39.1304C103.798 37.5224 107.246 35.5254 110.672 35.1744C111.792 35.0634 112.893 34.9344 113.979 34.8134C120.885 34.0314 126.852 33.3594 133.145 35.5144C135.998 36.4934 141.85 39.7584 143.361 42.7894C144.425 44.9294 146.22 46.5974 149.801 49.9264C151.665 51.6604 152.893 52.6694 153.792 53.4074L153.833 53.4414C155.095 54.4794 155.344 54.6964 155.72 55.4634C156.88 57.8284 156.457 60.3404 155.87 63.8194Z" fill="white"/>
<path d="M123.992 94.0792C124.407 94.2222 124.562 94.7262 124.321 95.0922C123.385 96.5122 122.313 98.4602 121.028 100.842C120.425 101.965 119.854 103.025 119.375 103.852C117.677 106.768 117.539 109.222 117.431 111.192C117.314 113.252 117.21 114.198 115.979 115.019C114.963 115.7 113.922 115.927 106.707 117.026C105.448 117.221 104.889 117.465 104.398 117.679C104.264 117.737 104.131 117.795 103.979 117.852C103.562 118.008 103.154 117.653 103.179 117.21C103.236 116.17 103.273 114.871 103.277 113.237V112.924C103.315 111.51 103.256 110.363 103.205 109.438C103.11 107.596 103.098 106.82 103.589 106.018C104.192 105.049 104.662 104.753 105.435 104.263C106.514 103.585 107.994 102.652 110.184 99.6422C111.348 98.0482 111.606 97.1842 111.767 96.4372C111.837 96.1272 111.862 96.0112 112.758 95.3322C113.705 94.6132 116.592 92.4262 120.287 93.0472C121.309 93.2202 122.611 93.6022 123.992 94.0792Z" fill="white"/>
<path d="M95.2844 127.344C95.1274 127.549 94.9434 127.644 94.6784 127.657C93.9244 127.689 93.3944 127.502 93.0434 127.08C92.2994 126.174 92.3994 124.354 92.5734 123.29L95.6244 122.477C95.8634 124.092 95.9754 126.445 95.2844 127.344Z" fill="white"/>
<path d="M95.5317 116.333C95.4807 116.778 95.4247 117.279 95.4267 117.803C95.4307 117.998 95.4327 118.195 95.4387 118.386C95.4447 118.885 95.4647 119.677 95.3957 120.037C94.4427 120.384 93.6287 120.384 92.5587 120.365C92.5427 120.056 92.5627 119.595 92.5747 119.284C92.5807 119.044 92.5937 118.805 92.5967 118.577C92.5997 118.324 92.5967 118.075 92.5967 117.826C92.5927 117.239 92.5847 116.277 92.7287 115.994C93.0157 115.952 93.3097 115.889 93.6247 115.817C94.2557 115.681 95.0787 115.507 95.6027 115.586C95.5947 115.79 95.5627 116.093 95.5317 116.333Z" fill="white"/>
<path d="M89.8867 126.405C89.7397 127.969 89.2567 129.903 87.7897 130.197C87.1297 130.333 86.8107 130.134 86.6097 129.945C85.6187 129.027 85.4607 126.253 85.5987 124.269C86.2587 124.281 87.1237 124.133 88.1477 123.935C88.7727 123.811 89.3947 123.673 89.8897 123.559C89.9467 124.293 89.9877 125.341 89.8867 126.405Z" fill="white"/>
<path d="M89.1928 120.79L85.8828 121.951C86.0508 120.666 86.2748 118.858 86.3538 117.657C86.4108 116.811 86.6408 116.552 86.7068 116.496C86.7288 116.477 86.7728 116.437 86.8958 116.437C86.9148 116.437 86.9338 116.44 86.9548 116.44L87.0248 116.45L89.1158 116.336C89.2048 117.319 89.2048 119.478 89.1928 120.79Z" fill="white"/>
<path d="M83.8453 119.761C83.6583 120.259 83.4373 121.67 83.2993 122.663L79.1533 122.537C79.3873 121.253 79.7113 119.946 80.0673 118.905C80.4273 117.87 80.8153 117.094 81.1723 116.876C81.5883 116.626 82.5043 116.57 83.0653 117.049C83.9773 117.827 84.2293 118.717 83.8453 119.761Z" fill="white"/>
<path d="M82.2974 132.451C81.9764 132.89 81.6194 133.113 81.1774 133.16C80.7264 133.211 80.3754 133.11 80.0954 132.848C78.7934 131.646 78.8994 127.708 78.9474 125.815C80.6664 125.423 82.5224 125.09 83.4024 125.039C83.5344 126.624 83.5724 130.716 82.2974 132.451Z" fill="white"/>
<path d="M76.8859 122.425C76.6839 122.965 76.4879 123.475 76.3399 123.927C75.8579 124.078 74.3839 123.946 72.8789 123.614L73.9139 117.089C75.6139 116.638 77.5859 116.493 78.0629 116.998C78.6909 117.665 77.4289 121.003 76.8859 122.425Z" fill="white"/>
<path d="M75.0102 133.444C74.2062 134.435 73.0002 134.898 71.3182 134.88C70.1542 134.861 69.7382 134.419 69.5302 134.088C68.5962 132.609 69.5102 129.122 70.4262 126.895L76.0422 127.232C76.0992 127.623 76.1462 128.099 76.1682 128.617C76.2302 130.202 76.0312 132.176 75.0102 133.444Z" fill="white"/>
<path d="M121.42 86.0937C116.364 84.6617 116.799 77.2687 117.22 70.1237C117.369 67.5957 117.51 65.2047 117.395 63.2507C117.007 56.5627 115.882 49.2787 110.503 45.9817C104.717 42.4437 95.2524 43.2497 89.4124 43.9927C89.4074 43.9937 89.4024 43.9967 89.3974 43.9977C89.3944 43.9977 89.3924 43.9977 89.3904 43.9987C87.2514 44.6467 85.2504 45.0666 83.6994 44.9846C80.2534 44.8066 77.5724 43.3557 75.2114 42.0827C73.3694 41.0847 71.7624 40.2227 70.2494 40.2227C70.1694 40.2227 70.0854 40.2227 70.0024 40.2257C65.4754 40.5197 63.3944 41.6257 61.5044 43.3127C61.0294 43.7327 60.4494 44.9517 58.5514 50.4207C57.5934 53.1847 57.4164 54.6967 57.2384 56.1667C57.0784 57.5097 56.9154 58.8907 56.2014 60.9507C55.7044 62.3727 55.3374 63.5987 54.9824 64.7807C54.0464 67.9217 53.3064 70.3957 51.0834 73.3377C50.8224 73.6857 50.4994 74.1977 50.1254 74.7807C49.6214 75.5747 48.9974 76.5617 48.1744 77.7047C47.5934 78.5097 46.2594 81.5227 46.3324 82.4407C46.4414 83.9027 46.9164 84.8097 47.4604 85.8687C48.0014 86.9127 48.6174 88.0947 48.7294 89.7267L48.7484 89.9917C48.9464 92.5807 48.5774 93.8797 43.6524 98.2787C40.5034 101.097 38.2664 103.811 36.7574 105.803C36.6244 105.979 36.7974 106.24 37.0174 106.222C37.0684 106.215 37.1194 106.212 37.1664 106.212C37.2614 106.204 37.3554 106.201 37.4494 106.201C37.5434 106.201 37.6384 106.204 37.7314 106.208C37.8264 106.212 37.9174 106.219 38.0104 106.233C39.2014 106.369 40.3624 106.873 41.2004 107.741C41.3464 107.892 41.5734 107.933 41.7674 107.855C42.5694 107.521 43.4504 107.576 44.2924 107.655C45.3324 107.751 46.3824 108.062 47.0724 108.733C47.2804 108.936 47.5774 109.039 47.8614 108.974C48.6764 108.789 49.5314 108.806 50.3244 109.094C50.9504 109.327 51.4764 109.695 51.8944 110.158C52.1864 110.482 52.7044 110.544 53.0704 110.308C53.2984 110.161 53.5494 110.037 53.8284 109.943C54.8974 109.58 56.0804 109.787 57.1184 110.16C57.6294 110.344 58.1654 110.508 58.6264 110.816C59.4734 111.38 59.9904 112.204 60.3204 113.125C60.5074 113.644 61.2064 113.824 61.6304 113.471C62.3924 112.837 62.9954 112.73 63.6034 113C63.9134 113.14 64.1294 113.332 64.2744 113.573C64.5274 113.992 65.0424 114.337 65.5134 114.205C67.1684 113.744 69.2404 113.984 70.7414 114.788C71.2714 115.066 71.7924 115.491 72.1724 116.133C72.1734 116.133 72.1734 116.133 72.1734 116.134C72.1744 116.137 72.1774 116.136 72.1774 116.133L72.2214 115.848C72.2414 115.719 72.3324 115.612 72.4574 115.573L72.8054 115.466C73.6254 115.205 77.8034 114.001 79.4284 115.712C79.4984 115.782 79.6204 115.789 79.6884 115.716C79.9094 115.473 80.0894 115.34 80.2044 115.274C81.2624 114.632 83.0774 114.592 84.2844 115.626C84.5274 115.83 84.9214 115.756 85.1044 115.496C85.2174 115.337 85.3454 115.196 85.4894 115.075C85.9134 114.709 86.4504 114.534 87.0454 114.571L89.3404 114.447C89.9174 114.415 91.7114 114.293 92.2764 114.174C92.3194 114.165 92.3634 114.157 92.4084 114.15C92.6474 114.113 92.9314 114.052 93.2284 113.99C94.3414 113.747 95.6044 113.474 96.6414 113.953C97.6374 114.414 97.5114 115.549 97.3914 116.55C97.3444 116.956 97.2934 117.38 97.2974 117.783C97.3044 117.971 97.3084 118.16 97.3114 118.353C97.3264 119.216 97.3444 120.013 97.1734 120.625C97.1734 120.626 97.1734 120.628 97.1734 120.629C97.1734 120.63 97.1734 120.631 97.1734 120.632L97.2784 121.106C97.2834 121.124 97.2884 121.147 97.2944 121.175C97.3884 121.609 97.8544 121.851 98.2334 121.62C99.0334 121.132 99.8744 120.498 100.128 120.133C100.147 120.105 100.162 120.076 100.173 120.044C100.208 119.952 100.273 119.753 100.344 119.337C100.486 118.484 100.645 116.751 100.659 113.232C100.659 113.046 100.659 112.913 100.663 112.851C100.692 111.545 100.641 110.497 100.59 109.572C100.496 107.664 100.419 106.163 101.366 104.635C102.288 103.148 103.183 102.586 104.043 102.041C105.043 101.414 106.172 100.702 108.073 98.0947C109.005 96.8107 109.12 96.2927 109.211 95.8787C109.418 94.9097 109.738 94.3267 111.177 93.2387C112.349 92.3537 115.914 89.6517 120.724 90.4607C122.301 90.7287 124.858 91.5697 127.381 92.5637C127.382 92.5647 127.383 92.5647 127.385 92.5647C127.386 92.5647 127.387 92.5647 127.388 92.5647C127.482 92.5927 127.579 92.6257 127.668 92.6727C127.7 92.6897 127.733 92.7057 127.767 92.7197C130.021 93.6197 132.214 94.6247 133.619 95.4277C133.946 95.6147 134.365 95.5067 134.595 95.2077C135.055 94.6107 135.557 94.2647 136.098 93.9397C136.301 93.8167 136.457 93.7227 136.606 93.5957C136.657 93.5527 136.707 93.5107 136.756 93.4707C137.176 93.1307 137.175 92.4037 136.694 92.1557C129.915 88.6507 123.53 86.6937 121.42 86.0937ZM73.2424 87.6497C71.6784 94.4937 61.0764 102.017 56.2574 102.017H56.1624C56.0864 102.013 56.0024 102.006 55.9124 101.991C55.8214 101.977 55.7234 101.955 55.6194 101.926C55.5684 101.911 55.5134 101.893 55.4594 101.879C54.5844 101.603 53.3734 100.931 52.4564 100.029C51.8254 99.4097 51.3284 98.6787 51.1724 97.8917C51.1434 97.7537 51.1144 97.6167 51.0844 97.4787C50.8244 96.3147 50.5004 94.8607 51.5274 92.4807C51.6694 92.1617 51.7954 91.8637 51.9114 91.5917C51.9484 91.5017 51.9884 91.4107 52.0244 91.3237C52.1334 91.0667 52.2304 90.8307 52.3184 90.6167C52.4634 90.2547 52.5824 89.9467 52.6804 89.6847C52.7204 89.5827 52.7574 89.4847 52.7894 89.3947C53.0834 88.5717 53.1194 88.2637 53.1594 87.9447C53.1964 87.6947 53.2324 87.3887 53.3344 86.9537C53.6354 85.6697 53.7914 84.5817 53.9294 83.6127C54.1764 81.8707 54.3904 80.3666 55.3294 78.9846C55.4894 78.7496 55.6664 78.5346 55.8664 78.3466C55.9354 78.2816 56.0014 78.2197 56.0724 78.1577C56.1454 78.0957 56.2184 78.0417 56.2894 77.9867C56.5174 77.8267 56.7614 77.6857 57.0254 77.5657C57.1164 77.5257 57.2074 77.4857 57.2974 77.4537C57.4834 77.3847 57.6784 77.3257 57.8824 77.2747C58.7454 77.0657 59.7644 77.0327 60.9354 77.1807C62.2164 77.2827 63.4024 77.5247 64.4534 77.8187C65.3314 78.0607 66.1154 78.3447 66.7784 78.6087C66.8474 78.6347 66.9134 78.6597 66.9784 78.6887C67.1054 78.7397 67.2284 78.7907 67.3484 78.8457C67.5304 78.9217 67.6964 78.9947 67.8524 79.0627C68.0594 79.1567 68.2484 79.2407 68.4154 79.3157L68.5714 79.3887C69.3114 79.7257 69.9474 80.0957 70.4904 80.4837C70.7584 80.6807 71.0094 80.8797 71.2334 81.0817C71.3104 81.1477 71.3834 81.2167 71.4504 81.2887C71.5234 81.3587 71.5924 81.4277 71.6574 81.4967C73.6944 83.6417 73.5934 86.1227 73.2424 87.6497ZM78.1554 61.7087L77.9494 62.9497C77.4744 65.7457 76.3824 69.5797 72.3564 70.5667C68.4834 71.5137 67.5654 71.7157 64.8084 71.8397C64.7474 71.8467 64.6814 71.8466 64.6164 71.8466C62.6034 71.8466 58.7294 70.5777 58.0434 67.4217C57.6044 65.3907 58.5004 63.9187 59.9764 61.4777C60.2224 61.0747 60.4884 60.6427 60.7704 60.1607C62.7214 56.8737 63.4904 54.4947 64.1084 52.5867C64.7094 50.7227 65.2104 49.1817 66.4984 47.9047C66.7954 47.6077 67.1324 47.3277 67.5244 47.0597C67.7744 46.8887 68.0354 46.7367 68.3114 46.5947C68.6774 46.4127 69.0614 46.2547 69.4644 46.1267C70.3604 45.8407 71.3284 45.6957 72.2974 45.6957C74.1754 45.6957 76.0514 46.2357 77.3894 47.3097C77.9914 47.7917 78.8474 48.7557 79.3444 51.5997C79.6004 53.0647 79.1644 55.7567 78.1554 61.7087ZM106.878 69.6667C105.492 72.0457 104.734 73.3557 103.537 74.3377C101.162 76.2887 98.3914 76.7827 96.1094 76.7827C94.4704 76.7827 93.0784 76.5297 92.2584 76.3797C89.9004 75.9487 85.5124 75.1507 84.0504 71.6867C83.7644 71.0017 83.7614 70.5667 83.7614 70.0147C83.7614 69.4697 83.7614 68.5537 83.5074 66.3727L83.4934 66.2277C83.3764 65.2407 83.2464 64.1237 83.5294 62.6907L83.5624 62.5197C84.3894 58.3137 84.6134 57.6707 84.7994 57.3077C85.2274 56.4807 86.2424 56.1547 87.0694 56.5797C87.8704 56.9967 88.2044 57.9677 87.8274 58.7837C87.7434 59.0227 87.5084 59.9187 86.8694 63.1727L86.8364 63.3437C86.6544 64.2617 86.7344 64.9577 86.8404 65.8397L86.8544 65.9887C87.1294 68.3567 87.1294 69.4297 87.1294 70.0107C87.1294 70.1137 87.1294 70.2257 87.1334 70.2927C87.1344 70.3187 87.1474 70.3527 87.1554 70.3777C87.4294 71.0277 88.0474 71.5207 88.8004 71.8997C89.2684 72.1347 89.7574 71.6877 89.6534 71.1747C88.9044 67.4677 88.9454 63.1436 90.3614 60.4716C90.8254 59.5846 91.6834 58.1327 92.4984 56.7777C92.5014 56.7737 92.5034 56.7707 92.5054 56.7667C92.5074 56.7627 92.5104 56.7597 92.5124 56.7557C92.5954 56.6187 92.6774 56.4837 92.7594 56.3477C92.8284 56.2307 92.8974 56.1197 92.9614 56.0107C93.3204 55.4147 93.6574 54.8677 93.9274 54.4327C93.9634 54.3707 93.9994 54.3087 94.0364 54.2507C94.0614 54.2067 94.0874 54.1667 94.1124 54.1307C94.1704 54.0357 94.2214 53.9487 94.2694 53.8737C94.2904 53.8377 94.3124 53.8047 94.3304 53.7717C94.3414 53.7577 94.3494 53.7427 94.3564 53.7317C94.3814 53.6877 94.4074 53.6477 94.4294 53.6157C94.4724 53.5467 94.5054 53.4957 94.5234 53.4627C94.5254 53.4597 94.5264 53.4577 94.5274 53.4547C94.5314 53.4477 94.5394 53.4367 94.5434 53.4297C94.5464 53.4247 94.5474 53.4237 94.5504 53.4187C94.8314 53.0097 95.1094 52.6207 95.3794 52.2547C95.7464 51.7577 95.3214 51.1067 94.7494 51.3407C93.3734 51.9017 92.4334 52.6187 92.2424 52.7697C91.5134 53.3507 90.4534 53.2307 89.8774 52.5017C89.3004 51.7737 89.4204 50.7107 90.1494 50.1297C91.0164 49.4487 95.6114 46.0967 101.114 47.6707C105.079 48.7987 107.157 51.8277 107.94 52.9667C108.571 53.8917 110.505 56.6997 110.443 60.6197C110.397 63.6097 109.15 65.7607 106.878 69.6667Z" fill="white"/>
<path d="M71.1392 49.1641C70.8572 49.8461 70.5201 50.6911 70.1581 51.6091C69.3121 53.7351 68.3531 56.1431 67.8921 57.0161C67.0971 58.5251 66.4782 59.477 65.9842 60.244C65.4182 61.125 64.9672 61.8221 64.6272 62.7941C64.0302 64.4941 63.9232 66.3941 64.3112 68.4601C63.2572 68.3441 61.5322 67.6181 61.3372 66.7031C61.1912 66.0221 61.6141 65.2771 62.8611 63.2261C63.1111 62.8171 63.3791 62.3721 63.6721 61.8771C65.8151 58.2681 66.6822 55.5831 67.3202 53.6201C68.0082 51.4841 68.3332 50.5881 69.4282 49.8401C69.9182 49.4991 70.5142 49.2821 71.1392 49.1641Z" fill="white"/>
<path d="M69.0466 124.848C67.8786 127.234 66.4246 129.436 65.5186 130.527C64.7686 128.499 63.4646 123.852 63.8086 120.113C63.8186 120.005 63.8306 119.898 63.8466 119.794C63.9846 118.639 64.2916 117.58 64.8376 116.731C65.1976 116.173 66.1946 115.832 67.3266 115.832C68.1626 115.832 69.0716 116.015 69.8546 116.435H69.8606C70.2796 116.659 70.8506 117.113 70.9106 118.432C70.9966 120.214 70.1476 122.609 69.0466 124.848Z" fill="white"/>
<path d="M133.041 98.1105C133.131 98.1835 133.188 98.2935 133.136 98.3975C132.787 99.0985 132.369 99.5905 131.875 100.17C131.279 100.88 130.597 101.684 129.963 102.939C129.06 104.718 128.771 106.342 128.619 110.497C128.44 115.378 128.629 118.119 128.771 120.118C128.906 122.049 128.989 123.213 128.645 125.096C127.951 128.895 126.326 131.41 124.268 134.593C121.693 138.574 119.03 142.69 114.62 144.002C114.21 144.128 114.196 144.127 113.046 144.131C112.045 144.131 110.38 144.136 107.228 144.252C101.467 144.461 98.5769 144.565 96.1039 145.04C93.5099 145.542 92.1569 146.093 90.8449 146.623C89.6609 147.102 88.5419 147.557 86.3969 147.998C85.1179 148.256 83.2069 148.539 76.6949 148.549C69.9269 148.561 65.8409 148.564 60.4459 147.949C53.0439 147.104 49.3279 146.681 46.8599 145.363C41.0389 142.258 38.5809 136.674 34.5149 127.423C34.5079 127.407 34.5008 127.39 34.4938 127.373C34.4438 127.258 34.5839 127.148 34.6919 127.212C34.8849 127.332 35.0859 127.431 35.2979 127.502C35.4759 127.565 35.6608 127.613 35.8478 127.644C36.2198 127.707 36.6079 127.711 37.0019 127.644C37.0709 127.632 37.1339 127.615 37.1949 127.59C37.2069 127.585 37.2179 127.58 37.2299 127.575C37.2989 127.541 37.3838 127.569 37.4128 127.64C37.6718 128.353 38.0829 128.988 38.7729 129.354C39.4639 129.714 40.2499 129.741 41.0189 129.735C41.8109 129.723 42.6089 129.679 43.3979 129.584C43.8159 129.54 44.2438 129.744 44.4038 130.133C45.1268 131.885 46.0219 133.153 47.3669 133.34C47.4399 133.35 47.5349 133.363 47.6549 133.363C47.9579 133.363 48.4259 133.275 49.0859 132.821C49.5969 132.471 50.3879 132.676 50.7549 133.175C51.0909 133.63 51.4908 133.958 51.8348 134.234C53.2198 135.656 56.5858 136.338 59.4128 136.338C60.9548 136.338 62.3379 136.135 63.1519 135.739C64.3159 135.174 64.3159 134.306 64.2589 133.955C64.1599 133.326 64.0698 132.702 63.9938 132.084C63.9848 132.01 64.0969 131.981 64.1269 132.05C64.2959 132.419 64.5029 132.879 65.0539 132.968C65.1139 132.974 65.1808 132.988 65.2568 132.988C66.0448 132.988 67.2708 133.244 67.4818 134.003C67.5898 134.39 67.7419 134.752 67.9489 135.079C68.4219 135.828 69.3849 136.72 71.2939 136.752H71.4419C73.6339 136.752 75.3259 136.035 76.4669 134.618C76.5409 134.527 76.6118 134.433 76.6798 134.338C77.0898 133.76 78.3079 133.735 78.8289 134.215C79.4159 134.758 80.1548 135.038 80.9778 135.038C81.1098 135.038 81.2438 135.032 81.3818 135.016C82.3628 134.912 83.2119 134.393 83.8459 133.506C84.2609 132.927 84.5639 132.215 84.7849 131.445C84.8499 131.218 85.1618 131.15 85.3358 131.309C85.7548 131.697 86.4268 132.107 87.3958 132.107C87.6318 132.107 87.8879 132.082 88.1599 132.025C90.0639 131.642 91.0118 130.066 91.4608 128.287C91.4758 128.227 91.5618 128.211 91.6018 128.258C92.0838 128.845 92.9739 129.523 94.5229 129.523C94.6019 129.523 94.6839 129.523 94.7649 129.519C95.5849 129.481 96.2758 129.121 96.7748 128.477C97.3818 127.686 97.6208 126.514 97.6758 125.334C97.6918 124.99 97.9138 124.687 98.2318 124.554C99.8658 123.871 101.845 122.4 102.425 121.398C102.445 121.363 102.465 121.326 102.485 121.288C102.618 121.03 102.846 120.827 103.131 120.773C104.397 120.533 104.949 120.293 105.451 120.075C105.86 119.895 106.189 119.753 107.109 119.61C114.429 118.493 115.858 118.247 117.442 117.191C119.811 115.611 119.931 113.437 120.048 111.333C120.148 109.554 120.262 107.534 121.644 105.165C122.146 104.3 122.725 103.221 123.341 102.079C124.419 100.08 125.925 97.2815 127.003 95.8145C127.206 95.5375 127.573 95.4515 127.889 95.5855C130.419 96.6605 132.574 97.7365 133.041 98.1105Z" fill="white"/>
<path d="M61.9542 119.892C61.6642 122.423 61.4872 125.804 61.8972 130.208C62.0132 131.451 62.1752 132.741 62.3762 134.048C62.0292 134.237 60.9932 134.502 59.1512 134.473C56.5042 134.42 53.9272 133.754 53.1532 132.917L53.0332 132.809C52.3892 132.292 51.9672 131.951 51.9072 131.027C51.8872 130.715 52.0212 130.406 52.3072 129.969C52.4652 129.723 52.6732 129.439 52.9312 129.089C53.3762 128.492 53.9282 127.748 54.4932 126.788C56.1502 123.989 56.7782 123.125 57.5762 122.033C57.6392 121.945 57.7062 121.856 57.7752 121.765C58.2452 121.121 58.7972 120.351 59.6272 119.086C60.2452 118.147 60.7592 117.411 61.1832 116.833C61.8902 115.872 62.3532 115.35 62.6502 115.066C62.6062 115.502 62.5082 116.114 62.4132 116.679C62.2732 117.548 62.0962 118.611 61.9542 119.892Z" fill="white"/>
<path d="M60.7413 80.5451C60.7253 80.5671 60.7063 80.5891 60.6903 80.6121C60.3463 81.0891 59.9523 81.6281 59.4823 82.6781C58.2203 85.4831 58.1963 87.0711 58.1763 88.3481C58.1643 89.0171 58.1573 89.5501 57.9743 90.1721C57.8483 90.5821 57.6433 91.0521 57.4063 91.5941C56.6623 93.2981 55.6903 95.5321 56.1263 98.5381C55.5233 98.2481 54.6013 97.5851 54.4733 97.2321C54.4413 97.0681 54.4063 96.9071 54.3693 96.7461C54.1603 95.8081 54.0223 95.1971 54.6183 93.8241C56.1863 90.2081 56.3793 89.3511 56.5023 88.3661C56.5273 88.1511 56.5533 87.9841 56.6163 87.7121C56.9473 86.2861 57.1203 85.0651 57.2623 84.0841C57.4733 82.5951 57.6153 81.6101 58.1173 80.8691C58.3003 80.5951 58.8183 80.4531 59.5593 80.4531C59.8523 80.4531 60.1833 80.4751 60.5443 80.5261L60.6283 80.5321C60.6653 80.5361 60.7043 80.5391 60.7413 80.5451Z" fill="white"/>
<path d="M58.6733 116.215C58.5883 115.348 58.4363 114.479 58.1213 113.662C58.0993 113.621 58.0053 113.412 57.9853 113.372C57.9283 113.268 57.8633 113.17 57.8023 113.067C57.7983 113.063 57.7963 113.063 57.7963 113.06C57.7923 113.054 57.7903 113.054 57.7903 113.051C57.7553 113.013 57.7233 112.976 57.6893 112.94C57.6383 112.889 57.5833 112.84 57.5283 112.795C57.5183 112.783 57.5093 112.773 57.5003 112.769C57.4753 112.748 57.4373 112.718 57.3963 112.694C57.3293 112.659 57.2663 112.621 57.2013 112.588C57.1813 112.575 57.1343 112.556 57.0903 112.54C57.0903 112.54 57.0873 112.54 57.0873 112.537C57.0773 112.533 57.0673 112.531 57.0593 112.527C57.0493 112.521 57.0433 112.517 57.0373 112.515C57.0273 112.511 57.0213 112.509 57.0153 112.509C57.0093 112.509 57.0093 112.505 57.0093 112.505C56.9893 112.495 56.9773 112.493 56.9683 112.489C56.4633 112.304 55.9513 112.101 55.4153 112.022C55.4123 112.022 55.4033 112.019 55.3963 112.019H55.3843C55.3243 112.019 55.2013 112.007 55.1953 112.007C55.1203 112.003 55.0473 112.003 54.9743 112.007C54.9393 112.007 54.9053 112.007 54.8733 112.01H54.8453C54.8333 112.01 54.8183 112.014 54.8023 112.014C54.7963 112.02 54.7863 112.02 54.7823 112.02C54.7793 112.02 54.7763 112.02 54.7763 112.02C54.6563 112.055 54.5303 112.087 54.4103 112.124C54.3593 112.15 54.3033 112.175 54.2523 112.207C54.2093 112.232 54.1643 112.264 54.1203 112.286C54.1173 112.289 54.1113 112.295 54.1043 112.295L54.0953 112.305C54.0383 112.362 53.9783 112.415 53.9213 112.472C53.9023 112.492 53.8493 112.557 53.8113 112.605C53.8013 112.611 53.7953 112.617 53.7953 112.623C53.7923 112.626 53.7923 112.626 53.7893 112.629C53.7863 112.632 53.7863 112.635 53.7793 112.638C53.7763 112.642 53.7763 112.645 53.7733 112.645C53.7583 112.672 53.7423 112.695 53.7363 112.708C53.5333 113.023 53.3283 113.336 53.1173 113.647C52.6313 114.392 52.1333 115.133 51.6283 115.869C51.1673 116.535 50.7073 117.201 50.2493 117.866C49.9933 118.239 49.7413 118.607 49.4893 118.98C49.4453 119.043 49.4043 119.106 49.3633 119.169C49.6623 119.226 49.9623 119.285 50.2653 119.342C50.9433 119.466 51.6183 119.585 52.3063 119.679C53.7223 119.872 55.1623 119.961 56.5973 119.91C56.6663 119.906 56.7353 119.91 56.7993 119.922C57.1443 119.43 57.5503 118.843 58.0683 118.057C58.3553 117.618 58.6293 117.212 58.8873 116.836C58.7713 116.656 58.6983 116.441 58.6733 116.215Z" fill="white"/>
<path d="M53.6294 122.067C53.5074 123.159 52.2854 125.985 50.3794 128.676C48.7834 130.926 47.8144 131.472 47.6214 131.491C46.8514 131.384 46.0915 129.478 45.4885 127.588C45.2465 126.822 45.0274 126.058 44.8444 125.418C44.4314 123.98 44.3565 122.051 44.4285 120.84C46.0385 121.732 48.8645 121.972 52.8345 121.988H52.8465C53.1085 122.016 53.3674 122.045 53.6294 122.067Z" fill="white"/>
<path d="M50.8063 113.076C50.8063 113.08 50.8063 113.08 50.8063 113.082C50.7873 113.108 50.7713 113.136 50.7533 113.161C50.0713 114.164 49.3843 115.162 48.6963 116.161C48.3403 116.676 47.9873 117.19 47.6363 117.708C47.4443 117.989 47.1853 118.298 46.9613 118.632C46.3963 118.499 45.8323 118.37 45.2733 118.212C44.8163 118.08 44.3653 117.938 43.9223 117.761C43.8333 117.729 43.7483 117.694 43.6663 117.654C43.5933 117.506 43.4893 117.373 43.3633 117.272C43.3663 117.269 43.3663 117.26 43.3693 117.256C43.5303 116.928 43.6943 116.597 43.8553 116.269C44.1613 115.667 44.4683 115.068 44.8083 114.487C45.4153 113.439 46.1463 112.373 47.1723 111.694C47.2233 111.656 47.2793 111.621 47.3333 111.587C47.7313 111.337 48.1293 111.161 48.6173 111.101C48.6743 111.095 49.0183 111.097 49.1793 111.111C49.2073 111.111 49.2303 111.114 49.2463 111.114H49.2493C49.2613 111.118 49.2843 111.124 49.3183 111.136C49.4383 111.174 49.5593 111.199 49.6793 111.24C49.7203 111.26 49.7573 111.278 49.7993 111.3C49.9033 111.363 50.0103 111.42 50.1083 111.499C49.9503 111.379 50.3263 111.767 50.3263 111.739C50.6293 112.158 50.7213 112.509 50.8063 113.076Z" fill="white"/>
<path d="M45.4062 110.232C44.1442 111.27 43.2262 112.652 42.4602 114.09C42.0302 114.888 41.6422 115.702 41.2382 116.513C41.1972 116.596 41.1562 116.675 41.1092 116.756C40.7272 116.673 40.3452 116.563 39.9722 116.444C39.5752 116.318 39.1802 116.173 38.8022 115.997C38.6292 115.914 38.4552 115.829 38.2822 115.738C38.6602 115.022 39.1112 114.334 39.5412 113.666C40.1472 112.722 40.8032 111.795 41.5162 110.924C41.7842 110.593 42.0682 110.23 42.4442 110.012C42.8282 109.785 43.2932 109.839 43.7342 109.864C44.2012 109.893 44.7032 109.905 45.1442 110.082C45.2352 110.121 45.3342 110.182 45.4062 110.232Z" fill="white"/>
<path d="M43.4021 127.168C43.3391 127.221 43.2861 127.278 43.2391 127.345C43.1951 127.357 43.1501 127.367 43.1221 127.374C42.8191 127.405 42.5101 127.427 42.2041 127.447C41.6171 127.484 41.0211 127.51 40.4281 127.488C40.0971 127.476 39.7971 127.425 39.6611 127.214C39.4431 126.883 39.3771 126.305 39.2991 125.866C38.9111 123.711 38.8601 121.466 39.1351 119.285C40.2611 119.689 41.4201 120.002 42.6081 120.197C42.3521 122.163 42.7881 125.049 43.0431 125.933C43.1621 126.344 43.2821 126.76 43.4021 127.168Z" fill="white"/>
<path d="M39.7794 109.514C38.7824 110.738 37.8744 112.041 37.0594 113.391C36.7304 113.94 36.3584 114.508 36.0844 115.095C35.6894 114.985 35.3334 114.827 34.9554 114.593C34.6654 114.413 34.3834 114.214 34.1094 114.006C34.0404 113.949 33.8514 113.801 33.7334 113.706C33.7064 113.685 33.6804 113.663 33.6514 113.647C33.7424 113.389 33.9094 113.101 34.0014 112.908C34.2104 112.451 34.4434 112.002 34.6874 111.565C35.1504 110.745 35.6684 109.943 36.2554 109.205C36.4734 108.933 36.6804 108.583 37.0194 108.482C37.3284 108.394 37.7354 108.435 37.9844 108.478C38.7224 108.621 39.3004 108.956 39.7794 109.514Z" fill="white"/>
<path d="M32.0975 114.825C32.1115 114.773 32.1795 114.766 32.2105 114.81C32.4725 115.183 32.8375 115.507 33.2295 115.812C33.4045 115.945 33.5775 116.077 33.7545 116.202C33.7765 116.218 33.7865 116.245 33.7805 116.272C33.3675 117.983 33.0855 119.8 33.0905 121.59C33.0905 121.669 32.9715 121.685 32.9535 121.608C32.4485 119.524 31.7625 116.05 32.0975 114.825Z" fill="white"/>
<path d="M36.9787 118.548C36.7767 120.037 36.6797 121.53 36.7447 123.031C36.7767 123.854 36.8647 124.672 36.9757 125.485C36.9757 125.491 36.9757 125.498 36.9787 125.501V125.505C36.8017 125.464 36.6167 125.458 36.4277 125.485C36.4647 125.473 36.3677 125.479 36.3267 125.479H36.3147C36.2867 125.476 36.2457 125.473 36.2317 125.47C36.0237 125.419 36.0057 125.397 35.8407 125.293C35.6257 125.154 35.3987 124.901 35.2477 124.643C34.8467 123.949 34.7587 123.106 34.7267 122.32C34.6677 120.778 34.7997 119.238 35.0877 117.727C35.3337 117.827 35.5477 117.919 35.9047 118.073C36.2577 118.227 36.6237 118.379 36.9807 118.544V118.548H36.9787Z" fill="white"/>

</svg>
