<svg
   xmlns="http://www.w3.org/2000/svg"
   viewBox="0 0 1730 1730">
<g
   transform="translate(-471.67137,-574.27326)">
	<g>
   <path
   d="m 1666.1714,575.77323 h -233 c -17,0 -33,11 -39,27 l -570.00005,1562.00007 241.00005,139 620,-1701.00007 c 5,-14 -5,-28 -19,-28 z m -408,0 h -233 c -17,0 -33.00005,11 -39.00005,27 l -499,1368.00007 241,139 550.00005,-1507.00007 c 5,-14 -5,-28 -19,-28 z m 506,238 c -7,-18 -32,-18 -39,0 l -121,332.00007 c -3,9 -3,19 0,29 l 341,935 241,-139 -422,-1156.00007 z m -243,558.00007 -121,332 c -3,9 -3,19 0,29 l 208,571 241,-139 -289,-793 c -7,-18 -32,-18 -39,0 z"/>
	</g>
</g>
</svg>