<svg
   xmlns="http://www.w3.org/2000/svg"
   viewBox="0 0 500 500">
<path
   d="M 220.46815,4.1932747 C 201.84739,4.3421997 184.2468,15.440705 176.67692,33.725124 L 85.898991,253.26378 c -0.387193,0.86704 -0.757204,1.74487 -1.093305,2.63828 L 12.917833,429.75838 c -10.0931726,24.37923 1.513911,52.32221 25.893137,62.41538 5.965129,2.46386 12.166811,3.63449 18.240005,3.63449 18.759901,0 36.56765,-11.13093 44.175375,-29.52341 l 60.28363,-145.78079 h 176.98004 l 60.27943,145.75546 c 7.6077,18.41409 25.41966,29.54874 44.17956,29.54874 6.0732,0 12.25329,-1.17014 18.24003,-3.65561 24.37923,-10.07156 35.98631,-38.01452 25.89312,-62.41538 L 414.59068,254.45417 c -8.18314,-19.80812 -28.16609,-31.18185 -48.45994,-29.33767 -1.33908,-0.11273 -2.68839,-0.18151 -4.05661,-0.18151 H 201.02509 L 264.98965,70.251589 C 275.08283,45.872363 263.47574,17.925164 239.09652,7.8319907 232.99631,5.3086957 226.67506,4.1436327 220.46815,4.1932747 Z m 97.70079,95.6914583 c -2.94243,0.01774 -5.89202,0.306817 -8.80974,0.882257 -3.00418,0.60516 -6.00972,1.5556 -8.94906,2.72269 -2.8745,1.21032 -5.66052,2.66006 -8.18921,4.43231 -2.65838,1.70741 -5.12409,3.69579 -7.30699,5.94352 -2.18289,2.18289 -4.17126,4.6459 -5.94351,7.23944 -1.70741,2.59353 -3.19768,5.38227 -4.36477,8.25677 -1.23193,2.8745 -2.11756,5.88002 -2.72271,8.94904 -0.60516,3.06901 -0.94978,6.22465 -0.94978,9.35851 0,3.09063 0.34462,6.22196 0.94978,9.29097 0.60515,3.06902 1.49078,6.07454 2.72271,8.94904 1.16709,2.93934 2.65736,5.66324 4.36477,8.25675 1.77225,2.59354 3.76062,5.05504 5.94351,7.30277 8.92609,8.86124 21.22562,13.98499 33.78265,13.98499 12.57865,0 24.91667,-5.12375 33.79953,-13.98499 2.18289,-2.24773 4.23611,-4.70923 5.94352,-7.30277 1.70741,-2.59351 3.20189,-5.31741 4.36898,-8.25675 1.23193,-2.8745 2.11756,-5.88002 2.72271,-8.94904 0.60516,-3.09062 0.94978,-6.22196 0.94978,-9.29097 0,-12.57864 -5.10213,-24.92091 -13.98499,-33.80376 -8.99092,-9.02605 -21.5767,-14.057589 -34.32718,-13.980777 z" />
</svg>