<svg viewBox="0 0 33 23" xmlns="http://www.w3.org/2000/svg">
<path d="M32.1581 16.0438L31.1596 15.043L16.4442 0.291992L1.72872 15.043L0.46875 16.306L0.920436 16.7111C1.44344 17.14 1.96645 17.5452 2.51322 17.9264C6.50708 20.7296 11.2491 22.265 16.1242 22.3329C20.9993 22.4008 25.7822 20.9984 29.8521 18.3077C30.4227 17.9264 30.9932 17.4975 31.54 17.0686C32.0868 16.6396 32.1343 16.5681 32.4196 16.306L32.1581 16.0438ZM20.3192 19.7376C15.929 17.0359 10.8739 15.6166 5.72257 15.6387C12.4503 12.7076 20.6758 12.3025 28.2356 16.6634C25.8202 18.1922 23.1315 19.2364 20.3192 19.7376Z" fill="#EBF1FF"/>
</svg>
