<svg xmlns="http://www.w3.org/2000/svg" viewBox="50 50 300 288" version="1.1">
  <g id="svgg">
    <path d="M192.600 59.926 C 171.213 61.820,154.105 68.534,138.100 81.312 C 128.013 89.365,119.660 98.212,115.451 105.300 C 115.124 105.850,113.957 107.650,112.856 109.300 C 111.755 110.950,110.671 112.662,110.446 113.105 C 110.222 113.548,106.010 120.703,101.087 129.005 C 87.467 151.976,83.594 158.529,78.051 167.982 C 75.251 172.757,71.623 178.849,69.989 181.518 C 63.872 191.510,61.223 196.766,60.211 200.919 C 59.972 201.899,59.145 204.635,58.371 207.000 C 46.149 244.383,56.098 284.800,84.120 311.602 C 102.854 329.521,118.663 337.724,138.300 339.713 C 144.372 340.328,251.760 340.612,256.900 340.027 C 264.980 339.106,274.248 336.575,284.133 332.588 C 300.556 325.963,314.663 314.963,326.054 299.900 C 340.902 280.264,346.470 262.904,346.482 236.200 C 346.489 220.675,345.624 215.614,340.846 203.200 C 338.218 196.372,336.044 192.078,332.189 186.100 C 331.338 184.780,326.120 175.915,320.593 166.400 C 286.403 107.540,284.523 104.383,280.397 98.900 C 269.640 84.607,250.339 70.959,231.902 64.608 C 219.959 60.494,205.556 58.778,192.600 59.926 M207.750 115.102 C 215.178 116.512,220.195 120.591,225.787 129.770 C 230.006 136.694,240.570 154.155,249.339 168.700 C 254.181 176.730,262.206 190.030,267.172 198.257 C 272.138 206.483,276.511 213.827,276.888 214.577 C 277.671 216.131,279.782 219.662,281.863 222.897 C 285.537 228.611,291.647 238.655,292.326 240.100 C 293.222 242.005,292.929 248.628,291.778 252.500 C 289.351 260.663,281.331 267.806,272.300 269.850 C 269.978 270.375,249.716 270.556,193.900 270.552 C 141.273 270.548,131.785 270.443,130.600 269.850 C 127.571 268.336,120.600 262.064,118.713 259.155 C 114.217 252.223,113.722 242.501,117.486 235.029 C 118.103 233.803,134.809 205.926,157.332 168.537 C 161.494 161.628,166.199 153.753,167.787 151.037 C 177.397 134.602,184.806 122.547,186.420 120.720 C 187.978 118.958,194.416 116.051,198.625 115.209 C 201.027 114.728,205.503 114.676,207.750 115.102 "></path>
  </g>
</svg>