<svg
   xmlns="http://www.w3.org/2000/svg"
   viewBox="0 0 2500 2500">
  <path
     d="m 1252.573,11.165615 c -117.8101,0 -218.4789,328.543755 -258.73377,792.003045 C 572.63454,605.71218 237.53245,528.27412 178.47503,630.40224 c -36.96961,63.93163 40.84306,186.49573 197.60705,334.75283 a 84.709821,87.628509 0 0 0 -2.72384,21.6088 84.709821,87.628509 0 0 0 84.70965,87.62873 84.709821,87.628509 0 0 0 33.48904,-7.2488 c 71.43655,59.4126 152.89536,121.4166 242.52157,184.2851 -382.21388,265.6702 -616.97393,516.656 -558.33839,618.8773 58.70698,102.3458 394.77419,25.7723 817.9039,-170.6327 8.99399,104.1685 21.03399,201.5434 35.63839,289.9449 a 84.709821,87.628509 0 0 0 -36.6764,72.0597 84.709821,87.628509 0 0 0 67.6745,85.8298 c 49.879,214.5518 117.6434,346.4867 192.2925,346.4867 117.8282,0 218.5068,-328.6462 258.7492,-792.2182 421.3688,197.603 756.2697,275.1298 815.3465,172.9594 59.121,-101.9731 -174.7893,-353.8643 -555.5968,-621.1087 382.1837,-265.65715 616.9225,-516.62509 558.2896,-618.84188 -37.8638,-65.98832 -190.9299,-57.61359 -408.2189,9.23844 a 84.709821,87.628509 0 0 0 -72.6941,-42.83172 84.709821,87.628509 0 0 0 -84.7097,87.62868 84.709821,87.628509 0 0 0 0.5878,9.38705 c -79.279,30.09232 -164.1505,66.01644 -252.8336,107.18354 C 1471.367,340.76349 1370.5707,11.165615 1252.573,11.165615 Z m -0.5058,55.834292 a 21.907126,21.907126 0 0 1 12.2485,4.048048 c 52.1047,36.920715 95.8045,191.327575 95.8045,191.327575 55.3511,205.47057 84.798,405.52864 100.394,567.06 -67.2992,32.23906 -136.5337,67.33682 -207.003,105.11184 C 1183.503,896.59958 1114.6955,861.31856 1047.777,828.88544 1107.2749,249.97258 1202.4771,106.68759 1236.2188,73.3193 a 21.907126,21.907126 0 0 1 15.8484,-6.319393 z M 299.59941,643.15415 c 95.42592,-0.61588 197.67137,30.70975 197.67137,30.70975 140.23609,31.93448 318.43928,106.99108 491.59761,191.52499 -5.35935,73.08996 -9.25766,149.14211 -11.50754,227.51161 -67.70738,41.4469 -132.50772,83.1771 -193.91608,124.6933 -117.32001,-84.0965 -208.4144,-156.5802 -250.22064,-190.569 a 84.709821,87.628509 0 0 0 9.55341,-40.26093 84.709821,87.628509 0 0 0 -84.70965,-87.62864 84.709821,87.628509 0 0 0 -50.41765,17.33009 C 243.64045,759.02194 229.50267,681.93782 229.50267,681.93783 l -0.0798,-0.29501 c -11.35673,-26.9268 12.61662,-33.4114 12.61662,-33.4114 18.2428,-3.44518 37.75459,-4.94944 57.55997,-5.07727 z m 1917.98929,2.71719 c 24.011,0.11696 39.7662,2.77912 49.628,5.49426 a 21.907126,21.907126 0 0 1 15.8994,23.37223 c -5.8374,63.59768 -118.3029,178.30062 -118.3029,178.30062 -150.0238,149.76645 -308.2341,274.54095 -440.264,368.36395 -62.2349,-42.5506 -127.9939,-85.3507 -196.7442,-127.8653 -2.2538,-78.8341 -6.177,-155.32489 -11.5763,-228.81808 104.5,-46.5165 195.1148,-83.47197 273.6394,-112.73992 a 84.709821,87.628509 0 0 0 58.5804,24.47021 84.709821,87.628509 0 0 0 83.5029,-73.51042 c 147.0483,-46.13652 234.8446,-57.31496 285.6373,-57.06755 z m -751.9019,241.59662 c 5.5209,67.69659 8.5503,126.66994 10.2011,174.36784 -27.5395,-16.6115 -55.505,-33.1605 -83.8779,-49.6101 -26.785,-15.52924 -53.4654,-30.69297 -80.0116,-45.50464 61.451,-34.21201 99.1363,-54.15074 99.1363,-54.15074 18.5738,-8.64162 36.7425,-16.99557 54.5521,-25.10236 z m -424.0384,4.05471 c 50.8702,25.51766 100.9189,51.55556 149.0127,77.26123 -25.3764,14.03044 -50.8707,28.36581 -76.4694,43.0446 -26.9646,15.4621 -53.5574,31.0149 -79.7722,46.627 0.902,-70.09238 2.3535,-112.52923 2.3535,-112.52923 1.5886,-18.54257 3.2179,-36.62861 4.8754,-54.4036 z m 209.0192,109.69443 c 86.5466,47.2724 164.6371,92.0507 226.8751,128.5817 0.5036,39.4024 -0.062,61.4438 -0.062,61.4438 1.8948,63.463 1.4655,128.1487 -0.5678,192.002 -37.4489,22.252 -59.1792,34.008 -59.1792,34.008 -53.8216,33.0627 -109.837,64.7291 -165.9391,94.6069 -37.9866,-21.2357 -59.0261,-34.1323 -59.0261,-34.1323 -52.5724,-28.355 -105.0481,-59.0463 -156.2438,-90.6919 -2.5419,-97.2443 -3.0345,-186.1801 -2.7038,-258.4964 80.7576,-49.0827 155.4368,-92.4599 216.8469,-127.3218 z m -1.0137,102.3858 a 146.04752,146.04752 0 0 0 -146.047,146.0471 146.04752,146.04752 0 0 0 146.047,146.047 146.04752,146.04752 0 0 0 146.0471,-146.047 146.04752,146.04752 0 0 0 -146.0471,-146.0471 z m 279.6483,56.8302 c 60.5669,36.1369 96.8272,58.8376 96.8272,58.8376 17.2833,12.094 34.1085,23.9771 50.4953,35.6539 -56.4814,38.878 -106.5808,71.1641 -147.4378,96.53 0.5748,-32.623 0.8762,-65.5909 0.8762,-98.8745 0,-30.9973 -0.2617,-61.7198 -0.7609,-92.147 z m -553.50949,3.7265 c -0.45972,29.2121 -0.70979,58.6853 -0.70979,88.4205 0,32.366 0.27914,64.4414 0.8229,96.1839 -49.09298,-31.6232 -96.47809,-63.6348 -141.02971,-94.751 47.36688,-31.0984 94.76783,-61.23 140.9166,-89.8534 z m -190.41818,122.7258 c 60.81967,41.4552 124.96043,83.1338 191.95974,124.5469 2.25306,78.9056 6.17886,155.4638 11.58296,229.0199 -182.7292,82.5902 -322.91921,133.5036 -322.91921,133.5036 -318.09056,114.6235 -419.85952,78.1108 -419.85952,78.1108 h -0.0111 c -29.20951,-3.6796 -22.61143,-27.6864 -22.61143,-27.6864 35.83048,-101.8812 149.85334,-208.0899 149.85334,-208.0899 97.9094,-105.34 252.11759,-221.9244 412.0052,-329.4049 z m 936.41977,0.5168 c 471.1882,341.7681 547.3649,496.1027 559.392,541.8844 a 21.907126,21.907126 0 0 1 -12.153,25.4728 c -58.067,26.5861 -213.5863,-13.027 -213.5863,-13.027 -204.8795,-54.9345 -392.1853,-129.4026 -539.5532,-196.6776 5.5633,-74.7313 9.5899,-152.6027 11.8934,-232.8927 67.7413,-41.4686 132.572,-83.2224 194.0071,-124.7599 z m -247.3105,156.9712 c -2.8792,60.6289 -7.0382,119.859 -11.8602,175.8829 -61.7907,-29.3358 -114.706,-56.4467 -157.0466,-79.0468 28.2967,-15.5776 56.7544,-31.5592 85.3329,-47.9466 28.2675,-16.2091 56.1321,-32.5168 83.5739,-48.8895 z m -436.105,4.2255 c 24.7049,14.8308 49.7277,29.6117 75.0964,44.3112 28.0057,16.2275 55.8977,32.0686 83.6362,47.512 -51.3831,26.3313 -102.2535,51.0326 -150.9914,73.7811 -3.3658,-56.1072 -5.8907,-111.7609 -7.7412,-165.6043 z m 213.389,121.8476 c 70.0153,37.9445 138.8187,73.2193 205.7254,105.653 -19.2615,198.654 -44.6773,344.6943 -44.6773,344.6943 -58.771,332.9793 -141.0851,403.1417 -141.0851,403.1417 -17.5234,23.3721 -35.0461,5.838 -35.0461,5.838 -70.5707,-81.7684 -105.8572,-233.6756 -105.8572,-233.6756 -5.5314,-17.8015 -10.7502,-36.5335 -15.6842,-56.0473 a 84.709821,87.628509 0 0 0 46.8819,-78.3725 84.709821,87.628509 0 0 0 -79.6768,-87.367 c -14.6703,-94.7578 -25.075,-197.9631 -32.3888,-301.246 65.6703,-31.557 133.1489,-65.8119 201.8082,-102.6186 z" />
</svg>
