<svg   
   xmlns="http://www.w3.org/2000/svg"
   viewBox="0 0 32 32">
  <path
     d="m 7.5547132,0.40870314 c -1.0762861,0 -1.9489111,0.87255996 -1.9489111,1.94891106 0,1.0763674 0.872625,1.9489111 1.9489111,1.9489111 h 6.4963708 c 1.076448,0 1.948911,-0.8725437 1.948911,-1.9489111 0,-1.0763511 -0.872463,-1.94891106 -1.948911,-1.94891106 z M 25.119112,6.7849068 C 26.128973,6.4128272 26.646084,5.2924145 26.274004,4.2824238 25.901925,3.2724331 24.781626,2.755322 23.771603,3.1274341 L 6.8810396,9.3503234 C 5.8710164,9.7224029 5.3539054,10.842702 5.725985,11.852725 6.0980646,12.862749 7.218526,13.37986 8.2285492,13.00778 Z m 0,15.8647862 c 1.009861,-0.37208 1.526972,-1.492541 1.154892,-2.502402 -0.372079,-1.010023 -1.492378,-1.527134 -2.502401,-1.155055 L 6.8810396,25.215109 c -1.0100232,0.37208 -1.5271342,1.492541 -1.1550546,2.502565 0.3720796,1.00986 1.492541,1.526971 2.5025642,1.154892 z m -7.170206,5.043782 c -1.076286,0 -1.948911,0.872625 -1.948911,1.948911 0,1.076286 0.872625,1.948911 1.948911,1.948911 h 6.49637 c 1.076286,0 1.948911,-0.872625 1.948911,-1.948911 0,-1.076286 -0.872625,-1.948911 -1.948911,-1.948911 z m 7.196029,-13.122668 c 1.004664,-0.386372 1.505697,-1.513979 1.119325,-2.518643 -0.386372,-1.004501 -1.513979,-1.505696 -2.518643,-1.119325 L 6.8550541,17.42921 c -1.0045012,0.386371 -1.5056962,1.513979 -1.1193246,2.518642 0.3863717,1.004664 1.5139791,1.505697 2.5186428,1.119325 z" />
</svg>
