<svg
   xmlns="http://www.w3.org/2000/svg"
   viewBox="0 0 32 32">
  <path
     d="m 3.2774048,29.742788 h 5.6011426 c 0.9601959,0 1.4402936,0 1.9203916,-0.160033 0.480098,-0.160033 0.960196,-0.480098 1.280261,-0.800163 0.320065,-0.320066 0.640131,-0.800164 1.120229,-1.600327 L 20.56093,14.219621 c 0.480098,-0.960196 0.640131,-1.280261 0.800164,-1.760359 0.160032,-0.480098 0.160032,-0.960196 0,-1.440294 0,-0.434809 -0.262614,-0.869778 -0.668937,-1.542555 -0.04225,-0.06995 -0.0861,-0.1424451 -0.131227,-0.2177724 L 17.680343,4.2976445 C 17.61665,4.1861978 17.556157,4.07952 17.498386,3.9775792 16.974919,3.054799 16.672457,2.5213621 16.240049,2.3772367 c -0.480098,-0.1600326 -0.960196,-0.1600326 -1.440294,0 -0.432408,0.1441254 -0.73487,0.6775623 -1.258337,1.6003425 -0.05777,0.1019248 -0.118264,0.2086186 -0.181957,0.3200653 L 1.0369477,25.902004 c -0.64013058,1.120229 -0.96019588,1.760359 -0.96019588,2.240457 0,0.480098 0.3200653,0.960196 0.80016324,1.280261 0.32006534,0.320066 1.12022854,0.320066 2.40048974,0.320066 z m 19.0438852,0 h 6.561338 c 1.440294,0 2.080424,0 2.240457,-0.320066 0.480098,-0.320065 0.800163,-0.800163 0.800163,-1.280261 0,-0.480098 -0.320065,-1.120228 -0.960196,-2.240457 L 27.7624,20.300861 c -0.06369,-0.111382 -0.124186,-0.218124 -0.181958,-0.320065 -0.523466,-0.922748 -0.825928,-1.456137 -1.258336,-1.600326 -0.480098,-0.160033 -0.960196,-0.160033 -1.440294,0 -0.432408,0.144189 -0.73487,0.677578 -1.258337,1.600326 -0.05777,0.101941 -0.118264,0.208683 -0.181957,0.320065 l -3.200653,5.601143 c -0.64013,1.120229 -0.960196,1.760359 -0.960196,2.240457 0,0.480098 0.320066,0.960196 0.640131,1.280261 0.320065,0.320066 1.120228,0.320066 2.40049,0.320066 z" />
</svg>
