<svg viewBox="0 0 25.5 29" fill="none" xmlns="http://www.w3.org/2000/svg">
  <path d="M25.2401 28.1078H18.6567C18.2777 28.1078 17.9268 27.8531 17.8004 27.4995C16.3827 23.4395 14.979 19.3795 13.5612 15.3478C13.098 13.919 12.6067 12.4761 12.1294 11.019C12.0312 10.7219 11.9329 10.4107 11.8206 10.1136C11.7785 10.0287 11.7504 9.94387 11.7223 9.85899C11.203 8.34533 10.6976 6.85996 10.1642 5.3746C9.96771 4.80874 10.1923 4.18631 10.7117 3.88923L15.765 0.960938L16.6774 3.16777L16.7897 3.45069C16.8038 3.46484 16.8038 3.47899 16.8038 3.49314L17.5337 5.64338L21.4922 17.1868H21.4781C22.7415 20.8224 23.9908 24.458 25.2401 28.1078Z" fill="currentColor"></path>
  <path d="M17.5606 5.6406C17.5465 5.6123 17.5325 5.59816 17.5044 5.58401C16.9289 4.86255 15.848 4.97572 15.076 5.34352C14.2478 5.75377 13.6442 6.47523 13.3494 7.3523L12.1282 11.0162L6.9485 26.4782C6.4572 27.9635 5.06752 28.9538 3.52344 28.9538C1.54421 28.9538 0.0703125 27.3269 0.0703125 25.4738C0.0703125 25.106 0.126459 24.724 0.252793 24.3421L8.43643 0.109375H15.6515L16.6903 3.16499L16.8026 3.44791C16.8166 3.46206 16.8166 3.47621 16.8166 3.49035L17.5606 5.6406Z" fill="currentColor"></path>
  </svg>