<svg
   xmlns="http://www.w3.org/2000/svg"
   viewBox="0 0 1000 1000">
<path
   d="m 113.82793,205.24598 c 0,0 -88.227628,-70.51651 -94.295327,103.64287 -6.0677,134.96531 -5.903708,397.02434 56.577198,520.83821 26.402689,46.57369 61.660949,32.3064 127.257699,-14.1033 57.06917,-42.14592 263.53495,-232.3765 350.94262,-315.84836 87.40768,-83.47187 264.6829,-322.90002 301.58107,-160.22007 14.59528,68.38461 32.63438,126.43774 18.85907,278.13023 -4.26379,46.73768 -24.2708,82.15993 -115.45029,18.85906 -68.87659,-44.2778 -134.30935,-91.83545 -134.30935,-91.83545 0,0 -12.62737,-22.63088 -42.47389,14.1033 -23.45084,29.35455 -35.25826,36.57019 2.29588,58.87309 37.71814,22.30289 228.44069,153.82438 301.58107,174.32337 60.34901,17.54713 94.78731,17.21914 96.59122,-101.34699 C 982.65691,596.5306 977.24518,327.09195 942.97088,212.29763 917.06016,140.79717 879.01405,108.32678 796.85411,188.6828 714.69418,269.03882 455.58701,520.27438 313.89803,634.08475 219.93068,704.60125 179.75267,768.2301 144.33042,650.64793 119.40366,561.60033 87.097257,284.45406 189.10021,337.25944 c 63.79284,30.50249 95.60726,30.3385 70.6805,49.52555 -24.92677,19.02306 -96.59122,84.7838 -96.59122,84.7838 0,0 -22.1389,17.87512 -11.80742,56.5772 10.33149,27.05866 10.33149,40.506 65.92474,-11.80741 55.59325,-52.31341 96.59122,-91.83546 96.59122,-91.83546 0,0 8.85556,-13.93931 35.25825,11.80742 26.40269,25.74672 30.66648,32.96237 30.66648,32.96237 0,0 7.05165,19.18705 35.25826,-14.10331 28.37059,-33.29035 46.57369,-53.62534 -7.05165,-84.7838 C 354.56801,338.89936 113.82793,205.24598 113.82793,205.24598 Z" />
</svg>