<svg
   xmlns="http://www.w3.org/2000/svg"
   viewBox="0 0 1000 1000">
  <path
     d="m 501.53933,127.38879 c -160.19105,0 -290.12389,53.68196 -290.12389,119.67314 0,65.9912 129.93284,119.67314 290.12389,119.67314 160.19105,0 290.12056,-53.68194 290.12056,-119.67314 0,-65.99119 -129.92951,-119.67314 -290.12056,-119.67314 z M 260.65372,341.26112 c -81.20677,26.49905 -133.00948,66.33445 -133.00948,110.78447 0,80.18101 168.05529,145.14709 375.26078,145.14709 207.37646,0 375.43175,-64.96608 375.26079,-145.14709 0,-44.45002 -51.62841,-84.11446 -133.00615,-110.78447 -57.956,30.26022 -144.80651,49.57887 -242.25464,49.57887 -97.44813,0 -184.2953,-19.31866 -242.2513,-49.57887 z m 586.5687,203.10375 c -76.07793,46.3306 -199.85215,76.59216 -339.86973,76.59216 -143.43681,0 -269.94841,-24.79077 -345.34249,-73.17292 C 65.416877,582.83124 5.0660865,632.58174 5.0660865,687.80236 c 0,105.82525 221.5662735,184.80886 494.9339235,184.80886 273.36765,0 494.9339,-85.82142 494.9339,-191.81763 0,-53.34002 -56.58894,-101.72351 -147.71149,-136.42872 z" />
</svg>
