<svg
   xmlns="http://www.w3.org/2000/svg"
   viewBox="0 0 788 788">
<path
   d="M 600.82873,187.71037 C 569.36082,116.35133 497.0482,101.09416 408.52484,115.87454 L 380.07658,5.5779295 313.00861,22.901172 340.98009,132.87993 c -17.64111,4.45 -35.75899,8.26429 -53.71795,13.35002 L 259.29066,36.886909 192.2227,54.210152 220.67096,164.50676 c -14.46253,4.13215 -135.40737,35.12328 -135.40737,35.12328 l 18.43574,71.83583 c 0,0 49.26794,-13.82681 48.79116,-12.71431 27.33576,-7.1518 40.20899,6.51608 46.24829,19.38932 l 78.19299,302.28264 c 0.95357,8.74109 -0.63572,23.6804 -19.38932,28.76612 1.1125,0.63572 -48.79115,12.55538 -48.79115,12.55538 l 7.31072,83.7555 c 0,0 119.83234,-30.67327 135.5663,-34.64649 l 28.76612,111.56804 67.06796,-17.32324 -28.76611,-112.36269 c 18.43574,-4.29108 36.3947,-8.74108 53.87687,-13.35002 L 501.18035,751.11309 568.24832,733.78985 539.4822,622.38073 C 642.78594,597.26998 715.73428,532.10916 700.79497,432.46078 691.25924,372.38568 625.62163,323.11774 571.10904,317.55523 604.64302,287.83554 621.64841,244.44797 600.82873,187.71037 Z M 568.56618,450.73759 C 581.9162,549.4324 444.76061,561.51099 399.4659,573.43065 L 360.05155,425.78577 c 45.45364,-11.91967 185.94673,-61.98225 208.51463,24.95182 z m -82.643,-201.04497 c 14.14467,87.72871 -103.14481,97.90016 -140.96987,107.59482 L 309.03539,223.31043 c 37.98399,-9.3768 148.12167,-54.83045 176.88779,26.38219 z"/>
</svg>