<svg xmlns="http://www.w3.org/2000/svg" viewBox="-60 -70 120 140">
<path fill="currentColor" d=" M36.90399932861328,-11.58899974822998 C39.426998138427734,-16.698999404907227 41.1870002746582,-23.104000091552734 41.1870002746582,-31.08099937438965 C41.1870002746582,-42.020999908447266 36.8120002746582,-51.92499923706055 28.868999481201172,-58.96699905395508 C21.030000686645508,-65.91699981689453 10.425000190734863,-69.58999633789062 -1.7990000247955322,-69.58999633789062 C-1.7990000247955322,-69.58999633789062 -43.92399978637695,-69.78500366210938 -43.92399978637695,-69.78500366210938 C-52.05500030517578,-69.78500366210938 -58.645999908447266,-63.194000244140625 -58.645999908447266,-55.0629997253418 C-58.645999908447266,-55.0629997253418 -58.645999908447266,69.78500366210938 -58.645999908447266,69.78500366210938 C-58.645999908447266,69.78500366210938 -20.42300033569336,69.78500366210938 15.043999671936035,69.78500366210938 C42.56100082397461,69.78500366210938 58.645999908447266,46.83300018310547 58.645999908447266,26.12700080871582 C58.645999908447266,10.397000312805176 49.91400146484375,-3.993000030517578 36.90399932861328,-11.58899974822998z M-1.7990000247955322,-58.82500076293945 C17.976999282836914,-58.82500076293945 30.422000885009766,-46.97100067138672 30.422000885009766,-31.08099937438965 C30.422000885009766,-9.755000114440918 14.350000381469727,0 -1.9110000133514404,0 C-17.187999725341797,0 -29.770000457763672,-12.581999778747559 -29.770000457763672,-32.084999084472656 C-29.770000457763672,-32.084999084472656 -29.770000457763672,-42.849998474121094 -29.770000457763672,-42.849998474121094 C-29.770000457763672,-49.91899871826172 -33.99800109863281,-56.262001037597656 -40.53799819946289,-58.354000091552734 C-40.53799819946289,-58.354000091552734 -40.53799819946289,-58.82500076293945 -40.53799819946289,-58.82500076293945 C-40.53799819946289,-58.82500076293945 -1.7990000247955322,-58.82500076293945 -1.7990000247955322,-58.82500076293945z"></path>
</svg>