<svg xmlns="http://www.w3.org/2000/svg" viewBox="0 0 368.4 236.3">
<path d="M180.2,196.4c-5.4-11.2-10.7-22.5-16.1-33.7c1-1.9,2.4-4.6,3.2-7.1c-13.8-3.1-28.8-11-38.4-24.4
	c-9.6-12.9-13.9-27.3-12.8-43.4c-2.7-0.9-31.7-12.9-31.7-12.9h-46l-5.1-3.2c0,0,5.2-7.5,6.4-9c1.1-1.5,1.6-4.1,1.6-6.6
	c0-1.6-0.3-28.3-0.3-28.3c0-2.2-0.2-6-3.8-8.2C31.6,16.1,19.7,8.5,19.7,8.5s41.8,0,62.1,0c27.6,0,85.2,0,85.2,0s6.2,3.6,8.3,4.9
	c0.5,0.3,1.6,1,1.6,1v32h7.1c0,0,0.8-3.5,1.2-5.5c4.9,0.4,10.7,1.6,17.9,5c-0.7,1.8-1,3.4-1.8,5.4c1.6,0.8,3.1,1.7,4.7,2.7
	c1.4-1.6,2.4-2.7,3.7-4.3c6.2,4.1,11.4,10.2,13.8,14c-1.3,1.1-4.3,3.7-4.3,3.7s0.4,0.6,0.7,1.2c7,0,9.6,0,15.4,0
	c-4.6-10.5-11.2-18.8-21.1-25.7c-10.1-6.8-20.3-9.9-33-10.5v-2.8c15.6,0,30.2,6.6,39.8,14.8c7.2,6,13.4,14.4,17.5,24.1
	c4,0,85.6,0,85.6,0l9.6,6.1c0,0,0,29.7,0,43.5c0,3.5,1.4,5.2,3.3,6.3c1.9,1.1,13.3,7.4,13.3,7.4l-5.6,3.2H229.6
	c-9.5,10.9-21.2,17.9-35.3,21.2c0.6,2.7,1.4,4.1,2.5,6.3c-5.4,11.2-10.7,22.5-16.1,33.7C180.5,196.4,180.5,196.4,180.2,196.4z
	 M310.2,118.1c0-3.9,0-9.1,0-11.4c3.5,0,6.2,0.5,9.1,2.4c0-5.3,0-9.2,0-14.3c-2.3,2.4-5.4,2.1-9.1,2.1V85.5c0,0,3.5-0.1,5.1,0
	c4,0.2,9,1.5,10.8,5.5c0.2,0.3,0.3,0.7,0.6,0.7c0.3,0,0.5-0.3,0.5-0.7s0-13.4,0-13.4l-4.2-2.7h-55.8L254,96.2l-5.9-10.4l-19,6.7
	c0,0,0,17.7,0,25.1c0,6.5-3.3,10.1-5.9,10.1c-2.5-0.1-6.1-2.7-6.1-10.1c-0.1-5.6,0-20,0-20.8c-5.2,2-15.4,5.5-15.4,5.5
	s0,11.5,0,15.3c0,7.3-3.8,10-5.4,10c-0.5,0-0.6,0.4-0.6,0.6c0,0.3,0.2,0.5,0.5,0.5c16.9-0.1,34.1,0,51,0c0.5,0,0.7-0.3,0.7-0.6
	s-0.4-0.6-0.7-0.7c-2.8-1.2-4.5-3.3-5.1-6.3c-0.2-1.1-0.4-2.5-0.4-3.6c0-5.2,0-17.7,0-17.7s7.9,14.8,11.6,21.8
	c0.3,0.4,0.4,0.6,0.7,0.6s0.5-0.3,0.7-0.6c4-7.2,8-14.4,12.1-21.8c0,2.3,0,10.6,0,17c0,1.2-0.1,2.5-0.4,3.7c-0.6,3.1-2,5.6-5.1,6.9
	c-0.4,0.2-0.7,0.3-0.7,0.6c0,0.3,0.1,0.6,0.6,0.6c16.2,0,33.8,0,50,0c6.6,0,15.4,0,22,0c0.6,0,1,0,1-0.5c0-0.4-0.6-0.6-1-0.7
	c-3.5-1-4.7-3.2-5.6-5.9c-0.7-2.2-0.5-5.7-0.5-9.2c0-0.4-0.1-0.7-0.4-0.8c-0.2-0.1-0.5,0.2-0.6,0.5
	C324.6,115.1,316.4,118.1,310.2,118.1z M43.6,68.6c0.9,0,1.3,0,1.8,0c8.3,0,16.6,0,24.9,0c10.2,0,14.9-1.4,19.3-3.4
	c3.3-1.8,5.4-4.5,6-8.3c0.2-1.6,0.4-3.2,0.4-4.8c0-5.2-2.5-8.7-7.1-10.9c-0.6-0.3-1.2-0.5-1.9-0.9c0.8-0.4,1.4-0.6,2-1
	c2.9-1.6,4.7-3.9,5.2-7.3c0.4-2.3,0.1-4.6-0.4-6.9c-0.7-3.1-2.5-5.4-5.2-7c-2.6-1.5-5.2-3.5-17-3.5c-10,0-19.7-0.1-29.7-0.1
	c-0.6,0-0.8,0.2-0.8,0.5s0,0.4,0.7,0.7c4.1,2,5.9,5.4,5.9,10c0,11.2,0.1,21.8,0,33c0,2.4-0.7,4.9-1.8,6.7
	C45.2,66.5,44.5,67.4,43.6,68.6z M180.5,185.9c0.1,0,0.2-0.1,0.2-0.1c3.7-7.6,10.2-21,11.1-23c-3.9-8.3-6-17.8-5.8-26.9
	c0.1-5,1.1-9.8,3.3-14.3c0.7-1.1,0.3-2.7-0.4-4c-3.7-6.8-4-15.7-4-21c2.7-1.4,4.4-4.1,4.8-6.9c5.8,0,9.5,2.3,12.1,6.4
	c5.4-1.9,53.4-19,59.2-21.1c-20.2,0-41.5,0-61.6,0c-1.3,3.2-5.4,5.5-9.9,5.5c0,0-3.3,0-3.9,0c-0.2-0.1-0.7-0.4-0.7-0.4
	c-5.4-2.8-10.2-0.1-12.4,3.2c-1.4,2.2-1.6,4.4-1.3,6.9c0.4,2.5,2.6,5.3,4.8,6.4c0,0.2-0.3,14.2-4,21c-0.7,1.3-1.1,2.9-0.4,4
	c2.2,4.5,3.2,9.3,3.3,14.3c0.2,9.2-1.9,18.6-5.8,26.9c0.9,2,7.4,15.3,11,23C180.3,185.8,180.4,185.9,180.5,185.9z M148.7,44.6
	c2.4,1.2,4,3.1,4.7,5.8c0.7,2.9,0.6,5.8,0.5,8.8c-6.3,0-9.5-0.7-10.5-5.4c-0.1-0.5-0.1-1-0.1-1.5c0-7.9,0-15,0-22.9
	c0-2.6,0.7-3.4,3.2-3.8c2.8-0.4,8.8-0.6,8.8-0.6v10.6h14l0.7-19c0,0-2.8-2-6.5-2c-3,0-11.2,0-13.5,0c-1.9,0-3.9,0-5.8,0
	c-5,0-7.8,1.1-11.3,3.1c-3.8,2.3-6,5.5-6,10.1c0,9.2,0,18.4,0,27.5c0,4.4,2,7.6,5.7,9.9c3.7,2.3,7.2,3.3,12.1,3.3
	c10.1,0,20.1,0,30.2,0c0.3,0,1,0.1,1-0.5c0-0.5-0.5-0.6-0.8-0.8c-2-0.9-3.3-2.3-4.1-4.3c-0.7-1.6-1-3.2-1-4.9
	c0-4.3-0.1-14.1-0.1-14.8c-7.2,0-14.2,0-21.2,0c-0.7,0-0.9,0.2-0.9,0.5C147.8,44.3,148.5,44.5,148.7,44.6z M96.3,14.7
	c-0.3,0-0.4,0.2-0.4,0.4s0.1,0.5,0.8,0.7c3.7,1.2,5.3,6.5,5.4,9.3c0.1,6.7,0.1,13.1,0.1,19.9c0,4.5,0,7.9-0.1,12.4
	c-0.1,4-1.1,8.5-5.6,10.2c-0.7,0.3-0.7,0.4-0.7,0.6c0,0.3,0.2,0.4,0.4,0.4c6.8,0,14.7,0,21.5,0c2,0,4,0,6,0c0.1,0,0.3-0.2,0.3-0.4
	s-0.1-0.4-0.4-0.5c-0.2-0.1-0.5-0.1-0.7-0.2c-2.4-1.2-4-3.2-4.5-5.9c-0.4-1.9-0.7-3.4-0.7-5.7c-0.1-8.9,0-17.7,0-26.6
	c0-1.7,0.2-3.5,0.3-5.2c0.2-3.8,1.8-7,5.6-8.4c0.1-0.1,0.4-0.2,0.4-0.5c0-0.2-0.1-0.5-0.3-0.5C121,14.7,99.1,14.7,96.3,14.7z
	 M155.7,97.5c1.5-5.4,6.9-8.1,11.5-8.1c-0.3-3.1,0.8-7.4,3.2-9c-4.5,0-9.7-0.6-12.1-5.5c-5.9,0-58.5,0-58.5,0S146,93.7,155.7,97.5z
	 M120.7,89.7c-0.7,10.6,2.4,27.4,13.1,40.4c10,12.1,22.8,18.8,34.9,21.1c0.3-0.9,0.4-1.5,0.6-2.3c-12.2-2.8-22.4-8.9-30.2-18.3
	c-7.9-9.4-12.1-20.3-12.6-32.8c2.8-0.5,5.4-1,8-1.4c0-0.3-0.1-0.7-0.1-1C128.4,92.8,121.6,90.1,120.7,89.7z M222.2,135.2
	c-1.5,0-3.1,0-4.6,0c-3.6,3.4-7.6,6.2-11.9,8.5c-4.3,2.3-8.9,3.9-13.8,5.1c0.2,0.8,0.3,1.5,0.5,2.4
	C204,148.8,213.9,143.5,222.2,135.2z M136.3,123.5c2.2-1.8,4.2-3.1,6.3-4.8c-1.6-2.4-2.8-4.6-2.8-4.6l-7.2,3
	C132.5,117.1,134.4,120.7,136.3,123.5z M157.6,141.2c0.8-2.2,2-5.1,2.8-7.2c-1.7-0.9-3.1-1.6-4.6-2.6c-1.5,1.8-3.5,4.2-5,6.1
	C153.1,138.9,155.1,140,157.6,141.2z M287.6,127.7c-3.3-1.1-4.9-3.6-5.6-6.7c-0.3-1.4-0.4-2.8-0.4-4.3c0-10.1,0-20.2,0-30.3
	c0-2.2,0.5-4.3,1.6-6.3c1.9-3,3.9-3.7,4.4-3.7c0.4,0,2.8,1.1,4.2,3.4c1.1,1.6,1.7,3.5,1.7,6.8c0,10.6,0,20.9,0,31.5
	c0,1.8-0.4,3.6-1.1,5.3C291.5,125.5,289.9,127,287.6,127.7z M64.7,57.9c0-3.8,0-7.7,0-11.5c1.7,0,5.7-0.1,7.9,0
	c4.2,0,5.5,2.9,5.5,6.1s-3,5.5-5.6,5.5C69.7,57.9,66.4,57.9,64.7,57.9z M64.7,25c3.6,0,4.2,0,7.4,0c2.6,0,4.7,1.9,4.7,5.4
	s-2.6,5.2-4.7,5.2c-2.4,0-4.9,0-7.4,0C64.7,32.2,64.7,28.8,64.7,25z M184.6,86.6c0-2.3-1.8-4.1-4.1-4.1s-4.1,1.8-4.1,4.1
	s1.8,4.1,4.1,4.1C182.7,90.7,184.6,88.8,184.6,86.6z M183.5,10.3c0,4,0,8.1,0,12c17.5,0.5,31.7,7.5,36.5,10.2
	c18.4,10.6,26.2,23.4,30,29.2c25,0,78.1,0,78.1,0l13.8,8.7v45.8l21.6,13.7v5.2l-28,16.1c0,0-77.3,0-90,0
	c-10.4,13.7-23.7,23.4-40,29.1c-8.3,17.1-16.5,34.3-25,51.7c-8.4-17.4-16.6-34.5-24.9-51.6c-0.7-0.3-1.4-0.6-2.1-0.9
	c-9.7-3.5-18.4-8.6-26.1-15.4c-13.8-12.2-22.6-27.4-26.3-45.5c-1.5-7.1-1.8-16.1-1.4-23.3C96.4,93.9,89.2,91,89.2,91l-43.1,0.1
	L19.8,74.6l11.7-16.9V25.8L4,8.3c0,0,0-3.9,0-6.7c0.8,0,1.5-0.1,2.2-0.1c21.8,0,43.6,0,65.4,0c31.5,0,63,0,94.4,0
	c1.7,0,3.3,0.3,4.8,1.3C175,5.3,179.2,7.8,183.5,10.3z M334.4,149c9.3-5.3,26.7-15.3,26.7-15.3v-2l-21.7-13.9V72.3l-12.9-8.1
	c0,0-77.5,0.2-78.3,0.2c-4.5-7.9-10.3-14.9-17.2-20.8S216.2,33.2,207.7,30c-8.1-3-17.2-4.8-26.4-4.9c0-4.5,0-8.6,0-12.9
	c-4.2-2.5-8.3-4.8-12.4-7.3c-1.2-0.7-2.5-1-3.9-1c-21.9,0-43.8,0-65.8,0.1C69,4,38.9,4,8.7,4C8,4,7.2,4,6.4,4c0,1.6,0,2.8,0,2.8
	l27.8,17.6V58L23.3,74l23.9,15.1h41.4c0,0,8.9,3.6,14,5.7c-1.8,18.8,2.7,36,12.9,51.8c10.2,15.9,24.8,26.1,42.7,32.1
	c3.1,8,7.5,15.5,11.1,23.4s7.5,15.7,11.3,23.9c3.9-8.1,7.7-15.9,11.3-23.9c3.6-7.9,8-15.4,11.2-23.4c1.5-0.6,2.8-1,4.1-1.5
	c10.1-3.8,19.1-9.3,26.9-16.6c3.6-3.3,7-6.8,9.3-11.4C273.2,149,304.7,149,334.4,149z"/>
</svg>
