<svg
   xmlns="http://www.w3.org/2000/svg"
   version="1.1"
   viewBox="0 0 2666.6667 2666.6667">
  <g
     transform="matrix(1.8543363,0,0,-1.8543363,-4501.9092,3276.9278)"
     id="g10">
    <g
       transform="scale(0.1)"
       id="g8">
      <path
         d="m 36034.412,10311.248 h 641.6 c 25,-155.4 88.2,-297.8 180.1,-417.5002 l -821.7,-821.6 z m -340.1,-3308.2002 c -132.6,-23.6 -255.6,-74.8 -362.5,-148.2 l -516.8,516.9 879.3,879.4 z m -1119.8,128.2 516.9,-516.9 c -72.3,-105 -123.1,-225.8 -147.2,-356 h -1242.7 z m -2579.8,-2098.9 c -104.3,72.5 -224,124.1 -353.3,149 v 736.9 h 1239.1 z m -4002.66,1226 c -24.41,131.8 -76.31,253.8 -149.96,359.7 l 2649.34,2649.4 c 225.59,-184.4 504.4,-306 809.87,-338.3 v -2670.8 z m 1941.08,4052.9002 c 28.73,-300.6 144.56,-575.1002 321,-800.1002 l -2653.49,-2653.5 c -104.12,70.9 -223.6,120.5 -352.21,144.4 v 3309.2002 z m -3679.99,340.1 c -30.97,147.6 -96.98,282.3 -188.89,395.1 l 844.08,844 v -1239.1 z m 995.29,3309.4 c 128.61,23.8 248.09,73.4 352.29,144.3 l 520.6,-520.6 -872.89,-872.9 z m 1113.35,-135.8 -519.69,519.7 c 73.65,106 125.55,227.9 149.96,359.8 h 1249.19 z m 2583.57,2102.6 c 105.04,-72.3 225.76,-123.1 355.95,-147.2 v -735.9 h -1238.98 z m 3998.86,-1223.1 c 24.1,-130.3 74.9,-251 147.2,-356.1 l -2678.1,-2678.1 c -217.9,170.9 -482.4,284.5 -771.9,317.6 v 2716.6 z m -1953.2,-4053.1 c -36.7,294.4 -155.5,563.1 -334.1,781.6 l 2674.9,2675 c 106.9,-73.5 229.9,-124.7 362.5,-148.2 v -3308.4 z m -315.4,-1140.2002 c 176.5,224.9 292.4,499.5002 321.1,800.1002 h 2697.6 V 8732.0478 l -1119.8,-1119.9 z m -1034.2,-580 c 300.4,34.4 574.6,154.6 796.9,336.3 l 1895.8,-1895.7 -1113.5,-1113.4 h -1579.2 z m -340.11,3058.7002 c -294.59,-31.1 -563.69,-146.1 -784.8,-319.6 l -1914.18,1914.2 1119.91,1120 h 1579.07 z m -4052.87,-1338.5 v 1579.2 l 1113.35,1113.4 1911.11,-1911 c -178.68,-218.5 -297.42,-487.2 -334.03,-781.6 z m 10344.58,738.1 c -447.7,0 -821.4,-316.5 -909.9,-738.1 h -648.7 v 3310.3 c 429.1,82.6 753.5,459.6 753.5,912.7 0,513.6 -416.4,929.9 -930,929.9 -455.4,0 -833.7,-327.5 -913.7,-759.8 h -3302.8 v 735.9 c 432.2,80 759.9,458.3 759.9,913.7 0,513.6 -416.3,929.9 -930,929.9 -513.5,0 -929.82,-416.3 -929.82,-929.9 0,-195.4 60.45,-376.4 163.32,-526.1 l -1123.48,-1123.5 h -1589.28 c -80.04,432.3 -458.25,759.8 -913.67,759.8 -513.62,0 -929.94,-416.3 -929.94,-929.9 0,-455.4 327.64,-833.6 759.89,-913.6 v -1589.3 l -1104.63,-1104.7 c -135.92,77.7 -292.77,122.7 -460.49,122.7 -513.54,0 -929.94,-416.3 -929.94,-930 0,-513.5002 416.4,-929.8002 929.94,-929.8002 463.06,0 845.92,338.6 916.99,781.6002 h 648.13 V 7002.0478 c -432.25,-80.1 -759.89,-458.3 -759.89,-913.7 0,-513.6 416.32,-929.9 929.94,-929.9 455.34,0 833.63,327.6 913.67,759.8 h 3309.25 v -734.9 c -435.41,-77.4 -766.37,-457 -766.37,-914.7 0,-513.5 416.4,-929.9 929.94,-929.9 513.64,0 929.94,416.4 929.94,929.9 0,193.7 -59.3,373.5 -160.7,522.3 l 1127.3,1127.3 h 1582.8 c 80,-432.2 458.3,-759.8 913.7,-759.8 513.6,0 930,416.3 930,929.9 0,453.2 -324.4,830.1 -753.5,912.7 v 1590.2 l 1075.1,1075 c 141,-86.2 306.1,-136.6 483.5,-136.6 513.6,0 929.9,416.3 929.9,929.8002 0,513.7 -416.3,930 -929.9,930"
         id="path6" />
    </g>
  </g>
</svg>
