<svg
   xmlns="http://www.w3.org/2000/svg"
   viewBox="0 0 1080 1080"
   version="1.1">
<path
   d="M 50 0 L 50 720 C 50 620.6 90.400391 530.60039 155.40039 465.40039 C 220.60039 400.20039 310.59922 360 410.19922 360 L 669.90039 360 C 735.20039 360.1 796.39922 377.50078 849.19922 407.80078 L 849.19922 413.80078 C 849.19922 583.00078 712.10078 720 542.80078 720 L 50 720 L 50 1080 L 669.90039 1080 C 868.80039 1080 1030 918.8 1030 720 C 1030 586.45064 957.25286 469.87029 849.19922 407.72852 L 849.19922 306.19922 C 849.19922 137.09922 712.10039 3.7895613e-14 542.90039 0 L 50 0 z " />
</svg>