<svg
   xmlns="http://www.w3.org/2000/svg"
   viewBox="0 0 512 512"
   version="1.1">
  <path
     d="m 272.12637,5.7518792 c -10.21747,0 -18.63998,2.623405 -18.63998,18.6399828 0,38.93685 13.53017,79.942658 23.74764,79.942658 10.21747,0 16.29488,-37.968181 13.25725,-79.942658 C 289.38669,8.3752842 282.48192,5.7518792 272.12637,5.7518792 Z m 94.23547,17.0084458 c -5.39216,-0.209 -10.44184,2.648214 -14.84295,11.709316 -16.98309,35.070783 -22.50498,77.873169 -13.3921,82.291539 9.11288,4.41837 31.06556,-27.200572 46.52985,-66.2755 5.93718,-14.911986 0.82844,-20.156639 -8.28444,-24.713079 -3.41733,-1.656887 -6.77507,-2.886878 -10.01036,-3.012276 z m 77.13533,68.521885 c -3.0733,0.204115 -6.65829,1.445469 -10.92995,4.077503 -32.99967,20.573027 -60.752,53.574847 -55.36711,62.273507 5.38488,8.69866 40.73342,-6.21387 74.83769,-30.9291 12.97895,-9.5271 11.46014,-16.70749 6.21333,-25.40615 -3.70211,-5.885402 -7.99272,-10.464804 -14.75396,-10.01576 z M 193.0278,92.986567 c -1.57001,-0.0536 -3.09803,0.216279 -4.5737,0.854871 0,0 -20.29687,10.771382 -2.76148,93.477682 l -31.757,14.22 c 0,0 -34.79464,-65.99827 -66.965872,-52.74317 -29.962046,12.01243 -3.589384,108.80065 -3.589384,108.80065 l -22.369595,62.96387 -8.146901,44.04344 c 0,0 -27.751786,98.17273 86.711522,96.79199 0,0 89.33438,79.94427 147.60158,26.37158 l 15.60074,-16.98417 26.23136,-40.68327 c -4.0777,1.09286 -8.48125,1.8876 -13.25187,2.30033 l -29.13306,4.00199 -37.27997,0.96813 c 0,0 -59.92517,3.45239 -103.97075,-29.13306 l -13.94493,-16.98417 c 0,0 -28.02848,-38.52263 -8.42198,-66.2755 19.6065,-27.75286 86.71152,15.18814 86.71152,15.18814 0,0 9.38687,5.10766 17.11901,-1.10567 l 59.23426,-30.78888 c 0,0 66.37893,-34.67515 88.50217,-12.86082 -0.0323,-0.20676 -14.32095,-91.42841 -104.24314,-129.2178 0,0 -7.45491,-4.00415 -20.98616,1.38074 0,0 -32.76609,-73.782939 -56.31637,-74.586903 z m 86.27734,17.976583 a 14.221616,14.221616 0 0 0 -14.22,14.22269 14.221616,14.221616 0 0 0 14.22,14.22 14.221616,14.221616 0 0 0 14.22269,-14.22 14.221616,14.221616 0 0 0 -14.22269,-14.22269 z m -75.60897,6.4021 c 5.75167,0.1522 10.88681,8.77794 13.4757,12.79072 5.38488,8.42251 9.11341,17.67292 13.66985,26.37158 2.48534,4.55644 6.21441,9.52818 6.62863,14.91307 0.5523,7.17984 -4.97228,11.59605 -11.32368,13.66716 -22.2299,7.45599 -24.30047,-13.52963 -24.30047,-13.52963 l -2.76148,-36.58959 c -1.24267,-18.91613 3.45185,-17.53701 3.45185,-17.53701 0.38833,-0.069 0.77615,-0.0964 1.1596,-0.0863 z m 126.00596,4.78135 a 14.221616,14.221616 0 0 0 -14.22,14.2227 14.221616,14.221616 0 0 0 14.22,14.22 14.221616,14.221616 0 0 0 14.22269,-14.22 14.221616,14.221616 0 0 0 -14.22269,-14.2227 z m 31.48194,34.93379 a 14.221616,14.221616 0 0 0 -14.2227,14.22 14.221616,14.221616 0 0 0 14.2227,14.22269 14.221616,14.221616 0 0 0 14.22269,-14.22269 14.221616,14.221616 0 0 0 -14.22269,-14.22 z m -253.42502,16.49876 c 4.68134,0.18209 11.96444,3.89303 22.01363,18.71009 18.91613,27.89094 16.98147,24.30048 16.98147,24.30048 0,0 10.21855,11.18399 -10.63061,25.54368 -4.55644,3.31377 -9.52603,6.07525 -14.77284,8.28443 -3.31377,1.24267 -6.76616,1.93358 -10.21801,1.93358 -4.00414,-0.13808 -5.79964,-2.21026 -6.76616,-5.93826 -3.1757,-12.15051 -6.764555,-24.30047 -8.559515,-36.72713 -1.380736,-9.66518 -4.142215,-27.33972 5.522965,-33.55304 0.19417,-0.12945 2.29848,-2.7145 6.42907,-2.55383 z m 191.84458,42.3202 c 11.87436,0 21.53899,9.80379 21.53899,16.43134 0,6.62755 -9.6641,12.01135 -21.67653,12.01135 -12.01243,0 -21.67922,-5.3838 -21.67922,-12.01135 0,-6.62755 9.9424,-16.43134 21.81676,-16.43134 z M 188.953,254.8486 a 15.187969,23.610389 29.505383 0 1 5.57959,1.31602 15.187969,23.610389 29.505383 0 1 1.59109,28.0274 15.187969,23.610389 29.505383 0 1 -24.84522,13.06848 15.187969,23.610389 29.505383 0 1 -1.59109,-28.0274 15.187969,23.610389 29.505383 0 1 19.26563,-14.3845 z m 113.90561,24.31666 c 8.96484,0.20388 15.98799,3.52628 16.35044,8.11724 0.41422,5.24681 -8.00775,10.21747 -18.77752,11.04592 -10.63169,0.82844 -19.74403,-2.75987 -20.15826,-8.00668 -0.13807,-0.41422 0,-0.69144 0,-1.10567 8.42251,-0.27614 15.18814,-3.86661 15.18814,-8.1469 0,-0.55229 -0.13969,-0.96652 -0.27777,-1.38074 l 3.72962,-0.4126 c 1.34622,-0.10356 2.66466,-0.13969 3.94535,-0.11057 z m -74.84039,18.50244 c 8.94029,0.20388 15.87257,3.52629 16.35583,8.11725 0.41422,5.24681 -8.00775,10.21747 -18.77752,11.04591 -10.63169,0.82845 -19.74673,-2.75986 -20.16095,-8.00667 -0.13807,-0.41422 0,-0.69145 0,-1.10567 8.42251,-0.27615 15.18813,-3.86661 15.18813,-8.1469 0,-0.5523 -0.13699,-0.96652 -0.27507,-1.38074 l 3.72692,-0.41261 c 1.34622,-0.10355 2.66548,-0.13969 3.94266,-0.11057 z m 114.19417,1.42929 c -4.80782,-0.0324 -10.93104,0.56254 -18.72359,2.13313 0,0 -29.68482,8.69651 -27.88986,25.40345 1.79496,16.70695 37.55504,25.40615 37.55504,25.40615 0,0 9.66517,3.86553 15.18813,-5.38542 5.52296,-9.11288 13.6704,-21.53954 11.46122,-39.35108 0,0 -0.42019,-8.09036 -17.59094,-8.20623 z" />
</svg>
