<svg
   xmlns="http://www.w3.org/2000/svg"
   viewBox="0 0 4092 4092">
 <path
   d="m 3553.4342,1652.6512 c 63.0629,-421.6478 -257.9507,-648.2994 -696.913,-799.4985 L 2998.9238,281.99382 2651.2416,195.3598 2512.6179,751.48084 c -91.404,-22.7968 -185.2704,-44.2772 -278.5638,-65.57176 L 2373.6845,126.11762 2026.2191,39.483601 1883.7392,610.45663 C 1808.1009,593.23514 1733.81,576.21498 1661.7337,558.28109 l 0.4026,-1.79649 -479.4606,-119.72965 -92.4881,371.3462 c 0,0 257.9507,59.12919 252.5148,62.76862 140.7919,35.1399 166.2525,128.34039 162.0245,202.21313 l -162.2103,650.6844 c 9.6948,2.4624 22.2702,6.0244 36.1465,11.5998 -11.5997,-2.8806 -23.9428,-6.0245 -36.7505,-9.0909 l -227.364,911.5157 c -17.206,42.775 -60.8793,106.9684 -159.31434,82.5919 3.48457,5.0488 -252.70063,-63.0629 -252.70063,-63.0629 l -172.6176,397.9838 452.45138,112.7915 c 84.17159,21.1087 166.65519,43.1931 247.88419,63.9611 l -143.8738,577.7099 347.2795,86.634 142.48,-571.577 c 94.8731,25.7548 186.943,49.5117 277.0771,71.9059 l -141.9999,568.8823 347.6976,86.634 143.8583,-576.6258 c 592.8716,112.203 1038.6636,66.9656 1226.3035,-469.2857 151.1992,-431.7453 -7.5266,-680.7755 -319.4339,-843.1717 227.1781,-52.3924 398.2935,-201.8105 443.9181,-510.4655 l -0.1084,-0.077 z m -794.3724,1113.9147 c -107.4485,431.7453 -834.3751,198.3569 -1070.0556,139.8317 l 190.9232,-765.3653 c 235.665,58.835 991.4283,175.2659 879.1479,625.5336 z m 107.5259,-1120.1714 c -98.0169,392.7182 -703.0457,193.1998 -899.3119,144.2765 l 173.0977,-694.1408 c 196.2662,48.9233 828.3197,140.2344 726.2452,549.8643 z" />
</svg>