<svg
   xmlns="http://www.w3.org/2000/svg"
   viewBox="0 0 32 32">
  <path
     d="m 22.680112,1.6209709 c -1.01796,2.6722032 -3.690216,4.5808921 -6.744098,4.5808921 -3.053881,0 -5.59887,-1.9086889 -6.998631,-4.5808921 0.7634263,-0.3817483 1.527028,-0.63624715 2.290455,-0.89074605 0.763426,1.78147465 2.544989,3.05395145 4.580909,3.05395145 2.035921,0 3.817484,-1.2724768 4.58091,-3.05395145 0.890693,0.2544989 1.527029,0.50899775 2.290455,0.89074605 z m 1.781915,9.4163361 c 1.01796,1.654295 2.544989,2.92679 4.453642,3.435682 0.636336,0.127267 1.272495,0.254534 1.90883,0.254534 0.381625,0 0.636159,0 1.01796,-0.127267 -0.127267,-0.763426 -0.254534,-1.526852 -0.381801,-2.417722 -0.636159,0.127267 -1.272494,0 -1.908653,-0.127267 C 28.27951,11.673642 27.26155,10.91004 26.497947,9.7648121 25.861788,8.6195849 25.607254,7.3470905 25.989055,6.074772 26.116322,5.4384368 26.497947,4.9295446 26.879749,4.4204764 26.667637,4.2508046 26.469783,4.0811504 26.271754,3.9114786 25.87587,3.5721526 25.479987,3.2328266 24.971095,2.8935006 24.33476,3.6569797 23.953134,4.5477082 23.6986,5.4384368 23.189532,7.4743575 23.444066,9.3831872 24.462027,11.037307 Z m -8.39857,12.470234 c 1.272319,0 2.544813,-0.381625 3.817308,-1.01796 3.562949,-2.035921 4.835444,-6.744097 2.799523,-10.307047 C 20.644367,8.6195849 15.93619,7.3470905 12.373241,9.3830112 10.591678,10.400971 9.4464512,12.055267 8.810292,13.963921 c -0.5090682,1.90883 -0.2545341,3.94475 0.7634263,5.726137 1.2724947,2.544989 3.8174827,3.817483 6.4897387,3.817483 z m -4.96271,-8.780018 c 0.381625,-1.272494 1.145227,-2.417722 2.417722,-3.054057 0.763426,-0.508892 1.654119,-0.636159 2.544988,-0.636159 1.781387,0 3.435683,0.890693 4.453643,2.544989 1.399762,2.417722 0.508892,5.59887 -1.90883,6.998631 -2.417721,1.399762 -5.59887,0.508892 -6.998631,-1.908829 -0.636159,-1.272495 -0.890694,-2.67208 -0.508892,-3.944575 z m 13.36128,6.235029 c 1.01796,-1.781386 2.544989,-2.926614 4.453642,-3.435682 1.018137,-0.254358 1.90883,-0.381625 2.92679,-0.127267 -0.127267,0.890869 -0.254534,1.654296 -0.381801,2.417722 v 0 c -0.636159,-0.127267 -1.272494,0 -1.908653,0.127267 -1.272495,0.381801 -2.417722,1.145227 -3.054058,2.290455 -0.636159,1.145227 -0.890693,2.417722 -0.508892,3.690216 0.254534,0.636336 0.508892,1.145228 0.890694,1.654296 l -1.908654,1.526852 c -0.509068,-0.763426 -1.017961,-1.526852 -1.272495,-2.544812 -0.509068,-1.90883 -0.254534,-3.944751 0.763427,-5.599047 z m -8.526189,7.253166 c 2.036097,0 3.817484,1.272495 4.58091,3.054057 0.763602,-0.254534 1.527029,-0.509068 2.290455,-0.890693 -1.145227,-2.672256 -3.69004,-4.581086 -6.744098,-4.581086 -3.053881,0 -5.726137,1.90883 -6.7440969,4.581086 0.7634259,0.381625 1.5270289,0.636159 2.2904549,0.890693 0.636159,-1.781562 2.290455,-3.054057 4.326375,-3.054057 z M 7.5379735,20.962728 C 6.5200132,19.308433 4.992967,18.035938 3.0842429,17.527046 2.0662649,17.272512 1.1755187,17.272512 0.15754078,17.399779 c 0.12724945,0.763426 0.2544989,1.527029 0.38174835,2.417722 H 1.1755187 c 0.3817484,0 0.8907462,0 1.2724769,0.127267 1.2724945,0.381625 2.2904725,1.145228 3.0538812,2.290455 1.0181364,1.781387 0.7636023,3.944574 -0.3816604,5.471603 0.2120766,0.169689 0.4100006,0.339379 0.6080302,0.509068 v 0 c 0.3958833,0.339203 0.7917666,0.678582 1.3006587,1.017961 1.6542957,-2.417722 2.0359208,-5.726138 0.5090682,-8.271127 z m 0,-9.925421 c -1.0179603,1.781562 -2.5450065,2.92679 -4.4537306,3.435682 -0.6362473,0.254534 -1.2724769,0.254534 -1.9087242,0.254534 -0.19086531,0 -0.34992272,-0.03186 -0.50898013,-0.06354 -0.1590574,-0.03186 -0.31813242,-0.06372 -0.50899779,-0.06372 0.12724945,-0.890693 0.2544989,-1.65412 0.38174835,-2.417722 v 0 c 0.63622957,0.127267 1.27247687,0 1.90870647,-0.127267 v 0 C 3.7204901,11.673642 4.8657175,10.91004 5.5018768,9.7648121 6.138212,8.6195849 6.3927461,7.3470905 6.010945,6.074772 5.7564109,5.4384368 5.5018768,4.9295446 5.1202164,4.4204764 5.6291438,3.9114786 6.2654791,3.4024808 7.0289053,2.8935006 v 0 C 7.5379735,3.6569797 8.0468657,4.4204764 8.3013998,5.4384368 8.810468,7.3470905 8.5559339,9.3831872 7.5379735,11.037307 Z" />
</svg>
