<svg
   xmlns="http://www.w3.org/2000/svg"
   viewBox="0 0 40.7 40"
   version="1.1">
<path
   d="m 9.9827976,4.4163659 c -5.454272,0 -9.8158637,4.520471 -9.8158637,9.8189061 0,5.298436 4.3615917,9.660637 9.8158637,9.660637 5.4542714,0 9.9741334,-4.362201 9.9741334,-9.660637 0,-5.4542714 -4.519862,-9.8189061 -9.9741334,-9.8189061 z m 20.7274504,0 c -4.675091,0 -8.41638,3.7406815 -8.260543,8.4157721 0,1.402527 0.15827,2.804444 0.937452,4.051135 1.090854,-0.935018 2.335718,-1.55958 3.582409,-2.027089 -0.311672,-0.623346 -0.465682,-1.244865 -0.465682,-2.024046 0,-2.337546 1.868209,-4.3646365 4.361591,-4.3646365 2.337545,0 4.364636,2.0270905 4.364636,4.3646365 0,0.623345 -0.157055,1.4007 -0.468728,2.024046 1.246691,0.467509 2.4946,1.247907 3.585455,2.027089 0.623345,-1.246691 0.934409,-2.648608 0.934409,-4.051135 0,-4.6750906 -3.895909,-8.4157721 -8.570999,-8.4157721 z M 9.827569,8.4675015 c 3.428399,0 5.922999,2.4952075 5.922999,5.7677705 C 15.750568,17.507836 13.100132,20 9.827569,20 6.5550058,20 3.9076149,17.351999 3.9076147,14.235272 c 0,-3.272563 2.6473911,-5.7677705 5.9199543,-5.7677705 z m 20.882679,7.6365895 c -5.610109,0 -9.974135,4.364635 -9.974135,9.818907 0,5.298436 4.519863,9.660636 9.974135,9.660636 5.454272,0 9.974743,-4.3622 9.818906,-9.660636 0,-5.454272 -4.364634,-9.818907 -9.818906,-9.818907 z m 0,3.895909 c 3.272563,0.155836 5.922998,2.648001 5.922998,5.764728 0,3.272563 -2.650435,5.767771 -5.922998,5.767771 -3.272563,0 -5.922998,-2.651045 -5.922998,-5.767771 C 24.78725,22.492164 27.437685,20 30.710248,20 Z M 1.4117985,27.167862 c 0,4.675091 3.8959088,8.415772 8.5709991,8.415772 4.6750894,0 8.5722154,-3.740681 8.2605424,-8.415772 h -4.051135 c 0,2.337546 -2.027091,4.364637 -4.364636,4.364637 -2.3375451,0 -4.3615911,-2.027091 -4.3615911,-4.364637 z" />
</svg>