<svg
   xmlns="http://www.w3.org/2000/svg"
   viewBox="0 0 950 950">
  <path
     d="M 575 0 C 419.55688 0 286.20049 94.588127 229.34375 229.34375 C 94.588127 286.20049 0 419.55688 0 575 C 0 782.1 167.9 950 375 950 C 530.44312 950 663.79951 855.41187 720.65625 720.65625 C 855.41187 663.79951 950 530.44312 950 375 C 950 167.9 782.1 0 575 0 z M 575 100 C 726.88 100 850 223.12 850 375 C 850 460.49342 810.98599 536.87083 749.79297 587.30859 C 749.92481 583.22126 750 579.11937 750 575 C 750 367.9 582.1 200 375 200 C 370.88063 200 366.77874 200.07519 362.69141 200.20703 C 413.12917 139.01401 489.50658 100 575 100 z M 375 300 C 526.88 300 650 423.12 650 575 C 650 598.04445 647.14974 620.41989 641.81055 641.81055 C 620.41989 647.14974 598.04445 650 575 650 C 423.12 650 300 526.88 300 375 C 300 351.95555 302.85026 329.58011 308.18945 308.18945 C 329.58011 302.85026 351.95555 300 375 300 z M 200.20703 362.69141 C 200.07519 366.77874 200 370.88063 200 375 C 200 582.1 367.9 750 575 750 C 579.11937 750 583.22126 749.92481 587.30859 749.79297 C 536.87083 810.98599 460.49342 850 375 850 C 223.12 850 100 726.88 100 575 C 100 489.50658 139.01401 413.12917 200.20703 362.69141 z " />
</svg>
