<svg
   xmlns="http://www.w3.org/2000/svg"
   viewBox="0 0 30 30">
  <path
     d="m 26.637042,0.14156329 a 1.7065816,1.7065816 0 0 0 -1.397031,0.8492331 C 25.091612,1.4359916 24.794816,1.4371509 24.498019,1.4371509 H 5.6496824 c -0.4451955,0 -0.5935937,0.00116 -0.741992,-0.2956375 A 1.8401402,1.8401402 0 0 0 2.6817143,0.39952139 2.2853354,2.2853354 0 0 0 1.3484473,2.3269617 1.8994996,1.8994996 0 0 0 2.9802501,4.1094815 c 0.4451952,0 0.5941732,0.1472391 0.5941732,0.2956375 1.4839842,2.9679681 2.8178314,5.788117 4.1534158,8.756086 a 0.66779282,0.66779282 0 0 1 0,0.741993 1.8994996,1.8994996 0 0 0 1.3361659,2.820148 1.0387888,1.0387888 0 0 1 0.741992,0.591276 c 1.483984,2.967968 2.82015,5.935936 4.304134,8.903904 a 0.94974979,0.94974979 0 0 1 0,0.892708 1.7065816,1.7065816 0 0 0 0.443456,2.373796 1.8104605,1.8104605 0 0 0 2.376692,-0.14782 1.8698199,1.8698199 0 0 0 0.295638,-2.524512 0.66779282,0.66779282 0 0 1 0,-0.741992 c 1.187187,-2.967968 2.522192,-6.083754 3.857778,-9.051722 0.148399,-0.296797 0.297957,-0.446354 0.446356,-0.446354 a 1.9291793,1.9291793 0 0 0 1.185448,-2.669432 v -0.594174 c 1.187187,-2.967968 2.522773,-5.9359369 3.70996,-8.903905 0.148398,-0.2967968 0.297375,-0.4463545 0.594172,-0.4463545 A 1.9291793,1.9291793 0 0 0 28.651435,2.0313242 2.0775777,2.0775777 0 0 0 27.318167,0.24880439 1.7065816,1.7065816 0 0 0 26.637042,0.14156329 Z M 5.6496824,2.921135 H 24.350199 v 0.1478187 c 0,0.1483984 -0.150137,0.1501375 -0.298536,0.2985358 -2.671171,2.0775781 -5.490161,4.0061778 -8.30973,6.0837551 a 0.66779282,0.66779282 0 0 1 -0.741992,0 L 6.0960369,3.2167725 A 1.1426677,1.1426677 0 0 0 5.6496824,2.921135 Z M 5.3540449,4.405119 c 2.8195697,1.9291793 5.7881181,4.0061767 8.7560861,6.083755 l -0.594174,0.594174 c -0.890391,0.741992 -1.92976,1.336167 -2.82015,2.078157 A 1.3355856,1.3355856 0 0 1 9.9538152,13.309024 C 9.0634248,13.160625 8.9144476,12.566451 8.6176508,11.972858 L 5.5018637,5.2949298 C 5.3534656,4.998133 5.3546246,4.8497346 5.2062261,4.5529378 Z M 24.645837,4.7007565 h 0.147818 c 0,0.1483983 -0.147818,0.2979561 -0.147818,0.4463545 -1.038789,2.3743745 -2.076997,4.897728 -3.115786,7.272102 0,0.148399 -0.150138,0.443456 -0.298536,0.443456 -0.445195,0 -0.888651,0.148399 -1.185448,0 -1.187187,-0.741992 -2.374955,-1.483405 -3.562142,-2.373795 2.819569,-2.0775783 5.639139,-4.0073363 8.161912,-5.7881175 z m -9.431415,6.7156075 a 0.66779282,0.66779282 0 0 1 0.379693,0.113038 c 1.038788,0.741992 2.224815,1.483984 3.263604,2.225976 0.296755,0.148398 0.298536,0.294479 0.298536,0.591276 a 1.9440191,1.9440191 0 0 0 0.295638,1.6347 c 0.296798,0.148398 0.296216,0.294479 0.147818,0.591276 -1.335586,2.967968 -2.522193,5.935936 -3.857778,8.903904 -0.148397,0.148398 -0.14724,0.297956 -0.295638,0.446354 C 15.0011,25.032498 14.703144,24.143266 14.257949,23.401274 13.070762,21.0269 12.030814,18.651366 10.843626,16.276992 a 0.66779282,0.66779282 0 0 1 0,-0.741992 1.5878629,1.5878629 0 0 0 0.298537,-0.88981 0.81619122,0.81619122 0 0 1 0.443455,-0.741992 l 3.266505,-2.373796 a 0.66779282,0.66779282 0 0 1 0.362299,-0.113038 z" />
</svg>
