<svg
   xmlns="http://www.w3.org/2000/svg"
   viewBox="0 0 128 128">
<path
   d="m 32.544048,63.933263 c 17.341102,0 31.455953,-14.11485 31.455953,-31.455952 0,-17.341102 -14.114851,-31.4559533 -31.455953,-31.4559533 -17.341102,0 -31.59037917,13.9804243 -31.59037917,31.4559533 0,17.341102 14.11485017,31.455952 31.59037917,31.455952 z m 0,63.046327 c 17.341102,0 31.455953,-14.11485 31.455953,-31.455947 0,-17.341102 -14.114851,-31.59038 -31.455953,-31.59038 -17.341102,0 -31.59037917,14.114851 -31.59037917,31.455953 0,17.341094 14.11485017,31.590374 31.59037917,31.590374 z M 127.04633,32.477311 c 0,17.341102 -14.11485,31.455952 -31.455949,31.455952 -17.475529,0 -31.59038,-14.11485 -31.59038,-31.455952 0,-17.341102 14.114851,-31.4559533 31.455953,-31.4559533 C 112.93148,0.88693057 127.04633,15.001782 127.04633,32.477311 Z M 95.455954,63.933263 c -17.341102,0 -31.455953,14.114851 -31.455953,31.455953 0,17.341094 14.114851,31.455944 31.455953,31.455944 17.341096,0 31.455956,-14.11485 31.455956,-31.455944 0,-17.341102 -13.98043,-31.455953 -31.455956,-31.455953 z" />
</svg>