<svg
   xmlns="http://www.w3.org/2000/svg"
   viewBox="0 0 2000 2000">
<path
   d="m 304.22604,1553.3371 c -49.30941,-30.1794 -79.48875,-83.7766 -79.48875,-141.4966 v -322.2428 c 0,-38.2602 31.16883,-69.2641 69.42897,-69.0992 12.20367,0 24.24243,3.2983 34.79695,9.4002 l 727.10769,423.995 c 42.5479,24.7371 68.7693,70.2535 68.7693,119.5629 v 333.7868 c 0.1649,45.8462 -36.9408,83.1169 -82.787,83.1169 -15.3371,0 -30.5092,-4.2878 -43.53739,-12.2037 z M 1388.0437,941.66945 c 42.5479,24.73717 68.6044,70.41845 68.7693,119.56295 v 677.4685 c 0,19.9546 -10.7195,38.425 -28.2004,48.155 l -159.1424,89.5485 c -1.979,1.1544 -4.1229,1.979 -6.4317,2.6387 v -376.1698 c 0,-48.6498 -25.5617,-93.8364 -67.45,-118.9034 L 557.03987,1002.0281 V 577.37347 c 0,-38.26015 31.16883,-69.26406 69.42897,-69.09914 12.20367,0 24.24242,3.29828 34.79695,9.40012 z m 318.2848,-500.35038 c 42.7128,24.73716 68.9342,70.41846 68.9342,119.72787 v 989.48656 c -0.1649,20.2845 -11.3791,38.9198 -29.1898,48.6498 l -150.8967,81.4677 V 991.80344 c 0,-48.64976 -25.5618,-93.6714 -67.1202,-118.73839 L 875.32471,481.55819 V 78.837149 c 0,-12.203668 3.2983,-24.242422 9.2352,-34.796945 19.295,-32.982887 61.678,-44.19706827 94.6609,-25.066994 z" />
</svg>