<svg
   xmlns="http://www.w3.org/2000/svg"
   viewBox="0 0 3500 3500">
<path
   d="M 2124.1178,429.58472 C 1501.7415,857.12594 722.07899,1467.094 112.11157,1460.809 c -56.565014,0 -81.703762,25.1413 -81.703762,75.4213 v 1295.1925 c 0,56.565 25.138748,75.4213 81.703762,75.4213 389.25639,3.9299 832.5103,-210.8993 1263.77063,-478.5075 v 642.0787 c 622.5375,-427.5413 1402.2,-1037.5087 2012.0062,-1024.9387 56.5651,0 81.7038,-25.1413 81.7038,-75.4213 V 674.86283 c 0,-56.56504 -25.1387,-75.42129 -81.7038,-75.42129 -392.6823,-3.92481 -834.3197,210.35157 -1263.7706,477.48136 v 849.1393 c -238.8301,163.4101 -490.39,339.5506 -754.5212,502.9606 V 1573.941 c 238.9912,-163.41 496.675,-339.5538 754.5212,-502.9639 z" />
</svg>