<svg
   xmlns="http://www.w3.org/2000/svg"
   version="1.1"
   viewBox="40 40 140 142">
  <path
     id="path2"
     transform="translate(40,40)"
     d="M 57.158203 0 L 7.1621094 24.324219 L 7.1621094 30.763672 L 49.931641 55.548828 L 49.931641 62.398438 L 48.408203 63.285156 L 8.1621094 40.396484 L 1 44.9375 L 3.6132812 96.818359 L 11.357422 102.25586 L 47.050781 80.193359 L 49.15625 81.412109 L 49.15625 85.753906 L 15.132812 106.45312 L 15.132812 113.99609 L 58.255859 142 L 64.353516 137.50195 L 64.558594 89.1875 L 68.757812 86.632812 L 76.210938 91.353516 L 76.210938 136.35742 L 84.583984 141.50977 L 122.91016 114.48828 L 122.91016 104.44922 L 93.392578 87.804688 L 93.392578 81.412109 L 93.953125 81.080078 L 129.59375 102.25586 L 137.28906 96.818359 L 140 43.542969 L 133.03125 40.396484 L 90.826172 65.292969 L 86.859375 63.527344 L 86.859375 58.818359 L 131.5293 32.382812 L 131.5293 25.324219 L 80.808594 1 L 74.613281 4.0097656 L 74.613281 48.382812 L 71.564453 50.078125 L 63.289062 45.708984 L 63.289062 3.3378906 L 57.158203 0 z M 87.681641 19.488281 L 108.34766 29.621094 L 87.681641 41.115234 L 87.681641 19.488281 z M 49.931641 19.925781 L 49.931641 38.658203 L 32.072266 29.230469 L 49.931641 19.925781 z M 17.310547 63.154297 L 33.177734 72.164062 L 17.310547 81.412109 L 17.310547 63.154297 z M 63.289062 63.154297 L 71.564453 67.867188 L 74.613281 66.064453 L 74.613281 70.824219 L 78.341797 72.494141 L 76.210938 73.830078 L 76.210938 78.21875 L 68.757812 73.830078 L 64.601562 76.357422 L 64.601562 72.494141 L 61.949219 70.984375 L 63.289062 70.15625 L 63.289062 63.154297 z M 123.58008 63.527344 L 122.91016 82.320312 L 106 73.830078 L 123.58008 63.527344 z M 49.15625 97.533203 L 49.15625 117.94727 L 33.177734 107.74023 L 49.15625 97.533203 z M 93.392578 100.34766 L 105.58984 107.74023 L 93.392578 115.75391 L 93.392578 100.34766 z " />
</svg>
