<svg viewBox="0 0 28 28" xmlns="http://www.w3.org/2000/svg">
	<path d="M21.3393 5.18823C19.1971 3.45882 16.643 2.47058 14.0065 2.47058C11.1228 2.47058 8.32151 3.54117 6.17935 5.59999C4.03718 7.65882 2.80132 10.2941 2.63654 13.2588V13.5882H3.95479V13.3412C4.28435 8.07058 8.73347 3.95293 14.0065 3.95293C16.3958 3.95293 18.6204 4.77646 20.433 6.25882L20.5154 6.34117L21.5041 5.35293L21.3393 5.18823Z" />
	<path d="M20.021 18.2823C18.6203 20.1764 16.3958 21.3294 14.0065 21.3294C9.8869 21.3294 6.59127 18.0353 6.59127 13.9176C6.59127 9.88231 9.8869 6.5882 14.0065 6.5882C16.3958 6.5882 18.6203 7.74114 20.021 9.63526L20.1034 9.79996L21.0921 8.81173L21.0097 8.72937C19.3619 6.50584 16.7254 5.27055 14.0065 5.27055C9.14539 5.1882 5.27301 9.14114 5.27301 13.9176C5.27301 18.7764 9.22778 22.647 14.0065 22.647C16.7254 22.647 19.3619 21.3294 21.0097 19.1882L21.0921 19.1058L20.1034 18.1176L20.021 18.2823Z" />
	<path d="M22.9046 6.8352C22.6575 6.58814 22.4927 6.25873 22.2455 6.01167L22.1631 5.92932L21.1744 6.91756L21.2568 6.99991C21.504 7.24697 21.7512 7.49403 21.916 7.82344L21.9983 7.98814L22.987 6.99991L22.9046 6.8352Z" />
	<path d="M20.433 21.6589L20.3506 21.7412C18.538 23.2236 16.3134 24.0471 13.9241 24.0471C8.65107 24.0471 4.20196 19.9295 3.87239 14.6589V14.3295H2.55414V14.6589C2.71892 17.5412 4.03718 20.2589 6.09695 22.3177C8.23911 24.2942 11.0404 25.4471 13.9241 25.4471C16.643 25.4471 19.1971 24.4589 21.2569 22.7295L21.3393 22.6471L20.433 21.6589Z" />
	<path d="M21.9983 20.0118L21.916 20.1765C21.7512 20.4236 21.504 20.6707 21.2568 21.0001L21.1744 21.0824L22.1631 22.0707L22.2455 21.9883C22.4927 21.7413 22.7399 21.4118 22.9046 21.1648L22.987 21.0824L21.9983 20.0118Z" />
	<path d="M23.7286 21.9882C21.3393 24.8706 17.7964 26.6 14.0065 26.6C7.00323 26.6 1.40065 20.9176 1.40065 13.9176C1.40065 6.91765 7.00323 1.31765 14.0065 1.31765C17.7964 1.31765 21.3393 2.96471 23.7286 5.92941L23.811 6.09412L24.7997 5.10588L24.7173 5.02353C22.0808 1.81176 18.126 0 14.0065 0C6.26171 0 0 6.25882 0 14C0 21.7412 6.26171 28 14.0065 28C18.126 28 22.0808 26.1882 24.7173 22.9765L24.7997 22.8941L23.811 21.9059L23.7286 21.9882Z" />
</svg>
