<svg
   xmlns="http://www.w3.org/2000/svg"
   viewBox="0 0 420 420">
  <path
     d="m 130.79882,1.0996111 -19.19922,1.1992188 -9.19922,0.8007812 -15.999999,5 -10.701172,5.3007809 -12.599609,9 -10.917969,9.478516 -0.482422,0.320312 -10,13.701172 -9.90039,13.298828 -9.398438,17.701172 -7.300781,20.5 L 11.400381,112.5 6.0996,135.59961 l -3,24.69922 -0.5,25.80078 1.9003906,26.19922 1.9003906,14.30078 4.1992188,25.69922 3.400391,13.80078 6.40039,24.5 3.699219,12.30078 3.400391,10.39844 2.699218,8.30078 1.800782,5.80078 7.298828,20.09961 0.732422,1.46289 0.267578,0.73633 0.08789,-0.0273 0.01367,0.0273 8.39844,17.40039 9.800781,15.30078 10.800781,12.79883 11.59961,10.09961 1.298828,1.10156 12.800781,7.5 13,4.19922 13,0.80078 12.59961,-2.80078 11.80078,-6.19922 3.59961,-1.90039 11.40039,-10 10,-13.30078 8.40039,-16.19922 3.19922,-6.59961 6.80078,-19.60156 1.83399,-8.54688 18.66601,-7.15234 30.59961,-9.59961 32.09961,-8.59961 27.89844,-6.88672 1.20117,-0.11328 29.5,-7.40039 24.80078,-6.70117 18.19922,-6.09961 5.90039,-2.90039 10.69922,-6.29883 5.60156,-4.90039 0.11133,-0.13672 -0.0117,0.0371 5.09961,-6.30078 4.5,-7.69922 3.69922,-8.70117 2.80078,-9.5 2.40039,-10.19922 1.90039,-11.09961 1,-11.40039 -0.10156,-11.40039 -1.19924,-11.0996 -2.09961,-10.5 -0.0469,0.25586 -0.0527,-0.25586 -3.10156,-9.69922 -6.89844,-16.10156 -3.90039,-9.09961 -4.70117,-7.59961 -10.64258,-12.07422 -9.95703,-11.72656 2.3125,2.82031 -0.0332,-0.0371 -2.2793,-2.7832 -22.33984,-17.601563 -0.0371,-0.0293 -5.62305,-4.568359 -28.5,-17.699219 -32.69922,-16.5 -20.29492,-8.5 -16.40625,-7.101562 -33.5,-12.09961 -31.79883,-9.1992181 -28.5,-6.0000002 z m 224.24023,89.1289059 0.12305,0.07227 0.008,0.0078 -0.11719,-0.06836 z m 1.34571,1.076172 0.0195,0.04102 h -0.002 z m -333.859379,12.511721 -0.002,0.0156 -0.002,0.002 z m 176.273439,14.48242 17.5,1.60156 20.90039,3.79883 22.90039,5.80078 23,7.40039 21.5,8.79883 17.80078,9.70117 12.59961,10.29883 3.93164,6.86328 -4.57812,2.85156 -22.5293,8.88086 -18.11914,4.83985 -8.35547,2.16992 h -0.004 l -0.8457,0.0957 -32.40039,6.09961 -29.84961,3.75195 -29.16992,2.18164 -1.28125,-12.63476 -5,-26.5 -3.39844,-12.39844 -0.0957,-0.34375 0.19531,0.34375 -5.06641,-18.00976 -1.13476,-12.0918 8.40039,-2.89844 z m 139.40039,35.90039 6,11.5 -1.41602,4.42383 -0.0723,0.0469 1.38867,-4.4707 z m 16.05273,4.28516 0.0156,0.006 -6.46485,8.08008 0.31641,-0.48047 z m -180.25195,2.81445 3.9043,9.61523 0.002,0.0488 z m -46.40039,7.5 5.42383,5.60937 0.004,0.0605 -5.45703,-5.59766 z m 225.1875,5.24219 5.71289,2.6582 5.5,4 3.72656,-2.45117 -0.006,0.082 -3.7207,2.46875 -5.5,-4.09961 -5.80064,-2.59958 z M 292.46093,191 h 0.0391 l 0.0781,0.0234 -0.46485,0.11914 -0.12695,-0.0195 z m -199.060549,0.59961 9.298829,1.59961 9.30078,4 9.09961,6.5 8.5,8.80078 7.80078,10.90039 6.89844,12.5 5.70117,13.89844 4.40039,15 3,15.5 1.5,15.80078 0.0996,15.5 -1.40039,14.80078 -2.90039,13.89844 -4.10547,11.8418 -0.79492,1.55859 -1.3125,2.62695 -0.0859,0.0742 0.0723,-0.0488 -3.57227,7.14844 3.67383,-7.2168 0.0508,-0.0332 -3.625,7.25 -0.30078,8.79883 0.20117,-8.79883 -6.5,8.90039 -7.5,6.69922 -1.5,10.09961 1.5,-10.19922 -8.20117,4.40039 -8.69922,2 -9,-0.5 -9.099609,-2.90039 -8.90039,-5.20117 -8.5,-7.5 -8,-9.39844 -7.201252,-11.30079 -6.199219,-12.80078 -5.099609,-14 -3.800782,-14.89844 -2.5,-15.30078 -7.876953,1.86133 -0.04492,-0.0723 7.921875,-1.78906 -1,-15.5 0.400391,-15.19922 1.900391,-14.5 3.277343,-13.4082 0.02148,0.008 4.601562,-12.09961 5.898438,-10.30078 -8,-5.30078 -0.03906,-0.0586 8.039063,5.35938 7,-8.30078 7.90039,-6 8.59961,-3.59961 z m 274.400389,31.42383 0.0293,0.01 -0.0312,0.0117 -0.0293,-0.01 z m -331.080076,70.63867 -0.01172,0.0625 z m 274.115236,2.52344 -0.19531,0.0469 0.002,-0.002 z m -4.42774,3.16797 -0.66601,0.16211 0.002,-0.002 z M 149.99999,353.5 l -1.33398,2.66797 -0.0586,0.0508 1.37696,-2.70312 z" />
</svg>
