<svg
   xmlns="http://www.w3.org/2000/svg"
   viewBox="0 0 50 50">
<path
   d="M 49.207696,32.658412 43.289833,16.645369 c -0.116037,-0.34811 -0.464146,-0.580183 -0.812256,-0.580183 H 32.846544 L 27.160754,0.86439943 c -0.116037,-0.23207308 -0.34811,-0.46414616 -0.69622,-0.5801827 -0.348109,0 -0.580182,0 -0.812255,0.23207308 L 11.495821,16.181223 H 1.6327145 c -0.2320731,0 -0.5801827,0.116036 -0.69621924,0.348109 -0.23207308,0.232074 -0.23207308,0.464147 -0.11603654,0.812256 L 6.7383223,33.354631 c 0.1160366,0.34811 0.4641462,0.580183 0.8122558,0.580183 h 9.5149959 l 5.685791,15.200787 c 0.116037,0.232073 0.34811,0.464146 0.696219,0.580182 h 0.116037 c 0.232073,0 0.464146,-0.116036 0.580182,-0.232073 l 8.470668,-9.166887 v 0 0 l 5.801827,-6.382009 h 9.979143 c 0.232073,0 0.580182,-0.116037 0.696219,-0.34811 0.116036,-0.232073 0.232073,-0.580183 0.116036,-0.928292 z M 26.000388,2.8370206 31.222033,16.761406 25.304169,23.259452 22.867402,16.645369 c -0.116037,-0.34811 -0.464147,-0.580183 -0.812256,-0.580183 H 13.816551 Z M 2.9091165,17.805734 H 21.474963 l 2.552804,6.846156 -6.730119,7.426339 H 8.2467974 Z M 31.338069,39.040421 v 0 l -7.542375,8.122558 -5.221644,-13.924385 6.0339,-6.614082 2.552804,6.730119 c 0.116036,0.34811 0.464146,0.580183 0.812255,0.580183 h 8.122558 z m -2.784877,-6.846155 -2.552804,-7.078229 6.614083,-7.194266 h 9.282923 l 5.221645,14.272495 z" />
</svg>