<svg
   xmlns="http://www.w3.org/2000/svg"
   viewBox="0 0 2000 2000">
  <path
     d="m 1099.365,1077.85 a 234.47,234.47 0 0 0 131.06,-210.66 c 0,-129.41 -104.63,-234.29 -233.59,-234.29 -128.96,0 -233.64,104.87 -233.64,234.28 a 234.32,234.32 0 0 0 131.16,210.66 v 289.36 h 205 V 1077.85 M 996.845,1750 c -412.27,0 -747.63,-336.42 -747.63,-750 0,-413.58 335.41,-749.94 747.63,-749.94 336.42,0 621.58,224 715.14,531.16 h 257.67 C 1870.235,334.17 1472.435,0 996.845,0 446.305,0 -0.005,447.71 -0.005,1000 c 0,552.29 446.31,1000 996.85,1000 475.59,0 873.39,-334.17 972.82,-781.23 h -257.67 C 1618.365,1526 1333.265,1750 996.845,1750" />
</svg>
