<svg
   xmlns="http://www.w3.org/2000/svg"
   viewBox="0 0 444.44 444.44">
 <path
   d="m 227.52171,246.25225 h 129.03398 c 2.75061,0 4.0495,0 4.24816,-3.60635 1.0544,-13.1265 1.0544,-26.32941 0,-39.47119 0,-2.55195 -1.26834,-3.60635 -4.03422,-3.60635 H 99.970006 c -3.17848,0 -4.03423,1.0544 -4.03423,4.03422 v 37.77499 c 0,4.87468 0,4.87468 5.088634,4.87468 z m 118.87202,-90.83111 c 0.36675,-0.96272 0.36675,-2.01712 0,-2.96455 -2.15464,-4.69131 -4.70659,-9.16868 -7.67113,-13.371 -4.4621,-7.18213 -9.71881,-13.79887 -15.70902,-19.74323 -2.82701,-3.59107 -6.09718,-6.81539 -9.76465,-9.55072 C 294.881,94.159027 273.04424,83.095479 249.5724,77.533142 237.72952,74.874223 225.62685,73.605888 213.49362,73.712856 H 99.526846 c -3.178471,0 -3.606351,1.268335 -3.606351,4.034222 v 75.336042 c 0,3.17848 0,4.03422 4.03423,4.03422 H 344.86562 c 0,0 2.12408,-0.42787 2.55195,-1.6962 h -1.03912 z m 0,134.97834 c -3.60635,-0.39731 -7.24326,-0.39731 -10.84961,0 H 100.18393 c -3.178474,0 -4.248155,0 -4.248155,4.24816 v 73.65511 c 0,3.39241 0,4.24816 4.248155,4.24816 h 108.66423 c 5.19558,0.39731 10.39117,0.0306 15.47979,-1.0544 15.77014,-1.13081 31.28051,-4.55378 46.07265,-10.19252 5.37897,-1.8643 10.57455,-4.29401 15.4798,-7.2127 h 1.48227 c 25.47367,-13.24876 46.16434,-34.06167 59.21443,-59.61175 0,0 1.48228,-3.20904 -0.18337,-4.0495 z M 53.286109,410.73849 v -1.26834 -49.44978 -16.76342 -49.87765 c 0,-2.76589 0,-3.17848 -3.392414,-3.17848 H 3.8363267 c -2.5519511,0 -3.60635003,0 -3.60635003,-3.39241 V 246.48147 H 49.465823 c 2.750605,0 3.820286,0 3.820286,-3.60635 v -39.89906 c 0,-2.55196 0,-3.17848 -3.392414,-3.17848 H 3.8363267 c -2.5519511,0 -3.60635003,0 -3.60635003,-3.39242 v -37.34711 c 0,-2.33802 0,-2.96454 3.39241393,-2.96454 H 49.251887 c 3.178478,0 4.034222,0 4.034222,-4.03423 V 37.664638 c 0,-3.392414 0,-4.248158 4.248158,-4.248158 H 216.70266 c 11.55255,0.458435 23.02869,1.726769 34.38258,3.820286 23.39543,4.324564 45.87399,12.683349 66.42713,24.617923 13.63078,8.0226 26.1766,17.710845 37.34711,28.86608 8.40463,8.725533 15.98408,18.169281 22.70778,28.224281 6.67786,10.19252 12.22492,21.08797 16.58004,32.47243 0.53484,2.96454 3.37714,4.96637 6.34168,4.46209 h 37.98892 c 4.87469,0 4.87469,0 5.08862,4.67603 v 34.81045 c 0,3.39241 -1.26833,4.24815 -4.67603,4.24815 h -29.29395 c -2.96454,0 -3.82028,0 -3.60635,3.82029 1.16137,12.92785 1.16137,25.90154 0,38.82939 0,3.60635 0,4.03422 4.0495,4.03422 h 33.51155 c 1.48227,1.91014 0,3.82028 0,5.74571 0.21394,2.46026 0.21394,4.95109 0,7.41135 v 25.68761 c 0,3.60634 -1.0544,4.67603 -4.24816,4.67603 h -40.113 c -2.79645,-0.53485 -5.51649,1.25305 -6.1583,4.03422 -9.55071,24.83186 -24.83186,47.09648 -44.57509,64.94486 -7.2127,6.49448 -14.79215,12.60694 -22.70778,18.24568 -8.49632,4.88997 -16.76342,9.97859 -25.47367,14.01281 -16.02992,7.2127 -32.83918,12.53054 -50.09159,15.90767 -16.38139,2.93398 -32.99199,4.26344 -49.66372,4.03422 H 53.224984 v -0.21393 z" />
</svg>