<svg
   xmlns="http://www.w3.org/2000/svg"
   viewBox="68 202 150 150"
   version="1.0">
  <path
     d="m 68.176312,219.95145 c 1.044367,0 2.088734,0 3.133101,0 33.158657,0 66.056217,0 99.214877,0 7.57166,0 14.88223,0.78328 21.93171,3.39419 14.88223,5.74402 23.23717,16.97097 24.80372,32.63648 0.52219,5.48292 0.52219,11.22694 0.52219,16.70987 0,8.09385 0.26109,16.18769 -0.52219,24.54263 -1.56655,19.05969 -13.83786,32.11428 -32.63647,35.50847 -4.69965,0.78328 -9.39931,1.30546 -14.36005,1.30546 -32.89757,0 -65.79513,0 -98.953787,0 -1.044367,0 -1.827642,0 -3.133101,0 0,-38.11939 0,-75.9777 0,-114.0971 z m 30.025556,87.46575 c 0.783275,0 1.566554,0 2.088732,0 22.97608,0 45.69106,0 68.66714,0 2.61092,0 4.96074,-0.26109 7.57166,-0.78328 6.5273,-1.30545 9.92149,-5.22183 10.70477,-11.74913 0.26109,-1.56655 0.26109,-3.1331 0.26109,-4.69965 0,-9.13821 0,-18.27642 0,-27.41464 0,-2.08873 -0.26109,-4.43856 -0.78328,-6.52729 -1.04436,-4.43856 -3.65528,-7.83275 -8.09384,-8.87712 -3.3942,-0.78328 -7.04948,-1.56655 -10.70477,-1.56655 -22.45389,0 -44.64669,0 -67.10059,0 -0.78327,0 -1.827637,0 -2.872004,0.26109 0.261092,20.62625 0.261092,40.99141 0.261092,61.35657 z" />
</svg>
