<svg
   xmlns="http://www.w3.org/2000/svg"
   viewBox="0 0 514 514">
  <path
     d="m 149.63683,48.599609 -15.5,86.601561 168.70117,0.19922 c 83.1,0 107.59844,30.19922 106.89844,80.19922 -0.4,25.6 -11.49883,69.00156 -16.29883,83.10156 -12.8,37.5 -39.10117,80.19961 -137.70117,80.09961 l -164,-0.0996 -15.449219,86.69921 H 262.78722 c 65.8,0 93.70039,-7.70078 123.40039,-21.30078 65.7,-30.5 104.8,-95.29844 120.5,-179.89844 23.25,-126 -5.75039,-215.601561 -170.15039,-215.601561 z M 68.98644,213.5 c -49,0 -55.99961,31.90117 -60.5996096,51.20117 -6.1,25.2 -8.09960935,35.5 -8.09960935,35.5 H 191.68761 c 49,0 55.99961,-31.90117 60.59961,-51.20117 6.1,-25.2 8.09961,-35.5 8.09961,-35.5 z" />
</svg>
