<svg version="1.0" xmlns="http://www.w3.org/2000/svg"
	 viewBox="160 490 480 550">
<path d="M342,528.5c-32,16.7-58.3,30.8-58.2,31.4c0,1.5,76.9,40.4,79.6,40.3c1.2,0,10.2-4.2,20-9.2l17.8-9.1l19.4,10
	l19.4,10l31.8-14.3c47.8-21.5,52.8-23.9,52-24.6c-1-1.1-18.2-10.3-64.8-34.8c-22.5-11.8-44.3-23.5-48.5-25.8
	c-4.2-2.4-8.2-4.2-8.9-4.2S374,511.8,342,528.5z M201.5,601.3l-33.4,17.2v75.6c0,41.6,0.4,75.6,1,75.6c0.5,0,16.9-7.1,36.5-15.8
	l35.5-15.8v-79.7l17.3,9.4c13.4,7.3,26.7,14.5,40.1,21.8l22.8,12.3l10.1-4.6c6.4-2.9,12.7-5.8,19-8.7c4.9-2.3,16.9-7.7,26.7-12
	c9.8-4.3,18.8-8.7,20.1-9.7c1.7-1.3-19.1-12.8-76.9-42.5c-43.6-22.4-80.7-40.6-82.4-40.5C236.2,584,219.8,591.8,201.5,601.3z
	 M529.7,606.1c-22.7,10.3-41.3,19.1-41.3,19.6c0,0.5,12.4,7.9,27.5,16.4c15.2,8.5,27.5,15.9,27.5,16.5c0,0.6-13.4,7.1-29.8,14.4
	c-16.4,7.4-57.8,26.1-92.1,41.6l-114.7,51.9c-28.9,13-54.9,24.8-57.8,26.1c-58.9,26.7-75.2,34.1-77.4,35.4c-2.2,1.3-2.7,8.7-3.1,46
	l-0.5,44.5l29.8,15.2l29.8,15.2l41.4-18.7c22.7-10.3,41.4-19.2,41.4-19.9c0-0.7-4.2-3.4-9.3-6.1c-5.1-2.7-15.7-8.7-23.6-13.3
	c-7.8-4.6-15.6-8.8-17.3-9.4c-1.7-0.6-3.1-1.5-3.1-2.2c0-0.6,18.2-9.3,40.5-19.2c43.2-19.3,76.2-34.2,147.1-66.3
	c31.7-14.3,63.4-28.7,95.2-43c27.9-12.6,60.3-27.3,72-32.7l21.3-9.8l0.5-45l0.5-45L604,602.9c-16.6-8.5-30.9-15.5-31.6-15.5
	C571.6,587.4,552.4,595.9,529.7,606.1z M625.2,768.5c-4.5,2.2-13.3,6.3-19.6,9.1c-6.3,2.8-18.3,8.2-26.6,12l-15.1,6.9l-0.3,39.5
	c-0.2,21.7-1,39.4-1.8,39.3c-1.8-0.3-30.1-14.8-58.6-30.1c-20.6-11-21.9-11.5-26.7-9.1c-2.8,1.4-19.5,8.9-37.1,16.6
	c-17.6,7.8-32.6,14.6-33.3,15.3c-0.7,0.6,34.7,19.8,78.8,42.7l80,41.6l34.2-17.7c18.8-9.7,34.8-18.6,35.5-19.7
	c1.7-2.5,1.5-150.7-0.1-150.5C633.8,764.5,629.6,766.3,625.2,768.5z M435.8,942.4c-5.9,2.5-11.9,5.1-17.8,7.7
	c-17.9,7.7-14.4,8-35.7-2.6c-14.2-7.1-20.3-9.2-23-8.2c-2,0.8-19.1,8.5-38.1,17.1c-18.9,8.6-35.1,15.7-35.9,15.7
	c-8,0,5.3,7.9,56.3,33.6l59.8,30.2l25.2-12.4c13.8-6.8,41.8-20.5,62-30.4c20.3-9.9,36.6-18.2,36.3-18.6c-0.3-0.3-17.3-9-37.8-19.4
	l-37.2-18.8L435.8,942.4z"/>
</svg>
