<svg viewBox="0 0 35 51" xmlns="http://www.w3.org/2000/svg">
<path d="M0.00500488 5.55769L7.16811 0.851562V38.6802C14.1848 38.2549 24.7217 36.2326 25.7943 25.8659C25.7943 25.8659 27.4386 32.2258 23.668 37.3241C19.647 42.7579 10.3009 46.4434 0.00500488 46.4434V5.55769Z" />
<path d="M14.3735 9.67188V15.9751C17.2936 16.7783 24.0032 19.3487 25.8082 25.9165C25.8082 25.9165 25.827 26.0205 25.8648 26.2048C25.8743 26.2567 25.879 26.304 25.8885 26.356C26.1767 27.8633 26.8382 32.9757 23.6677 37.3228C19.7601 42.6857 10.1683 46.4421 0 46.4421L8.84052 50.3119C8.84052 50.3119 27.6982 50.0331 33.4438 33.4435C33.9777 31.8984 34.2707 30.3959 34.3227 28.9406C33.803 17.2272 24.1874 10.735 14.3735 9.67188V9.67188Z"/>
<path d="M30.2355 10.2449C26.2098 4.95289 17.2511 0.851562 7.16785 0.851562V38.6802C8.43888 38.6046 9.86587 38.4676 11.3306 38.2408C12.0158 38.1321 12.7057 38.0045 13.3813 37.8533C13.7074 37.7777 14.0569 37.6974 14.3735 37.6123V9.67792C24.1874 10.7411 33.8691 17.2663 34.3227 29.0269C34.3227 29.0269 36.6568 18.6886 30.2355 10.2497V10.2449Z"/>
</svg>
