<svg xmlns="http://www.w3.org/2000/svg" viewBox="49 0 55 40">
  <path d="M98.4578 39.142H103.679V8.51925C103.676 6.40377 102.83 4.37573 101.328 2.87987C99.8262 1.384 97.7894 0.542375 95.6648 0.539551C94.1442 0.543575 92.656 0.976509 91.3724 1.78821C90.0888 2.59991 89.0626 3.75715 88.4126 5.12583L76.0182 31.3938C75.7912 31.8706 75.4336 32.274 74.9862 32.557C74.5386 32.8398 74.02 32.9906 73.4902 32.9924C73.1232 32.9924 72.76 32.9206 72.421 32.7808C72.0824 32.6412 71.7744 32.4362 71.515 32.1782C71.256 31.9196 71.05 31.6132 70.9096 31.276C70.7694 30.9384 70.6974 30.577 70.6974 30.2114V11.108C70.6944 8.30589 69.5752 5.61941 67.5854 3.63807C65.5956 1.65673 62.8976 0.542379 60.0836 0.539551C57.2702 0.543319 54.5734 1.65807 52.5842 3.63933C50.5952 5.62057 49.4762 8.30651 49.4736 11.108V39.1382H54.6948V11.108C54.6966 9.68501 55.2648 8.32083 56.275 7.31433C57.285 6.30785 58.6546 5.74111 60.0836 5.73827C61.5132 5.74017 62.8838 6.30649 63.8946 7.31309C64.9056 8.31967 65.4744 9.68441 65.4762 11.108V30.2114C65.478 32.3274 66.3232 34.356 67.8254 35.852C69.3282 37.348 71.365 38.1894 73.4902 38.1914C75.0106 38.1878 76.499 37.755 77.7826 36.9434C79.0662 36.1312 80.0924 34.9738 80.7422 33.605L93.1366 7.33707C93.3638 6.86037 93.7218 6.45731 94.169 6.17443C94.6164 5.89153 95.1348 5.74035 95.6648 5.73827C96.405 5.73921 97.115 6.03249 97.6386 6.55381C98.162 7.07515 98.4566 7.78197 98.4578 8.51925V39.142Z" fill="currentColor"></path>
</svg>