<svg
   xmlns="http://www.w3.org/2000/svg"
   viewBox="0 0 92.5 92.5">
  <path
     d="M 43.294379,0.70274556 C 36.681811,0.51174989 30.08339,2.5084377 24.058938,7.8336235 6.0812059,23.803203 -2.9084069,46.083369 6.0804588,68.268654 c 0.1912525,0.478131 0.3821314,0.956636 0.5733839,1.339141 a 4.8386873,4.8386873 0 0 1 1.0533826,-1.434394 c 4.6856857,-4.781312 9.8483817,4.972191 20.8453977,10.614139 6.980716,3.538169 10.996643,8.223109 12.526663,12.621915 10.232008,1.243141 20.750892,-0.382505 29.166001,-5.259442 10.997016,-6.311332 17.405468,-17.785359 19.700498,-29.45176 a 9.715625,9.715625 0 0 1 -5.929948,2.390656 C 80.573293,58.897656 82.486565,53.446588 80.956545,47.230884 79.139647,40.345795 81.816809,35.564483 85.354978,35.755735 a 10.518885,10.518885 0 0 1 4.590807,1.912525 28.563555,28.563555 0 0 0 -3.251666,-8.511109 C 83.538454,23.897709 76.653365,16.248731 68.047004,10.22428 v 57.661495 a 5.8236375,5.8236375 0 0 1 -11.09227,2.48591 22.692104,22.692104 0 1 1 -0.575251,-38.91913 V 9.0756438 A 5.6228224,5.6228224 0 0 1 58.484381,4.5819581 C 53.589513,2.3227884 48.437487,0.85129772 43.294379,0.70274556 Z M 46.540441,13.761702 c 2.581908,-0.09563 4.97331,2.96404 5.068936,4.398433 0.09563,1.434394 -2.199776,0.861384 -4.686058,1.722019 -2.77316,0.956262 -4.780938,0.09525 -4.876564,-1.33914 -0.09563,-1.434394 1.806588,-4.685686 4.493686,-4.781312 z m -0.945056,26.455969 c -9.244379,-0.05815 -14.872867,13.444823 -4.706604,19.254116 5.546322,3.155666 12.239784,1.912152 13.482925,-5.16419 0.669384,-4.111926 0.286879,-10.518512 -3.346918,-12.526662 -1.882642,-1.075795 -3.717481,-1.552497 -5.429403,-1.563264 z" />
</svg>
