<svg
   xmlns="http://www.w3.org/2000/svg"
   viewBox="0 0 2503 2503">
<path
   d="M 1264.0698,0 C 741.26979,2.1 317.97057,425.39922 315.87057,948.19922 c 0,104.69998 16.9,208.69998 50,307.99998 24.7,67.6 98.00078,104.0016 166.80078,83.1016 66.5,-25.5 101.79961,-98.2012 80.59961,-166.2012 -28.1,-77.4 -40.60039,-159.4992 -36.90039,-241.69921 11.4,-377.6 326.70078,-674.49961 704.30083,-663.09961 377.6,11.4 674.4996,326.69883 663.0996,704.29883 -10.7,353.49999 -289.1012,640.59959 -642.2012,662.09959 0,0 -133.0988,8.1012 -199.2988,16.2012 -24.4,3.5 -48.6,8.3004 -72.5,14.4004 -3.4,3.5 -8.9004,3.4996 -12.4004,0.1 l -0.1,-0.1 c -2.4,-3.1 -2.4,-7.5016 0,-10.6016 l 20.5996,-112.3984 125,-562.20119 c 15,-70.2 -29.7004,-139.29883 -99.9004,-154.29883 -70.20002,-15 -139.29885,29.69844 -154.29885,99.89844 0,0 -297.30078,1376.10158 -297.30078,1388.60158 -17,66.9 23.40078,134.8984 90.30078,151.8984 0.7,0.2 1.49922,0.4 2.19922,0.5 h 6.90039 c 66.8,17.3 134.99922,-22.8992 152.19922,-89.6992 0.3,-1.1 0.60078,-2.2004 0.80078,-3.4004 -0.2,-2.1 -0.2,-4.1992 0,-6.1992 3.7,-16.2 41.19922,-199.3008 41.19922,-199.3008 28.4,-138.2 139.80122,-244.1 279.20122,-265.5 28.7,-4.4 149.2988,-12.5 149.2988,-12.5 520.8,-51.9 900.9004,-516.2 848.9004,-1036.99999 C 2134.9706,378.09961 1741.4698,12.4 1264.0698,0 Z m 25.6523,2182.9512 c -73.5232,-0.2489 -139.4757,51.1246 -155.0507,125.8496 -0.2,0.8 -0.3,1.5984 -0.5,2.3984 -18.5,84.9 35.2988,168.8008 120.2988,187.3008 0.1,0 0.2008,-4e-4 0.3008,0.1 h 4.4004 c 83.2,20.1 166.8984,-31.0992 186.8984,-114.1992 0.2,-0.6 0.3,-1.3004 0.5,-1.9004 v -8.6992 c 14.7,-85.8 -40.1,-168.1 -125,-187.5 -10.6875,-2.225 -21.3443,-3.3141 -31.8477,-3.3496 z" />

</svg>