<svg version="1.1" xmlns="http://www.w3.org/2000/svg"
	 viewBox="6 7 38 32">
<g>
	<path d="M25.6,38.5c-1.5,0.3-4.2,0.4-5.3,0.4c-6.9,0-13.6,0-13.6,0l5-21.4h5.5l1.2-5.1H24l1.2-5
		c0,0,1.3,0,2.7,0c0.9,0,2.5,0.1,2.8,0.1c8.8,0.8,14.2,7.5,12.3,15.7C41.2,30.6,33.8,36.8,25.6,38.5z M26.5,23.4
		c0.8-0.3,1.5-0.9,1.7-1.5c0.2-1-0.1-1.6-0.6-1.9c-0.4-0.3-0.8-0.4-1.2-0.4c-0.3,0-0.9,0-0.9,0h-6.4l-2.9,12.3c0,0,3.3,0,5.5,0
		c1.2,0,2.6,0,3.6-0.2l-1.9-5.7h-3.8l0.5-2.1c0,0,2.4,0,4.1,0C25.2,23.7,26.2,23.6,26.5,23.4z M20.3,14.4l-0.7,3c0,0,0.7,0,6.8,0
		c1,0,1.6,0,2.2,0.2c2.1,0.5,2.4,2.4,2.4,2.4c0.2,1.2-0.1,2.3-0.6,3.1c-1.3,2.2-4.1,2.8-4.1,2.8l1.6,4.9c3.4-1.5,6.2-4.4,7-7.7
		c0.9-4-1.2-7.3-5-8.3c-0.3-0.1-1.4-0.3-2.2-0.3c-0.5,0-2.3,0-2.3,0H20.3z M29.3,9.4H27l-0.7,2.9c0,0,0.5,0,1.3,0
		c1.8,0,3.2,0.4,3.7,0.5c4,1.5,7,5.7,5.9,10.3c-1.2,5.2-5.9,9.5-12.1,10.6c-0.9,0.2-2.1,0.2-2.8,0.2c-2.7,0-8.9,0-8.9,0l3.4-14.4
		h-3.2l-4,17.4c0,0,6.8-0.2,10.6-0.2c0.7,0,4.5-0.1,6.8-0.8c6.3-2,12.1-7,13.5-13C42.2,15.6,37.3,9.8,29.3,9.4z"/>
</g>
</svg>
