<svg viewBox="0 0 376 366" xmlns="http://www.w3.org/2000/svg">
<path d="M6.92193 185.324L124.808 272.945C124.995 272.945 124.995 273.131 125.182 273.131L168.899 305.501C172.636 308.292 177.867 305.687 177.867 301.036L178.054 59.7517C177.68 55.4729 177.119 51.0081 176.185 46.7294C175.251 42.6366 173.943 38.7299 172.075 35.3813C175.251 59.0075 161.8 86.5404 139.007 104.586C133.963 108.678 127.05 113.143 119.391 116.306C111.17 119.84 86.3225 128.398 86.3225 128.398L11.4057 155.373C-1.48519 160.023 -4.10074 177.138 6.92193 185.324Z"/>
<path d="M123.874 114.257C124.061 114.071 124.435 114.071 124.621 113.885C124.995 113.699 125.369 113.513 125.929 113.141C126.49 112.955 126.863 112.583 127.424 112.396C127.611 112.21 127.984 112.024 128.171 112.024C128.732 111.652 129.479 111.28 130.039 110.908C130.226 110.722 130.413 110.722 130.6 110.536C131.16 110.164 131.721 109.792 132.468 109.42C132.842 109.234 133.029 109.048 133.402 108.862C133.776 108.49 134.336 108.304 134.71 107.932C135.27 107.56 135.831 107.002 136.578 106.629C136.765 106.629 136.765 106.443 136.952 106.443C137.699 105.885 138.446 105.327 139.194 104.769C161.986 86.7239 175.438 59.1911 172.262 35.5649C170.954 33.3325 169.273 31.2861 167.404 29.7979L128.545 1.1488C124.808 -1.64169 119.39 0.962768 119.39 5.61359V73.1435C119.39 115.559 86.3223 128.395 86.3223 128.395C86.3223 128.395 111.357 120.024 119.39 116.489C120.885 115.745 122.379 115.001 123.874 114.257Z"/>
<path d="M368.893 180.678L250.931 93.0563C250.744 93.0563 250.744 92.8703 250.557 92.8703L206.812 60.5006C203.073 57.7101 197.839 60.3146 197.839 64.9654V306.249C198.213 310.528 198.774 314.993 199.708 319.272C200.643 323.364 201.952 327.271 203.821 330.62C200.643 306.994 214.103 279.461 236.91 261.416C241.958 257.323 248.875 252.858 256.539 249.696C264.578 246.161 289.628 237.79 289.628 237.79L364.593 210.815C377.492 205.978 379.922 188.863 368.893 180.678Z"/>
<path d="M252.051 251.744C251.864 251.93 251.49 251.93 251.303 252.116C250.93 252.302 250.556 252.488 249.995 252.86C249.434 253.046 249.06 253.418 248.499 253.604C248.312 253.79 247.938 253.976 247.752 253.976C247.191 254.348 246.443 254.72 245.882 255.092C245.695 255.278 245.508 255.278 245.321 255.464C244.76 255.836 244.2 256.208 243.452 256.581C243.078 256.767 242.891 256.953 242.517 257.139C242.143 257.511 241.582 257.697 241.208 258.069C240.648 258.441 240.087 258.999 239.339 259.371C239.152 259.371 239.152 259.557 238.965 259.557C238.217 260.115 237.47 260.673 236.722 261.231C213.915 279.276 200.455 306.809 203.633 330.435C204.941 332.668 206.624 334.714 208.493 336.202L247.191 364.851C250.93 367.642 256.351 365.037 256.351 360.387V292.857C256.351 250.627 289.44 237.605 289.44 237.605C289.44 237.605 264.39 245.977 256.351 249.511C255.042 250.255 253.547 251 252.051 251.744Z"/>
</svg>
