<svg
   xmlns="http://www.w3.org/2000/svg"
   viewBox="0 0 141.7 141.7">
<path
   d="m 120.43223,13.495128 c 3.84905,0.481132 7.85848,0.801886 11.70753,1.443395 7.53772,1.443394 10.10376,5.292445 8.82074,12.990547 -0.32075,2.886788 -2.56603,5.132068 -5.45282,5.613199 -1.76415,0.320755 -3.68868,0.481132 -5.45282,0.320755 -25.01884,0 -49.877287,0.160377 -74.896119,0.160377 -3.688674,0 -7.537725,0.320754 -11.226399,0.962263 -12.349039,1.924525 -17.160353,7.056593 -18.122616,19.566009 -0.481131,5.773577 -0.481131,5.773577 5.452822,5.773577 h 99.433812 c 0.96227,0 1.92453,0 2.88679,0 1.60377,0 3.04717,0.481131 4.49056,1.283017 4.49056,2.886788 3.36792,7.537725 3.20754,11.70753 -0.16037,3.36792 -2.24528,5.292446 -5.77357,5.933954 -1.4434,0.320754 -2.88679,0.320754 -4.49056,0.320754 -33.999949,0 -67.9999,0 -101.999851,0 -3.688674,0 -3.688674,0 -3.36792,3.688674 0.160377,3.36792 0.481131,6.73584 1.283017,10.103759 1.603771,6.094331 5.292445,9.943382 11.547153,11.707532 6.73584,1.92453 13.792433,2.24528 20.68865,2.40566 24.216946,0 48.594261,0 72.971591,0 3.04716,0 5.93395,0.32075 7.85848,3.20754 3.04716,4.81131 1.44339,11.06602 -3.36792,14.11319 -0.64151,0.48113 -1.28302,0.80188 -2.0849,0.96226 -5.29245,1.76415 -10.74527,2.0849 -16.35847,2.24528 -22.933927,0.48113 -45.707479,0.48113 -68.481032,0 -7.056593,-0.16038 -14.113187,-0.96226 -21.009404,-2.40566 C 12.498424,122.23082 4.3191906,113.89121 1.5927794,97.532744 0.95127092,93.84407 0.63051662,89.995019 0.14938522,86.145968 V 56.315822 C 0.47013952,53.429033 0.79089382,50.381868 1.111648,47.49508 3.1965507,29.05171 11.536161,19.910214 29.658777,15.740408 36.073862,14.297014 42.809702,13.97626 49.224787,13.334751 Z" />
</svg>