<svg
   xmlns="http://www.w3.org/2000/svg"
   version="1.1"
   viewBox="0 0 81 81">
  <path
     d="M 39.186208,0.02539063 16.846364,15.625 a 9.75,9.75 0 0 0 -3.179688,3.5 16.19,16.19 0 0 0 -0.15039,13.65039 c 0.8,1.71 2.78125,5.089844 2.78125,5.089844 z m 2.660156,0 c 0,0 15.45,22.27921837 28.5,44.44921837 a 22.39,22.39 0 0 1 2.611328,7.560547 12.1,12.1 0 0 1 0,3.628906 c 0.34,-0.63 1,-1.919922 1,-1.919922 a 29.35,29.35 0 0 0 2.669922,-8.548828 52.28,52.28 0 0 0 -0.07031,-9.431641 25.47,25.47 0 0 0 -10,-18.509765 z M 8.0377699,25.333984 c -0.3399999,0.63 -1,1.919922 -1,1.919922 A 29.35,29.35 0 0 0 4.367848,35.804687 52.28,52.28 0 0 0 4.4479262,45.234375 25.47,25.47 0 0 0 14.447927,63.74414 l 24.708984,17.230469 c 0,0 -15.46,-22.279219 -28.5,-44.449219 a 22.39,22.39 0 0 1 -2.6191411,-7.560547 12.1,12.1 0 0 1 0,-3.630859 z M 64.707692,43.134765 41.817067,80.974609 64.156911,65.384765 a 9.75,9.75 0 0 0 3.179687,-3.5 16.19,16.19 0 0 0 0.150391,-13.660156 c -0.8,-1.71 -2.779297,-5.089844 -2.779297,-5.089844 z" />
</svg>
