<svg
   xmlns="http://www.w3.org/2000/svg"
   version="1.1"
   viewBox="0 2.5 37.5 21">
  <path
     d="m 27.683,2.776 c -2.766,0 -5.28,1.126 -7.092,2.938 l -9.769,9.77 h 3.583 l 3.281,-3.282 4.7,-4.7 c 1.407049,-1.4073011 3.315954,-2.1973416 5.306,-2.196 4.137,0 7.508,3.37 7.508,7.508 0,4.138 -3.37,7.509 -7.508,7.509 -2.963,0 -5.517,-1.722 -6.741,-4.22 l -1.87,1.87 c 1.755,2.92 4.946,4.888 8.602,4.888 5.542,0 10.039,-4.497 10.039,-10.038 0,-5.542 -4.489,-10.047 -10.039,-10.047 z M 17.13,19.915 c -1.87969,1.882797 -4.43152,2.939943 -7.092,2.938 C 4.497,22.853 0,18.356 0,12.814 0,7.273 4.497,2.776 10.038,2.776 c 3.656,0 6.847,1.959 8.61,4.88 l -1.869,1.87 c -1.224,-2.498 -3.778,-4.22 -6.74,-4.22 -4.138,0 -7.517,3.37 -7.517,7.508 0,4.138 3.37,7.509 7.508,7.509 2.073,0 3.942,-0.841 5.305,-2.196 l 4.7,-4.7 3.281,-3.281 H 26.9 l -9.769,9.769 z" />
</svg>
