<svg
   xmlns="http://www.w3.org/2000/svg"
   viewBox="0 0 400 400">
  <path
     d="m 134.74498,37.542978 c -8.17202,-0.02707 -16.02379,0.127642 -21.69823,0.496578 -3.4959,0.226612 -8.59358,0.677913 -11.32951,1.001249 -2.735916,0.324718 -8.375382,0.959558 -12.533153,1.414163 -12.33099,1.347234 -13.148989,2.260461 -8.234004,9.15968 0.758597,1.06397 1.444677,2.032099 1.52482,2.150932 0.08152,0.118833 0.524924,-0.09493 0.985056,-0.477685 0.615735,-0.511765 0.62491,-0.832733 -0.08096,-1.751512 1.477245,1.077837 3.64234,1.399883 5.726822,0.539757 0.182574,-0.07538 0.547751,-0.146979 1.060611,-0.215903 0.211813,0.189355 0.850333,0.307662 1.813585,0.307662 1.215965,0 2.365134,-0.249259 2.553056,-0.553251 0.01698,-0.02746 0.01731,-0.0524 0.0216,-0.07827 13.417837,-0.761901 48.107037,-0.884869 56.107757,0.04318 9.93913,1.152403 16.21691,2.36243 17.71752,3.413964 0.79453,0.555475 1.60394,0.893968 1.79739,0.750263 0.19345,-0.142324 0.26431,-0.131917 0.15653,0.02699 -0.10916,0.158905 1.19608,1.731844 2.9012,3.492229 1.70373,1.760386 4.09255,4.987404 5.30851,7.173369 1.48267,2.664276 2.59784,3.998825 4.97117,4.830835 -0.98663,-0.249231 -1.71047,-0.417214 -2.03489,-0.40482 -0.45236,0.01727 -0.41887,0.293324 -0.33734,0.847418 0.19759,1.341706 4.74828,2.757062 7.34879,2.285875 1.76177,-0.31919 9.20948,0.644116 11.05692,1.430348 1.84744,0.786232 9.35242,1.599257 9.88026,1.071417 0.28188,-0.281882 -0.41761,-0.636129 -1.65706,-0.842014 -1.18004,-0.196212 -2.76733,-0.589757 -3.52731,-0.874403 -0.13118,-0.04896 -0.33205,-0.102638 -0.49387,-0.153833 1.59696,0.341092 3.28967,0.672774 4.63921,0.871708 0.83394,0.122923 1.76364,0.316593 2.67179,0.531653 -0.12385,0.07648 -0.0105,0.210625 0.36974,0.456098 0.97669,0.630878 2.09658,0.692533 2.00519,0.191611 0.45273,0.146814 0.85655,0.292191 1.16588,0.429111 2.36007,1.046007 5.67285,1.40169 5.67285,0.609931 0,-0.160756 0.44505,-0.516826 1.00934,-0.893306 -1.10336,0.80805 -1.32625,1.613365 -0.49657,2.12664 0.64114,0.395189 7.59926,-4.415058 8.31226,-5.745711 0.28741,-0.538893 1.42999,-2.065869 2.53956,-3.392376 2.20117,-2.636433 2.60705,-7.648054 0.76375,-9.445747 -1.37071,-1.337562 -4.56365,-3.581117 -7.15448,-5.027839 -1.36796,-0.762741 -3.6059,-2.011609 -4.97386,-2.774351 -2.52728,-1.410796 -12.05332,-4.820032 -13.46965,-4.820032 -0.42559,0 -2.60582,-0.590256 -4.84431,-1.314308 -2.23987,-0.72267 -5.93787,-1.614738 -8.2178,-1.980909 -2.27994,-0.366171 -5.26296,-0.88965 -6.63092,-1.160478 -1.36796,-0.270829 -4.97548,-0.7733 -8.0154,-1.1146 -3.03991,-0.342681 -7.26923,-0.852988 -9.39717,-1.133489 -6.82253,-0.903338 -21.33464,-1.452701 -34.95468,-1.497827 z m -14.30625,1.991705 c -3.27818,0.157744 -6.45963,0.334556 -9.05444,0.520866 2.6987,-0.202414 5.77973,-0.373669 9.05444,-0.520866 z m 45.39897,0.995852 c 0.92169,0.0685 1.90382,0.155867 2.75816,0.213204 1.32784,0.08947 2.75588,0.206456 4.1993,0.340046 -1.35157,-0.123741 -2.6871,-0.230597 -3.92403,-0.313058 -0.90756,-0.0605 -2.02333,-0.163012 -3.03343,-0.240192 z m -71.14,0.782647 c -4.832935,0.01276 -9.000462,0.92038 -11.286324,2.277776 2.070236,-1.409139 5.969186,-2.264399 11.286324,-2.277776 z m 26.91769,7.788697 c -7.59978,0.02625 -14.06704,0.148219 -14.37103,0.272576 -0.30399,0.124363 -5.02914,0.576915 -10.500978,1.006648 -5.471843,0.428351 -10.641697,1.050152 -11.488727,1.381778 l -1.541015,0.604528 1.360195,2.437004 c 3.062021,5.484279 6.007862,9.181268 7.316406,9.181268 0.18654,0 1.159809,0.683441 2.167126,1.519417 1.005934,0.835976 2.374268,1.898536 3.036126,2.361446 1.377633,0.964467 1.339275,1.181434 -1.684028,9.383671 -0.952059,2.583925 -1.937171,5.443667 -2.191418,6.355641 -0.254247,0.911974 -1.001969,3.522457 -1.662459,5.802392 -0.66049,2.279934 -1.459365,5.142371 -1.775792,6.358336 -0.316428,1.215965 -0.918538,3.312233 -1.338598,4.658116 -0.420061,1.34583 -0.766459,3.13518 -0.766459,3.9753 0,0.83874 -0.246564,1.67964 -0.550556,1.86756 -0.303991,0.18792 -0.55325,1.22026 -0.55325,2.29667 0,1.0764 -0.358185,2.74107 -0.793445,3.70003 -0.43526,0.95757 -0.911393,2.86104 -1.060625,4.229 -0.149232,1.36796 -0.672636,4.60024 -1.163167,7.18417 -0.490532,2.58392 -1.105755,6.06547 -1.368293,7.73742 -0.262537,1.67195 -0.886908,5.40275 -1.389875,8.29067 -0.502967,2.88792 -1.160197,6.74469 -1.460042,8.56864 -0.299846,1.82395 -0.69346,4.16291 -0.871709,5.19787 -0.292937,1.68853 -0.218832,1.83665 0.712486,1.42765 0.570675,-0.2501 2.698503,-0.6017 4.725572,-0.77995 4.464526,-0.39242 4.301669,-0.24468 4.655404,-4.25598 0.157523,-1.78664 0.520889,-3.97085 0.806945,-4.85242 0.287383,-0.88158 0.523556,-2.91615 0.523556,-4.52316 0,-1.60562 0.257094,-3.59695 0.572139,-4.42601 0.315046,-0.82769 0.824038,-3.02242 1.130792,-4.87401 1.174512,-7.06917 1.552415,-9.00112 2.447807,-12.48458 0.507113,-1.97595 1.051589,-4.58913 1.206348,-5.80509 0.156141,-1.21597 0.50504,-2.44508 0.77725,-2.73388 0.27221,-0.28879 0.496584,-1.2307 0.496584,-2.09155 0,-0.86085 0.372541,-2.4573 0.828528,-3.54891 0.455987,-1.09022 0.831222,-2.67099 0.831222,-3.51111 0,-0.84012 0.371229,-2.241189 0.825834,-3.111709 0.453223,-0.870521 0.825766,-2.253197 0.828526,-3.07121 0.001,-0.818013 0.25196,-1.639162 0.55595,-1.827084 0.30399,-0.187922 0.55325,-1.055098 0.55325,-1.924237 0,-0.869139 0.35147,-2.283237 0.78534,-3.144085 0.4325,-0.859466 1.07926,-2.68561 1.43576,-4.053571 0.35649,-1.367961 0.84191,-2.867342 1.07682,-3.333001 0.23628,-0.46566 0.60356,-1.64498 0.81773,-2.620529 0.21418,-0.974126 0.62089,-1.913432 0.90139,-2.086154 0.2805,-0.174104 0.51007,-0.718456 0.51007,-1.211751 0,-1.133058 2.04523,-5.406608 2.92818,-6.11546 1.06535,-0.855294 22.33323,-1.942629 29.38168,-1.503223 7.84574,0.490531 8.05388,0.804844 4.6851,7.054628 -0.28465,0.527839 -0.51817,1.443419 -0.51817,2.037584 0,0.594165 -0.24656,1.234343 -0.55055,1.422264 -0.30399,0.187922 -0.55325,0.847721 -0.55325,1.46814 0,0.620418 -0.34507,1.912547 -0.76375,2.871501 -0.42006,0.957573 -1.31997,3.482842 -1.99981,5.61078 -1.19109,3.725275 -1.53742,4.903393 -2.6691,9.119199 -0.28464,1.063969 -1.04553,3.856808 -1.68944,6.207208 -0.64391,2.35041 -1.16988,4.83761 -1.17127,5.52712 -0.003,0.6895 -0.3753,1.96589 -0.82852,2.83641 -0.45461,0.87052 -0.82853,2.53388 -0.82853,3.69734 0,1.16346 -0.21114,2.24835 -0.47229,2.41001 -0.25978,0.16029 -0.61796,1.68464 -0.79345,3.38699 -0.17549,1.70235 -0.55717,3.38664 -0.85011,3.74591 -0.29294,0.35788 -0.65633,1.89671 -0.80695,3.41666 -0.15061,1.51996 -0.69634,5.25076 -1.21175,8.29067 -1.65399,9.75812 -2.99343,18.62638 -3.03073,20.03579 -0.01,0.40072 0.66478,0.69089 1.60577,0.69089 0.89402,0 1.7795,0.24926 1.96742,0.55325 0.18792,0.30399 1.04456,0.55325 1.90264,0.55325 1.87369,0 2.79595,-2.71807 2.79595,-8.2286 0,-1.82257 0.24926,-3.46893 0.55325,-3.65685 0.30399,-0.18792 0.55325,-1.83285 0.55325,-3.65956 0,-1.82533 0.25842,-3.80492 0.57485,-4.39632 0.51954,-0.97139 1.20875,-4.72918 1.97011,-10.73577 0.15337,-1.21596 0.50628,-2.70882 0.78264,-3.3168 0.27635,-0.60799 0.77356,-2.47339 1.1038,-4.14534 0.33163,-1.67195 0.82614,-4.03317 1.10111,-5.24914 0.27498,-1.21596 0.74847,-3.55755 1.05523,-5.20325 0.30675,-1.64708 0.81713,-3.25144 1.13079,-3.5651 0.31504,-0.31505 0.57214,-1.36583 0.57214,-2.33446 0,-0.96863 0.37123,-2.47327 0.82583,-3.34379 0.45323,-0.870523 0.82577,-2.250505 0.82853,-3.068518 0.001,-0.818013 0.25195,-1.641857 0.55594,-1.829779 0.304,-0.187921 0.55325,-1.149529 0.55325,-2.134737 0,-0.985208 0.21509,-2.026765 0.48039,-2.315556 0.26392,-0.288792 0.91594,-2.016429 1.44655,-3.840377 1.40112,-4.816879 2.61085,-8.215861 3.13869,-8.816934 0.25425,-0.288792 0.46149,-0.957738 0.46149,-1.489723 0,-0.530603 0.6218,-2.13634 1.38178,-3.565099 0.75997,-1.43014 1.38178,-3.073752 1.38178,-3.656862 0,-1.10266 9.04458,-1.156204 22.24609,-0.129542 2.35593,0.183776 4.28297,0.228435 4.28297,0.09717 0,-0.392425 -2.53614,-5.04052 -4.12104,-7.551208 -1.70788,-2.705521 -7.33483,-8.328453 -8.33385,-8.328453 -0.3717,0 -0.96459,-0.348899 -1.31971,-0.77725 -0.35512,-0.426969 -1.8165,-0.893946 -3.24664,-1.039032 -1.43014,-0.145087 -5.08613,-0.533432 -8.12605,-0.860913 -12.40837,-1.33618 -20.57798,-1.748533 -33.71593,-1.702934 z m 65.47254,20.972263 c 1.26957,0.186899 2.75331,0.356347 4.56635,0.526264 -0.0949,-0.0031 -0.22027,-0.01523 -0.30766,-0.01619 -1.03205,-0.01181 -2.66903,-0.221527 -4.25869,-0.51007 z m 23.42547,5.400266 c -0.2873,0.01722 -0.43756,0.07341 -0.49387,0.164639 -0.13818,0.223834 0.16349,1.237866 0.67198,2.253473 1.68025,3.350813 1.84328,3.757622 1.84328,4.582544 0,0.45046 0.35028,1.633677 0.77725,2.631321 0.42559,0.999025 1.06839,2.933902 1.42766,4.301863 1.10266,4.210278 2.35213,8.513136 2.80673,9.672448 0.23905,0.607983 0.56174,1.728304 0.71788,2.488274 0.56653,2.74145 1.59728,6.37542 2.07537,7.31641 0.26807,0.52784 0.49631,1.77144 0.50737,2.76356 0.0111,0.99211 0.37576,2.42459 0.80964,3.18457 0.43387,0.75998 0.79858,2.54931 0.80963,3.97531 0.0111,1.42599 0.26815,2.74566 0.57214,2.93358 0.30399,0.18792 0.55056,1.05767 0.55056,1.93233 0,0.87329 0.27159,2.28877 0.60183,3.14409 0.33025,0.85532 0.79729,2.67482 1.03634,4.04278 2.16386,12.33928 1.9923,12.05291 7.20575,12.2201 l 4.14534,0.13224 0.17272,-2.34795 c 0.0953,-1.29196 -0.0726,-2.64309 -0.37243,-3.00375 -0.29847,-0.35925 -0.72093,-2.21155 -0.93649,-4.11564 -0.21556,-1.90409 -0.60779,-3.59497 -0.87171,-3.7594 -0.26392,-0.16305 -0.47768,-1.50893 -0.47768,-2.99296 0,-1.48403 -0.23483,-2.84308 -0.52086,-3.01995 -0.28603,-0.17687 -0.67702,-1.49652 -0.86631,-2.93357 -0.1907,-1.43705 -0.56065,-3.11095 -0.82044,-3.71893 -0.25839,-0.60799 -0.60992,-1.97756 -0.78264,-3.04153 -0.17272,-1.06397 -0.72103,-3.30191 -1.21985,-4.97387 -0.5002,-1.67195 -1.02895,-4.03317 -1.17128,-5.24914 -0.1437,-1.21596 -0.48344,-2.44778 -0.75565,-2.73657 -0.27222,-0.28879 -0.4979,-1.03657 -0.49928,-1.659747 -0.003,-0.623183 -0.3753,-1.844454 -0.82853,-2.714974 -0.4546,-0.87052 -0.82583,-2.251898 -0.82583,-3.068529 0,-0.816631 -0.25584,-1.74017 -0.56675,-2.05107 -0.31227,-0.312282 -0.67171,-1.390525 -0.79883,-2.399224 -0.12851,-1.01008 -0.49446,-2.097539 -0.81503,-2.418112 -0.32057,-0.320572 -0.58295,-1.140464 -0.58295,-1.821681 0,-0.681217 -0.22956,-1.380397 -0.51007,-1.554501 -0.2805,-0.172722 -0.67404,-1.060832 -0.8744,-1.972806 -0.713,-3.244416 -1.8613,-4.828542 -3.74051,-5.157377 -4.44795,-0.778301 -6.53818,-1.079874 -7.40008,-1.028251 z m 67.41567,9.14349 c -0.14629,-0.02953 -0.38759,0.233852 -0.86361,0.763764 -0.53199,0.591402 -0.96886,1.440131 -0.96886,1.886446 0,0.447696 -0.23741,1.052445 -0.52896,1.344 -1.6457,1.645698 -0.27148,14.270022 1.75421,16.103642 0.92717,0.83874 0.98775,0.78929 0.98775,-0.81772 0,-0.94237 0.24656,-1.86586 0.55055,-2.05378 0.6978,-0.43111 0.74223,-13.678111 0.0486,-14.398017 -0.27912,-0.288792 -0.59004,-1.112567 -0.69089,-1.832487 -0.0912,-0.643895 -0.14248,-0.966305 -0.28878,-0.995848 z m -5.50822,1.746112 c -0.27624,0.0011 -0.75032,0.284356 -1.43845,0.825834 -0.77794,0.612128 -1.62543,1.118549 -1.88106,1.122695 -0.25562,0.0055 -1.6711,1.249127 -3.14408,2.763556 -1.47436,1.515811 -2.75728,2.75546 -2.85261,2.75546 -0.67984,0 -8.46001,8.572985 -12.00151,13.224045 -3.00398,3.94636 -2.09323,19.38539 1.14428,19.38539 0.74063,0 5.23437,2.81191 5.51902,3.45444 0.10225,0.228 0.53643,0.41561 0.96616,0.41561 0.43112,0 0.78266,0.19149 0.78266,0.42642 0,0.23489 0.87106,0.8947 1.93503,1.46814 1.06397,0.57342 1.93502,1.25298 1.93502,1.50861 0,0.25563 0.24926,0.4642 0.55325,0.4642 0.34545,0 0.55325,-3.2485 0.55325,-8.63881 v -8.63883 l 3.45445,-3.43285 c 1.89995,-1.88889 4.13789,-3.87362 4.97386,-4.41251 1.68163,-1.0847 1.90801,-2.25939 0.75837,-3.90785 -1.46193,-2.09616 -2.44307,-13.277937 -1.43576,-16.333049 0.55099,-1.670224 0.63851,-2.452366 0.17812,-2.450501 z m -67.37789,50.70749 c -0.82551,0.0709 -1.73452,0.51729 -2.53146,1.38988 -0.76275,0.83598 -2.34227,2.88899 -3.50573,4.56095 -1.16484,1.67195 -2.32842,3.12147 -2.58543,3.22234 -0.25701,0.10226 -0.46689,0.43153 -0.46689,0.73138 0,0.46566 -5.37995,8.36813 -8.03158,11.79909 -2.10998,2.72763 -1.04314,5.80239 2.01059,5.80239 1.01837,0 7.12749,-7.55406 7.12749,-8.81424 0,-0.73234 2.58304,-0.76861 3.03074,-0.0432 0.18378,0.2957 1.13215,0.9175 2.11045,1.38178 0.97829,0.46428 2.45153,1.46652 3.27093,2.2265 1.87093,1.73551 3.19249,1.72642 4.46649,-0.0243 1.26985,-1.74381 1.15823,-1.89956 -4.04278,-5.54331 -4.79892,-3.36325 -5.0699,-4.40132 -1.95123,-7.52691 1.70512,-1.70926 3.61638,-5.19083 3.61638,-6.58504 0,-1.76608 -1.14212,-2.69548 -2.51797,-2.57734 z m 33.25984,5.57299 c -0.22541,0.0202 -0.41793,0.0833 -0.52087,0.18622 -0.81525,0.81525 -0.2558,1.28849 2.48289,2.10235 0.5327,0.15804 1.07059,0.35979 1.58958,0.56945 -3.00311,-1.08837 -7.87286,-1.82385 -11.64796,-1.80009 -1.20178,0.008 -2.2845,0.0956 -3.16838,0.26988 0.22522,-0.17567 0.33629,-0.37229 0.27528,-0.55595 -0.16098,-0.48431 -0.52266,-0.73209 -1.20906,-0.74487 -0.68639,-0.0128 -1.69636,0.20999 -3.15757,0.6639 -1.61393,0.50021 -3.12805,1.46883 -4.04279,2.59084 -0.80419,0.98659 -2.31668,2.75492 -3.36268,3.92943 -1.04463,1.17313 -1.89995,2.37742 -1.89995,2.6745 0,0.29846 -0.49851,1.17473 -1.1065,1.94853 -1.40637,1.78828 -1.51626,3.9531 -0.31305,3.47872 -0.0103,0.006 -0.0222,0.0188 -0.0324,0.0243 -0.71162,0.37999 -1.4318,1.12915 -1.60038,1.65975 -0.16857,0.53199 -0.67104,1.10388 -1.1146,1.27384 -0.44494,0.17134 -0.80694,0.6908 -0.80694,1.15508 0,0.24361 -0.21241,0.90536 -0.53167,1.73802 0.71138,-2.02289 0.27,-2.54766 -1.37907,-2.54766 -0.0898,0 -0.96608,1.92974 -1.94853,4.28567 -2.73592,6.57036 -2.91766,11.3041 -0.54515,14.2307 0.98659,1.21597 2.51619,3.78193 3.39778,5.69984 0.88019,1.91791 2.32451,4.48506 3.20885,5.70793 0.88572,1.22149 1.90627,3.13411 2.26968,4.25059 0.36203,1.11509 1.48366,2.95171 2.49097,4.07786 1.0087,1.12615 2.34411,3.04793 2.96867,4.27218 1.72032,3.37154 3.6575,4.13087 10.19331,3.9996 5.1942,-0.105 7.26887,-0.68326 6.61744,-1.83788 0.005,0.007 0.0174,0.0121 0.0216,0.0189 0.1603,0.25775 0.82587,0.47728 1.62737,0.56675 -1.10401,0.42045 -1.33409,2.69715 -2.19951,10.27698 -0.1741,1.51996 -0.54138,2.99833 -0.81774,3.28713 -0.27635,0.28879 -0.50197,1.24776 -0.50197,2.12933 0,0.88019 -0.35028,2.38484 -0.77725,3.34379 -0.42835,0.95758 -1.22329,2.98433 -1.76771,4.50428 -1.09437,3.05097 -2.91626,6.56928 -5.15197,9.94773 l -1.46275,2.213 -7.9938,0.27528 -7.9965,0.27528 -0.16193,2.213 c -0.45737,6.21524 -6.17578,11.81282 -9.70484,9.49972 -1.23807,-0.8111 -3.12663,-6.53256 -3.12249,-9.46194 0.001,-0.58588 -0.23345,-1.82948 -0.52086,-2.76356 -0.28741,-0.9327 -0.92364,-3.19039 -1.41417,-5.01434 -0.48915,-1.82394 -1.12544,-3.74703 -1.41147,-4.27487 -0.28741,-0.52784 -0.52086,-1.33852 -0.52086,-1.8028 0,-0.46427 -0.23609,-1.27764 -0.52627,-1.80548 -0.28879,-0.52784 -0.94338,-1.95511 -1.45463,-3.17107 -2.57426,-6.12543 -7.58565,-15.19684 -8.64962,-15.65836 -0.23352,-0.10225 -0.42371,-0.43021 -0.42371,-0.72868 0,-0.48777 -2.16747,-3.64534 -3.59208,-5.23024 -0.30399,-0.33853 -1.42431,-1.67137 -2.48828,-2.96057 -1.71203,-2.07543 -5.55557,-5.92794 -12.34424,-12.37393 -1.16622,-1.10681 -2.28918,-2.0133 -2.49368,-2.0133 -0.20589,0 -1.05199,-0.63101 -1.88106,-1.40066 -4.74088,-4.39544 -19.95204,-12.38422 -28.87971,-15.16988 -2.12794,-0.66464 -4.73842,-1.48453 -5.80239,-1.82169 -3.94394,-1.24894 -20.04702,-2.98892 -26.032483,-2.96055 -0.855072,0.004 -1.503831,0.0439 -1.881056,0.12683 -0.607983,0.13403 -3.840266,0.47774 -7.18417,0.76376 -7.384223,0.63424 -11.487801,1.24395 -14.233395,2.11585 -1.139967,0.36203 -3.005368,0.92219 -4.145335,1.24414 -1.986997,0.56239 -4.593639,1.53163 -8.150335,3.02534 -0.911974,0.38275 -3.026634,1.26955 -4.698586,1.97011 -1.671952,0.70056 -4.598602,2.21832 -6.504075,3.37349 -1.905472,1.15516 -3.583317,2.09965 -3.727022,2.09965 -1.361052,0 -12.702926,9.10412 -18.241094,14.64091 -5.126398,5.12363 -4.998173,4.77113 -2.636714,7.20306 1.964889,2.02292 2.05261,2.28054 2.102354,6.07767 0.05113,3.88832 0.09651,4.00923 2.369534,6.30436 2.592217,2.61847 2.68052,4.22291 0.350842,6.38263 -0.68398,0.63423 -2.361762,3.25914 -3.729722,5.83478 -2.550763,4.80444 -4.575845,5.96291 -6.703784,3.83497 -0.834594,-0.83459 -4.520034,-0.62616 -5.286921,0.29686 -0.378608,0.45599 -0.96893,0.82846 -1.311611,0.83123 -0.788995,0.004 -2.558448,3.06898 -2.558448,4.43142 0,0.56513 -0.246562,1.18035 -0.550553,1.36827 -3.2305979,1.99667 1.432365,9.58586 6.355642,10.34445 1.44534,0.22247 1.686826,4.15701 0.704382,11.48873 l -0.704382,5.24914 -3.473338,0.86092 c -5.4676971,1.35552 -6.4942935,2.72864 -6.3934237,8.53625 0.1202148,6.93377 2.5665884,9.41697 8.8978967,9.03284 l 3.152182,-0.18892 0.367035,1.93503 c 0.37308,1.96074 0.738971,3.05806 3.063122,9.26224 1.659516,4.43275 1.670978,4.33948 -0.823129,5.61348 -6.18208,3.15321 -6.387293,9.62436 -0.488481,15.24543 1.815657,1.72999 6.986552,2.34035 7.472938,0.87981 0.110542,-0.33163 0.555194,-0.60184 0.990454,-0.60184 0.433879,0 1.2892,-0.3109 1.899946,-0.69088 1.01008,-0.62871 1.554112,-0.22132 6.061473,4.55825 5.817287,6.16826 6.105171,6.8344 4.183117,9.66704 -2.572871,3.7916 -1.129797,11.33761 2.167126,11.33761 0.196213,0 1.170862,0.6218 2.167125,1.38177 3.319031,2.53004 6.740315,1.61599 10.017893,-2.67719 2.074049,-2.71658 1.936087,-2.69535 5.230247,-0.82584 0.455986,0.25841 1.203765,0.6152 1.659752,0.79345 0.455987,0.17687 1.450328,0.58221 2.210306,0.9014 0.759978,0.31919 2.126861,0.89245 3.038835,1.27382 4.735354,1.98009 4.812513,2.04571 4.442196,3.82959 -0.945136,4.5571 -0.930904,5.0701 0.213209,7.00874 1.421849,2.40844 6.401309,4.8956 9.807393,4.8956 3.001222,0 6.320682,-3.1196 7.006044,-6.58234 0.646673,-3.27482 0.893209,-3.36809 8.957268,-3.36809 8.204996,0 9.079256,0.33481 9.113796,3.49494 0.0359,3.15598 4.27671,6.77737 7.36499,6.28546 3.20572,-0.50988 6.68807,-1.68516 7.58899,-2.55845 2.48029,-2.40153 2.734,-3.55965 2.03758,-9.3189 -0.17548,-1.45502 0.0398,-1.59834 8.30146,-5.54331 l 5.69174,-2.71767 1.90805,1.85406 c 1.05015,1.01837 1.90797,2.04425 1.91073,2.27777 0.018,2.20809 6.09555,2.89764 8.61453,0.97696 0.99627,-0.75997 1.99192,-1.38177 2.213,-1.38177 3.17533,0 4.70289,-8.04517 2.15903,-11.38079 -1.9414,-2.54523 -0.64168,-5.0848 5.66476,-11.05961 0.68398,-0.64806 1.24414,-1.36957 1.24414,-1.60309 0,-2.06161 2.37841,-2.42763 5.28153,-0.81233 1.62082,0.9023 3.49149,1.64086 4.15612,1.64086 2.56044,0 7.14369,-4.04516 7.14369,-6.30436 0,-0.48501 0.23483,-0.87981 0.52086,-0.87981 2.44574,0 -0.99186,-8.79372 -3.46524,-8.86281 -2.36422,-0.0677 -4.50917,-6.60097 -2.16982,-6.61203 0.37999,-10e-4 0.69089,-0.48409 0.69089,-1.07411 0,-0.59002 0.24926,-1.22625 0.55325,-1.41417 0.30399,-0.18792 0.55325,-1.17179 0.55325,-2.18601 0,-1.09299 0.32357,-1.96723 0.79614,-2.14824 0.47948,-0.18516 0.86253,-1.24968 0.96617,-2.68258 0.19068,-2.63782 2.6838,-3.56952 5.51091,-2.05648 0.92027,0.4933 1.29581,0.50218 1.45195,0.0324 0.11607,-0.34683 0.51746,-0.63152 0.89331,-0.63152 1.04876,0 4.04669,-2.90173 4.28297,-4.14533 0.2045,-1.0847 0.75539,-1.11095 30.30196,-1.38178 l 30.09416,-0.27797 0.47499,-1.93503 c 3.0026,-12.27987 10.39081,-28.34196 14.74617,-32.05618 0.17825,-0.152 1.18971,-1.3956 2.24539,-2.76356 3.38812,-4.38576 12.04662,-12.20797 15.93633,-14.39532 2.24548,-1.26212 2.39935,-3.61804 0.51276,-6.95746 2.23828,2.63279 5.2505,3.04647 7.86967,0.68008 1.19248,-1.07779 2.85846,-2.10887 3.70273,-2.29127 0.11084,-0.0238 0.3016,-0.0852 0.43451,-0.11875 -0.13634,0.0355 -0.31796,0.0995 -0.43451,0.12416 -0.83818,0.17833 -2.49708,1.20292 -3.70273,2.28586 -0.009,0.008 -0.0183,0.0164 -0.027,0.0243 -1.7438,1.57523 -2.53564,1.93146 -3.85386,1.73802 -1.84053,-0.27083 -2.11467,0.29534 -0.78264,1.62737 0.52231,0.52231 1.02858,0.66187 1.24414,0.34545 0.5914,-0.86638 9.4202,-4.9992 13.90684,-6.50948 l 4.14533,-1.39797 -3.03883,0.0216 c -0.38874,0.003 -0.80393,0.026 -1.21985,0.0621 0.83324,-0.12695 1.69595,-0.2348 2.49638,-0.28877 2.44022,-0.16305 3.99364,-0.54332 4.42061,-1.08221 0.0301,-0.0381 0.0991,-0.0711 0.14033,-0.10795 0.34474,0.34834 2.01125,0.25765 3.28173,-0.28877 0.89124,-0.38276 0.70915,-0.4837 -0.93378,-0.51548 -0.0867,-0.002 -0.16794,0.007 -0.25368,0.008 2.03686,-0.43123 5.28594,-0.66867 9.07331,-0.72597 -0.027,0.0195 -0.0926,0.0363 -0.10525,0.0567 -0.16443,0.26668 0.87712,0.37165 2.31555,0.2321 1.01814,-0.0987 1.74431,-0.187 2.26159,-0.26719 3.81234,0.0855 7.88248,0.32751 11.79909,0.77185 -0.0701,0.0747 -0.11335,0.18092 -0.11335,0.33466 0,0.89677 3.4739,3.97261 4.48539,3.97261 1.01565,0 1.24085,-0.14747 0.47497,-0.99046 l 1.06603,0.98776 1.91345,-4.005 c 0.88218,-1.8492 1.60484,-3.89377 2.11314,-5.80779 -0.0948,1.46186 0.90494,0.56893 3.97261,-2.83102 l 2.59083,-2.87151 c -0.0513,0.32473 0.20167,0.47008 0.75027,0.25908 0.46013,-0.17687 1.16825,0.27513 1.70024,1.08761 0.533,0.81346 1.19556,1.1461 1.70562,1.04984 -0.0557,0.05 -0.10602,0.10838 -0.16462,0.15112 -0.97278,0.71162 -0.72707,1.6229 1.5653,5.7862 0.0956,0.17407 0.30398,0.62155 0.4399,0.8906 -0.20736,-0.30466 -0.39644,-0.54567 -0.52626,-0.62612 -0.0345,-0.0213 -0.0589,-0.0286 -0.0756,-0.0189 -0.11695,0.0679 0.19188,0.86382 0.76375,1.93504 0.65358,1.22564 1.27019,2.14787 1.36829,2.04838 0.0169,-0.0169 0.004,-0.0783 0.005,-0.11875 0.32652,0.71155 0.65242,1.40588 0.96348,2.11315 0.40873,0.93165 1.2524,2.16688 1.93772,2.8715 -0.0665,-0.0194 -0.16048,-0.0554 -0.2051,-0.0594 -0.29121,-0.0258 -0.12186,0.30555 0.52896,1.31701 2.16525,3.3674 2.34796,3.56011 2.75006,2.9093 0.21555,-0.34959 -0.13209,-1.1222 -0.77185,-1.71913 -0.40387,-0.37601 -0.74325,-0.78164 -0.95267,-1.1038 1.60542,1.61633 2.03053,2.32592 1.72722,2.81752 -9.3e-4,0.002 -0.002,0.004 -0.003,0.005 -0.20669,0.35473 0.49557,1.47178 1.60308,2.54765 1.09299,1.06121 1.98631,2.1671 1.98631,2.45589 0,2.67236 6.25083,-4.53603 8.6496,-9.97471 1.48126,-3.35772 1.84481,-4.53895 1.54911,-5.01705 -0.17272,-0.2805 -0.0822,-0.51007 0.19971,-0.51007 1.51581,0 2.55902,-9.33414 1.49782,-13.40486 -0.91474,-3.5111 -2.7932,-5.65862 -19.43395,-22.21371 -15.67352,-15.59198 -14.08773,-14.45746 -24.79375,-17.73642 -2.73592,-0.83874 -6.71598,-2.07312 -8.84392,-2.74467 -7.40357,-2.33797 -10.05464,-3.04153 -11.48063,-3.04153 -0.789,0 -2.13764,-0.27421 -2.99296,-0.60722 -3.18915,-1.24498 -21.68088,-4.78186 -31.40307,-6.0075 -2.12794,-0.26807 -5.36022,-0.7548 -7.18417,-1.07952 -2.50033,-0.44493 -4.77905,-0.64127 -6.43391,-0.59912 -1.65486,0.0421 -2.68529,0.32273 -2.68529,0.83122 0,0.62318 0.66783,0.83122 2.68799,0.83122 h -2.68799 v 12.6762 12.6762 l 0.99046,0.0972 c -0.56878,0.38778 -0.99046,1.19624 -0.99046,2.42621 0,1.3873 0.20066,2.52336 0.448,2.52336 0.24596,0 1.00552,0.51815 1.68674,1.15239 1.03708,0.96586 2.05528,1.08198 2.47749,0.55325 0.11211,1.3114 0.20495,2.90426 0.28337,4.77954 -0.01,-0.41066 -0.0288,-0.82007 -0.0837,-1.10381 -0.0328,-0.16995 -0.0662,-0.2543 -0.0944,-0.26177 -0.0847,-0.0224 -0.14075,0.64932 -0.13764,1.78929 0.004,1.51996 0.11037,2.07616 0.2375,1.23604 0.0596,-0.3948 0.0861,-0.88284 0.0891,-1.35479 0.10896,2.69071 0.19591,5.96474 0.27528,10.02599 -0.007,0.37443 -0.0192,0.65261 -0.0189,1.14699 0.002,1.56587 0.0454,2.41768 0.10525,2.54225 0.078,3.67008 0.16562,7.82884 0.19161,8.10986 0.0981,1.04877 2.8024,1.94126 3.67845,1.21445 0.45599,-0.37861 0.83295,-0.3954 1.04712,-0.0486 0.18378,0.29708 0.0802,0.69853 -0.23208,0.8906 -0.31919,0.19759 0.5764,1.55423 2.06457,3.11979 1.44672,1.52272 2.72957,3.06017 2.85531,3.41667 0.21801,0.62307 0.46705,1.19341 0.73407,1.72722 -1.12022,-1.53908 -2.58223,-3.23966 -4.39092,-5.09802 -5.19272,-5.33504 -5.91911,-4.97602 -6.12085,3.00375 -0.11054,4.40235 -0.37455,6.34509 -0.91758,6.79555 -1.94693,1.6153 -16.14693,2.80153 -21.03704,1.7569 -1.51996,-0.32472 -3.72378,-0.73926 -4.8983,-0.92028 -4.08868,-0.63285 -4.90203,-2.17199 -4.68509,-8.87361 0.18101,-5.56995 0.13897,-5.81725 -1.01205,-6.10466 -0.3601,-0.0902 -0.66615,-0.16667 -0.94997,-0.22669 0.98543,-0.0394 1.28508,-0.18986 0.83393,-0.47499 -0.0638,-0.0405 -0.0871,-0.0714 -0.13494,-0.10794 0.17588,0.0269 0.40975,0.0438 0.76105,0.0459 0.83598,0.004 1.51942,-0.24116 1.51942,-0.54515 0,-0.34959 -0.28151,-0.52357 -0.69899,-0.52357 -0.18254,0 -0.39871,0.0467 -0.62072,0.11335 0.79461,-0.42049 0.77704,-1.67838 0.57754,-11.08121 -0.0384,-1.78467 -0.0543,-3.40454 -0.054,-4.8902 0.0613,6.37501 0.3024,14.96762 0.53706,15.20226 0.14232,0.1437 0.25908,-4.88061 0.25908,-11.16218 0,-8.86929 -0.0609,-11.4569 -0.41292,-11.25664 -0.0169,0.01 -0.0383,0.0506 -0.0567,0.0729 0.0172,-0.0706 0.0328,-0.17462 0.0513,-0.22131 0.30676,-0.76965 0.73962,-1.89919 0.96346,-2.50717 0.10038,-0.2726 0.38162,-0.92779 0.58834,-1.43305 0.095,0.34009 0.54474,0.32075 1.35479,-0.0486 1.33065,-0.60522 1.38178,-0.82271 1.38178,-5.79158 0,-3.6669 0.0238,-4.98359 -0.35893,-4.9118 -0.19823,0.0372 -0.53725,0.4979 -1.01475,1.14699 1.86089,-2.69919 2.17135,-19.84669 0.36433,-21.48234 0.95862,0.86756 1.00935,0.80466 1.00935,-1.28192 v -2.19411 l -2.62592,-0.12145 c -1.44396,-0.0677 -3.01684,-0.24222 -3.49493,-0.38593 -0.23905,-0.0718 -0.49787,-0.0958 -0.72327,-0.0756 z m -13.70443,2.13745 c -1.12825,0.43505 -2.07814,0.83917 -2.73657,1.22525 0.77255,-0.48672 1.69509,-0.90263 2.73657,-1.22525 z m 17.38827,0.77454 c 0.25498,0.10533 0.50157,0.20768 0.73137,0.31576 -0.23545,-0.10643 -0.46134,-0.21483 -0.73137,-0.31576 z m -20.12754,0.45071 c -0.15398,0.0903 -0.28358,0.1838 -0.41832,0.27528 0.13181,-0.0946 0.27579,-0.18544 0.41832,-0.27528 z m -5.54331,6.4285 c -0.7955,1.03515 -1.5773,2.22877 -1.94312,2.99566 -0.0365,0.0765 -0.0932,0.15457 -0.13495,0.23209 0.0503,-0.0941 0.11231,-0.18788 0.15653,-0.28068 0.35596,-0.74606 1.13046,-1.92055 1.92154,-2.94707 z m -118.063783,0.29686 c -1.691214,0.002 -3.359172,0.0365 -4.963071,0.10796 -3.057876,0.13542 -4.007696,0.37017 -4.007696,0.98506 0,0.1712 0.111993,0.30515 0.412916,0.41291 -0.248526,6.3e-4 -0.567012,-0.006 -0.793444,-0.003 -2.201671,0.0289 -3.317609,0.17167 -2.563849,0.4615 0.142669,0.0549 0.17825,0.10721 0.121445,0.15652 -0.192109,-0.0541 -0.637884,-0.0875 -1.322404,-0.0837 -1.215964,0.006 -1.648889,0.11833 -0.960764,0.25098 0.248554,0.048 0.549506,0.0581 0.842014,0.0702 -0.367124,0.0234 -0.785181,0.0411 -1.263028,0.0486 -5.033819,0.076 -5.446127,0.14293 -5.734919,0.896 -0.05405,0.14045 -0.351151,0.29435 -0.739473,0.4453 0.904209,-0.43706 1.075964,-1.10311 0.782654,-2.23459 -0.106743,-0.41142 -0.215337,-0.60107 -0.277973,-0.51817 -0.02088,0.0276 -0.03691,0.0853 -0.04589,0.17542 -0.03454,0.36203 -1.186339,0.82505 -2.558445,1.03093 -1.372106,0.20589 -2.628751,0.59555 -2.795946,0.86361 -0.165813,0.26945 -0.847997,0.50035 -1.514014,0.51278 -0.666018,0.0124 -2.951175,0.64345 -5.079114,1.40067 -2.127938,0.75721 -5.118928,1.72403 -6.644411,2.14824 -7.75454,2.15142 -25.025776,12.08799 -32.110154,18.47318 -1.555882,1.40251 -4.125729,3.66798 -5.710632,5.03594 -13.7929099,11.9054 -17.9709117,23.52931 -9.059823,25.20126 4.148099,0.77794 12.908531,-5.99558 10.422711,-8.05858 -0.413262,-0.34273 -0.738871,-0.32185 -1.179369,0.12955 0.318288,-0.36752 0.589215,-0.62707 0.663901,-0.55325 0.11607,0.11745 2.89448,-2.41573 6.174822,-5.62698 3.280342,-3.21263 7.324613,-6.82799 8.989656,-8.03428 1.665042,-1.20629 3.154016,-2.33827 3.306012,-2.52067 0.555475,-0.66601 11.894996,-7.72122 12.409018,-7.72122 1.092987,0 6.917678,-3.24837 6.31246,-3.51923 -0.418679,-0.1879 -0.225791,-0.20747 0.426408,-0.0486 0.685362,0.16858 1.553441,-0.0799 2.059177,-0.58564 0.480859,-0.48085 1.191895,-0.82323 1.578793,-0.76105 0.718524,0.11745 0.937357,0.0602 4.29646,-1.1281 3.508335,-1.2436 5.762403,-1.78879 9.138087,-2.213 1.83362,-0.23076 3.868206,-0.70563 4.523169,-1.05522 0.653581,-0.35097 2.942759,-0.63692 5.084516,-0.63692 2.143138,0 5.600969,-0.29522 7.688836,-0.65311 2.682032,-0.46012 5.206196,-0.49584 8.592937,-0.12414 2.83679,0.31228 5.15593,0.32664 5.67825,0.0351 0.13575,-0.0761 0.27544,-0.13035 0.4264,-0.17002 -0.28518,0.096 -0.56915,0.21939 -0.78534,0.35894 -0.60246,0.38966 -0.14762,0.53436 1.65975,0.53436 1.80246,0 2.25485,-0.14438 1.65975,-0.53167 1.08547,0.29019 2.49385,0.71071 4.85242,1.45735 1.30301,0.41177 3.33891,0.75027 4.52586,0.75027 1.18833,0 2.29681,0.22035 2.464,0.49118 0.1672,0.26944 1.11431,0.6132 2.10504,0.76105 1.81013,0.26945 4.84428,1.24619 6.63092,2.13743 0.52784,0.26254 1.20607,0.48039 1.50593,0.48039 0.29985,0 1.85559,0.59421 3.45984,1.32241 3.85931,1.75071 4.98627,2.1046 4.57175,1.43305 -0.0508,-0.0826 -0.0466,-0.15715 -0.008,-0.22669 0.009,0.39046 1.10707,1.1756 3.48413,2.55575 3.57604,2.07543 6.10301,3.55934 8.53356,5.01435 3.07998,1.8419 11.74216,9.07415 15.38038,12.83812 3.20158,3.31212 4.00612,4.20855 6.60663,7.38387 1.66919,2.03813 2.21031,2.15023 2.21031,0.45341 0,-0.89475 0.87673,-2.33023 1.95932,-3.56241 -2.62728,3.13135 -2.45708,7.42196 0.36973,8.61992 0.23767,0.10225 0.4345,0.43022 0.4345,0.72868 0,0.29847 0.60349,1.33613 1.3386,2.30476 1.1676,1.53653 4.91179,8.2124 6.63902,11.83957 0.32471,0.68122 0.79037,1.24138 1.03633,1.24414 0.24596,0.003 0.3155,0.22054 0.15383,0.48308 -0.16305,0.26254 0.16622,1.4445 0.73137,2.62592 1.52962,3.19329 5.49448,16.09248 5.90764,19.21806 0.55271,4.17712 0.92267,5.86716 1.28193,5.86716 0.12914,0 0.43249,0.16719 0.77454,0.38862 -0.14702,-0.0527 -0.28125,-0.0872 -0.39132,-0.0971 -0.20881,-0.0188 -0.33735,0.0399 -0.33735,0.18082 0,0.26775 0.38093,0.57741 0.81503,0.79614 -0.19682,-0.005 -0.21122,0.0916 0.0135,0.31036 0.97277,0.9479 3.89446,1.01247 3.31411,0.0729 -0.0322,-0.0521 -0.0305,-0.11615 -0.0432,-0.17541 0.55386,0.30352 3.08471,-1.3404 3.08471,-2.04299 0,-0.15074 -0.0303,-0.26142 -0.081,-0.34545 0.54617,-0.0608 1.13631,-0.12668 1.3251,-0.14843 0.228,-0.0249 0.41561,-0.52727 0.41561,-1.11729 0,-0.59002 0.24657,-1.22894 0.55056,-1.41686 0.93579,-0.57815 0.64392,-4.97082 -0.39942,-6.666 0.37551,0.50472 0.74909,0.71188 1.06602,0.51547 0.29984,-0.18516 0.42055,-0.98923 0.26718,-1.78931 -0.76413,-3.9947 -3.23788,-12.92217 -4.2452,-15.3237 -3.33838,-7.95351 -7.34593,-15.94388 -8.84931,-17.63656 -0.53889,-0.60798 -1.62511,-2.39198 -2.41272,-3.96721 -0.78762,-1.57385 -1.69019,-3.0222 -2.0025,-3.21427 -0.31227,-0.19344 -1.89951,-2.01287 -3.53,-4.04547 -8.75633,-10.91467 -20.73914,-21.32188 -30.97398,-26.9015 -2.4872,-1.35414 -5.12389,-3.10548 -5.86176,-3.88894 -1.51719,-1.6153 -4.52741,-3.06425 -10.33365,-4.97387 -2.19426,-0.72129 -4.4322,-1.5307 -4.97386,-1.79739 -0.40521,-0.20001 -1.00089,-0.31786 -1.49783,-0.31307 -0.16564,0.002 -0.3204,0.0185 -0.45339,0.0486 -0.53199,0.12159 -0.96229,0.38785 -0.95538,0.59373 0.005,0.18361 1.11832,0.76222 2.4586,1.39798 -4.43461,-2.09488 -9.42858,-3.7169 -10.16632,-3.26014 -0.0454,0.0278 -0.27737,0.0132 -0.448,0.0135 0.37449,-0.12541 0.29712,-0.45835 0.0864,-1.00666 -0.67949,-1.77247 -13.69204,-3.37604 -25.530514,-3.36539 z m 3.127893,1.91345 c 7.39782,0.0314 10.01441,0.26729 15.46674,1.39528 1.17379,0.24259 1.90659,0.3813 2.73927,0.54515 -0.87301,-0.15016 -1.80997,-0.32173 -2.78785,-0.51817 -2.77985,-0.55878 -9.15872,-1.07392 -15.41816,-1.42226 z m -24.297166,1.91344 c -0.07189,0.0247 -0.12675,0.0488 -0.205111,0.0729 0.06943,-0.0242 0.141784,-0.047 0.205111,-0.0729 z m 60.269276,5.12769 c 0.43069,0.17559 0.86751,0.35895 1.26033,0.50737 -0.39535,-0.14571 -0.81219,-0.32309 -1.26033,-0.50737 z m 3.69195,1.23875 c 1.48144,0.0332 3.48983,1.14321 5.11419,2.54494 -1.43625,-1.13697 -3.26595,-2.07385 -5.11419,-2.54494 z m 7.83187,7.02224 c -0.25907,0.5636 -1.29602,1.44872 -2.48829,2.24539 1.18583,-0.7996 2.22525,-1.68754 2.48829,-2.24539 z m 95.09711,3.23044 c -0.0209,0.60435 -0.18576,1.25673 -0.49656,1.92693 0.26693,-0.73288 0.45817,-1.39327 0.49656,-1.92693 z m -61.00065,23.45784 c 0.44367,0 1.13139,0.38475 1.91614,0.97696 -0.67777,-0.32369 -1.34414,-0.48441 -1.98901,-0.46148 -1.03517,0.0368 -2.01465,0.54776 -2.92009,1.50053 1.05566,-1.12466 2.23907,-2.01601 2.99296,-2.01601 z m 189.43588,0.17273 c -4.47766,0.26253 -8.10387,0.94537 -10.61163,1.94043 -0.20585,0.0817 -0.39233,0.16784 -0.58293,0.25368 0.18893,-0.0864 0.37877,-0.17162 0.58293,-0.25368 2.48662,-0.99946 6.08833,-1.67564 10.61163,-1.94043 z m -25.80039,0.4615 c -0.0433,0.075 -0.0919,0.13121 -0.12954,0.22939 -0.1976,0.51402 -0.0507,1.78778 0.32654,2.83103 0.0235,0.065 0.0325,0.1202 0.054,0.18351 -0.83836,-1.60914 -0.82948,-2.82413 -0.25099,-3.24393 z m 2.26157,0.67198 c 0.86223,0.72267 2.40099,1.49397 3.41936,1.71643 0.50806,0.1107 0.83,0.22128 1.06334,0.33735 l -1.13079,-0.32115 c -1.07226,-0.30399 -2.40898,-0.95075 -2.97138,-1.43575 -0.15707,-0.13573 -0.24108,-0.18224 -0.38053,-0.29688 z m 22.88032,0.4588 c 2.32922,-0.0511 4.31032,0.24406 5.18705,0.97157 1.12201,0.92993 1.15796,7.70943 0.0567,10.80324 -2.98325,8.38601 -8.03968,15.7038 -8.03968,11.63446 0,-0.44079 -0.32269,-1.00095 -0.71787,-1.24414 -4.32083,-2.65854 -10.09735,-17.5721 -7.51342,-19.40158 2.29893,-1.6279 7.14519,-2.67834 11.02724,-2.76355 z m -24.59674,3.42207 c 0.0656,0.55959 0.0576,1.14528 -0.0567,1.85136 0.0777,-0.70604 0.0947,-1.32448 0.0567,-1.85136 z m 6.94667,0.77184 c -0.58142,0.0529 -1.30506,0.43318 -2.14553,1.15239 -3.24303,2.776 -7.19813,8.70868 -8.61722,12.92448 -0.24872,0.73787 -0.94244,0.96617 -2.93359,0.96617 -1.94278,0 -2.94422,0.31696 -3.92943,1.24414 -1.21873,1.14687 -1.98922,1.26702 -9.98281,1.55719 -8.42746,0.30676 -15.30818,1.24656 -16.37353,2.2373 -0.28879,0.26806 -1.07583,0.48848 -1.75152,0.48848 -0.67431,0 -1.93239,0.35812 -2.79323,0.79614 -0.85947,0.43664 -2.43497,1.16335 -3.50033,1.61657 -1.06397,0.45322 -3.05265,1.30459 -4.42061,1.89185 -2.40844,1.03219 -9.94136,5.43241 -10.50098,6.13435 -0.15199,0.19068 -1.26961,1.08268 -2.48558,1.9836 -7.64676,5.66667 -16.24602,16.50142 -20.18962,25.43876 -6.16964,13.98498 -6.38362,15.75281 -1.90804,15.75281 2.26473,0 3.59077,0.33865 5.14389,1.31971 1.14964,0.72543 2.57425,1.4194 3.16568,1.541 0.69089,0.14232 1.02629,0.60572 0.93647,1.30351 -0.0774,0.59693 -0.39744,3.19563 -0.71248,5.77541 -0.66049,5.40828 -0.73051,5.5174 -3.81878,5.93193 -6.61458,0.8871 -4.86505,11.76401 1.89185,11.76401 2.83126,0 2.82595,-0.008 5.23025,7.18417 l 1.20096,3.59208 -1.27382,0.82853 c -4.13428,2.69447 -4.67081,5.14011 -2.05649,9.38907 1.85987,3.02195 5.33588,3.94256 7.33531,1.94313 1.4785,-1.4785 2.78486,-0.82285 6.02099,3.02264 3.27758,3.89661 3.93001,5.89175 2.35064,7.20306 -0.46566,0.3869 -0.82201,1.56316 -0.81234,2.69069 0.0456,5.28807 7.98987,8.76751 10.63322,4.6581 1.63879,-2.54938 2.79499,-2.60603 6.86571,-0.34544 1.274,0.70747 2.66584,1.28732 3.0928,1.28732 1.63465,0 2.81947,2.14544 2.67991,4.85511 -0.16029,3.11729 0.49791,4.0709 3.66494,5.28963 4.11356,1.58214 7.53349,-0.0834 8.34736,-4.06707 0.44631,-2.18321 1.30105,-2.353 9.00583,-1.792 3.6479,0.2653 3.68273,0.28326 4.0185,2.07266 1.36244,7.2571 11.92054,5.55258 11.92054,-1.92422 0,-3.18638 0.63028,-4.43411 2.23729,-4.43411 0.50297,0 2.08368,-0.6218 3.51382,-1.38178 3.56223,-1.89442 4.98518,-1.78465 7.03574,0.55056 4.23377,4.8224 13.27211,-2.40905 9.3216,-7.45945 -1.66919,-2.13347 -1.36297,-3.07092 2.21031,-6.76856 1.82395,-1.88613 3.3168,-3.62436 3.3168,-3.85925 0,-0.70885 1.86096,-0.44945 3.00645,0.4183 2.21914,1.67748 5.10043,1.05583 6.95478,-1.50322 3.03024,-4.18402 2.7053,-6.55055 -1.25764,-9.17317 -2.22604,-1.47298 -2.72955,-3.30682 -1.24414,-4.53936 0.45599,-0.37861 0.83122,-1.51467 0.83122,-2.52336 0,-1.0087 0.25974,-1.99383 0.57755,-2.19142 0.31919,-0.19621 0.50681,-0.89414 0.41561,-1.5491 -0.14509,-1.05292 0.17418,-1.23111 2.81753,-1.55721 7.82639,-0.97001 9.93099,-11.52381 2.29666,-11.52381 -2.88239,0 -3.37119,-0.84537 -3.58398,-6.17213 -0.10087,-2.53418 -0.34618,-5.10264 -0.54516,-5.71062 -0.35649,-1.09714 2.03798,-3.04153 3.74862,-3.04153 2.2523,0 2.82213,-4.98036 0.89869,-7.86966 l -1.37637,-2.06457 -4.0077,-0.008 c -3.90352,-0.007 -4.005,-0.0413 -4.005,-1.38718 0,-1.5241 -0.50727,-1.74242 -1.60578,-0.69089 -0.59002,0.56377 -0.65853,0.38303 -0.36974,-0.99046 0.28327,-1.35552 0.0804,-1.9399 -1.04712,-2.99835 -1.65675,-1.55726 -2.08381,-6.09925 -0.57214,-6.09925 0.45599,0 0.83122,-0.37254 0.83122,-0.82853 0,-0.45598 0.24657,-0.82852 0.55056,-0.82852 1.61668,0 0.50392,-4.18956 -1.65166,-6.21801 -2.3808,-2.24124 -6.08576,-2.99899 -6.08576,-1.24414 0,0.45599 -0.37254,0.82853 -0.82853,0.82853 -0.45599,0 -0.82853,0.24926 -0.82853,0.55325 0,1.40803 -3.19325,0.45472 -5.41377,-1.61657 -2.87409,-2.68065 -2.89287,-2.34768 0.43721,-7.88585 1.51996,-2.52589 2.76356,-4.90154 2.76356,-5.28153 10e-4,-0.37999 0.2349,-0.69089 0.51817,-0.69089 0.28326,0 0.68721,-0.56016 0.90139,-1.24414 0.21279,-0.68398 0.66811,-1.42385 1.00665,-1.64355 0.41868,-0.27083 0.43791,-0.64107 0.0621,-1.15509 -3.93531,-5.39308 -6.19485,-8.39665 -6.72267,-8.94107 -0.35374,-0.36341 -1.67604,-2.87551 -2.93899,-5.58379 -1.26294,-2.70691 -2.65214,-5.62842 -3.0874,-6.48788 -0.43526,-0.86085 -0.79997,-1.98117 -0.80964,-2.48828 -0.032,-1.68923 -0.60166,-2.51171 -1.5707,-2.42352 z m -114.40423,2.57195 c -0.20712,0.0832 -0.41645,0.17312 -0.62882,0.31036 -0.13577,0.0876 -0.21486,0.15542 -0.27797,0.2186 -0.003,-0.16123 0.22297,-0.30162 0.77725,-0.47768 0.0493,-0.0157 0.0842,-0.0358 0.12954,-0.0513 z m -5.94812,0.41561 c 0.31595,0.0121 0.50327,0.0491 0.72866,0.0783 -1.00007,-0.11015 -2.76771,-0.098 -5.29501,0.0648 2.05401,-0.13265 3.55077,-0.18201 4.56635,-0.14304 z m 82.42092,6.6687 c -1.21596,0.006 -1.6462,0.11833 -0.95807,0.25098 0.68674,0.13266 1.68109,0.12739 2.21031,-0.0108 0.52784,-0.13818 -0.0363,-0.2471 -1.25224,-0.24019 z M 99.004966,224.43121 c 3.158054,0.0454 6.288144,0.3453 7.267834,0.869 0.64666,0.34683 1.81816,0.62882 2.60163,0.62882 1.42461,0 1.72577,0.10782 5.18436,1.84057 1.01285,0.50849 2.08464,0.92299 2.38034,0.92299 1.64569,0 8.48566,5.40544 12.02578,9.50242 4.79201,5.54645 5.03324,5.84467 5.03324,6.2288 0,0.16582 0.59684,1.54197 1.3278,3.05502 2.34488,4.86248 4.19931,12.41634 4.19931,17.11301 0,4.57921 -2.08292,14.1458 -3.43015,15.75281 -0.24181,0.28879 -0.44248,1.03387 -0.448,1.65706 -0.0166,2.06161 -4.37713,8.49391 -8.07477,11.91243 -3.9284,3.63131 -6.04006,5.09442 -10.98406,7.60788 -4.51013,2.29375 -5.2549,2.52987 -11.05423,3.51922 -3.95465,0.67431 -15.638537,0.26001 -16.484186,-0.58564 -0.326099,-0.3261 -1.190637,-0.59373 -1.918834,-0.59373 -0.728197,0 -1.983584,-0.35681 -2.790543,-0.79345 -0.806958,-0.43664 -2.524122,-1.23025 -3.816085,-1.765 -1.291962,-0.53475 -2.35064,-1.1709 -2.35064,-1.41686 0,-0.24596 -0.348899,-0.448 -0.77725,-0.448 -0.827685,0 -3.286974,-2.02491 -7.381184,-6.07767 -11.00033,-10.89118 -14.897726,-27.24698 -9.812782,-41.17807 0.728198,-1.99805 1.988614,-4.95633 2.523363,-5.93463 0.290173,-0.52784 0.526264,-1.23104 0.526264,-1.5599 0,-0.33025 1.09662,-1.76272 2.439709,-3.18457 1.343089,-1.42185 2.999924,-3.29778 3.68114,-4.16692 1.78664,-2.27994 8.527991,-7.12093 12.392825,-8.8979 1.823948,-0.84012 3.749732,-1.74924 4.277572,-2.01869 0.527839,-0.27083 1.679579,-0.49118 2.561153,-0.49118 0.880193,0 2.440028,-0.37913 3.462544,-0.84203 1.092986,-0.49399 4.279796,-0.70122 7.43785,-0.65579 z m 102.462104,0.421 c 0.17134,0.42202 0.34407,0.84063 0.50737,1.27653 -0.16331,-0.43566 -0.33596,-0.85451 -0.50737,-1.27653 z m 2.99296,9.81009 c 0.16772,0.7612 0.32695,1.53481 0.47498,2.32096 0.0266,0.1412 0.0603,0.26987 0.0891,0.40751 -0.0291,-0.13514 -0.0701,-0.27601 -0.0945,-0.40751 -0.14594,-0.78503 -0.30256,-1.55853 -0.46958,-2.32096 z m -105.608897,4.91179 c -1.229189,-0.0141 -2.486773,0.0553 -3.767502,0.2159 -22.999701,2.88516 -30.099278,32.33971 -11.054227,45.86318 5.388936,3.82614 16.631626,6.49697 18.689096,4.4395 0.33024,-0.33025 1.16587,-0.60184 1.85676,-0.60184 4.62205,0 13.56168,-7.0217 16.37084,-12.85971 8.50312,-17.66431 -3.6571,-36.84609 -22.094967,-37.05703 z m -0.788042,4.23979 c 1.649484,-0.0315 3.266989,0.18909 4.798429,0.68549 27.49741,8.91109 17.14773,48.31786 -10.587321,40.30907 -4.320821,-1.24774 -12.380389,-7.72149 -12.392825,-9.95582 -0.0028,-0.30952 -0.408039,-1.30643 -0.904097,-2.2184 -1.594572,-2.93214 -1.300723,-13.1117 0.480375,-16.58135 3.730719,-7.26832 11.457665,-12.10262 18.605439,-12.23899 z m 104.996269,7.74283 c -0.16326,0.12438 -0.29417,0.19427 -0.4777,0.35352 -0.26785,0.23209 -0.475,0.46541 -0.6423,0.68281 0.2471,-0.37025 0.64815,-0.74199 1.12,-1.03633 z m -3.38428,1.78119 c 0.18763,0.18168 0.11116,0.2014 -0.23479,0.0999 0.0968,-0.012 0.1805,-0.0375 0.23479,-0.0917 0.002,-0.002 -0.002,-0.006 0,-0.008 z m 43.99021,2.99025 1.56799,1.75691 c 2.10445,2.35731 2.06742,4.57685 -0.12685,7.23815 l -1.69753,2.05917 -15.85267,-0.008 -15.84997,-0.0108 -1.79469,-1.58149 c -2.42502,-2.13899 -2.54409,-5.42547 -0.27797,-7.80489 l 1.51941,-1.59499 16.25748,-0.027 z m -144.86813,0.43721 c -1.579759,-0.0682 -3.136319,0.26793 -4.320752,1.12808 -7.022197,5.10153 -4.387547,15.01605 3.988794,15.01605 4.971638,0 10.153488,-6.07171 8.053188,-9.43495 -0.36065,-0.57897 -0.65581,-1.32668 -0.65581,-1.66245 0,-2.79008 -3.58996,-4.89681 -7.06542,-5.04673 z m 110.42352,2.8796 c -0.30399,0 -0.55325,0.99434 -0.55325,2.21031 0,1.21596 0.24926,2.2103 0.55325,2.2103 0.30399,0 0.55056,-0.99434 0.55056,-2.2103 0,-1.21597 -0.24657,-2.21031 -0.55056,-2.21031 z m 36.05847,0.32656 c -0.43143,-0.0266 -0.65355,0.53353 -0.78534,1.92152 -0.21831,2.28685 0.006,2.59609 1.09301,1.50863 0.90645,-0.90645 0.83863,-3.01949 -0.11065,-3.38428 -0.0706,-0.0271 -0.13538,-0.0421 -0.19702,-0.0459 z m 80.97439,0.37243 c 3.96526,0.0149 10.3301,0.53321 11.87735,1.10109 1.13306,0.41592 2.23105,0.92755 2.43971,1.1362 0.20865,0.20865 0.77531,0.38053 1.26032,0.38053 1.87922,0 9.62848,6.24674 12.36854,9.97201 9.76641,13.27889 5.9799,37.2108 -7.00605,44.29518 -0.73235,0.39933 -2.4443,1.41336 -3.80259,2.25348 -5.30465,3.27758 -19.77029,5.03965 -22.11655,2.69339 -0.34544,-0.34544 -1.17976,-0.62882 -1.85407,-0.62882 -3.24303,0 -16.23859,-9.00849 -16.23859,-11.25664 0,-0.28603 -0.6218,-1.3368 -1.38178,-2.33445 -0.75998,-0.99626 -1.38178,-2.18605 -1.38178,-2.6448 0,-0.45737 -0.2204,-0.96636 -0.48847,-1.13079 -2.16386,-1.33757 -3.42695,-17.0605 -1.72183,-21.43107 2.57149,-6.59108 4.54562,-10.00329 7.21386,-12.46838 3.62302,-3.34805 9.29709,-7.31911 10.45778,-7.31911 0.4933,0 1.13348,-0.206 1.42227,-0.4561 0.47671,-0.41592 3.21935,-1.31739 6.05337,-1.9917 0.52128,-0.12367 1.57674,-0.17498 2.89851,-0.17002 z m 2.04297,22.61312 c -0.50443,0.009 -0.88627,0.14949 -1.07411,0.4534 -0.18792,0.30399 -0.77291,0.55325 -1.30352,0.55325 -1.1676,0 -4.49887,3.31389 -4.49887,4.47459 0,0.45736 -0.28074,1.11466 -0.62342,1.45734 -0.99074,0.99074 0.58484,5.42118 2.63401,7.40817 6.29539,6.10055 16.39136,-1.75484 12.57904,-9.7885 -1.034,-2.17915 -5.52725,-4.59777 -7.71313,-4.55825 z"/>
</svg>
