<svg
   xmlns="http://www.w3.org/2000/svg"
   viewBox="0 0 25 25">
  <path
     d="M 0.23338861,0.4999998 V 3.5320721 H 3.262994 V 0.4999998 Z m 7.32483559,0 V 3.5320721 H 10.464475 V 0.4999998 Z m 7.4531248,0 v 3.0320723 h 3.032073 V 0.4999998 Z m 8.336348,1.0090461 v 1.1373355 h 1.137336 V 1.5090459 Z M 0.11496756,7.8248354 V 10.856907 H 3.1371716 V 7.8248354 Z M 7.5582242,7.9531247 V 10.98273 H 10.590297 V 7.9531247 Z m 8.3363488,0.8832238 v 1.137336 h 1.137335 v -1.137336 z m 7.453124,0 v 1.137336 h 1.137336 V 8.8363485 Z M 0.23338861,15.532072 v 2.903782 H 3.262994 v -2.903782 z m 8.33634869,0.757402 v 1.137334 h 1.1373352 v -1.137334 z m 7.3248357,0 v 1.137334 h 1.137335 v -1.137334 z m 7.453124,0 v 1.137334 h 1.137336 V 16.289474 Z M 1.1166123,23.362664 V 24.5 h 1.1373355 v -1.137336 z m 7.453125,0 V 24.5 h 1.1373352 v -1.137336 z m 7.3248357,0 V 24.5 h 1.137335 v -1.137336 z m 7.453124,0 V 24.5 h 1.137336 v -1.137336 z"/>
</svg>
