<svg viewBox="50 30 200 240" xmlns="http://www.w3.org/2000/svg">
  <path d="M52.2 207.8c-.2 0-.4-.1-.6-.3-.2-.3-.1-.7.2-.9l45.5-26.4c.3-.2.7-.1.9.2s.1.7-.2.9l-45.5 26.4c-.1.1-.2.1-.3.1zM247.8 207.8c-.1 0-.2 0-.3-.1L202 181.4c-.3-.2-.4-.6-.2-.9s.6-.4.9-.2l45.5 26.4c.3.2.4.6.2.9-.1.1-.3.2-.6.2zM150 90.3c-.4 0-.6-.3-.6-.6v-53c0-.4.3-.6.6-.6s.6.3.6.6v53c0 .3-.2.6-.6.6z"/>
  <path d="M150 152l-54.9-32.1L150 88.1l54.9 31.8zm-49.8-32.1L150 149l49.8-29.1L150 91.1z"/>
  <path d="M151.3 213.1l-54.9-31.5v-63.9l54.9 32.1zm-52.3-33l49.7 28.6v-57.4L99 122.2z"/>
  <path d="M148.7 213.1v-63.3l.6-.4 54.3-31.7v63.9l-.6.4zm2.6-61.8v57.4l49.7-28.6v-57.9z"/>
  <path d="M150 266.8L49.2 208.9V91.6L150 33.2l100.8 58.4v117.3zm-94.8-61.4l94.8 54.4 94.8-54.4V95L150 40.2 55.2 95z"/>
<path d="M150 266.3c-1.7 0-3-1.3-3-3V152.2L50.6 95.9c-1.4-.8-1.9-2.7-1.1-4.1s2.7-1.9 4.1-1.1l97.8 57.2c.9.5 1.5 1.5 1.5 2.6v112.8c.1 1.7-1.2 3-2.9 3z"/>
<path d="M150 153.5c-1 0-2-.5-2.6-1.5-.8-1.4-.4-3.3 1.1-4.1l97.8-57.2c1.4-.8 3.3-.4 4.1 1.1.8 1.4.4 3.3-1.1 4.1l-97.8 57.2c-.5.3-1 .4-1.5.4z"/>
</svg>