<svg
   xmlns="http://www.w3.org/2000/svg"
   viewBox="0 0 40 40">
<path
   d="m 22.488867,16.669094 -0.853326,4.551071 8.106596,1.137768 -0.568884,2.133314 -7.964375,-1.137767 c -0.568884,1.848872 -0.853326,3.839966 -1.56443,5.546618 -0.711105,1.991093 -1.42221,3.982187 -2.275536,5.83106 -1.137768,2.417756 -3.128862,4.124408 -5.83106,4.551071 -1.5644308,0.284442 -3.2710825,0.142221 -4.5510713,-0.853326 -0.426663,-0.284442 -0.8533259,-0.853326 -0.8533259,-1.279989 0,-0.568883 0.284442,-1.279988 0.7111049,-1.56443 0.2844419,-0.142221 0.9955468,0 1.4222098,0.142221 0.4266629,0.426663 0.8533258,0.995547 1.1377678,1.56443 0.8533257,1.137768 1.9910937,1.279989 3.1288617,0.426663 1.279988,-1.137767 1.991093,-2.702198 2.417756,-4.266629 0.853326,-3.413303 1.706652,-6.684386 2.417757,-10.097689 v -0.568884 l -7.5377118,-1.137768 0.2844418,-2.133315 7.822154,1.137768 0.995547,-4.40885 -8.106596,-1.279989 0.284442,-2.275536 8.391038,1.137768 c 0.284442,-0.853326 0.426663,-1.564431 0.711104,-2.275536 0.711105,-2.5599775 1.42221,-5.1199551 3.128862,-7.3954908 1.706652,-2.2755356 3.697745,-3.69774544 6.684386,-3.55552446 1.279989,0 2.559978,0.42666296 3.413303,1.42220986 0.142221,0.1422209 0.426663,0.4266629 0.426663,0.7111049 0,0.5688839 0,1.2799888 -0.426663,1.7066517 C 32.870999,4.8647521 32.159894,4.7225312 31.59101,4.1536472 31.164347,3.7269843 30.879905,3.3003214 30.453242,2.8736584 29.599916,1.7358906 28.319927,1.5936696 27.32438,2.5892165 26.613275,3.3003214 25.902171,4.2958682 25.475508,5.2914151 24.479961,8.2780556 23.768856,11.406917 22.773309,14.535779 l 7.822154,1.137768 -0.568884,2.133314 -7.537712,-1.137767" />
</svg>