<svg
   xmlns="http://www.w3.org/2000/svg"
   version="1.1"
   viewBox="0 0 600 600">
  <g
     transform="translate(861,427)"
     id="g8">
    <g
       transform="translate(0,32)"
       id="g6">
      <path
         d="m -523.20201,-1.0164061 42.36832,127.8230961 h 94.79017 l 20.8251,-96.944485 c -20.8251,-2.154321 -42.36831,-7.181073 -63.19343,-15.798359 l -4.30866,-1.436214 v 0 l -4.30864,-1.436216 -0.71811,38.777792 -14.36214,-42.3683267 c -22.97944,-3.5905367 -46.67697,-7.18107337 -71.09261,-8.6172874 z m -84.73666,0.71810701 c -16.51646,1.43621559 -33.03292,3.59053669 -48.11319,6.46296479 l -11.48971,2.1543226 -12.20782,42.3683267 -2.15432,-39.495899 c -3.59053,0.718107 -7.18107,2.154323 -10.7716,2.87243 -17.23457,8.617286 -36.62348,13.644038 -57.44858,15.798359 l -8.6173,0.718109 20.10701,95.508266 h 91.91773 z M -773.10333,-444.80669 h -84.01855 l 84.73666,408.603029 h 2.87242 c 26.56998,0 52.42183,-5.744858 76.83749,-17.234575 l 2.87242,-2.154321 v 0 l 2.87243,-2.154321 z m 412.19355,0 -71.09262,389.93224 2.87243,1.436216 c 25.85188,8.617285 48.83131,14.362145 70.37452,16.516466 l 7.89917,0.718107 86.89098,-403.576279 z m -177.37249,193.88896 h -50.26749 l -53.85805,174.500054 c 15.79836,-5.026749 33.03293,-7.899178 50.2675,-10.053499 l 10.77162,-0.718107 15.08024,-53.858038 15.08025,53.858038 c 21.54323,0.718107 41.65022,3.590535 61.03911,7.899178 l 9.3354,2.872428 z" />
    </g>
  </g>
</svg>
