<svg viewBox="7.5 8.5 25.5 25.5" xmlns="http://www.w3.org/2000/svg">
  <path d="M29.9732 17.7422H24.0898V23.6255H29.9732V17.7422Z"></path>
  <path d="M18.2138 25.8297C18.2138 26.2665 18.0843 26.6934 17.8416 27.0566C17.599 27.4197 17.2541 27.7028 16.8506 27.8699C16.447 28.0371 16.003 28.0808 15.5746 27.9956C15.1463 27.9104 14.7528 27.7001 14.4439 27.3912C14.1351 27.0824 13.9248 26.6889 13.8396 26.2605C13.7544 25.8321 13.7981 25.3881 13.9652 24.9846C14.1324 24.5811 14.4154 24.2362 14.7786 23.9935C15.1417 23.7509 15.5687 23.6214 16.0055 23.6214H18.2138V17.7422H16.0055C14.4059 17.7422 12.8423 18.2165 11.5123 19.1052C10.1823 19.9939 9.14572 21.2569 8.5336 22.7347C7.92147 24.2125 7.76131 25.8387 8.07337 27.4075C8.38543 28.9763 9.15569 30.4174 10.2867 31.5484C11.4178 32.6795 12.8589 33.4497 14.4277 33.7618C15.9965 34.0738 17.6226 33.9137 19.1004 33.3016C20.5782 32.6894 21.8413 31.6528 22.73 30.3229C23.6186 28.9929 24.093 27.4292 24.093 25.8297V23.6214H18.2138V25.8297Z"></path>
  <path d="M26.2984 14.8003H32.9151V8.91699H26.2984C24.1542 8.91919 22.0984 9.77198 20.5821 11.2882C19.0659 12.8044 18.2131 14.8602 18.2109 17.0044V17.7419H24.0901V17.0044C24.0912 16.4195 24.3244 15.8589 24.7384 15.4456C25.1524 15.0324 25.7135 14.8003 26.2984 14.8003Z"></path>
</svg>