<svg
   xmlns="http://www.w3.org/2000/svg"
   viewBox="0 0 200 200">
  <g transform="translate(0,-97)">
    <path
       d="m 47.529225,129.33801 -1.657397,-9.03695 -3.059486,-6.97865 -7.581877,-3.88449 -18.109647,-1.68528 -0.05512,-9.159306 159.042446,-0.213834 3.01598,8.43435 3.81019,45.29284 -10.25267,0.0736 -5.60137,-21.81282 -6.26997,-7.58235 -4.97003,-4.62885 -9.19673,-3.6403 -52.575909,-1.62355 -7.108458,1.84834 -4.434109,4.73479 -1.327795,9.86243 -0.505764,140.45869 3.381767,9.67144 5.59172,4.57657 8.020909,2.74571 13.155209,0.26665 0.0632,8.26283 -93.401977,0.30063 -0.32504,-8.44084 11.314823,-0.0799 8.842096,-1.74216 6.002388,-4.84333 3.433986,-9.45312 z" />
  </g>
</svg>
