<svg
   xmlns="http://www.w3.org/2000/svg"
   version="1.1"
   viewBox="0, 0, 400,400"
 >
    <path
       d="m 245.94292,23.906376 c -2.46578,39.446611 2.67975,108.458994 8.08647,108.458994 15.81288,0 71.05171,-14.8729 107.32866,-28.89583 8.64573,-3.34231 5.88187,-8.546868 22.33518,42.0511 14.21772,43.72447 14.68697,45.87004 10.03282,45.87004 -14.8242,0 -107.94105,36.00986 -107.94105,41.7427 0,8.1691 38.68666,68.40442 58.83052,91.59989 3.42642,3.94732 6.03534,7.70575 5.79629,8.35061 -0.46778,1.25723 -71.66705,53.05194 -74.33942,54.07751 -0.878,0.33791 -4.14653,-3.56513 -7.26454,-8.6723 -13.66879,-22.38387 -34.75263,-49.34515 -55.15325,-70.52343 l -13.50499,-14.01851 -15.19016,15.49414 c -18.37015,18.73758 -35.53028,40.08261 -49.79375,61.93525 -5.84203,8.94971 -10.93739,16.27328 -11.32548,16.27328 -0.38661,0 -17.39623,-12.0751 -37.799802,-26.83438 -20.402097,-14.75928 -37.324652,-26.9967 -37.605022,-27.19591 -0.281846,-0.19773 5.316704,-7.54638 12.439583,-16.32787 20.021384,-24.68439 52.221161,-76.06887 52.250681,-83.3821 0.0251,-6.00878 -67.355256,-33.58245 -100.332695,-41.05948 -4.4637882,-1.01081 -8.867076,-2.25182 -9.7863951,-2.75648 -1.1377128,-0.62272 2.542515,-13.88275 11.5173131,-41.49627 17.402135,-53.546278 15.449873,-49.041172 20.195508,-46.60048 20.18813,10.39141 107.803819,33.9366 111.717199,30.02323 3.94584,-3.94437 8.61474,-64.110339 7.38996,-95.222578 l -1.00195,-25.475321 46.92807,0.389567 46.92807,0.389567 -0.73782,11.805061"
 />
</svg>
