<svg
   xmlns="http://www.w3.org/2000/svg"
   viewBox="0 0 32 32">
  <path
     d="M 10.599609 2.7285156 C 6.1499087 2.7766023 4.7353438 4.8968594 5.1367188 11.935547 C 3.4717187 12.274547 1.4116406 11.568125 0.056640625 12.203125 C -0.18335937 15.900125 -0.05690625 14.279469 5.1210938 14.730469 C 5.1210937 19.301469 5.1214219 23.576109 5.1074219 28.162109 C 5.1354219 28.938109 5.0095781 28.966062 5.5175781 29.164062 C 9.0305781 28.783062 7.7466563 32.056469 7.9726562 14.730469 C 10.343656 14.095469 15.676953 16.422141 14.251953 12.119141 C 10.400953 11.032141 6.7735781 14.688094 8.1425781 7.7460938 C 8.5235781 6.0670938 9.9470625 5.6725312 11.414062 5.6445312 C 13.474063 5.4605312 15.195688 6.7712344 14.179688 2.9902344 C 12.814687 2.8154844 11.626463 2.7174187 10.599609 2.7285156 z M 19.509766 14.638672 C 17.293702 14.373275 16.0325 20.865781 16.296875 22.730469 C 16.352875 23.661469 17.454172 30.235453 19.951172 29.064453 C 17.425172 24.266453 17.495844 19.512156 19.964844 14.785156 C 19.808781 14.704031 19.657503 14.656365 19.509766 14.638672 z M 28.773438 14.707031 C 28.631145 14.706893 28.484594 14.723875 28.332031 14.757812 C 30.843031 19.540812 30.815031 24.309781 28.332031 29.050781 C 32.678812 30.554281 33.18449 14.711311 28.773438 14.707031 z M 21.236328 17.978516 C 20.954909 17.975426 20.624882 17.997704 20.234375 18.046875 C 23.336879 22.8403 23.985419 20.458941 20.035156 26.087891 C 22.730156 26.510891 22.363969 25.395328 24.042969 23.236328 C 25.651969 24.760328 25.171063 26.567531 28.289062 26.144531 C 25.706063 21.629531 23.745844 23.294578 27.964844 18.017578 C 25.354844 17.876578 25.806922 18.228687 24.169922 20.429688 C 22.799672 19.220438 23.210082 18.000186 21.236328 17.978516 z " />
</svg>
