<svg
   xmlns="http://www.w3.org/2000/svg"
   version="1.1"
   viewBox="0 0 128 128">
  <path
     d="M 64.177734,0.00585938 C 63.373697,4.63125e-4 62.576406,0.2379165 61.691406,0.734375 47.013506,8.720883 32.248444,16.664022 17.527344,24.607422 c -2.15847,1.1656 -4.230294,2.374359 -6.777344,3.755859 0.90658,0.6475 1.33763,1.035922 1.8125,1.294922 16.62055,9.627 33.284159,19.209631 49.818359,28.707031 1.2088,0.6908 2.201357,0.776869 3.410157,0.04297 5.5689,-3.2809 11.180868,-6.47509 16.792968,-9.712891 0.4317,-0.2159 0.778282,-0.603093 1.425782,-1.121093 -2.2448,-1.2951 -4.187435,-2.634053 -6.302735,-3.626953 -0.9066,-0.3886 -2.288843,-0.4317 -3.152343,0 -2.7197,1.3382 -5.310322,2.849734 -7.857422,4.490234 -1.7699,1.1656 -3.19425,1.208337 -5.09375,0.08594 -10.5335,-6.1733 -21.153769,-12.217457 -31.730469,-18.347657 -0.6908,-0.3885 -1.294672,-0.950056 -2.201172,-1.597656 0.8634,-0.518 1.382159,-0.906784 1.943359,-1.208984 10.2314,-5.5258 20.54836,-10.965332 30.69336,-16.707032 2.9356,-1.6404296 5.09429,-1.3802715 7.90039,0.173829 13.0806,7.252599 26.246863,14.332209 39.414066,21.412109 0.69,0.3454 1.68317,0.862516 2.20117,0.603515 2.547,-1.208799 4.96545,-2.676137 7.81445,-4.273437 -1.036,-0.6907 -1.59717,-1.121397 -2.20117,-1.466797 C 99.205,18.347828 82.929366,9.584293 66.697266,0.734375 65.790716,0.2595015 64.981772,0.01125563 64.177734,0.00585938 Z M 6.5625,33.240234 v 61.302735 c 18.0884,11.094901 36.175806,22.190001 54.566406,33.500001 0.0863,-0.95 0.173828,-1.29563 0.173828,-1.64063 0,-19.945 -0.0015,-39.846312 -0.08789,-59.791012 0,-0.9498 -0.820194,-2.331509 -1.683594,-2.849609 -5.5258,-3.3673 -11.180769,-6.51806 -16.792969,-9.75586 -0.518,-0.3022 -1.121206,-0.517881 -1.941406,-0.863281 0,2.6766 0.0863,4.963953 0,7.251953 -0.0864,1.3815 0.474794,2.244847 1.683594,2.935547 2.8061,1.5973 5.568768,3.324938 8.417969,4.835938 1.683699,0.8634 2.330078,2.028234 2.330078,3.927734 -0.0432,12.8216 -0.04297,25.600375 -0.04297,38.42187 0,0.734 -0.216203,1.46785 -0.345703,2.58985 -1.0361,-0.561 -1.813207,-0.90589 -2.503906,-1.33789 -10.8789,-6.648 -21.67165,-13.381461 -32.59375,-19.943361 -1.985821,-1.2087 -2.71875,-2.547938 -2.71875,-4.835938 0.08634,-15.455 -4.03e-4,-30.953303 0.08594,-46.408203 0.04317,-1.8995 -0.603469,-3.107534 -2.287109,-3.927734 -2.15852,-1.0361 -4.187586,-2.24651 -6.259766,-3.41211 z m 114.83203,0.302735 c -1.123,0.518 -1.76997,0.820615 -2.41797,1.166015 -16.7929,9.6701 -33.499666,19.339897 -50.292966,28.966797 -1.2519,0.7339 -1.640625,1.640216 -1.640625,2.978516 0.0432,6.3892 0.04297,12.821737 0.04297,19.210937 -10e-7,0.6907 0.08753,1.381407 0.173828,2.503907 2.3744,-1.3383 4.402509,-2.547753 6.474609,-3.626953 1.1656,-0.647601 1.554919,-1.466388 1.511719,-2.804688 -0.0863,-3.0219 0.08666,-6.044506 -0.08594,-9.066406 -0.1295,-2.4175 0.690878,-3.884819 2.892578,-5.136719 10.9652,-6.1734 21.800557,-12.562566 32.722657,-18.822266 0.604,-0.3885 1.33714,-0.605871 2.24414,-0.951171 0.129,0.863399 0.25977,1.425128 0.25977,1.986328 0.043,12.7352 0.086,25.471831 -0.043,38.207031 -0.043,0.9929 -0.8636,2.286225 -1.6836,2.890625 -2.806,1.9427 -5.82807,3.671175 -8.76367,5.484375 -11.094799,6.820503 -22.190586,13.596933 -33.242186,20.460933 -0.8634,0.518 -2.114772,1.33919 -2.201172,2.11719 -0.259,2.806 -0.08594,5.65369 -0.08594,8.80469 1.0361,-0.561 1.63974,-0.86295 2.24414,-1.25195 16.4478,-10.102 32.895588,-20.28926 49.429688,-30.34766 1.856,-1.1224 2.50391,-2.374934 2.50391,-4.490234 -0.086,-18.4769 -0.043,-36.952788 -0.043,-55.429688 z" />
</svg>
