<svg
   xmlns="http://www.w3.org/2000/svg"
   viewBox="0 0 250 250"
   version="1.1">
  <path
     d="m 112.45807,42.488529 c -18.05511,-0.0978 -35.185809,9.561559 -49.962004,24.665957 -1.59407,1.63226 -3.195406,3.257094 -4.804362,4.874684 -3.393431,3.397819 -6.783122,6.799357 -10.151606,10.221928 -4.340801,4.423022 -8.685845,8.838896 -13.060103,13.228878 -4.266888,4.279347 -8.527323,8.565734 -12.778815,12.860374 l -2.43031,2.45563 c -2.337683,2.35361 -4.673825,4.70779 -6.998394,7.07434 l -2.129333,2.17435 c -4.1195296,4.18323 -7.5381265,7.70178 -9.8084376,13.15292 3.1504016,3.69047 3.1504016,3.69047 7.2009179,7.20092 l 3.6004587,-0.72009 3.600459,-0.72009 c 4.320551,2.88036 4.320551,2.88036 7.200918,7.20091 -0.900115,3.42044 -0.900115,3.42044 -1.440184,7.20092 2.980956,3.78747 6.442986,6.93293 10.081285,10.08129 l 5.760735,-2.88037 11.521468,11.52147 -2.880367,5.76073 c 3.148354,3.63829 6.293811,7.10034 10.081285,10.08129 l 3.780482,-0.54007 3.420436,-0.90012 4.140528,3.06039 c 3.560064,3.80287 3.560064,3.80287 2.520321,7.92101 l -0.900115,3.42044 c 2.456844,3.49131 2.456844,3.49131 10.081285,7.20092 8.569311,-8.50848 17.132712,-17.02283 25.687032,-25.54638 4.37127,-4.3568 8.74313,-8.71372 13.12198,-13.06291 4.28,-4.248 8.55714,-8.49775 12.82664,-12.75633 1.63377,-1.63091 3.26778,-3.2619 4.9028,-4.89155 5.71517,-5.65967 11.41389,-11.3192 16.91091,-17.1922 10.20078,-12.20545 15.46329,-25.50886 14.68312,-41.658428 -1.42545,-15.13832 -9.33294,-28.67645 -20.59012,-38.845579 -11.19012,-8.016196 -22.35585,-11.586551 -33.18891,-11.645234 z m 76.40286,0.475373 c -6.06937,0.07766 -12.09926,1.332811 -17.80259,4.098335 l -3.39231,1.974627 c -2.01569,1.160752 -4.0278,2.327867 -6.03076,3.510447 1.75718,2.610663 3.48937,5.240381 5.1194,7.932261 l 2.08151,3.589208 c 5.65856,9.51249 7.64081,18.208515 7.90133,29.172157 l 0.0197,4.2221 0.0281,4.042073 c -0.3858,21.08917 -10.52285,36.46168 -25.34104,50.96057 -9.03221,8.61358 -17.86578,17.1825 -25.8136,26.81779 3.14835,3.63829 6.29381,7.10033 10.08128,10.08128 l 3.78048,-0.54007 3.42044,-0.90011 4.14053,3.06039 c 3.56006,3.80286 3.56006,3.80286 2.52032,7.92101 l -0.90012,3.42043 c 2.45684,3.49131 2.45684,3.49131 10.08129,7.20092 8.92463,-8.74187 17.83126,-17.50143 26.71091,-26.28898 4.5405,-4.4971 9.07915,-8.99667 13.64235,-13.47077 4.4589,-4.36269 8.91121,-8.73009 13.33858,-13.1248 1.69711,-1.68851 3.39603,-3.37562 5.0969,-5.06034 5.39416,-5.24311 10.80283,-10.45922 15.76045,-16.1233 9.92665,-12.59732 14.52661,-28.164 13.30201,-44.026862 -2.15923,-14.01242 -9.18374,-26.563041 -20.15694,-35.45327 -10.6904,-7.660499 -24.23562,-13.185948 -37.58822,-13.015096 z" />
</svg>
