<svg version="1.1" xmlns="http://www.w3.org/2000/svg"
	 viewBox="60 240 440 440">
<path d="M375.202,249.963l-44.538,44.535
	c-15.114-10.773-33.58-17.136-53.517-17.136c-50.973-0.003-92.446,41.469-92.446,92.446c0,45.725,33.374,83.78,77.038,91.138v33.433
	c-43.664,7.361-77.038,45.416-77.038,91.141c0,50.973,41.472,92.446,92.446,92.446c50.976,0,92.446-41.472,92.446-92.446
	c0-45.725-33.374-83.78-77.039-91.141v-33.433c43.664-7.358,77.039-45.412,77.039-91.138c0-19.937-6.363-38.404-17.136-53.517
	l44.535-44.538L375.202,249.963z M338.778,585.52c0,33.981-27.647,61.631-61.631,61.631c-33.981,0-61.632-27.651-61.632-61.631
	c0-33.984,27.651-61.632,61.632-61.632C311.131,523.889,338.778,551.536,338.778,585.52 M277.147,431.44
	c-33.981,0-61.632-27.647-61.632-61.631c0-33.984,27.651-61.632,61.632-61.632c33.984,0,61.631,27.647,61.631,61.632
	C338.778,403.793,311.131,431.44,277.147,431.44z"/>
</svg>
