<svg
   xmlns="http://www.w3.org/2000/svg"
   version="1.1"
   viewBox="400 0 202 202"
 >
  <path
     d="M 501.40039,0.29734086 C 445.96915,0.29734086 400.98681,45.278542 400.98681,101 c 0,55.72146 44.98234,100.70266 100.41358,100.70266 55.43124,0 100.41358,-44.9812 100.41358,-100.70266 0,-55.431242 -44.98234,-100.70265914 -100.41358,-100.70265914 z m 0.28908,10.15755714 c 25.82922,0 49.04536,10.735723 65.58767,28.148678 2.32173,2.031511 4.64685,4.643455 6.38815,7.255398 L 501.68947,118.12387 429.71366,46.148055 c 2.03151,-2.611943 4.06642,-5.222752 6.38815,-7.544479 16.54231,-17.412955 39.75845,-28.148678 65.58766,-28.148678 z m -77.78013,43.532388 7.2554,7.255398 7.55014,7.544483 c -4.93367,5.804318 -7.83923,13.351064 -7.83923,21.47711 0,18.283603 15.09123,33.374823 33.37483,33.374823 8.41627,0 15.6728,-2.90555 21.47712,-7.83922 l 15.96187,15.96187 15.96188,-15.96187 c 5.80432,4.93367 13.35106,7.83922 21.47711,7.83922 18.2836,0 33.37483,-15.09122 33.37483,-33.374823 0,-8.416262 -2.90103,-15.672792 -7.54448,-21.47711 L 579.4696,53.987286 c 8.41627,13.640149 13.05972,29.599758 13.05972,47.012714 0,50.20735 -40.63249,90.83985 -90.83985,90.83985 -50.20735,0 -90.83985,-40.6325 -90.83985,-90.83985 0,-17.12274 4.64346,-33.372565 13.05972,-47.012714 z m 133.79407,21.471445 c 3.19237,4.063023 4.93141,8.996694 4.93141,14.510796 0,13.059723 -10.44664,23.802233 -23.50636,23.512023 -5.5141,0 -10.44777,-1.74469 -14.5108,-4.93707 z m -112.02788,0.294749 33.08575,33.08009 c -4.06302,2.90215 -8.99669,4.93706 -14.5108,4.93706 -13.05971,0 -23.50635,-10.44664 -23.50635,-23.506353 0,-5.514103 1.73903,-10.447774 4.9314,-14.510797 z" />
</svg>
