<svg
   xmlns="http://www.w3.org/2000/svg"
   viewBox="0 0 2000 2000">
  <path
     d="m 1199.0157,819.46762 c 70.7798,-70.77984 109.1786,-163.9112 109.1786,-264.20651 A 373.95823,373.95823 0 0 0 1221.3672,315.69859 L 1438.5782,98.487604 1390.1499,51.492087 1172.9389,268.70308 C 1105.8843,212.82426 1022.7825,181.87599 934.80923,181.87599 A 373.64302,373.64302 0 0 0 670.60272,819.46762 c 61.89654,61.89653 142.7059,100.58186 229.53299,108.03237 v 275.38221 a 362.81112,362.81112 0 0 0 -229.53299,108.0324 374.27345,374.27345 0 0 0 0,528.413 c 70.77984,70.7799 163.9112,109.1786 264.20651,109.1786 a 371.56547,371.56547 0 0 0 264.20647,-109.1786 c 70.7798,-70.7798 109.1786,-163.9112 109.1786,-264.2065 0,-100.2953 -38.3988,-193.4267 -109.1786,-264.2065 -61.8965,-61.8965 -142.7059,-100.5819 -229.53297,-108.0324 V 927.49999 A 362.13771,362.13771 0 0 0 1199.0157,819.46762 m -48.4283,539.58878 c 57.025,58.1712 89.4061,134.1091 89.4061,215.7782 a 303.90912,303.90912 0 0 1 -89.4061,215.7782 c -57.0251,58.1712 -134.1092,89.4061 -215.77817,89.4061 a 303.90912,303.90912 0 0 1 -215.7782,-89.4061 c -57.02505,-58.1713 -89.40611,-134.1092 -89.40611,-215.7782 a 303.90912,303.90912 0 0 1 89.40611,-215.7782 c 57.02505,-58.1713 134.10916,-89.4061 215.7782,-89.4061 81.95557,0.2865 158.75307,31.2348 215.77817,89.4061 M 934.80923,861.59165 A 303.90912,303.90912 0 0 1 719.03103,772.18554 C 662.00598,714.01426 629.62492,638.07638 629.62492,556.40734 a 304.39627,304.39627 0 0 1 89.40611,-215.7782 c 57.02505,-58.17128 134.10916,-89.4061 215.7782,-89.4061 a 303.90912,303.90912 0 0 1 215.77817,89.4061 c 58.1713,57.02505 89.4061,134.10916 89.4061,215.7782 a 303.90912,303.90912 0 0 1 -89.4061,215.7782 c -57.0251,58.45784 -133.8226,89.40611 -215.77817,89.40611" />
</svg>
