<svg
   xmlns="http://www.w3.org/2000/svg"
   viewBox="0, 0, 400,400"
   version="1.1">
    <path
       d="m 148.27539,2.7578125 c -5.24233,-0.055842 -9.86531,2.5692969 -21.09375,7.3144535 -24.517,10.361 -21.95831,7.664359 -35.195312,37.068359 -6.155,13.672 -11.723,25.708094 -12.375,26.746094 -0.651,1.038 -13.067797,6.482656 -27.591797,12.097656 l -26.40625,10.208984 -9.199219,22.039061 -9.195312,22.04102 8.976562,23.83398 8.976563,23.83399 -11.875,28.25195 c -6.531,15.538 -12.1939375,28.58519 -12.5859375,28.99219 C 0.3199375,245.59355 0,190.59289 0,122.96289 v 201.18555 c 0,-41.718 0.35315625,-75.49841 0.78515625,-75.06641 0.43199995,0.432 4.92251565,11.42474 9.97851575,24.42774 5.608,14.425 10.325562,24.01379 12.101562,24.59179 1.602,0.52 5.313094,1.99535 8.246094,3.27735 2.933,1.282 13.733,5.65665 24,9.72265 22.966,9.095 19.389672,4.81436 32.013672,38.31836 12.141,32.224 10.548875,30.40538 35.04688,39.98438 l 18.39062,7.1914 27.6582,-11.71484 c 18.071,-7.655 28.3698,-11.14908 29.7168,-10.08008 4.485,3.556 51.99172,23.42188 56.01172,23.42188 2.357,0 11.58295,-3.07689 20.50195,-6.83789 8.918,-3.761 17.41486,-7.2604 18.88086,-7.77539 1.467,-0.516 7.76228,-12.4391 13.98828,-26.4961 13.826,-31.216 9.87535,-27.4613 42.90235,-40.7793 32.709,-13.19 30.37675,-11.36182 38.46875,-30.17382 9.679,-22.5 9.62881,-23.88308 -1.86719,-51.58008 -12.014,-28.945 -12.15542,-22.06736 1.14258,-55.44336 6.13,-15.386 11.34484,-27.986 11.58984,-28 0.244,-0.014 0.44336,55.97492 0.44336,124.41992 V 72.888672 c 0,40.088998 -0.2943,72.888668 -0.6543,72.888668 -0.36,0 -3.66184,-8.44653 -7.33984,-18.76953 -8.284,-23.25 -6.138,-21.31017 -37,-33.451169 L 329.23633,83.419922 318.67773,53.033203 308.11914,22.644531 283.79102,13.732422 259.46289,4.8203125 233.54883,15.615234 207.63477,26.410156 179.00781,14.09375 C 160.95487,6.3274062 154.2167,2.8210997 148.27539,2.7578125 Z m 0.25977,17.3476565 c 3.83704,-0.171587 8.09561,1.64839 18.23242,5.83789 15.259,6.307 19.90039,8.92361 19.90039,11.22461 0,2.247 -10.36231,7.282015 -12.94531,6.291015 -1.437,-0.551 -3.07216,0.240485 -3.66016,1.771485 -0.584,1.523 -2.42389,2.769531 -4.08789,2.769531 -1.665,0 -4.62799,1.400328 -6.58399,3.111328 -2.16999,1.898 -2.97826,2.125938 -2.07226,0.585938 1.157,-1.964 0.73198,-2.218391 -1.91602,-1.150391 -1.872,0.755 -5.41214,2.103094 -7.86914,2.996094 -2.456,0.892 -5.43228,3.810375 -6.61328,6.484375 -9.178,20.794 -46.697264,113.211386 -46.697264,115.025386 0,5.066 -5.201765,6.94143 -6.884765,2.48243 -0.873,-2.311 -1.234735,-4.80216 -0.802735,-5.53516 0.432,-0.733 0.001,-1.33203 -0.958984,-1.33203 -0.96,0 -2.703047,-2.90417 -3.873047,-6.45117 -1.171,-3.548 -4.324812,-11.28532 -7.007813,-17.19532 l -4.876953,-10.74609 5.003907,-10.08398 c 2.752,-5.547 9.460203,-21.11471 14.908203,-34.595707 10.552001,-26.116 19.506081,-47.386625 22.580081,-53.640625 1.033,-2.102 5.18551,-5.178031 9.22851,-6.832031 4.042,-1.655 11.34928,-4.884688 16.23828,-7.179688 5.04307,-2.366437 7.77345,-3.704434 10.75782,-3.83789 z m 104.96875,3.083984 c 0.447,-0.204 28.83295,10.421641 32.87695,12.306641 3.575,1.667 6.41661,6.579187 12.72461,21.992187 9.172,22.412 8.87495,27.741906 -1.12305,20.128907 -3.046,-2.319001 -7.53842,-4.819641 -9.98242,-5.556641 -7.995,-2.41 -24.88867,-10.546328 -24.88867,-11.986328 0,-0.775 -1.59969,-1.40625 -3.55469,-1.40625 -1.956,0 -3.55664,0.79839 -3.55664,1.77539 0,0.978 -1.43922,1.779297 -3.19922,1.779297 -1.76,0 -3.96162,0.687297 -4.89062,1.529297 -0.929,0.841 -5.84669,2.983719 -10.92969,4.761719 -5.083,1.779 -8.96024,3.691 -8.61524,4.25 0.345,0.558 -1.09517,1.123766 -3.20117,1.259766 -12.166,0.781 -40.62614,15.49514 -43.99414,22.74414 -3.566,7.677002 -26.17051,61.128082 -47.97851,113.455082 -15.158,36.37 -13.80861,35.00025 -19.47461,19.78125 -2.41,-6.476 -5.37871,-12.15986 -6.59571,-12.63086 -1.216,-0.471 -1.81131,-1.50583 -1.32031,-2.29883 1.308,-2.118 -2.42492,-11.00283 -4.16992,-9.92383 -3.023001,1.868 1.28002,-14.49339 7.66602,-29.15039 3.621,-8.311 8.18367,-19.51067 10.13867,-24.88867 1.956,-5.378 5.48289,-14.00106 7.83789,-19.16406 2.355,-5.162 4.2832,-9.74274 4.2832,-10.17774 0,-0.436 2.27278,-5.81126 5.05078,-11.94726 2.778,-6.135 8.14569,-19.040739 11.92969,-28.677739 l 6.87891,-17.521484 9.84765,-4.458985 c 14.644,-6.63 53.74666,-22.630187 81.84766,-33.492187 3.422,-1.323 6.29858,-2.439422 6.39258,-2.482422 z m 9.74414,49.779297 c 1.771,-0.138 55.03329,21.919734 66.52929,27.55273 2.933,1.438 11.65014,5.20791 19.36914,8.37891 l 14.03321,5.76758 4.36523,10.66406 c 2.4,5.867 5.60505,13.66894 7.12305,17.33594 3.018,7.288 3.51981,5.30411 -7.86719,31.16211 -2.273,5.163 -4.13281,10.96267 -4.13281,12.88867 0,6.619 -6.50975,2.36206 -7.96875,-5.21094 -0.396,-2.059 -1.35295,-4.74098 -2.12695,-5.95898 -0.773,-1.219 -1.48699,-2.61647 -1.58399,-3.10547 -0.097,-0.488 -1.23239,-3.2867 -2.52539,-6.2207 -1.293,-2.933 -2.193,-6.63657 -2,-8.22657 0.194,-1.591 -0.88167,-3.36436 -2.38867,-3.94336 -1.508,-0.578 -2.74219,-2.7037 -2.74219,-4.7207 0,-2.017 -1.39837,-4.13308 -3.10937,-4.70508 -8.145,-2.722 -32.34033,-12.10912 -38.86133,-15.07812 -4.018,-1.829 -7.78796,-3.32617 -8.37695,-3.32617 -0.589,0 -7.30102,-2.8671 -14.91602,-6.3711 -7.615,-3.504 -15.44539,-6.96636 -17.40039,-7.69336 -1.956,-0.726 -7.15664,-3.00826 -11.55664,-5.07226 -4.4,-2.063 -12.74116,-5.60228 -18.53516,-7.863284 -9.819,-3.833 -15.03328,-8.497562 -9.61328,-8.601562 1.304,-0.024 11.56945,-3.988594 22.81445,-8.808594 11.244,-4.82 20.90571,-8.79875 21.47071,-8.84375 z M 72.488281,92.824219 c 3.356795,0.09131 2.403625,3.52964 -1.226562,11.251951 -2.036,4.332 -5.807813,13.13831 -8.382813,19.57031 l -4.68164,11.69336 7.544922,18.10743 c 4.150999,9.959 8.618781,20.54448 9.925781,23.52148 1.307,2.978 5.92,14.17767 10.25,24.88867 4.33,10.712 11.170219,27.44269 15.199221,37.17969 8.547,20.651 8.92917,23.14067 3.32617,21.63867 -2.2,-0.59 -4.599032,-1.0827 -5.332032,-1.0957 -0.733,-0.014 -1.333984,-0.75072 -1.333984,-1.63672 0,-0.886 1.8,-1.26956 3.999996,-0.85156 3.683,0.699 3.71932,0.63397 0.44532,-0.83203 -1.955,-0.876 -4.355988,-1.11239 -5.333988,-0.52539 -2.603,1.561 -8.013531,0.34054 -13.019531,-2.93946 -2.414,-1.583 -5.846953,-3.09909 -7.626953,-3.37109 -11.836001,-1.806 -24.543922,-13.65519 -17.419922,-16.24219 0.903,-0.328 0.03341,-1.92669 -1.933594,-3.55469 -3.52,-2.914 -10.243891,-17.72059 -22.337891,-49.18359 -3.383,-8.8 -7.283875,-18.39903 -8.671875,-21.33203 -5.177,-10.945 -5.054047,-13.1685 1.751953,-31.3125 7.613,-20.295 9.110625,-21.76467 31.390625,-30.763674 6.855469,-2.769406 11.170043,-4.27341 13.466797,-4.210937 z M 188.43945,116.13477 c 0.61532,-0.0136 1.32466,0.1397 2.19141,0.4082 4.704,1.457 69.02901,28.50375 72.16602,30.34375 0.406,0.238 -11.41682,29.6089 -12.88282,32.0039 -0.076,0.12301 -2.03637,0.80844 -4.35937,1.52344 -3.021,0.93 -3.8566,0.70689 -2.9336,-0.78711 0.769,-1.244 0.32063,-1.92268 -1.10937,-1.67968 -5.814,0.99 -29.16405,-9.16455 -26.87305,-11.68555 0.749,-0.824 0.44427,-0.97303 -0.67773,-0.33203 -1.121,0.641 -4.63364,0.0723 -7.80664,-1.26172 -3.338,-1.403 -4.76477,-2.7607 -3.38477,-3.2207 1.736,-0.578 1.53653,-1.12024 -0.73047,-1.99024 -1.734,-0.666 -2.66456,-0.46959 -2.10156,0.44141 2.181,3.529 -2.52209,3.48708 -4.99609,-0.0449 -3.11,-4.441 -11.5156,-9.14747 -13.8086,-7.73047 -7.518,4.647 -9.25711,-2.58638 -3.66211,-15.23438 1.947,-4.4 4.79603,-11.05787 6.33203,-14.79687 1.79925,-4.37925 2.79079,-5.91621 4.63672,-5.95703 z m 98.89453,21.31054 c 1.84093,-0.20941 6.59246,1.83374 18.67383,6.64649 29.617,11.8 26.05628,8.2022 39.48828,39.9082 15.333,36.196 26.23596,63.62083 27.00196,67.92383 1.006,5.657 -11.38539,37.80508 -15.40039,39.95508 -3.425,1.834 -26.48175,12.15975 -31.46875,14.09375 -5.984,2.32 -7.87314,0.35092 -4.99414,-5.20508 1.358,-2.622 3.81117,-7.56824 5.45117,-10.99024 1.64,-3.422 4.28681,-8.62068 5.88281,-11.55468 3.303,-6.073 5.54495,-25.14593 2.75195,-23.41993 -1.068,0.66 -1.41204,-0.74345 -0.87304,-3.56445 0.67,-3.508 0.31922,-4.30361 -1.42578,-3.22461 -1.71201,1.058 -2.05713,0.4482 -1.32813,-2.34179 0.606,-2.31601 0.19731,-3.62468 -1.05469,-3.38868 -1.122,0.211 -1.8397,-0.61684 -1.5957,-1.83984 0.245,-1.222 -0.40913,-2.2207 -1.45313,-2.2207 -1.126,0 -1.40926,-1.5373 -0.69726,-3.7793 0.661,-2.084 0.48542,-3.33692 -0.39258,-2.79492 -0.875,0.541 -2.67405,-1.55902 -3.99805,-4.66602 -1.324,-3.107 -3.98887,-9.21431 -5.92187,-13.57031 -1.932,-4.357 -3.6181,-9.68008 -3.74609,-11.83008 -0.129,-2.15 -0.70716,-3.61676 -1.28516,-3.25976 -1.083,0.668 -12.28125,-23.0361 -12.28125,-25.9961 0,-0.912 -0.8013,-1.6582 -1.7793,-1.6582 -0.978,0 -1.77734,-1.12124 -1.77734,-2.49024 0,-1.37 -1.99274,-6.77 -4.42774,-12 -2.435,-5.231 -4.43436,-11.71139 -4.44336,-14.40039 -0.01,-2.64512 -0.33808,-4.16915 1.09375,-4.33203 z m -9.86914,16.5586 c 0.81662,0.0963 1.49344,0.77914 2.00782,2.04101 0.688,1.686 4.83289,11.61731 9.21289,22.07031 l 7.96289,19.00586 -10.73047,26.32813 c -5.903,14.48 -13.52264,33.12845 -16.93164,41.43945 -3.409,8.311 -7.64411,18.71133 -9.41211,23.11133 -17.565,43.724 -18.58053,45.6335 -25.64453,48.1875 -3.833,1.387 -5.52621,2.79255 -4.28321,3.56055 1.175,0.726 -1.78339,2.41164 -6.90039,3.93164 -4.926,1.463 -11.65889,4.07092 -14.96289,5.79492 -3.303,1.724 -12.00584,5.29836 -19.33984,7.94336 -7.333,2.645 -18.93139,6.99215 -25.77539,9.66015 -23.871,9.30501 -21.67261,9.22404 -39.84961,1.45704 -10.899,-4.658 -17.22128,-8.45418 -18.86328,-11.32618 -3.095,-5.415 -6.721971,-12.88018 -6.917971,-14.24218 -0.082,-0.569 -2.09275,-5.18382 -4.46875,-10.25782 -6.578,-14.043 -4.258828,-14.46121 21.201171,-3.82421 l 21.80859,9.11132 22.4336,-9.16015 c 12.339,-5.039 29.43133,-12.00924 37.98633,-15.49024 18.201,-7.407 14.66984,-1.84136 40.33984,-63.56836 8.945,-21.511 19.31306,-46.30937 23.03906,-55.10937 9.851,-23.261 14.80078,-36.13481 14.42578,-37.50781 -0.181,-0.664 0.73893,-1.87536 2.04493,-2.69336 0.58612,-0.36713 1.12721,-0.5207 1.61718,-0.46289 z m -110.89843,11.76367 c 2.18481,0.17345 6.97295,2.29564 18.7832,7.33789 10.013,4.275 26.60705,11.21487 36.87305,15.42187 10.267,4.206 18.94039,7.84971 19.27539,8.09571 0.336,0.246 -2.26435,7.13936 -5.77735,15.31836 -3.513,8.179 -6.38867,15.83948 -6.38867,17.02148 0,1.182 -1.5607,2.14844 -3.4707,2.14844 -4.844,0 -12.60919,-3.76622 -11.49219,-5.57422 0.509,-0.823 -0.16691,-1.07745 -1.50391,-0.56445 -1.337,0.513 -4.37876,0.082 -6.75976,-0.95899 l -4.32813,-1.89258 4.25586,0.83985 c 3.104,0.613 3.72593,0.3099 2.29492,-1.1211 -1.07899,-1.079 -4.99417,-2.06826 -8.70117,-2.19726 -3.706,-0.129 -6.33861,-0.88183 -5.84961,-1.67383 1.204,-1.95 -21.25093,-12.00845 -23.58593,-10.56445 -1.076,0.665 -1.32099,0.28379 -0.58399,-0.90821 1.178,-1.906 -1.28419,-2.75025 -7.36719,-2.53125 -1.211,0.043 -1.77876,-0.60826 -1.25976,-1.44726 0.518,-0.839 -1.09022,-2.03421 -3.57422,-2.6582 -5.708,-1.43201 -5.65798,-3.03227 0.54102,-16.94727 2.782,-6.247 5.55701,-12.75675 6.16601,-14.46875 0.62913,-1.76706 0.75382,-2.81069 2.45313,-2.67578 z M 35.945312,208.80469 c 1.776817,-0.0906 3.470938,3.92159 10.320313,21.41797 9.174,23.434 8.223703,22.32082 24.845703,29.04882 23.335,9.446 39.891642,16.28524 43.556642,17.99024 7.657,3.564 20.46667,8.89678 41.26367,17.17578 20.718,8.247 21.60111,8.80389 19.28711,12.21289 -1.333,1.964 -3.70458,3.46022 -5.26758,3.32422 -1.562,-0.135 -2.83984,0.51245 -2.83984,1.43945 0,0.926 -0.8013,1.18994 -1.7793,0.58594 -0.977,-0.604 -1.77539,-0.34583 -1.77539,0.57617 0,1.488 -4.8153,3.80317 -9.7793,4.70117 -6.508,1.177 -16.88867,5.35197 -16.88867,6.79297 0,0.97 -2.62819,1.30186 -5.99219,0.75586 -7.873,-1.278 -22.45312,-7.97059 -22.45312,-10.30859 0,-1.011 -0.7452,-1.3765 -1.6582,-0.8125 -1.796,1.109 -6.24219,-0.37389 -32.117191,-10.71289 -9.289,-3.712 -17.946281,-7.80475 -19.238281,-9.09375 -1.292,-1.289 -3.392063,-2.3418 -4.664063,-2.3418 -14.678,0 -30.228797,-21.97236 -30.216797,-42.69336 0.006,-9.587 9.513844,-36.21303 14.089844,-39.45703 0.483375,-0.34256 0.896606,-0.58066 1.30664,-0.60156 z M 144.875,215.96094 c 0.97519,-0.0877 2.40598,0.48178 4.87305,1.51953 3.194,1.344 20.38517,8.6418 38.20117,16.2168 l 32.39258,13.77343 -2.66211,6.48633 c -8.099,19.729 -12.30807,28.46227 -13.16407,27.32227 -2.55099,-3.399 -20.61125,-10.5341 -18.65624,-7.3711 0.651,1.054 -0.44527,0.89453 -2.44727,-0.35547 -1.994,-1.245 -3.27094,-2.83996 -2.83594,-3.54296 0.434,-0.704 -2.21658,-2.25708 -5.89258,-3.45508 -3.676,-1.197 -11.48456,-4.34605 -17.35156,-6.99805 -13.87,-6.271 -24.22369,-9.71778 -27.55469,-9.17578 -1.628,0.266 -1.95107,-0.11561 -0.83007,-0.97461 1.643,-1.258 8.3185,-16.16041 13.1875,-29.44141 0.98606,-2.69043 1.48641,-3.89117 2.74023,-4.0039 z m 158.96094,4.48242 c 1.638,0 10.83203,18.96961 10.83203,22.34961 0,1.492 1.59969,6.02331 3.55469,10.07031 4.993,10.334 3.79265,16.92347 -7.77735,42.73047 -3.45,7.695 -22.32047,53.96569 -25.10547,61.55469 -2.497,6.806 -6.54381,9.56009 -20.00781,13.62109 -5.133,1.549 -9.33203,3.47053 -9.33203,4.26953 0,4.311 -12.82497,3.59472 -24.41797,-1.36328 -6.615,-2.828 -14.62669,-6.15934 -17.80469,-7.40234 -3.178,-1.243 -5.76404,-3.16263 -5.74804,-4.26563 0.028,-1.962 37.82097,-18.89748 42.16797,-18.89648 1.209,0 3.49417,-3.00097 5.07617,-6.66797 7.643,-17.707 38.81231,-93.409 42.82031,-104 2.498,-6.6 5.08119,-12 5.74219,-12 z" />
</svg>
