<svg
   xmlns="http://www.w3.org/2000/svg"
   viewBox="0 0 96 96">
<path
   d="m 42.732852,53.12534 c -11.506691,0 -20.744457,-9.237767 -20.744457,-20.744458 0,-11.506692 9.237766,-20.744458 20.744457,-20.744458 11.506692,0 20.744458,9.237766 20.744458,20.744458 0,11.506691 -9.237766,20.744458 -20.744458,20.744458 m 0,-51.8611452 c 17.179005,0 31.116687,13.9376832 31.116687,31.1166872 0,17.179004 -13.937682,31.116687 -31.116687,31.116687 -17.179004,0 -31.116686,-13.937683 -31.116686,-31.116687 0,-17.179004 13.937682,-31.1166872 31.116686,-31.1166872 z M 72.390945,65.118229 c 2.106859,2.106859 2.106859,5.348181 0,7.292974 L 51.646487,93.155661 c -2.106859,2.106859 -5.348181,2.106859 -7.292974,0 -2.106859,-2.106859 -2.106859,-5.348181 0,-7.292974 L 65.097971,65.118229 c 1.944793,-2.106859 5.348181,-2.106859 7.292974,0 z M 84.383834,6.4503093 c 0,2.9171896 -2.268925,5.1861147 -5.186114,5.1861147 -2.917189,0 -5.186115,-2.2689251 -5.186115,-5.1861147 0,-2.9171894 2.268926,-5.1861145 5.186115,-5.1861145 2.755123,0 5.186114,2.2689251 5.186114,5.1861145 z" />
</svg>