<svg
   xmlns="http://www.w3.org/2000/svg"
   version="1.1"
   viewBox="0 0 200 200">
  <path
     d="m 155.04198,128.95044 -1.5241,-0.6127 c -6.00986,-2.41915 -8.53718,-3.30864 -9.39976,-2.49514 -1.74322,1.6418 -4.41344,1.79545 -6.33346,0.36443 -1.92003,-1.43101 -2.53586,-4.03379 -1.46069,-6.17349 0.13564,-0.27099 0.23881,-0.48815 0.32008,-0.66705 v -0.0433 l -0.59661,-1.0143 c -0.54224,-0.98186 -1.29637,-2.07744 -2.16951,-3.3411 -6.13485,-8.43691 -10.23354,-18.179343 -11.97513,-28.464504 -0.14499,-0.852815 -0.0608,-1.728847 0.24408,-2.53841 1.78298,-4.796675 3.17951,-9.728254 4.17623,-14.747585 -16.67643,3.212013 -33.539765,-4.592943 -41.88324,-19.385064 -0.232996,-0.379706 -0.504253,-0.813507 -0.765219,-1.225668 -1.653319,1.236083 -3.202488,2.605661 -4.631937,4.09497 l -23.436233,27.33092 -1.594554,2.966933 c 23.111146,30.194688 39.160392,51.033398 48.001553,61.729288 5.30267,3.24909 11.16835,5.47344 17.29207,6.55738 h 3.11363 c 0.50393,0.0169 1.00227,0.11091 1.47766,0.27891 l 33.08906,0.26387 c 4.39314,-0.23325 8.59128,-0.58578 11.93238,-0.95467 0.42274,-0.0459 0.78571,-0.32116 0.94386,-0.71587 3.05216,-8.20657 -2.62655,-16.33186 -14.82016,-21.20787 z m -44.85545,-10.03569 c -0.85088,1.62467 -2.5317,2.64434 -4.3657,2.64844 l -0.0108,0.0263 c -1.62151,0.001 -3.14044,-0.79315 -4.06357,-2.12624 L 89.960513,102.44384 c -2.117161,-3.050064 -0.235298,-7.257729 3.449546,-7.712865 l 3.422369,-0.417704 -7.365612,-10.674253 c -1.548676,-2.246651 -0.982853,-5.32337 1.263795,-6.872046 2.246651,-1.548674 5.323372,-0.982856 6.872047,1.263796 l 11.997552,17.356447 c 2.10461,3.053602 0.22008,7.251035 -3.46036,7.707325 l -3.40628,0.4177 7.14344,10.30537 c 1.04111,1.50994 1.16027,3.47231 0.30952,5.09714 z m 68.92734,34.71976 c -1.44515,3.89906 -4.97215,6.64466 -9.10661,7.08907 -3.49837,0.35252 -7.90258,0.72696 -12.82213,0.97632 l -37.08296,-0.33617 c -0.46705,-0.0607 -0.93225,-0.12903 -1.39692,-0.20081 H 61.735607 c -2.66305,-0.0892 -4.775743,-2.27388 -4.775743,-4.93843 0,-2.66454 2.112693,-4.8492 4.775743,-4.93842 h 32.889041 c -2.171984,-2.62108 -4.777154,-5.85329 -7.815508,-9.69662 -0.09895,0.006 -0.196846,0.0151 -0.297115,0.0151 H 46.884851 c -2.711877,-0.0199 -4.899823,-2.22383 -4.899823,-4.93578 0,-2.71194 2.187946,-4.91596 4.899823,-4.93579 h 32.215913 c -2.301986,-2.97009 -4.769943,-6.17389 -7.403874,-9.61138 -0.195301,0.0244 -0.391874,0.0371 -0.58869,0.0382 H 34.513135 c -2.711878,-0.0198 -4.899824,-2.22383 -4.899824,-4.93577 0,-2.71195 2.187946,-4.91596 4.899824,-4.93579 h 29.680668 c -2.348777,-3.08971 -4.801256,-6.32597 -7.357433,-9.70876 H 28.519637 c -2.725888,0 -4.935651,-2.20976 -4.935651,-4.935648 0,-2.725886 2.209763,-4.935652 4.935651,-4.935652 H 49.394763 C 48.403675,91.390405 47.40388,90.060775 46.386668,88.705285 44.00277,85.78113 43.576922,81.72277 45.301906,78.367462 l 1.849717,-3.449811 c 0.165803,-0.316916 0.367778,-0.613549 0.601881,-0.883957 L 71.721695,46.095346 c 10.099285,-10.565805 14.465508,-8.136108 15.891979,-7.360337 2.238963,1.492438 4.042995,3.550921 5.228809,5.966322 6.229377,11.34768 19.098007,17.345285 31.793987,14.818038 3.38424,-1.489126 7.31506,-0.979546 10.20773,1.323298 1.64069,1.796314 2.26296,4.299856 1.6542,6.655279 -0.85249,6.380965 -2.41003,12.647702 -4.64408,18.685288 1.6489,8.43134 5.13804,16.394936 10.21855,23.322766 1.00877,1.49693 1.87663,2.8094 2.53314,3.97016 l 0.47206,0.80269 c 0.29347,0.47071 0.55962,0.95791 0.79714,1.45919 3.91967,0.62106 7.73224,1.79148 11.32522,3.47672 l 1.50774,0.60188 c 17.44326,6.98064 25.45535,20.25821 20.4057,33.81787 z m 14.53201,-19.78088 c -0.86597,2.56931 -3.6567,3.94391 -6.22141,3.06444 -2.56471,-0.87947 -3.92462,-3.67739 -3.03165,-6.23745 C 197.68043,91.839667 181.6846,49.01991 146.19003,28.407326 110.69591,7.7950002 65.589121,15.13064 38.437873,45.918429 11.286625,76.70622 9.648585,122.37624 34.537236,155.01449 c 24.888964,32.63867 69.372744,43.1549 106.247434,25.115 2.42299,-1.20525 5.36408,-0.21052 6.55804,2.21805 1.19397,2.42857 0.18557,5.365 -2.24855,6.54765 C 104.05964,208.95495 54.568506,197.2417 26.883433,160.92061 -0.80129108,124.59997 1.0295045,73.78631 31.243279,39.533906 61.457053,5.2815015 111.64493,-2.8767651 151.13677,20.058515 190.6291,42.994086 208.42749,90.6364 193.64588,133.85363 Z" />
</svg>
