<svg
   xmlns="http://www.w3.org/2000/svg"
   viewBox="0 0 128 128">
  <path
     style="clip-rule:evenodd;fill:currentColor;fill-rule:evenodd"
     d="M 52.054688,0.02734375 C 49.555329,0.16049708 47.21618,3.2523606 48.232422,6.2207031 L 48.080078,17.355469 c -22.19103,9.550287 -36.382334,34.175284 -33.832031,58.152343 1.910444,24.054763 20.523614,45.577398 44.105469,50.798828 10.481791,2.38629 21.281939,1.2758 31.935546,1.59961 L 112.60742,128 c 3.53273,-0.56927 2.04549,-4.75299 2.36328,-7.25977 v -16.49218 l -0.25195,-1.08789 -0.69336,-0.86719 C 104.36306,94.928636 94.699442,87.563552 85.037109,80.199219 c 5.352564,-5.56836 2.771048,-14.421696 1.552735,-19.847657 9.355582,-8.364947 18.552916,-16.901693 27.671876,-25.523437 2.19426,-3.552277 -3.12774,-5.7917 -4.94727,-8.222656 C 99.467474,17.902783 86.547178,12.76789 73.408203,12.378906 73.239604,8.9371494 73.908377,5.355281 73.03125,2.0292969 70.151675,-2.6167509 64.508447,1.9635346 66.013672,6.28125 l -0.04492,6.275391 C 62.775988,12.101446 57.105901,15.378749 55.642578,13.591797 55.460003,9.7275235 56.15225,5.7163312 55.261719,1.96875 54.359622,0.51683991 53.190759,-0.03318049 52.054688,0.02734375 Z M 72.800781,22.707031 c 9.890152,0.295716 19.686729,3.628731 27.337889,9.927735 0.14645,2.255146 -2.795466,3.292578 -4.062498,4.957031 -6.080101,5.5946 -12.16013,11.188603 -18.240234,16.783203 -9.182999,-4.180048 -20.945039,1.854459 -22.970704,11.730469 -2.718874,9.976001 5.491565,20.976192 15.878907,21.013672 3.401829,-0.466861 6.351491,-1.04779 8.751953,1.86914 8.368047,6.485112 16.979812,12.719049 25.195316,19.361329 0.21025,2.82102 0.12492,5.73038 -0.0293,8.56055 -1.59113,1.46874 -4.25146,0.38391 -6.302735,0.70507 l -27.136719,-0.0996 c -19.835374,0.1835 -38.693237,-13.58145 -44.625,-32.499995 -6.721742,-19.383712 0.961482,-42.530283 18.015625,-53.966797 3.300037,-3.410693 3.643692,-1.139667 3.275391,2.154297 0.05252,4.310409 -0.18008,8.643001 0.07422,12.9375 1.824906,5.39632 9.079371,1.60257 7.326171,-3.169922 L 55.341797,25.46875 C 60.89829,23.443765 66.86669,22.529602 72.800781,22.707031 Z M 105.91406,43 c -2.67481,2.401544 -5.36861,4.779905 -7.91406,7.320312 6.62753,9.120416 8.13788,21.639616 3.88281,32.078126 C 100.88196,84.910961 99.579791,87.304347 98,89.5 c 2.85267,2.166767 5.70592,4.333233 8.55859,6.5 8.06948,-10.946359 10.5334,-25.69265 6.61719,-38.695312 C 111.65121,52.148392 109.18503,47.268924 105.91406,43 Z M 71.25,63.423828 c 1.360158,-0.107393 2.750915,0.23208 3.978516,1.164063 1.80146,1.229662 2.932806,3.35703 2.902343,5.542968 0.413751,7.287833 -10.89316,9.223159 -12.972656,2.25586 -1.784407,-4.311353 2.011324,-8.640713 6.091797,-8.962891 z" />
</svg>
