<svg
   xmlns="http://www.w3.org/2000/svg"
   version="1.1"
   viewBox="0 0 32 32">
   <path
      d="m 20.868001,0.14801444 c -5.577017,0 -10.313879,4.28868266 -10.9090486,9.80949686 C 4.435256,10.554122 0.14801444,15.290984 0.14801444,20.86656 A 10.99119,10.99119 0 0 0 11.131999,31.851986 c 5.577017,0 10.332613,-4.288683 10.909049,-9.809497 5.522255,-0.596611 9.810938,-5.333473 9.810938,-10.909049 A 10.99119,10.99119 0 0 0 20.868001,0.14801444 Z M 29.2782,12.36269 a 8.5456613,8.5456613 0 0 1 -7.162216,7.162215 V 12.36269 Z M 2.7218005,19.63731 a 8.5456613,8.5456613 0 0 1 7.1622153,-7.180949 v 7.162215 H 2.7218005 Z M 19.543639,22.115984 A 8.4952232,8.4952232 0 0 1 11.131999,29.37187 8.4937821,8.4937821 0 0 1 2.7218005,22.117425 H 19.543639 Z m 0.09367,-9.753294 v 7.255886 H 12.36269 V 12.36269 Z M 29.2782,9.8840158 H 12.456361 a 8.4952232,8.4952232 0 0 1 8.41164,-7.2558862 8.4937821,8.4937821 0 0 1 8.410199,7.2544451 z" />
</svg>
