<svg xmlns="http://www.w3.org/2000/svg" viewBox="0 0 400 400">
<path d="M186.466 0.584 C 184.536 0.809,178.672 1.487,173.434 2.090 C 62.874 14.826,-17.774 126.319,3.514 236.998 C 25.464 351.116,138.320 423.179,250.125 394.468 C 325.958 374.995,382.507 314.427,397.678 236.430 C 400.315 222.869,400.315 178.133,397.678 164.573 C 381.183 79.769,314.897 15.286,231.078 2.506 C 221.162 0.994,193.249 -0.209,186.466 0.584 M228.070 123.778 C 255.743 127.742,277.231 135.089,295.262 146.752 C 303.700 152.211,313.784 160.849,313.784 162.619 C 313.784 163.053,301.664 163.409,286.850 163.409 L 259.915 163.409 253.427 159.058 C 194.808 119.750,99.231 164.764,126.643 218.769 C 148.503 261.837,228.579 269.333,265.163 231.736 C 269.881 226.887,275.662 218.261,275.682 216.040 C 275.687 215.385,263.624 215.147,240.853 215.353 C 198.828 215.733,196.259 215.507,191.783 211.031 C 186.910 206.158,186.952 198.813,191.880 193.885 L 195.288 190.476 262.495 190.476 L 329.702 190.476 330.379 194.994 C 339.482 255.695,224.695 298.876,136.157 268.058 C 30.869 231.410,57.597 138.628,177.945 122.997 C 186.008 121.950,218.880 122.462,228.070 123.778 "></path>
</svg>