<svg
   xmlns="http://www.w3.org/2000/svg"
   version="1.1"
   viewBox="0 0 31 30">
  <g>
    <g
       transform="translate(-16,-15)">
      <path
         d="m 44.972473,16.488558 c 1.644266,1.644265 1.644266,4.319632 0,5.963897 -0.947301,0.947656 -2.251972,1.382073 -3.581655,1.192661 -0.06353,-0.009 -0.125405,-0.0068 -0.186338,3.56e-4 -0.393048,-0.0511 -0.804354,0.0024 -1.190291,0.181352 -0.549628,0.254487 -0.941967,0.709527 -1.131855,1.237702 -0.186564,0.518812 -0.177684,1.108266 0.07218,1.647939 1.415738,3.058341 0.765001,6.715028 -1.619254,9.099281 -2.384492,2.38402 -6.041295,3.035823 -9.100466,1.6189 -0.547021,-0.253301 -1.145248,-0.259464 -1.669277,-0.06496 -0.519046,0.192613 -0.965435,0.582108 -1.216364,1.124269 -0.160264,0.345874 -0.220944,0.712135 -0.19546,1.067253 -0.0094,0.07006 -0.01204,0.14164 0,0.215253 0.222958,1.341536 -0.217505,2.716025 -1.177724,3.676957 -1.644146,1.643673 -4.319514,1.643673 -5.964016,0 -0.796529,-0.796885 -1.235215,-1.855843 -1.235215,-2.982126 0,-1.126638 0.438686,-2.185715 1.235215,-2.982126 0.947064,-0.947419 2.252449,-1.381125 3.648507,-1.189935 0.140944,0.02844 0.283765,0.04812 0.428965,0.04812 0.305692,0 0.616364,-0.06496 0.911743,-0.201621 0.536471,-0.248442 0.922765,-0.688192 1.117629,-1.200365 0.200673,-0.5277 0.197831,-1.132329 -0.05807,-1.685276 -1.415499,-3.05846 -0.764765,-6.715028 1.619374,-9.099165 2.38449,-2.384492 6.041533,-3.035582 9.100467,-1.619016 0.544887,0.252471 1.140864,0.259701 1.663585,0.06744 0.521537,-0.19202 0.970058,-0.582581 1.222057,-1.126757 0.19534,-0.421733 0.242396,-0.873693 0.164516,-1.312969 -0.222838,-1.34213 0.217504,-2.716734 1.177964,-3.677076 1.644145,-1.6445 4.319631,-1.6445 5.963775,0 z M 28.234924,26.711517 c -1.824312,1.824432 -1.824312,4.782377 0,6.60669 1.824434,1.824551 4.782497,1.824551 6.606811,0 1.824432,-1.824313 1.824432,-4.782258 0,-6.60669 -1.824314,-1.824312 -4.782377,-1.824312 -6.606811,0 z" />
    </g>
  </g>
</svg>
