<svg viewBox="0 0 28 32" xmlns="http://www.w3.org/2000/svg"
version="1.1">
  <path d="M24.7074 11.2938L26.1348 8.82149L24.1377 5.36272L28.5691 5.36277C28.0231 4.41668 27.0137 3.83394 25.9215 3.83377L23.2596 3.83394L21.9289 1.52861C21.3827 0.582743 20.3734 5.68132e-05 19.2812 0L19.2809 0.000151495L21.4967 3.83799L17.5027 3.83776L16.1046 6.25937C16.1045 6.25937 16.1043 6.25921 16.1042 6.25912L16.1018 6.24869H16.0467C14.4155 5.96633 12.7633 5.97322 11.162 6.24853C7.09578 6.94777 3.3586 9.38089 1.13458 13.233C0.669357 14.0388 0.29442 14.8714 0 15.7186L8.6184 15.7188L20.2877 22.456L24.4652 29.8403C25.0509 29.1624 25.5839 28.4221 26.0486 27.6171C28.2727 23.765 28.5111 19.3123 27.0836 15.4413C26.5335 13.9495 25.7347 12.545 24.7074 11.2938ZM22.2454 15.2644L20.425 18.4174L20.3808 18.4938L11.876 13.5836L11.8782 13.5798L11.8693 13.5797L13.778 10.2737L13.7835 10.2797L22.2883 15.1899L22.2454 15.2644Z"></path>
  <path d="M10.6954 25.5962L18.475 25.5961L6.80566 18.8589L10.6954 25.5962Z"></path>
</svg>