<svg
   xmlns="http://www.w3.org/2000/svg"
   viewBox="0 0 359 359">
<path
   d="m 87.349614,89.59961 c -39.533817,0.19379 -73.057059,27.70993 -83.5605471,65.08008 -0.7455611,1.90292 -1.1413731,3.28461 -1.2382813,3.7207 -1.5,6.7 -2.4003906,13.70039 -2.4003906,20.90039 0,49.7 38.999609,90.09961 87.099609,90.09961 C 107.25001,269.40039 129.15001,258.5 152.25,237 c 10.9,-10.1 20.5,-21.09883 27.5,-29.79883 0,-0.1 0.0996,-0.10117 0.0996,-0.20117 25,29.5 58.7,62.20117 92,62.20117 40.01909,-0.19521 73.83259,-28.21649 83.89062,-66.28906 0.41319,-1.17281 0.63872,-1.99949 0.71094,-2.3125 1.5,-6.7 2.39844,-13.69844 2.39844,-20.89844 -0.1,-49.7 -39.0996,-90.10156 -87.0996,-90.10156 -20,0 -41.90001,10.90039 -65,32.40039 -10.90001,10.1 -20.5,21.10078 -27.5,29.80078 -24.90001,-29.5 -58.60039,-62.20117 -91.900396,-62.20117 z m 0,35.80078 c 0.955638,0 2.017031,0.10073 3.222656,0.28711 17.85621,7.36663 32.82935,19.70337 36.87891,23.61328 14.89999,14.5 28.89882,31.09961 28.79883,31.09961 -6.7,8.4 -16.19884,19.79961 -27.29884,30.09961 -20.49999,19 -34.001556,23.09961 -41.601556,23.09961 -28.8,0 -52.199219,-24.19961 -52.199219,-54.09961 0,-29.6 23.399219,-53.79961 52.199219,-54.09961 z m 184.300776,0 c 28.80001,0 52.19922,24.19961 52.19922,54.09961 0,29.6 -23.39922,53.79961 -52.19922,54.09961 -0.50972,0 -1.05846,-0.0349 -1.63085,-0.0879 -18.51631,-7.18344 -34.20113,-19.98742 -38.36915,-24.01171 -14.8,-14.5 -28.80078,-31 -28.80078,-31 -0.004,-0.004 -0.006,-0.007 -0.01,-0.0117 6.69521,-8.38963 16.15805,-19.732 27.21094,-29.98828 20.5,-19.2 33.89962,-23.09961 41.59962,-23.09961 z" />
</svg>