<svg
   xmlns="http://www.w3.org/2000/svg"
   version="1.1"
   viewBox="0 0 32 33">
  <g
     clip-path="url(#idex_logo_svg__a)">
    <path
       style="clip-rule:evenodd;fill-rule:evenodd"
       d="m 0,28.171 0.556,0.714 3,3.857 h 24.89 L 32,28.172 23.11,16.742 31.444,6.028 32,5.314 28.445,0.742 H 3.555 L 2.989,1.47 0,5.313 8.89,16.743 Z m 10.72,-2.286 c -0.7445666,1.32e-4 -1.163723,-0.855966 -0.707,-1.444 l 2.432,-3.127 3.556,4.571 z M 22.546,16.014 30.313,6.028 H 15.922 C 15.456777,6.028551 15.19505,6.5632549 15.48,6.931 L 16,7.599 h 5.282 c 0.744104,6.988e-4 1.16244,0.856332 0.706,1.444 l -2.432,3.127 2.989,3.843 z M 1.133,5.314 18.64,27.821 l 0.126,0.16 c 0.28495,0.367745 0.02322,0.902449 -0.442,0.903 H 1.69 l 2.445,3.143 H 26.757 L 3.556,2.2 Z" />
  </g>
  <defs>
    <clipPath
       id="idex_logo_svg__a">
      <path
         d="M0 .742h128.896v32H0z" />
    </clipPath>
  </defs>
</svg>
