<svg
   xmlns="http://www.w3.org/2000/svg"
   viewBox="0 0 165 165"
   version="1.1">
  <path
     d="m 82.591,21.590894 c -0.885,26.87 -0.858,55.793 0,82.828996 0.76,-27.026996 0.785,-55.957996 0,-82.828996 z m -29.823,142.195996 0.06,0.208 c 0.26,-0.127 0.53,-0.239 0.785,-0.38 5.322,-2.932 10.978,-5.088 16.74,-6.961 7.34,-2.385 14.79,-2.648 22.233,-0.603 6.428304,1.76379 12.64405,4.22648 18.536,7.344 0.367,0.193 0.676,0.579 1.212,0.467 -0.0518,-0.0989 -0.11712,-0.19006 -0.194,-0.271 -9.27,-7.118 -18.54,-14.237 -27.81,-21.358 -1.306,-1.008 -2.361,-0.905 -3.637,0.087 -9.3,7.18 -18.609,14.335 -27.925,21.467 z M 47.261,61.875894 c -0.606,0.778 -0.322,1.36 0.267,1.979 2.23,2.364 3.573,5.214 4.497,8.281 1.14,3.779 1.576,7.666 1.755,11.593 0.276,6.031 0.19,12.063 0.079,18.094996 -0.149829,8.04108 -0.191166,16.08381 -0.124,24.126 0.075,8.873 -1.152,17.513 -3.986,25.936 -1.106,3.284 -2.21,6.569 -3.761,10.049 0.25,-0.081 0.493,-0.182 0.727,-0.302 8.09,-6.508 16.145,-13.064 24.574,-19.138 1.085,-0.781 1.094,-1.764 0.433,-2.772 -0.664548,-1.00905 -1.387096,-1.97868 -2.164,-2.904 -2.246,-2.675 -3.134,-5.799 -3.188,-9.216 -0.07,-4.473 -0.158,-8.945 -0.212,-13.415 -0.194,-16.483996 -0.07,-32.964996 -0.27,-49.458996 -0.255,-21.156 -0.258,-42.315 -0.37,-63.4700001 V 0.40989393 H 65.215 C 64.285,8.8088939 63.335,17.186894 61.727,25.479894 c -2.519,13.029 -6.29,25.584 -14.466,36.395 z m 52.075,-23.117 c -0.258,18.94 -0.03,37.885 -0.333,56.825 -0.158,9.845996 -0.127,19.698996 -0.097,29.554996 0.015,4.997 -1.015,9.569 -4.58,13.321 -0.331,0.376 -0.63,0.78 -0.894,1.206 -0.79,1.17 -0.606,2.093 0.58,2.946 8.097,5.842 15.859,12.115 23.624,18.379 0.358,0.301 0.67,0.739 1.376,0.651 -2.588,-5.802 -4.346,-11.762 -5.831,-17.823 -0.576,-2.341 -1.146,-4.69 -1.349,-7.1 -0.503,-5.914 -0.358,-11.849 -0.473,-17.775 -0.194,-10.145 -0.097,-20.295996 -0.142,-30.459996 -0.0367,-3.466679 0.17479,-6.93154 0.633,-10.368 0.643,-4.617 1.743,-9.093 4.628,-12.914 1.885,-2.5 1.913,-2.49 0.07,-5.126 -6.398,-9.166 -9.877,-19.504 -12.266,-30.276 -2.148,-9.7 -3.318,-19.537 -4.31,-29.40100007 H 99.585 C 99.457,13.194894 99.509,25.975894 99.336,38.758894 Z" />
</svg>
