<svg
   xmlns="http://www.w3.org/2000/svg"
   version="1.1"
   viewBox="0 0 52 52">
  <path
     d="m 49.069455,28.516953 c -0.01109,1.559502 -0.849424,2.65265 -2.181821,3.419543 -5.168617,2.975833 -10.328776,5.965874 -15.492784,8.950152 -0.943341,0.545036 -1.888204,1.087774 -2.901306,1.671191 -0.01584,-0.255252 -0.03532,-0.427199 -0.03564,-0.599162 -0.0016,-1.483118 0.01426,-2.966616 -0.01109,-4.449354 -0.0079,-0.421449 0.133059,-0.646746 0.497166,-0.855934 4.696352,-2.697948 9.375471,-5.426596 14.07911,-8.111486 0.837164,-0.477869 1.204375,-1.062442 1.197469,-2.045814 -0.03643,-5.119525 -0.01695,-10.239818 -0.01695,-15.36011 v -0.895475 c 1.226995,0.741559 2.375026,1.349546 3.425686,2.094944 0.957899,0.679379 1.440492,1.709195 1.444705,2.893694 0.01647,4.429398 0.02677,8.858798 -0.0048,13.287811 m -0.03295,9.474456 c -0.11009,1.370271 -0.912674,2.343281 -2.097106,3.025352 -4.535748,2.611586 -9.064224,5.235052 -13.595758,7.853544 -1.422481,0.822163 -2.845342,1.644326 -4.268963,2.464572 -0.171346,0.09869 -0.349201,0.185395 -0.581881,0.308222 -0.01426,-0.23645 -0.03406,-0.409173 -0.03453,-0.582277 -0.0032,-1.503457 0.0079,-3.006929 -0.0079,-4.510386 -0.0032,-0.339681 0.08205,-0.550026 0.394916,-0.730432 6.608713,-3.807581 13.210916,-7.627074 19.81502,-11.443117 0.100744,-0.05834 0.209679,-0.102487 0.397498,-0.193067 0,1.334576 0.07778,2.578186 -0.02075,3.807589 M 19.271392,10.590172 c -0.793841,-0.467505 -1.471539,-0.462898 -2.265379,0.0015 -4.44682,2.601217 -8.9132017,5.169424 -13.3734379,7.747994 C 3.4435995,18.448679 3.2492699,18.549237 2.9161627,18.731172 3.0341735,17.033493 2.6719993,15.432537 3.2492699,13.883399 3.565111,13.036286 4.1542618,12.397593 4.9350812,11.945826 8.6562849,9.7917707 12.375588,7.6334955 16.105219,5.4932588 c 1.361543,-0.7818616 2.748747,-0.7630543 4.109514,0.021876 4.234464,2.4419276 8.46625,4.8880762 12.691906,7.3457402 0.180533,0.105164 0.404785,0.337002 0.407842,0.51318 0.03073,1.743356 0.01837,3.487479 0.01837,5.358651 -1.536706,-0.888182 -2.956114,-1.707658 -4.375142,-2.528287 -3.23096,-1.867716 -6.470727,-3.720464 -9.686354,-5.614282 m 4.320334,31.992235 c -0.408998,-0.233376 -0.705292,-0.400333 -1.000066,-0.57076 -3.740371,-2.160959 -7.476924,-4.32922 -11.226497,-6.474442 -0.404769,-0.23145 -0.555807,-0.478637 -0.550437,-0.950747 0.02645,-2.437705 0.01695,-4.875409 0.0063,-7.31273 -0.0015,-0.32971 0.05101,-0.558088 0.376795,-0.740024 1.38071,-0.771499 2.743377,-1.575623 4.113728,-2.365929 0.09932,-0.05758 0.206606,-0.100175 0.388675,-0.186924 v 2.73709 c 0,1.48312 0.02344,2.966239 -0.0095,4.448591 -0.01838,0.845578 0.305513,1.415182 1.042613,1.831253 2.119346,1.196782 4.211099,2.441927 6.332742,3.634108 0.417425,0.234517 0.54353,0.494758 0.535484,0.955729 -0.02804,1.621293 -0.01109,3.243743 -0.01109,4.994785 m 3.8e-4,9.08027 C 23.343238,51.534529 23.156179,51.446187 22.977167,51.342939 17.091773,47.944119 11.216722,44.526892 5.3159787,41.154936 3.6608343,40.208807 2.9068644,38.861948 2.9221979,36.970434 c 0.032631,-4.02293 0.024553,-8.046621 0.00475,-12.069926 -0.0095,-1.817052 0.7294332,-3.13167 2.3209626,-4.038276 4.1428586,-2.359404 8.2638575,-4.757189 12.3848725,-7.154976 0.356091,-0.207268 0.616744,-0.241045 0.987409,-0.01804 1.423241,0.856707 2.870639,1.673882 4.384345,2.549015 -0.287867,0.171571 -0.507129,0.305144 -0.729069,0.433343 -4.460996,2.579721 -8.917415,5.167119 -13.3887712,7.728801 -0.7332665,0.41991 -1.072884,0.963798 -1.0663736,1.815132 0.022969,3.169669 0.025345,6.33972 -0.00116,9.509389 -0.00792,0.876665 0.3392374,1.430159 1.0936033,1.861968 4.7182125,2.701385 9.4180175,5.436177 14.1331575,8.142947 0.399035,0.229147 0.569224,0.466357 0.5585,0.94575 -0.03485,1.623986 -0.01267,3.249509 -0.01267,4.987102 M 24.408978,0.731495 c 1.141504,-0.56039105 2.347036,-0.52239159 3.453264,0.1086174 3.840038,2.1909021 7.669352,4.4009948 11.482177,6.6383409 1.227375,0.7204485 1.853703,1.8784635 1.860213,3.2974837 0.02297,4.976357 0.01426,9.953097 3.81e-4,14.929452 -3.81e-4,0.184622 -0.119595,0.452152 -0.267164,0.540048 -1.477289,0.880891 -2.972604,1.732226 -4.591331,2.666468 v -0.782629 c 0,-5.118757 -0.01426,-10.237514 0.01267,-15.355887 0.0048,-0.982989 -0.334247,-1.616692 -1.205135,-2.112217 C 30.694579,8.1240545 26.261557,5.5401116 21.820091,2.9715213 21.628058,2.8605912 21.440239,2.7419912 21.150059,2.565813 22.290423,1.9175237 23.320776,1.2657796 24.408994,0.7314887" />
</svg>
