<svg xmlns="http://www.w3.org/2000/svg" viewBox="0 0 250 249">
  <defs><style>.cls-2{fill-rule:evenodd;}</style></defs>
  <path class="cls-2" d="M125,249c69.04,0,125-55.74,125-124.5S194.04,0,125,0,0,55.74,0,124.5s55.96,124.5,125,124.5Zm0-42.74c50.49,0,91.42-40.66,91.42-90.82S175.49,44.6,125,44.6,33.58,65.28,33.58,115.44s40.93,90.82,91.42,90.82Z"/>
  <path class="cls-2" d="M70.9,130.07c5.36,0,10.24-2.05,13.89-5.4,1.99,3.54,4.15,7.3,6.4,11.06,4.78,7.99,10.07,16.21,15.05,22.51,2.47,3.13,5.05,6.03,7.61,8.21,2.22,1.89,5.83,4.5,10.22,4.5s7.98-2.57,10.23-4.44c2.6-2.16,5.25-5.04,7.81-8.16,5.15-6.29,10.68-14.5,15.69-22.48,2.47-3.94,4.85-7.87,7.02-11.56,3.69,3.57,8.73,5.76,14.28,5.76,11.33,0,20.52-9.15,20.52-20.44s-9.19-20.44-20.52-20.44c-9.24,0-17.05,6.08-19.62,14.44-.51,.91-1.06,1.9-1.65,2.95-3.3,5.86-7.82,13.65-12.69,21.42-4.9,7.81-10.04,15.4-14.6,20.96-2.29,2.8-4.26,4.86-5.81,6.15-.24,.2-.45,.36-.64,.5-.16-.12-.34-.27-.54-.44-1.49-1.27-3.38-3.31-5.59-6.1-4.38-5.54-9.29-13.12-13.96-20.93-4.64-7.76-8.92-15.54-12.05-21.4-.42-.79-.83-1.55-1.2-2.27-2.3-8.78-10.32-15.26-19.86-15.26-11.33,0-20.52,9.15-20.52,20.44s9.19,20.44,20.52,20.44Z"/>
</svg>