<svg xmlns="http://www.w3.org/2000/svg" viewBox="35, 50, 339, 270">
  <path d="M215.793 55.020 C 162.386 64.033,121.891 99.434,105.645 151.312 C 101.952 163.106,101.627 169.317,100.943 241.232 L 100.209 318.483 142.048 318.483 L 183.886 318.483 183.886 227.194 L 183.886 135.905 180.048 139.379 C 177.937 141.289,173.459 148.439,170.096 155.267 L 163.981 167.681 163.435 231.708 L 162.890 295.735 143.056 295.735 L 123.223 295.735 123.223 234.217 C 123.223 196.948,124.042 168.739,125.302 162.653 C 133.872 121.256,173.089 84.046,215.745 76.840 L 223.697 75.496 223.697 197.270 L 223.697 319.045 240.392 317.963 C 301.852 313.981,350.648 275.077,366.947 217.062 C 369.621 207.545,370.291 193.227,371.047 129.384 L 371.952 53.081 330.052 53.081 L 288.152 53.081 288.220 144.550 L 288.288 236.019 293.130 230.332 C 295.793 227.204,300.241 219.953,303.014 214.218 L 308.057 203.791 308.624 139.810 L 309.192 75.829 329.004 75.829 L 348.815 75.829 348.782 136.019 C 348.745 204.460,347.563 213.754,336.136 235.499 C 320.423 265.402,287.712 289.716,256.398 294.768 L 248.341 296.068 248.341 174.574 L 248.341 53.081 236.493 53.304 C 229.976 53.426,220.661 54.199,215.793 55.020 M54.035 64.697 C 38.187 82.239,38.930 75.684,38.331 203.318 L 37.800 316.588 50.180 316.588 L 62.559 316.588 62.559 186.730 C 62.559 115.308,62.232 56.872,61.832 56.872 C 61.432 56.872,57.924 60.393,54.035 64.697 "></path>
</svg>