<svg  
   xmlns="http://www.w3.org/2000/svg"
   viewBox="0 0 32 32">
  <path
     d="m 19.010805,0.71700391 -5.669608,3.46191299 5.669608,3.3081269 z m 0.628817,0 V 7.4870438 L 25.30923,4.1789169 Z m -7.805536,3.14750429 -5.666192,3.308126 5.666192,3.4653308 z m 13.300853,0.7005847 -5.669608,3.3081266 5.669608,3.4653305 z m 0.628818,0 V 11.33855 l 5.669608,-3.4653305 z m -13.30769,2.4503366 v 3.9096035 l -0.164039,0.09569 0.164039,0.09911 v 0.403262 l -1.049168,-0.659574 v 6.773457 l 5.512406,-3.308126 -2.621212,-1.647228 0.358836,-0.215302 3.301291,2.019734 v -3.998459 l 0.01025,-0.0068 -0.01025,-0.0068 V 7.7160147 L 15.682173,9.042 Z M 3.5432649,8.0645987 v 6.7734573 l 5.666192,-3.465331 z M 19.639622,8.2388898 v 6.7734572 l 5.669608,-3.308126 z m 11.793743,0 -5.669608,3.4653312 5.669608,3.308126 z M 10.784917,10.863519 5.1153084,14.32885 10.784917,17.636976 Z m 14.350022,1.226877 -5.669608,3.304709 5.669608,3.465331 z m 0.628818,0 v 6.77004 l 5.669608,-3.465331 z M 6.8650611,15.589902 v 6.77004 l 5.6696079,-3.465331 z m 12.1525779,0.174291 -5.512403,3.465331 5.512403,3.304709 z m 0.621983,0 v 6.77004 l 5.669608,-3.304709 z m 11.793743,0 -5.669608,3.465331 5.669608,3.304709 z m -25.1971213,1.749753 -5.66960889,3.46533 5.66960889,3.304709 z m 18.8986953,2.098336 -5.669608,3.308126 5.669608,3.465331 z m 0.628818,0 v 6.773457 l 5.669608,-3.465331 z m -14.88315,1.575462 v 6.773457 l 2.115423,-1.329403 4.623858,2.901445 v -6.770039 l -2.057326,1.233712 z m 8.748763,3.325212 v 6.77004 l 5.512404,-3.461914 z"
     />
</svg>
