<svg
   xmlns="http://www.w3.org/2000/svg"
   viewBox="0 0 400 400">
  <path
     d="m 181.41506,9.6899682 c 2.57559,7.0728708 -13.32408,9.7158038 -13.13187,2.6267628 -0.72758,-12.68369437 -16.71689,-0.369742 -23.94863,-1.143426 -9.91123,0.225089 -14.43323,6.731437 -10.80642,14.706754 -8.68676,6.494853 -12.1961,2.360609 -17.45826,-3.761118 -7.33417,2.399389 -13.53657,7.31853 -20.070997,9.751077 -5.660429,3.898961 -11.578026,9.882018 -5.064456,17.056791 -4.944559,1.507552 -9.023848,10.087535 -13.148422,3.250095 -4.893194,-6.536564 -11.871363,3.722413 -17.068601,7.864705 -4.490033,5.642035 -14.349031,11.763706 -9.617827,17.847766 7.532982,3.450096 0.274533,8.23509 -2.178743,12.466652 -5.27632,-2.815791 -14.183582,-2.235057 -16.521236,5.648952 -3.061176,5.577201 -7.77323,12.073471 -9.790218,19.140201 1.646441,6.59106 11.659378,9.10762 2.972517,18.6133 -6.570258,-2.52608 -15.481084,-0.51876 -13.948771,10.32882 0.02237,5.9319 -12.2830769,23.9284 -0.160947,23.7525 7.29907,0.43548 5.434191,15.83557 -2.0301978,13.87341 -8.4107232,-2.13313 -2.9832791,9.5719 -4.507977,14.32479 0,7.432 0,14.864 0,22.296 8.5430998,-2.19482 12.0648058,3.02387 10.9083208,11.29802 -4.232824,1.67965 -13.6949898,3.68058 -8.7802242,10.12904 2.0603154,6.43305 2.2029019,15.53904 6.7028952,21.82189 -2.566016,12.98158 16.57048,-2.99747 13.969469,10.81445 6.51114,7.26206 -13.14021,8.70386 -3.029129,17.93931 2.425621,5.81008 6.128355,10.43566 8.863011,15.45865 2.173718,10.57197 13.975155,0.50334 17.135925,6.28057 4.693845,3.82304 4.444171,8.61126 -0.676048,11.90516 -0.65417,7.24871 9.100016,13.61125 14.671691,19.9934 4.997283,4.8652 11.150651,9.1282 15.034004,1.99174 3.99946,-1.91439 13.418426,5.37678 9.155198,9.11137 -4.699683,9.42767 7.244593,10.20024 10.905641,14.99602 5.749742,2.33418 12.844552,8.80121 18.897452,6.80212 1.21172,-10.50168 12.48257,-4.58676 15.27849,-1.95975 -7.01813,12.83653 6.50792,12.20336 14.35708,14.83449 5.76475,0.75294 14.11911,5.23248 19.06229,2.79392 -1.98067,-9.7395 9.14046,-10.7437 14.02499,-5.54499 -2.65614,8.93437 4.03967,8.51681 11.01906,7.81564 8.53392,0 17.06782,0 25.60173,0 -2.19483,-8.54309 3.02386,-12.0648 11.29801,-10.90832 1.67966,4.23283 3.68058,13.69499 10.12905,8.78023 7.73413,-1.96783 17.9146,-4.86703 26.86843,-7.00279 -0.9478,-7.97621 0.31066,-16.70595 10.53152,-14.43888 3.15147,8.90559 11.7999,6.16944 17.50385,1.15024 6.48678,-1.73181 9.63592,-6.71203 15.22112,-8.9419 4.30149,-7.15776 -4.17334,-12.8152 4.86978,-16.55727 5.60332,-7.60002 9.32375,10.37578 14.60936,0.99149 5.92856,-2.11464 10.9333,-10.26064 16.58454,-14.62689 6.58122,-6.13626 2.81201,-10.27687 -1.07232,-16.45988 5.05183,-4.92534 6.30542,-9.73321 13.90129,-4.96718 7.08182,-0.83752 7.64991,-9.01834 11.69321,-13.39337 2.28442,-5.09986 12.82033,-16.03785 2.56747,-19.33159 -5.30021,-0.94879 -0.06,-17.3215 3.85334,-12.07707 10.85626,3.13871 8.89498,-5.97831 12.7351,-12.26553 0.53722,-7.80195 3.1992,-13.02809 3.90153,-19.71029 -1.46783,-4.92415 -16.16133,-3.51857 -8.00579,-13.3317 -0.27023,-7.3184 13.78905,0.99113 9.29156,-10.00179 0,-10.00312 0,-20.00623 0,-30.00935 -8.55417,2.19964 -12.06677,-3.03903 -10.90832,-11.31944 6.33758,-1.35734 13.78466,-4.48809 7.79165,-12.31143 0.16133,-8.78933 -4.99812,-15.55298 -5.84374,-24.34893 -7.67913,-1.40814 -13.88758,3.78519 -15.35565,-7.91219 1.2858,-5.79863 12.38734,-9.29844 3.66816,-17.95344 -3.09719,-5.17766 -4.9797,-10.782242 -9.59335,-14.102781 -0.53828,-12.253382 -14.85484,2.678307 -15.92725,-7.307479 -7.47154,-3.274138 -0.38768,-8.516936 2.14563,-12.020824 -3.76301,-6.92608 -10.17267,-12.921506 -16.53487,-19.172348 -6.38453,-7.554191 -11.16906,-4.326403 -17.45624,-0.09447 -4.91556,-4.865508 -9.8005,-6.492225 -4.96718,-13.901292 -0.93386,-6.989697 -8.57397,-7.566906 -13.36732,-11.71354 -5.32948,-2.168584 -15.92926,-12.802562 -19.35764,-2.547142 -4.62861,5.201788 -17.91437,-0.319765 -11.76443,-8.9195 -1.7052,-8.1268319 -17.046,-5.992548 -23.68762,-9.7395719 -4.50329,-0.8347308 -12.39669,-5.3299327 -12.19102,3.9679019 -0.0158,7.130032 -15.48318,4.221395 -13.13186,-2.6257889 1.94073,-8.569224 -10.47214,-2.7848487 -15.4267,-4.4587762 -7.0647,0 -14.1294,0 -21.19409,0 0,1.4859341 0,2.9718682 0,4.4578023 z m 26.89777,26.1088708 c 67.62594,2.700851 130.55885,51.788829 148.7671,117.097901 19.16754,59.26904 -0.73259,128.06567 -47.1839,169.26091 -45.57477,41.97275 -115.82455,54.52936 -172.8194,29.80329 C 79.377196,329.07773 38.128565,270.61935 35.500678,208.61099 31.798818,148.90213 64.082766,88.725112 115.93981,58.799813 143.35539,42.113243 176.28594,34.035688 208.31283,35.798839 Z M 184.33693,49.85012 C 128.29589,54.789055 77.244093,94.452599 58.367246,147.38025 45.708536,179.09342 46.087271,215.60949 56.334597,247.9423 75.497906,306.49913 133.44651,350.99092 195.62274,350.69727 259.67053,354.50899 321.8315,310.64259 342.30792,250.31486 356.33777,210.64836 352.9156,164.86946 332.57322,127.9274 305.45281,77.047781 247.38136,44.505252 189.66441,49.553309 l -2.70735,0.132123 z m 19.75575,22.004616 c 13.0698,2.482125 20.8616,17.509852 15.67194,29.619014 -6.75388,17.82806 -34.43923,17.26198 -40.70496,-0.59174 -5.89851,-15.598524 8.51636,-32.884508 25.03302,-29.027274 z m 19.00774,94.080374 c 1.4647,12.72013 -6.80233,44.67398 14.08245,27.90192 21.49424,-9.61111 42.59191,-21.14972 63.9465,-30.27668 1.84865,18.92366 -28.09583,20.35041 -39.61607,31.43667 -13.34926,11.68665 -43.6105,13.0398 -38.42347,36.32779 -0.42172,26.95705 3.04292,56.94727 -14.98835,79.54682 -20.57154,27.0968 -71.07203,22.42861 -82.22634,-11.21512 -7.76258,-22.06911 4.87368,-45.64842 23.58499,-57.62577 12.3391,-10.84989 27.68261,-17.26274 41.30491,-26.10338 0,-16.2047 0,-32.4094 0,-48.6141 -17.33744,4.23614 -33.23758,14.59392 -50.45098,20.13267 -3.22891,-14.61425 16.44333,-15.82367 25.00246,-23.10811 18.87359,-10.85192 37.5893,-22.0737 56.84297,-32.24032 1.8714,11.08228 0.52705,22.60819 0.94093,33.83761 z m -35.45204,71.25958 c -18.54338,10.92549 -42.46361,26.50861 -39.13552,51.35445 4.09463,19.60797 31.27196,14.24649 35.86497,-2.33032 7.93128,-15.24066 6.22932,-32.76987 6.19242,-49.37963 -0.98499,-0.0154 -2.00521,-0.45825 -2.92187,0.3555 z" />
</svg>
