<svg
   xmlns="http://www.w3.org/2000/svg"
   version="1.1"
   viewBox="0 0 48 48">
  <g
     transform="matrix(2.4746991,0,0,2.4746991,-35.766116,-34.800834)"
     id="g26">
    <path
       style="fill:#ffffff"
       d="m 26.1499,19.0332 c -1.3362,0.9223 -2.7731,1.2383 -4.3079,0.9463 -1.5374,-0.2902 -2.7587,-1.0938 -3.6663,-2.4089 l -1.3506,-1.9569 1.9374,-1.3372 1.3506,1.9569 c 0.5373,0.7786 1.2545,1.2505 2.1541,1.414 0.897,0.1652 1.7419,-0.0257 2.5295,-0.5693 l 3.4179,-2.3738 c 1.0864,-0.7544 2.5789,-0.4831 3.3302,0.6054 z"
       id="path6" />
    <path
       style="fill:#ffffff"
       d="m 28.7658,25.5351 c -0.924,-1.3388 -1.2423,-2.7772 -0.9532,-4.3125 0.2873,-1.538 1.0881,-2.7586 2.4007,-3.6646 l 1.9532,-1.348 1.3397,1.9411 -1.9531,1.348 c -0.7771,0.5364 -1.2474,1.2532 -1.4092,2.1531 -0.1636,0.8973 0.0287,1.7431 0.5733,2.5322 l 2.3834,3.4319 c 0.753,1.0843 0.4822,2.574 -0.6043,3.3239 z"
       id="path8" />
    <path
       style="fill:#ffffff"
       d="m 22.2392,28.1641 c 1.3363,-0.9223 2.7731,-1.2383 4.3079,-0.9463 1.5375,0.2902 2.7587,1.0938 3.6664,2.4089 l 1.3506,1.9568 -1.9374,1.3372 -1.3506,-1.9569 c -0.5374,-0.7785 -1.2546,-1.2504 -2.1542,-1.4139 -0.897,-0.1653 -1.7419,0.0257 -2.5295,0.5692 l -3.4179,2.3738 c -1.0863,0.7545 -2.5789,0.4832 -3.3302,-0.6054 z"
       id="path10" />
    <path
       style="fill:#ffffff"
       d="m 19.7405,21.8316 c 0.924,1.3388 1.2424,2.7772 0.9533,4.3125 -0.2873,1.538 -1.0882,2.7586 -2.4008,3.6646 l -1.9532,1.348 -1.3397,-1.9411 1.9532,-1.348 c 0.7771,-0.5364 1.2474,-1.2532 1.4092,-2.1531 0.1636,-0.8973 -0.0287,-1.7431 -0.5733,-2.5322 l -2.3834,-3.4319 c -0.7531,-1.0843 -0.4823,-2.574 0.6042,-3.3239 z"
       id="path12" />
  </g>
</svg>
