<svg
   xmlns="http://www.w3.org/2000/svg"
   version="1.1"
   viewBox="0, 0, 400,400">
    <path
       style="fill-rule:evenodd;stroke:none;stroke-width:1.28072166"
       d="m 283.3357,49.652994 82.86013,46.618269 -0.52509,100.099927 -0.52382,100.09864 -82.6629,51.02524 -82.6629,51.02523 -80.2449,-49.41152 C 75.441275,321.93186 37.708653,298.26797 35.726095,296.52106 32.364201,293.55875 32.156724,286.67487 32.652363,194.80743 l 0.5315,-98.536167 81.966187,-46.417196 c 45.0814,-25.529906 82.72181,-46.5081273 83.6465,-46.6182694 0.9234,-0.1114227 38.96595,20.7771484 84.53915,46.4171964 m -157.42759,17.246198 -73.257278,41.235398 0.03458,88.32881 0.03586,88.33009 72.579778,44.56912 c 39.91881,24.51301 73.475,44.56911 74.56874,44.56911 1.09374,0 34.57949,-20.10348 74.41121,-44.67413 l 72.42353,-44.67413 0.53406,-87.2274 c 0.41752,-68.28423 -0.0282,-87.69357 -2.05428,-89.37516 -2.41416,-2.00433 -144.62293,-82.457984 -145.58091,-82.361929 -0.24078,0.02433 -33.40378,18.599921 -73.69529,41.280221 m 111.24861,-0.258706 c 12.2501,12.250103 10.62743,41.878314 -4.27505,78.016444 l -5.73123,13.89583 8.82546,8.82417 c 23.80477,23.80606 16.24083,79.86196 -20.9001,154.87767 -15.93218,32.1807 -14.5823,32.06928 -28.18997,2.34629 C 148.9944,241.83169 142.21298,193.7662 164.8856,168.67046 l 7.23351,-8.00707 -5.17539,-5.55705 c -29.90357,-32.11026 -23.78557,-66.602654 10.06775,-56.761589 6.22815,1.810939 11.45605,3.007139 11.61615,2.658779 15.19192,-32.959373 35.53106,-47.361088 48.5291,-34.363044 M 218.25455,82.349818 C 211.0633,90.543876 200.37952,122.138 200.07599,136.10299 l -0.11399,5.24968 -4.49661,-6.14747 c -13.67683,-18.69853 -26.62236,-27.16539 -31.8682,-20.84374 -7.02988,8.47069 21.56223,42.08579 35.93193,42.24332 l 10.60822,0.11655 6.10263,-15.88095 c 15.19321,-39.53844 18.37836,-60.287414 9.45173,-61.564294 -2.31682,-0.331707 -5.66335,1.051473 -7.43715,3.073732 M 183.99396,177.7559 c -21.76714,11.18582 -18.3489,57.82843 8.51808,116.25879 l 7.06703,15.36866 3.56681,-8.19662 C 222.12361,257.56919 233.81532,205.85878 228.08793,190.86152 222.71274,176.78511 199.37799,169.85 183.99396,177.7559" />
</svg>
