<svg
   xmlns="http://www.w3.org/2000/svg"
   viewBox="0 0 68 68">
  <path
     d="M 36.98256,0.48416976 A 1.37,1.37 0 0 0 35.970841,1.0115135 1.77,1.77 0 0 0 35.740372,1.4919822 l -6.240234,27.9902348 25.320312,-14 a 1.26,1.26 0 0 0 0.539063,-1.699219 1.2,1.2 0 0 0 -0.388672,-0.451172 L 37.880997,0.76151348 A 1.37,1.37 0 0 0 36.98256,0.48416976 Z M 29.240372,1.5369041 a 1.31,1.31 0 0 0 -0.740234,0.234375 L 11.849748,14.542764 a 3.48,3.48 0 0 0 -1.34961,2.75 v 32.400391 a 3.46,3.46 0 0 0 1.34961,2.789062 L 28.42006,65.212686 a 1.29,1.29 0 0 0 2,-1.310547 l -6.419922,-30.419922 6.5,-30.400391 a 1.3,1.3 0 0 0 -1,-1.5195313 1.31,1.31 0 0 0 -0.259766,-0.025391 z M 56.211076,19.482217 a 1.36,1.36 0 0 0 -0.710938,0.199219 l -25,14.320312 25,14.320313 a 1.32,1.32 0 0 0 2,-1.140625 V 20.802529 a 1.31,1.31 0 0 0 -1.289062,-1.320312 z m -26.710938,19 6.240234,28 a 1.36,1.36 0 0 0 1.628907,1 1.3,1.3 0 0 0 0.490234,-0.230469 v -0.01953 L 54.970841,54.661905 a 1.28,1.28 0 0 0 0.298828,-1.789063 1.33,1.33 0 0 0 -0.439453,-0.380859 z" />
</svg>
