<svg
   xmlns="http://www.w3.org/2000/svg"
   viewBox="0 0 1024 1024">
<path
   d="m 18.652397,788.02019 c 22.437329,-70.32187 43.916967,-137.77067 65.943857,-206.72441 55.135636,0 110.408076,0 167.048656,0 0,-27.08898 0,-52.80982 0,-80.0356 -49.79993,0 -99.0526,0 -150.49428,0 10.67141,-33.92962 20.65876,-65.80704 30.78292,-97.68447 10.12416,-32.01424 20.93238,-63.89166 30.50929,-96.04271 3.1467,-10.5346 7.25109,-14.91262 19.01701,-14.36536 22.84776,1.0945 45.69553,0.27362 70.32187,0.27362 0,-78.12021 0,-155.69317 0,-234.360638 87.97075,0 174.16292,0 261.58642,0 0,136.265728 0,272.121018 0,413.448828 17.78569,-19.83788 32.28786,-35.845 46.79004,-52.26255 47.4741,-53.90432 94.94821,-107.80863 142.69594,-161.43932 3.42032,-3.96758 9.71372,-7.52472 14.63899,-7.52472 89.33888,-0.41044 178.54094,-0.27362 267.87982,-0.13681 1.50494,0 3.1467,0.68407 9.02965,2.18901 -4.37801,10.12416 -6.56702,20.79557 -12.7236,28.18347 -75.11033,87.56031 -150.49428,174.71018 -226.5623,261.44961 -9.30328,10.67141 -9.57691,17.23844 -1.77857,28.73073 80.03559,116.56466 159.52394,233.26613 238.46503,350.51486 7.3879,11.08185 8.75606,26.26809 13.54446,41.45433 -9.98733,0.54725 -14.77578,1.0945 -19.56423,1.0945 -83.86636,0 -167.73272,-0.27362 -251.59908,0.13682 -10.67141,0 -16.28074,-3.42033 -22.02689,-12.17636 -41.72796,-64.3021 -83.86636,-128.19376 -126.00475,-192.22224 -2.32582,-3.55714 -5.06208,-6.97746 -8.61922,-12.03954 -20.52195,22.84777 -40.63346,44.73784 -59.78727,67.4488 -3.28352,3.83076 -3.69396,11.08185 -3.69396,16.69118 -0.13681,37.62357 0.27363,75.11033 0.41044,112.7339 0,5.88296 0,11.76592 0,18.46975 -87.42349,0 -173.20523,0 -260.76554,0 0,-58.0087 0,-115.88059 0,-176.07831 -78.66746,0.27363 -155.556361,0.27363 -235.044703,0.27363 z" />
</svg>