<svg
   xmlns="http://www.w3.org/2000/svg"
   version="1.1"
   viewBox="0 0 441 441">
  <path
     d="m 411.09198,104.2414 c -6.47758,-5.107317 -14.20084,-12.08317 -28.27712,-13.827133 -13.20429,-1.743963 -26.65772,7.100421 -35.75124,12.955153 -9.09352,5.85473 -26.28402,23.04523 -33.38444,28.27712 -7.10042,5.23189 -25.28746,10.09007 -54.56113,27.65427 -29.27367,17.5642 -144.12609,91.30892 -144.12609,91.30892 l 29.89651,0.37371 -133.28861,68.63741 H 24.92872 L 5.7451264,334.19539 c 0,0 16.9413556,4.48448 31.1421986,-4.48447 v 4.11077 c 0,0 158.700645,-62.53354 189.344565,-46.33959 l -18.68532,5.48102 c 1.61939,0 31.76504,1.9931 31.76504,1.9931 a 42.776923,42.776923 0 0 0 19.1836,30.89307 c 18.18704,11.9586 18.56075,18.56075 18.56075,18.56075 0,0 -9.46723,3.86163 -9.46723,8.71981 0,0 13.9517,-4.23534 26.90686,-3.86163 a 102.94365,102.94365 0 0 1 24.29091,3.86163 c 0,0 -0.99655,-5.23189 -13.578,-8.71981 -12.58144,-3.48793 -25.03832,-17.1905 -31.14219,-24.66463 a 34.879262,34.879262 0 0 1 -5.10732,-34.13184 c 4.3599,-11.33576 19.5573,-17.5642 50.94863,-33.75815 36.99693,-19.18359 45.46761,-33.38443 50.6995,-44.47106 5.23189,-11.08662 12.95515,-33.1353 17.31506,-43.47451 5.48103,-13.32886 12.20774,-20.42928 17.81334,-24.66462 5.6056,-4.23534 30.51935,-13.57799 30.51935,-13.57799 0,0 -19.05902,-16.56765 -25.16289,-21.42584 z" />
</svg>
