<svg viewBox="4 10 115 101" xmlns="http://www.w3.org/2000/svg">
<path d="M118.641 63.4417L110.944 56.3851L103.484 64.523C100.653 67.6104 96.5341 69.1851 92.3659 68.7731L90.412 68.58C87.6331 68.3054 84.8872 69.3552 83.0002 71.4135L53.4592 103.636L61.1563 110.693L94.8717 73.9167C97.0489 71.5418 100.343 70.534 103.476 71.2839L104.94 71.6343C108.073 72.3842 111.367 71.3764 113.544 69.0015L118.641 63.4417Z" />
<path d="M102.097 48.2733L94.3995 41.2168L79.0983 57.9071C76.2678 60.9945 72.1489 62.5691 67.9806 62.1572L66.0267 61.9641C63.2478 61.6895 60.5019 62.7392 58.6149 64.7975L36.9145 88.4679L44.6116 95.5245L70.4864 67.3007C72.6636 64.9259 75.9572 63.9181 79.0906 64.668L80.5547 65.0184C83.6881 65.7683 86.9817 64.7604 89.1589 62.3856L102.097 48.2733Z"/>
<path d="M85.5515 33.1055L77.8544 26.0489L54.7125 51.2916C51.882 54.3791 47.7631 55.9537 43.5948 55.5417L41.6409 55.3486C38.8621 55.074 36.1161 56.1238 34.2291 58.1821L20.3693 73.3L28.0665 80.3566L46.1006 60.6853C48.2778 58.3104 51.5715 57.3026 54.7048 58.0525L56.1689 58.4029C59.3023 59.1528 62.5959 58.145 64.7731 55.7701L85.5515 33.1055Z"/>
<path d="M69.0066 17.9375L61.3094 10.881L30.327 44.676C27.4965 47.7635 23.3776 49.3381 19.2093 48.9262L17.2554 48.7331C14.4765 48.4584 11.7306 49.5082 9.84357 51.5665L3.82442 58.1321L11.5216 65.1886L21.7151 54.0697C23.8923 51.6948 27.186 50.687 30.3193 51.4369L31.7834 51.7873C34.9168 52.5372 38.2104 51.5294 40.3876 49.1545L69.0066 17.9375Z"/>
</svg>
