<svg
   xmlns="http://www.w3.org/2000/svg"
   viewBox="0 0 160 160">
  <path
     d="M 38.580079,9.1855445 12.09961,27.685544 a 28.32,28.32 0 0 0 0,46.388672 l 8.351563,5.863281 -2.070313,1.449219 0.01367,0.01953 -6.304687,4.408204 a 28.32,28.32 0 0 0 0,46.39063 l 26.410158,18.53907 32.669922,-22.85938 -8.800781,-6.17969 -23.898438,16.69922 -20.611328,-14.46875 a 18.22,18.22 0 0 1 0,-29.839845 l 11.404297,-7.972662 92.156247,64.691417 26.48047,-18.49024 a 28.33,28.33 0 0 0 0,-46.388677 l -8.37891,-5.882812 8.38868,-5.867188 a 28.32,28.32 0 0 0 0,-46.390625 h 0.0391 L 121.5293,9.2539035 88.830079,32.134763 l 8.800781,6.179688 23.88867,-16.679688 20.62109,14.470703 a 18.22,18.22 0 0 1 0,29.839844 l -5.34374,3.732422 c -0.0121,-0.01457 -0.025,-0.02839 -0.0371,-0.04297 l -6.04688,4.234375 z m -0.0098,12.3398435 83.335941,58.509766 -5.39648,3.779297 0.0156,0.02148 -27.746096,19.378909 8.800781,6.17969 33.130865,-23.17774 11.3789,7.988286 a 18.22,18.22 0 0 1 0,29.839844 l -20.64057,14.42969 -83.363281,-58.519536 33.125,-23.160156 -8.800782,-6.160156 -2.429687,1.699219 -0.02539,-0.03711 -30.683594,21.46875 -11.341796,-7.960937 a 18.21,18.21 0 0 1 0,-29.839844 z" />
</svg>
