<svg
   xmlns="http://www.w3.org/2000/svg"
   version="1.1"
   viewBox="0 0 121 121">
  <path
     d="M 48.410846,6.9425542 A 53.526427,53.526427 0 0 0 20.566105,14.811656 c -5.446938,58.20475 24.236519,59.502383 51.788913,58.210074 11.389098,-0.534181 19.964158,1.687595 26.438171,5.330778 A 53.526427,53.526427 0 0 0 101.93728,60.468992 53.526427,53.526427 0 0 0 48.410846,6.9425542 Z M 14.254277,27.104356 13.890815,27.464863 C -7.6215542,48.912413 -0.91444818,89.81347 26.603122,102.87882 49.48942,114.45291 79.55056,103.6728 91.021601,81.065176 71.072376,75.19513 46.938675,84.517584 29.611288,69.821492 17.097221,59.610785 14.078555,42.407521 14.254277,27.104356 Z M 99.005942,77.98018 c -8.053113,20.639789 -27.857424,35.3966 -51.189047,36.05367 0.548444,0.0152 1.099384,0.0236 1.654788,0.0236 H 119.8533 c 0,0 -0.0171,-25.309506 -20.847358,-36.077308 z" />
</svg>
