<svg
   xmlns="http://www.w3.org/2000/svg"
   viewBox="0 0 82.6 82.6">
  <path
     d="m 38.605097,1.5373863 a 2.2247549,2.2247549 0 0 0 -2.14959,1.6229836 L 24.22557,44.707622 14.502051,47.654316 12.312174,54.37071 v 0.05467 l 9.703374,-2.940939 -8.681815,29.57918 h 52.338371 a 2.1952879,2.1952879 0 0 0 1.723702,-1.585576 l 2.892019,-9.976749 V 68.384777 A 1.7090832,1.7090832 0 0 0 68.572758,67.101354 H 34.685763 l 6.336545,-21.36354 9.870278,-2.797059 2.063262,-7.073219 -9.723519,2.946695 L 53.545762,3.7474076 V 3.1891459 A 1.7090832,1.7090832 0 0 0 51.778896,1.5373863 H 38.665528 a 2.2247549,2.2247549 0 0 0 -0.06043,0 z" />
</svg>
