<svg
   xmlns="http://www.w3.org/2000/svg"
   version="1.1"
   viewBox="0 0 38 38">
  <path
     d="m 19,-3.75e-4 c -0.839725,0 -1.679894,0.218284 -2.433594,0.65625 L 7.1855468,6.1031406 C 5.1511767,7.2882306 3.892578,9.4751881 3.892578,11.845328 v 14.316406 c 0,2.3702 1.2585987,4.556675 3.2929688,5.734375 l 9.3808592,5.447266 c 1.5074,0.876 3.359788,0.876 4.867188,0 l 9.380859,-5.447266 c 2.0343,-1.1851 3.292969,-3.371575 3.292969,-5.734375 V 11.845328 c 0,-2.3701399 -1.258669,-4.5566449 -3.292969,-5.7343749 L 21.433594,0.655875 C 20.679894,0.217909 19.839725,-3.75e-4 19,-3.75e-4 Z m 3.691406,7.0761719 c 0.1903,0 0.352172,0.1323862 0.388672,0.3164062 l 1.457031,7.2285159 c 0.2634,1.3176 1.206656,2.391872 2.472657,2.826172 l 3.447265,1.177734 c 0.1536,0.0589 0.263672,0.2057 0.263672,0.375 0,0.1693 -0.102672,0.3235 -0.263672,0.375 l -3.447265,1.177734 c -1.266001,0.4343 -2.209257,1.508572 -2.472657,2.826172 l -1.457031,7.228516 c -0.0365,0.1841 -0.198372,0.316406 -0.388672,0.316406 -0.1903,0 -0.350119,-0.132306 -0.386719,-0.316406 L 20.847656,23.378531 C 20.584156,22.060931 19.6409,20.986659 18.375,20.552359 l -3.447266,-1.177734 c -0.1536,-0.0589 -0.263672,-0.2057 -0.263672,-0.375 0,-0.1693 0.102672,-0.3235 0.263672,-0.375 L 18.375,17.446891 c 1.2659,-0.4343 2.209156,-1.508572 2.472656,-2.826172 l 1.457031,-7.2285159 c 0.0366,-0.18402 0.196419,-0.3164062 0.386719,-0.3164062 z M 14.65039,7.6500156 c 0.0659,0 0.123972,0.043135 0.138672,0.109375 l 0.511719,2.5546874 c 0.0952,0.4711 0.432506,0.847353 0.878906,1.001953 l 1.214844,0.41211 c 0.0586,0.0221 0.0957,0.07196 0.0957,0.130859 0,0.0589 -0.0371,0.110711 -0.0957,0.132813 l -1.214844,0.412109 c -0.4537,0.1545 -0.783706,0.538253 -0.878906,1.001953 l -0.511719,2.554688 c -0.0147,0.0663 -0.07277,0.109374 -0.138672,0.109374 -0.0658,0 -0.124071,-0.04308 -0.138671,-0.109374 l -0.513672,-2.554688 c -0.0878,-0.4711 -0.424704,-0.847453 -0.871094,-1.001953 l -1.212891,-0.412109 c -0.05855,-0.0221 -0.0957,-0.07391 -0.0957,-0.132813 10e-7,-0.0589 0.03715,-0.108759 0.0957,-0.130859 l 1.212891,-0.41211 c 0.44639,-0.1546 0.775994,-0.538253 0.871094,-1.001953 l 0.513672,-2.5546874 c 0.0146,-0.06624 0.07287,-0.109375 0.138671,-0.109375 z M 11.078125,19.073844 c 0.08781,0 0.168954,0.05818 0.183594,0.146484 l 0.6875,3.421875 c 0.1244,0.6256 0.571805,1.133744 1.171875,1.339844 l 1.630859,0.552734 c 0.0732,0.0221 0.125,0.09488 0.125,0.175782 0,0.081 -0.0518,0.155634 -0.125,0.177734 l -1.630859,0.552734 c -0.60007,0.2061 -1.047475,0.712291 -1.171875,1.337891 l -0.6875,3.423828 c -0.02196,0.0809 -0.09578,0.146484 -0.183594,0.146484 -0.08782,0 -0.167001,-0.05818 -0.181641,-0.146484 l -0.689453,-3.423828 c -0.1244,-0.6256 -0.5698518,-1.131791 -1.1699218,-1.337891 L 7.4042968,24.888297 c -0.07318,-0.0221 -0.1230469,-0.09673 -0.1230469,-0.177734 0,-0.0809 0.049867,-0.153682 0.1230469,-0.175782 l 1.6328124,-0.552734 c 0.6000701,-0.2061 1.0455218,-0.714244 1.1699218,-1.339844 l 0.689453,-3.421875 c 0.01464,-0.0883 0.09382,-0.146484 0.181641,-0.146484 z" />
</svg>
