<svg
   xmlns="http://www.w3.org/2000/svg"
   viewBox="0 0 400 400">
  <path
     d="m 146.93033,46.423468 a 28.440099,28.440099 0 0 0 -28.4401,28.440099 28.440099,28.440099 0 0 0 28.4401,28.440103 28.440099,28.440099 0 0 0 28.4401,-28.440103 28.440099,28.440099 0 0 0 -28.4401,-28.440099 z m 144.02244,34.128119 a 56.880198,56.880198 0 0 0 -56.8802,56.880193 56.880198,56.880198 0 0 0 56.8802,56.8802 56.880198,56.880198 0 0 0 56.8802,-56.8802 56.880198,56.880198 0 0 0 -56.8802,-56.880193 z M 146.93033,137.43178 4.7298381,308.07238 H 146.93033 224.64068 l -37.89421,45.50415 h 104.2063 104.31739 L 290.95277,228.4401 256.87353,269.36496 Z" />
</svg>
