<svg
   xmlns="http://www.w3.org/2000/svg"
   viewBox="0 0 600 600">
  <path
     d="M 593.0742,137.181 H 6.9257976 V 65.540638 c 0,-32.372081 26.2427594,-58.6148404 58.6148404,-58.6148404 H 534.45936 c 32.37209,0 58.61484,26.2427594 58.61484,58.6148404 z m 0,48.8457 v 162.819 H 495.3828 119.27874 83.601092 c 22.242248,98.79302 110.517518,172.58814 216.028578,172.58814 87.23016,0 162.67971,-50.43885 198.7745,-123.74244 h 94.67003 v 136.76796 c 0,32.37209 -26.24275,58.61484 -58.61484,58.61484 H 65.540638 c -32.372081,0 -58.6148404,-26.24275 -58.6148404,-58.61484 V 186.0267 Z M 157.07334,397.6914 h 285.11264 c -31.08479,45.4486 -83.33753,75.27383 -142.55631,75.27383 -59.2188,0 -111.47154,-29.82523 -142.55633,-75.27383 z M 84.374091,303.25638 h 49.964089 c 5.49387,-17.00654 21.45603,-29.30742 40.29119,-29.30742 18.83516,0 34.79732,12.30088 40.29119,29.30742 h 49.96409 c -6.32038,-44.18639 -44.32116,-78.15312 -90.25528,-78.15312 -45.93414,0 -83.934906,33.96673 -90.255279,78.15312 z m 250.741259,0 h 49.96409 c 5.49387,-17.00654 21.45603,-29.30742 40.29119,-29.30742 18.83516,0 34.79732,12.30088 40.29119,29.30742 h 49.96409 c -6.32037,-44.18639 -44.32116,-78.15312 -90.25528,-78.15312 -45.93414,0 -83.9349,33.96673 -90.25528,78.15312 z" />
</svg>
