<svg
   xmlns="http://www.w3.org/2000/svg"
   version="1.1"
   viewBox="0 0 128 128">
  <path
     d="m 95.146245,58.51634 c -2.641681,-2.64167 -2.641681,-6.92468 0,-9.566361 2.64167,-2.64167 6.924675,-2.64167 9.566355,0 2.64167,2.641681 2.64167,6.924691 0,9.566361 -2.64168,2.641681 -6.924685,2.641681 -9.566355,0 z M 72.426144,81.236441 c -1.981261,-1.981249 -1.981261,-5.19351 0,-7.174771 1.981261,-1.981249 5.19351,-1.981249 7.174771,0 1.981248,1.981261 1.981248,5.193522 0,7.174771 -1.981261,1.981261 -5.19351,1.981261 -7.174771,0 z M 108.29998,69.27849 c -1.98126,-1.981249 -1.98126,-5.19351 0,-7.174759 1.98126,-1.981261 5.19351,-1.981261 7.17477,0 1.98126,1.981249 1.98126,5.19351 0,7.174759 -1.98126,1.981261 -5.19351,1.981261 -7.17477,0 z M 96.342034,81.236441 c -1.981249,-1.981249 -1.981249,-5.19351 0,-7.174771 1.981261,-1.981249 5.193506,-1.981249 7.174766,0 1.98126,1.981261 1.98126,5.193522 0,7.174771 -1.98126,1.981261 -5.193505,1.981261 -7.174766,0 z m 25.111686,-1.195789 c -1.32084,-1.320841 -1.32084,-3.46234 0,-4.783181 1.32084,-1.32084 3.46234,-1.32084 4.78318,0 1.32084,1.320841 1.32084,3.46234 0,4.783181 -1.32084,1.32084 -3.46234,1.32084 -4.78318,0 z m -11.95795,11.957939 c -1.32083,-1.320829 -1.32083,-3.46234 0,-4.783169 1.32084,-1.32084 3.46235,-1.32084 4.78318,0 1.32084,1.320829 1.32084,3.46234 0,4.783169 -1.32083,1.320841 -3.46234,1.320841 -4.78318,0 z m -26.307476,-21.5243 c -2.641669,-2.641681 -2.641669,-6.92468 0,-9.566361 2.641682,-2.641681 6.92468,-2.641681 9.566361,0 2.64167,2.641681 2.64167,6.92468 0,9.566361 -2.641681,2.641681 -6.924679,2.641681 -9.566361,0 z m 0,-23.915891 c -2.641669,-2.641681 -2.641669,-6.924691 0,-9.566361 2.641682,-2.641681 6.92468,-2.641681 9.566361,0 2.64167,2.64167 2.64167,6.92468 0,9.566361 -2.641681,2.64167 -6.924679,2.64167 -9.566361,0 z M 71.230343,58.51634 c -2.641669,-2.64167 -2.641669,-6.92468 0,-9.566361 2.641682,-2.64167 6.924692,-2.64167 9.566361,0 2.641681,2.641681 2.641681,6.924691 0,9.566361 -2.641669,2.641681 -6.924679,2.641681 -9.566361,0 z m -24.027043,0 c -2.641681,-2.64167 -2.641681,-6.92468 0,-9.566361 2.64167,-2.64167 6.92468,-2.64167 9.566361,0 2.64167,2.641681 2.64167,6.924691 0,9.566361 -2.641681,2.641681 -6.924691,2.641681 -9.566361,0 z M 24.483199,81.236441 c -1.981261,-1.981249 -1.981261,-5.19351 0,-7.174771 1.981261,-1.981249 5.19351,-1.981249 7.174771,0 1.981249,1.981261 1.981249,5.193522 0,7.174771 -1.981261,1.981261 -5.19351,1.981261 -7.174771,0 z M 60.35704,69.27849 c -1.98126,-1.981249 -1.98126,-5.19351 0,-7.174759 1.981261,-1.981261 5.19351,-1.981261 7.174771,0 1.981261,1.981249 1.981261,5.19351 0,7.174759 -1.981261,1.981261 -5.19351,1.981261 -7.174771,0 z M 48.399089,81.236441 c -1.981249,-1.981249 -1.981249,-5.19351 0,-7.174771 1.981261,-1.981249 5.19351,-1.981249 7.174771,0 1.981261,1.981261 1.981261,5.193522 0,7.174771 -1.981261,1.981261 -5.19351,1.981261 -7.174771,0 z M 1.7630979,80.040652 c -1.32084121,-1.320841 -1.32084121,-3.46234 0,-4.783181 1.3208406,-1.32084 3.4623398,-1.32084 4.7831804,0 1.3208406,1.320841 1.3208406,3.46234 0,4.783181 -1.3208406,1.32084 -3.4623398,1.32084 -4.7831804,0 z M 13.721049,91.998591 c -1.320841,-1.320829 -1.320841,-3.46234 0,-4.783169 1.320829,-1.32084 3.46234,-1.32084 4.783169,0 1.32084,1.320829 1.32084,3.46234 0,4.783169 -1.320829,1.320841 -3.46234,1.320841 -4.783169,0 z m 47.83178,0 c -1.320829,-1.320829 -1.320829,-3.46234 0,-4.783169 1.32084,-1.32084 3.462351,-1.32084 4.78318,0 1.320841,1.320829 1.320841,3.46234 0,4.783169 -1.320829,1.320841 -3.46234,1.320841 -4.78318,0 z M 12.525247,69.27849 c -1.98126,-1.981249 -1.98126,-5.19351 0,-7.174759 1.981261,-1.981261 5.193511,-1.981261 7.17477,0 1.981261,1.981249 1.981261,5.19351 0,7.174759 -1.981259,1.981261 -5.193509,1.981261 -7.17477,0 z m 22.720101,1.195801 c -2.641681,-2.641681 -2.641681,-6.92468 0,-9.566361 2.641681,-2.641681 6.92468,-2.641681 9.566361,0 2.641669,2.641681 2.641669,6.92468 0,9.566361 -2.641681,2.641681 -6.92468,2.641681 -9.566361,0 z m 0,-23.915891 c -2.641681,-2.641681 -2.641681,-6.924691 0,-9.566361 2.641681,-2.641681 6.92468,-2.641681 9.566361,0 2.641669,2.64167 2.641669,6.92468 0,9.566361 -2.641681,2.64167 -6.92468,2.64167 -9.566361,0 z M 23.287397,58.51634 c -2.64167,-2.64167 -2.64167,-6.92468 0,-9.566361 2.641681,-2.64167 6.92468,-2.64167 9.566361,0 2.641681,2.641681 2.641681,6.924691 0,9.566361 -2.641681,2.641681 -6.92468,2.641681 -9.566361,0 z"
      />
</svg>
