<svg 
   xmlns="http://www.w3.org/2000/svg"
   viewBox="0 0 38.4 38.4">
<path
   d="m 29.050001,12.650001 c -0.7,-0.4 -1.6,-0.4 -2.4,0 l -5.6,3.3 -3.8,2.1 -5.5,3.3 c -0.7,0.4 -1.6,0.4 -2.4000002,0 l -4.3,-2.6 c -0.7,-0.4 -1.2,-1.2 -1.2,-2.1 v -5 c 0,-0.8 0.4,-1.6 1.2,-2.1000002 l 4.3,-2.5 c 0.7000002,-0.4 1.6000002,-0.4 2.4000002,0 l 4.3,2.6 c 0.7,0.4000002 1.2,1.2000002 1.2,2.1000002 v 3.3 l 3.8,-2.2 V 9.4500008 c 0,-0.8 -0.4,-1.6 -1.2,-2.1 l -8,-4.7 c -0.7,-0.4 -1.6,-0.4 -2.4000002,0 l -8.2,4.8 c -0.80000004,0.4 -1.20000004,1.2 -1.20000004,2 v 9.4000002 c 0,0.8 0.4,1.6 1.20000004,2.1 l 8.1,4.7 c 0.7000002,0.4 1.6000002,0.4 2.4000002,0 l 5.5,-3.2 3.8,-2.2 5.5,-3.2 c 0.7,-0.4 1.6,-0.4 2.4,0 l 4.3,2.5 c 0.7,0.4 1.2,1.2 1.2,2.1 v 5 c 0,0.8 -0.4,1.6 -1.2,2.1 l -4.2,2.5 c -0.7,0.4 -1.6,0.4 -2.4,0 l -4.3,-2.5 c -0.7,-0.4 -1.2,-1.2 -1.2,-2.1 v -3.2 l -3.8,2.2 v 3.3 c 0,0.8 0.4,1.6 1.2,2.1 l 8.1,4.7 c 0.7,0.4 1.6,0.4 2.4,0 l 8.1,-4.7 c 0.7,-0.4 1.2,-1.2 1.2,-2.1 v -9.5 c 0,-0.8 -0.4,-1.6 -1.2,-2.1 z"/>
</svg>