<svg
   xmlns="http://www.w3.org/2000/svg"
   version="1.1"
   viewBox="0 0 24 24">
  <path
     d="m 7.7068905,7.0119008 c -1.8881262,0 -3.371654,1.0001924 -3.371654,2.8937757 0,1.9083955 1.4835278,2.8922165 3.3708744,2.8922165 h 6.2677681 c 1.825761,0 3.387246,-1.014225 3.387246,-2.8922165 0,-1.8787714 -1.577077,-2.8937757 -3.370875,-2.8937757 z M 13.631647,2.785055 c 4.18163,0 7.864334,2.3480745 7.864334,7.10503 0,4.726552 -3.651521,7.151025 -7.850302,7.151025 H 8.0343112 c -4.1980015,0 -7.85030185,-2.408881 -7.85030185,-7.151025 0,-4.6649659 3.66789185,-7.10503 7.85030185,-7.10503 z m 10.184344,16.114557 c 0,1.2785 -1.039171,2.315333 -2.32001,2.315333 -1.279711,8.57e-4 -2.317939,-1.035623 -2.31923,-2.315333 0,-1.2785 1.038391,-2.315332 2.31923,-2.315332 1.280015,-0.0013 2.318719,1.035318 2.32001,2.315332 z" />
</svg>
