
<svg version="1.1" xmlns="http://www.w3.org/2000/svg" 
	 viewBox="0 0 1271.9 1271.9">
<g>
	<g>
		<polygon points="1271,415.4 1270.9,415.4 1067.3,211.6 1270.9,7.8 1271,7.8 		"/>
	</g>
	<g>
		<polygon points="1272,839.7 1271.9,839.8 1068.3,635.9 1271.9,432.1 1272,432.2 		"/>
	</g>
	<g>
		<polygon points="1272,1264.1 1271.9,1264.1 1068.3,1060.3 1271.9,856.5 1272,856.5 		"/>
	</g>
	<g>
		<polygon points="1060.9,1051.9 1060.8,1051.9 1060.8,644.4 1060.9,644.3 1264.6,848.1 		"/>
	</g>
	<g>
		<polygon points="1060.9,627.6 1060.8,627.5 1060.8,220 1060.9,220 1264.6,423.8 		"/>
	</g>
	<g>
		<polygon points="1060.8,1051.9 857.2,848.1 1060.8,644.4 		"/>
	</g>
	<g>
		<polygon points="1060.8,627.5 857.2,423.8 1060.8,220 		"/>
	</g>
	<g>
		<polygon points="1053,635.4 1053.2,635.6 849.5,839.4 645.8,635.6 645.9,635.4 		"/>
	</g>
	<g>
		<polygon points="645.9,635.7 645.8,635.6 849.5,431.8 1053.2,635.6 1053,635.7 		"/>
	</g>
	<g>
		<polygon  points="637.8,1051.9 637.8,644.3 841.5,848.1 		"/>
	</g>
	<g>
		<polygon  points="637.8,1051.9 434.2,848.1 637.8,644.3 		"/>
	</g>
	<g>
		<polygon points="629,635.4 629.1,635.6 425.4,839.4 221.8,635.6 221.9,635.4 		"/>
	</g>
	<g>
		<polygon points="221.9,635.7 221.8,635.6 425.4,431.8 629.1,635.6 629,635.7 		"/>
	</g>
	<g>
		<polygon points="212.1,1051.9 212.1,644.4 415.7,848.1 		"/>
	</g>
	<g>
		<polygon points="212.1,627.5 212.1,220 415.7,423.8 		"/>
	</g>
	<g>
		<polygon points="212.1,1051.9 212,1051.9 8.4,848.1 212,644.3 212.1,644.4 		"/>
	</g>
	<g>
		<polygon points="212.1,627.5 212,627.6 8.4,423.8 212,220 212.1,220 		"/>
	</g>
	<g>
		<polygon points="0,1264.1 0,1264.1 0,856.5 0,856.5 203.7,1060.3 		"/>
	</g>
	<g>
		<polygon points="0,839.8 0,839.7 0,432.2 0,432.1 203.7,635.9 		"/>
	</g>
	<g>
		<polygon points="0,415.4 0,415.4 0,7.8 0,7.8 203.7,211.6 		"/>
	</g>
</g>
</svg>
