<svg
   xmlns="http://www.w3.org/2000/svg"
   viewBox="0 0 473 473">
  <path
     d="m 287.89396,84.26759 c -21.46488,0 -38.865,17.40012 -38.865,38.865 v 111.88859 h 77.72296 v 89.87048 c 0,14.03509 11.37612,25.41471 25.41001,25.41471 14.0351,0 25.41471,-11.37962 25.41471,-25.41471 V 235.02118 H 326.75896 V 123.13259 c 0,-21.46608 -17.40012,-38.865 -38.865,-38.865 z m 89.68268,150.75359 h 44.8437 v -81.03743 c 0,-12.38376 -10.03808,-22.42184 -22.42185,-22.42184 -12.38377,0 -22.42185,10.03808 -22.42185,22.42184 z m -128.54768,0 h -80.72288 v 113.35097 c 0,22.29054 18.06971,40.36026 40.36026,40.36026 22.29055,0 40.36262,-18.06972 40.36262,-40.36026 z M 142.88902,134.51957 c -14.0339,0 -25.41001,11.37726 -25.41001,25.41236 v 75.09159 h 50.82473 v -75.09159 c 0,-14.0351 -11.37963,-25.41236 -25.41472,-25.41236 z M 117.47901,235.02352 H 51.704029 v 38.05752 c 0,18.16222 14.725232,32.88631 32.888656,32.88631 18.162225,0 32.886325,-14.72409 32.886325,-32.88631 z M 26.876158,185.75508 c -13.709401,0 -24.8231859,11.11379 -24.8231859,24.82319 v 24.55088 H 51.69933 v -24.55088 c 0,-13.7094 -11.112571,-24.82319 -24.823172,-24.82319 z m 394.422152,49.37407 v 24.54855 c 0,13.7106 11.11258,24.82552 24.82317,24.82552 13.70941,0 24.82555,-11.11492 24.82555,-24.82552 v -24.54855 z" />
</svg>
