<svg
   xmlns="http://www.w3.org/2000/svg"
   version="1.1"
   viewBox="0 0 40 40">
  <path
     d="m 38.244858,25.298624 c 0.759755,0.858077 1.174492,1.784085 1.174492,2.751209 0,4.440547 -8.748808,8.039107 -19.540911,8.039107 -10.793891,0 -19.54269906,-3.59856 -19.54269906,-8.039107 0,-0.965337 0.41473708,-1.893132 1.17628026,-2.752996 2.7297569,3.0855 9.9215128,5.289685 18.3664188,5.289685 3.391191,0 6.582164,-0.357532 9.363763,-0.983213 v 2.007543 a 1.3747106,1.3747106 0 1 0 2.745846,0 V 28.85428 c 2.815564,-0.91707 5.005448,-2.143404 6.25681,-3.557443 z M 1.5674377,17.155833 c 2.5885317,3.049748 9.5014133,5.261083 17.7085603,5.380857 v 1.619619 c 0,0.94031 0.61853,1.701853 1.381861,1.701853 0.763331,0 1.381861,-0.761543 1.381861,-1.701853 v -1.65716 a 42.426535,42.426535 0 0 0 6.288988,-0.729366 c 0.171616,0 1.086897,0.06256 1.110137,1.353259 v 3.623587 c -2.776236,0.625681 -5.961846,0.983213 -9.349462,0.983213 -9.612248,0 -17.5959374,-2.869195 -19.2066191,-6.642945 a 3.5574434,3.5574434 0 0 1 -0.30390224,-1.4051 c 0,-0.881317 0.35038143,-1.730455 0.98857604,-2.525964 z m 36.9920483,0.02682 c 0.713277,0.83305 1.104774,1.72688 1.104774,2.660038 0,0.479093 -0.107256,0.94746 -0.303903,1.405101 -0.856288,1.984303 -3.482361,3.714757 -7.191756,4.914277 v -3.956091 l 0.0036,-0.0036 -0.0018,-0.01068 v -0.421889 c 0.03396,-0.368257 0.178766,-0.870589 0.698975,-1.070807 0.67931,-0.239547 1.322868,-0.49697 1.905645,-0.790147 2.443731,-1.228122 3.389404,-2.238149 3.784477,-2.726181 z M 19.878439,3.9110601 c 10.792103,0 19.540911,3.5985594 19.540911,8.0391069 0,0.479093 -0.107256,0.94746 -0.302114,1.403313 -1.490908,3.485937 -8.43418,6.194242 -17.077516,6.58574 0,-1.657161 0.03396,-3.423369 0.647133,-4.540657 0.720427,-1.304992 3.382252,-1.968213 4.011509,-2.318595 1.560627,-0.613167 2.525964,-1.45873 2.525964,-2.393677 0,-1.8716797 -3.879223,-3.3911906 -8.664788,-3.3911906 -4.785566,0 -8.664788,1.5195109 -8.664788,3.3911906 0,0.49697 0.275299,0.965337 0.76333,1.3908 0.07508,0.07151 0.16804,0.146588 0.28245,0.225245 0.286026,0.205581 0.625681,0.398648 1.010029,0.575627 1.129801,0.625681 3.527053,1.524874 4.156309,2.166643 0.972488,0.992152 1.063658,3.187398 1.063658,4.801655 v 0.135862 C 9.8603929,19.846261 2.212783,17.032485 0.6378545,13.35348 A 3.5485051,3.5485051 0 0 1 0.33573994,11.950167 c 0,-4.4405475 8.74880806,-8.0391069 19.54269906,-8.0391069 z" />
</svg>
