<svg viewBox="0 0 19 14" xmlns="http://www.w3.org/2000/svg"><path fill-rule="evenodd" clip-rule="evenodd" d="M16.665 1.163C16.665.52 17.187 0 17.833 0 18.478 0 19 .52 19 1.163v11.674C19 13.48 18.478 14 17.833 14c-.644 0-1.168-.52-1.168-1.163V1.163Zm-16.202 0C.463.52.986 0 1.63 0c.645 0 1.169.52 1.167 1.163v11.674C2.797 13.48 2.275 14 1.63 14c-.644 0-1.167-.52-1.167-1.163V1.163ZM7.03 2.427c-.645 0-1.167.52-1.167 1.162v6.822c0 .643.523 1.162 1.167 1.162.646 0 1.168-.52 1.168-1.162V3.589c0-.642-.522-1.162-1.168-1.162Zm4.234 3.12c0-.641.522-1.162 1.167-1.162s1.168.521 1.168 1.163v2.877c0 .642-.523 1.163-1.168 1.163-.644 0-1.167-.52-1.167-1.163V5.548Z"></path></svg>