<svg
   xmlns="http://www.w3.org/2000/svg"
   version="1.1"
   viewBox="0 0 332 332">
  <path
     d="M 6.2134121,281.78627 H 325.78659 v 48.89114 H 6.2134121 Z M 138.74264,158.20366 c 0.2897,8.29905 1.43146,22.90334 20.90952,27.77712 v -43.81287 l -18.13181,-4.90785 c -19.46102,-5.11235 -51.242817,-13.75223 -51.242817,-52.674282 0,-26.925057 18.898667,-56.116592 69.289417,-57.54805 V 1.3225924 h 16.88781 V 27.088851 c 56.96865,2.573218 67.56826,28.049776 67.84093,58.68981 h -52.09488 c 0.2897,-20.040423 -11.45167,-23.857647 -15.74605,-24.334799 v 40.898828 c 29.77094,6.57789 44.66492,10.02021 58.11041,21.18218 10.88931,9.16815 16.61515,23.19304 16.61515,37.79733 0,12.01402 -4.02172,36.63853 -33.21326,50.95311 -10.5996,5.11235 -23.85765,7.73669 -41.5123,8.87845 v 25.51065 H 159.56695 V 221.18785 C 130.59696,220.04609 87.414616,210.58823 87.124915,158.13549 Z m 20.90952,-97.049499 c -15.18369,4.004677 -16.32544,14.024889 -16.32544,18.319265 0,8.520587 6.57789,16.035746 16.32544,18.319264 z m 16.8878,125.388979 c 14.6043,-2.28352 21.18219,-11.16197 21.18219,-20.89248 0,-14.02489 -12.88313,-17.46721 -16.59811,-18.31927 l -4.58408,-1.43146 z" />
</svg>
