<svg xmlns="http://www.w3.org/2000/svg" viewBox="0 0 37.6 36" version="1.1"><path d="M4.07756665,9.51356962 L22.8725071,9.51356962 C25.685224,9.51356962 27.9737153,11.7833924 27.9737153,14.5731646 C27.9737153,17.3629367 25.685224,19.6327595 22.8725071,19.6327595 L12.7027113,19.6327595 C11.9019002,19.6327595 11.2504084,20.2789367 11.2504084,21.0732152 C11.2504084,21.8674937 11.9019002,22.5136709 12.7027113,22.5136709 L22.8720476,22.5136709 C27.2863868,22.5136709 30.8778616,18.9519494 30.8778616,14.5731646 C30.8778616,10.1943797 27.2863868,6.63265823 22.8720476,6.63265823 L4.07756665,6.63265823 C3.27675553,6.63265823 2.62526375,7.27883544 2.62526375,8.07311392 C2.62526375,8.86739241 3.27675553,9.51356962 4.07756665,9.51356962 Z"></path><path d="M22.8725071,0 L15.583426,0 C14.7826149,0 14.1311231,0.646177215 14.1311231,1.4404557 C14.1311231,2.23473418 14.7826149,2.88091139 15.583426,2.88091139 L22.8725071,2.88091139 C29.3727226,2.88091139 34.6609246,8.12597468 34.6609246,14.5736203 C34.6609246,21.0203544 29.3727226,26.2658734 22.8725071,26.2658734 L4.35553035,26.2658734 C3.55471923,26.2658734 2.90322745,26.9120506 2.90322745,27.7063291 C2.90322745,28.5001519 3.55425978,29.1463291 4.35553035,29.1463291 L22.8720476,29.1463291 C30.9738854,29.1463291 37.5650709,22.6089114 37.5650709,14.5736203 C37.5650709,6.53832911 30.9743449,0 22.8725071,0 Z"></path><path d="M14.4522745,14.5731646 C14.4522745,13.7788861 13.8007828,13.1327089 12.9999716,13.1327089 L9.46041407,13.1327089 C8.65960295,13.1327089 8.00811117,13.7788861 8.00811117,14.5731646 C8.00811117,15.3710886 8.65041407,16.0136203 9.18199092,16.0136203 L12.7210891,16.0136203 C13.7405956,16.0136203 14.4522745,15.4212152 14.4522745,14.5731646 Z"></path><path d="M9.85507657,32.8985316 L1.45230289,32.8985316 C0.651491775,32.8985316 0,33.5447089 0,34.3389873 C0,35.1332658 0.651491775,35.779443 1.45230289,35.779443 L9.85507657,35.779443 C10.6558877,35.779443 11.3073795,35.1332658 11.3073795,34.3389873 C11.3073795,33.5447089 10.6554282,32.8985316 9.85507657,32.8985316 Z"></path></svg>