<svg
   xmlns="http://www.w3.org/2000/svg"
   version="1.1"
   viewBox="0 0 25 25">
  <path
     d="M 1.4000205,0.32507866 11.739185,10.689382 V 0.87262872 c 0,-0.0782087 0,-0.19554407 0.03902,-0.27377501 0.03902,-0.0782088 0.07803,-0.15643972 0.156063,-0.23464849 0.07803,-0.0782309 0.156063,-0.11733533 0.234094,-0.15643972 0.07803,-0.0391265 0.195079,-0.0391265 0.27311,-0.0391265 h 11.626683 0.03902 0.03902 c 0.07803,0 0.195078,0.0391265 0.27311,0.0391265 0.07803,0.0391044 0.156063,0.0782088 0.234094,0.15643972 0.07803,0.0782088 0.117047,0.15643971 0.156063,0.23464849 0.03902,0.0782309 0.03902,0.19556627 0.03902,0.27377501 v 11.57689328 0.07825 11.654836 c 0,0.11749 0,0.195744 -0.03902,0.273775 -0.03902,0.07825 -0.07803,0.156506 -0.156063,0.234759 -0.07803,0.07825 -0.156063,0.117269 -0.234094,0.156507 -0.07803,0.03901 -0.195079,0.03901 -0.27311,0.03901 -0.117047,0 -0.195079,0 -0.312126,-0.03901 -0.07803,-0.03924 -0.195078,-0.07825 -0.234094,-0.156507 L 13.260797,14.32671 v 9.855902 c 0,0.07825 0,0.195744 -0.03902,0.273775 -0.03902,0.07825 -0.07803,0.156506 -0.156063,0.234759 -0.07803,0.07825 -0.156063,0.117269 -0.234094,0.156507 -0.07803,0.03901 -0.195079,0.03901 -0.27311,0.03901 H 0.89281619 0.85380047 c -0.0780314,0 -0.19507858,-0.03901 -0.27311001,-0.03901 C 0.50265906,24.808413 0.4246276,24.769403 0.34659617,24.691146 0.26856477,24.612896 0.22954903,24.53464 0.19053331,24.456387 0.15151761,24.378357 0.15151761,24.260865 0.15151761,24.182612 V 12.527776 c 0,-0.07825 0,-0.117491 0.0390157,-0.195744 V 0.87262872 c 0,-0.15643968 0.0390157,-0.27377501 0.11704715,-0.43021473 0.0780314,-0.11733533 0.19507857,-0.23467066 0.35114143,-0.27377504 0.11704715,-0.0391044 0.27311,-0.0782088 0.42917291,-0.0391044 0.078031,0.0391044 0.2340943,0.11733533 0.3121257,0.19554411 z" />
</svg>
