<svg xmlns="http://www.w3.org/2000/svg" viewBox="0 0 20.5 24">
  <g transform="translate(-0.574 -0.1)">
    <path d="M-2454-31c-.3,0-.5-.3-.4-.5l3.6-18.857c.1-.2.2-.4.4-.4h2.5c.3,0,.5.3.4.5l-.2.807c0,.4.4.706.7.5a9.788,9.788,0,0,1,6.1-1.916c4.4,0,7,2.319,7,6.454a20.091,20.091,0,0,1-.2,2.218l-2.1,10.588c-.1.2-.2.4-.4.4h-2.6c-.3,0-.5-.3-.4-.5l2.1-10.387a11.736,11.736,0,0,0,.2-1.614c0-2.52-1.5-3.932-4.5-3.932-3.8,0-6.3,2.017-7.1,6.252l-2,9.983c-.1.2-.2.4-.4.4Z" transform="translate(2455 55)"/>
  </g>
</svg>
