<svg
   xmlns="http://www.w3.org/2000/svg"
   viewBox="0 0 2000 2000">
  <path
     d="M 997.55078 0.06640625 A 72.07 72.07 0 0 0 986.56445 1.3144531 C 974.07445 3.7644531 962.81516 10.013203 952.78516 17.533203 C 686.62516 212.0732 420.45229 406.60305 154.26562 601.12305 A 74.71 74.71 0 0 0 122.19531 662.84375 C 122.03531 887.74374 122.03531 1112.6337 122.19531 1337.5137 C 121.84531 1361.8737 134.48563 1385.5144 154.51562 1399.2344 C 420.67563 1593.6744 686.78065 1788.1569 952.83398 1982.6836 C 978.29398 2004.4636 1018.2356 2006.1831 1044.5156 1984.9531 C 1311.729 1789.8398 1578.8421 1594.634 1845.8555 1399.334 C 1865.9655 1385.784 1878.9755 1361.724 1877.8555 1337.334 L 1877.875 1337.3242 C 1877.9283 1112.3642 1877.9283 887.40646 1877.875 662.45312 C 1878.785 639.45312 1867.2354 616.56391 1848.7754 603.00391 C 1580.7087 407.13724 1312.6378 211.24112 1044.5645 15.314453 A 72.07 72.07 0 0 0 997.55078 0.06640625 z M 931.67773 143.36328 C 932.4136 143.36118 933.16969 143.40992 933.94531 143.51367 C 976.15531 143.76367 1018.4641 142.85289 1060.6641 143.96289 C 1067.9741 148.50289 1073.5742 155.31406 1079.8242 161.16406 C 1079.6642 204.72406 1079.6642 248.29305 1079.8242 291.87305 C 1067.2642 292.02305 1054.6655 292.58461 1042.1055 291.72461 C 1041.3455 288.64461 1039.8355 282.59344 1039.1055 279.52344 C 1039.1055 246.99344 1041.9251 214.42336 1039.2051 181.94336 C 1008.1851 181.99003 977.18508 181.99003 946.20508 181.94336 C 946.05508 192.88336 946.0043 203.88422 945.9043 214.82422 C 932.8443 214.82422 919.735 214.82461 906.625 214.72461 C 906.715 197.31461 904.79445 179.61422 907.31445 162.32422 C 913.9332 154.82422 920.63973 143.39478 931.67773 143.36328 z M 823.48633 215.03711 C 830.62758 215.01211 837.77555 215.09844 844.93555 215.27344 C 845.13555 275.53344 845.38516 335.74313 844.78516 395.95312 C 831.16516 396.25314 817.55436 396.2543 803.98438 396.1543 C 799.45437 336.1543 803.07422 275.68461 802.07422 215.47461 C 809.20922 215.19961 816.34508 215.06211 823.48633 215.03711 z M 1222.043 279.89258 C 1241.0255 279.89883 1260.0041 279.99805 1278.9941 280.12305 C 1279.1941 294.04305 1279.1941 307.91422 1278.9941 321.82422 C 1240.9941 322.22422 1202.9941 322.37461 1164.9941 321.72461 C 1164.8541 307.90461 1164.8541 293.99461 1164.9941 280.22461 L 1165.0742 280.22461 C 1184.0742 279.97461 1203.0605 279.88633 1222.043 279.89258 z M 980.6543 300.44336 C 995.3243 328.98336 1013.7343 355.61367 1025.6543 385.51367 C 1011.5843 386.17367 997.46453 386.17461 983.39453 386.22461 C 966.67453 357.99461 950.5343 329.43414 934.6543 300.74414 C 949.9843 300.39414 965.3143 300.44336 980.6543 300.44336 z M 1111.0723 350.71094 C 1117.7098 350.71094 1124.3556 350.77305 1131.0156 350.87305 C 1167.1156 406.87305 1202.2042 463.5343 1238.5742 519.4043 C 1238.5742 536.4043 1238.5754 553.4043 1238.2754 570.4043 C 1234.3354 569.6943 1226.5753 568.33359 1222.6953 567.68359 C 1191.8353 521.68359 1163.4455 474.04375 1132.9355 427.84375 C 1132.4355 479.84375 1133.084 531.84375 1132.584 583.84375 C 1118.764 584.09708 1104.9152 584.09708 1091.0352 583.84375 C 1090.8652 506.23375 1090.6158 428.57383 1091.1758 350.92383 C 1097.8058 350.77383 1104.4348 350.71094 1111.0723 350.71094 z M 1277.1797 382.2207 C 1284.2522 382.2332 1291.3248 382.3332 1298.3848 382.5332 C 1298.4848 395.8432 1298.4848 409.2132 1298.3848 422.5332 C 1284.2648 422.8832 1270.0954 422.88477 1256.0254 422.63477 C 1255.9254 409.26143 1255.9254 395.86026 1256.0254 382.43359 C 1263.0685 382.28431 1270.1241 382.20823 1277.1797 382.2207 z M 635.93555 394.30273 C 650.7993 394.41398 665.66492 394.98875 680.54492 395.84375 C 680.64492 408.75375 680.54531 421.71305 680.44531 434.62305 C 636.44531 461.04305 594.16516 490.34305 549.53516 515.62305 C 536.37516 510.62305 526.3357 500.09445 515.5957 491.31445 C 544.7957 473.51445 573.38477 454.75313 602.88477 437.45312 C 587.95477 436.69313 572.98469 436.79453 558.05469 436.64453 C 557.79469 422.92453 557.7443 409.24042 557.9043 395.59375 C 569.0443 395.39375 580.19398 395.44297 591.33398 395.54297 C 606.20898 394.54297 621.0718 394.19148 635.93555 394.30273 z M 930.41406 410.64258 C 937.25281 410.64883 944.08453 410.74883 950.89453 410.92383 C 951.24453 424.64383 951.24453 438.30344 950.89453 452.02344 C 937.22786 452.42344 923.5612 452.44089 909.89453 452.07422 C 909.57453 438.35422 909.57453 424.63716 909.89453 410.92383 C 916.72953 410.72383 923.57531 410.63633 930.41406 410.64258 z M 840.44531 450.36328 C 840.44531 472.36328 841.90414 494.59422 839.99414 516.57422 C 819.72414 551.31422 796.27555 584.14359 774.43555 617.93359 C 752.95555 584.70359 730.20398 552.17297 709.83398 518.29297 C 707.52398 495.99297 709.18516 473.45445 709.28516 451.06445 C 731.17516 484.24445 752.40398 517.88328 774.58398 550.86328 C 796.72398 517.48328 818.10531 483.59328 840.44531 450.36328 z M 1413.8301 456.45117 C 1446.6834 456.45951 1479.5379 456.54622 1512.3945 456.71289 C 1512.3945 470.02289 1512.394 483.39289 1512.334 496.71289 C 1446.674 496.86622 1380.9887 496.88367 1315.2754 496.76367 C 1315.2154 483.39367 1315.1754 469.99406 1315.2754 456.66406 C 1348.1254 456.51406 1380.9767 456.44284 1413.8301 456.45117 z M 987.32227 508.50391 C 993.94726 508.49141 1000.5799 508.52852 1007.2148 508.60352 C 1007.8748 566.89352 1007.2145 625.24352 1007.5645 683.60352 C 1001.4145 689.45352 995.31445 695.40352 989.31445 701.35352 C 943.77445 701.85352 898.24586 701.35352 852.75586 701.60352 C 846.75586 695.85352 840.60508 690.3543 835.20508 684.1543 C 832.88508 666.3043 834.59492 648.0943 834.54492 630.1543 C 847.21159 630.0543 859.9174 630.0543 872.66406 630.1543 C 873.01406 640.4443 872.96445 650.72367 872.81445 661.01367 C 904.13445 664.54367 935.69406 662.01344 967.16406 662.77344 C 967.32406 611.42344 966.82461 559.99312 967.47461 508.70312 C 974.07961 508.57813 980.69727 508.51641 987.32227 508.50391 z M 1623.3711 548.69922 C 1630.2598 548.69297 1637.1545 548.76836 1644.0645 548.94336 C 1644.5111 592.94336 1644.5111 636.98445 1644.0645 681.06445 C 1630.2845 681.29445 1616.5259 681.24445 1602.7559 681.06445 L 1602.7148 681.01367 C 1602.3015 637.01367 1602.3015 592.99003 1602.7148 548.94336 C 1609.5998 548.79336 1616.4823 548.70547 1623.3711 548.69922 z M 1460.1914 580.19922 C 1468.3145 580.26799 1476.4246 580.77461 1484.5059 582.08398 C 1501.4459 637.30398 1515.9745 693.37336 1532.8145 748.69336 C 1519.5045 748.79336 1506.1345 748.79297 1492.8145 748.79297 C 1480.1045 705.88297 1469.2643 662.46453 1456.1543 619.64453 C 1448.8443 619.74453 1441.5348 619.84453 1434.2148 619.89453 C 1423.3248 663.11453 1410.2148 705.67438 1398.9648 748.73438 C 1385.5448 748.78103 1372.1313 748.76359 1358.7246 748.68359 C 1375.2346 693.37359 1390.7259 637.68359 1406.5059 582.18359 C 1424.3809 582.01172 1442.3205 580.04792 1460.1914 580.19922 z M 384.81445 602.94531 C 414.7807 602.92656 444.74531 603.01367 474.69531 603.26367 C 475.04531 617.03367 475.04414 630.74367 474.74414 644.51367 C 414.74414 645.06367 354.82523 644.91445 294.86523 644.56445 C 294.67547 630.81139 294.6767 616.97708 294.92578 603.26367 C 324.88078 603.08867 354.8482 602.96406 384.81445 602.94531 z M 523.37695 603.2207 C 530.1907 603.21445 537.0107 603.23945 543.8457 603.31445 C 544.1457 617.13445 544.1457 630.99445 543.8457 644.81445 C 530.1757 644.96445 516.56531 644.91445 502.94531 644.81445 C 502.78531 630.99445 502.78531 617.22406 502.94531 603.41406 L 502.94531 603.31445 C 509.75531 603.26445 516.5632 603.22695 523.37695 603.2207 z M 653.51562 604.96289 L 653.51562 605.01367 C 666.87563 604.91367 680.2943 604.96328 693.6543 605.11328 C 694.0543 637.11328 693.85547 669.20438 693.85547 701.23438 C 680.28547 701.33438 666.72484 701.38437 653.21484 701.23438 C 653.07484 669.23437 652.65563 637.06289 653.51562 604.96289 z M 1746.9355 633.46289 C 1762.1655 661.70289 1780.6756 688.46477 1792.0156 718.63477 C 1778.0156 719.13477 1763.9243 719.18414 1749.9043 719.24414 C 1733.3243 690.85414 1717.5344 661.99367 1700.7344 633.76367 L 1700.7441 633.76367 C 1716.1241 633.46367 1731.5555 633.51289 1746.9355 633.46289 z M 1114.4043 667.93945 C 1121.071 667.93945 1127.7376 667.96367 1134.4043 668.01367 C 1134.7043 711.88367 1134.4941 755.75477 1134.4941 799.63477 C 1121.0841 799.73477 1107.7145 799.7832 1094.3145 799.7832 C 1094.3145 755.89012 1094.2445 711.93677 1094.4043 668.01367 C 1101.071 667.96367 1107.7376 667.93945 1114.4043 667.93945 z M 1255.3086 679.98242 C 1262.0623 680.00117 1268.8195 680.08867 1275.5645 680.26367 C 1275.5645 693.98367 1275.6648 707.69406 1275.4648 721.41406 C 1262.0248 721.46406 1248.4654 721.41406 1235.0254 721.41406 L 1235.0742 721.36328 C 1234.9142 707.64328 1234.9142 693.89328 1235.0742 680.11328 C 1241.8042 680.01328 1248.5548 679.96367 1255.3086 679.98242 z M 573.99414 715.76367 C 595.93414 716.01367 617.81586 715.76445 639.75586 716.06445 C 607.17586 739.36445 572.53586 759.48461 539.75586 782.47461 C 573.44586 803.65461 606.47508 825.84461 639.95508 847.22461 C 617.41508 847.62461 594.87398 847.37383 572.33398 847.42383 C 539.80398 825.34383 506.01414 804.99383 473.99414 782.17383 C 506.31414 758.57383 540.81414 738.05367 573.99414 715.76367 z M 1623.4922 743.66016 C 1630.4072 743.65391 1637.3306 743.7293 1644.2656 743.9043 C 1644.6056 757.7243 1644.5641 771.48469 1644.1641 785.30469 C 1630.3941 785.60469 1616.5845 785.55469 1602.8145 785.30469 C 1602.5145 771.53135 1602.5145 757.76391 1602.8145 744.00391 L 1602.7656 743.9043 C 1609.6706 743.7543 1616.5772 743.66641 1623.4922 743.66016 z M 287.70703 749.21094 C 322.24828 749.20469 356.8007 749.3293 391.3457 749.6543 C 391.4957 762.7143 391.49492 775.82359 391.54492 788.93359 C 360.68492 809.15359 329.82547 829.47437 298.10547 848.23438 C 284.69547 843.34438 274.55547 832.23398 263.10547 824.08398 C 280.19547 813.29398 297.54547 802.85469 314.10547 791.30469 C 270.78547 791.10469 227.47547 791.55469 184.10547 791.05469 C 183.90547 777.23469 183.90547 763.40135 184.10547 749.55469 L 184.13477 749.55469 C 218.63477 749.35469 253.16578 749.21719 287.70703 749.21094 z M 774.94531 789.59375 C 834.70531 789.84375 894.45406 789.29375 954.16406 789.84375 A 170.74 170.74 0 0 1 953.61523 830.69336 C 894.05523 830.94336 834.55469 830.74297 775.05469 830.79297 C 774.94802 817.01297 774.91198 803.28042 774.94531 789.59375 z M 1014.7266 789.64453 C 1021.9003 789.66953 1029.0756 789.79297 1036.2656 790.04297 C 1036.3123 803.4563 1036.2917 816.83693 1036.2051 830.18359 C 1021.8851 830.58359 1007.515 830.58398 993.20508 830.33398 C 993.06508 816.82398 993.06508 803.33375 993.20508 789.84375 C 1000.3868 789.69389 1007.5561 789.61954 1014.7266 789.64453 z M 1227.5859 816.4668 C 1236.3597 816.48555 1245.1341 816.54961 1253.9141 816.72461 C 1254.3141 829.93461 1254.3155 843.14406 1254.1055 856.41406 C 1243.0255 856.61406 1231.8652 856.61367 1220.7852 856.76367 L 1220.7852 950.86328 C 1272.3652 951.21328 1323.9549 950.66406 1375.5449 951.16406 C 1375.6949 964.52406 1375.6957 977.89406 1375.3457 991.16406 C 1317.2557 991.56406 1259.1056 991.21328 1201.0156 991.36328 C 1193.6056 981.68328 1179.3853 974.36469 1181.1953 960.30469 C 1180.9353 922.76469 1180.9353 885.2081 1181.1953 847.63477 L 1181.1445 847.63477 C 1179.2745 833.46477 1193.8056 826.20461 1201.2656 816.47461 C 1210.0406 816.47461 1218.8122 816.44805 1227.5859 816.4668 z M 1580.2637 834.68555 C 1617.8178 834.64746 1655.3668 834.85547 1692.9355 834.82422 C 1693.0355 848.69422 1693.035 862.61461 1692.875 876.47461 C 1632.815 876.47461 1572.7653 876.97461 1512.6953 876.22461 C 1512.4953 862.50461 1512.4953 848.80305 1512.6953 835.12305 C 1535.2229 834.81971 1557.7449 834.70838 1580.2637 834.68555 z M 1398.1309 834.74805 C 1405.2721 834.74805 1412.4197 834.87305 1419.5547 835.12305 C 1419.708 848.73638 1419.708 862.35461 1419.5547 875.97461 C 1405.2847 876.47461 1391.0649 876.47461 1376.7949 875.97461 C 1376.6453 862.33719 1376.646 848.75823 1376.7949 835.12109 C 1376.778 835.12169 1376.761 835.12245 1376.7441 835.12305 L 1376.7949 835.02344 C 1376.7946 835.05601 1376.7953 835.08852 1376.7949 835.12109 C 1383.8881 834.87228 1391.0066 834.74805 1398.1309 834.74805 z M 1064.2598 882.68359 C 1082.1839 882.47178 1098.9422 901.10977 1096.6641 918.88477 C 1096.5507 957.70477 1096.5321 996.56796 1096.6055 1035.4746 C 1089.8455 1042.7846 1083.0444 1049.9939 1076.2344 1057.2539 C 1058.7344 1057.2539 1041.2949 1057.2547 1023.7949 1057.0547 C 1023.6483 1043.7214 1023.6308 1030.4066 1023.7441 1017.1133 C 1034.6841 1016.9633 1045.6442 1016.8629 1056.5742 1016.7129 C 1056.5742 986.15289 1056.5758 955.54436 1056.6758 924.98438 C 1005.3358 920.39436 953.60523 924.22328 902.11523 922.86328 C 901.98857 909.52995 901.98857 896.27065 902.11523 883.08398 L 902.125 883.08398 C 954.975 883.03398 1007.8241 883.08437 1060.6641 882.98438 C 1061.8641 882.79687 1063.0648 882.69771 1064.2598 882.68359 z M 780.99414 883.0332 C 781.29414 897.0332 781.29414 911.0332 780.99414 925.0332 C 747.35414 925.08654 713.73477 925.08654 680.13477 925.0332 C 679.5481 911.0332 679.51826 897.05065 680.04492 883.08398 C 713.71792 883.03411 747.33107 883.08318 780.99414 883.0332 z M 568.36914 895.22852 C 581.26664 895.22227 594.16422 895.28436 607.07422 895.48438 C 622.70422 951.30438 639.49539 1006.8243 654.27539 1062.9043 C 641.27539 1062.9043 628.2757 1062.9039 615.3457 1063.0039 C 602.0857 1019.9339 591.84578 976.06313 578.17578 933.20312 C 570.81578 933.65313 563.45398 934.20367 556.08398 934.76367 C 546.30398 977.93367 532.33453 1019.9831 521.64453 1062.9531 C 508.28453 1062.9531 494.91453 1062.9547 481.64453 1062.8047 C 497.54453 1006.9947 513.37453 951.10477 529.64453 895.38477 L 529.66406 895.38477 C 542.57406 895.30977 555.47164 895.23477 568.36914 895.22852 z M 1723.5977 945.32227 C 1746.1052 945.28352 1768.6042 945.43289 1791.0742 945.96289 C 1802.4242 952.96289 1815.2259 964.32414 1812.7559 979.24414 C 1812.7559 1011.2441 1812.5559 1043.3333 1812.7559 1075.3633 C 1812.3559 1090.7433 1813.0555 1106.1239 1812.6055 1121.5039 C 1813.3155 1134.0639 1809.8855 1146.4134 1810.6055 1159.0234 C 1797.7955 1159.0234 1784.9858 1159.023 1772.1758 1158.873 C 1772.3258 1101.083 1772.1754 1043.2431 1772.2754 985.45312 C 1740.8454 984.59312 1709.4454 985.25391 1678.0254 985.00391 C 1677.9654 995.74391 1677.9654 1006.4834 1677.7754 1017.2734 C 1664.5554 1017.4734 1651.3383 1017.5413 1638.125 1017.4746 C 1637.875 999.77463 1637.9346 982.02422 1637.9746 964.32422 C 1644.0646 958.22422 1650.0645 952.06445 1656.0645 945.81445 L 1656.0742 945.81445 C 1678.5742 945.58945 1701.0902 945.36102 1723.5977 945.32227 z M 375.45508 947.42383 L 375.50586 947.42383 L 417.30469 947.42383 C 417.40469 991.34383 417.30469 1035.2136 417.30469 1079.0938 L 375.30469 1079.0938 C 375.50469 1035.2237 375.35508 991.30383 375.45508 947.42383 z M 249.49023 984.09766 C 261.49264 984.05268 273.48406 984.45766 285.44531 985.25391 C 285.59865 998.26057 285.59865 1011.2873 285.44531 1024.334 C 271.62531 1024.484 257.81414 1024.534 243.99414 1024.334 C 243.84414 1010.914 243.8957 997.55336 244.3457 984.19336 L 244.3457 984.14453 C 246.0607 984.11953 247.77561 984.10408 249.49023 984.09766 z M 755.89062 991.69727 C 762.69813 991.70977 769.50445 991.78359 776.31445 991.93359 C 808.31445 1043.5236 841.31414 1094.5532 873.99414 1145.7832 C 888.11414 1163.9832 879.64406 1188.3942 881.91406 1209.5742 C 877.17406 1209.5742 872.43414 1209.6734 867.74414 1209.7734 C 838.34414 1163.0734 807.63414 1117.1834 779.49414 1069.7734 C 774.40414 1121.3134 778.58578 1173.303 776.92578 1225.043 C 763.07578 1225.183 749.27563 1225.184 735.51562 1224.834 C 735.15562 1147.174 735.13818 1069.5073 735.46484 991.83398 C 742.27484 991.73398 749.08313 991.68477 755.89062 991.69727 z M 937.86914 1021.4531 C 944.80247 1021.4365 951.73911 1021.4868 958.67578 1021.6035 C 958.87578 1055.5435 958.82578 1089.4841 958.67578 1123.4141 C 944.75578 1123.6641 930.88461 1123.6645 916.97461 1123.3145 C 916.74461 1089.4345 916.68461 1055.5431 916.97461 1021.7031 L 917.07422 1021.7031 C 924.00422 1021.5531 930.93581 1021.4698 937.86914 1021.4531 z M 1188.8652 1067 C 1195.6665 1066.9938 1202.4752 1067.0186 1209.2852 1067.0938 C 1209.5385 1080.9138 1209.5385 1094.7296 1209.2852 1108.543 C 1195.6652 1108.5963 1182.0644 1108.5963 1168.4844 1108.543 C 1168.3244 1094.7763 1168.3244 1080.9779 1168.4844 1067.1445 L 1168.4844 1067.0938 C 1175.2694 1067.0437 1182.064 1067.0062 1188.8652 1067 z M 1364.1504 1068.5859 C 1385.2866 1068.6047 1406.429 1068.7039 1427.584 1068.7539 C 1429.294 1081.1039 1430.3545 1093.6638 1429.1445 1106.1738 C 1425.1445 1114.2938 1415.5741 1111.0642 1408.4141 1111.8242 C 1372.4141 1110.7642 1336.3047 1113.8942 1300.5547 1109.8242 C 1300.3047 1096.1342 1300.3059 1082.5243 1300.7559 1068.9043 C 1321.8859 1068.6293 1343.0141 1068.5672 1364.1504 1068.5859 z M 1491.7559 1074.3867 C 1498.6009 1074.398 1505.4459 1074.6989 1512.2559 1075.7539 C 1513.5659 1123.4539 1512.8047 1171.3142 1512.5547 1219.0742 C 1498.788 1219.3276 1485.038 1219.3276 1471.3047 1219.0742 C 1470.8447 1170.9876 1470.8447 1122.898 1471.3047 1074.8047 L 1471.2559 1074.7539 C 1478.0659 1074.6539 1484.9109 1074.3755 1491.7559 1074.3867 z M 1124.4082 1102.9707 C 1127.7427 1102.9754 1131.0743 1102.9887 1134.4043 1103.0137 C 1134.5543 1116.7337 1134.5943 1130.4945 1134.4043 1144.3145 C 1121.071 1144.5145 1107.7376 1144.5145 1094.4043 1144.3145 C 1094.3044 1130.5713 1094.3047 1116.7669 1094.4043 1103.0137 C 1104.3868 1103.0137 1114.4046 1102.9566 1124.4082 1102.9707 z M 515.8125 1129.6523 C 542.68014 1129.7045 569.59453 1130.6228 596.42578 1129.7734 A 318.7 318.7 0 0 1 633.23438 1131.4336 C 633.43438 1145.3036 633.38437 1159.224 633.23438 1173.084 C 573.23437 1172.984 513.36484 1173.3848 453.46484 1172.8848 C 453.10484 1159.3748 453.10484 1145.8836 453.21484 1132.3438 L 453.26562 1132.3438 C 474.04688 1130.095 494.91545 1129.6118 515.8125 1129.6523 z M 229.82031 1143.8359 C 238.48781 1143.8547 247.14969 1143.9285 255.80469 1144.1035 C 256.00469 1157.2135 256.0043 1170.3744 255.9043 1183.4844 C 245.1143 1183.7344 234.37398 1183.7848 223.58398 1183.8848 C 223.83398 1215.1548 223.43398 1246.4136 223.83398 1277.6836 C 274.91398 1277.8336 326.00398 1277.3336 377.08398 1277.9336 C 377.33398 1290.8436 377.33438 1303.7033 377.23438 1316.6133 C 364.57438 1316.6633 351.86437 1316.7129 339.23438 1316.7129 C 293.90437 1316.2629 248.51438 1317.4741 203.23438 1316.1641 C 195.67436 1311.8741 188.055 1304.8147 184.625 1296.8047 C 183.435 1252.2347 184.48438 1207.6037 184.23438 1163.0137 L 184.18555 1163.0137 C 190.69555 1156.6637 197.24469 1150.2543 203.80469 1143.9043 C 212.47969 1143.8543 221.15281 1143.8172 229.82031 1143.8359 z M 1264.6055 1169.9531 C 1308.7755 1170.3031 1352.955 1169.9535 1397.125 1170.1035 C 1403.785 1176.4535 1410.435 1182.8641 1417.125 1189.1641 C 1417.1783 1232.8841 1417.1783 1276.5868 1417.125 1320.2734 C 1403.665 1320.3734 1390.1952 1320.2738 1376.7852 1319.9238 C 1376.7852 1283.1638 1376.4855 1246.4534 1376.9355 1209.6934 C 1345.9355 1209.6434 1315.0645 1209.6945 1284.1445 1209.6445 C 1284.1945 1220.8345 1284.1445 1232.0346 1283.8945 1243.2246 C 1270.6345 1243.4246 1257.3743 1243.423 1244.1543 1243.373 C 1243.7243 1225.253 1243.825 1207.1537 1243.875 1189.0137 L 1243.9258 1189.0137 C 1250.7358 1182.6137 1257.5955 1176.2031 1264.6055 1169.9531 z M 1675.4258 1171.9844 C 1687.2258 1179.8544 1698.8242 1188.1245 1710.3242 1196.3945 C 1674.7642 1219.0612 1639.2313 1241.6713 1603.7246 1264.2246 C 1655.9146 1264.7746 1708.1155 1264.2234 1760.3555 1264.5234 C 1760.4555 1278.3934 1760.4555 1292.3138 1760.3555 1306.1738 C 1682.7821 1306.4272 1605.2224 1306.4272 1527.6758 1306.1738 C 1527.4758 1292.8038 1527.4742 1279.4438 1527.5742 1266.1738 L 1527.5254 1266.1836 C 1576.5254 1234.2636 1626.0158 1203.1844 1675.4258 1171.9844 z M 1122.0352 1178.2832 C 1133.7252 1186.3532 1145.2855 1194.5732 1157.1855 1202.2832 C 1123.1855 1226.1832 1087.0953 1247.0147 1052.4453 1270.0547 C 1104.3353 1270.9647 1156.2252 1269.9535 1208.1152 1270.6035 C 1208.4652 1284.8735 1208.4652 1299.1929 1208.1152 1313.4629 C 1130.4552 1313.9129 1052.7852 1313.6133 975.11523 1313.6133 C 973.11612 1300.5291 973.11527 1287.2747 973.02539 1274.0605 C 973.00855 1274.0718 972.99145 1274.0824 972.97461 1274.0938 L 973.02539 1274.043 C 973.02543 1274.0488 973.02535 1274.0547 973.02539 1274.0605 C 1022.1796 1241.3434 1072.892 1210.992 1122.0352 1178.2832 z M 593.1543 1238.0332 C 593.6043 1260.2732 593.25508 1282.5647 593.45508 1304.8047 C 570.86508 1337.8847 550.18414 1372.2743 526.99414 1404.9043 C 505.51414 1372.1243 484.68492 1338.9046 462.29492 1306.7246 C 462.07492 1284.0846 461.84492 1261.393 462.54492 1238.793 C 484.12492 1271.793 505.7657 1304.7948 527.0957 1337.8848 C 549.9857 1305.2048 570.4643 1270.8832 593.1543 1238.0332 z M 709.51562 1281.0918 C 719.71845 1281.0941 729.9475 1281.3293 740.125 1282.1543 C 740.425 1295.9143 740.425 1309.6798 740.125 1323.4531 C 726.485 1323.5631 712.815 1323.6131 699.125 1323.4531 L 699.07422 1323.4629 C 698.57422 1309.3429 698.52422 1295.2243 699.32422 1281.1543 C 702.71672 1281.1168 706.11469 1281.091 709.51562 1281.0918 z M 912.00977 1343.7129 C 918.90477 1343.7066 925.80055 1343.7436 932.68555 1343.8438 C 933.03555 1395.1236 932.68477 1446.4134 932.88477 1497.6934 C 923.10477 1498.0934 913.31516 1498.5531 903.53516 1499.4531 C 900.40516 1498.8431 894.15539 1497.7436 891.02539 1497.1836 C 891.33539 1446.1036 890.77398 1394.9745 891.33398 1343.8945 L 891.33398 1343.8438 C 898.21898 1343.7686 905.11477 1343.7191 912.00977 1343.7129 z M 736.45508 1374.043 C 748.00508 1382.163 759.6557 1390.0435 771.0957 1398.3535 C 735.1957 1420.6935 699.99437 1444.1938 663.73438 1465.9238 C 716.28436 1466.9238 768.87461 1465.7732 821.47461 1466.5332 C 821.72461 1480.3532 821.775 1494.1644 821.375 1507.9844 C 743.465 1508.2344 665.55453 1508.594 587.64453 1507.834 C 587.25453 1494.714 587.30508 1481.6041 587.45508 1468.4941 C 636.92508 1436.7241 686.29508 1404.753 736.45508 1374.043 z M 1254.1055 1375.7129 C 1270.0388 1431.5329 1285.9915 1487.3569 1301.9648 1543.1836 C 1288.5548 1543.1836 1275.1354 1543.1848 1261.7754 1542.8848 C 1250.3754 1500.2248 1238.0258 1457.8131 1226.4258 1415.2031 C 1219.1658 1414.7531 1211.9045 1414.4437 1204.6445 1414.0938 C 1192.6445 1457.1537 1180.6775 1500.2041 1168.7441 1543.2441 C 1155.3341 1543.2441 1141.9655 1543.243 1128.6055 1543.043 C 1144.9355 1487.473 1161.1753 1431.903 1176.1953 1376.043 L 1176.1953 1376.0137 C 1202.1953 1375.5137 1228.1255 1375.8629 1254.1055 1375.7129 z M 1039.3945 1381.5645 C 1056.3945 1409.5645 1076.4555 1437.3331 1085.1855 1469.2031 C 1071.6155 1469.3031 1058.0549 1469.3043 1044.5449 1469.4043 C 1028.5849 1440.8643 1012.4275 1412.4569 996.07422 1384.1836 A 304.64 304.64 0 0 0 1039.3945 1381.5645 z M 1590.0605 1400.918 C 1597.163 1400.8992 1604.27 1400.973 1611.375 1401.123 C 1611.435 1414.683 1611.435 1428.2664 1611.375 1441.873 C 1597.165 1442.223 1582.9845 1442.223 1568.8145 1441.623 C 1568.5645 1428.153 1568.5645 1414.7434 1568.8145 1401.2734 C 1575.8865 1401.0493 1582.9711 1400.9367 1590.0605 1400.918 z M 1386.7441 1425.9746 C 1408.5241 1458.6046 1429.1045 1492.0843 1451.3945 1524.4043 C 1457.6845 1521.7443 1460.5145 1514.993 1464.3945 1509.793 L 1464.3457 1509.793 C 1481.4957 1482.213 1499.8457 1455.4343 1517.0957 1427.9043 C 1517.5957 1448.3243 1517.9045 1468.8034 1517.3945 1489.2734 C 1517.8945 1496.9434 1512.3046 1502.8936 1508.7246 1509.0938 C 1489.7246 1537.1836 1471.5055 1565.8237 1452.8555 1594.0938 C 1430.4155 1560.6137 1408.6841 1526.7737 1386.4941 1493.0938 C 1386.3941 1470.7036 1386.1941 1448.3146 1386.7441 1425.9746 z M 463.56641 1469.3867 C 481.76516 1469.418 499.97078 1469.6337 518.17578 1469.7637 C 518.37578 1483.2237 519.23564 1496.7631 517.51562 1510.2031 C 481.40562 1511.9631 445.15492 1511.1131 409.04492 1510.4531 C 408.89492 1496.9931 408.89414 1483.5733 408.99414 1470.1133 C 427.17414 1469.5083 445.36766 1469.3555 463.56641 1469.3867 z M 1027.084 1557.5645 C 1033.7507 1564.2311 1040.4173 1570.9369 1047.084 1577.6836 C 1046.834 1622.2136 1046.9344 1666.7941 1046.9844 1711.4141 C 1041.1377 1717.5141 1035.3548 1723.6838 1029.6348 1729.9238 C 1010.9748 1730.3238 992.31477 1730.3742 973.63477 1729.8242 C 973.88477 1717.2142 972.27492 1704.3539 975.29492 1692.0039 C 985.83492 1690.8939 996.42444 1691.2934 1007.0645 1691.1934 C 1007.1645 1659.9834 1007.0645 1628.8143 1007.0645 1597.6543 C 955.42444 1597.3543 903.7343 1598.3143 852.1543 1597.1543 C 851.9943 1584.0943 851.9943 1571.047 852.1543 1558.0137 L 852.25586 1558.0137 C 910.54586 1557.1537 968.794 1558.0145 1027.084 1557.5645 z M 592.66016 1572.709 C 599.47682 1572.7257 606.29833 1572.8003 613.125 1572.9336 C 613.325 1586.5403 613.34245 1600.1914 613.17578 1613.8848 C 599.45578 1614.0848 585.78911 1614.1003 572.17578 1613.9336 C 571.98911 1600.2136 571.98911 1586.514 572.17578 1572.834 L 572.22461 1572.834 C 579.03128 1572.734 585.84349 1572.6923 592.66016 1572.709 z M 1303.375 1590.7852 C 1314.9702 1590.6094 1325.7852 1604.918 1336.1055 1609.8633 L 1336.1055 1614.7539 C 1301.6155 1636.9939 1266.3142 1658.0238 1232.5742 1681.4238 L 1252.1445 1681.2734 C 1262.5245 1681.2734 1272.9474 1681.3897 1283.4141 1681.623 C 1283.5141 1695.243 1283.5145 1708.9034 1283.3145 1722.5234 C 1240.8545 1723.1334 1198.3955 1722.973 1155.9355 1722.623 C 1155.0755 1709.763 1154.9342 1696.853 1154.8242 1684.043 C 1200.1542 1653.043 1247.4545 1625.0433 1293.3945 1594.8633 L 1293.4453 1594.8633 C 1296.8206 1592.0195 1300.1283 1590.8344 1303.375 1590.7852 z M 731.5293 1632.4395 C 759.10055 1632.4207 786.66961 1632.509 814.22461 1632.834 C 814.32461 1646.394 814.32461 1659.9773 814.22461 1673.584 C 759.05461 1674.394 703.93539 1674.0332 648.77539 1673.7832 C 648.52539 1660.0732 648.57539 1646.3536 648.77539 1632.6836 L 648.82422 1632.6836 C 676.38422 1632.5836 703.95805 1632.4582 731.5293 1632.4395 z M 819.02148 1737.2559 C 826.78773 1737.2621 834.55422 1737.3246 842.32422 1737.4746 C 856.69422 1766.0646 875.80547 1792.3936 886.85547 1822.5938 C 872.93547 1823.3537 859.0643 1823.3531 845.1543 1823.4531 C 828.1543 1795.0631 812.26461 1765.993 795.72461 1737.373 C 803.48961 1737.298 811.25523 1737.2496 819.02148 1737.2559 z M 1081.1797 1780.832 C 1091.3516 1780.8883 1101.512 1781.1687 1111.6445 1781.8438 C 1111.8945 1795.4137 1111.794 1809.023 1110.084 1822.543 C 1097.124 1822.5963 1084.198 1822.5963 1071.3047 1822.543 C 1070.8047 1808.543 1070.8041 1794.7137 1070.9941 1780.8438 L 1071.0059 1780.8438 C 1074.3984 1780.8186 1077.7891 1780.8133 1081.1797 1780.832 z M 976.95508 1820.7344 C 990.62508 1820.7344 1004.3351 1821.4944 1017.9551 1822.7344 C 1018.1084 1853.7477 1018.1084 1884.7776 1017.9551 1915.8242 C 1004.1151 1916.0376 990.28174 1916.0376 976.45508 1915.8242 L 976.45508 1915.793 C 976.45508 1884.123 975.74508 1852.4044 976.95508 1820.7344 z " />
</svg>
