<svg
   xmlns="http://www.w3.org/2000/svg"
   viewBox="0 0 579 579">
<path
   d="m 442.71969,102.58481 -48.3,22.9 c -0.2,0.1 -0.5,0.3 -0.6,0.5 -0.2,0.2 -0.3,0.4 -0.4,0.7 -0.1,0.3 -0.1,0.5 -0.1,0.8 0,0.3 0.1,0.5 0.2,0.8 l 73.4,154.7 c 27.3,57.6 20,101.2 -21.5,121 -33.6,15.9 -62.5,4.8 -85.1,-34 l -87,-183.3 c -35.2,-74.3 -83.2,-93.999995 -140.2,-66.9 -36.999996,17.6 -58.499996,49 -58.099996,88.9 0,0.5 -0.1,0.9 -0.4,1.3 -0.3,0.4 -0.7,0.6 -1.2,0.7 -0.5,0.1 -0.9,0.1 -1.4,-0.1 -0.4,-0.2 -0.8,-0.5 -1,-1 l -19,-40 c -0.1,-0.2 -0.3,-0.5 -0.5,-0.6 -0.2,-0.2 -0.4,-0.3 -0.7,-0.4 -0.2,-0.2 -0.4,-0.2 -0.7,-0.2 -0.3,0 -0.5,0.1 -0.8,0.2 l -48.2000002,22.9 c -0.49999995,0.2 -0.89999995,0.6 -0.99999995,1.2 -0.2,0.5 -0.2,1.1 0.1,1.6 l 133.29999615,281.1 c 0.2,0.5 0.7,0.9 1.2,1.1 0.5,0.2 1.1,0.2 1.6,-0.1 l 48.3,-22.9 c 0.2,-0.1 0.5,-0.3 0.6,-0.5 0.2,-0.2 0.3,-0.4 0.4,-0.7 0.1,-0.3 0.1,-0.5 0.1,-0.8 0,-0.3 -0.1,-0.5 -0.2,-0.8 l -71.4,-150.4 c -29.099996,-61.4 -23.599996,-105.8 20.9,-126.9 34.2,-16.2 60.8,-5.3 84.7,36.3 0,0 0.1,0.1 0.1,0.2 l 86.1,181.4 c 33.2,70 84.8,94 139.2,68.2 42.1,-20 59.6,-50 58.5,-89.6 0,-0.5 0.1,-0.9 0.4,-1.3 0.3,-0.4 0.7,-0.6 1.2,-0.7 0.5,-0.1 0.9,-0.1 1.4,0.1 0.4,0.2 0.8,0.5 1,1 l 19.2,40.4 c 0.1,0.2 0.3,0.5 0.5,0.6 0.2,0.2 0.4,0.3 0.7,0.4 0.3,0.1 0.5,0.1 0.8,0.1 0.3,0 0.5,-0.1 0.8,-0.2 l 48.3,-22.9 c 0.2,-0.1 0.5,-0.3 0.6,-0.5 0.2,-0.2 0.3,-0.4 0.4,-0.7 0.1,-0.3 0.1,-0.5 0.1,-0.8 0,-0.3 -0.1,-0.5 -0.2,-0.8 l -133.4,-281 c -0.2,-0.5 -0.7,-0.9 -1.2,-1.1 -0.5,-0.2 -1.1,-0.1 -1.5,0.1 z" />
</svg>