<svg xmlns="http://www.w3.org/2000/svg" viewBox="72 0 368 375"><path d="M119.129 179.41c0 10.944-8.864 19.821-19.815 19.821-10.942 0-19.816-8.877-19.816-19.82 0-10.944 8.874-19.812 19.816-19.812 10.95 0 19.816 8.868 19.816 19.811m314.912 0c0 10.944-8.875 19.821-19.811 19.821-10.946 0-19.821-8.877-19.821-19.82 0-10.944 8.875-19.812 19.82-19.812 10.937 0 19.812 8.868 19.812 19.811m-157.456 78.195c0 10.942-8.874 19.819-19.814 19.819-10.945 0-19.818-8.877-19.818-19.819 0-10.942 8.873-19.813 19.818-19.813 10.94 0 19.814 8.871 19.814 19.813m-79.264-38.558c0 10.939-8.869 19.816-19.818 19.816-10.945 0-19.814-8.877-19.814-19.816 0-10.948 8.87-19.816 19.814-19.816 10.95 0 19.818 8.868 19.818 19.816m157.456 0c0 10.939-8.873 19.816-19.813 19.816-10.95 0-19.819-8.877-19.819-19.816 0-10.948 8.87-19.816 19.819-19.816 10.94 0 19.813 8.868 19.813 19.816m-242.075 20.356c0 7.382-5.99 13.385-13.382 13.385-7.402 0-13.396-6.003-13.396-13.385 0-7.4 5.994-13.394 13.396-13.394 7.393 0 13.382 5.993 13.382 13.394m314.912 0c0 7.382-5.998 13.385-13.39 13.385-7.395 0-13.388-6.003-13.388-13.385 0-7.4 5.993-13.394 13.389-13.394 7.391 0 13.39 5.993 13.39 13.394m-157.457 79.25c0 7.396-6 13.398-13.384 13.398-7.389 0-13.394-6.002-13.394-13.399 0-7.39 6.005-13.379 13.394-13.379 7.383 0 13.384 5.988 13.384 13.38m-79.264-39.618c0 7.394-5.993 13.384-13.384 13.384-7.396 0-13.394-5.99-13.394-13.384 0-7.399 5.998-13.394 13.394-13.394 7.391 0 13.384 5.995 13.384 13.394m157.456 0c0 7.394-6.001 13.384-13.381 13.384-7.4 0-13.397-5.99-13.397-13.384 0-7.399 5.997-13.394 13.397-13.394 7.38 0 13.381 5.995 13.381 13.394m-242.075 7.486a6.962 6.962 0 11-13.925 0 6.957 6.957 0 016.965-6.955 6.956 6.956 0 016.96 6.955m314.912 0a6.962 6.962 0 11-13.925 0 6.955 6.955 0 016.965-6.955c3.838 0 6.96 3.112 6.96 6.955m-157.456 79.266c0 3.846-3.122 6.967-6.96 6.967a6.967 6.967 0 01-6.964-6.967 6.958 6.958 0 016.964-6.958 6.96 6.96 0 016.96 6.958m-79.263-39.627a6.967 6.967 0 01-6.965 6.962 6.966 6.966 0 01-6.96-6.962 6.96 6.96 0 016.96-6.962 6.961 6.961 0 016.965 6.962m157.456 0c0 3.841-3.123 6.962-6.96 6.962A6.96 6.96 0 01328 326.16a6.953 6.953 0 016.965-6.962 6.961 6.961 0 016.96 6.962m-58.912-299.38c0 14.792-11.991 26.777-26.771 26.777-14.795 0-26.786-11.985-26.786-26.777C229.456 11.99 241.447 0 256.242 0c14.78 0 26.77 11.99 26.77 26.779m0 79.263c0 14.79-11.99 26.778-26.77 26.778-14.795 0-26.786-11.988-26.786-26.778 0-14.786 11.991-26.778 26.786-26.778 14.78 0 26.77 11.992 26.77 26.778m0 78.197c0 14.784-11.99 26.774-26.77 26.774-14.795 0-26.786-11.99-26.786-26.774 0-14.793 11.991-26.783 26.786-26.783 14.78 0 26.77 11.99 26.77 26.783m157.457-78.197c0 14.79-11.99 26.778-26.776 26.778-14.792 0-26.78-11.988-26.78-26.778 0-14.786 11.988-26.778 26.78-26.778 14.787 0 26.776 11.992 26.776 26.778m-314.913 0c0 14.79-11.986 26.778-26.775 26.778C83.99 132.82 72 120.832 72 106.042c0-14.786 11.991-26.778 26.78-26.778 14.79 0 26.776 11.992 26.776 26.778M204.82 66.41c0 14.788-11.987 26.778-26.778 26.778-14.791 0-26.778-11.99-26.778-26.778 0-14.798 11.987-26.778 26.778-26.778 14.79 0 26.778 11.98 26.778 26.778m0 78.19c0 14.79-11.987 26.78-26.778 26.78-14.791 0-26.778-11.99-26.778-26.78 0-14.785 11.987-26.776 26.778-26.776 14.79 0 26.778 11.991 26.778 26.776m157.456-78.19c0 14.788-11.99 26.778-26.78 26.778-14.79 0-26.776-11.99-26.776-26.778 0-14.798 11.986-26.778 26.776-26.778s26.78 11.98 26.78 26.778m0 78.19c0 14.79-11.99 26.78-26.78 26.78-14.79 0-26.776-11.99-26.776-26.78 0-14.785 11.986-26.776 26.776-26.776s26.78 11.991 26.78 26.776"></path></svg>