<svg
   xmlns="http://www.w3.org/2000/svg"
   viewBox="0 0 3500 3500">
  <path
     d="M 1750,9.9746075 C 1271.297,9.9165255 899.93916,171.69155 635.92929,495.29968 372.09373,818.79158 240.1192,1237.025 240.00302,1750 c -0.0649,286.4342 41.09095,543.3344 123.43129,770.7265 l 771.26759,-803.9762 c 1.2655,-108.6475 9.2541,-211.9524 24.0192,-309.8767 16.0323,-107.8694 43.9145,-220.6174 83.6467,-338.2456 39.5579,-117.57009 103.4547,-210.68646 191.6903,-279.34645 88.2358,-68.65999 195.3506,-102.98929 321.3434,-102.98929 180.8279,0.058 321.5191,70.22976 422.0693,210.51223 l -842.345,877.64681 0.126,0.1192 -892.76227,930.624 c 53.81584,107.5756 118.34508,207.4765 193.61681,299.6794 264.12593,323.4339 635.48046,485.1515 1114.06726,485.1515 478.5868,0 849.8873,-161.7176 1113.8972,-485.1515 C 3128.0806,2681.3238 3260.0551,2263.033 3259.997,1750 3259.958,1404.1699 3199.9385,1101.4248 3079.9606,841.74789 L 2361.755,1590.4089 c 2.4919,51.037 3.7438,104.2294 3.7438,159.5911 0.1163,120.8811 -7.9553,235.257 -24.2199,343.1264 -16.2647,107.8694 -44.1469,220.6174 -83.6466,338.2456 -39.558,117.5701 -103.4548,210.6865 -191.6904,279.3465 -88.2357,68.66 -195.3505,102.9893 -321.3434,102.9893 -227.3564,-0.1163 -391.2218,-110.8312 -491.5978,-332.1464 l 844.0092,-879.5122 -1.2695,-1.2184 892.5581,-930.40945 C 2950.7273,609.2486 2909.2579,550.87454 2863.8937,495.29968 2600.0001,171.80773 2228.703,10.032689 1750,9.9746075 Z" />
</svg>
