<svg
   xmlns="http://www.w3.org/2000/svg"
   viewBox="0 0 250 250">
<path
   d="M 43.094238,85.603092 C 37.30763,85.47011 30.974179,86.127565 27.07667,87.479762 10.532142,93.461245 -0.02941127,113.952 3.7885566,133.04184 c 1.908984,9.54492 4.0729955,13.99723 10.0544784,20.23324 7.890468,8.52678 12.980595,10.43727 26.852545,10.43727 11.072107,0 12.725069,-0.38229 18.833817,-3.6912 11.326638,-6.36328 17.563149,-16.41676 18.963072,-30.67051 1.781718,-19.5989 -9.544424,-37.925147 -26.216217,-42.633974 -2.433954,-0.668144 -5.71005,-1.033785 -9.182014,-1.113574 z m 169.422322,0.164053 c -5.59396,-0.04697 -9.12832,0.551816 -13.24854,2.222177 -23.92594,9.544919 -30.67151,44.797488 -12.59979,66.178108 9.79945,11.70843 32.96179,13.87145 43.2703,3.94474 l 2.80133,-2.67208 0.38031,3.56194 c 0.3818,3.18164 0.76459,3.43766 6.74607,3.43766 h 6.36328 l 0.38031,-20.10895 0.38279,-19.97971 h -17.94396 -17.81718 v 6.36328 6.36328 h 10.81758 c 11.70843,0 12.09072,0.25403 8.78182,7.12638 -2.29078,4.70882 -10.43578,9.41815 -16.54453,9.41815 -14.63554,0 -23.41737,-10.31 -23.41737,-26.9818 0.12727,-18.45351 11.96247,-29.015063 28.1252,-25.197095 6.23602,1.527185 12.5998,6.999105 12.5998,10.944345 0,1.27265 1.90898,1.78221 7.63593,1.78221 h 7.50917 l -1.78222,-5.72695 c -3.94523,-13.362885 -13.74468,-20.109452 -29.90741,-20.618515 -0.89086,-0.03182 -1.73375,-0.05046 -2.53289,-0.05717 z M 89.056507,86.716666 v 38.179674 38.17968 h 6.36328 6.363283 l 0.25354,-25.70914 0.38279,-25.83343 9.41814,25.83343 9.41567,25.83591 6.36328,-0.38279 6.36328,-0.38031 9.29138,-25.45312 9.29139,-25.45312 0.3803,25.45312 0.38279,25.45312 6.74359,0.38031 6.6193,0.38279 -0.25602,-37.92614 -0.38031,-37.923656 h -8.78182 -8.90859 l -10.18125,28.251966 c -5.59969,15.65367 -10.56255,27.99843 -10.94434,27.3621 -0.50907,-0.50906 -5.09063,-12.5983 -10.18125,-26.97931 C 111.96431,101.60674 107.12723,89.133719 106.4909,88.242859 105.72731,87.352 102.16536,86.716666 97.202002,86.716666 Z M 40.790036,99.316455 c 5.154255,0.03182 10.340329,1.398925 14.158297,4.071505 7.508671,5.47242 11.327632,18.07221 8.655055,29.14432 -5.090624,21.38062 -33.217813,25.58038 -42.889998,6.36328 -5.854218,-11.45391 -2.798849,-29.39836 6.109743,-35.63437 3.690702,-2.67258 8.812646,-3.976551 13.966903,-3.944735 z" />
</svg>