<svg
   xmlns="http://www.w3.org/2000/svg"
   viewBox="0, 0, 400,400"
   version="1.1">
  <path
     d="M 200.15234 -0.029296875 C 185.06247 7.8125e-05 169.99814 0.1865 169.99414 0.5 C 169.98914 0.866 169.89558 0.85407813 169.64258 0.45507812 C 169.42558 0.11307812 169.24244 0.06984375 169.14844 0.33984375 C 169.06044 0.59884375 167.396 0.818625 165 0.890625 C 161.956 0.980625 161.02537 1.1351562 161.10938 1.5351562 C 161.16938 1.8231563 161.04789 1.9522656 160.83789 1.8222656 C 160.62689 1.6922656 160.34113 1.7691875 160.20312 1.9921875 C 160.06512 2.2161875 158.53383 2.4003906 156.79883 2.4003906 C 154.11983 2.4003906 153.5627 2.5175938 153.0957 3.1835938 C 152.6527 3.8155938 152.02347 3.9829687 149.85547 4.0429688 C 147.79447 4.0999688 147.04892 4.2812656 146.66992 4.8222656 C 146.33492 5.3002656 145.5335 5.5674375 144.1875 5.6484375 C 142.2395 5.7654375 141.09966 6.2951563 141.47266 6.9101562 C 141.57566 7.0801562 141.51108 7.1931094 141.33008 7.1621094 C 139.86508 6.9071094 137.58952 7.2592187 137.85352 7.6992188 C 138.07352 8.0652187 137.97891 8.0598281 137.50391 7.6738281 C 136.95391 7.2288281 136.72992 7.2700781 136.04492 7.9550781 C 135.54692 8.4530781 134.60661 8.8023281 133.59961 8.8613281 C 132.69761 8.9143281 131.74942 9.235125 131.48242 9.578125 C 131.05142 10.132125 131.08678 10.138141 131.80078 9.6191406 C 132.42278 9.1681406 132.48952 9.1637031 132.10352 9.5957031 C 131.58852 10.174703 131.09272 10.30775 128.88672 10.46875 C 128.16472 10.52175 127.28278 10.888203 126.92578 11.283203 C 126.56878 11.677203 125.86909 12 125.37109 12 C 124.87409 12 124.37663 12.225 124.26562 12.5 C 124.10462 12.9 124.05625 12.9 124.03125 12.5 C 124.01125 12.188 123.69822 12.301781 123.19922 12.800781 C 122.75922 13.240781 121.95039 13.623391 121.40039 13.650391 C 119.54839 13.743391 119.40039 13.798391 119.40039 14.400391 C 119.40039 14.768391 118.94089 15.051766 118.21289 15.134766 C 117.55989 15.208766 116.54217 15.614156 115.95117 16.035156 C 115.36017 16.456156 114.43072 16.800781 113.88672 16.800781 C 113.34272 16.800781 112.65161 17.104563 112.34961 17.476562 C 111.87661 18.059562 111.88339 18.1065 112.40039 17.8125 C 112.73139 17.6245 112.86045 17.6245 112.68945 17.8125 C 112.51845 17.9995 111.97923 18.223594 111.49023 18.308594 C 111.00023 18.393594 110.3727 18.504687 110.0957 18.554688 C 109.8187 18.605687 109.3687 18.889594 109.0957 19.183594 C 108.6967 19.613594 108.70911 19.654484 109.16211 19.396484 C 109.48811 19.210484 109.62719 19.233172 109.49219 19.451172 C 109.36519 19.657172 108.66264 19.871734 107.93164 19.927734 C 107.19964 19.982734 106.331 20.316922 106 20.669922 C 105.67 21.023922 105.61209 21.194781 105.87109 21.050781 C 106.13109 20.905781 106.43111 20.927609 106.53711 21.099609 C 106.64311 21.271609 106.25006 21.434891 105.66406 21.462891 C 103.98706 21.544891 103.43795 21.749 102.87695 22.5 C 102.58995 22.885 101.89784 23.199219 101.33984 23.199219 C 100.66184 23.199219 100.25523 23.465 100.11523 24 C 99.972234 24.547 99.569797 24.800781 98.841797 24.800781 C 98.234797 24.800781 97.527219 25.144609 97.199219 25.599609 C 96.882219 26.039609 96.303109 26.400391 95.912109 26.400391 C 95.520109 26.400391 94.840391 26.759219 94.400391 27.199219 C 93.960391 27.639219 93.312891 28 92.962891 28 C 92.611891 28 92.230234 28.360781 92.115234 28.800781 C 91.999234 29.243781 91.569344 29.599609 91.152344 29.599609 C 90.420344 29.599609 90.050172 29.849703 87.826172 31.845703 C 87.241172 32.370703 86.412422 32.800781 85.982422 32.800781 C 85.552422 32.800781 85.199219 32.989703 85.199219 33.220703 C 85.199219 33.452703 84.570781 33.904562 83.800781 34.226562 C 83.030781 34.548563 82.400391 35.077297 82.400391 35.404297 C 82.400391 35.732297 82.040609 36 81.599609 36 C 80.883609 36 80.613906 36.416781 80.753906 37.300781 C 80.779906 37.465781 80.665 37.578734 80.5 37.552734 C 79.687 37.423734 79.274984 37.671391 79.083984 38.400391 C 78.942984 38.940391 78.538797 39.199219 77.841797 39.199219 C 77.240797 39.199219 76.596641 39.535 76.306641 40 C 76.031641 40.44 75.533219 40.800781 75.199219 40.800781 C 74.865219 40.800781 74.36875 41.159609 74.09375 41.599609 C 73.81875 42.039609 73.415266 42.400391 73.197266 42.400391 C 72.631266 42.400391 71.219766 43.885781 71.509766 44.175781 C 71.642766 44.308781 71.312391 44.367594 70.775391 44.308594 C 70.056391 44.227594 69.814469 44.384391 69.855469 44.900391 C 69.890469 45.350391 69.627187 45.599609 69.117188 45.599609 C 68.661187 45.599609 68.235234 45.939391 68.115234 46.400391 C 67.999234 46.843391 67.569344 47.199219 67.152344 47.199219 C 66.666344 47.199219 66.400391 47.483 66.400391 48 C 66.400391 48.533 66.132609 48.800781 65.599609 48.800781 C 65.066609 48.800781 64.800781 49.066609 64.800781 49.599609 C 64.800781 50.058609 64.532828 50.400391 64.173828 50.400391 C 63.507828 50.400391 61.332 52.74525 61.5 53.28125 C 61.555 53.45725 61.441047 53.555 61.248047 53.5 C 60.698047 53.344 57.199219 56.086828 57.199219 56.673828 C 57.199219 56.962828 56.962828 57.199219 56.673828 57.199219 C 56.022828 57.199219 53.350203 60.729609 53.533203 61.349609 C 53.607203 61.597609 53.540719 61.674531 53.386719 61.519531 C 53.057719 61.190531 52 62.146484 52 62.771484 C 52 63.007484 51.639219 63.199219 51.199219 63.199219 C 50.666219 63.199219 50.400391 63.467 50.400391 64 C 50.400391 64.533 50.132609 64.800781 49.599609 64.800781 C 49.066609 64.800781 48.800781 65.066609 48.800781 65.599609 C 48.800781 66.132609 48.533 66.400391 48 66.400391 C 47.483 66.400391 47.199219 66.666344 47.199219 67.152344 C 47.199219 67.569344 46.843391 67.999234 46.400391 68.115234 C 45.939391 68.235234 45.599609 68.661188 45.599609 69.117188 C 45.599609 69.627188 45.350391 69.890469 44.900391 69.855469 C 44.515391 69.824469 44.200172 70.070391 44.201172 70.400391 C 44.203172 70.730391 43.799734 71.395859 43.302734 71.880859 C 42.806734 72.364859 42.400391 73.129078 42.400391 73.580078 C 42.400391 74.132078 42.139609 74.400391 41.599609 74.400391 C 41.102609 74.400391 40.800781 74.666516 40.800781 75.103516 C 40.800781 75.490516 40.44 76.031641 40 76.306641 C 39.56 76.581641 39.199219 77.055375 39.199219 77.359375 C 39.199219 77.663375 38.885 77.885469 38.5 77.855469 C 37.98 77.813469 37.81175 78.083391 37.84375 78.900391 C 37.86775 79.505391 37.720531 80 37.519531 80 C 37.317531 80 37.26725 80.184156 37.40625 80.410156 C 37.54525 80.635156 37.511078 80.794672 37.330078 80.763672 C 36.473078 80.614672 36 80.855359 36 81.443359 C 36 82.029359 35.641 82.518797 33.5 84.841797 C 33.115 85.258797 32.800781 85.876891 32.800781 86.212891 C 32.800781 86.549891 32.079219 87.487875 31.199219 88.296875 C 30.058219 89.345875 29.599609 90.091484 29.599609 90.896484 C 29.599609 91.518484 29.337625 92.126 29.015625 92.25 C 28.512625 92.443 27.883312 93.608797 27.820312 94.466797 C 27.809313 94.612797 27.635547 94.882406 27.435547 95.066406 C 27.218547 95.264406 27.208109 95.158781 27.412109 94.800781 C 27.706109 94.283781 27.659172 94.275047 27.076172 94.748047 C 26.704172 95.050047 26.400391 95.706078 26.400391 96.205078 C 26.400391 96.822078 26.176219 97.093641 25.699219 97.056641 C 25.024219 97.002641 24.946703 97.184734 24.845703 99.052734 C 24.819703 99.545734 24.462 99.994234 24 100.11523 C 23.362 100.28223 23.199219 100.66233 23.199219 101.98633 C 23.199219 102.90933 23.035125 103.54597 22.828125 103.41797 C 22.283125 103.08097 21.656766 104.24991 21.509766 105.87891 C 21.485766 106.14191 21.361422 106.34408 21.232422 106.33008 C 20.497422 106.25108 20.161797 106.47761 20.091797 107.09961 C 19.928797 108.54561 19.746063 109.18628 19.414062 109.48828 C 19.226063 109.66028 19.216578 109.52922 19.392578 109.19922 C 19.666578 108.68722 19.616688 108.6898 19.054688 109.2168 C 18.691688 109.5558 18.350875 110.57452 18.296875 111.47852 C 18.243875 112.38352 18.061578 113.03759 17.892578 112.93359 C 17.724578 112.82959 17.713141 112.53148 17.869141 112.27148 C 18.031141 112.00248 17.861563 112.03661 17.476562 112.34961 C 17.065562 112.68261 16.800781 113.46952 16.800781 114.35352 C 16.800781 115.35852 16.560391 115.95702 16.025391 116.29102 C 15.576391 116.57102 15.200953 117.32589 15.126953 118.08789 C 15.045953 118.93189 14.786391 119.40039 14.400391 119.40039 C 13.798391 119.40039 13.743391 119.54839 13.650391 121.40039 C 13.623391 121.95039 13.284438 122.71556 12.898438 123.10156 C 12.513438 123.48656 12.135547 124.52234 12.060547 125.40234 C 11.915547 127.11134 11.778469 127.40039 11.105469 127.40039 C 10.664469 127.40039 10.497078 128.02812 10.330078 130.32812 C 10.276078 131.05912 10.063469 131.76162 9.8554688 131.89062 C 9.6284687 132.03062 9.6124531 131.8985 9.8144531 131.5625 C 10.100453 131.0875 10.051234 131.08211 9.4902344 131.53711 C 9.1242344 131.83311 8.840375 132.19389 8.859375 132.33789 C 9.107375 134.21089 8.7318594 135.94975 8.1308594 135.71875 C 7.6308594 135.52675 7.5230312 135.62547 7.7070312 136.10547 C 7.8430313 136.45947 7.7946094 136.80405 7.5996094 136.87305 C 7.4046094 136.94205 7.2042969 138.03483 7.1542969 139.29883 C 7.1042969 140.56283 6.9837656 141.51697 6.8847656 141.41797 C 6.3647656 140.89797 5.5996094 142.56761 5.5996094 144.22461 C 5.5996094 145.52561 5.3788125 146.30691 4.8828125 146.75391 C 4.3608125 147.22591 4.1403125 148.0947 4.0703125 149.9707 C 3.9963125 151.9367 3.8021875 152.66364 3.2421875 153.05664 C 2.6521875 153.46964 2.4955 154.17006 2.4375 156.66406 C 2.3975 158.36606 2.1953281 159.9658 1.9863281 160.2168 C 1.7783281 160.4688 1.7393437 160.82195 1.9023438 161.00195 C 2.0663437 161.18195 1.9875156 161.20659 1.7285156 161.05859 C 1.0905156 160.69259 0.56640625 161.60714 1.1914062 161.99414 C 1.5434062 162.21114 1.5571875 162.37922 1.2421875 162.57422 C 0.9781875 162.73622 0.80078125 164.13244 0.80078125 166.02344 C 0.80078125 168.29444 0.65878125 169.20108 0.30078125 169.20508 C -0.03221875 169.20908 0.000390625 169.34161 0.40039062 169.59961 C 0.80039063 169.85761 0.833 169.99014 0.5 169.99414 C -0.125 170.00214 -0.24314063 229.44897 0.38085938 229.66797 C 0.58985937 229.74097 0.79303125 231.57795 0.83203125 233.75195 C 0.89103125 237.01695 1.0343438 237.83317 1.6523438 238.45117 C 2.1933437 238.99217 2.4131719 239.836 2.4511719 241.5 C 2.5421719 245.589 2.6273594 246.08484 3.3183594 246.58984 C 3.8063594 246.94684 4 247.67053 4 249.14453 C 4.4228838 254.54728 8.0833202 264.98745 10.433594 271.48633 C 10.399594 271.75533 10.737547 272.20438 11.185547 272.48438 C 12.10703 274.38088 12.948194 274.14322 14.587891 275.19922 C 14.723891 275.19922 18.830797 279.21886 23.716797 284.13086 C 34.390797 294.86086 42.681656 301.67313 55.597656 310.32812 C 57.688656 311.72913 60.030781 313.22344 60.800781 313.64844 C 61.570781 314.07344 62.829609 314.80444 63.599609 315.27344 C 75.466609 322.49844 95.173 331.12448 109 335.14648 C 110.54 335.59448 112.79 336.26472 114 336.63672 C 115.21 337.00772 117.19039 337.54413 118.40039 337.82812 C 119.61039 338.11212 121.31922 338.52514 122.19922 338.74414 C 128.29322 340.26614 136.48852 341.82556 142.47852 342.60156 C 144.96552 342.92356 148.26078 343.36694 149.80078 343.58594 C 161.14978 345.20194 188.40978 345.20194 200.80078 343.58594 C 202.45078 343.36994 205.95961 342.91803 208.59961 342.58203 C 211.23961 342.24603 213.93961 341.81028 214.59961 341.61328 C 215.25961 341.41628 216.60961 341.14572 217.59961 341.01172 C 220.74061 340.58672 232.80622 337.88505 237.19922 336.62305 C 253.61222 331.90905 265.48061 327.39142 279.59961 320.48242 C 286.87061 316.92342 299.99739 309.3793 305.40039 305.6543 C 309.70839 302.6833 312.64653 300.60431 313.64453 299.82031 C 314.21953 299.36831 315.09861 298.73039 315.59961 298.40039 C 330.51261 288.58439 353.98667 264.024 366.63867 245 C 368.10167 242.8 369.60647 240.55 369.98047 240 C 370.35547 239.45 371.36747 237.76772 372.23047 236.26172 C 373.09347 234.75472 374.13873 232.95472 374.55273 232.26172 C 377.66573 227.05372 385.59961 210.92178 385.59961 209.80078 C 385.59961 209.64678 385.85688 208.95377 386.17188 208.25977 C 386.48687 207.56677 387.21406 205.73922 387.78906 204.19922 C 388.36406 202.65922 389.17103 200.50039 389.58203 199.40039 C 389.99203 198.30039 390.80939 195.78078 391.40039 193.80078 C 391.99039 191.82078 392.63694 189.74922 392.83594 189.19922 C 393.34694 187.78522 394.7678 182.17578 395.2168 179.80078 C 396.0668 175.30378 397.95126 173.04869 398.45117 171.49805 C 398.7518 169.25559 398.44761 164.6523 398.34961 163.15039 C 398.29941 162.37986 397.61702 161.67562 397.54102 159.14062 C 397.46502 156.56963 397.28289 155.68133 396.71289 155.11133 C 396.17489 154.57333 395.97227 153.73927 395.94727 151.94727 C 395.92127 150.12527 395.72325 149.32286 395.15625 148.75586 C 394.49325 148.09286 394.2982 146.90541 394.4082 144.19141 C 394.4232 143.83041 393.41097 142.87744 393.16797 143.02344 C 393.03997 143.10044 392.8957 142.13781 392.8457 140.88281 C 392.7967 139.62781 392.59539 138.54361 392.40039 138.47461 C 392.20539 138.40561 392.15697 138.05908 392.29297 137.70508 C 392.47697 137.22508 392.36914 137.12636 391.86914 137.31836 C 391.20814 137.57236 390.95869 136.47678 391.17969 134.30078 C 391.21869 133.91578 391.06489 133.59961 390.83789 133.59961 C 390.61089 133.59961 390.54064 133.29964 390.68164 132.93164 C 390.87664 132.42364 390.77753 132.32258 390.26953 132.51758 C 389.72953 132.72458 389.60061 132.52633 389.59961 131.48633 C 389.59861 130.77833 389.24545 129.62106 388.81445 128.91406 C 388.38345 128.20806 387.97139 126.85806 387.90039 125.91406 C 387.79939 124.58406 387.61694 124.21186 387.08594 124.25586 C 386.48694 124.30386 386.04 122.15831 386.5 121.44531 C 386.555 121.36031 386.19612 120.95492 385.70312 120.54492 C 385.16812 120.09992 384.77275 119.277 384.71875 118.5 C 384.66975 117.785 384.49222 117.19922 384.32422 117.19922 C 383.85322 117.19922 382.88675 115.06347 383.09375 114.48047 C 383.19575 114.19547 382.90145 113.63538 382.43945 113.23438 C 381.96845 112.82537 381.54647 111.91034 381.48047 111.15234 C 381.39347 110.16434 381.17669 109.81447 380.67969 109.85547 C 380.20769 109.89347 379.98512 109.58847 379.95312 108.85547 C 379.86212 106.78547 379.79161 106.60125 379.09961 106.65625 C 378.44361 106.70825 378.20695 106.12119 378.37695 104.86719 C 378.41695 104.57519 378.11127 104.03597 377.69727 103.66797 C 376.82427 102.89297 376.23319 101.6397 376.36719 100.8457 C 376.42619 100.4907 376.23308 100.3782 375.83008 100.5332 C 375.34408 100.7202 375.19922 100.50489 375.19922 99.587891 C 375.19922 98.667891 375.02039 98.400391 374.40039 98.400391 C 373.96039 98.400391 373.57878 98.130781 373.55078 97.800781 C 373.52378 97.470781 373.47722 96.795781 373.44922 96.300781 C 373.42122 95.789781 373.14178 95.400391 372.80078 95.400391 C 372.47078 95.400391 372.13845 94.972219 372.06445 94.449219 C 371.99145 93.926219 371.46925 93.070828 370.90625 92.548828 C 370.34325 92.026828 370.02241 91.599609 370.19141 91.599609 C 370.36041 91.599609 370.27591 91.331906 370.00391 91.003906 C 369.73191 90.676906 369.3493 90.507906 369.1543 90.628906 C 368.9593 90.749906 368.80078 90.245719 368.80078 89.511719 C 368.80078 88.634719 368.525 87.977609 368 87.599609 C 367.56 87.282609 367.19922 86.7035 367.19922 86.3125 C 367.19922 85.8675 366.90039 85.599609 366.40039 85.599609 C 365.81339 85.599609 365.59961 85.332609 365.59961 84.599609 C 365.59961 84.049609 365.41069 83.599609 365.17969 83.599609 C 364.94769 83.599609 364.49583 82.969219 364.17383 82.199219 C 363.85183 81.429219 363.32114 80.800781 362.99414 80.800781 C 362.66714 80.800781 362.40039 80.482703 362.40039 80.095703 C 362.40039 79.708703 362.03961 79.167578 361.59961 78.892578 C 361.15961 78.617578 360.80078 78.101141 360.80078 77.744141 C 360.80078 77.386141 360.47327 76.803266 360.07227 76.447266 C 359.67227 76.091266 359.22894 75.484609 359.08594 75.099609 C 358.94294 74.714609 358.54889 74.400391 358.21289 74.400391 C 357.65989 74.400391 357.42173 73.929609 357.55273 73.099609 C 357.57873 72.934609 357.46578 72.821656 357.30078 72.847656 C 356.47578 72.978656 356 72.740219 356 72.199219 C 356 71.869219 355.74083 71.599609 355.42383 71.599609 C 355.10683 71.599609 354.7195 71.392672 354.5625 71.138672 C 354.3795 70.842672 354.45258 70.785469 354.76758 70.980469 C 355.44058 71.396469 354.46944 69.724047 353.39844 68.623047 C 352.95644 68.170047 352.59566 67.529219 352.59766 67.199219 C 352.59866 66.869219 352.28539 66.62525 351.90039 66.65625 C 351.45739 66.69125 351.19922 66.429359 351.19922 65.943359 C 351.19922 65.521359 350.91255 65.064688 350.56055 64.929688 C 349.60055 64.561688 348 62.843641 348 62.181641 C 348 61.861641 347.63922 61.599609 347.19922 61.599609 C 346.45222 61.599609 346.19472 61.152219 346.38672 60.199219 C 346.43072 59.979219 346.33864 59.928937 346.18164 60.085938 C 345.68564 60.580937 344.41192 59.636844 344.66992 58.964844 C 344.84292 58.514844 344.6983 58.376703 344.1543 58.470703 C 343.6263 58.561703 343.36148 58.329219 343.27148 57.699219 C 343.18948 57.121219 342.86709 56.800781 342.37109 56.800781 C 341.86609 56.800781 341.59961 56.524 341.59961 56 C 341.59961 55.467 341.33378 55.199219 340.80078 55.199219 C 340.26778 55.199219 340 54.933391 340 54.400391 C 340 53.867391 339.73222 53.599609 339.19922 53.599609 C 338.66622 53.599609 338.40039 53.333781 338.40039 52.800781 C 338.40039 52.360781 338.13836 52 337.81836 52 C 337.16536 52 335.19922 50.177266 335.19922 49.572266 C 335.19922 49.356266 334.74927 49.008828 334.19727 48.798828 C 333.64527 48.588828 333.23988 48.197734 333.29688 47.927734 C 333.35388 47.657734 333.18959 47.427969 332.93359 47.417969 C 332.67659 47.407969 332.1165 46.995 331.6875 46.5 C 331.2575 46.005 330.72209 45.599609 330.49609 45.599609 C 330.27009 45.599609 329.99195 45.355641 329.87695 45.056641 C 329.76295 44.757641 329.11259 44.403578 328.43359 44.267578 C 327.54259 44.089578 327.19922 43.795937 327.19922 43.210938 C 327.19922 42.704937 326.93609 42.400391 326.49609 42.400391 C 326.10909 42.400391 325.56797 42.039609 325.29297 41.599609 C 325.01797 41.159609 324.54423 40.800781 324.24023 40.800781 C 323.93623 40.800781 323.71414 40.484609 323.74414 40.099609 C 323.77714 39.693609 323.52172 39.397531 323.13672 39.394531 C 322.77172 39.391531 322.05397 39.032703 321.54297 38.595703 C 320.97597 38.109703 320.76781 38.041922 321.00781 38.419922 C 321.22881 38.767922 321.11033 38.722359 320.73633 38.318359 C 320.37133 37.922359 319.97356 37.599609 319.85156 37.599609 C 319.73056 37.599609 318.91788 36.88 318.04688 36 C 317.17588 35.12 316.18094 34.400391 315.83594 34.400391 C 315.48994 34.400391 314.98203 34.039609 314.70703 33.599609 C 314.43203 33.159609 313.82066 32.800781 313.34766 32.800781 C 312.77866 32.800781 312.50892 32.566422 312.54492 32.107422 C 312.59892 31.437422 311.97278 31.218531 309.80078 31.144531 C 309.36078 31.130531 309.21552 31.035594 309.47852 30.933594 C 310.46552 30.551594 309.49614 29.599609 308.11914 29.599609 C 307.06114 29.599609 306.67463 29.407781 306.51562 28.800781 C 306.40062 28.360781 306.01139 28 305.65039 28 C 305.28839 28 304.76719 27.639219 304.49219 27.199219 C 304.21719 26.759219 303.81566 26.400391 303.59766 26.400391 C 303.37866 26.400391 302.84039 26.039609 302.40039 25.599609 C 301.96039 25.159609 301.30627 24.800781 300.94727 24.800781 C 300.58827 24.800781 299.99586 24.456156 299.63086 24.035156 C 299.26586 23.614156 298.4342 23.208766 297.7832 23.134766 C 297.0582 23.051766 296.59961 22.768391 296.59961 22.400391 C 296.59961 21.802391 296.45048 21.745391 294.64648 21.650391 C 294.05548 21.619391 293.61437 21.296781 293.48438 20.800781 C 293.32538 20.194781 292.93877 20 291.88477 20 C 290.83077 20 290.4422 19.805219 290.2832 19.199219 C 290.1242 18.593219 289.73759 18.400391 288.68359 18.400391 C 287.61259 18.400391 287.24317 18.209312 287.07617 17.570312 C 286.94517 17.068313 286.57186 16.770406 286.13086 16.816406 C 284.62686 16.973406 284.08777 16.778 283.88477 16 C 283.72777 15.401 283.33798 15.199219 282.33398 15.199219 C 281.46598 15.199219 280.8302 14.941797 280.5332 14.466797 C 280.2402 13.998797 279.51911 13.697719 278.53711 13.636719 C 276.08311 13.484719 276.04331 13.477422 276.07031 13.232422 C 276.15931 12.400422 275.83125 12.151453 274.53125 12.064453 C 273.66925 12.006453 272.78377 11.642594 272.38477 11.183594 C 271.95377 10.686594 271.19745 10.400391 270.31445 10.400391 C 269.48245 10.400391 268.66248 10.110688 268.27148 9.6796875 C 267.87648 9.2426875 266.94511 8.9184219 265.91211 8.8574219 C 264.97311 8.8014219 263.84434 8.4387813 263.40234 8.0507812 C 262.96134 7.6627812 261.88 7.295375 261 7.234375 C 260.12 7.174375 259.20289 6.963625 258.96289 6.765625 C 258.72289 6.568625 258.39347 6.540125 258.23047 6.703125 C 258.06747 6.867125 257.99241 6.7303906 258.06641 6.4003906 C 258.21041 5.7523906 258.05711 5.7164844 254.91211 5.6464844 C 253.13411 5.6074844 252.86303 5.5016406 253.08203 4.9316406 C 253.27703 4.4236406 253.17792 4.3225781 252.66992 4.5175781 C 252.30192 4.6585781 252 4.6007188 252 4.3867188 C 252 4.1737187 251.86422 4.020875 251.69922 4.046875 C 249.60722 4.377875 246.45264 3.9260781 246.68164 3.3300781 C 246.87664 2.8220781 246.77753 2.7229687 246.26953 2.9179688 C 245.90153 3.0589688 245.59961 3.0257969 245.59961 2.8417969 C 245.59961 2.6587969 245.105 2.5020937 244.5 2.4960938 C 239.809 2.4500938 239.16347 2.3646406 238.48047 1.6816406 C 237.91447 1.1156406 237.00364 0.94128125 234.18164 0.86328125 C 232.21264 0.80828125 230.5398 0.5938125 230.4668 0.3828125 C 230.3573 0.0698125 215.24222 -0.058671875 200.15234 -0.029296875 z M 119.95703 176.71484 C 122.05676 176.65005 124.23175 177.10266 126.34375 178.20703 C 129.21075 179.70703 131.18733 181.82722 132.86133 185.19922 C 133.83333 187.15522 133.5018 194.32164 132.3418 196.43164 C 126.7908 206.53564 112.94139 206.3985 107.77539 196.1875 C 103.14089 187.02738 110.85822 176.99562 119.95703 176.71484 z M 279.15625 176.92188 C 281.70112 176.94525 284.37853 177.38873 285.83203 178.24023 C 291.75903 181.71423 294.87639 189.47461 292.40039 194.59961 C 291.97539 195.47961 291.62028 196.34734 291.61328 196.52734 C 291.59428 196.98334 289.56461 199.65319 288.59961 200.49219 C 282.12561 206.12319 273.5388 204.88642 267.7168 197.48242 C 265.7518 194.98442 265.19713 190.04475 266.45312 186.21875 C 267.29113 183.66575 270.99556 178.80078 272.10156 178.80078 C 272.34056 178.80078 272.8732 178.496 273.2832 178.125 C 274.2002 177.295 276.61138 176.8985 279.15625 176.92188 z M 395.9707 192.73633 C 376.27926 257.63086 323.24774 309.86265 260.1582 333.27539 C 189.77658 360.49063 105.26252 352.44007 44.068359 307.1543 C 36.63888 301.67909 29.459161 295.43118 22.978516 289.10938 C 25.733826 292.85483 27.158153 297.76445 30.140625 301.74219 C 32.699452 307.03058 36.321367 311.44004 39.654297 316.20117 C 45.594215 323.96838 51.353135 331.88039 58.599609 338.56445 C 70.899056 350.70733 84.025133 362.22291 99.367188 370.45508 C 109.11754 376.8771 120.29219 381.36017 131.18555 385.46094 C 136.90727 388.83514 143.78933 388.80948 149.63281 391.88477 C 153.74375 391.58594 157.06086 393.85733 161.0918 393.7832 C 176.19159 397.36522 191.90253 395.76085 207.32031 395.83398 C 212.72805 395.61048 218.30119 395.31511 223.59766 394.55859 C 237.24274 391.44771 251.90566 388.7465 265.19531 383.71094 C 276.31161 380.43721 286.76463 375.18833 297.53516 371.18945 C 301.17767 370.86707 302.62885 366.52893 306.49414 366.11328 C 323.11775 356.93953 336.89758 343.31001 349.51953 329.29688 C 353.99823 324.16472 358.17484 318.86323 361.92773 313.25391 C 365.32563 308.06581 368.99147 302.73165 372.1582 297.28516 C 375.06577 293.09453 376.10623 287.84091 379.25586 283.80859 C 381.54321 276.96134 384.65918 270.29926 387.11328 263.45508 C 389.02775 256.2036 391.62499 249.38839 392.98633 241.89453 C 393.77404 237.83639 394.19109 234.22938 395.28711 230.32422 C 396.10977 217.8423 396.16031 205.10266 395.9707 192.73633 z M 196.80664 198.01172 C 210.48364 197.99972 211.07047 198.0318 212.60547 198.8418 C 217.48347 201.4148 218.39803 206.392 215.20703 213 C 213.45503 216.629 208.97106 221.19922 207.16406 221.19922 C 206.94606 221.19922 206.00998 221.59231 205.08398 222.07031 C 201.43398 223.95731 191.94961 223.27709 186.59961 220.74609 C 183.49461 219.27709 178.80078 214.62462 178.80078 213.01562 C 178.80078 212.73362 178.42098 211.64561 177.95898 210.59961 C 176.08498 206.36361 177.47136 201.1768 181.06836 198.9668 L 182.59961 198.02539 L 196.80664 198.01172 z " />
</svg>
