<svg viewBox="0 -10 40 40" xmlns="http://www.w3.org/2000/svg">
<path d="M7.57408 20C5.34861 20 3.52522 19.4815 2.10391 18.4444C0.701303 17.3889 0 15.8889 0 13.9444C0 13.537 0.0467535 13.037 0.140261 12.4444C0.383379 11.1111 0.729356 9.50926 1.17819 7.63889C2.44989 2.5463 5.73199 0 11.0245 0C12.4645 0 13.7549 0.240741 14.8957 0.722223C16.0365 1.18519 16.9341 1.88889 17.5887 2.83333C18.2432 3.75926 18.5705 4.87037 18.5705 6.16667C18.5705 6.55556 18.5238 7.0463 18.4303 7.63889C18.1497 9.28704 17.8131 10.8889 17.4204 12.4444C16.7658 14.9815 15.6344 16.8796 14.0261 18.1389C12.4177 19.3796 10.2671 20 7.57408 20ZM7.96681 16C9.01409 16 9.9024 15.6944 10.6318 15.0833C11.3798 14.4722 11.9128 13.537 12.2307 12.2778C12.6609 10.537 12.9881 9.01852 13.2126 7.72222C13.2874 7.33333 13.3248 6.93518 13.3248 6.52778C13.3248 4.84259 12.4364 4 10.6598 4C9.61253 4 8.71486 4.30556 7.96681 4.91667C7.23745 5.52778 6.71381 6.46296 6.39589 7.72222C6.05926 8.96296 5.72264 10.4815 5.38601 12.2778C5.3112 12.6481 5.2738 13.037 5.2738 13.4444C5.2738 15.1481 6.17147 16 7.96681 16Z" />
<path d="M21.417 19.7222C21.2112 19.7222 21.0523 19.6574 20.9401 19.5278C20.8466 19.3796 20.8185 19.213 20.8559 19.0278L24.7271 0.972223C24.7645 0.768518 24.8674 0.601852 25.0357 0.472223C25.204 0.342593 25.3817 0.277778 25.5687 0.277778H33.0305C35.1064 0.277778 36.7708 0.703703 38.0238 1.55556C39.2955 2.40741 39.9314 3.63889 39.9314 5.25C39.9314 5.71296 39.8753 6.19444 39.7631 6.69444C39.2955 8.82407 38.3511 10.3981 36.9298 11.4167C35.5272 12.4352 33.6009 12.9444 31.151 12.9444H27.364L26.0736 19.0278C26.0362 19.2315 25.9333 19.3981 25.765 19.5278C25.5967 19.6574 25.4191 19.7222 25.232 19.7222H21.417ZM31.3474 9.11111C32.1329 9.11111 32.8155 8.89815 33.3952 8.47222C33.9937 8.0463 34.3864 7.43518 34.5734 6.63889C34.6295 6.32407 34.6576 6.0463 34.6576 5.80555C34.6576 5.26852 34.4986 4.86111 34.1807 4.58333C33.8628 4.28704 33.3204 4.13889 32.5537 4.13889H29.1874L28.1214 9.11111H31.3474Z"/>
</svg>
