<svg
   xmlns="http://www.w3.org/2000/svg"
   version="1.1"
   viewBox="0 0 439 439">
  <path
     d="m 237.16515,37.875965 c -20.24548,-0.03848 -39.02335,4.395315 -56.18395,9.41332 h -0.002 c -4.60525,1.346806 -9.19857,2.778529 -13.71185,4.183962 -11.62397,3.619662 -22.79674,7.034859 -31.5265,8.472943 -6.39314,1.053165 -11.4388,3.702878 -14.54243,7.000321 -3.09728,3.290671 -5.14988,8.192337 -5.68761,13.568644 -1.161,11.584562 2.74565,24.624315 10.72125,40.498265 15.70114,31.24787 45.35939,66.24654 78.67664,90.0089 2.42622,1.73058 4.72583,3.59128 6.92394,5.53964 -22.91948,4.94669 -35.02611,30.02625 -40.03524,43.80868 -1.35643,3.73327 2.33077,7.07185 6.09335,5.80218 14.5945,-4.92162 43.67407,-12.7184 61.42048,-4.09087 4.07131,16.40655 3.15219,33.35383 -3.28655,46.42218 -7.20611,14.62367 -20.02423,24.20194 -40.94937,25.21356 -20.26058,0.97894 -47.99182,-7.12272 -82.62431,-28.64809 l -0.31267,-0.19333 -0.32459,-0.17185 c -0.47022,-0.24956 -1.11026,-0.66207 -1.7471,-1.08835 26.13728,-28.74627 11.06662,-73.81567 5.11002,-88.46229 -0.38921,-0.95623 -1.24357,-1.43085 -2.13136,-1.44398 -0.8878,-0.0132 -1.80939,0.43563 -2.33424,1.32465 -13.653552,23.11578 -41.657411,21.39763 -41.157013,48.93063 -0.01289,-0.0244 -0.02051,-0.04 -0.03341,-0.0644 -6.02147,-4.89588 -11.605361,-6.58302 -17.115343,-6.55639 -14.081066,0.0681 -27.675102,11.32652 -46.8207619,8.82857 -2.048094,-0.2664 -3.6829947,1.80419 -2.6540597,3.59444 8.0682966,14.05095 35.4208306,55.3145 75.7552536,50.14311 l -5.494277,3.73049 8.344048,9.20566 c 37.803363,41.71411 80.241783,62.38558 120.993613,67.16299 45.25777,5.30582 89.14692,-8.66744 124.10594,-34.70565 46.73255,-34.8078 77.04533,-91.30769 74.09647,-151.33868 11.87082,-4.19569 25.19566,6.40664 31.64345,12.58291 1.53974,1.47497 4.08183,0.56071 4.00973,-1.57048 -0.3275,-9.6649 -3.09652,-30.55146 -19.09634,-52.95707 -15.01419,-21.02723 -31.04548,-30.98086 -39.67485,-35.17346 -2.53933,-4.4228 -5.2902,-8.8244 -8.27961,-13.19392 C 323.30937,56.380831 276.43414,37.950283 237.16515,37.875965 Z m 17.94116,44.720425 c 18.808,0 47.55019,21.29724 53.39386,29.17556 -1.81958,4.80129 -13.9551,5.87517 -20.02239,5.40836 -6.0673,-0.46681 -16.38155,-1.46493 -24.26842,-5.40836 -7.8881,-3.94344 -15.77568,-9.15146 -18.80994,-13.399175 -3.03426,-4.246496 -9.10111,-15.776385 9.70689,-15.776385 z m -90.08528,21.18236 c 90.1905,1.03254 250.26688,157.67158 145.90408,243.96106 0.59474,0.37844 1.43473,0.53278 2.48459,0.47496 -30.93714,22.92962 -69.20221,34.934 -108.36534,30.34268 -33.04979,-3.87447 -67.74479,-19.76063 -100.55593,-53.11699 35.40413,21.43539 65.74453,31.10171 91.6295,29.85101 27.65721,-1.33709 48.9107,-16.19838 59.27957,-37.24037 10.01225,-20.32128 10.09029,-44.33352 3.49181,-66.26796 -6.6363,-22.06726 -20.51514,-43.42198 -41.43866,-58.34634 -27.48229,-19.6008 -53.55142,-49.50147 -68.19883,-75.23734 l 0.28402,-2.84023 c 0,0 -6.06646,-9.35885 4.85463,-10.91936 3.41287,-0.48746 6.96429,-0.7031 10.63056,-0.66112 z m 226.85528,64.38242 c 2.85785,4.88178 3.88647,7.85363 3.72809,12.37288 -1.07253,-4.12563 -2.3143,-8.25123 -3.72809,-12.37288 z m -286.18735,140.09951 0.2888,0.15991 c 0.002,-0.005 0.007,-0.0166 0.01,-0.0215 l 0.0549,0.17424 -0.15992,0.0764 c 0.0188,-0.0381 0.0626,-0.15572 0.0836,-0.1981 -0.0361,0.0787 -0.0957,0.14426 -0.13365,0.22197 l -0.0621,0.031 c -0.0321,-0.13889 -0.0484,-0.31153 -0.0811,-0.44394 z m -1.61343,1.04061 0.20526,0.11218 -0.85207,0.40575 c 0.21633,-0.17245 0.43441,-0.34375 0.64681,-0.51793 z" />
</svg>
