<svg
   xmlns="http://www.w3.org/2000/svg"
   viewBox="0 0 484 484">
  <path
     d="M 402.79981,32.4388 A 40.458549,40.458549 0 0 0 362.33858,72.893337 40.458549,40.458549 0 0 0 402.79981,113.35456 40.458549,40.458549 0 0 0 443.25434,72.893337 40.458549,40.458549 0 0 0 402.79981,32.4388 Z M 202.69017,44.867803 C 150.95981,45.296389 99.190602,65.522989 59.589223,105.12437 c -2.81631,2.81629 -5.493596,5.71535 -8.089567,8.65878 a 159.74269,159.74269 0 0 0 -39.804955,73.26148 159.74269,159.74269 0 0 0 -0.01337,0.0669 c -0.01063,0.0381 -0.02263,0.0758 -0.0336,0.11384 a 194.74962,194.74962 0 0 0 -9.3216551,49.90352 c 0,2.40009 -0.3415285,4.79883 -0.3415285,7.19892 A 202.60133,202.60133 0 0 0 129.13405,436.85008 c 29.45515,12.51815 61.05937,16.95693 92.29338,13.66117 0.0154,-0.002 0.0315,0.002 0.0469,0 1.24514,-0.0939 2.49928,-0.25578 3.75013,-0.38168 0.0199,-0.003 0.0403,-0.003 0.0603,-0.007 1.34267,-0.13543 2.68167,-0.23898 4.02469,-0.41518 a 298.29608,298.29608 0 0 0 3.36173,-0.69647 c 5.04906,-0.83584 10.07272,-1.89438 15.07418,-3.13403 a 298.29608,298.29608 0 0 0 32.64623,-8.85298 c 4.80016,-2.05721 9.60569,-4.11576 14.06298,-6.51585 a 403.89975,403.89975 0 0 0 34.96997,-22.28625 171.91455,171.91455 0 0 0 17.82652,-15.77064 208.32724,208.32724 0 0 0 36.00125,-48.69141 38.744203,38.744203 0 0 0 2.7925,-8.96685 82.528582,82.528582 0 0 1 -3.47557,8.28378 c -10.28607,18.8578 -51.09016,18.51761 -76.46247,-5.8261 -1.37148,-2.74295 -2.73894,-5.83412 -4.45328,-8.91994 -1.71435,-3.08582 -3.08851,-7.19891 -4.45998,-10.6276 a 29.486739,29.486739 0 0 1 -0.29466,-2.81931 116.57548,116.57548 0 0 1 -10.72805,12.74375 125.45579,125.45579 0 0 1 -3.08717,2.95324 116.57548,116.57548 0 0 1 -5.45778,4.94211 125.45579,125.45579 0 0 1 -3.92424,3.0671 116.57548,116.57548 0 0 1 -6.12075,4.51353 125.45579,125.45579 0 0 1 -1.51344,0.95763 116.57548,116.57548 0 0 1 -139.69905,-9.8173 116.57548,116.57548 0 0 1 -7.83509,-7.52035 116.57548,116.57548 0 0 1 -3.54924,-4.03811 116.57548,116.57548 0 0 1 -3.52244,-4.13181 116.57548,116.57548 0 0 1 -6.2078,-8.67218 116.57548,116.57548 0 0 1 -0.12056,-0.1807 116.57548,116.57548 0 0 1 93.24432,-179.44374 116.57548,116.57548 0 0 1 90.57234,37.64195 116.57548,116.57548 0 0 1 3.32154,3.66976 116.57548,116.57548 0 0 1 2.55813,3.28136 116.57548,116.57548 0 0 1 4.98901,6.76364 116.57548,116.57548 0 0 1 0.38171,0.60269 116.57548,116.57548 0 0 1 17.50505,45.3431 c 5.095,-12.47056 13.21274,-30.4945 22.00524,-41.17106 a 42.858632,42.858632 0 1 1 70.28819,49.02612 c -13.37189,17.82919 -17.14078,32.91811 -17.82652,43.88992 -0.18549,2.22381 -0.27429,3.78685 -0.36831,5.42429 a 116.57548,116.57548 0 0 1 62.08474,-62.33922 40.21854,40.21854 0 0 0 3.77022,-1.71435 42.943835,42.943835 0 0 0 -37.03253,-77.49375 198.55547,198.55547 0 0 0 -34.58825,18.6435 202.77276,202.77276 0 0 0 -40.50146,-58.41483 C 306.10671,63.808644 254.42054,44.439217 202.69017,44.867803 Z"/>
</svg>
