<svg
   xmlns="http://www.w3.org/2000/svg"
   version="1.1"
   viewBox="2.7 0 29 32">
  <path
     transform="translate(2.7)"
     d="M 21.197266 0.55859375 C 20.951266 0.55859375 20.727506 0.58073314 20.503906 0.62695312 C 19.944906 0.74249614 19.453625 1.1592831 19.140625 1.7832031 C 18.760425 2.5226731 18.670016 3.5163775 18.916016 4.1171875 C 19.004864 4.3009174 19.116896 4.5293706 19.25 4.7363281 C 19.218362 4.7558751 19.179271 4.7819239 19.148438 4.8007812 C 18.800482 5.013875 18.511534 5.1731326 18.259766 5.3007812 C 16.830876 4.7543114 15.294764 4.4394531 13.685547 4.4394531 C 6.3740069 4.4394531 0.44726562 10.564694 0.44726562 18.121094 C 0.44726562 25.677494 6.3740069 31.800781 13.685547 31.800781 C 20.996947 31.800781 26.921875 25.677494 26.921875 18.121094 C 26.921875 15.36191 26.121511 12.79719 24.759766 10.648438 C 24.868842 10.138496 25.008867 9.6105676 25.199219 9.0625 C 25.512219 9.15492 25.825672 9.2011719 26.138672 9.2011719 C 26.965972 9.2011719 27.681706 8.8543987 28.128906 8.2304688 C 28.576106 7.6065485 28.754034 6.7733081 28.552734 6.0800781 C 28.239734 4.8553481 27.234928 3.6309681 25.423828 2.2675781 C 23.970428 1.1814881 22.427066 0.55859375 21.197266 0.55859375 z M 21.068359 1.2460938 C 21.07331 1.2459053 21.079017 1.2462576 21.083984 1.2460938 C 21.286698 1.2394083 21.507566 1.2606878 21.736328 1.2949219 C 21.803403 1.3047006 21.868596 1.3148479 21.9375 1.328125 C 22.169321 1.3735527 22.408262 1.4343641 22.658203 1.5195312 C 22.670931 1.52394 22.68256 1.5247782 22.695312 1.5292969 C 22.690254 1.5287956 22.686674 1.52978 22.681641 1.5292969 C 23.42615 1.7861734 24.236637 2.2141226 25.042969 2.8222656 C 26.697669 4.0701156 27.637134 5.179575 27.927734 6.265625 C 28.103806 6.9783978 27.797214 7.9087255 26.998047 8.3085938 C 26.967113 8.3303202 26.925136 8.3735462 26.898438 8.390625 C 26.515667 8.5444557 26.028145 8.5882121 25.423828 8.4335938 C 25.448642 8.3721563 25.464487 8.3154463 25.490234 8.2539062 C 25.579734 8.2770262 25.690934 8.2753906 25.802734 8.2753906 C 26.071034 8.2753906 26.384859 8.2294544 26.630859 8.0214844 C 26.809759 7.8828044 27.010681 7.6301688 26.988281 7.1679688 C 26.988281 6.7289588 26.651984 6.1740163 25.958984 5.5039062 C 25.466984 5.0185863 24.797653 4.4871831 24.126953 4.0019531 C 22.204053 2.6847731 20.861512 2.31358 20.257812 2.9375 C 19.855412 3.35346 19.901056 3.8626919 20.035156 4.2324219 C 19.955933 4.2861508 19.89472 4.3207318 19.818359 4.3710938 C 19.686637 4.1768404 19.581989 4.0009684 19.521484 3.8632812 C 19.521484 3.8632812 19.521484 3.8613281 19.521484 3.8613281 C 19.454829 3.6996736 19.423297 3.4726434 19.431641 3.2207031 C 19.440011 2.967957 19.486741 2.6895725 19.576172 2.4238281 C 19.665603 2.1580837 19.796573 1.9058305 19.972656 1.7050781 C 20.060917 1.6042283 20.160323 1.5170301 20.271484 1.4472656 C 20.382237 1.3777606 20.504509 1.32576 20.638672 1.296875 C 20.772834 1.2679887 20.916557 1.2518712 21.068359 1.2460938 z M 20.912109 3.3691406 C 21.001547 3.3546956 21.118322 3.3538431 21.263672 3.3769531 C 21.040072 3.5618231 20.81735 3.7230156 20.59375 3.8847656 C 20.57145 3.7230156 20.592363 3.5628056 20.726562 3.4472656 C 20.760063 3.4126056 20.822672 3.3835856 20.912109 3.3691406 z M 22.023438 3.5859375 C 22.470638 3.7708075 23.052078 4.092825 23.767578 4.578125 C 24.617278 5.155805 25.356672 5.80413 25.826172 6.3125 C 25.043672 7.37543 24.527844 8.8308963 24.214844 9.8476562 C 24.224622 9.8620982 24.236151 9.8761834 24.246094 9.890625 C 24.245035 9.8947799 24.24324 9.8981825 24.242188 9.9023438 C 22.895775 8.0596446 21.116923 6.5794216 19.054688 5.6289062 C 19.06411 5.6233794 19.07257 5.6188402 19.082031 5.6132812 C 19.086725 5.6153074 19.090995 5.6171144 19.095703 5.6191406 C 19.811103 5.2263106 20.838437 4.5565075 22.023438 3.5859375 z M 13.685547 5.203125 C 15.403203 5.203125 17.038371 5.5606997 18.527344 6.2070312 C 21.068689 7.3887804 23.181939 9.3827992 24.574219 11.880859 L 24.580078 11.798828 C 25.596765 13.668045 26.183594 15.821752 26.183594 18.121094 C 26.183594 25.261594 20.572147 31.037109 13.685547 31.037109 C 6.7764469 31.037109 1.1855469 25.261594 1.1855469 18.121094 C 1.1855469 10.980694 6.7764469 5.203125 13.685547 5.203125 z M 26.25 6.890625 C 26.3171 7.006175 26.339844 7.1201531 26.339844 7.1894531 C 26.339844 7.3974331 26.273116 7.4674219 26.228516 7.5136719 C 26.139016 7.5829719 25.959234 7.6289063 25.802734 7.6289062 C 25.936934 7.3516262 26.0935 7.121725 26.25 6.890625 z M 17.574219 8.1367188 C 16.462819 8.1367188 15.5625 9.0681968 15.5625 10.216797 C 15.5625 11.365397 16.462819 12.296875 17.574219 12.296875 C 18.685619 12.296875 19.587891 11.365397 19.587891 10.216797 C 19.587891 9.0681968 18.685619 8.1367188 17.574219 8.1367188 z M 20.861328 12.089844 C 20.392028 12.089844 20.011719 12.481797 20.011719 12.966797 C 20.011719 13.451797 20.392028 13.845703 20.861328 13.845703 C 21.330628 13.845703 21.710938 13.451797 21.710938 12.966797 C 21.710938 12.481797 21.330628 12.089844 20.861328 12.089844 z M 18.292969 15.566406 C 16.559447 15.592394 14.769816 15.878028 12.791016 16.501953 C 10.510316 17.195153 8.4531481 17.079431 6.9550781 16.894531 C 3.7115233 16.512106 1.9007064 16.471076 1.8066406 18.003906 L 1.7890625 18.003906 C 1.7890625 18.03356 1.7927641 18.062193 1.7929688 18.091797 C 1.7928252 18.102075 1.7890625 18.108728 1.7890625 18.119141 C 1.7890625 18.146099 1.7976386 18.174069 1.7988281 18.201172 C 1.9024849 24.880149 7.1986813 30.275391 13.685547 30.275391 C 20.236747 30.275391 25.556641 24.774606 25.556641 18.003906 L 25.523438 18.003906 C 25.395052 16.666856 23.075722 15.894499 20.011719 15.625 C 19.441569 15.578775 18.870809 15.557744 18.292969 15.566406 z M 19.386719 22.789062 C 19.954719 22.789062 20.416016 23.264464 20.416016 23.851562 C 20.416016 24.438663 19.954719 24.914062 19.386719 24.914062 C 18.818719 24.914063 18.357422 24.438663 18.357422 23.851562 C 18.357422 23.264464 18.818719 22.789062 19.386719 22.789062 z M 10.195312 25.398438 C 10.763414 25.398438 11.224609 25.875791 11.224609 26.462891 C 11.224609 27.049891 10.763413 27.525391 10.195312 27.525391 C 9.627214 27.525391 9.1679686 27.049891 9.1679688 26.462891 C 9.1679685 25.875791 9.627214 25.398438 10.195312 25.398438 z M 16.123047 26.138672 C 16.468847 26.138672 16.75 26.427756 16.75 26.785156 C 16.75 27.142456 16.468847 27.433594 16.123047 27.433594 C 15.777347 27.433594 15.498047 27.142456 15.498047 26.785156 C 15.498047 26.427756 15.777347 26.138672 16.123047 26.138672 z M 12.859375 26.462891 C 13.205075 26.462891 13.484375 26.751975 13.484375 27.109375 C 13.484375 27.466675 13.205075 27.755859 12.859375 27.755859 C 12.513575 27.755859 12.232422 27.466675 12.232422 27.109375 C 12.232422 26.751975 12.513575 26.462891 12.859375 26.462891 z M 17.396484 27.617188 C 17.655784 27.617188 17.865234 27.835516 17.865234 28.103516 C 17.865234 28.371516 17.655784 28.587891 17.396484 28.587891 C 17.137184 28.587891 16.927734 28.371516 16.927734 28.103516 C 16.927734 27.835516 17.137184 27.617188 17.396484 27.617188 z M 14.511719 27.964844 C 14.771019 27.964844 14.982422 28.181219 14.982422 28.449219 C 14.982422 28.717319 14.771019 28.935547 14.511719 28.935547 C 14.252319 28.935547 14.042969 28.717319 14.042969 28.449219 C 14.042969 28.181219 14.252319 27.964844 14.511719 27.964844 z " />
</svg>
