<svg
   xmlns="http://www.w3.org/2000/svg"
   viewBox="0 0 2000 2000">
<path
   d="m 79.138672,118.04688 c -26.993793,0.2591 -53.214844,14.17187 -67.980469,39.10937 -22.5,38 -10.0015629,87 27.898438,109.5 37.9,22.5 86.999999,9.99961 109.499999,-27.90039 22.6,-37.9 10.10156,-86.9 -27.89844,-109.5 -13.02812,-7.73438 -27.379922,-11.34471 -41.519528,-11.20898 z m 357.236328,0.043 c -38.19862,0.38914 -75.28242,20.12461 -96.2168,55.36524 -31.9,53.7 -14.2,123.1 39.5,155 53.7,31.9 123.1,14.2 155,-39.5 31.9,-53.7 14.2,-123.1 -39.5,-155 -18.45937,-10.96563 -38.7744,-16.06907 -58.7832,-15.86524 z m 685.3047,3.42578 c -39.151,-0.0822 -78.2793,2.45157 -117.1231,7.53907 -116.59999,9.5 -215.09957,54 -215.09957,54 -79.8,39 -131.29883,104.20039 -131.29883,191.40039 0,113.4 91.89883,205.40039 205.29883,205.40039 19,0 84.60117,-20.79922 100.20117,-26.19922 59.6,-20.8 122.7988,-29.40078 185.7988,-25.30078 167.6,10.6 309.3012,106.99922 385.2012,243.69922 44,79.2 64.3,169.30118 58.5,259.70121 -16.5,261.5 -241.8004,460.1992 -503.4004,443.6992 -154.50002,-9.8 -287.00077,-92.5004 -366.30077,-212.4004 -94.8,-124 -72.9,-322.29884 -73,-324.79884 -3.9,-110.3 -94.20039,-198.5 -205.40039,-198.5 -95,0 -174.69844,64.5 -198.39844,152 -4.6,17.2 -7.00078,67.59883 -6.30078,74.29883 -19.6,476.80001 345.30036,884.10121 823.90038,914.20121 53.1,3.3 106.2996,1.8 159.0996,-4.5 414.4,-48.7 747.7004,-387.5012 774.9004,-818.7012 30.6,-485.2 -338.0012,-903.29884 -823.2012,-933.79884 -17.7812,-1.125 -35.581,-1.70288 -53.3769,-1.74024 z M 289.45312,381.36719 c -49.52828,0.50641 -97.62617,26.11406 -124.79492,71.78906 -41.4,69.6 -18.40078,159.6 51.19922,201 69.6,41.4 159.6,18.49883 201,-51.20117 41.3,-69.6 18.40078,-159.6 -51.19922,-201 -23.925,-14.23125 -50.26169,-20.85316 -76.20508,-20.58789 z" />
</svg>