<svg
   xmlns="http://www.w3.org/2000/svg"
   viewBox="0 0 32 32">
  <path
     d="M 15.717234,1.1082074 C 13.886239,0.97529943 12.204911,1.7932562 10.673278,3.2178349 l 0.531269,0.021622 c 2.033426,0.1229735 4.011651,0.4167087 5.825414,0.9173636 1.15936,0.320607 2.257274,0.7309287 3.258647,1.2447729 0.04823,0.026347 0.09519,0.041606 0.138993,0.067953 l 0.01853,0.00927 c 1.163946,0.20203 2.28837,0.5966512 3.320423,1.167554 2.705384,1.5238837 4.988932,3.7091576 6.631581,6.3443266 C 31.847381,8.9062858 31.170724,5.7002281 28.004348,5.1205165 24.517254,4.4836989 21.794107,4.2757177 19.176652,2.4487337 17.967793,1.6088066 16.815831,1.1879538 15.717234,1.108209 Z m 4.728902,4.3706045 C 20.134274,5.4217216 19.818443,5.3780467 19.497884,5.3429069 14.697555,4.842252 9.1640606,7.0677049 6.3181177,11.810785 4.1397991,15.55692 3.8489114,20.118043 5.5397486,24.110251 c 0.4699116,1.115555 1.1036193,2.151021 1.8810593,3.073324 0.9134446,1.089301 2.0455434,1.980264 3.3235121,2.603829 8.045777,3.891154 8.550991,-3.331923 17.062347,-6.999144 4.778188,-2.059678 4.796172,-6.079024 2.591473,-9.794478 -1.049606,2.749189 -2.57048,5.291376 -4.494154,7.518057 -1.541437,1.875282 -3.384887,3.472757 -5.45785,4.728901 3.49595,-2.191571 5.62835,-6.00562 5.667886,-10.124975 0,-4.8046 -2.259865,-7.8451697 -5.667886,-9.6369531 z M 10.67019,3.2116574 C 1.7724548,2.9261902 4.3632607,9.3604524 1.4471331,15.891043 -1.8906244,23.418579 1.8422343,26.287683 7.4022749,27.183573 6.6248349,26.257003 5.9911275,25.221377 5.5212161,24.110251 2.271292,19.999592 3.1586931,12.82335 7.5196484,6.7977153 7.9721008,6.1741502 8.4597151,5.5620505 8.9868119,4.9691655 9.5883948,4.2840504 10.143251,3.7035353 10.67019,3.2116574 Z m 5.164417,4.2130769 c 2.757096,-0.00664 5.301683,1.4490021 6.520386,4.1142377 1.901692,4.154623 1.380447,8.95543 -2.471013,11.419169 C 16.032363,25.430735 10.906721,24.32855 8.4123017,20.490216 5.9265176,16.656153 7.1576644,11.706214 10.886404,9.0710474 12.45097,7.9593872 14.18035,7.4287464 15.834607,7.4247343 Z" />
</svg>
