<svg
   xmlns="http://www.w3.org/2000/svg"
   viewBox="0 0 128 128">
  <path
     d="m 77.144,7.993124 c -2.5592,0.010825 -5.114244,0.9981349 -7.058594,2.958984 L 61.788531,19.319296 99.671343,56.883749 89.595172,66.873984 51.966265,28.922812 35.624468,45.12789 73.253375,83.077108 59.972125,96.24703 c -3.579781,-3.599745 -7.243362,-7.273734 -10.839844,-11.054687 -0.392,-0.4186 -0.299422,-1.937338 0.142578,-2.398438 3.661708,-3.827968 7.395177,-7.546475 11.009766,-11.164062 L 48.661578,59.907187 c -2.049654,1.679051 -3.982191,3.26259 -5.816406,4.822265 -2.4809,2.1143 -4.812407,5.847094 -7.378907,5.996094 -2.21,0.1277 -4.73434,-3.710228 -6.99414,-5.923828 -6.0027,-5.8746 -5.980128,-5.910213 -0.04883,-11.820313 2.279299,-2.272652 4.490682,-4.464598 6.734376,-6.691406 L 32.665484,43.776327 50.642046,25.952108 78.255328,53.799765 c 3.079949,-2.97863 6.679367,-5.629291 6.083984,-10.791016 l -25.783203,-25.564453 1.125,-1.134766 c -0.937329,-1.123694 -1.828497,-2.159035 -2.777344,-3.095703 -2.00325,-1.97595 -4.248627,-2.98166 -6.490234,-3.001953 -2.241607,-0.02029 -4.479444,0.944832 -6.464844,2.910156 -13.2315,13.083 -26.419824,26.200941 -39.5585931,39.369141 -3.84967004,3.8525 -3.71353444,9.102578 0.1503906,12.955078 15.8967885,15.847232 31.8023905,31.685505 47.7343745,47.498051 -0.01887,-0.0503 -0.03268,-0.10181 -0.05078,-0.15234 0.520879,1.45395 1.34859,2.82303 2.507812,3.99218 4.2356,4.272 11.130644,4.30046 15.402344,0.0645 L 120.80806,66.602499 c 0.17423,-0.172755 0.33138,-0.355137 0.49023,-0.537109 0.33738,-0.262398 0.66563,-0.539982 0.97461,-0.851563 l 1.25586,-1.267578 c 3.889,-3.9217 3.86241,-10.253878 -0.0586,-14.142578 L 84.227984,10.891562 C 82.267134,8.9472111 79.7032,7.982299 77.144,7.993124 Z M 54.796343,101.37985 c -0.236202,0.23423 -0.455764,0.47891 -0.666015,0.72851 0.210162,-0.24956 0.429826,-0.4943 0.666015,-0.72851 z m -0.86914,0.98242 c -0.151903,0.19165 -0.296431,0.38678 -0.433594,0.58594 0.137146,-0.19929 0.281647,-0.39416 0.433594,-0.58594 z m -0.574219,0.79101 c -0.178211,0.2719 -0.34667,0.5486 -0.498047,0.83204 0.151249,-0.28363 0.319868,-0.55995 0.498047,-0.83204 z m -0.568359,0.97657 c -0.118343,0.22977 -0.227206,0.46326 -0.328125,0.69922 0.100766,-0.23615 0.209876,-0.46926 0.328125,-0.69922 z m -0.460938,1.02734 c -0.0744,0.19101 -0.141864,0.384 -0.205078,0.57813 0.06306,-0.19432 0.130801,-0.38692 0.205078,-0.57813 z m -0.314453,0.91211 c -0.07909,0.27254 -0.145727,0.54738 -0.203125,0.82422 0.05702,-0.27635 0.124475,-0.55216 0.203125,-0.82422 z m -0.273438,1.22852 c -0.02746,0.16309 -0.05226,0.32625 -0.07227,0.49023 0.01985,-0.16394 0.04497,-0.32717 0.07227,-0.49023 z m -0.121093,0.97461 c -0.01011,0.13121 -0.01415,0.26308 -0.01953,0.39453 0.0053,-0.13174 0.0095,-0.26303 0.01953,-0.39453 z m 0.06445,2.26367 c 0.01195,0.0912 0.02285,0.18252 0.03711,0.27343 -0.01434,-0.091 -0.02508,-0.18215 -0.03711,-0.27343 z m 0.144531,0.86133 c 0.01748,0.0818 0.03922,0.16265 0.05859,0.24414 -0.01938,-0.0814 -0.04111,-0.16243 -0.05859,-0.24414 z" />
</svg>
