<svg xmlns="http://www.w3.org/2000/svg" viewBox="0 0 55.5 51"><path d="M29.032 8.251 40.36.01l1.912 5.868-13.24 9.636V8.25Z"></path><path d="m31.096 17.097 14.11-10.269L42.984.006 50.444 0l5.072 15.571-13.24 9.634-11.18-8.108Zm-2.07 1.578 13.217 9.592-13.211 9.719-.006-19.31Zm.009 22.397L39.81 33.23l2.462 7.555-13.24 9.636.003-9.35Z"></path><path d="M26.484 8.251 15.156.01l-1.913 5.868 13.241 9.636V8.25Z"></path><path d="M24.42 17.097 10.307 6.828 12.529.006 5.071 0 0 15.571l13.24 9.634 11.18-8.108Zm2.07 1.578-13.22 9.592 13.214 9.719.006-19.31Zm-.009 22.397L15.703 33.23l-2.46 7.555 13.241 9.636-.003-9.35Z"></path></svg>