<svg viewBox="0 0 18.8 18" xmlns="http://www.w3.org/2000/svg" ><path clip-rule="evenodd" d="M17.006 1.8C15.822.6 14.315 0 12.496 0H5.033V7.232a4.042 4.042 0 0 1 2.807 3.853 4.042 4.042 0 0 1-2.807 3.852v2.67h4.058v-4.881h3.412c1.818 0 3.325-.6 4.51-1.8 1.183-1.201 1.781-2.72 1.781-4.563 0-1.843-.598-3.362-1.788-4.563Zm-3.118 6.755c-.525.57-1.196.858-2.02.858H9.085V3.325h2.783c.818 0 1.489.288 2.02.858.525.57.787 1.298.787 2.186.006.888-.262 1.617-.787 2.186Z"></path><path d="M2.94 14.066a2.946 2.946 0 0 0 2.94-2.951c0-1.63-1.316-2.95-2.94-2.95A2.946 2.946 0 0 0 0 11.114c0 1.63 1.316 2.95 2.94 2.95Z"></path></svg>