<svg
   xmlns="http://www.w3.org/2000/svg"
   viewBox="0 0 32 32">
  <path
     d="M 31.528767,8.1068953 31.466652,7.1088191 31.1589,7.9459608 29.428148,9.400018 27.446113,9.6950646 26.853196,9.1459109 l 1.737811,-2.305316 1.778749,-0.5166844 -1.925567,0.039528 -2.799413,1.9509778 -2.624362,-0.1806984 -3.684553,-1.8098072 -2.17685,0.4221001 -6.791718,5.4294212 -3.2723349,1.012193 -1.3467676,1.314299 -2.4083706,0.03247 -1.1928917,2.131676 -1.67569508,0.46304 1.58393418,0.207521 1.4724095,-1.910039 2.2756702,0.455981 -0.042351,2.044151 -1.1364234,2.941995 -0.6493848,2.72177 -0.6987945,1.085602 1.7731028,-0.375514 -0.2018739,-1.112425 1.5077021,-2.989993 2.9024677,-1.12513 1.123718,-1.790043 1.898744,-1.327004 3.769256,0.52939 3.796077,-1.602287 -0.642326,2.534013 -1.6884,0.146817 -0.481392,2.078032 1.444175,-0.924668 2.394254,-0.998076 1.87051,-2.822 0.118584,-1.334063 1.005134,0.998076 2.923644,1.763221 1.661578,-0.758086 -0.09741,-3.725492 -0.482804,-1.441352 2.171204,-0.5293896 z" />
</svg>
