<svg
   xmlns="http://www.w3.org/2000/svg"
   viewBox="0 0 865 865"
   version="1.1">
  <path
     d="M 430.0166,0.66894755 339.74707,90.938478 214.93066,60.39551 185.20019,181.89746 56.624026,213.88379 l 34.103516,137.08984 -86.5332031,86.5332 85.8710931,85.8711 -30.15039,123.21289 122.019528,29.85937 35.96094,132.90039 124.4707,-33.67773 88.6582,88.6582 90.26172,-90.26172 124.81446,30.54297 29.66601,-121.24219 125.64453,-31.25585 -31.72265,-127.51758 91.11718,-95.38281 -93.59179,-89.40821 30.92578,-126.38867 -121.14258,-29.64453 -33.85156,-125.134763 -117.40039,31.75 53.10937,53.119133 -96.03906,96.0293 18.08984,66.8418 71.24414,-19.27344 -18.23242,74.50977 74.65625,18.26757 -53.36523,55.86328 53.55664,51.16211 -72.14453,17.94727 18.51757,74.43164 -77.23632,-18.89844 -16.74024,68.40821 -50.13672,-50.13672 -52.16796,52.16797 -18.73047,-69.22266 -76.52149,20.70312 20.53516,-83.91601 -60.38281,-14.77539 46.10937,-46.10938 -58.84961,-58.84961 70.39844,-17.51367 -18.97266,-76.26758 80.6875,19.74414 16.74414,-68.42187 50.14258,50.14258 142.83399,-142.83594 z M 346.53613,115.25879 c 12.66992,3.09961 25.33985,6.19923 38.00977,9.29882 -5.58334,22.81771 -11.16667,45.63542 -16.75,68.45313 l -49.50586,-49.50586 z m -109.93554,76.52148 15.69921,63.06055 c -19.59309,-4.79167 -39.18619,-9.58334 -58.77929,-14.375 3.29948,-13.47591 6.59896,-26.95182 9.89844,-40.42774 11.06054,-2.7526 22.12109,-5.5052 33.18164,-8.25781 z m 381.46875,0.22266 c 13.69921,3.35156 27.39843,6.70312 41.09765,10.05468 3.25456,12.0267 6.50912,24.05339 9.76367,36.08008 -22.18424,6.00261 -44.36849,12.00521 -66.55273,18.00782 z m 97.38085,128.76562 c 9.12567,8.71615 18.25131,17.43229 27.37696,26.14844 -2.94531,12.03711 -5.89063,24.07422 -8.83594,36.11133 -21.07617,-5.15951 -42.15233,-10.31901 -63.22852,-15.47852 14.89585,-15.59375 29.79167,-31.1875 44.6875,-46.78125 z m -568.41992,5.01172 40.91211,40.91211 -66.5039,16.55469 c -2.11589,-8.50977 -4.23177,-17.01953 -6.34766,-25.5293 z m -22.95703,151.19727 c 25.4974,6.23958 50.99479,12.47916 76.49219,18.71875 -17.8457,17.8457 -35.69141,35.6914 -53.53711,53.53711 l -32.64453,-32.64453 c 3.22982,-13.20379 6.45963,-26.40756 9.68945,-39.61133 z m 612.52344,5.77343 c 2.93815,11.80665 5.8763,23.61329 8.81445,35.41993 -8.2832,8.67252 -16.5664,17.34505 -24.84961,26.01757 l -47.71093,-45.57226 c 21.24869,-5.28841 42.49739,-10.57682 63.74609,-15.86524 z M 605.28027,609.32129 c 20.74349,5.07226 41.48698,10.14453 62.23047,15.21679 -3.32031,13.56381 -6.64062,27.12761 -9.96094,40.69141 -12.03841,2.99609 -24.07682,5.99219 -36.11523,8.98828 -5.38477,-21.63216 -10.76953,-43.26432 -16.1543,-64.89648 z m -351.90429,3.94531 c -4.46355,18.24609 -8.92709,36.49219 -13.39063,54.73828 -13.40625,-3.27995 -26.8125,-6.5599 -40.21875,-9.83984 -2.55404,-9.43815 -5.10807,-18.87631 -7.66211,-28.31446 20.42383,-5.52799 40.84766,-11.05599 61.27149,-16.58398 z m 239.86523,58.71875 c 16.50326,16.50325 33.00651,33.00652 49.50977,49.50976 l -28.25391,28.25391 c -12.66992,-3.09896 -25.33984,-6.19792 -38.00977,-9.29687 5.58464,-22.82227 11.16928,-45.64454 16.75391,-68.4668 z m -125.68555,1.25391 c 6.12175,22.62174 12.24349,45.24349 18.36524,67.86523 -12.33334,3.33789 -24.66667,6.67578 -37,10.01367 l -29.62305,-29.62305 c 16.08594,-16.08527 32.17188,-32.17057 48.25781,-48.25585 z" />
</svg>
