<svg viewBox="0 0 48 48" xmlns="http://www.w3.org/2000/svg">
  <path d="M10.6303 32.2124V37.3371H15.7655V36.0559H22.8265V47.3119C10.9971 46.6713 1.36847 36.9711 0.726562 25.166H12.0058V32.1209L10.6303 32.2124Z"></path><path d="M32.4555 36.0557V37.3369H37.5908V32.2122H36.3069V25.2573H47.5862C46.9443 37.0624 37.224 46.6711 25.3945 47.3117V36.0557H32.4555Z"></path><path d="M22.8265 11.9882H32.5468V10.4324H37.6821V16.1062H32.5468V14.5505H22.8265V25.1659L33.8306 25.2574V32.2123H32.5468V33.4935H15.7655V32.2123H14.5734V15.5571H15.8572V10.4324H10.722V15.5571H12.0058V22.512H0.726562C1.36847 10.707 11.0888 1.09823 22.8265 0.457642V11.9882Z"></path></svg>