<svg
   xmlns="http://www.w3.org/2000/svg"
   viewBox="0, 0, 73,65.52567237163814"
   version="1.1">
    <path
       d="M 0.20507812,0 C 1.3658763,2.8772786 4.5092223,5.0550613 6.6851313,7.4479338 12.181211,13.110259 18.483181,17.879845 24.728516,22.667969 c 2.769285,1.082105 -0.417223,-3.857633 -0.841452,-4.515888 -1.253449,-1.480848 -1.96558,-4.611648 0.514437,-2.187563 4.484035,3.464288 7.951797,8.346517 13.208611,10.719336 5.956128,3.327805 12.15891,6.23658 18.726916,8.151895 3.058317,0.897054 6.233785,1.740557 9.381152,2.505976 3.991216,0.653522 8.071104,1.865535 12.14874,1.471334 -0.534895,-0.607975 -0.275841,-0.34226 -0.534895,-0.607975 C 74.345022,37.207053 71.498647,36.449131 68.499963,35.417923 65.307822,34.15465 62.253597,32.658858 59.023438,31.5 c -1.570863,-1.008883 -3.977309,-1.828861 -4.967023,-2.751657 -2.298211,-1.631034 -4.535837,-2.460748 -6.078817,-4.529251 3.309976,1.095956 6.641765,2.296432 10.07735,2.993585 3.057924,-2.08061 3.929308,-6.416847 6.138105,-9.391068 C 66.186124,12.933396 76.51003,-0.94377267 71.469368,0 64.949182,0.12980116 58.380377,-0.30454029 51.892164,0.28869962 49.708316,2.6309757 48.752947,5.702999 46.872723,8.2799155 43.895967,13.439749 40.65301,18.47274 37.349454,23.364663 36.278221,22.280882 34.222715,18.947573 32.667494,16.620041 30.997121,14.413421 30.085656,12.256397 28.286981,9.6693897 27.087928,7.0951491 25.001145,4.9080247 24.004209,2.6957236 22.325172,-1.9593991 16.365863,0.76739944 12.619478,-0.0014995 8.4813451,-0.01031074 4.3432085,0.01184316 0.20507812,0 Z M 73.296875,0.7734375 c -0.121022,0.3198493 -0.08247,0.21795675 0,0 z M 16.648438,16.203125 c 0.250584,0.227543 0.173252,0.157322 0,0 z M 4.5,18.667969 c 0.5329183,3.227859 6.069043,6.565025 6.505184,7.651945 1.782516,1.512296 2.35944,1.929739 2.505148,2.035604 5.283999,3.052152 14.810588,10.410126 18.036993,12.255923 -2.862537,1.056447 -13.056685,-4.859381 -8.233962,0.710686 2.810961,5.780398 6.319893,10.504681 9.049792,16.345459 1.859704,2.184458 2.670076,6.757789 5.323679,7.470345 3.066912,-4.502781 5.415343,-9.518209 8.21325,-14.201916 2.130405,-3.925082 4.177829,-7.906662 6.326388,-11.802457 0.148836,-2.859571 -17.756648,-9.645325 -18.313431,-9.542993 -0.06135,2.272089 4.782353,5.145369 2.900731,6.315956 C 29.78096,33.225162 23.412163,29.910111 16.588784,26.290935 13.164221,24.363756 10.740963,22.854302 7.4262715,20.515745 6.2783454,19.943647 5.4814543,19.213099 4.5,18.667969 Z m 29.970703,11.121097 c 0.35771,1.053505 0.749914,2.157886 0,0 z m 10.205078,0.476563 0.639277,0.328689 z m 22.865239,4.773478 c -45.027347,20.324377 -22.513673,10.162189 0,0 z m -35.423832,21.658159 0.332615,0.60214 z" />
</svg>
