<svg
   xmlns="http://www.w3.org/2000/svg"
   version="1.1"
   viewBox="0 0 48 48">
  <path
     d="m18.056 26.9-1.927 12.22-1.21 7.664a1.038 1.038 0 0 0 1.026 1.2h6.67a1.278 1.278 0 0 0 1.261-1.079l1.758-11.14a1.277 1.277 0 0 1 1.261-1.078h3.927c6.183 0 11.429-4.51 12.388-10.623.68-4.339-1.504-8.286-5.238-10.244-.01.462-.05.923-.121 1.38-.959 6.112-6.206 10.623-12.389 10.623h-6.145a1.277 1.277 0 0 0-1.261 1.077Z" />
  <path
     d="M16.128 39.12h-7.76a1.037 1.037 0 0 1-1.025-1.2l5.232-33.182a1.277 1.277 0 0 1 1.262-1.078h13.337c6.313 0 10.905 4.595 10.798 10.16-1.571-.824-3.417-1.295-5.44-1.295H21.413a1.278 1.278 0 0 0-1.261 1.078L18.057 26.9l-1.93 12.22Z" />
</svg>
