<svg
   xmlns="http://www.w3.org/2000/svg"
   viewBox="0 0 489 489">
  <path
     d="m 204.01258,0.42343 c -0.97613,0.0243 -1.88516,0.17969 -2.72266,0.47656 -25.2,9.6 -80.09961,28.5 -80.09961,28.5 l 124.09961,145.40039 83.29883,-49 c 0,0 -94.31617,-126.13066 -124.57617,-125.37695 z m 155.97656,47.87695 c -9.4,44.3 -28.29883,77.5 -28.29883,77.5 l 86.39844,55.29883 c 36.2,-94.9 -58.09961,-132.79883 -58.09961,-132.79883 z M 243.69031,176.39999 29.989138,190.70077 c 0,0 -12.6,1.59883 -11,25.29883 1.6,31.6 4.701172,66.40039 4.701172,66.40039 0,0 -1.600781,14.20078 26.699219,15.80078 28.3,1.5 199.599221,1.49922 202.699221,-4.80078 z m 175.8125,4.55273 c -1.41328,0.0229 -1.41406,0.24805 -1.41406,0.24805 l 7.90039,99.59961 36.09961,-4.70117 c 0,0 9.40039,-3.2 7.90039,-20.5 -1.6,-19 -4.69922,-58.5 -4.69922,-58.5 0,0 1.59961,-9.49961 -20.40039,-12.59961 -16.75,-3.0625 -23.03125,-3.58496 -25.38672,-3.54688 z m 6.38672,99.84766 -72.30078,58.5 33,64.79883 c 0,0 7.90039,25.30078 31.40039,-3.19922 22,-28.5 31.40078,-33.19961 29.80078,-50.59961 -1.4,-17.4 -6.20039,-58.5 -21.90039,-69.5 z m -172.80078,14.09961 -86.39844,175.5 c 0,0 -6.30078,12.59922 15.69922,14.19922 22,3.2 58.1,11.10156 77,-7.89844 18.9,-17.3 92.69922,-137.5 92.69922,-137.5 z" />
</svg>
