<svg xmlns="http://www.w3.org/2000/svg" viewBox="0 0 226.8 226.8">
<path d="M226.8,113.4c-0.2,62.9-51,113.6-113.6,113.4C50.4,226.6-0.2,175.7,0,113C0.2,50.3,51.2-0.2,114,0
	C176.2,0.2,227,51.2,226.8,113.4z M119,36.2c0.1,0,0.2-0.1,0.4-0.1c0.8,1.8,1.7,3.6,2.3,5.4c0.6,1.8,0.9,3.8,1.4,5.7
	c7.1-4.2,20.1-15.7,22.2-19.8c-0.1,0-0.2-0.1-0.3-0.1c-8.2-2.9-16.7-4.7-25.4-5.3c-8.2-0.5-16.4-0.1-24.4,1.5
	c-20.5,4.2-37.8,14.2-51.6,30C28.2,71.2,20.8,92,20.7,115.3c0,9.5,1.6,18.9,4.6,28c5.4,16.2,14.5,29.8,27.4,41
	c11.3,9.7,24.1,16.4,38.5,20c10,2.5,20.1,3.1,30.3,2.3c11.8-0.9,23-3.5,33.2-9.6c8.4-5,15.2-11.6,19.7-20.3
	c6.2-12,7.6-24.6,4.9-37.7c-3.6-17.8-12.9-32-27.8-42.3c-13.3-9.3-28.3-12.9-44.4-12.3c-0.8,0-1.7,0.1-2.5,0.1
	c6.3,3.5,12,7.5,16,13.8c-0.4-0.1-0.7-0.1-1-0.2c-2.4-0.6-4.8-1.2-7.3-1.7c-9.9-1.9-19.9-2.5-30-1.1c-10.5,1.5-20.1,5.1-28.8,11.1
	c-2.3,1.6-4.5,3.4-6.9,5.2c-1.9-7.7-2.7-15.4,0.8-22.9c2.9-6.1,7.5-10.7,13-14.6c-0.2,1.8-0.6,3.4-0.6,5.1c0,2,1.2,3.4,3,3.7
	c1,0.1,2,0.1,2.9-0.1c2.6-0.5,5-1.7,7-3.3c2.5-1.9,4.8-3.9,7.2-5.9c2.3,1.9,5,1.9,8.2,1.1c-0.5-0.1-0.6-0.1-0.8-0.1
	c-6.1-1.3-8.6-6.5-5.6-12c1.7-3.1,4.4-5,7.5-6.4c5.1-2.2,10.2-4.2,15.1-6.8C110.5,46.3,116,42.6,119,36.2z M156.4,10.3
	c-2.8,10.1-7.8,19.1-14.6,27c0.1,0.1,0.2,0.1,0.3,0.2c2-0.6,4-1.2,5.9-1.7c-0.3,0.8-0.7,1.3-1.1,1.8c-6.4,8.5-14.3,15.1-24.2,19.1
	c-0.4,0.2-0.8,0.7-1,1.2c-1.4,4.2-3.4,7.9-6.7,10.9c-0.2,0.1-0.3,0.3-0.5,0.7c0.5-0.1,0.8-0.2,1.1-0.3c6.6-2.6,12.9-5.9,18.6-10.2
	c0.4-0.3,1-0.7,1.5-0.6c2.4,0.2,4.8,0.5,7.2,0.9c9.3,1.7,18.1,4.8,26.5,9.1c10.7,5.6,20,12.8,28,21.8c0.3,0.3,0.5,0.7,0.9,1.2
	c-4.1-2.9-7.9-5.7-11.9-8.3c-4-2.7-8.2-5-12.8-6.8c0.9,1.6,1.9,3.3,3,5.2c-5.3-2.8-10.6-4.7-16.1-6.2c-5.8-1.6-15-2.8-16.8-2.2
	c16.2,2.7,30,9.6,41,21.8c11,12.2,16.8,26.6,17.9,42.9c1.8-5.5,2.6-11.1,3-16.8c1-14.1-1-27.7-6.3-40.8
	c-9-22.2-24.4-38.4-45.6-49.2C155.6,24.2,156.5,17.3,156.4,10.3z M90.3,71.1c6.3,0.1,12.3-0.8,17-5.5c2.9-2.9,4.5-6.4,5.4-10.2
	c-2.2,1.2-4.3,2.5-6.6,3.5c-3.8,1.7-7.7,3.1-11.5,4.9C91.8,65.2,89.7,67.7,90.3,71.1z M61.1,92.2c0.9-1.3,1.2-2.7,1-4.3
	c-0.1-1.3-1.3-2.2-2.5-1.8c-1.2,0.4-2.4,1.1-3.3,1.9c-1.5,1.4-2.4,3.2-2.9,5.2c-0.1,0.3-0.1,0.7-0.2,0.9c1.5-1,2.8-2.1,4.3-2.9
	C59.1,90.4,59.9,90.7,61.1,92.2z"/>
</svg>
