<svg
   xmlns="http://www.w3.org/2000/svg"
   viewBox="0 0 128 128">
  <path
     d="M 70.198181,100.59594 C 68.776745,85.129831 71.030574,64.285733 80.147348,54.186878 89.748766,56.315724 108.95145,49.745829 115.93424,36.421798 122.26666,24.339815 121.11828,6.6088483 124.66341,1.7812307 82.910819,1.7809366 75.983764,44.939091 64.027647,77.259515 55.187454,53.362131 27.444238,37.258897 3.3365875,47.081317 13.13754,53.856332 19.248964,70.562724 32.528734,72.057827 c 4.178142,0.470528 11.765848,0 16.763591,-9.444968 11.82584,9.606124 10.102237,21.255516 8.564786,37.983081 -0.620361,6.7512 -2.956239,13.17185 -2.613048,18.52852 0.492437,9.45908 17.074876,9.45908 17.567165,0 0.343338,-5.35667 -1.99254,-11.77732 -2.613047,-18.52852 z" />
</svg>
