<svg
   xmlns="http://www.w3.org/2000/svg"
   viewBox="0 0 32 32">
  <path
     d="M 20.654569,0.29789543 C 20.325334,0.2519662 19.97806,0.33638389 19.620243,0.5557096 16.864254,2.2518892 14.107994,3.9471181 11.348705,5.6383319 10.433028,6.1990684 9.5090865,6.7454749 8.5894805,7.2987785 c -0.054372,0.099001 -1.823e-4,0.1802786 0.033761,0.2670205 0.1796154,0.4634173 0.6214066,0.5609313 1.0189806,0.690575 0.2732732,0.089258 -0.1988703,0.093485 -0.00307,0.1381138 0.032057,0.090043 0.091093,0.099791 0.1657365,0.052176 l 0.1473224,-0.00307 c 0.152272,0.037243 0.312112,0.025168 0.457313,-0.033761 0.638004,-0.1585581 1.278768,-0.3065185 1.921329,-0.4481052 0.585675,-0.1139293 1.163528,-0.265141 1.740246,-0.4174134 0.335817,-0.073072 0.666551,-0.1665882 0.997496,-0.2547459 1.113168,-0.2103638 2.215367,-0.4720005 3.305545,-0.7795806 -0.169601,0.2205287 -0.323972,0.4539235 -0.441967,0.7059194 -0.645704,1.1669504 -1.274943,2.3413856 -1.936676,3.4989069 -0.297159,0.525489 -0.581245,1.057765 -0.865518,1.589854 -0.425232,0.767961 -0.822029,1.551938 -1.282932,2.298843 -0.260388,0.49846 -0.543748,0.98153 -0.804136,1.479361 -0.29323,0.559275 -0.669624,1.078121 -0.856311,1.691139 -0.07543,0.21403 -0.17577,0.419373 -0.297714,0.610774 -0.743448,1.361966 -1.487716,2.723003 -2.2313198,4.085128 0.2050728,-0.101674 0.3738998,-0.267745 0.4757288,-0.47266 3.555695,-5.346349 7.112984,-10.689501 10.671664,-16.0335859 0.124144,-0.1751209 0.216117,-0.3730919 0.27316,-0.5800818 0.259445,-1.0490925 0.507797,-2.0992114 0.776513,-3.1459467 0.07669,-0.2396916 0.09381,-0.4957201 0.04604,-0.7427505 -0.04766,-0.2456196 -0.157012,-0.4760224 -0.316129,-0.66908906 0,0 -0.0031,-0.003069 -0.0031,-0.003069 C 21.294718,0.52077825 20.982572,0.34365258 20.654569,0.29789543 Z m -3.52346,7.68224797 -2.731603,0.6291899 c 0.08618,0.2035312 0.155732,0.4131847 0.202569,0.62919 0.146003,0.6273953 0.297624,1.2540327 0.441967,1.8814287 0.02928,0.127412 0.03937,0.270718 0.171876,0.349892 0.0597,-0.07447 0.115206,-0.152174 0.165737,-0.233262 0.363021,-0.658962 0.726507,-1.315718 1.080364,-1.9796446 0.250627,-0.410881 0.473324,-0.8371715 0.66909,-1.276794 z M 6.8768574,8.3208266 C 6.8304999,8.4295701 6.7218398,8.4636814 6.6343893,8.523396 6.09361,8.8912699 5.4899654,9.1610655 4.9892893,9.5914825 5.5406286,9.4665532 6.0987743,9.3674142 6.6405278,9.2109005 7.0559684,9.0909982 7.5044555,9.0912983 7.8866294,8.8579396 7.6229419,8.5425519 7.2225739,8.4814276 6.8768574,8.3208266 Z m 6.7093066,0.4818675 -1.402632,0.3437523 c 0.234207,0.9746326 0.471953,1.9493116 0.702851,2.9249626 0.199713,0.844801 0.393014,1.68999 0.58929,2.535173 0.392679,-0.594938 0.742132,-1.215365 1.046601,-1.859944 0.0289,-0.132254 0.02152,-0.271713 -0.02455,-0.399 -0.264505,-1.086136 -0.521955,-2.171843 -0.779583,-3.2595077 -0.01304,-0.1057736 -0.05957,-0.2071549 -0.131977,-0.2854362 z m 10.217421,0.6414661 c -0.242316,0.1167579 -0.117588,0.300085 -0.07673,0.4542448 0.415803,1.583067 0.83385,3.16611 1.25531,4.748077 0.213872,0.61569 0.38985,1.24374 0.524837,1.88143 0.159815,0.814163 0.433421,1.600127 0.601565,2.412404 0.126815,0.31853 0.231346,0.646092 0.313061,0.97908 0.187944,0.583161 0.229989,1.212816 0.54632,1.755591 0.06129,0.169401 0.0013,0.389883 0.208707,0.497213 0.449903,-1.136465 0.787899,-2.310933 1.166302,-3.471283 0.04431,-0.154787 0.05679,-0.319139 0.03683,-0.478799 -0.01996,-0.159815 -0.07237,-0.311945 -0.153462,-0.451174 -1.263437,-2.557831 -2.527285,-5.116624 -3.79355,-7.67304 -0.122573,-0.288202 -0.346174,-0.5198573 -0.62919,-0.6537438 z m -1.503916,0.058314 c -0.204916,0.1015149 -0.370118,0.269871 -0.46959,0.4757295 -3.561666,5.3524783 -7.124245,10.7041643 -10.687011,16.0550703 -0.117072,0.16563 -0.202103,0.350362 -0.254746,0.546321 -0.276259,1.131592 -0.548878,2.264299 -0.81948,3.397621 -0.05783,0.21953 -0.05482,0.449161 0.01228,0.66602 0.06687,0.216271 0.194376,0.410298 0.365235,0.558598 0.216073,0.267773 0.525304,0.44614 0.86552,0.497212 0.340217,0.05123 0.687882,-0.02848 0.972941,-0.220983 0.451788,-0.26903 0.893702,-0.547705 1.341248,-0.82255 3.777267,-2.3119 7.551514,-4.631157 11.322339,-6.954843 0.657647,-0.405432 1.350087,-0.757071 1.955091,-1.246103 -0.08344,-7.85e-4 -0.166264,0.0055 -0.248608,0.01842 -3.290907,0.777391 -6.578592,1.562914 -9.870599,2.332604 -1.077692,0.252216 -2.146187,0.548752 -3.238022,0.739681 0,-0.03551 0.004,-0.07057 0.01534,-0.104354 1.315294,-2.395971 2.628354,-4.796291 3.956219,-7.185035 0.241845,-0.43466 0.430463,-0.900915 0.764237,-1.282932 0.07228,-0.04164 0.129427,-0.106366 0.159598,-0.184152 0.265102,-0.528004 0.574229,-1.031149 0.850174,-1.553023 0.289773,-0.56179 0.5942,-1.117682 0.908488,-1.666585 0.20633,-0.402603 0.437257,-0.791358 0.690573,-1.166302 0.07072,-0.202715 0.162448,-0.400319 0.270091,-0.58622 0.346345,-0.639733 0.713845,-1.265087 1.043533,-1.9151915 0.06176,-0.1219437 0.170889,-0.2410697 0.09515,-0.3989993 z M 10.163988,9.5638598 C 10.005517,9.6043401 9.8476074,9.635178 9.6851898,9.6559367 9.1580962,9.7661731 9.1173299,10.26211 8.914817,10.644224 8.9350572,10.502166 8.9120372,10.357675 8.8472939,10.229879 8.7823778,10.101964 8.6790447,9.9966859 8.5526491,9.9290967 c -0.1328808,0.019863 -0.2639184,0.048647 -0.3928597,0.085937 -0.6330211,0.18482 -1.3055749,0.231187 -1.9090521,0.524837 -0.054835,0.04226 -0.1095023,0.07966 -0.1166302,0.156529 -0.021384,0.132881 -0.013256,0.268642 0.030692,0.395929 0.6366118,2.372494 1.2622959,4.750888 1.909053,7.120582 0.2552095,0.932247 0.4642611,1.876567 0.7458189,2.802194 0.185202,0.11074 0.3982199,0.164422 0.6138433,0.156531 0.2154961,-0.0079 0.4248935,-0.07872 0.6015667,-0.202569 0.08795,-0.08948 0.162446,-0.188375 0.224053,-0.297714 0.516019,-0.904751 1.007257,-1.824205 1.506984,-2.73774 0.142043,-0.259283 0.346696,-0.491519 0.374444,-0.804135 -0.0035,-0.07739 -0.01761,-0.155852 -0.0399,-0.230191 -0.561589,-2.33749 -1.116325,-4.673251 -1.666585,-7.0131597 -0.01226,-0.106795 -0.0602,-0.2081748 -0.135046,-0.2854377 -0.03959,-0.026479 -0.08743,-0.040146 -0.135045,-0.03683 z M 4.8419669,9.7879124 C 4.7352976,9.9007417 4.6642226,10.040306 4.6363295,10.19305 c -0.3146177,0.945377 -0.6199954,1.89286 -0.9330417,2.839024 -0.072569,0.20193 -0.1029461,0.418072 -0.089007,0.632259 0.013939,0.214187 0.070671,0.42307 0.1688069,0.613843 1.2653382,2.546045 2.5316389,5.09426 3.7935522,7.642348 0.1209992,0.261959 0.3252768,0.47515 0.5831499,0.604637 C 8.2971332,22.344445 8.152168,22.178324 8.110682,22.021808 7.4475348,19.508135 6.7810923,16.995601 6.1095534,14.483813 5.6881249,12.917874 5.2641811,11.354008 4.8419669,9.7879124 Z M 22.52986,10.800753 c -0.216386,0.0088 -0.429107,0.0818 -0.604635,0.208708 -0.288941,0.646615 -0.673283,1.240357 -0.994427,1.869152 -0.07485,0.146128 -0.239069,0.267191 -0.168807,0.466521 0.01732,0.08618 0.08868,0.123456 0.156531,0.159599 0.978197,0.521238 1.946766,1.059027 2.924963,1.580647 0.04111,0.0336 0.08988,0.06018 0.141184,0.07366 0.05129,0.01351 0.104201,0.01495 0.15653,0.0061 0.03933,-0.04493 0.01501,-0.09319 0.0031,-0.138115 -0.335273,-1.26701 -0.672717,-2.532933 -1.009772,-3.799689 -0.02495,-0.09152 -0.08279,-0.181103 0.0092,-0.267022 -0.185201,-0.112389 -0.397456,-0.168382 -0.613844,-0.1596 z m -2.344881,3.474354 c -0.292123,0.4217 -0.503637,0.887173 -0.755028,1.332039 0.104878,0.04952 0.211614,0.09528 0.313061,0.150392 1.776284,0.96445 3.555454,1.929439 5.331229,2.894271 -0.0083,-0.08541 -0.02298,-0.170735 -0.0399,-0.254744 -0.142561,-0.575463 -0.287779,-1.149693 -0.432758,-1.724901 -0.06364,-0.09789 -0.156019,-0.173108 -0.263953,-0.217915 -1.226661,-0.68289 -2.471746,-1.334997 -3.698405,-2.019544 -0.13912,-0.07764 -0.27299,-0.192438 -0.454245,-0.159598 z m -1.522331,2.765363 c -0.272903,0.142435 -0.342459,0.431446 -0.475728,0.66909 -0.714332,1.273375 -1.407981,2.559723 -2.111621,3.839589 -0.401207,0.728843 -0.82075,1.447544 -1.200064,2.188351 -0.04862,0.09496 -0.151817,0.199861 -0.0092,0.303854 0.103872,0.02583 0.212376,0.02094 0.31306,-0.01535 0.991944,-0.225297 1.980712,-0.467866 2.971001,-0.699782 2.018256,-0.472869 4.03513,-0.953948 6.052496,-1.430254 0.488144,-0.115328 0.993012,-0.180688 1.454808,-0.395929 0.09763,-0.04952 0.174906,-0.13091 0.220984,-0.230191 -0.0299,-0.150701 -0.08256,-0.296438 -0.153461,-0.43276 -0.816416,-0.499218 -1.66886,-0.92778 -2.507551,-1.387286 C 21.95418,18.757999 20.687649,18.07117 19.423821,17.38115 19.191905,17.223569 18.934667,17.108565 18.662656,17.040467 Z"/>
</svg>
