<svg
   xmlns="http://www.w3.org/2000/svg"
   viewBox="0 0 32 32">
  <path
     d="M 6.5239499,6.9300663 8.8252763,5.711717 9.0960206,6.2532056 17.489094,1.3798084 16.947605,0.97369197 16.270744,0.56757553 16,0.43220339 2.1920413,8.4191599 V 8.6899042 L 6.1178335,6.5239499 Z m 0,5.1441417 L 13.157185,8.1484156 13.427929,8.6899042 21.956374,3.816507 21.279514,3.4103906 20.602653,3.1396463 20.331909,3.0042741 2.1920413,13.427929 v 0.270745 l 3.9257922,-2.165955 z m 0,2.436698 L 15.323139,9.5021371 15.593884,9.9082535 24.122329,5.0348563 23.445468,4.764112 22.768607,4.3579956 22.497863,4.2226234 2.1920413,15.864628 v 0.406116 l 3.9257922,-2.301326 z m 0,2.436699 10.9651441,-6.227119 0.270744,0.406117 L 26.288283,6.3885777 25.611422,5.9824613 24.934562,5.5763449 24.663817,5.4409727 2.1920413,18.436699 v 0.270744 l 3.9257922,-2.165954 z m 0,2.572071 13.1310981,-7.58084 0.270744,0.541488 L 28.454237,7.606927 27.777377,7.2008106 27.235888,6.9300663 26.829772,6.659322 2.1920413,20.873397 v 0.406117 L 6.1178335,18.978187 Z M 29.26647,8.1484156 28.995726,7.8776713 2.1920413,23.445468 v 0.270744 l 3.9257922,-2.165954 0.4061164,0.541488 13.1310981,-7.716212 0.270744,0.541489 9.882167,-5.5502581 V 8.4191599 Z M 3.9518791,25.340678 l 2.1659544,-1.353721 0.2707442,0.541488 13.2664703,-7.58084 0.270744,0.541489 9.882167,-5.68563 V 10.043626 L 3.5457627,25.069934 Z m 15.7031689,-5.821002 0.270744,0.541488 9.882167,-5.821002 v -1.759838 l -24.096242,13.943331 0.4061165,0.135372 2.1659543,-1.353721 0.4061164,0.541488 m -0.4061164,2.030583 2.3013262,-1.21835 0.270745,0.541489 8.799189,-5.144142 0.270744,0.541489 9.882167,-5.68563 V 15.052395 L 7.8776713,27.642004 Z m 2.1659542,1.218349 2.301327,-1.218349 0.270744,0.541488 6.633235,-3.79042 0.270744,0.541489 9.882167,-5.68563 v -1.89521 l -19.764333,11.37126 z m 1.759838,1.082977 0.406116,0.270744 2.301327,-1.353721 0.270744,0.541488 4.467281,-2.57207 0.270744,0.541488 9.882167,-5.68563 v -1.759838 z m 2.572071,1.489094 2.165954,-1.353722 0.406116,0.541489 2.301327,-1.21835 0.270744,0.541489 9.882167,-5.68563 v -1.89521 L 14.510906,31.432424 Z M 19.79042,2.5981577 19.113559,2.1920413 18.436699,1.921297 18.165954,1.6505527 2.1920413,10.855859 v 0.406116 L 6.1178335,8.9606485 6.5239499,9.5021371 10.991231,6.9300663 11.261975,7.4715549 Z" />
</svg>
