<svg
   xmlns="http://www.w3.org/2000/svg"
   viewBox="0 0 96 96">
<path
   d="m 45.159455,0.74609937 c -0.787227,0 -1.575684,0.47110633 -2.04802,1.10088783 L 20.59552,40.264267 c -0.31489,0.472336 -0.1556,1.259563 0.316736,1.574454 l 5.824247,3.779304 c 0.629782,0.31489 1.259563,0.158675 1.574454,-0.313661 L 47.204399,13.184898 c 0.157445,-0.314891 0.786613,-0.314891 0.944058,0 l 18.893442,32.119466 c 0.314891,0.629781 1.102117,0.785997 1.574453,0.313661 l 5.827324,-3.779304 c 0.472336,-0.314891 0.62855,-1.102118 0.313659,-1.574454 L 52.558156,1.8469872 C 52.08582,1.0597604 51.454809,0.74609937 50.510137,0.74609937 Z M 80.32635,49.769416 c -0.29521,-0.05904 -0.609486,0.02214 -0.845654,0.258308 l -5.824247,3.776229 c -0.472336,0.314891 -0.631627,1.102118 -0.316736,1.574454 l 5.196926,8.659494 c 0.157446,0.314891 6.16e-4,0.629782 -0.156829,0.787227 L 48.148457,84.348965 c -0.157445,0.157446 -0.469877,0.157446 -0.627322,0 L 17.606518,64.825128 c -0.314891,-0.157445 -0.31735,-0.472336 -0.159905,-0.787227 l 5.196927,-8.659494 c 0.31489,-0.472336 0.158675,-1.259563 -0.313661,-1.574454 l -5.827324,-3.776229 c -0.629781,-0.31489 -1.259562,-0.158675 -1.574453,0.313661 L 5.9549481,65.612355 C 5.3251667,66.714472 5.6400574,68.13148 6.7421749,68.761262 L 46.890739,94.899649 c 0.787227,0.472336 1.731284,0.472336 2.51851,0 L 89.557814,68.761262 c 0.787227,-0.787227 1.103347,-2.204235 0.473566,-3.148907 l -8.976231,-15.27097 c -0.157445,-0.31489 -0.433588,-0.512927 -0.728799,-0.571969 z" />

</svg>