<svg
   xmlns="http://www.w3.org/2000/svg"
   viewBox="0 0 32 32">
  <path
     d="m 4.9371559,0.37778553 c -1.9149203,0 -3.3268373,1.44217777 -3.3268373,3.41159767 V 28.429876 c -0.00537,0.418603 0.071303,0.834097 0.2295588,1.221959 0.1582551,0.387863 0.3916768,0.738777 0.6886764,1.034782 0.2969818,0.295824 0.6528422,0.530999 1.041844,0.688676 0.3890018,0.157495 0.8056773,0.235164 1.2254912,0.229558 0.4200678,0.0071 0.8358204,-0.0726 1.2254913,-0.229558 0.38949,-0.157135 0.7447541,-0.388959 1.0418442,-0.685145 0.2972709,-0.296367 0.5311801,-0.649908 0.6886759,-1.038313 0.1574957,-0.388586 0.23326,-0.802995 0.2260271,-1.221959 V 6.4557969 H 23.729197 l -9.309495,9.2635821 c -0.292932,0.289677 -0.526564,0.633685 -0.685145,1.013591 -0.158761,0.379726 -0.240155,0.785687 -0.240155,1.197237 0,0.411371 0.08139,0.820864 0.240155,1.20077 0.158581,0.379726 0.392213,0.723915 0.685145,1.013591 l 10.63034,10.566771 c 0.291484,0.289134 0.636854,0.518681 1.017122,0.67455 0.380087,0.155868 0.789582,0.237525 1.20077,0.236621 0.411008,-0.0011 0.817873,-0.08584 1.197237,-0.243686 0.379364,-0.157857 0.723553,-0.387499 1.013591,-0.678081 0.289857,-0.290579 0.518139,-0.634587 0.67455,-1.01359 0.156411,-0.379183 0.237707,-0.787315 0.236622,-1.197238 -0.0011,-0.409923 -0.08193,-0.815427 -0.240153,-1.193706 -0.158219,-0.378279 -0.390129,-0.720925 -0.681613,-1.010059 l -8.41245,-8.359474 7.861508,-7.812064 c 0.292027,-0.2900374 0.523936,-0.637396 0.681613,-1.0171216 0.157676,-0.3797257 0.237527,-0.786231 0.236623,-1.197237 l 0.0141,-6.3146351 c -7.11e-4,-0.3186511 -0.1286,-0.62171809 -0.346104,-0.85466513 -0.0036,-0.003888 -0.0034,-0.0102707 -0.0071,-0.0141222 l -0.0071,0.00707 C 29.376164,0.61364868 29.244339,0.52144388 29.097342,0.46255711 28.945633,0.40169251 28.78421,0.37418049 28.620566,0.37779692 Z"/>
</svg>
