<svg
   xmlns="http://www.w3.org/2000/svg"
   viewBox="0 0 32 32">
  <path
     d="M 17.146761,0.47166447 C 16.114957,0.43474494 15.077566,0.50105398 14.043819,0.67205004 11.976325,1.0140415 10.034771,1.7449027 8.2781783,2.8641475 6.5837802,3.9367573 5.1361308,5.3030378 3.9547056,6.950801 2.7888255,8.5985767 1.9496347,10.417715 1.4832827,12.376394 c -0.4818971,2.020858 -0.55755791,4.10499 -0.2155664,6.172484 0.3419915,2.067495 1.0728527,4.009049 2.1920974,5.765641 1.0726099,1.694413 2.4388903,3.142047 4.0866536,4.323472 1.6477741,1.165881 3.4669137,2.005072 5.4255927,2.471424 1.19697,0.295356 2.394425,0.434169 3.606941,0.434169 0.854978,0 1.710565,-0.0787 2.565544,-0.218603 0.496344,-0.08211 0.982272,-0.18886 1.463422,-0.315759 l -0.956386,-0.956385 c -0.236442,0.05192 -0.469618,0.114054 -0.710458,0.154844 -1.912043,0.310902 -3.839146,0.247386 -5.7201,-0.203421 C 11.417796,29.568998 9.722654,28.791016 8.1992373,27.702861 6.6758374,26.614706 5.4019758,25.262164 4.4070913,23.692112 3.381117,22.05988 2.6962838,20.273047 2.3698374,18.345459 2.058936,16.433415 2.1224521,14.506312 2.5732592,12.625359 3.0085208,10.822131 3.7865031,9.1269893 4.8746579,7.6035726 5.9628127,6.0801727 7.3123197,4.8063111 8.88237,3.8114266 10.514604,2.7854523 12.304472,2.1006191 14.232061,1.7741727 15.024859,1.6342671 15.816565,1.573787 16.609363,1.573787 c 1.038291,0 2.050384,0.1298541 3.060436,0.3521929 l 0.92906,-0.92906063 C 20.470379,0.96277297 20.346028,0.91850528 20.216304,0.88761879 19.205875,0.64667023 18.178565,0.50858619 17.146761,0.47166681 Z M 16.676157,3.8387505 c -0.808343,-0.00389 -1.620573,0.073597 -2.428917,0.2368193 -0.987687,0.2013733 -1.933651,0.5302336 -2.835759,0.9563861 l 0.807615,0.8076149 c 0.718706,-0.3098833 1.468001,-0.5500159 2.246747,-0.7074221 1.476781,-0.2953563 2.953686,-0.2801755 4.399377,0.015187 1.4146,0.2953566 2.719658,0.8557669 3.916628,1.6486272 1.19697,0.7927985 2.20655,1.8031067 3.014893,2.9845319 0.839434,1.2280612 1.398814,2.5950552 1.69417,4.0562912 0.295356,1.476781 0.280175,2.953684 -0.01523,4.399375 -0.295356,1.414601 -0.855829,2.722695 -1.648628,3.919666 -0.792798,1.196968 -1.803106,2.206549 -2.984532,3.014893 -1.22806,0.839433 -2.595054,1.398812 -4.056291,1.694168 -1.476781,0.295356 -2.953684,0.280177 -4.399375,-0.01523 -0.75287,-0.157193 -1.473547,-0.393065 -2.164772,-0.695277 l -0.847085,0.847085 c 0.884702,0.420888 1.813091,0.745619 2.778074,0.950313 0.808342,0.170996 1.632354,0.248964 2.456242,0.248964 0.792799,0 1.587541,-0.09388 2.380339,-0.233782 1.601142,-0.326448 3.107677,-0.947036 4.460098,-1.864195 1.305785,-0.886068 2.40815,-1.991104 3.294219,-3.312434 0.870524,-1.305786 1.477024,-2.766295 1.80347,-4.305257 0.326447,-1.585597 0.341628,-3.216857 0.01523,-4.833544 C 28.236224,12.050385 27.615635,10.540814 26.698476,9.188393 25.812407,7.8826072 24.691827,6.7647598 23.386041,5.8941738 22.080256,5.02365 20.619747,4.4171494 19.080785,4.0907031 18.287987,3.9274797 17.484501,3.8425892 16.676157,3.8387029 Z M 16.31182,6.7443423 c -0.594599,0.019431 -1.187134,0.096908 -1.770072,0.2368198 -1.212518,0.2798112 -2.347549,0.8087073 -3.357979,1.5393255 -1.010429,0.7461633 -1.8492551,1.6477774 -2.4866029,2.7203874 -0.6218028,1.025974 -1.0248817,2.145827 -1.2114225,3.342797 -0.1865409,1.19697 -0.1553264,2.395518 0.1244849,3.561398 0.2798112,1.212516 0.8087057,2.34755 1.539327,3.357979 0.7461602,1.01043 1.6477755,1.849256 2.7203865,2.486603 1.025972,0.621803 2.14279,1.024882 3.33976,1.211423 0.481898,0.07773 0.966346,0.109297 1.448243,0.109297 0.699528,0 1.413629,-0.07833 2.113157,-0.233782 0.779795,-0.179953 1.522399,-0.473792 2.225495,-0.847085 l -0.841012,-0.841013 c -0.538818,0.259233 -1.097339,0.464298 -1.678989,0.601157 -1.025976,0.233176 -2.085711,0.280296 -3.12723,0.109298 -1.04152,-0.170999 -2.03434,-0.53072 -2.935954,-1.074797 -0.932704,-0.559623 -1.742627,-1.306029 -2.39552,-2.192097 C 9.3649993,19.930439 8.9155292,18.937982 8.6668081,17.880919 8.4336321,16.854943 8.3865103,15.795208 8.5575107,14.753688 c 0.1709958,-1.041519 0.527682,-2.034339 1.0717594,-2.935953 0.5596229,-0.932704 1.3060279,-1.742627 2.1920989,-2.39552 0.901611,-0.6528928 1.897104,-1.1023629 2.954169,-1.351084 0.606258,-0.1399056 1.22721,-0.2186025 1.849013,-0.2186025 0.435262,0 0.855465,0.031572 1.275182,0.1092973 0.764923,0.1255886 1.489884,0.3866743 2.186025,0.7134938 L 20.954096,7.806983 C 20.063384,7.3389318 19.114121,7.0142218 18.103154,6.8566694 17.504669,6.763399 16.906426,6.7248939 16.311828,6.7443252 Z" />
</svg>
