<svg
   xmlns="http://www.w3.org/2000/svg"
   viewBox="0 0 32 32">
  <path
     d="m 24.830493,11.552619 c 0.08141,-0.08141 0.242792,-0.08141 0.401321,-0.08141 2.409355,0 4.335983,2.039454 4.335983,4.488799 0,2.285102 -1.685264,4.080336 -3.853255,4.48737 h -0.482728 c -0.802642,0 -1.605284,-0.24422 -2.327948,-0.652683 a 1.3410696,1.3410696 0 0 0 -0.802642,-0.24422 c -0.321343,0 -0.642685,0.08141 -0.882621,0.24422 -0.562706,0.327056 -0.802642,0.898331 -0.802642,1.551014 v 0.734089 a 4.3988225,4.3988225 0 0 1 -3.854683,3.99893 h -0.481299 c -0.802643,0 -1.605285,-0.244221 -2.327949,-0.652683 -0.321342,-0.162813 -0.561278,-0.24422 -0.882621,-0.24422 -0.321342,0 -0.642685,0.08141 -0.884049,0.24422 -0.561278,0.327055 -0.802642,0.898331 -0.802642,1.551014 v 0.734089 C 11.022761,29.83344 9.3360698,31.46586 7.2494851,31.71008 H 6.8481639 c -2.409355,0 -4.3359821,-2.040882 -4.3359821,-4.488798 0.079979,-2.285103 1.6852631,-4.161743 3.8532542,-4.407392 h 0.4827279 c 0.8026423,0 1.6052846,0.245649 2.3279479,0.654111 a 1.3410696,1.3410696 0 0 0 0.802643,0.24422 c 0.3213422,0 0.6426852,-0.08141 0.8826212,-0.24422 0.562706,-0.327055 0.802642,-0.898331 0.802642,-1.551013 -0.159957,-2.36651 1.526734,-4.488799 3.854682,-4.733019 H 16 c 0.802642,0 1.605285,0.24422 2.327948,0.652682 0.321343,0.162814 0.562707,0.244221 0.884049,0.244221 0.319915,0 0.642685,-0.08141 0.882621,-0.244221 0.561279,-0.327055 0.802642,-0.898331 0.802642,-1.551013 -0.159957,-2.36651 1.605285,-4.488799 3.933233,-4.733019 z M 15.600107,5.9212695 c 0.159957,-0.081407 0.241364,-0.081407 0.4813,-0.081407 2.409355,0 4.335982,2.0394541 4.335982,4.4887985 -0.07998,2.285103 -1.685263,4.161743 -3.854682,4.405963 h -0.4813 c -0.802643,0 -1.605285,-0.24422 -2.327948,-0.652682 a 1.3410696,1.3410696 0 0 0 -0.802643,-0.24422 c -0.321342,0 -0.642685,0.08141 -0.882621,0.24422 -0.562706,0.327055 -0.80407,0.898331 -0.80407,1.551013 v 0.73409 c -0.159957,2.12086 -1.8452202,3.753281 -3.9332331,3.998929 H 6.9295707 c -2.4079268,0 -4.3359821,-2.039454 -4.3359821,-4.488798 0,-2.202268 1.6067127,-3.99893 3.7732756,-4.324557 h 0.4827279 c 0.8026423,0 1.6052846,0.24422 2.3279487,0.652683 a 1.3410696,1.3410696 0 0 0 0.802642,0.24422 c 0.3213422,0 0.6426852,-0.08141 0.8826212,-0.24422 0.562706,-0.327056 0.802642,-0.898331 0.802642,-1.551014 -0.159957,-2.3665093 1.606713,-4.4887984 3.934661,-4.7330185 z M 6.7681853,0.28991986 c 2.3936455,0 4.3345547,1.97375734 4.3345547,4.40739154 0,2.4336343 -1.9423382,4.4059635 -4.3345547,4.4059635 -2.3950731,0 -4.3359821,-1.9723292 -4.3359821,-4.4059635 0,-2.4336342 1.9423372,-4.40739154 4.3359821,-4.40739154 z" />
</svg>
