<svg
   xmlns="http://www.w3.org/2000/svg"
   version="1.1"
   viewBox="0 0 31 31">
  <path
     d="M 6.8789062,0 C 6.2481163,0 5.6432946,0.24902737 5.1972656,0.69335938 4.7512326,1.1376934 4.5,1.7407506 4.5,2.3691406 V 21.371094 c 2.226e-4,0.355 0.080001,0.70549 0.234375,1.02539 0.154373,0.3198 0.3800831,0.600466 0.6582031,0.822266 l 8.9921879,7.191406 c 0.31636,0.2523 0.709934,0.390625 1.115234,0.390625 0.4053,0 0.798834,-0.138325 1.115234,-0.390625 l 8.992188,-7.191406 c 0.2781,-0.2218 0.503903,-0.502466 0.658203,-0.822266 0.1544,-0.3199 0.234175,-0.67039 0.234375,-1.02539 V 2.3691406 C 26.5,1.7407506 26.248734,1.1376934 25.802734,0.69335938 25.356734,0.24902737 24.751894,0 24.121094,0 Z m 4.2578128,4.765625 h 8.722656 c 0.5444,0 1.068125,0.2190819 1.453125,0.6074219 0.3849,0.38833 0.599609,0.9156537 0.599609,1.4648437 v 4.1406254 c 0,0.5485 -0.215509,1.07459 -0.599609,1.46289 -0.3841,0.3882 -0.905419,0.606422 -1.449219,0.607422 0.5444,0 1.068125,0.219122 1.453125,0.607422 0.385,0.3884 0.59961,0.915644 0.59961,1.464844 v 3.732422 c -2e-4,0.3102 -0.06787,0.616884 -0.201172,0.896484 -0.1332,0.2796 -0.32836,0.52485 -0.56836,0.71875 l -3.175781,2.574219 c -0.0377,0.0305 -0.08276,0.04919 -0.130859,0.05469 -0.048,0.0056 -0.09713,-0.0023 -0.140625,-0.02344 -0.0436,-0.0211 -0.07977,-0.0545 -0.105469,-0.0957 -0.0258,-0.0413 -0.04092,-0.08987 -0.04102,-0.138672 v -7.201172 c 0,-0.4119 -0.160518,-0.80841 -0.449218,-1.09961 -0.2887,-0.291299 -0.681544,-0.455078 -1.089844,-0.455078 h -2.30859 c -0.06806,0 -0.133521,0.02767 -0.18164,0.07617 -0.04812,0.0485 -0.07617,0.114994 -0.07617,0.183594 v 8.496094 c 1.6e-4,0.049 -0.01324,0.09717 -0.03906,0.138672 -0.02581,0.0415 -0.06167,0.0745 -0.105469,0.0957 -0.0438,0.0211 -0.0924,0.02924 -0.140625,0.02344 -0.04822,-0.0057 -0.09511,-0.02379 -0.132813,-0.05469 L 9.8535156,20.46875 C 9.6134756,20.27485 9.4203394,20.0296 9.2871094,19.75 9.1538694,19.4704 9.0841744,19.163716 9.0839844,18.853516 V 6.8378906 c 0,-0.54919 0.2166025,-1.0765137 0.6015625,-1.4648437 C 10.070507,4.9847069 10.592309,4.765625 11.136719,4.765625 Z m 2.564453,2.0722656 c -0.06805,0 -0.131568,0.027622 -0.179688,0.076172 -0.04812,0.04854 -0.07617,0.1130006 -0.07617,0.1816406 v 4.6601558 c 0,0.0687 0.02805,0.133041 0.07617,0.181641 0.04812,0.0485 0.111638,0.07617 0.179688,0.07617 h 2.310547 c 0.4083,0 0.79919,-0.163878 1.08789,-0.455078 0.2888,-0.2913 0.451172,-0.685757 0.451172,-1.097656 V 7.0957031 c 0,-0.06864 -0.02612,-0.1331006 -0.07422,-0.1816406 -0.0481,-0.04855 -0.11364,-0.076172 -0.18164,-0.076172 z" />
</svg>
