<svg viewBox="48 101 195 188" xmlns="http://www.w3.org/2000/svg">
<path d="M242.04 103.5C242.413 114.14 240.253 124.577 235.56 134.81C230.32 146.257 224.04 156.387 216.72 165.2C209.993 173.3 202.357 180.967 193.81 188.2C193.003 188.88 192.493 189.72 192.28 190.72L187.85 211.26C187.778 211.598 187.613 211.893 187.38 212.1L168.25 229.04C167.283 228.567 166.617 227.553 166.25 226C165.97 224.82 164.983 221.903 163.29 217.25L160.04 207.25C160.053 206.35 159.707 205.933 159 206C154.067 206.473 149.557 206.103 145.47 204.89C145.321 204.848 145.165 204.845 145.017 204.882C144.87 204.919 144.736 204.994 144.63 205.1L136.47 213.18C136.313 213.335 136.101 213.422 135.88 213.422C135.659 213.422 135.447 213.335 135.29 213.18L129.29 207.25C128.663 206.863 128.313 206.397 128.24 205.85C128.187 205.443 128.39 204.98 128.85 204.46C131.143 201.893 133.377 199.357 135.55 196.85C135.665 196.718 135.736 196.554 135.756 196.379C135.776 196.204 135.742 196.027 135.66 195.87C133.793 192.237 132.893 188.613 132.96 185C133.333 184.12 133.097 183.537 132.25 183.25C127.85 181.75 120.683 179.43 110.75 176.29C109.763 175.737 109.617 175.077 110.31 174.31C115.41 168.677 120.447 162.99 125.42 157.25C126.187 156.363 127.06 155.753 128.04 155.42C129.087 155.06 130.157 154.767 131.25 154.54L149.45 150.13C149.768 150.052 150.059 149.87 150.28 149.61C165.08 131.39 183.153 117.423 204.5 107.71C211.4 104.73 218.563 102.643 225.99 101.45C230.31 100.757 235.083 100.67 240.31 101.19C241.737 101.33 242.313 102.1 242.04 103.5ZM175.29 160C179.95 166.893 186.25 168.707 194.19 165.44C195.283 164.987 196.303 164.187 197.25 163.04C202.23 157.373 202.647 151.347 198.5 144.96C195.047 140.887 191.047 139.073 186.5 139.52C182.233 139.94 178.803 141.85 176.21 145.25C173.13 149.277 172.823 154.193 175.29 160Z"/>
<path d="M70.25 272.21L61.21 280.5C59.1767 279.313 57.51 277.73 56.21 275.75C77.47 255.977 98.7067 236.18 119.92 216.36C121.153 215.207 122.243 214.773 123.19 215.06C124.33 215.393 125.32 216.397 126.16 218.07C126.328 218.399 126.383 218.774 126.318 219.138C126.253 219.503 126.071 219.837 125.8 220.09L70.25 272.21Z"/>
<path d="M52 270.79C50.28 269.257 48.85 267.493 47.71 265.5L51.5 262.04L53.29 260.25L59 254.79L98.99 217.63C99.99 216.703 100.87 216.677 101.63 217.55L104.17 220.49C104.363 220.711 104.45 221.011 104.41 221.327C104.371 221.642 104.21 221.948 103.96 222.18L52 270.79Z" />
<path d="M82.25 278.21L81 279.46L78.5 281.71L76.75 283.46L74.25 285.71L70.5 289.04C68.52 287.913 66.77 286.497 65.25 284.79L73.5 277.04L118.44 235.17C118.68 234.948 118.985 234.811 119.31 234.778C119.635 234.746 119.961 234.82 120.24 234.99C121.907 236.003 122.94 237.323 123.34 238.95C123.376 239.093 123.371 239.245 123.326 239.391C123.28 239.537 123.195 239.671 123.08 239.78L82.25 278.21Z"/>
</svg>
