<svg viewBox="5 5 25 26" xmlns="http://www.w3.org/2000/svg"><path d="M28.0948 17.998H25.4855C24.7062 17.998 24.0748 18.649 24.0748 19.4523V23.3561C24.0748 24.1594 23.4433 24.8103 22.664 24.8103H12.2833C11.504 24.8103 10.8726 25.4612 10.8726 26.2645V28.9542C10.8726 29.7575 11.504 30.4084 12.2833 30.4084H23.2648C24.0442 30.4084 24.6666 29.7575 24.6666 28.9542V26.7963C24.6666 25.993 25.2981 25.4231 26.0774 25.4231H28.0943C28.8736 25.4231 29.5051 24.7722 29.5051 23.9689V19.4354C29.5051 18.6321 28.8736 17.998 28.0943 17.998H28.0948Z"></path><path d="M10.8722 12.6547C10.8722 11.8514 11.5037 11.2005 12.283 11.2005H22.6574C23.4367 11.2005 24.0681 10.5496 24.0681 9.74628V7.05663C24.0681 6.25333 23.4367 5.60242 22.6574 5.60242H11.6816C10.9023 5.60242 10.2709 6.25333 10.2709 7.05663V9.12911C10.2709 9.93241 9.6394 10.5833 8.8601 10.5833H6.85218C6.07287 10.5833 5.44141 11.2342 5.44141 12.0375V16.576C5.44141 17.3793 6.07551 17.9975 6.85482 17.9975H9.46411C10.2434 17.9975 10.8749 17.3466 10.8749 16.5433L10.8722 12.6553V12.6547Z"></path><path d="M16.2455 15.1708H18.7519C19.5686 15.1708 20.2313 15.8543 20.2313 16.6957V19.2793C20.2313 20.1212 19.5681 20.8042 18.7519 20.8042H16.2455C15.4287 20.8042 14.7661 20.1207 14.7661 19.2793V16.6957C14.7661 15.8538 15.4293 15.1708 16.2455 15.1708Z"></path></svg>