<svg
   xmlns="http://www.w3.org/2000/svg"
   version="1.1"
   viewBox="0 0 40 40">
  <path
     d="m 18.420366,9.575389 c -1.570113,0 -2.843049,1.272937 -2.843049,2.843188 0,1.570252 1.272936,2.843049 2.843049,2.843049 v 9.477109 c -6.804192,0 -12.3201579,-5.515966 -12.3201579,-12.320158 0,-6.8042892 5.5159659,-12.32024108 12.3201579,-12.32024108 6.804331,0 12.320297,5.51595188 12.320297,12.32024108 h -9.477109 c 0,-1.570251 -1.272936,-2.843188 -2.843188,-2.843188 z m 6.002317,18.006117 c 0,1.570252 -1.272936,2.843188 -2.843188,2.843188 -1.570113,0 -2.843049,-1.272936 -2.843049,-2.843188 H 9.259337 c 0,6.804331 5.515966,12.320158 12.320158,12.320158 6.804331,0 12.320297,-5.515827 12.320297,-12.320158 0,-6.804192 -5.515966,-12.320158 -12.320297,-12.320158 v 9.47697 c 1.570252,0 2.843188,1.272937 2.843188,2.843188 z" />
</svg>
