<svg viewBox="0 0 173 200" xmlns="http://www.w3.org/2000/svg">
<path d="M86.7485 149.673L43.7492 124.842L0.75 149.665L43.7492 174.496L86.7485 149.673Z"/>
<path fill-rule="evenodd" clip-rule="evenodd" d="M129.749 124.85L86.75 149.672L86.75 199.326L172.748 149.672L129.749 124.85Z"/>
<path fill-rule="evenodd" clip-rule="evenodd" d="M129.749 124.851L86.75 100.02L129.749 75.1978L172.741 100.024L172.748 100.02L172.748 149.674L129.749 124.851Z" />
<path d="M0.75 50.3574L0.750017 100.011L43.7494 124.842L86.7486 100.02L43.7492 75.1885L0.75 50.3574Z"/>
<path d="M86.7486 50.3657L86.7486 0.711914L0.75 50.3573L43.7492 75.1884L86.7486 50.3657Z" />
<path fill-rule="evenodd" clip-rule="evenodd" d="M172.748 50.3744L129.749 75.1971L86.75 50.366L129.749 25.5435L172.748 50.3744Z"/>
</svg>
