<svg
   xmlns="http://www.w3.org/2000/svg"
   viewBox="0 0 649 649">
  <path
     d="m 66.825197,-0.03515625 c -1.429492,-0.02285156 -2.175781,0.03125 -2.175782,0.03125 -28.199999,21.90000025 -18.6,95.70155825 -4,158.10156625 9.6,41.3 21.400782,77.59922 25.800782,90.69922 -0.3,0.69999 -0.69961,1.49921 -1.09961,2.19921 -23.3,47.2 -35.90039,92.70157 -38.90039,141.10157 26.1,-3.8 98.000383,-8.10157 151.900383,49.89843 0,0 35.59961,-94 131.59961,-94 96,0 116.5,94 116.5,94 63.6,-52.5 132.09961,-50.79882 156.09961,-48.29882 -0.1,-2 -0.3,-5 -0.5,-8 -0.2,-4.5 -0.60039,-10.80041 -0.90039,-13.90039 -4.3,-45.4 -15.90039,-82.50079 -37.90039,-121.80079 -0.9,-1.5 -1.69922,-2.99923 -2.19922,-4.19921 -0.2,-0.30001 -0.30039,-0.60079 -0.40039,-0.80079 3.1,-9.3 15.80039,-48.19923 25.90039,-92.69921 13.7,-60.40001 22.40078,-130.999224 -4.19922,-152.19922375 0,0 -46.00156,-3.39999975 -107.60156,56.99999975 -16.7,16.7 -31.99961,34.799606 -45.59961,54.099614 l -4.29883,-1.40039 c -24.8,-8.1 -50.50039,-13.100786 -76.40039,-14.800786 -7.8,-0.6 -36.90039,-0.6 -46.40039,0 -28.7,1.9 -50.69922,6.200386 -75.69922,14.900386 -1,0.4 -1.90078,0.7 -2.80078,1 C 209.4498,91.696488 193.75019,73.697266 176.45019,57.197266 120.36269,4.0847652 76.831642,0.12480469 66.825197,-0.03515625 Z M 560.45019,41.197266 c 4.5,6.1 7.4,13.90039 9,22.90039 9.3,53.400004 -26.80078,147.000004 -26.80078,147.000004 -15.1,-26.9 -35.39961,-50.70039 -59.59961,-69.90039 l -0.19922,-0.0996 c -16.8,-13.4 -29.40039,-19.70118 -29.40039,-19.70118 66.1,-75.999992 107,-80.199214 107,-80.199214 z m -473.599603,0.09961 c 0,0 42.398823,4.199223 110.798823,80.199214 0,0 -13.00039,6.30118 -30.40039,19.70118 0,0 -0.0992,0.0996 -0.19922,0.0996 -18.9,14.5 -43.09922,37.50078 -61.69922,69.80078 0,0 -37.400774,-93.50039 -27.800774,-146.900393 1.6,-9 4.600781,-16.900391 9.300781,-22.900391 z M 210.15723,212.84375 c 1.36132,-0.0352 2.51757,0.0273 3.39257,0.15234 7,1 35,11 30,32 -5,21 -12,17 -16,18 -4,1 -22,0 -22,0 0,0 -32,2 -28,-23 3.5,-21.875 23.07812,-26.90625 32.60743,-27.15234 z m 236,0 c 1.36131,-0.0352 2.51757,0.0273 3.39257,0.15234 7,1 35,11 30,32 -5,21 -12,17 -16,18 -4,1 -22,0 -22,0 0,0 -32,2 -28,-23 3.5,-21.875 23.07812,-26.90625 32.60743,-27.15234 z m 46.11718,70.21484 c 1.375,-0.0125 2.52617,0.0879 3.07617,0.33789 1.8,0.7 3.79961,6.0004 4.59961,12.4004 0.4,3.39999 0.19922,18.3996 -0.30078,21.0996 -0.3,1.6 -4.99922,6.4004 -9.69922,9.9004 -13.8,10.1 -38.49961,19.49999 -63.59961,24 -14.3,2.6 -28.60039,3.00039 -32.90039,0.90039 -2.8,-1.4 -3.20117,-2.49961 -2.20117,-6.09961 2.1,-7.5 8.9,-15.70039 19.5,-23.40039 5.4,-3.9 27.3,-17.20079 37.5,-22.80079 16.8,-9.2 30.40156,-14.7 39.60156,-16 1.45,-0.2 3.04883,-0.32539 4.42383,-0.33789 z m -330.92383,1.03907 c 4.4,0 8.09961,0.69961 14.09961,2.59961 12.3,3.8 30.60039,13.00039 52.90039,26.40039 18.4,11 25.29961,16.39882 30.59961,23.79882 3.6,4.6 5.99961,11.09961 5.09961,13.09961 -0.6,1.2 -3.6,2.5 -7,3 -3.4,0.5 -13.79922,0.2 -19.69922,-0.5 -21.2,-2.8 -43.70156,-9.29882 -60.10156,-17.29882 -9.2,-4.5 -15.79922,-9.0004 -20.69922,-13.90039 l -2.80078,-2.9004 -0.29883,-3.79882 c -0.5,-6.6 -0.39961,-17.00118 0.40039,-20.70118 0.5,-3.1 1.59961,-6.09882 3.09961,-8.79882 0.8,-1 0.80039,-1 4.40039,-1 z m 170.39844,111.19922 c -23.6,0 -28.09883,0 -29.79883,0.5 -5,1.3 -8.90078,5.19921 -10.30078,10.19921 -0.7,2.2 -0.69961,3.1 -0.59961,13 0.2,10 0.2,10.8 1,13 3.9,10.8 14.3,19.7 32,27.5 l 5.5,2.40039 0.0996,10.4004 0.0996,10.40039 h -4.19922 l -3.30078,5 -3.19922,5 -12.5,-0.30079 c -6.8,-0.2 -14.40078,-0.4 -16.80078,-0.5 l -4.29883,-0.19921 -0.40039,-1.30079 -0.40039,-1.29882 -12.5,-0.10157 -12.5,-0.0996 v 1.20118 c 0,0.6 0.20117,1.29922 0.70117,1.69922 0.3,0.2 1.79883,1.50078 3.29883,2.80078 l 2.59961,2.29882 0.30078,3.20118 c 0.2,1.7 0.69961,4.79882 1.09961,6.79882 l 0.80078,3.70118 3.09961,-0.30078 3.09961,-0.19922 0.70117,2.89843 c 1.3,5.3 3.09961,10.40118 5.59961,15.20118 2.3,4.6 3.29961,6.20039 3.59961,5.90039 0,-0.1 0.90078,-1.30118 1.80078,-2.70118 l 1.69922,-2.5996 -0.30078,-14.19922 c -0.2,-7.9 -0.29922,-14.30039 -0.19922,-14.40039 0.1,-0.1 3.09961,0.29882 6.59961,0.79882 21.8,3.1 43.80117,3.60039 65.70117,1.40039 5.3,-0.5 17.39961,-2.1 19.09961,-2.5 l 0.79883,-0.19921 v 27.69921 l 2.10156,3.4004 2.09961,3.40039 0.59961,-1.40039 c 0.3,-0.8 2.50039,-6.10079 4.90039,-11.80079 l 4.40039,-10.39843 h 3.19922 c 1.1,0.1 2.09922,-0.002 3.19922,-0.10157 0,-0.2 1.20117,-4.8 2.70117,-10.5 1.5,-5.7 2.69922,-10.49882 2.69922,-10.79882 0,-0.3 -2.59922,-0.49961 -11.19922,-0.0996 h -11.5 l -1.20117,1.79882 c -1,1.7 -1.19922,1.79961 -2.19922,1.59961 -0.6,-0.1 -7.1,-0.19921 -14.5,-0.19921 h -13.40039 l -2.90039,-4.5 -3,-4.5 -2.19922,-0.19922 -2.19922,-0.20118 -0.10156,-10.5 -0.0996,-10.5 2.40039,-0.90039 c 8.3,-2.9 17.40039,-9.29922 22.40039,-15.69921 2.5,-3.5 4.49883,-7.4 5.79883,-11.5 0.9,-3.00001 1.5,-10.49922 1.5,-19.19922 0,-6.1 -0.69961,-8.60079 -3.09961,-11.80078 -2.1,-2.8 -3.8,-4.1004 -7.5,-5.9004 l -3.09961,-1.5 z m -28,114.0996 v 5.70118 l 3,1.5 c 1.7,0.8 3.50078,1.49961 5.30078,2.09961 l 2.30078,0.69921 1.29883,-2.69921 1.30078,-2.70118 2.79883,0.30079 c 1.5,0.1 2.80078,0.30078 2.80078,0.30078 0,0 1.39922,2.19882 3.19922,4.79882 3.4,5.1 4.00078,5.60079 6.80078,5.30079 1.8,-0.1 1.99961,-0.4 8.09961,-7 l 2.80078,-3 2.69922,2.19921 c 1.5,1.1 2.90117,2.30039 3.20117,2.4004 0.3,0.2 1.6,-0.3004 3.5,-1.4004 4.4,-2.5 4.29922,-2.3996 4.19922,-5.5996 l -0.0996,-2.69922 -26.59961,-0.10157 z" />
</svg>
