<svg
   xmlns="http://www.w3.org/2000/svg"
   viewBox="0 0 32 32">
  <path
     d="M 0.44670886,2.3435582 V 29.656442 H 25.732463 V 26.595005 H 3.4725828 V 5.4049958 H 25.732463 V 2.3435582 Z M 25.193082,7.5625237 A 7.162045,7.162045 0 0 0 23.082973,7.9181602 5.0164663,5.0164663 0 0 0 21.33739,8.8902333 c -0.488597,0.4233498 -0.863603,0.9143903 -1.129146,1.4788547 -0.265543,0.564466 -0.406019,1.186215 -0.406019,1.849309 v 0.142256 c 0,0.804213 0.138674,1.478926 0.417873,2.04491 a 3.7388303,3.7388303 0 0 0 1.161747,1.395874 6.4549448,6.4549448 0 0 0 1.754472,0.88909 15.707943,15.707943 0 0 0 2.234583,0.551237 8.7416401,8.7416401 0 0 1 1.520346,0.394163 c 0.405141,0.154774 0.728274,0.327305 0.951329,0.524564 a 1.6281513,1.6281513 0 0 1 0.488999,0.646073 2.06364,2.06364 0 0 1 0.139295,0.761654 c 0,0.550812 -0.225117,1.032153 -0.672744,1.440329 -0.44611,0.409694 -1.129788,0.604583 -2.050839,0.604583 -1.185074,0 -2.052567,-0.296151 -2.610963,-0.874274 -0.55688,-0.593296 -0.835746,-1.368631 -0.835746,-2.341273 h -3.028843 v 0.142254 a 6.4792229,6.4792229 0 0 0 0.420837,2.356092 5.2273824,5.2273824 0 0 0 1.212127,1.875983 5.3867075,5.3867075 0 0 0 2.009347,1.253617 c 0.810283,0.297409 1.732613,0.453438 2.791746,0.453438 a 8.1695869,8.1695869 0 0 0 2.442037,-0.352673 c 0.725309,-0.239746 1.341129,-0.564703 1.843383,-1.00171 0.502253,-0.437007 0.891795,-0.960811 1.155819,-1.567764 a 5.1591002,5.1591002 0 0 0 0.406018,-2.056764 v -0.284509 c 0,-1.424822 -0.445826,-2.49747 -1.339563,-3.230366 C 29.321264,15.265942 28.037747,14.746262 26.3489,14.435199 A 14.020613,14.020613 0 0 1 24.689263,14.038072 C 24.241637,13.896955 23.89086,13.743012 23.625318,13.560926 23.361294,13.377323 23.18044,13.17947 23.068154,12.953382 22.957384,12.727291 22.90219,12.473959 22.90219,12.191726 a 1.5022086,1.5022086 0 0 1 0.669782,-1.283256 c 0.44611,-0.324719 1.045951,-0.483072 1.813747,-0.483072 0.907394,0 1.604893,0.243633 2.107147,0.723127 0.502253,0.477975 0.752762,1.044315 0.752762,1.692237 l 3.014021,0.02668 c 0,0 -0.01365,-1.467925 -0.376382,-2.187164 C 30.590412,10.088495 30.254856,9.5398189 29.75412,9.0739823 29.251867,8.6081459 28.637849,8.2415326 27.898883,7.9744733 27.158401,7.7058952 26.319264,7.5625268 25.3709,7.5625268 a 7.162045,7.162045 0 0 0 -0.177818,0 z" />
</svg>
