<svg
   xmlns="http://www.w3.org/2000/svg"
   viewBox="0 0 192 192">
<path
   d="m 47.558608,59.863775 c -1.175271,-1.458956 -2.95844,-2.269488 -4.863189,-2.269488 H 3.4251678 c -0.3242126,0 -0.6078986,-0.121573 -0.8510581,-0.324212 C 2.3714768,57.067442 2.2498971,56.824282 2.2498971,56.540596 V 30.076743 c 0,-0.283686 0.1215736,-0.526846 0.3242126,-0.729478 0.2431595,-0.24316 0.5268455,-0.36474 0.8510581,-0.324213 H 44.92438 c 10.455857,0 19.493283,4.295817 27.112279,12.846924 L 82.127776,54.190055 62.472387,78.141261 Z M 120.10117,41.748396 c 7.57848,-8.470054 16.65643,-12.725344 27.23387,-12.725344 h 41.37763 c 0.28368,-0.04053 0.56737,0.08106 0.77,0.243159 0.20264,0.202633 0.2837,0.486319 0.24317,0.810532 v 26.463853 c 0,0.283686 -0.081,0.526846 -0.24317,0.729479 -0.20263,0.243159 -0.48632,0.364739 -0.77,0.324212 h -39.27025 c -1.86422,-0.04053 -3.64739,0.810532 -4.86319,2.269488 l -28.93598,35.217594 29.05756,35.460751 c 1.17527,1.33737 2.91792,2.1479 4.70108,2.10739 h 39.27025 c 0.28369,-0.0406 0.6079,0.12162 0.77,0.32421 0.16211,0.24316 0.2837,0.56737 0.24317,0.85106 v 26.46384 c 0,0.2837 -0.081,0.52686 -0.24317,0.72949 -0.20263,0.24315 -0.48631,0.36474 -0.77,0.32421 h -41.3371 c -10.57744,0 -19.57433,-4.29582 -27.11228,-12.84693 L 96.149971,119.11362 72.077186,148.49539 c -7.57847,8.55111 -16.656423,12.84693 -27.233859,12.84693 H 3.4251678 c -0.283686,0.0406 -0.6078986,-0.12162 -0.7700049,-0.32421 -0.2026329,-0.24316 -0.2836861,-0.56738 -0.2431595,-0.85106 v -26.46386 c 0,-0.28368 0.081059,-0.52684 0.2431595,-0.72947 0.2026328,-0.24317 0.4863189,-0.36474 0.7700049,-0.32421 H 42.695419 c 1.864222,0 3.647392,-0.85106 4.863189,-2.26949 L 75.967737,95.689268 Z" />
</svg>