<svg
   xmlns="http://www.w3.org/2000/svg"
   viewBox="0 0 398 398">
<path
   d="m 73.950434,43.150389 c -3.4,0 -6.701172,1.400781 -9.201172,3.800781 L 2.0500433,109.65039 c -4.1,4.1 -1.20039053,11.09961 4.5996094,11.09961 H 324.05005 c 3.5,0 6.79922,-1.39883 9.19922,-3.79883 l 62.70117,-62.701172 c 4.1,-4.1 1.19844,-11.099609 -4.60156,-11.099609 z M 6.6496527,159.45117 c -5.79999993,0 -8.6996094,6.99961 -4.5996094,11.09961 L 64.749262,233.25 c 2.4,2.4 5.701172,3.80078 9.201172,3.80078 H 391.34888 c 5.8,0 8.70156,-6.99961 4.60156,-11.09961 L 333.24927,163.25 c -2.4,-2.4 -5.69922,-3.79883 -9.19922,-3.79883 z M 73.950434,277.25 c -3.5,0 -6.801172,1.40078 -9.201172,3.80078 L 2.0500433,343.75 c -4.1,4.1 -1.20039053,11.09961 4.5996094,11.09961 H 324.05005 c 3.5,0 6.79922,-1.39883 9.19922,-3.79883 l 62.70117,-62.70117 c 4.1,-4.1 1.19844,-11.09961 -4.60156,-11.09961 z" />
</svg>