<svg xmlns="http://www.w3.org/2000/svg" viewBox="0 0 42 42">
  <path d="M30.9824 41.0004L40.9724 30.9971H30.9824V41.0004Z"/>
  <path d="M40.9724 21.0039L30.9824 31.0072H40.9724V21.0039Z"/>
  <path d="M30.9824 30.9984L40.9724 20.9951H30.9824V30.9984Z"/>
  <path d="M40.9724 11.002L30.9824 21.0053H40.9724V11.002Z" />
  <path d="M30.9824 21.0053L40.9724 11.002H30.9824V21.0053Z"/>
  <path d="M1 11.0033L10.99 1V11.0033H1Z"/>
  <path d="M20.9802 1.01562L10.9902 11.0189V1.01562H20.9802Z" />
  <path d="M10.9902 11.0033L20.9802 1V11.0033H10.9902Z"/>
  <path d="M30.9831 1.01562L20.9932 11.0189V1.01562H30.9831Z"/>
  <path d="M20.9805 11.0033L30.9704 1V11.0033H20.9805Z"/>
  <path d="M40.9724 1.01562L30.9824 11.0189V1.01562H40.9724Z"/>
  <path d="M30.9824 11.0033L40.9724 1V11.0033H30.9824Z"/>
  <path d="M10.99 30.9824L1 40.9857V30.9824H10.99Z"/>
  <path d="M1 40.9701L10.99 30.9668V40.9701H1Z"/>
  <path d="M20.9802 30.9824L10.9902 40.9857V30.9824H20.9802Z"/>
  <path d="M10.9902 40.9701L20.9802 30.9668V40.9701H10.9902Z"/>
  <path d="M30.9831 30.9824L20.9932 40.9857V30.9824H30.9831Z"/>
  <path d="M10.99 20.9951L1 30.9984H10.99V20.9951Z"/>
  <path d="M1 30.9984L10.99 20.9951H1V30.9984Z"/>
  <path d="M10.99 10.9873L1 20.9906H10.99V10.9873Z"/>
</svg>