<svg viewBox="0 0 33.3 34" xmlns="http://www.w3.org/2000/svg">
<path d="M19.968 1.66351L20.8548 3.74064C22.5954 7.81901 25.8439 11.0675 29.9222 12.8081L31.9994 13.6949C32.543 13.9267 32.9843 14.2591 33.325 14.6551C32.2906 7.23828 26.4246 1.37151 19.0078 0.337891C19.403 0.677731 19.7362 1.11987 19.968 1.66351H19.968Z" />
<path d="M1.32562 13.6949L3.40277 12.8081C7.48114 11.0675 10.7296 7.81901 12.471 3.74064L13.357 1.66351C13.5896 1.11987 13.9221 0.677731 14.3172 0.337891C6.90039 1.37151 1.03442 7.23828 0 14.6551C0.34067 14.2591 0.78201 13.9267 1.32562 13.6949Z"/>
<path d="M31.9994 20.304L29.9222 21.1908C25.8439 22.9313 22.5954 26.1806 20.8548 30.259L19.968 32.3353C19.7362 32.8789 19.403 33.3211 19.0078 33.6618C26.4246 32.6274 32.2906 26.7606 33.325 19.3438C32.9843 19.7397 32.543 20.0721 31.9994 20.304H31.9994Z"/>
<path d="M13.357 32.3353L12.471 30.259C10.7296 26.1806 7.48114 22.9313 3.40277 21.1908L1.32562 20.304C0.78201 20.0721 0.34067 19.7397 0 19.3438C1.03442 26.7606 6.90039 32.6274 14.3172 33.6618C13.9221 33.3211 13.5896 32.8789 13.357 32.3353Z"/>
<path d="M9.10261 15.3712L10.1263 14.934C12.1358 14.076 13.737 12.4757 14.5949 10.4662L15.0313 9.44246C15.6434 8.00876 17.6759 8.00876 18.288 9.44246L18.7244 10.4662C19.5823 12.4757 21.1835 14.076 23.193 14.934L24.2167 15.3712C25.6504 15.9832 25.6504 18.015 24.2167 18.6271L23.193 19.0643C21.1835 19.9222 19.5823 21.5225 18.7244 23.5329L18.288 24.5557C17.6759 25.9894 15.6434 25.9894 15.0313 24.5557L14.5949 23.5329C13.737 21.5225 12.1358 19.9222 10.1263 19.0643L9.10261 18.6271C7.66892 18.015 7.66892 15.9832 9.10261 15.3712Z"/>
</svg>
