<svg
   xmlns="http://www.w3.org/2000/svg"
   viewBox="0 0 2000 2000">
  <path
     d="m 1000.5051,0 c -93.50001,0 -172.00001,77.619375 -172.00001,171.10938 0,7.94 0.87936,15.00124 1.75936,22.93124 L 383.95509,452.47969 a 170.51,170.51 0 1 0 -207.25,270.79062 c 6.17,4.41 12.35,8.81969 19.4,13.22969 a 108.24,108.24 0 0 0 22.92969,10.57969 V 1256.9 c -87.33,35.28 -129.679999,134.1006 -94.4,221.3906 35.28,87.29 134.07,129.6597 221.4,94.3797 7.94,-2.65 15,-7.0597 22.05,-10.5797 7.06,-4.41 14.11031,-8.8209 21.17031,-14.1109 l 441.9,254.9109 c -15,92.61 48.50968,179.9297 141.12968,194.9297 92.62003,15 179.93973,-48.5097 194.92973,-141.1297 1.76,-9.7 1.7609,-18.5212 1.7609,-28.2312 a 216.83,216.83 0 0 0 -1.7609,-24.7 l 439.2609,-253.1391 c 7.06,5.29 14.11,10.58 22.05,15 82,45.87 186.11,16.7597 232,-65.2703 44.07,-82.04 17.6091,-182.5903 -60.0109,-230.2203 a 143.5,143.5 0 0 0 -20.2891,-9.7 V 749.72969 c 7.94,-2.65 15.8803,-7.05969 23.8203,-10.57969 82,-45.87 112,-149.95 66.15,-232 -45.85,-82.05 -149.95,-112 -232,-66.15 -7.06,3.53 -13.23,7.94 -19.4,12.35 l -449.8406,-260.2 c 0.88,-7.94 1.7594,-14.99969 1.7594,-22.92969 C 1170.7045,75.850313 1094.0051,0 1000.5051,0 Z m 2.5562,48.485938 c 11.9812,-0.03863 24.18,1.676562 36.2532,5.314062 64.39,19.4 100.55,87.31938 81.15,151.70938 a 120.78,120.78 0 0 1 -81.15,81.15 v 389 c 0,0 190.52,47.63031 250.5,119.07031 l 308.7109,-175.52031 c -15.88,-70.56 27.3394,-141.13 97.9094,-157 70.57,-15.87 141.13,27.34093 157,97.91093 15.87,70.57 -27.3394,141.13 -97.9094,157 a 131.4,131.4 0 0 1 -119.0797,-32.64062 l -305.1812,172.86095 c 8.82,18.52 16.76,37 22.05,56.45 94.38,64.39 127.9003,187.86876 77.6203,291.06876 l 202,117.3109 a 129,129 0 0 1 153.4703,-16.7609 c 60.86,36.16 82,115.5503 45,178.1703 h -0.02 c -36.16,61.74 -116.4303,82.91 -178.1703,46.75 -49.39,-29.11 -74.0894,-86.44 -60.8594,-142 l -206.4,-120.8391 a 230.18,230.18 0 0 1 -249.6203,52 c -30.87,9.7 -97,15.8797 -97,15.8797 v 363.4 c 72.33,22.05 112,98.7894 90,171.1094 -22,72.32 -98.7903,112 -171.12033,90 -0.88,0 -1.76,-0.8797 -2.65,-0.8797 -6.17,-1.76 -11.46936,-4.4094 -16.75936,-7.0594 -67.92,-33.52 -94.37936,-116.4309 -60.85936,-183.4609 16.76,-33.52 46.75,-58.2097 82,-69.6797 v -370.4594 a 610.19,610.19 0 0 1 -75.86096,-29.1109 273.82,273.82 0 0 1 -225.79999,-55.5703 l -246.08907,142 a 131,131 0 1 1 -157.89094,-97 c 42.34,-10.58 87.32,1.76 120,31.75 l 230.20938,-133.1891 c -77.62,-109.37 -65.27,-259.31966 30,-354.57966 l -262,-149.95002 c -52,49.39 -134.06938,46.74969 -183.45938,-6.17031 a 130,130 0 0 1 6.17032,-184.35 c 52.91999,-49.39 134.06937,-46.74969 183.45937,6.17031 30,31.75 41.46,75.84907 31.75,118.18907 l 290.19062,166.7 a 274.14,274.14 0 0 1 123.48905,-32.63907 c 40.59,-33.5 144.59064,-67.9 144.59064,-67.9 V 285.77969 c -64.39,-19.4 -100.55,-87.31938 -81.15,-151.70938 15.76248,-52.31687 63.58824,-85.416953 115.50621,-85.584372 z m -1.5124,67.078122 a 54.69,54.69 0 0 0 1.5968,109.35625 55,55 0 0 0 54.6891,-54.69062 54.69,54.69 0 0 0 -56.2859,-54.66563 z m -719.35319,416.9625 c -18.30471,0.4269 -35.74406,10.19969 -45.58124,27.56406 -14.99,26.46 -6.16938,59.09907 20.29062,74.08907 26.46,14.99 59.10062,6.17093 74.09062,-20.28907 15,-25.58 6.16938,-59.10062 -20.29062,-74.09062 -9.09562,-5.15625 -18.92119,-7.49705 -28.50938,-7.27344 z m 1444.78279,2.91094 a 54.69,54.69 0 0 0 -56.964,54.64219 53.88,53.88 0 0 0 7.0609,26.46093 54.55,54.55 0 0 0 47.6297,28.22969 54.69,54.69 0 0 0 2.2734,-109.33281 z m -683.7734,240.55 A 218,218 0 0 0 953.76445,791.2 l -4.40936,3.52969 c -5.29,1.76 -14.11,6.17031 -19.4,8.82031 a 41.2,41.2 0 0 1 -8.82032,4.40936 c -2.65,0.88 -7.06,4.41032 -9.7,6.17032 -2.64,1.76 -8.82,6.17032 -12.35,8.82032 l -2.65,1.75936 c -5.29,3.53 -9.7,7.94 -15,12.35 l -4.40936,4.41096 c -5.29,5.29 -9.70096,9.7 -14.11096,15 a 192.84,192.84 0 0 0 -31.75,-2.65 c -3.53,0 -6.16872,-3.2e-4 -8.81872,0.87968 -40.57002,1.76 -79.38033,18.52032 -109.37033,45.87032 -15,13.23 -27.34,29.99968 -37,47.62968 l -0.94062,1.8 a 125,125 0 0 0 -7.05938,15.87968 c -0.88,1.76 -0.88093,2.65096 -1.76093,4.41096 A 86.7,86.7 0 0 0 661.80509,984.4 c -0.88,1.76 -0.87938,4.41032 -1.75938,6.17032 -0.88,4.41 -1.76,8.81936 -2.65,14.10938 0,1.76 -0.88124,3.5303 -0.88124,6.1703 a 156.14,156.14 0 0 0 -0.87969,20.2906 106.75,106.75 0 0 0 0.87969,16.7594 c 0,1.76 0.88124,3.5303 0.88124,6.1703 0.88,3.53 0.87938,7.0597 1.75938,10.5797 0.88,3.52 0.87938,4.4094 1.75938,7.0594 a 25.75,25.75 0 0 1 1.76093,7.9406 c 0,2.65 1.76,5.2906 2.65,7.9406 a 43,43 0 0 0 2.65,6.1688 91.51,91.51 0 0 1 3.52969,8.8203 c 0.88,1.76 1.75938,2.6509 1.75938,4.4109 a 156,156 0 0 0 60,70.5594 c 13.23,7.94 26.46031,15 40.57031,19.4 a 117.51,117.51 0 0 0 16.76093,4.4094 l 1.75938,0.8812 15.87968,2.65 3.52968,0.8797 c 6.17,0.88 12.35,0.8797 19.4,0.8797 23.82,0 46.75032,-4.4094 67.92032,-14.1094 5.29,3.53 9.7,7.0597 15,10.5797 l 1.76096,0.8797 c 4.41,2.65 9.7,5.2906 15,7.9406 h 0.85936 A 227.42,227.42 0 0 0 1094.8848,1228.7 h 0.8797 a 100.75,100.75 0 0 0 22.9312,-7.9406 l 23.8188,-10.5797 a 129.23,129.23 0 0 0 79.3812,27.3406 c 6.17,0 11.4691,-0.8797 17.6391,-0.8797 l 4.4109,-0.8812 a 143.32,143.32 0 0 0 16.7594,-3.5297 117.79,117.79 0 0 0 15.8797,-6.1703 l 2.65,-0.8797 c 5.29,-2.65 9.7,-5.2891 15,-7.9391 22.05,-14.11 38.8109,-35.28 48.5109,-59.1 3.53,-7.94 5.2894,-15.8809 7.0594,-23.8109 v -2.65 c 0.88,-3.53 0.8794,-7.0597 1.7594,-10.5797 0,-4.41 0.8812,-8.8197 0.8812,-13.2297 0,-58.21 -36.16,-108.48998 -90,-125.24998 l 0.03,-0.0296 c -0.88,-7.06 -1.76,-13.23064 -2.65,-20.29064 a 109.71,109.71 0 0 0 -3.5296,-14.10936 c 0,-1.76 -0.8813,-3.53064 -0.8813,-5.29064 -1.76,-5.29 -3.5291,-11.46936 -5.2891,-16.75936 v -0.88128 a 233.81,233.81 0 0 0 -50.2796,-79.37968 c -5.29,-5.29 -9.7013,-9.7 -15.8813,-15 l -0.8797,-0.87968 c -5.29,-4.41 -10.5794,-8.82 -16.7594,-12.35 l -0.8796,-0.87968 c -5.29,-3.53 -11.471,-7.93968 -16.761,-10.57968 l -0.8797,-0.88128 a 164.47,164.47 0 0 0 -17.6406,-8.81874 l -1.7594,-0.88124 c -6.17,-2.65 -12.35,-5.28907 -19.4,-7.93907 l -0.8797,-0.87969 c -7.06,-1.76 -13.2306,-4.41062 -20.2906,-5.29062 h -0.8797 a 176.62,176.62 0 0 0 -21.1703,-3.52969 h -0.8797 a 218,218 0 0 0 -21.7,-1.98281 z M 285.1754,1360.1 a 54.69,54.69 0 1 0 54.68907,54.6906 c 0,-9.7 -2.64938,-18.5206 -7.05938,-27.3406 a 55.55,55.55 0 0 0 -47.62969,-27.3406 z m 1434.1891,2.6406 a 54.69,54.69 0 1 0 0,109.3688 c 19.4,0 37.0012,-10.5791 47.6312,-27.3391 15,-25.58 6.1694,-59.1006 -20.2906,-74.0906 -7.94,-5.29 -17.6406,-7.0591 -27.3406,-7.9391 z m -715.8563,416.2156 a 54.39,54.39 0 0 0 -54.17343,45.9532 3.08,3.08 0 0 0 -0.87968,1.7609 v 0.01 c -2.65,24.7 12.34968,48.5097 35.27968,57.3297 5.29,1.76 11.47096,3.5313 16.76093,3.5313 a 57.57,57.57 0 0 0 56.45,-46.75 54.39,54.39 0 0 0 -53.4375,-61.8344 z" />
</svg>
