<svg
   xmlns="http://www.w3.org/2000/svg"
   viewBox="0 0 32 32">
  <path
     d="m 11.60617,0.2565892 c -0.101167,-0.0192501 -0.242525,0.00514 -0.432954,0.0909837 C 6.1745003,2.6034444 3.6615289,9.6779079 8.0358669,13.8068 c 1.4151696,1.335978 3.1201561,2.42395 4.8911271,3.218919 0.649276,0.291388 1.315935,0.547113 1.979667,0.803162 1.90012,0.732483 4.084678,1.536634 5.295845,3.27853 0.489126,0.705497 0.791691,1.542779 0.812574,2.400072 0.01028,0.509847 -0.07596,1.017862 -0.194515,1.51534 -0.06039,0.247695 -0.12592,0.49166 -0.188242,0.731002 -0.06248,0.237254 -0.134336,0.475953 -0.225889,0.702766 0.499406,-0.359977 1.660567,-1.196113 2.478506,-1.785151 1.30064,-0.934398 2.487902,-2.116888 3.131073,-3.61109 1.211169,-2.815722 0.182384,-6.305771 -2.017315,-8.326524 C 21.549217,10.486259 18.419684,9.6516349 15.556092,8.1281984 13.356555,6.9586348 11.006505,3.952139 11.741076,1.2072065 11.858177,0.77487276 11.909675,0.31433826 11.606161,0.25658968 Z m 0.163142,18.4099648 c 0,0 -0.0032,0.0032 -0.0032,0.0032 -0.844925,0.607671 -1.684144,1.241411 -2.8079266,2.086337 -1.2569476,0.944839 -2.6651609,2.203693 -3.1812724,3.702071 -0.5909662,1.712661 -0.3229705,3.635722 0.7404152,5.000935 h -0.00322 c 0.959296,1.442157 2.6978843,2.30697 4.5083688,2.290265 1.583674,-0.01461 3.23281,-0.939428 4.520921,-1.838486 1.972885,-1.377583 3.110704,-2.199363 4.856616,-3.454222 -0.601407,-1.818839 -1.562384,-3.554708 -3.008717,-4.815831 -1.602467,-1.396376 -3.695024,-2.170885 -5.62213,-2.974206 z M 6.5832741,29.4057 l 0.00322,0.0062 -0.056478,0.03765 z"/>
</svg>
