<svg
   xmlns="http://www.w3.org/2000/svg"
   viewBox="0 0 24 24">
<path
   d="M 8.1875,1.0351562 C 6.7349609,1.0240234 5.6,1.4382813 5,2.3007812 L 0.40039062,9 0.43554688,9.0234375 C -0.99557096,11.453877 1.8830694,15.958361 6.9003906,19.5 11.948906,23.063658 17.28593,23.976547 18.945312,21.763672 L 19,21.800781 23.599609,15 c 1.5,-2.3 -1.3,-7.1 -6.5,-10.5 C 13.912109,2.25 10.608398,1.0537111 8.1875,1.0351562 Z m 0.3691406,0.7441407 c 2.1904294,0.094726 5.2050784,1.2578125 8.1425784,3.3203125 4.7,3.3 7.501172,7.4999996 6.201172,9.4999996 -1.4,2 -6.3,1.001172 -11,-2.298828 C 7.1003906,9.0007812 4.2992187,4.8007813 5.6992188,2.8007812 c 0.5249999,-0.75 1.543164,-1.0783203 2.8574218,-1.0214843 z M 4.4726562,4.4589844 c 0.070313,-0.00938 0.1269532,0.065625 0.1269532,0.140625 0.1,0.3 0.099609,0.5011719 0.099609,0.7011718 C 4.7992188,5.4007813 4.6996094,5.5 4.5996094,5.5 c -0.1,0.1 -0.1992188,3.906e-4 -0.1992188,-0.099609 0,-0.2 -0.1011719,-0.401172 -0.2011718,-0.7011718 C 4.1992187,4.5992187 4.3003906,4.6 4.4003906,4.5 c 0.025,-0.025 0.048828,-0.037891 0.072266,-0.041016 z m 6.9414058,0.828125 C 10.763086,5.2613281 10.2625,5.4257812 10,5.8007812 9.3,6.8007813 10.7,8.9 13,10.5 c 2.4,1.6 4.8,2.099609 5.5,1.099609 0.7,-1 -0.7,-3.0992184 -3,-4.6992184 -1.5,-1 -3.000977,-1.5703125 -4.085938,-1.6132812 z M 4.9726562,6.0585938 c 0.070313,-0.00937 0.1269532,0.065625 0.1269532,0.140625 C 6.1996094,8.5992187 8.4,11.199219 11.5,13.199219 c 0,0.1 0.1,0.200781 0,0.300781 -0.1,0 -0.200781,0.1 -0.300781,0 -3.0000006,-2 -5.2984377,-4.6992187 -6.3984378,-7.1992188 10e-8,-0.1 -3.906e-4,-0.1011718 0.099609,-0.2011718 0.025,-0.025 0.048828,-0.037891 0.072266,-0.041016 z M 17.199219,16 c 0.3,0.1 0.7,0.200781 1,0.300781 0.1,0 0.101562,0.09922 0.101562,0.199219 0,0.1 -0.101172,0.09961 -0.201172,0.09961 -0.3,-0.1 -0.7,-0.198828 -1,-0.298828 -0.1,0 -0.09961,-0.101172 -0.09961,-0.201172 C 17,15.999609 17.099219,16 17.199219,16 Z M 19,16.400391 c 0.8,0.1 1.600391,0.199609 2.400391,0.09961 0.1,0 0.199218,0.09922 0.199218,0.199219 0,0.1 -0.09922,0.201172 -0.199218,0.201172 -0.7,0.1 -1.600391,3.9e-4 -2.400391,-0.09961 -0.1,0 -0.199219,-0.101172 -0.199219,-0.201172 0,-0.1 0.09922,-0.199218 0.199219,-0.199218 z" />
</svg>