<svg
   xmlns="http://www.w3.org/2000/svg"
   version="1.1"
   viewBox="0 0 129 129">
  <path
     d="m 58.84472,0.33722819 c -6.108872,0.0973011 -8.468723,2.31254931 -7.916804,4.53064501 0.630767,2.5349659 3.486584,2.8470974 7.283081,0.3121315 3.796497,-2.5349659 12.032566,-1.892114 18.685362,2.8564827 0,0 -6.976126,-6.9739057 -15.199887,-7.60467252 -1.027969,-0.0788477 -1.979057,-0.10848546 -2.851752,-0.0945867 z m 5.694045,5.96834431 c -0.668746,-0.016109 -1.344004,0.020313 -2.019399,0.1229605 -5.403166,0.8211848 -7.144381,2.9291728 -6.299394,4.464435 0.844992,1.535259 2.679661,1.317356 4.762379,-0.884374 2.082718,-2.2017317 7.474859,-3.0072138 12.485283,-0.9363965 0,0 -4.247633,-2.6538658 -8.928869,-2.766625 z M 83.474779,7.837856 C 80.347198,7.7373418 77.071779,8.3475607 73.7041,9.9281969 65.801674,14.046029 65.174261,22.948639 64.543494,26.078665 63.91273,29.208697 64.766896,39.905976 56.305101,45.118724 44.915609,52.045248 6.2826821,63.411552 18.314842,128.66608 c 0,0 1.264487,-17.1004 24.067276,-21.52764 22.802787,-4.42729 31.658647,-3.16597 43.060039,-15.828887 11.401395,-12.662941 6.327841,-36.729102 3.792877,-43.70323 -2.534966,-6.974131 -3.79354,-15.139791 0.633723,-17.091597 6.271958,-2.68968 10.710863,-3.806882 23.111963,-0.950584 0,0 -12.61701,-21.1835051 -29.505941,-21.726286 z M 68.974826,9.3370368 c -1.228569,-0.016059 -2.456695,0.1586445 -3.646272,0.5202211 -3.296645,1.2734341 -4.048212,2.8414021 -3.334138,3.6982921 0.714077,0.856889 1.866234,0.467224 2.865941,-1.187049 0.999704,-1.654273 4.299918,-3.0236213 7.75128,-2.4166591 C 71.431917,9.559296 70.203392,9.3530954 68.974826,9.3370368 Z m 28.12972,13.7196252 c 2.226464,0.06192 4.957534,0.814598 8.280954,2.709872 0,0 -12.352453,-1.629718 -17.10105,3.13078 0,0 2.140709,-6.026424 8.820096,-5.840652 z M 60.93033,62.366384 c 1.674213,0.0477 3.259627,0.322771 4.705627,0.818163 7.712007,2.642074 13.113178,11.021796 8.233666,20.364263 -4.879511,9.330577 -15.078394,7.899876 -19.541361,7.959369 -2.451658,0 -8.520696,-1.365953 -14.149986,0.312117 -6.867019,2.047018 -8.125186,4.843552 -10.243607,6.890569 0,0 0.926245,-13.091333 8.602549,-23.80244 6.236997,-8.702809 15.138185,-12.748731 22.393112,-12.542041 z" />
</svg>
