<svg
   xmlns="http://www.w3.org/2000/svg"
   version="1.1"
   viewBox="0 0 39 36">
  <path
     d="M 19.148438,3.8808594 1.0625,20 H 31.119141 L 19.136719,30.890625 21.154297,33.109375 38.880859,17 H 8.9375 L 21.144531,6.1191406 Z" />
  <path
     d="M20 10C22.7614 10 25 7.76142 25 5C25 2.23858 22.7614 0 20 0C17.2386 0 15 2.23858 15 5C15 7.76142 17.2386 10 20 10Z" />
  <path
     d="M5 23C7.76142 23 10 20.7614 10 18C10 15.2386 7.76142 13 5 13C2.23858 13 0 15.2386 0 18C0 20.7614 2.23858 23 5 23Z" />
  <path
     d="M20 36C22.7614 36 25 33.7614 25 31C25 28.2386 22.7614 26 20 26C17.2386 26 15 28.2386 15 31C15 33.7614 17.2386 36 20 36Z" />
  <path
     d="M34 23C36.7614 23 39 20.7614 39 18C39 15.2386 36.7614 13 34 13C31.2386 13 29 15.2386 29 18C29 20.7614 31.2386 23 34 23Z" />
</svg>
