<svg viewBox="0.8 1 18.6 12.5" xmlns="http://www.w3.org/2000/svg">
<path d="M19.3355 1.1228H13.1769V3.17566H19.3355V1.1228ZM9.07119 3.17566H7.01833V5.22852H9.07119V3.17566ZM7.01833 13.44H9.07119V7.28138H7.01833V13.44ZM11.124 3.17566V5.22852H13.1769V3.17566H11.124ZM11.124 13.44H13.1769V7.28138H11.124V13.44ZM11.124 1.1228H9.07119V3.17566H11.124V1.1228ZM0.858398 1.1228V3.17566H7.01833V1.1228H0.858398ZM19.3368 7.28138V5.22852H13.1769V7.28138H19.3368ZM9.07254 5.22852V7.28138H11.124V5.22852H9.07254ZM0.859744 5.22852V7.28138H7.01968V5.22852H0.859744Z"/>
</svg>
