<svg
   xmlns="http://www.w3.org/2000/svg"
   viewBox="0 0 60 60">
  <path
     d="m 29.950194,0.81692342 c -3.880394,0 -6.985575,3.15762768 -6.985575,6.98990518 0,3.8322804 3.105181,6.9942384 6.985575,6.9942384 3.880394,0 6.981246,-3.161961 6.981246,-6.9942384 0,-3.88394 -3.152514,-6.98990518 -6.981246,-6.98990518 z M 7.2351642,25.623731 c -0.4656473,0.05166 -0.8271825,0.41306 -0.8271825,0.879151 v 7.66551 c 0,0.466091 0.3615352,0.827183 0.8271825,0.827183 H 24.463075 v 23.355989 c 0,0.466091 0.361535,0.831513 0.827182,0.831513 h 9.419485 c 0.465647,0 0.827182,-0.365422 0.827182,-0.831513 V 34.943606 h 17.227911 c 0.465647,0 0.827183,-0.361091 0.827183,-0.827182 v -7.665511 c 0,-0.466091 -0.361536,-0.827182 -0.827183,-0.827182 z" />
</svg>
