<svg
   xmlns="http://www.w3.org/2000/svg"
   version="1.1"
   viewBox="0 0 57 57">
      <path
         d="m 54.219084,29.264726 c -0.0053,0.173831 -0.241948,0.219748 -0.310321,0.05954 -0.02927,-0.06913 -0.05929,-0.13851 -0.08982,-0.20789 -0.05576,-0.126904 -0.04011,-0.274496 0.04314,-0.385505 0.01716,-0.02271 0.05222,-0.06862 0.0941,-0.123371 0.112523,-0.147088 0.274748,-0.125138 0.274748,0.0381 0,0.214197 -0.005,0.399633 -0.01186,0.619128 M 52.97375,25.863811 c -0.191743,0.34539 -0.683463,0.361284 -0.896399,0.02826 -0.03305,-0.05147 -0.06635,-0.102936 -0.09991,-0.154656 -0.767477,-1.178463 -1.650757,-2.33523 -2.637225,-3.45945 -0.242202,-0.276009 -0.04415,-0.709197 0.323188,-0.709449 h 0.0088 c 2.305208,0 3.513693,0.569426 3.882546,1.264747 0.307798,0.581537 0.21344,1.598533 -0.581032,3.030551 m -0.515183,12.055092 c -0.123624,0.31461 -0.253051,0.627201 -0.389037,0.936766 -0.02119,0.04264 -0.04112,0.08578 -0.06307,0.128165 -0.848463,1.633096 -2.272155,2.919037 -4.174701,3.813922 -0.426881,0.200573 -0.893876,-0.189977 -0.76672,-0.644106 0.631743,-2.261055 1.109839,-4.713096 1.419655,-7.283715 0.05778,-0.479358 0.294175,-0.919358 0.659496,-1.23523 0.782362,-0.676903 1.513004,-1.352798 2.185115,-2.023899 l 0.0073,-0.0076 c 0.330757,-0.33 0.894885,-0.187958 1.02961,0.259611 0.664037,2.207316 0.700872,4.263256 0.09234,6.056055 m -5.171514,8.163211 c -0.193509,0.20688 -0.391055,0.411238 -0.592386,0.612568 -0.350688,0.350184 -0.709701,0.689014 -1.076536,1.016239 -0.231353,0.206124 -0.581285,-0.05172 -0.450344,-0.332775 0.03734,-0.08023 0.07443,-0.160963 0.111261,-0.242454 0.154152,-0.33984 0.303005,-0.68851 0.447821,-1.043739 0.03431,-0.08376 0.106468,-0.14633 0.194266,-0.168784 0.364817,-0.09259 0.720551,-0.194771 1.06695,-0.306537 0.280803,-0.09032 0.500803,0.250023 0.298968,0.465482 m -3.797718,-2.041029 c -0.767982,0.111261 -1.575574,0.183165 -2.420504,0.212935 -2.061492,0.07216 -4.241308,-0.105711 -6.480413,-0.517958 -0.272982,-0.05021 -0.32546,-0.419312 -0.07796,-0.54445 0.488442,-0.247248 0.977135,-0.500046 1.465575,-0.758899 3.426147,-1.816009 6.622957,-3.801055 9.421398,-5.836307 0.209908,-0.152638 0.499037,0.0275 0.456399,0.283578 -0.388028,2.332454 -0.925413,4.528165 -1.600298,6.521284 -0.115046,0.339588 -0.40922,0.588349 -0.764197,0.639817 m -0.79195,3.107501 c -1.836949,3.612844 -4.099266,5.641284 -6.292202,5.600411 -2.383417,-0.04238 -4.760023,-2.524448 -6.520023,-6.809151 l -0.002,-0.0048 c -0.111766,-0.271972 0.01665,-0.583302 0.286101,-0.700366 0.01867,-0.0083 0.03734,-0.0164 0.05601,-0.02472 0.11555,-0.05021 0.245229,-0.05929 0.366835,-0.02498 3.292179,0.923899 6.535917,1.406032 9.575046,1.406032 0.330253,0 0.658234,-0.0056 0.983441,-0.0169 0.38071,-0.01362 0.755366,-0.03507 1.123463,-0.06433 0.341353,-0.027 0.578761,0.333532 0.423349,0.638808 M 31.81947,54.01902 c -1.092179,0.140276 -2.200505,0.212179 -3.319679,0.212179 -5.001468,0 -9.785206,-1.417385 -13.892293,-4.062179 -0.282569,-0.182156 -0.162477,-0.620642 0.173325,-0.636032 0.06963,-0.0033 0.134725,-0.0068 0.191996,-0.01034 1.043738,-0.06787 2.188142,-0.220757 3.428165,-0.459679 2.637729,-0.507362 5.569885,-1.377775 8.640046,-2.549931 0.275252,-0.104954 0.582546,0.03154 0.694564,0.304014 7.57e-4,0.0018 0.0013,0.0033 0.002,0.0048 1.189817,2.896836 2.654129,5.085734 4.298326,6.478144 0.27172,0.230344 0.136743,0.673623 -0.216468,0.719036 M 16.939428,35.990116 c 2.267363,-1.846284 4.924014,-3.688532 7.838257,-5.432637 0.06257,3.727385 0.471285,7.305917 1.19461,10.538302 -1.080826,-0.46094 -2.158371,-0.968555 -3.226582,-1.523348 -2.06906,-1.075275 -4.015757,-2.279725 -5.806285,-3.582317 M 9.8880755,45.97741 C 9.3471581,44.956882 10.046264,42.592891 13.597801,38.999979 l 0.0018,-0.0018 c 0.370837,-0.374622 0.335264,-0.989462 -0.07875,-1.315677 -0.142293,-0.111766 -0.283578,-0.224794 -0.423853,-0.337822 -0.353716,-0.285848 -0.865619,-0.25961 -1.186788,0.06206 -0.07039,0.07039 -0.122867,0.123371 -0.138257,0.139266 -1.7753903,1.822316 -3.0179361,3.509151 -3.7140141,5.026445 -0.1972936,0.429908 -0.793211,0.47633 -1.0540826,0.08174 C 4.2485571,38.489076 2.768603,33.608457 2.768603,28.499764 c 0,-1.826353 0.1897248,-3.623692 0.5588303,-5.369564 0.055757,-0.264151 0.4283945,-0.281055 0.5066055,-0.02271 0.5338532,1.762522 1.4027523,3.585596 2.6034174,5.429105 1.6161927,2.482064 3.7475688,4.868005 6.2732798,7.056652 0.862087,0.747041 1.772614,1.46961 2.722247,2.166697 1.925,1.412591 4.016766,2.716192 6.242248,3.872454 0.986468,0.51266 1.947202,1.001858 2.931147,1.444885 0.547729,0.246491 1.171146,0.265665 1.730229,0.04617 0.463968,-0.181652 0.931216,-0.370619 1.401239,-0.567156 0.511146,-0.213188 0.788417,-0.770505 0.652935,-1.307638 -0.0169,-0.06711 -0.03027,-0.121101 -0.03784,-0.15289 -0.774793,-3.260642 -1.205458,-6.931261 -1.256169,-10.775963 l -0.0015,7.57e-4 c -5.05e-4,-0.04566 -2.52e-4,-0.09209 -7.57e-4,-0.138257 -0.0023,-0.21016 -0.001,-0.421835 -0.0048,-0.631491 -0.0013,-0.06686 7.57e-4,-0.180137 0.0015,-0.247247 5.05e-4,-0.02674 0,-0.05323 0,-0.07972 2.52e-4,0 7.57e-4,-2.53e-4 0.001,-2.53e-4 0.0013,-0.240688 0.003,-0.481123 0.0073,-0.722568 0.01186,-0.659496 0.03557,-1.314198 0.06963,-1.963601 -5.05e-4,2.52e-4 -7.57e-4,5.04e-4 -0.0013,7.57e-4 0.238921,-4.639427 1.025573,-8.998808 2.277201,-12.665895 0.115803,-0.339335 -0.06509,-0.707683 -0.404426,-0.823486 -0.330756,-0.113028 -0.661262,-0.221009 -0.991261,-0.32445 -0.333785,-0.104701 -0.690527,0.07544 -0.803303,0.406698 -1.356582,3.982454 -2.193692,8.707156 -2.416973,13.706857 -0.02851,0.634266 -0.373646,1.211514 -0.919861,1.535207 -2.96117,1.754954 -5.680643,3.615367 -8.03,5.490665 -0.48945,0.390803 -1.188556,0.375917 -1.661858,-0.03456 C 11.862777,31.787662 9.8810113,29.570254 8.382892,27.269589 5.4388782,22.748992 4.7392681,18.490277 6.4134883,15.280093 c 0.00454,-0.0076 0.00858,-0.01539 0.012867,-0.02271 0.2134404,-0.35422 0.4354587,-0.703647 0.6665596,-1.04828 1.9237386,-2.546399 5.5042881,-4.022064 10.2529581,-4.18883 0.300482,-0.0106 0.602982,-0.01589 0.908257,-0.01589 2.912729,0 6.038647,0.48062 9.217798,1.397959 l 7.57e-4,-7.57e-4 c 0.06963,0.02018 0.139266,0.04112 0.208899,0.06156 0.05374,0.01589 0.107477,0.03078 0.161216,0.04693 -2.53e-4,2.53e-4 -2.53e-4,2.53e-4 -2.53e-4,5.05e-4 0.734679,0.219495 1.471629,0.462453 2.209335,0.727867 2.53e-4,-2.52e-4 2.53e-4,-2.52e-4 2.53e-4,-5.05e-4 0.01716,0.0061 0.03431,0.01287 0.05147,0.01892 0.192247,0.06938 0.384243,0.140528 0.576238,0.212936 0.06005,0.02271 0.120344,0.04566 0.18039,0.06888 0.05777,0.0222 0.11555,0.04365 0.173578,0.0661 l -7.57e-4,10e-4 c 1.552615,0.600964 3.103968,1.299817 4.635894,2.096055 2.965207,1.540505 5.679381,3.346422 8.041354,5.327684 -4.50773,1.032638 -9.747363,3.024748 -15.015505,5.710665 -0.242959,0.124128 -0.402913,0.368349 -0.418303,0.640826 -0.01842,0.326468 -0.04264,0.982935 -0.06005,1.504679 -0.01085,0.327477 0.335551,0.544449 0.625689,0.392064 l 0.003,-0.0018 c 5.215918,-2.738899 10.421491,-4.786009 14.891881,-5.867843 0.835596,-0.202087 1.376514,-1.004633 1.259197,-1.856125 -0.08225,-0.594908 -0.174839,-1.180482 -0.27727,-1.755711 -0.12867,-0.722569 -0.524266,-1.368693 -1.108074,-1.813234 -2.093784,-1.595 -4.40126,-3.05805 -6.871467,-4.34172 -1.664604,-0.864821 -3.35371,-1.62271 -5.046348,-2.269086 -0.362041,-0.138257 -0.517202,-0.5661469 -0.328233,-0.9044726 1.743852,-3.1196101 3.817958,-4.8667431 5.838577,-4.8667431 0.02094,0 0.04188,0 0.06282,5.045e-4 2.383419,0.042638 4.760024,2.5244496 6.520024,6.8091512 0.890849,2.168968 1.581124,4.670206 2.052912,7.388417 -0.0025,-0.0023 -0.005,-0.0043 -0.0073,-0.0066 0.201332,1.160046 0.363556,2.358946 0.4839,3.588877 -0.01034,0.0066 -0.02144,0.01236 -0.03179,0.01892 0.01413,0.01438 0.02901,0.02876 0.04339,0.04339 0.199563,2.063762 0.283829,4.212798 0.244473,6.405734 -0.02473,1.38711 -0.09865,2.755046 -0.218235,4.093463 -3.188739,2.576927 -7.131331,5.141491 -11.464976,7.43812 -1.424199,0.754862 -2.848144,1.4575 -4.258212,2.10438 -0.02195,0.01009 -0.04365,0.01993 -0.0656,0.03002 -0.107729,0.0492 -0.215711,0.09915 -0.323441,0.147844 -0.001,-2.52e-4 -0.0018,-5.04e-4 -0.0025,-7.57e-4 -1.168372,0.528556 -2.325642,1.0175 -3.463739,1.46406 2.53e-4,2.52e-4 2.53e-4,7.57e-4 5.05e-4,10e-4 -0.06433,0.02523 -0.128165,0.04945 -0.192248,0.07443 -0.07998,0.03128 -0.159954,0.06206 -0.239679,0.09284 -0.190985,0.07316 -0.381215,0.145321 -0.57094,0.216216 -0.05222,0.01943 -0.104702,0.03986 -0.156927,0.05904 -0.230343,0.08553 -0.459426,0.168532 -0.687752,0.250276 -0.02851,0.01009 -0.05702,0.02094 -0.08528,0.03103 -5.05e-4,-2.53e-4 -7.57e-4,-2.53e-4 -0.001,-5.05e-4 -2.438922,0.868647 -4.762294,1.524862 -6.879542,1.932316 -5.116261,0.984955 -7.525412,0.229335 -8.0741505,-0.805825 M 13.562731,7.5427544 C 17.893098,4.441814 23.067639,2.768603 28.499772,2.768603 c 1.433785,0 2.849152,0.1173165 4.23601,0.3461468 0.371376,0.061307 0.496009,0.535367 0.199816,0.7677293 -1.343968,1.053578 -2.592569,2.6125 -3.697614,4.6341285 -0.269703,0.4932339 -0.841652,0.7344266 -1.38257,0.5820413 C 24.194382,8.0680296 20.592387,7.5831213 17.264382,7.6999333 16.036722,7.7430755 14.874153,7.8674562 13.781974,8.0687865 13.475185,8.1253002 13.309176,7.7241535 13.562731,7.5427544 M 48.883327,26.295735 c -0.0076,-0.294931 0.370872,-0.420825 0.541927,-0.180642 0.21016,0.294931 0.412752,0.591376 0.606767,0.889335 0.257843,0.396101 0.497774,0.789931 0.720802,1.181239 0.139013,0.243968 0.105711,0.55 -0.08351,0.757385 -0.300481,0.33 -0.626444,0.671101 -0.980412,1.024817 -0.129175,0.128922 -0.260872,0.258096 -0.395092,0.387522 -0.166513,0.160964 -0.445803,0.03835 -0.43672,-0.193256 0.0164,-0.422088 0.02851,-0.845688 0.03608,-1.271308 0.01564,-0.871926 0.01186,-1.737546 -0.0098,-2.595092 M 46.214818,9.8376168 c 0.16172,0.1533945 0.321674,0.3093122 0.479862,0.4675002 2.479542,2.479541 4.389404,5.37688 5.666514,8.532316 0.128922,0.318142 -0.141284,0.651169 -0.479105,0.590367 -0.738968,-0.132707 -1.570528,-0.191996 -2.491147,-0.176606 -0.63805,0.0106 -1.192591,-0.436468 -1.30461,-1.064679 -0.500298,-2.805252 -1.223624,-5.396559 -2.152569,-7.658119 -0.05298,-0.128921 -0.106467,-0.25633 -0.160711,-0.382477 -0.118073,-0.2752518 0.224541,-0.5146784 0.441766,-0.3083022 M 55.946792,22.665231 C 54.838213,17.398098 52.231515,12.558603 48.336102,8.6631902 43.037685,3.3647727 35.993144,0.4469975 28.499772,0.4469975 c -7.493119,0 -14.537913,2.9177752 -19.8363295,8.2161927 -1.2887156,1.2887156 -2.4348854,2.6811238 -3.4342202,4.1575458 -0.2972019,0.395596 -0.5633716,0.813394 -0.800023,1.250619 -2.5958486,4.313463 -3.9822018,9.264472 -3.9822018,14.428417 0,7.493372 2.9180275,14.537913 8.216445,19.83633 5.2984165,5.298418 12.3432105,8.216698 19.8363295,8.216698 7.493372,0 14.537913,-2.91828 19.83633,-8.216698 2.500735,-2.500481 4.470391,-5.390252 5.853969,-8.532316 0.169037,-0.348165 0.316628,-0.704656 0.443531,-1.068211 1.25945,-3.218257 1.919199,-6.676193 1.919199,-10.235803" />
</svg>
