<svg
   xmlns="http://www.w3.org/2000/svg"
   version="1.1"
   viewBox="10 6 16.2 16.1">
  <path
     transform="translate(10,6)"
     d="M 8.0898438 0.005859375 C 3.6834097 0.005859375 0.08984375 3.5994264 0.08984375 8.0058594 C 0.08984375 12.412293 3.6834097 16.005859 8.0898438 16.005859 C 12.496277 16.005859 16.089844 12.412293 16.089844 8.0058594 C 16.089844 3.5994264 12.496277 0.005859375 8.0898438 0.005859375 z M 8.0898438 2.0058594 C 11.415397 2.0058594 14.089844 4.6803064 14.089844 8.0058594 C 14.089844 11.331413 11.415397 14.005859 8.0898438 14.005859 C 4.7642908 14.005859 2.0898438 11.331413 2.0898438 8.0058594 C 2.0898438 4.6803064 4.7642908 2.0058594 8.0898438 2.0058594 z M 7.0742188 4.9902344 A 1.0001 1.0001 0 0 0 6.0898438 6.0058594 L 6.0898438 10.005859 L 10.089844 10.005859 A 1.0001 1.0001 0 1 0 10.089844 8.0058594 L 8.0898438 8.0058594 L 8.0898438 6.0058594 A 1.0001 1.0001 0 0 0 7.0742188 4.9902344 z " />
</svg>
