<svg
   xmlns="http://www.w3.org/2000/svg"
   version="1.1"
   viewBox="0 0 145 145">
  <g
     transform="translate(0,2.288488)">
    <path
       d="M 42.131711,0.97568997 C 49.948312,6.5379573 56.663847,18.122852 60.771478,33.122466 c 0.268148,0.980042 0.621721,2.135683 0.78783,2.572312 0.163735,0.434255 0.600365,2.21399 0.968177,3.953386 0.367812,1.741768 0.821051,3.699478 1.008518,4.352048 0.185092,0.652569 0.462729,2.164159 0.612228,3.360142 0.151871,1.195981 0.455611,2.51536 0.673926,2.933003 0.773593,1.466503 0.434256,14.245006 -0.49358,18.623157 -1.419043,6.687062 -1.409551,6.525699 -0.315606,6.525699 0.524429,0 1.122419,-0.151872 1.32887,-0.339337 4.01983,-3.62117 32.201356,-4.781557 44.671369,-1.83906 1.52108,0.35832 3.39098,0.787831 4.15272,0.953938 11.01539,2.396713 23.33351,10.63333 26.99029,18.051268 l 1.21735,2.465527 -0.88277,2.168905 c -1.61125,3.970006 -5.33921,6.212476 -12.69307,7.629136 -8.12984,1.56617 -25.19869,-0.16848 -34.802142,-3.53811 -0.980038,-0.34408 -2.145174,-0.62884 -2.591294,-0.63122 -0.446122,-0.002 -0.980042,-0.14712 -1.18649,-0.32035 -0.206452,-0.173228 -1.442775,-0.638334 -2.747915,-1.034622 -1.305138,-0.396287 -2.728927,-0.863765 -3.165555,-1.039365 -0.434257,-0.175601 -1.680072,-0.633586 -2.766897,-1.018009 -3.227254,-1.141404 -7.145045,-3.360141 -12.610022,-7.133181 -0.678673,-0.469851 -2.389593,-1.926861 -3.803888,-3.23912 -2.847578,-2.643501 -3.288953,-2.607907 -3.79677,0.301368 -0.310862,1.796348 -1.96483,6.829441 -2.968599,9.045805 -0.422393,0.932583 -1.053606,2.408578 -1.402433,3.279461 C 47.860088,121.93605 25.81272,141.69585 9.6550912,141.5962 -6.6686482,141.4966 7.3105865,109.48738 32.385876,89.547213 c 1.027502,-0.81868 2.095345,-1.7038 2.372983,-1.971947 3.440821,-3.30319 13.217506,-8.205768 18.99334,-9.52752 1.49498,-0.34171 1.388197,-1.40955 -0.251534,-2.524852 C 48.166202,71.88986 37.222013,55.898339 32.604192,44.98737 26.773775,31.214589 25.103199,14.456596 28.721995,6.0325121 28.90946,5.5958842 29.14913,4.9599248 29.255915,4.6158425 31.13057,-1.3806798 36.63826,-2.9373558 42.131711,0.97568997" />
  </g>
</svg>
