<svg
   xmlns="http://www.w3.org/2000/svg"
   viewBox="0 0 500 500">
  <path
     d="M 250,8.266861 V 129.13343 c -66.28167,0 -120.86657,54.5849 -120.86657,120.86657 0,66.28167 54.5849,120.86657 120.86657,120.86657 35.09029,0 70.18059,-15.59569 91.62466,-42.88814 l 91.62466,77.97843 C 388.41172,460.54177 320.18059,491.73314 250,491.73314 117.43667,491.73314 10.216322,384.5128 10.216322,250 10.216322,115.4872 115.4872,8.266861 250,8.266861 Z m 113.06873,282.671819 113.06872,40.93867 c -3.89892,13.64623 -11.69676,25.34299 -17.54514,38.98922 L 355.27088,310.43328 c 1.94946,-5.84838 5.84839,-11.69676 7.79785,-19.4946 z m 122.81603,-83.82682 c 1.94946,13.64623 3.89892,27.29245 3.89892,42.88814 H 370.86657 c 0,-7.79784 0,-13.64623 -1.94946,-21.44407 z M 404.0074,64.801224 c 9.74731,9.747304 21.44407,19.494608 29.24192,29.241912 l -91.62466,77.978434 c -3.89892,-5.84838 -9.74731,-9.74731 -15.59569,-15.59569 z" />
</svg>
