<svg
   xmlns="http://www.w3.org/2000/svg"
   viewBox="0 0 32 32">
  <path
     d="m 28.948321,8.1460475 -0.212269,0.212269 c -0.636807,0.424538 -1.485883,0.636807 -3.184035,0.636807 -2.334959,0.212269 -5.731263,0.4245379 -9.339835,0.4245379 -3.608573,0 -7.0048772,-0.2122689 -9.3398361,-0.4245379 -1.6981696,0 -2.5472455,-0.212269 -3.1840525,-0.636807 l -0.212269,-0.212269 c -0.424538,-0.636807 -0.424538,-1.6981519 -0.424538,-3.3963038 0,-1.6981519 0,-2.7594969 0.424538,-3.3963038 l 0.212269,-0.212269 C 4.3251004,0.71663288 5.1741763,0.50436389 6.8723459,0.50436389 9.4195738,0.2920949 12.603609,0.07982591 16.212182,0.07982591 c 1.961011,0 3.796607,0.06269011 5.472825,0.11993198 1.408228,0.0480966 2.703953,0.092337 3.86701,0.092337 0.250831,0.0313628 0.483089,0.0580733 0.698896,0.0829087 1.245488,0.14324619 1.942438,0.2234308 2.485139,0.76616731 l 0.212269,0.212269 c 0.424538,0.6368069 0.424538,1.6981519 0.424538,3.3963038 0,1.9104209 0,2.7594968 -0.424538,3.3963038 z M 9.2073048,15.575462 C 8.968856,15.456238 8.730584,15.404055 8.4544575,15.343558 8.2390044,15.296328 8.0005556,15.243969 7.7214219,15.150924 c -0.849076,0 -1.2736139,0 -1.9104209,-0.212269 -1.061345,0 -1.6981519,0 -2.1226899,0.212269 -0.424538,0.424538 -0.636807,1.061345 -0.636807,2.12269 -0.212269,1.485883 -0.4245379,3.608573 -0.4245379,6.155801 0,1.910421 0,3.396303 0.2122689,4.882186 0.031345,0.250832 0.058056,0.483089 0.082891,0.698896 l 1.77e-5,1.77e-4 c 0.1432462,1.245311 0.2234308,1.942261 0.7661672,2.484962 0.636807,0.424538 1.6981519,0.424538 3.3963038,0.424538 h 0.212269 2.7594972 c 1.061345,0 1.698152,0 1.910421,-0.424538 0.424538,-0.424538 0.424538,-0.849076 0.424538,-1.910421 V 24.49076 20.457649 c 0,-1.698152 0,-2.547228 -0.849076,-3.608573 -0.477605,-0.636807 -0.955211,-0.796009 -1.6120065,-1.014823 v 0 C 9.7114437,15.761197 9.472641,15.681597 9.2073048,15.575462 Z m 19.9534622,1.698152 c -0.04971,-0.248178 -0.08774,-0.473006 -0.122232,-0.677492 -0.11321,-0.670062 -0.189273,-1.119896 -0.514575,-1.445198 -0.636807,-0.212269 -1.273614,-0.212269 -2.334959,-0.212269 -0.190865,0 -0.424538,0.04298 -0.681914,0.09021 -0.315043,0.05784 -0.66564,0.122055 -1.016238,0.122055 -0.503962,0 -0.874902,0.133022 -1.32332,0.293639 v 0 c -0.11834,0.04228 -0.241987,0.08668 -0.374832,0.130899 -0.183789,0.07359 -0.348475,0.134437 -0.499716,0.190158 v 0 c -0.721361,0.26622 -1.133163,0.41817 -1.835243,1.295725 -0.849076,1.061345 -0.849076,1.910421 -0.849076,3.608573 v 4.033111 5.094455 c 0,1.061345 0,1.698152 0.424538,1.910421 0.424538,0.212269 0.849076,0.212269 1.910421,0.212269 h 2.759497 0.212269 c 1.910421,0 2.759497,0 3.396304,-0.636807 0.542701,-0.542701 0.622832,-1.239651 0.766114,-2.484962 0.02494,-0.215807 0.05165,-0.448241 0.08296,-0.699073 0.212269,-1.273614 0.212269,-2.971765 0.212269,-4.882186 0,-1.298733 -0.06563,-2.532016 -0.124001,-3.626439 -0.04652,-0.872956 -0.08827,-1.657644 -0.08827,-2.317093 z"/>
</svg>
