<svg
   xmlns="http://www.w3.org/2000/svg"
   viewBox="0 0 100 100">
  <path
     d="m 2.7975352,18.53169 v 20.229628 c 11.1768698,0 20.2296278,-9.052759 20.2296278,-20.229628 z m 34.0935968,0 c -3.535915,0 -6.777861,1.894768 -8.521205,4.943265 L 0.54979879,71.660804 17.614157,81.46831 42.541204,38.199384 H 58.990946 V 18.53169 Z m 40.318772,0 c -3.558167,0 -6.819527,1.894768 -8.573885,4.943265 L 46.36938,61.800616 H 29.770372 V 81.46831 h 22.336881 c 3.532767,0 6.795793,-1.87653 8.560715,-4.921313 L 82.895097,38.199384 H 99.450201 V 18.53169 Z M 89.335387,50 c -5.586299,0 -10.114814,4.528515 -10.114814,10.114814 0,5.586299 4.528515,10.114814 10.114814,10.114814 5.5863,0 10.114814,-4.528515 10.114814,-10.114814 C 99.450201,54.528515 94.921687,50 89.335387,50 Z" />
</svg>
