<svg
   xmlns="http://www.w3.org/2000/svg"
   viewBox="0 0 255 255">
<path
   d="m 3.6992185,95.59961 c -2.1000001,0 -3.69882819,1.60117 -3.79882819,3.70117 v 55.09961 c 0,2.7 2.20039059,4.90039 4.90039059,4.90039 H 71.800781 c 2.7,0 4.898438,-2.20039 4.898438,-4.90039 V 99.30078 C 76.699219,97.20078 75,95.59961 73,95.59961 H 62.5 c -2.1,0 -3.699219,1.70117 -3.699219,3.70117 v 41.90039 H 18.199219 V 99.30078 c 0,-2.1 -1.699219,-3.70117 -3.699219,-3.70117 z m 179.5000015,0 c -2.7,0 -4.89844,2.20039 -4.89844,4.90039 v 55.09961 c 0,2.1 1.69922,3.70117 3.69922,3.70117 h 10.80078 c 2.1,0 3.69922,-1.70117 3.69922,-3.70117 v -39.5 c 0,-1.3 1.10039,-2.39844 2.40039,-2.39844 h 35.69922 c 1.3,0 2.40039,1.09844 2.40039,2.39844 v 39.5 c 0,2.1 1.69922,3.70117 3.69922,3.70117 H 251.5 c 2,0 3.59961,-1.70117 3.59961,-3.70117 V 100.5 c 0,-2.7 -2.20039,-4.90039 -4.90039,-4.90039 z M 92.800781,96 c -2.7,0 -4.90039,2.20039 -4.90039,4.90039 v 54.80078 c 0,2.1 1.699218,3.69922 3.699218,3.69922 h 10.701171 c 2.1,0 3.69922,-1.69922 3.69922,-3.69922 v -28.40039 l 18.80078,11.79883 c 1.6,1 3.59922,1 5.19922,0 l 18.90039,-11.79883 v 28.40039 c 0,2.1 1.69922,3.69922 3.69922,3.69922 h 10.80078 c 2,0 3.6,-1.69922 3.5,-3.69922 v -54.80078 c -0.1,-0.9 -0.30039,-1.89922 -0.90039,-2.69922 -1.5,-2.2 -4.60078,-2.80078 -6.80078,-1.30078 l -29.79883,20.5 c -1.2,0.9 -2.89961,0.9 -4.09961,0 L 95.5,96.90039 C 94.7,96.30039 93.800781,96 92.800781,96 Z m 118.499999,29.30078 c -2,0 -3.70117,1.59961 -3.70117,3.59961 v 11 c 0,2.1 1.70117,3.69922 3.70117,3.69922 H 222 c 2.1,0 3.69922,-1.69922 3.69922,-3.69922 V 129 c 0,-2.1 -1.69922,-3.69922 -3.69922,-3.69922 z" />
</svg>