<svg
   xmlns="http://www.w3.org/2000/svg"
   viewBox="0 0 194 194">
<path
   d="m 12.830146,0.04980438 c -0.1,0 1.50039,1.90078122 3.40039,4.30078122 23.300001,28.3000004 59.200001,72.2992194 61.000001,74.6992194 1.5,2 0.90039,3.900781 -1.59961,5.300781 -1.4,0.8 -4.301172,1.599609 -5.701172,1.599609 -1.6,0 -3.498828,-0.799609 -4.798828,-2.099609 -0.9,-0.9 -4.801562,-6.600781 -13.601562,-20.300781 -6.7,-10.5 -12.4,-19.198828 -12.5,-19.298828 -0.4,-0.2 -0.399219,-0.200391 11.800781,21.599609 7.7,13.7 10.199219,18.599219 10.199219,19.199219 0,1.3 -0.4,2.000781 -2,3.800781 -2.7,3 -3.898828,6.399997 -4.798828,13.500004 -1,7.9 -3.700391,13.5 -11.400391,23 -4.5,5.6 -5.200781,6.60039 -6.300781,8.90039 -1.4,2.8 -1.8,4.4 -2,8 -0.2,3.8 0.200781,6.19883 1.300781,9.79883 1,3.2 2.100781,5.30039 4.800781,9.40039 2.3,3.6 3.699219,6.30078 3.699219,7.30078 0,0.8 0.200781,0.8 3.800781,0 8.6,-2 15.69961,-5.39961 19.59961,-9.59961 2.4,-2.6 3,-4.00156 3,-7.60156 0,-2.3 -0.101172,-2.79922 -0.701172,-4.19922 -1,-2.2 -2.9,-4.00078 -7,-6.80078 -5.4,-3.7 -7.698828,-6.69922 -8.298828,-10.69922 -0.5,-3.4 0.09961,-5.7 3.099609,-12 3.1,-6.5 3.900391,-9.20078 4.400391,-15.80078 0.3,-4.200008 0.8,-5.899224 2,-7.199224 1.3,-1.4 2.4,-1.900781 5.5,-2.300781 5.1,-0.7 8.4,-2 11,-4.5 2.3,-2.1 3.30039,-4.198828 3.40039,-7.298828 l 0.09961,-2.300782 -1.300782,-1.40039 c -4.7,-5.4 -69.799609,-77.00000063 -70.099609,-77.00000062 z M 79.464912,43.549805 c -0.728125,-0.0063 -1.358985,0.02656 -1.833985,0.101562 -1,0.1 -0.900781,0.2 1.199219,0.5 7.7,1.2 13.6,4.198438 19.5,9.898438 2.700004,2.6 5.399214,5.70039 9.699214,11.40039 9.70001,12.9 13.90157,16.39961 22.10157,19.09961 4.8,1.6 9.69883,2.300781 18.29883,2.800781 9.5,0.5 13.1,1.2 16.5,3.5 1.9,1.3 3.30078,2.799609 4.80078,5.099609 l 0.90039,1.300782 -0.20117,-1.5 c -0.6,-5.6 -4.59922,-13.501172 -9.69922,-19.201172 l -0.90039,-1 -0.5,2.101562 c -1.2,5.3 -3.69961,9.09961 -6.09961,9.09961 -1.1,0 -2.30117,-0.701172 -2.70117,-1.701172 -0.5,-1.3 -0.49922,-1.699219 0.30078,-3.199219 1.5,-2.7 1.79961,-6.200391 1.09961,-10.900391 -0.2,-1.3 -0.49922,-2.598828 -0.69922,-2.798828 -0.5,-0.6 -4.60117,-3.001172 -7.20117,-4.201172 -9.5,-4.4 -20.9,-5.8 -32.00001,-4 l -2.59961,0.400391 -1.79882,-2.099609 c -6.9,-7.7 -13.401565,-12.100782 -20.601565,-13.800782 -2.325,-0.525 -5.380078,-0.88164 -7.564453,-0.90039 z m 76.564458,3 c -0.1,0 -0.49844,0.801172 -0.89844,1.701172 -1.1,2.3 -1.60078,4.799609 -1.80078,8.599609 -0.1,2.5 -0.29961,3.299609 -0.59961,3.599609 -0.4,0.1 -1,-3.9e-4 -4.5,-1.40039 -2.3,-1 -8.20039,-2.7 -8.40039,-2.5 -0.1,0 1.09922,0.600781 2.69922,1.300781 1.5,0.7 4.10156,2.000391 5.60156,2.900391 6.1,3.5 7.09961,5.598828 7.09961,14.298828 0,4.3 -0.0996,4.901172 -0.59961,6.201172 -0.7,1.7 -0.60078,2 0.19922,0.5 1.5,-2.9 2.09922,-5.701172 2.19922,-10.201172 0,-2.9 0.1,-3.498438 0.5,-3.898438 0.5,-0.5 0.60078,-0.501562 1.30078,-0.101562 1.1,0.5 5.9,4.300781 8,6.300781 l 1.69922,1.599609 -1.69922,-2.199218 c -1,-1.2 -3.60078,-4.100391 -5.80078,-6.400391 -4.8,-4.9 -5.09883,-5.5 -5.79883,-10 -0.5,-3.5 -0.39961,-6.600781 0.40039,-8.800781 0.3,-0.8 0.49844,-1.5 0.39844,-1.5 z m -79.199224,1.601562 -0.199219,2.09961 c -0.6,6.7 2.098828,15.7 6.298828,21.5 3.3,4.5 8.401172,8.00039 12.201172,8.40039 2.5,0.2 3.19961,-0.601172 2.09961,-2.201172 -1.6,-2.2 -3.5,-5.699218 -4,-7.199218 -0.3,-0.9 -1,-3.69961 -1.5,-6.09961 -1.7,-8.2 -3.5,-11.50039 -7.5,-13.90039 -1.5,-0.9 -4.600391,-2.100391 -6.400391,-2.400391 z m 44.699224,37.398438 c 0,0 -0.0996,1.401562 -0.0996,3.101562 0,11.700003 7.00078,18.599613 26.80078,26.599613 13.2,5.3 18.59883,7.99961 22.79883,11.59961 3.5,3.1 5.60078,7.10078 5.80078,11.30078 0,0.8 0.20078,1.29883 0.30078,1.29883 0.5,-0.1 2.49922,-4.69922 3.19922,-7.19922 0.8,-3.2 1.09961,-9.3 0.59961,-12.5 -1.8,-11.1 -9.30039,-19.30078 -21.40039,-23.300785 -3.8,-1.3 -7.99883,-2.099218 -15.29883,-3.199218 -12.5,-1.8 -17,-3.200391 -21,-6.400391 -0.9,-0.7 -1.60117,-1.300781 -1.70117,-1.300781 z m -31.830083,8.160156 c -0.858399,-0.02168 -1.669532,0.05273 -2.269532,0.240234 -2.4,0.7 -4.70039,3.300391 -5.40039,5.900391 -0.4,1.600004 -0.2,4.500394 0.5,5.400394 1.1,1.4 2.10039,1.79883 4.90039,1.79883 5.5,0 10.201172,-2.39883 10.701172,-5.29883 0.5,-2.400006 -1.6,-5.701175 -4.5,-7.201175 -0.9375,-0.5 -2.500976,-0.803711 -3.93164,-0.839844 z m 0.357421,1.097656 c 0.949341,-0.01623 1.929688,0.210938 2.773438,0.742188 1.5,0.9 1.8,2.20039 1,3.40039 -0.6,0.8 -2.399219,1.599615 -3.699219,1.599615 -2,0 -4.101562,-1.399224 -4.101562,-2.699224 0,-1.7875 1.938794,-3.007251 4.027343,-3.042969 z m 42.673832,18.042973 0.5,1.5 c 0.3,0.8 0.8,2.69922 1,4.19922 1.6,9.4 -3.30117,17.10117 -13.20117,20.20117 -1,0.4 -4.99844,1.19883 -8.89844,1.79883 -7.9,1.4 -11.5,2.3 -15.000003,4 -2.5,1.2 -5.60039,3.00117 -5.40039,3.20117 0.1,0.1 0.698828,-0.10078 1.298828,-0.30078 4.5,-1.6 9.499995,-2.39883 16.999995,-2.79883 3.00001,-0.2 6.40157,-0.50156 7.60157,-0.60156 6.7,-0.9 11.4,-2.89961 15,-6.59961 2,-2.1 3.19922,-3.99922 4.19922,-6.69922 0.6,-1.7 0.69922,-2.40039 0.69922,-5.40039 0,-3.1 7.8e-4,-3.69961 -0.69922,-5.59961 -0.9,-2.5 -1.89922,-4.30078 -3.19922,-5.80078 z m 9.40039,4.59961 c -0.2,0 -0.40156,0.5 -0.60156,1 -1.4,5.1 -0.79922,10.50117 1.80078,16.20117 1.4,2.9 2.69922,5 8.19922,13 4.6,6.9 6.9,10.99844 8,14.39844 1.8,5.5 1.50156,10.4 -0.89844,15.5 -0.6,1.2 -1.00039,2.20117 -0.90039,2.20117 0.1,0 0.99961,-0.4 2.09961,-1 7.3,-3.9 12.3,-10.70117 14.5,-19.20117 0.7,-2.7 1,-9.19844 0.5,-11.89844 -0.8,-4.8 -2.50078,-8.70156 -5.30078,-12.10156 -3.2,-3.9 -7.79844,-7.29922 -15.89844,-11.69922 -6.4,-3.5 -8.90156,-4.89922 -10.10156,-5.69922 -0.6,-0.4 -1.19844,-0.70117 -1.39844,-0.70117 z m -98.607425,23.00586 c 0.706055,-0.006 1.469922,0.18125 2.107422,0.59375 1.8,1.2 2.398828,3.6 1.298828,5.5 -1,1.8 -2.898828,2.40078 -4.298828,1.30078 -0.9,-0.7 -0.901172,-1.70078 -0.201172,-2.80078 0.7,-1.1 0.601172,-1.59961 -0.298828,-2.09961 -0.6,-0.2 -0.800781,-0.6 -0.800781,-1 0,-0.9375 1.016602,-1.48438 2.193359,-1.49414 z m 55,12.45117 c -1.756054,0.005 -3.442968,0.11875 -4.792968,0.34375 -8.4,1.4 -17.500391,5.8 -24.900391,12 l -2.099609,2 1.90039,0.29883 c 10,1.5 12.699219,2.90156 19.699219,10.10156 4,4.1 5.399219,4.99844 8.699219,5.89844 4.899995,1.3 9.700385,-0.99844 11.400385,-5.39844 0.7,-2 0.60079,-5.20078 -0.19921,-6.80078 -2,-3.9 -7.90118,-5.10078 -10.701175,-2.30078 -2.3,2.3 -1.599219,5.9 1.300781,6.5 0.6,0.1 0.600781,0.10117 -0.199219,-0.29883 -1.3,-0.6 -1.90039,-1.40117 -1.90039,-2.70117 -0.1,-3.1 3.399613,-4.69883 6.599613,-3.29883 2.4,1.1 3.30078,2.50039 3.30078,4.90039 0,3.7 -3.20039,6.59961 -6.900393,6.09961 -2,-0.3 -4.401172,-1.5 -5.701172,-3 -3.2,-3.6 -1.998438,-9.50117 2.601562,-11.70117 3.500003,-1.7 8.099223,-1.19844 11.699223,1.10156 4.1,2.7 5.90039,5.09922 9.40039,13.19922 1.2,2.7 2.59883,5.59961 3.29883,6.59961 3.3,5 7.40117,7.5 12.20117,7.5 2.7,0 4.69922,-0.39922 7.19922,-1.69922 1.8,-0.9 4.50078,-2.70039 4.30078,-2.90039 0,-0.1 -0.80117,0.2 -1.70117,0.5 -5.3,2 -10.69883,1.89961 -13.79883,-0.40039 -2,-1.5 -3.60039,-4.30039 -4.40039,-7.90039 -0.1,-0.6 -0.6,-3.39961 -1,-6.09961 -1.1,-6.9 -2.19961,-9.99961 -4.59961,-13.59961 -2.5,-3.7 -7.29961,-6.69961 -12.59961,-8.09961 -2.0625,-0.5625 -5.18067,-0.85254 -8.107425,-0.84375 z" />
</svg>