<svg xmlns="http://www.w3.org/2000/svg" viewBox="0 0 43 50"><path d="M15.2 42.7a65.2 65.2 0 01.6-8 5.8 5.8 0 016.9-4.6h.4c2.8.6 5.3.5
  7.1-1.9s1.8-5.2.7-7.9a10.1 10.1 0 00-11.1-5.9 9.8 9.8 0 00-8 9.4v16.5A9.6
  9.6 0 01.4 49.8a.8.8 0 01-.2-.4C.2 39-.2 28.7.2 18.3S10.3.2 20.7 0a21.3 21.3
  0 0122 20.5V22a21.6 21.6 0 01-20.9 20.7zM29.4 7.8c0-2.3-1.3-4.1-3.1-4.2s-3.7
  2.2-3.8 4.8 1.3 3.9 3.3 3.9 3.5-1.8 3.6-4.5zm-8.4.9c0-2.5-1.7-5-3.6-5S14.1
  5.5 14 7.6s1.7 4.8 3.8 4.7S21 10.8 21 8.7zM6.9 11.4a4.2 4.2 0 003.7
  4.5c2.2.1 3-1.1 3.2-3s-1.5-4.6-3.6-4.7-3 1.3-3.4 3.1zm29.8
  1c-.2-1.7-1-3.2-3.1-3.4s-4 2.2-4 4.4a3.3 3.3 0 003.1 3.5h.3c1.9 0 3.6-2
  3.6-4.5z"></path></svg>