<svg
   xmlns="http://www.w3.org/2000/svg"
   viewBox="0 0 2000 2000">
  <path
     d="m 720.046,50.356331 c -5.49368,0 -16.46778,2.1e-4 -21.96146,5.480722 C 176.60597,220.51588 -108.84173,774.94329 55.837101,1296.4219 154.6444,1603.818 390.68845,1839.862 698.08454,1938.6693 c 21.96157,10.9742 43.92314,2e-4 49.40365,-21.9614 5.49368,-5.4805 5.49358,-10.9745 5.49358,-21.9487 v -76.8586 c 0,-16.4679 -16.46789,-38.4163 -32.93577,-49.4037 C 291.88104,1614.8055 72.304774,1137.2369 231.50309,714.55237 313.84251,484.00201 494.98932,308.34888 720.046,226.00946 c 21.96157,-10.97419 32.93577,-27.44197 32.93577,-54.89723 V 94.2664 c 0,-21.961569 -10.9742,-38.429558 -32.93577,-43.910069 z m 563.7059,1.186201 c -14.8478,0.362781 -27.301,10.47111 -31.2401,26.255984 -5.4937,5.493686 -5.4936,10.974094 -5.4936,21.961464 v 76.84583 c 0,21.96157 16.4679,43.90986 32.9358,54.89723 428.165,153.69146 647.7413,631.26007 488.543,1053.94456 -82.3395,230.5503 -263.4863,406.2035 -488.543,488.5429 -21.9616,10.9742 -32.9358,27.4419 -32.9358,54.8972 v 76.8459 c 0,21.9615 10.9742,38.4295 32.9358,43.9101 5.4937,0 16.4678,-3e-4 21.9615,-5.4808 521.4785,-164.6788 806.9262,-719.1062 642.2474,-1240.58483 -98.8073,-312.88978 -340.345,-548.93372 -642.2474,-647.741018 -6.1767,-3.08649 -12.3536,-4.436474 -18.1636,-4.29452 z M 956.08994,335.79106 c -21.96156,0 -38.42924,16.46768 -43.92292,43.92293 v 126.24949 c -164.67883,21.96156 -268.96685,131.74295 -268.96685,268.9797 0,181.14672 109.7816,252.49872 340.33196,279.95402 153.70467,27.4421 203.10817,60.3778 203.10817,148.2109 0,87.8331 -76.8589,148.211 -181.1467,148.211 -142.73044,0 -192.13388,-60.3908 -208.60176,-142.7302 -5.48052,-21.9484 -21.94861,-32.9357 -38.41649,-32.9357 h -93.32658 c -21.94839,0 -38.41649,16.4677 -38.41649,38.4293 v 5.4935 c 21.9484,137.2236 109.7816,236.0309 290.92832,263.4862 v 131.743 c 0,21.9484 16.46799,38.4164 43.91007,43.9101 h 82.33943 c 21.9616,0 38.4292,-16.468 43.9229,-43.9101 v -131.743 c 164.6788,-27.4553 274.4604,-142.7302 274.4604,-290.9412 0,-192.1209 -115.2752,-257.99267 -345.8255,-285.43475 -164.67883,-21.96157 -197.6146,-65.87132 -197.6146,-142.73023 0,-76.8589 54.89733,-126.24948 164.67883,-126.24948 98.80727,0 153.70467,32.93577 181.14667,115.27518 5.4937,16.46788 21.9615,27.44219 38.4294,27.44219 h 87.8201 c 21.9616,0 38.4294,-16.4681 38.4294,-38.41649 v -5.49358 C 1307.3961,615.74497 1208.5888,522.43125 1082.3394,511.45706 V 379.71399 c 0,-21.96157 -16.468,-38.42924 -43.9101,-43.92293 z" />
</svg>
