<svg
   xmlns="http://www.w3.org/2000/svg"
   viewBox="0 0 340 340">
  <path
     d="m 204.00747,181.5627 v 0 c -1.89942,0.14245 -11.71307,0.72811 -33.60384,0.72811 -17.41132,0 -29.77336,-0.52234 -34.11036,-0.72811 v 0 C 69.006441,178.60277 18.782703,166.88971 18.782703,152.86568 c 0,-14.02403 50.223738,-25.72127 117.510567,-28.72867 v 45.7601 c 4.40032,0.31657 16.99978,1.06051 34.4111,1.06051 20.89358,0 31.3562,-0.87056 33.23979,-1.04468 v -45.74428 c 67.14437,2.99158 117.25731,14.70465 117.25731,28.69702 0,13.99237 -50.09711,25.70544 -117.25731,28.68119 v 0 z m 0,-62.12675 V 78.487696 h 93.70455 V 16.04438 H 42.588723 V 78.487696 H 136.27744 V 119.42012 C 60.126668,122.91821 2.8592604,138.00275 2.8592604,156.07886 c 0,18.07611 57.2674076,33.14482 133.4181796,36.65874 v 131.21802 h 67.7142 V 192.69011 c 75.97666,-3.49809 133.1491,-18.56679 133.1491,-36.62708 0,-18.06028 -57.12495,-33.12899 -133.1491,-36.64291 v 0 z m 0,0 z" />
</svg>
