<svg
   xmlns="http://www.w3.org/2000/svg"
   viewBox="0 0 32 32">
  <path
     d="M 10.291853,1.6213685 C 9.9139958,1.6313595 9.4653617,1.7121265 8.9414397,1.8792042 4.7500632,3.2158241 1.612461,8.9761309 1.612461,8.9761309 3.081093,9.1081428 5.3441166,8.1361031 8.9414397,6.4364504 12.089098,4.9492534 12.936861,1.5514305 10.291853,1.6213685 Z M 23.570392,3.3391986 C 20.347187,3.3956646 15.556343,4.9132847 12.883103,6.3365389 9.3187824,8.2342094 7.1912511,11.172117 9.9469988,14.835446 11.529534,16.939176 15.71278,18.8033 19.528818,20.140415 l -0.357748,0.02256 v 0.860526 c 0.033,0.033 0.132141,0 0.132141,0 l 11.715408,-0.77673 h 0.148255 v -0.808958 l 0.161147,0.825074 A 17.310056,17.310056 0 0 0 30.50617,9.4885795 13.861246,13.861246 0 0 0 26.135856,3.8290864 C 25.545928,3.4660538 24.644792,3.3203765 23.570392,3.3391986 Z M 1.0194389,10.75842 c 0,0 -4.8183041,13.514586 8.3828822,19.669639 0,0 1.0234779,-5.395728 -0.8411895,-8.811535 A 43.151378,43.151378 0 0 0 3.5784579,13.926576 31.352818,31.352818 0 0 1 1.0194389,10.75842 Z m 18.0194911,9.472237 -7.986461,0.476997 0.244945,5.810971 7.741516,-0.464104 v -0.773507 -0.860526 -0.857304 -0.841189 -0.857303 -0.84119 z m -7.741516,6.287968 h -0.01289 c 0,0 0.06562,0.129691 0.01611,0.09669 z m 19.953257,-5.382319 -8.250742,0.512449 -3.696718,0.215937 v 0.857303 l 11.899117,-0.741278 h 0.08057 z m -0.03223,1.717829 -11.783091,0.709049 h -0.13214 v 0.857304 l 12.028033,-0.725163 0.01934,-0.84119 z m 0.04834,1.698493 -11.963575,0.728386 0.03223,0.825074 11.931346,-0.71227 z m 0.01611,1.733945 -19.801779,1.205382 v 0.841189 l 19.966149,-1.205382 -0.01611,-0.841189 z m 0.06768,1.682379 -19.950034,1.20538 v 0.84119 l 19.950034,-1.205383 z m 0.1966,1.698491 c -0.0495,-0.033 -0.03223,0.03545 -0.03223,0.03545 L 11.713174,30.88894 h -0.132142 v 0.792845 l 19.96615,-1.205382 z" />
</svg>
