<svg
   xmlns="http://www.w3.org/2000/svg"
   viewBox="0 0 332 324"
   version="1.1">
  <path d="M 143.82031 0.50976562 C 142.08031 0.52976563 140.32984 0.52929688 138.58984 0.52929688 C 138.60984 0.58929687 138.64016 0.64898437 138.66016 0.70898438 C 139.13016 0.70898438 139.60984 0.70945313 140.08984 0.68945312 L 143.75977 0.68945312 L 143.82031 0.50976562 z M 143.75977 0.69921875 C 142.53977 0.69921875 141.30984 0.7009375 140.08984 0.7109375 L 138.66016 0.7109375 C 136.22016 0.8409375 133.80992 1.2009375 131.41992 1.7109375 C 124.36992 3.2109375 117.80953 5.9696875 111.51953 9.4296875 C 105.18953 12.909688 99.310703 17.070859 93.720703 21.630859 C 93.010703 22.210859 92.241094 22.739453 91.621094 23.439453 C 91.571094 23.459453 91.520234 23.500781 91.490234 23.550781 L 91.490234 23.560547 L 91.429688 23.560547 L 91.429688 23.609375 C 91.269688 23.739375 91.111172 23.860234 90.951172 23.990234 C 84.761172 29.290234 79.010312 35.039375 73.570312 41.109375 C 67.110313 48.329375 61.150078 55.951094 55.580078 63.871094 C 47.280078 75.671094 39.930859 88.050591 33.380859 100.90039 C 28.960859 109.56039 24.940313 118.40945 21.320312 127.43945 C 17.550313 136.85945 14.090547 146.39992 11.310547 156.16992 C 11.000547 157.24992 10.620547 158.32039 10.310547 159.40039 C 8.0305369 167.45039 6.0597656 175.56906 4.5097656 183.78906 C 3.1897656 190.75906 2.1392187 197.76031 1.4492188 204.82031 C 0.93921475 209.94031 0.589375 215.0707 0.609375 220.2207 C 0.609375 222.5607 0.62085937 224.90023 0.63085938 227.24023 C 0.66085938 227.56023 0.6696875 227.87922 0.6796875 228.19922 C 0.6896875 228.69922 0.68015625 229.18945 0.66015625 229.68945 C 0.68015625 232.53945 0.91945512 235.37094 1.1894531 238.21094 C 1.6394531 242.84094 2.3410938 247.41922 3.3710938 251.94922 C 4.6510938 257.62922 6.400625 263.14016 8.890625 268.41016 C 11.560635 274.05016 14.949297 279.1807 19.529297 283.4707 C 22.199297 285.9707 25.141172 288.08086 28.451172 289.63086 C 31.391172 291.01086 34.369609 292.29938 37.349609 293.60938 C 39.389609 294.50937 41.410234 295.4793 43.490234 296.2793 C 43.370234 296.1893 43.250859 296.09 43.130859 296 C 43.130859 296 43.119375 296.00023 43.109375 295.99023 C 42.709375 295.70023 42.300859 295.42992 41.880859 295.16992 C 41.750859 295.08992 41.63 295.00969 41.5 294.92969 C 41.28 294.78969 41.059844 294.65977 40.839844 294.50977 C 40.709844 294.42977 40.590938 294.33977 40.460938 294.25977 C 37.450938 292.12977 34.829531 289.61023 32.519531 286.74023 C 30.089531 283.72023 28.019609 280.46094 26.349609 276.96094 C 25.259609 274.68094 24.260391 272.36023 23.400391 269.99023 C 22.800391 268.34023 22.251016 266.66094 21.791016 264.96094 C 21.581016 264.19094 21.441172 263.38914 21.201172 262.61914 C 20.431172 260.18914 19.97 257.68945 19.5 255.18945 C 19.16 253.39945 18.919922 251.5893 18.669922 249.7793 C 18.409922 247.9193 18.249297 246.03992 18.029297 244.16992 C 18.019297 244.04992 18.000234 243.92078 17.990234 243.80078 C 17.920234 243.09078 17.889609 242.37039 17.849609 241.65039 C 17.749609 239.71039 17.579844 237.77031 17.589844 235.82031 C 17.589844 234.55031 17.460703 233.27023 17.470703 231.99023 C 17.490703 229.32023 17.521094 226.65047 17.621094 223.98047 C 17.711094 221.65047 17.849297 219.32023 18.029297 216.99023 L 18.121094 215.82031 C 18.501094 211.58031 18.980547 207.35086 19.560547 203.13086 C 20.180547 198.69086 20.940781 194.27086 21.800781 189.88086 C 22.050781 188.59086 22.310313 187.29977 22.570312 186.00977 C 23.570312 181.14977 24.760781 176.34078 26.050781 171.55078 C 26.710781 169.08078 27.401094 166.61016 28.121094 164.16016 C 28.871094 161.60016 29.650469 159.0593 30.480469 156.5293 C 31.380469 153.7793 32.32 151.04055 33.25 148.31055 C 33.42 147.79055 33.730625 147.32055 33.890625 146.81055 C 34.870625 143.63055 36.090547 140.53922 37.310547 137.44922 C 39.110547 132.89922 40.930469 128.36016 42.980469 123.91016 C 44.870469 119.81016 46.689766 115.67039 48.759766 111.65039 C 49.579766 110.05039 50.389688 108.44008 51.179688 106.83008 C 51.459688 106.26008 51.861094 105.75969 52.121094 105.17969 C 52.971094 103.36969 53.910625 101.61089 54.890625 99.871094 C 55.360625 99.041094 55.729609 98.140391 56.349609 97.400391 C 57.339609 95.500391 58.389531 93.630547 59.519531 91.810547 C 60.179531 90.760547 60.760156 89.649844 61.410156 88.589844 C 63.170156 85.729844 64.88 82.850781 66.75 80.050781 C 68.82 76.940781 70.82 73.789766 73 70.759766 C 75.21 67.689766 77.42 64.611094 79.75 61.621094 C 80.51 60.641094 81.369609 59.750234 82.099609 58.740234 C 83.009609 57.470234 83.970234 56.240781 84.990234 55.050781 C 86.360234 53.440781 87.709609 51.810469 89.099609 50.230469 C 89.609609 49.650469 90.190938 49.131016 90.710938 48.541016 C 91.610938 47.521016 92.450625 46.450938 93.390625 45.460938 C 96.450625 42.240938 99.540747 39.051016 102.81055 36.041016 C 103.47055 35.431016 104.06906 34.740703 104.78906 34.220703 C 105.53906 33.680703 106.04063 32.891172 106.89062 32.451172 C 106.94062 32.421172 106.99906 32.389609 107.03906 32.349609 C 107.35906 32.099609 107.55039 31.669922 107.90039 31.419922 C 107.93039 31.399922 107.96047 31.379375 107.98047 31.359375 C 108.00047 31.239375 108.03961 31.140078 108.09961 31.080078 C 108.15961 31.010078 108.23008 30.970937 108.33008 30.960938 C 108.33219 30.960938 108.33573 30.960937 108.33789 30.960938 C 108.23901 30.971284 108.16896 31.010568 108.10938 31.080078 L 108.11914 31.080078 C 108.05914 31.140078 108.02 31.239375 108 31.359375 C 108.04 31.369375 108.09961 31.390625 108.09961 31.390625 L 108.11914 31.390625 L 108.2207 31.390625 C 108.2807 31.380625 108.33086 31.360312 108.38086 31.320312 C 108.46086 31.250313 108.51055 31.13 108.56055 31 L 108.56055 30.980469 C 108.55703 30.979591 108.55429 30.981271 108.55078 30.980469 C 108.66078 30.890469 108.77086 30.791172 108.88086 30.701172 C 109.03086 30.601172 109.1493 30.519687 109.2793 30.429688 C 109.9393 29.949687 110.53062 29.399844 111.14062 28.839844 C 112.08062 27.979844 113.11914 27.231172 114.11914 26.451172 C 118.14914 23.321172 122.3993 20.510391 126.7793 17.900391 C 127.2793 17.610391 127.80055 17.369609 128.31055 17.099609 C 129.84055 16.279609 131.34062 15.410391 132.89062 14.650391 C 136.92063 12.660391 141.10922 11.070391 145.44922 9.9003906 C 147.68922 9.3003906 149.95 8.8297656 152.25 8.5097656 C 155.04 8.1297656 157.85992 7.970625 160.66992 8.140625 C 163.73992 8.330625 166.76922 8.8095312 169.69922 9.7695312 C 169.84922 9.8195313 169.97937 9.83 170.10938 9.75 C 169.85938 9.48 169.47992 9.4798438 169.16992 9.3398438 L 169.19922 9.3398438 C 165.32922 7.6098437 161.44961 5.9296875 157.59961 4.1796875 C 153.18961 2.1696875 148.60977 0.92921875 143.75977 0.69921875 z M 187.08008 17.298828 C 187.04039 17.300234 186.99672 17.310078 186.94922 17.330078 L 186.94922 17.339844 C 187.01922 17.559844 187.19914 17.520469 187.36914 17.480469 C 187.28664 17.367969 187.19914 17.294609 187.08008 17.298828 z M 186.94922 17.330078 L 186.93945 17.330078 L 186.93945 17.339844 L 186.94922 17.330078 z M 192.14062 23.205078 C 191.60938 23.210078 191.08078 23.225 190.55078 23.25 C 189.14078 23.31 187.73984 23.440859 186.33984 23.630859 C 183.89984 23.970859 181.48008 24.480625 179.08008 25.140625 C 178.74008 25.240625 178.39078 25.329453 178.05078 25.439453 C 173.54078 26.779453 169.23984 28.590469 165.08984 30.730469 C 163.70984 31.440469 162.34047 32.190469 160.98047 32.980469 C 159.74047 33.690469 158.52055 34.419453 157.31055 35.189453 C 156.91055 35.439453 156.50938 35.700938 156.10938 35.960938 C 155.70937 36.220937 155.30992 36.48 154.91992 36.75 C 154.12992 37.28 153.35008 37.820859 152.58008 38.380859 C 152.20008 38.660859 151.80969 38.940703 151.42969 39.220703 L 151.42969 39.300781 C 151.42969 39.320781 151.41039 39.339375 151.40039 39.359375 C 151.37039 39.389375 151.32953 39.400391 151.26953 39.400391 L 151.25977 39.400391 L 151.25977 39.449219 C 151.25977 39.489219 151.2407 39.509531 151.2207 39.519531 C 151.2007 39.529531 151.18062 39.529531 151.14062 39.519531 C 151.13063 39.519531 151.10961 39.52 151.09961 39.5 C 149.39961 40.69 147.75062 41.930703 146.14062 43.220703 C 145.42063 43.790703 144.70977 44.380703 144.00977 44.970703 C 143.89977 45.060703 143.78969 45.16 143.67969 45.25 C 142.95969 45.86 142.2393 46.479375 141.5293 47.109375 L 141.5293 47.160156 C 141.5293 47.210156 141.51047 47.239531 141.48047 47.269531 C 141.48047 47.269531 141.45922 47.279063 141.44922 47.289062 C 141.42922 47.299062 141.39914 47.310547 141.36914 47.310547 C 141.34914 47.350547 141.31906 47.389922 141.28906 47.419922 C 141.24906 47.459922 141.21992 47.499297 141.16992 47.529297 C 141.10992 47.569297 141.04094 47.609141 140.96094 47.619141 C 140.96094 47.709141 140.94039 47.759297 140.90039 47.779297 C 140.84039 47.819297 140.73039 47.790781 140.65039 47.800781 C 140.38039 48.080781 140.10008 48.360859 139.83008 48.630859 C 139.81008 48.650859 139.7993 48.669688 139.7793 48.679688 L 139.7793 48.720703 C 139.7793 48.760703 139.76023 48.780547 139.74023 48.810547 L 139.73047 48.810547 C 139.73047 48.810547 139.66938 48.839844 139.60938 48.839844 C 139.36937 49.039844 139.11086 49.219687 138.88086 49.429688 C 138.86086 49.449688 138.84031 49.460469 138.82031 49.480469 C 137.94031 50.310469 137.04969 51.140234 136.17969 51.990234 C 136.11969 52.050234 136.05977 52.100391 136.00977 52.150391 C 135.73977 52.420391 135.45969 52.669688 135.17969 52.929688 C 134.47969 53.579687 133.75984 54.210625 133.08984 54.890625 C 132.72984 55.260625 132.36 55.630234 132 55.990234 C 129.92 58.100234 127.85914 60.229688 125.86914 62.429688 C 123.32914 65.239688 120.86094 68.099531 118.46094 71.019531 C 118.12094 71.439531 117.76969 71.849531 117.42969 72.269531 C 117.37969 72.329531 117.3193 72.400703 117.2793 72.470703 C 117.2093 72.570703 117.14031 72.669297 117.07031 72.779297 C 116.98031 72.919297 116.89078 73.059453 116.80078 73.189453 C 116.73078 73.289453 116.66008 73.380469 116.58008 73.480469 C 116.55008 73.510469 116.52977 73.540547 116.50977 73.560547 C 116.39977 73.680547 116.29016 73.790859 116.16016 73.880859 C 116.16016 73.910859 116.15063 73.919453 116.14062 73.939453 C 116.14062 73.959453 116.13914 73.98 116.11914 74 C 116.11914 74.01 116.09984 74.019297 116.08984 74.029297 C 116.06984 74.039297 116.03953 74.050547 116.01953 74.060547 C 115.95953 74.340547 115.72906 74.480156 115.53906 74.660156 C 115.52906 74.660156 115.51977 74.679453 115.50977 74.689453 C 115.44977 74.739453 115.40914 74.799375 115.36914 74.859375 C 115.34914 74.889375 115.33031 74.920938 115.32031 74.960938 C 115.31031 75.000938 115.2893 75.030312 115.2793 75.070312 L 115.2793 75.119141 C 115.2793 75.169141 115.2607 75.200469 115.2207 75.230469 C 115.2207 75.230469 115.19922 75.230234 115.19922 75.240234 L 115.16016 75.240234 L 115.11914 75.240234 C 114.67914 75.790234 114.22906 76.340625 113.78906 76.890625 C 113.76906 76.920625 113.7407 76.950469 113.7207 76.980469 C 113.7307 77.050469 113.7307 77.109922 113.7207 77.169922 C 113.7207 77.219922 113.68992 77.249062 113.66992 77.289062 C 113.66992 77.299063 113.65039 77.320078 113.65039 77.330078 C 113.62039 77.360078 113.57906 77.399922 113.53906 77.419922 C 113.48906 77.449922 113.42914 77.470234 113.36914 77.490234 C 113.29914 77.570234 113.23016 77.640703 113.16016 77.720703 C 113.13016 77.750703 113.10984 77.780781 113.08984 77.800781 C 113.02984 77.860781 112.97969 77.930234 112.92969 77.990234 C 111.79969 79.510234 110.66906 81.040547 109.53906 82.560547 C 109.53906 82.610547 109.52023 82.639922 109.49023 82.669922 L 109.4707 82.689453 C 109.4507 82.709453 109.42062 82.720703 109.39062 82.720703 C 108.61062 83.820703 107.80906 84.909531 107.03906 86.019531 L 106.58984 86.679688 C 105.43984 88.369687 104.35922 90.109063 103.19922 91.789062 C 102.61922 92.629063 102.06953 93.489844 101.51953 94.339844 C 100.95953 95.189844 100.40092 96.039141 99.791016 96.869141 C 98.821016 98.199141 97.990625 99.650547 97.140625 101.06055 C 96.770625 101.67055 96.401016 102.28063 96.041016 102.89062 C 91.931016 109.71062 87.941016 116.60055 84.541016 123.81055 C 84.341016 124.23055 84.110859 124.61953 83.880859 125.01953 C 83.650859 125.40953 83.410937 125.81094 83.210938 126.21094 C 82.050938 128.54094 80.920313 130.88023 79.820312 133.24023 C 79.410313 134.12023 79.009609 135.00063 78.599609 135.89062 C 78.069609 137.04063 77.551016 138.19937 77.041016 139.35938 C 76.391016 140.82937 75.739609 142.31078 75.099609 143.80078 C 74.829609 144.42078 74.570547 145.04969 74.310547 145.67969 C 73.980547 146.45969 73.650078 147.2393 73.330078 148.0293 C 72.190078 150.7993 71.089531 153.60039 70.019531 156.40039 C 69.709531 157.22039 69.399609 158.03914 69.099609 158.86914 C 68.369609 160.86914 67.659219 162.87086 66.949219 164.88086 L 66.439453 166.32031 C 66.309453 166.69031 66.180547 167.06922 66.060547 167.44922 C 65.730547 168.39922 65.419141 169.36031 65.119141 170.32031 C 64.749141 171.49031 64.389297 172.66008 64.029297 173.83008 C 63.769297 174.67008 63.510234 175.49984 63.240234 176.33984 C 62.630234 178.20984 61.919688 180.0593 61.679688 182.0293 C 61.669688 182.1293 61.550234 182.22055 61.490234 182.31055 C 61.190234 183.13055 61.010547 183.97055 60.810547 184.81055 C 60.710547 185.21055 60.590703 185.60977 60.470703 186.00977 C 60.350703 186.40977 60.229141 186.81094 60.119141 187.21094 C 59.659141 188.93094 59.211016 190.66062 58.791016 192.39062 C 58.401016 193.95063 58.029922 195.52961 57.669922 197.09961 C 57.269922 198.86961 56.889531 200.64016 56.519531 202.41016 C 56.199531 203.96016 55.889609 205.52008 55.599609 207.08008 C 55.369609 208.32008 55.139688 209.54906 54.929688 210.78906 C 54.739688 211.87906 54.570625 212.97055 54.390625 214.06055 C 54.170625 215.45055 53.959531 216.8307 53.769531 218.2207 C 53.599531 219.4707 53.439297 220.71094 53.279297 221.96094 C 52.859297 225.39094 52.52 228.81953 52.25 232.26953 C 52.18 233.25953 52.110547 234.24047 52.060547 235.23047 C 52.000547 236.22047 51.950156 237.19945 51.910156 238.18945 C 51.830156 240.15945 51.770938 242.13937 51.710938 244.10938 C 51.700938 244.55937 51.699453 245.01094 51.689453 245.46094 L 51.689453 245.86914 C 51.679453 248.39914 51.779375 250.91969 51.859375 253.42969 C 51.859375 253.53969 51.880859 253.65953 51.880859 253.76953 C 51.900859 254.21953 51.919219 254.66914 51.949219 255.11914 C 52.039219 256.93914 52.190859 258.76008 52.380859 260.58008 C 52.510859 261.81008 52.650547 263.0493 52.810547 264.2793 C 52.830547 264.4593 52.860859 264.63055 52.880859 264.81055 C 53.220859 267.31055 53.609609 269.79953 54.099609 272.26953 C 55.009609 276.88953 56.220859 281.42984 57.880859 285.83984 C 57.910859 285.90984 57.940703 285.99031 57.970703 286.07031 C 59.210703 289.33031 60.649922 292.49953 62.419922 295.51953 C 65.329922 300.48953 68.880156 304.89039 73.410156 308.40039 C 73.950156 308.82039 74.500547 309.21914 75.060547 309.61914 C 75.600547 309.98914 76.180234 310.32992 76.740234 310.66992 C 76.840234 310.73992 76.960312 310.78984 77.070312 310.83984 C 77.150312 310.87984 77.230547 310.90922 77.310547 310.94922 C 77.450547 311.01922 77.579922 311.11023 77.669922 311.24023 C 77.69549 311.27432 77.720526 311.32619 77.746094 311.37695 C 77.71379 311.37516 77.685378 311.36448 77.650391 311.36914 L 77.650391 311.39062 C 77.700391 311.58062 77.850234 311.56055 77.990234 311.56055 C 78.050234 311.72055 78.189844 311.73047 78.339844 311.73047 L 78.339844 311.7207 C 78.269844 311.5807 78.14 311.55078 78 311.55078 L 77.990234 311.55078 L 77.990234 311.53906 L 78 311.53906 C 77.96546 311.46011 77.916373 311.41393 77.857422 311.38867 C 77.962745 311.39502 78.056034 311.42886 78.109375 311.55078 L 78.119141 311.55078 C 78.259141 311.55078 78.390938 311.5907 78.460938 311.7207 C 78.500938 311.7207 78.530547 311.72047 78.560547 311.73047 L 78.570312 311.73047 C 78.660313 311.75047 78.740781 311.79086 78.800781 311.88086 L 78.800781 311.89062 L 78.830078 311.89062 L 78.890625 311.89062 C 78.910625 311.89062 78.919219 311.90039 78.949219 311.90039 C 78.959219 311.90039 78.980234 311.90016 78.990234 311.91016 C 79.010234 311.91016 79.030781 311.92945 79.050781 311.93945 C 79.050781 311.93945 79.070078 311.93922 79.080078 311.94922 L 79.140625 312.00977 L 79.150391 312.00977 C 79.340391 312.20977 79.599844 312.25914 79.839844 312.36914 C 84.829844 314.57914 89.830312 316.79 94.820312 319 C 97.290312 320.09 99.739809 321.24094 102.34961 321.96094 C 104.95961 322.68094 107.61031 323.1693 110.32031 323.2793 L 111.66992 323.2793 L 115.7207 323.2793 C 117.0307 323.2393 118.32914 323.06914 119.61914 322.86914 C 124.86914 322.07914 129.9093 320.52945 134.7793 318.43945 C 143.6993 314.60945 151.75078 309.38008 159.30078 303.33008 C 160.96078 302.00008 162.57945 300.63023 164.18945 299.24023 C 169.79945 299.34023 175.39977 299.37055 181.00977 299.31055 C 186.33219 299.25074 191.66384 299.15969 196.98633 298.95117 C 196.97098 298.95893 196.95467 298.96193 196.93945 298.9707 C 197.21945 299.0507 197.48977 299.06969 197.75977 298.92969 C 197.58002 298.85907 197.40102 298.84046 197.22656 298.87109 C 197.43184 298.80855 197.64514 298.82599 197.85938 298.91016 L 198.05664 298.91016 C 198.03788 298.91784 198.0187 298.92092 198 298.92969 C 198.33 299.01969 198.66047 299.03062 198.98047 298.89062 C 198.7554 298.82242 198.53049 298.80016 198.30859 298.83789 C 198.5626 298.77181 198.82125 298.79071 199.08008 298.86914 L 199.27734 298.86914 C 199.25869 298.87895 199.23917 298.87896 199.2207 298.89062 C 199.5007 298.97063 199.77906 298.95984 200.03906 298.83984 C 199.97906 298.81984 199.91961 298.79906 199.84961 298.78906 L 199.83984 298.78906 L 199.83008 298.78906 L 199.81055 298.78906 C 199.72493 298.77194 199.63952 298.77325 199.55469 298.78125 C 199.67204 298.75379 199.79067 298.74563 199.91016 298.76953 L 199.92969 298.76953 L 199.93945 298.76953 C 200.00945 298.78953 200.07086 298.81008 200.13086 298.83008 L 200.28906 298.83008 C 200.56906 298.92008 200.83937 298.90906 201.10938 298.78906 C 200.96347 298.75015 200.82759 298.72424 200.69141 298.72266 C 200.71416 298.71952 200.73701 298.71269 200.75977 298.71094 C 200.89977 298.71094 201.03945 298.7393 201.18945 298.7793 L 201.39648 298.7793 C 201.37756 298.78814 201.35877 298.79027 201.33984 298.80078 C 201.61984 298.88078 201.89992 298.88 202.16992 298.75 C 201.99463 298.68542 201.81978 298.66888 201.65234 298.69727 C 201.66802 298.69312 201.68354 298.68317 201.69922 298.67969 C 201.87922 298.63969 202.06977 298.66047 202.25977 298.73047 L 202.47852 298.73047 C 202.46568 298.73624 202.45224 298.73384 202.43945 298.74023 C 202.42945 298.75023 202.41016 298.75 202.41016 298.75 C 202.69016 298.84 202.96047 298.84094 203.23047 298.71094 C 203.10109 298.66118 202.96976 298.63521 202.83789 298.63867 C 202.99585 298.62079 203.15545 298.6298 203.31055 298.68945 L 203.50781 298.68945 C 203.49213 298.69807 203.47662 298.70106 203.46094 298.71094 C 203.75094 298.79094 204.01906 298.78016 204.28906 298.66016 C 204.08949 298.59134 203.90004 298.56657 203.71289 298.60938 C 203.92586 298.53567 204.14116 298.56201 204.36914 298.64062 L 204.56445 298.64062 C 204.54958 298.64834 204.53435 298.65137 204.51953 298.66016 C 204.80953 298.74016 205.07961 298.72938 205.34961 298.60938 C 205.15743 298.5476 204.96629 298.52471 204.77734 298.56445 C 204.99187 298.49617 205.21035 298.51934 205.42969 298.58984 L 205.61914 298.58984 C 205.60555 298.59751 205.59471 298.59962 205.58008 298.60938 C 205.80008 298.68938 206.03023 298.69055 206.24023 298.56055 L 206.25 298.56055 C 206.17 298.52055 206.08 298.5 206 298.5 C 205.92827 298.5 205.86212 298.50825 205.79297 298.52344 C 205.80156 298.51992 205.81178 298.51318 205.82031 298.50977 C 205.91031 298.47977 205.99008 298.48047 206.08008 298.48047 C 206.16008 298.48047 206.25008 298.49906 206.33008 298.53906 C 207.55008 298.47906 208.76047 298.43914 209.98047 298.36914 C 219.32047 297.81914 228.62969 297.08078 237.92969 296.05078 C 252.04969 294.48078 266.07945 292.37094 279.93945 289.21094 C 289.37945 287.06094 298.68945 284.47961 307.68945 280.84961 C 312.51945 278.89961 317.21078 276.67 321.55078 273.75 C 324.16078 271.99 326.57953 270.01047 328.51953 267.48047 C 329.73953 265.87047 330.72937 264.13914 331.10938 262.11914 C 331.25937 261.95914 331.32008 261.77031 331.33008 261.57031 C 331.42008 260.12031 331.46984 258.68047 331.33984 257.23047 L 331.25977 257.24023 C 331.26977 256.98023 331.28906 256.72094 331.28906 256.46094 C 331.28906 252.18094 331.30078 247.88937 331.30078 243.60938 C 331.30078 241.75938 331.26977 239.91055 331.25977 238.06055 C 331.25977 237.95055 331.31078 237.8307 331.30078 237.7207 C 331.27078 237.6507 331.22922 237.59906 331.19922 237.53906 L 331.19922 237.56055 C 331.19922 237.55055 331.19945 237.5393 331.18945 237.5293 C 331.10945 237.2593 331.01945 237.00047 330.93945 236.73047 C 330.81945 236.35047 330.67906 235.98086 330.53906 235.63086 C 330.39906 235.27086 330.24031 234.92031 330.07031 234.57031 C 329.90031 234.23031 329.70953 233.89031 329.51953 233.57031 C 329.28953 233.19031 329.04906 232.82094 328.78906 232.46094 C 328.25906 231.72094 327.66977 231.03086 327.00977 230.38086 C 326.61977 229.99086 326.2093 229.61023 325.7793 229.24023 C 325.4193 228.88023 325.04992 228.55047 324.66992 228.23047 C 323.01992 226.83047 321.19016 225.66945 319.41016 224.43945 C 318.94016 224.11945 318.45094 223.83055 317.96094 223.56055 C 317.57094 223.35055 317.16953 223.13945 316.76953 222.93945 C 316.46953 222.78945 316.15938 222.64023 315.85938 222.49023 C 315.46938 222.29023 315.07945 222.10016 314.68945 221.91016 C 313.10945 221.13016 311.52039 220.36016 309.90039 219.66016 C 308.83039 219.21016 307.76945 218.75984 306.68945 218.33984 C 302.38945 216.63984 298.01961 215.16914 293.59961 213.86914 C 290.27961 212.88914 286.93031 211.99969 283.57031 211.17969 C 281.35031 210.63969 279.13039 210.12063 276.90039 209.64062 C 274.67039 209.16063 272.43922 208.69977 270.19922 208.25977 C 266.38922 207.50977 262.57 206.82094 258.75 206.21094 C 257.47 206.01094 256.19992 205.80914 254.91992 205.61914 C 251.83992 205.15914 248.76969 204.72055 245.67969 204.31055 C 242.59969 203.90055 239.51016 203.5307 236.41016 203.2207 C 234.48016 203.0307 232.54914 202.83063 230.61914 202.64062 C 230.52914 202.64062 230.42984 202.61938 230.33984 202.60938 C 227.64984 202.33937 224.95977 202.08914 222.25977 201.86914 C 219.33977 201.62914 216.41023 201.43047 213.49023 201.23047 C 211.54023 201.10047 209.59062 200.98086 207.64062 200.88086 C 205.10063 200.74086 202.5593 200.60977 200.0293 200.50977 C 199.6393 200.48977 199.24938 200.47094 198.85938 200.46094 C 196.48937 200.36094 194.12977 200.28094 191.75977 200.21094 C 189.38977 200.14094 187.03016 200.07906 184.66016 200.03906 L 182.05078 200.00977 L 179.61914 199.98047 C 177.37914 199.96047 175.14016 199.95094 172.91016 199.96094 C 171.60016 199.96094 170.29023 199.97047 168.99023 199.98047 C 165.52023 200.01047 162.05008 200.06039 158.58008 200.15039 C 157.63008 200.17039 156.6807 200.2007 155.7207 200.2207 C 154.2507 200.2607 152.77078 200.30914 151.30078 200.36914 C 150.31078 200.40914 149.32008 200.46 148.33008 200.5 C 144.48008 200.66 140.6293 200.85984 136.7793 201.08984 C 132.6893 201.34984 128.59953 201.63047 124.51953 201.98047 C 121.81953 202.21047 119.11969 202.46047 116.42969 202.73047 C 112.38969 203.13047 108.36008 203.57984 104.33008 204.08984 C 100.30008 204.59984 96.279531 205.1593 92.269531 205.7793 C 91.159531 205.9493 90.049453 206.13031 88.939453 206.32031 C 88.189453 206.44031 87.449219 206.56922 86.699219 206.69922 C 86.129219 206.79922 85.560234 206.89023 84.990234 206.99023 C 85.800234 202.91023 86.729766 198.86008 87.759766 194.83008 C 88.149766 193.31008 88.530156 191.7993 88.910156 190.2793 C 89.450156 188.7893 89.839531 187.25047 90.269531 185.73047 C 90.319531 185.55047 90.369922 185.37922 90.419922 185.19922 C 92.529922 178.08922 94.929609 171.07969 97.599609 164.17969 C 97.602655 164.17179 97.606328 164.16414 97.609375 164.15625 C 97.677259 164.14752 97.740724 164.13959 97.810547 164.13086 C 104.48045 163.19086 111.18086 162.41023 117.88086 161.74023 C 119.80086 161.55023 121.72039 161.32039 123.65039 161.15039 C 128.41039 160.75039 133.17922 160.47969 137.94922 160.17969 C 144.14922 159.77969 150.36008 159.52961 156.58008 159.34961 L 156.81055 159.34961 C 162.10055 159.19961 167.38945 159.12914 172.68945 159.11914 C 174.01945 159.11914 175.34945 159.12086 176.68945 159.13086 C 179.70945 159.14086 182.73977 159.1707 185.75977 159.2207 C 189.18977 159.2807 192.60906 159.4093 196.03906 159.5293 L 196.13086 159.5293 C 199.41086 159.6493 202.6907 159.76969 205.9707 159.92969 C 208.4907 160.04969 211.0093 160.22992 213.5293 160.41992 L 215.15039 160.53906 C 218.93039 160.80906 222.70047 161.09086 226.48047 161.38086 C 227.41047 161.45086 228.32977 161.57992 229.25977 161.66992 C 234.25977 162.10992 239.25047 162.67055 244.23047 163.31055 C 246.46047 163.59055 248.68016 163.88945 250.91016 164.18945 C 255.60016 164.83945 260.27945 165.61969 264.93945 166.42969 C 269.42945 167.21969 273.90961 168.10914 278.34961 169.11914 C 282.25961 170.00914 286.14977 170.9793 290.00977 172.0293 C 295.07977 173.4093 300.06047 175.01984 304.98047 176.83984 C 309.23047 178.41984 313.34031 180.27922 317.32031 182.44922 C 320.06031 183.94922 322.6593 185.62992 325.0293 187.66992 C 327.1793 189.51992 329.06055 191.59922 330.31055 194.19922 C 330.81055 195.22922 331.03938 196.33992 331.35938 197.41992 C 331.36937 195.26992 331.39039 193.1207 331.40039 190.9707 L 331.40039 181.39062 C 331.40039 180.23063 331.44086 179.06016 331.38086 177.91016 L 331.34961 177.89062 C 331.22961 175.50063 330.31969 173.3907 328.92969 171.4707 C 326.96969 168.7407 324.43922 166.61047 321.69922 164.73047 C 317.02922 161.53047 311.91945 159.18008 306.68945 157.08008 C 303.77945 155.91008 300.82961 154.87016 297.84961 153.91016 C 293.30961 152.45016 288.70031 151.20055 284.07031 150.06055 C 278.28031 148.64055 272.45961 147.40984 266.59961 146.33984 C 263.02961 145.68984 259.44938 145.05906 255.85938 144.53906 C 255.74937 144.53906 255.6393 144.52953 255.5293 144.51953 C 255.4693 144.51953 255.39984 144.51 255.33984 144.5 C 255.20984 144.49 255.06945 144.47094 254.93945 144.46094 C 254.63945 144.42094 254.32906 144.35906 254.03906 144.28906 C 252.96906 144.11906 251.90984 143.94953 250.83984 143.76953 C 250.24 143.68246 249.64086 143.5956 249.04102 143.51758 C 249.84007 139.58146 250.56052 135.64577 251.16992 131.67969 C 251.70992 128.11969 252.19055 124.5507 252.56055 120.9707 C 252.91055 117.6207 253.22086 114.27039 253.38086 110.90039 C 253.46086 109.28039 253.55039 107.6493 253.65039 106.0293 C 253.66039 105.8193 253.55086 105.53922 253.88086 105.44922 C 253.88086 102.42922 253.85961 99.400859 253.84961 96.380859 C 253.68961 96.310859 253.68016 96.169531 253.66016 96.019531 C 253.62016 95.409531 253.5493 94.809219 253.5293 94.199219 C 253.4093 89.809219 253.00992 85.449375 252.41992 81.109375 C 251.76992 76.299375 250.81047 71.560625 249.48047 66.890625 C 249.15047 65.720625 248.86961 64.539688 248.34961 63.429688 L 248.24023 63.029297 C 248.24023 63.029297 248.19922 63.000469 248.19922 62.980469 L 248.19922 62.939453 C 248.16922 62.799453 248.14961 62.659531 248.09961 62.519531 C 246.16961 56.949531 243.64969 51.669141 240.17969 46.869141 C 236.83969 42.239141 232.80984 38.370234 227.83984 35.490234 C 225.97984 34.410234 223.96078 33.649687 222.05078 32.679688 C 221.88078 32.589687 221.66094 32.610312 221.46094 32.570312 C 221.29094 32.350313 221.01906 32.289688 220.78906 32.179688 C 216.27906 30.179688 211.77977 28.179219 207.25977 26.199219 C 206.67977 25.939219 206.15 25.560469 205.5 25.480469 C 205.39 25.440469 205.27992 25.409141 205.16992 25.369141 C 204.39992 25.119141 203.60914 24.939844 202.86914 24.589844 C 202.79914 24.569844 202.73992 24.549531 202.66992 24.519531 C 202.63992 24.509531 202.60031 24.500234 202.57031 24.490234 L 202.55078 24.490234 C 202.49328 24.526173 202.45171 24.507431 202.41406 24.472656 C 202.43945 24.479184 202.46615 24.482096 202.5 24.460938 L 202.51953 24.460938 C 202.49953 24.430938 202.42969 24.400391 202.42969 24.400391 C 202.38969 24.380391 202.36031 24.390391 202.32031 24.400391 C 202.32833 24.411613 202.33756 24.414395 202.3457 24.423828 C 200.90355 24.056801 199.46204 23.778995 198 23.580078 C 196.94 23.430078 195.88055 23.319766 194.81055 23.259766 C 194.45055 23.239766 194.10023 23.230703 193.74023 23.220703 C 193.20523 23.205703 192.67187 23.200078 192.14062 23.205078 z M 78.339844 311.73047 C 78.417851 311.85723 78.543685 311.88717 78.679688 311.88867 L 78.679688 311.88086 C 78.619688 311.79086 78.539219 311.75047 78.449219 311.73047 L 78.439453 311.73047 L 78.339844 311.73047 z M 78.679688 311.88867 L 78.679688 311.89062 L 78.689453 311.89062 C 78.685966 311.89062 78.683162 311.88871 78.679688 311.88867 z M 78.689453 311.89062 C 78.779453 312.00063 78.899062 312.03906 79.039062 312.03906 L 79.029297 312.00977 L 79.019531 312.00977 L 78.958984 311.94922 C 78.948984 311.93922 78.929688 311.93945 78.929688 311.93945 C 78.909687 311.92945 78.889141 311.91016 78.869141 311.91016 C 78.859141 311.90016 78.840078 311.90039 78.830078 311.90039 C 78.810078 311.90039 78.799297 311.89062 78.779297 311.89062 L 78.720703 311.89062 L 78.689453 311.89062 z M 202.83984 24.259766 C 202.82984 24.359766 202.82031 24.460547 202.82031 24.560547 C 203.56031 24.910547 204.34914 25.089844 205.11914 25.339844 L 205.10938 25.339844 C 205.21937 25.379844 205.32945 25.409219 205.43945 25.449219 C 204.62945 24.929219 203.75984 24.539766 202.83984 24.259766 z M 151.40039 39.189453 C 151.34039 39.249453 151.28047 39.299375 151.23047 39.359375 C 151.29047 39.359375 151.32937 39.350313 151.35938 39.320312 L 151.39062 39.259766 L 151.40039 39.269531 L 151.40039 39.189453 z M 151.21094 39.369141 L 151.21094 39.375 C 151.21441 39.373233 151.21717 39.370908 151.2207 39.369141 L 151.21094 39.369141 z M 151.21094 39.375 C 151.15552 39.403233 151.10725 39.432705 151.05078 39.460938 C 151.06078 39.480937 151.07984 39.480469 151.08984 39.480469 C 151.12984 39.490469 151.14992 39.490469 151.16992 39.480469 C 151.18992 39.470469 151.21094 39.450156 151.21094 39.410156 L 151.21094 39.375 z M 141.48047 47.080078 C 141.43047 47.140078 141.37031 47.209531 141.32031 47.269531 C 141.35031 47.269531 141.38039 47.26 141.40039 47.25 C 141.41039 47.24 141.42969 47.230469 141.42969 47.230469 C 141.45969 47.200469 141.48047 47.119141 141.48047 47.119141 L 141.48047 47.080078 z M 140.91016 47.570312 C 140.84016 47.570312 140.78047 47.589141 140.73047 47.619141 C 140.68047 47.649141 140.63961 47.69 140.59961 47.75 C 140.67961 47.74 140.78961 47.770469 140.84961 47.730469 C 140.88961 47.710469 140.91016 47.660312 140.91016 47.570312 z M 139.73047 48.640625 C 139.67047 48.700625 139.62055 48.750781 139.56055 48.800781 C 139.62055 48.800781 139.67969 48.769531 139.67969 48.769531 L 139.68945 48.769531 C 139.70945 48.739531 139.73047 48.719687 139.73047 48.679688 L 139.73047 48.640625 z M 202.00977 50.529297 C 202.65977 50.519297 203.31094 50.519297 203.96094 50.529297 C 204.41094 50.539297 204.87031 50.560078 205.32031 50.580078 C 205.67031 50.600078 206.01914 50.620391 206.36914 50.650391 C 206.42914 50.650391 206.48906 50.659922 206.53906 50.669922 C 206.64906 50.689922 206.74961 50.719766 206.84961 50.759766 C 206.94961 50.799766 207.04086 50.850156 207.13086 50.910156 C 207.26086 50.990156 207.38977 51.100938 207.50977 51.210938 C 207.81977 51.490938 208.12016 51.780312 208.41016 52.070312 C 209.00016 52.650312 209.56938 53.260859 210.10938 53.880859 C 211.47938 55.430859 212.70984 57.079844 213.83984 58.839844 C 216.59984 63.149844 218.59937 67.809453 220.10938 72.689453 C 220.57937 74.199453 221.00086 75.72 221.38086 77.25 C 222.01086 79.8 222.50063 82.390234 222.89062 84.990234 C 223.00063 85.750234 223.11094 86.509297 223.21094 87.279297 C 223.40094 88.809297 223.57094 90.339141 223.71094 91.869141 C 223.77094 92.639141 223.83062 93.399922 223.89062 94.169922 C 224.17063 98.349922 224.28969 102.5307 224.17969 106.7207 C 224.05969 111.1007 223.79938 115.47961 223.35938 119.84961 C 222.91938 124.18961 222.31961 128.51078 221.59961 132.80078 C 221.16982 135.37952 220.68963 137.94732 220.16992 140.49609 C 220.14971 140.49457 220.12959 140.49174 220.10938 140.49023 C 215.96938 140.16023 211.82969 139.87969 207.67969 139.67969 C 205.68969 139.58969 203.68945 139.48086 201.68945 139.38086 C 200.17945 139.31086 198.66039 139.22992 197.15039 139.16992 C 193.69039 139.03992 190.2393 138.96063 186.7793 138.89062 C 185.4893 138.86062 184.19992 138.84031 182.91992 138.82031 C 182.91992 138.82031 185.29023 129.28094 186.24023 124.46094 C 186.96023 120.85094 187.58086 117.22008 188.13086 113.58008 C 188.49086 111.14008 188.80984 108.7 189.08984 106.25 C 189.37984 103.69 189.60953 101.12082 189.76953 98.541016 C 189.93953 95.791016 190.04938 93.029297 190.10938 90.279297 C 190.17937 86.589297 190.05906 82.910469 189.78906 79.230469 C 189.60906 76.800469 189.38031 74.380938 189.07031 71.960938 C 188.65031 68.650937 188.04977 65.380625 187.25977 62.140625 C 186.63239 59.561394 185.91496 56.99222 184.96094 54.501953 C 184.96741 54.50137 184.974 54.5 184.98047 54.5 C 185.64047 54.08 186.40086 53.869609 187.13086 53.599609 C 188.61086 53.049609 190.09914 52.570391 191.61914 52.150391 C 193.13914 51.740391 194.67047 51.390859 196.23047 51.130859 C 196.34047 51.110859 196.44078 51.080078 196.55078 51.080078 C 196.62078 51.080078 196.68023 51.079609 196.74023 51.099609 C 197.61023 50.819609 198.52016 50.789219 199.41016 50.699219 C 199.88016 50.649219 200.35055 50.610078 200.81055 50.580078 C 201.21055 50.560078 201.60977 50.539297 202.00977 50.529297 z M 171.66406 61.652344 C 172.58067 67.452065 173.01064 73.280901 173.06055 79.150391 C 173.14055 87.560391 172.51914 95.9202 171.36914 104.25 C 170.49914 110.52 169.34922 116.73992 167.94922 122.91992 C 166.73922 128.27992 165.3393 133.58961 163.7793 138.84961 C 160.0093 138.88961 156.23094 139.01086 152.46094 139.13086 C 147.44094 139.30086 142.42016 139.52961 137.41016 139.84961 C 132.99016 140.12961 128.56063 140.42078 124.14062 140.80078 C 118.4111 141.29987 112.69184 141.85843 106.99219 142.55664 C 111.51922 133.19494 116.54382 124.09167 122.11914 115.28906 C 127.32914 107.02906 133.00094 99.110312 139.21094 91.570312 C 139.34094 91.420312 139.44055 91.240078 139.56055 91.080078 C 141.43055 88.940078 143.26969 86.779922 145.17969 84.669922 C 151.39969 77.779922 158.09953 71.400547 165.51953 65.810547 C 167.34953 64.430547 169.23938 63.130781 171.10938 61.800781 C 171.27223 61.685828 171.47175 61.662881 171.66406 61.652344 z M 116.09961 73.849609 C 116.07961 73.859609 116.05906 73.869141 116.03906 73.869141 C 115.99906 73.889141 115.96094 73.930469 115.96094 73.980469 L 115.96094 74.029297 C 115.98094 74.019297 116.0093 74.01 116.0293 74 C 116.0393 73.99 116.06055 73.980703 116.06055 73.970703 C 116.08055 73.950703 116.08008 73.930156 116.08008 73.910156 C 116.09008 73.890156 116.09961 73.879609 116.09961 73.849609 z M 115.19922 75.029297 C 115.14922 75.089297 115.10078 75.160703 115.05078 75.220703 L 115.08984 75.220703 L 115.13086 75.220703 C 115.13086 75.210703 115.15039 75.210938 115.15039 75.210938 L 115.14062 75.189453 C 115.18063 75.159453 115.19922 75.130078 115.19922 75.080078 L 115.19922 75.029297 z M 91.630859 76.169922 C 91.590859 76.169922 91.529297 76.208984 91.529297 76.208984 L 91.519531 76.199219 C 91.509531 76.209219 91.5 76.230234 91.5 76.240234 L 91.5 76.300781 C 91.54 76.290781 91.569844 76.279766 91.589844 76.259766 C 91.609844 76.239766 91.630859 76.209922 91.630859 76.169922 z M 113.65039 76.960938 L 113.5 77.050781 C 113.46 77.090781 113.41086 77.120156 113.38086 77.160156 C 113.35086 77.200156 113.33055 77.250781 113.31055 77.300781 C 113.30055 77.320781 113.30078 77.350859 113.30078 77.380859 L 113.30078 77.480469 C 113.37078 77.460469 113.4207 77.440156 113.4707 77.410156 C 113.5107 77.390156 113.58008 77.320312 113.58008 77.320312 L 113.58008 77.310547 C 113.58008 77.300547 113.59961 77.279531 113.59961 77.269531 C 113.61961 77.229531 113.65039 77.200391 113.65039 77.150391 C 113.66039 77.090391 113.66039 77.030938 113.65039 76.960938 z M 109.46094 82.570312 C 109.44094 82.570312 109.42039 82.589844 109.40039 82.589844 C 109.37039 82.609844 109.31055 82.669922 109.31055 82.669922 L 109.31055 82.699219 L 109.31055 82.730469 C 109.34055 82.730469 109.37063 82.719219 109.39062 82.699219 L 109.41016 82.679688 C 109.44016 82.649687 109.46094 82.570312 109.46094 82.570312 z M 236.58203 141.97266 C 237.26874 142.10409 237.96443 142.18246 238.66016 142.25977 C 239.38016 142.33977 240.10031 142.40023 240.82031 142.49023 C 243.29031 142.81023 245.77023 143.10039 248.24023 143.40039 C 248.27391 143.36671 248.29691 143.33251 248.31641 143.29883 C 248.34764 143.30267 248.37892 143.3067 248.41016 143.31055 C 248.39183 143.3472 248.36324 143.38327 248.32812 143.41992 C 248.30535 143.41707 248.28254 143.413 248.25977 143.41016 C 245.78977 143.11016 243.30984 142.82 240.83984 142.5 C 240.11984 142.41 239.39969 142.34953 238.67969 142.26953 C 237.98001 142.20151 237.28035 142.1138 236.58984 141.98047 C 236.58984 141.98047 236.58789 141.98047 236.58789 141.98047 C 236.58579 141.97785 236.58414 141.97523 236.58203 141.97266 z M 255.7793 144.17969 C 255.8893 144.44969 255.6993 144.44922 255.5293 144.44922 L 255.53906 144.46094 C 255.03906 144.43094 254.54906 144.2493 254.03906 144.2793 C 254.32906 144.3493 254.63945 144.40922 254.93945 144.44922 C 255.06945 144.45922 255.20984 144.48023 255.33984 144.49023 C 255.39984 144.50023 255.4693 144.50977 255.5293 144.50977 C 255.6393 144.51977 255.74937 144.5293 255.85938 144.5293 C 255.83937 144.3993 255.84016 144.29023 255.91016 144.24023 C 255.93969 144.22054 255.97842 144.21124 256.02734 144.21094 C 255.93819 144.20086 255.85868 144.17969 255.7793 144.17969 z M 173.83984 225.69922 C 178.08984 225.69922 182.34008 225.74961 186.58008 225.84961 C 185.66008 227.37961 184.7293 228.90992 183.7793 230.41992 C 183.0893 231.52992 182.38969 232.6307 181.67969 233.7207 C 180.40969 235.6707 179.12078 237.59953 177.80078 239.51953 C 175.36078 243.05953 172.82922 246.52969 170.19922 249.92969 C 169.36922 251.00969 168.52992 252.08062 167.66992 253.14062 C 167.51992 253.33062 167.3707 253.51922 167.2207 253.69922 C 165.9807 255.23922 164.71969 256.75023 163.42969 258.24023 C 161.27969 260.73023 159.07078 263.15906 156.80078 265.53906 C 156.11078 266.25906 155.4207 266.97945 154.7207 267.68945 C 152.9207 269.50945 151.06016 271.28953 149.16016 273.01953 C 148.85016 273.29953 148.54047 273.58914 148.23047 273.86914 C 147.8139 274.23628 147.39703 274.61349 146.98047 274.98047 C 144.03047 277.57047 140.99031 280.02055 137.82031 282.31055 C 134.65031 284.59055 131.35992 286.70961 127.91992 288.59961 C 127.42992 288.86961 126.92969 289.14039 126.42969 289.40039 C 125.27969 290.00039 124.11922 290.56914 122.94922 291.11914 C 121.77922 291.65914 120.59062 292.16086 119.39062 292.63086 C 116.99062 293.57086 114.53023 294.34922 111.99023 294.94922 C 110.89023 295.20922 109.78945 295.42961 108.68945 295.59961 C 108.67761 295.60143 108.66614 295.60365 108.6543 295.60547 C 108.6543 295.60547 108.65234 295.60547 108.65234 295.60547 C 104.51476 295.11663 100.38764 294.57868 96.259766 293.98047 C 95.429766 293.12047 94.640391 292.21906 93.900391 291.28906 C 93.410391 290.66906 92.930703 290.02914 92.470703 289.36914 C 92.240703 289.03914 92.020781 288.71086 91.800781 288.38086 C 91.780781 288.35086 91.769766 288.31906 91.759766 288.28906 C 91.749766 288.23906 91.730703 288.18086 91.720703 288.13086 C 91.630703 288.04086 91.509453 287.94961 91.439453 287.84961 L 91.419922 287.83008 C 90.389922 286.20008 89.459141 284.51906 88.619141 282.78906 C 88.199141 281.91906 87.799688 281.05992 87.429688 280.16992 C 87.049688 279.28992 86.699141 278.39047 86.369141 277.48047 C 86.33075 277.37489 86.339262 277.26871 86.322266 277.1543 C 88.668145 276.16568 90.984316 275.08705 93.230469 273.86914 C 96.340469 272.18914 99.330803 270.33008 102.2207 268.33008 C 103.1007 267.73008 103.96031 267.1107 104.82031 266.4707 C 109.97031 262.6707 114.76008 258.4407 119.33008 253.9707 C 120.48008 252.8507 121.58922 251.69906 122.69922 250.53906 C 124.25922 248.89906 125.77906 247.23078 127.28906 245.55078 C 129.93906 242.58078 132.47922 239.52039 134.94922 236.40039 C 137.45922 233.22039 139.88094 229.97969 142.21094 226.67969 C 134.63094 227.13969 127.06 227.77914 119.5 228.61914 L 119.48633 228.60938 C 119.4876 228.60925 119.48896 228.6095 119.49023 228.60938 C 127.05023 227.76937 134.61922 227.12992 142.19922 226.66992 C 144.32922 226.53992 146.46008 226.42031 148.58008 226.32031 C 154.02008 226.06031 159.46039 225.88906 164.90039 225.78906 C 167.88039 225.72906 170.85984 225.69922 173.83984 225.69922 z M 218.40039 227.58008 C 223.46039 228.02008 228.51055 228.53039 233.56055 229.15039 C 233.93055 229.19039 234.29969 229.27008 234.67969 229.33008 C 236.93969 229.49008 239.18016 229.83016 241.41016 230.16016 C 244.28016 230.58016 247.14977 231.03953 250.00977 231.51953 C 253.86977 232.16953 257.73055 232.8907 261.56055 233.7207 C 263.63055 234.1707 265.68977 234.63008 267.75977 235.08008 C 267.77977 235.08008 267.81008 235.07984 267.83008 235.08984 C 267.83397 235.08984 267.83979 235.09172 267.84375 235.0918 C 268.14296 235.24812 268.47344 235.3256 268.81445 235.35547 C 268.81621 235.35731 268.81857 235.35751 268.82031 235.35938 C 273.24031 236.48937 277.65047 237.67938 281.98047 239.10938 C 282.38047 239.23937 282.84039 239.27914 283.15039 239.61914 C 284.28039 239.81914 285.30914 240.28969 286.36914 240.67969 C 287.29914 241.01969 288.23039 241.38 289.15039 241.75 C 291.78039 242.79 294.35938 243.93953 296.85938 245.26953 C 297.84938 245.78953 298.8193 246.33992 299.7793 246.91992 C 301.0493 247.68992 302.28922 248.49969 303.44922 249.42969 C 303.78922 249.69969 303.88977 249.8107 303.75977 249.9707 L 303.7793 249.96094 C 303.7193 250.04094 303.62094 250.12023 303.46094 250.24023 C 303.25094 250.40023 303.04031 250.5707 302.82031 250.7207 C 302.61031 250.8807 302.38992 251.02945 302.16992 251.18945 C 301.75992 251.47945 301.34016 251.7593 300.91016 252.0293 C 300.86016 252.0593 300.80977 252.09086 300.75977 252.13086 C 300.40977 252.35086 300.05922 252.5693 299.69922 252.7793 C 299.16922 253.0993 298.64938 253.39922 298.10938 253.69922 C 294.44937 255.73922 290.59992 257.38008 286.66992 258.83008 C 282.95992 260.19008 279.20016 261.37945 275.41016 262.43945 C 269.98016 263.95945 264.47969 265.22031 258.92969 266.32031 C 253.53969 267.40031 248.12922 268.30961 242.69922 269.09961 C 237.26922 269.88961 231.81938 270.54914 226.35938 271.11914 C 224.56938 271.30914 222.78023 271.48039 220.99023 271.65039 C 217.40023 271.98039 213.8107 272.26 210.2207 272.5 C 208.4207 272.62 206.62008 272.73008 204.83008 272.83008 C 200.80008 273.06008 196.77023 273.22938 192.74023 273.35938 C 192.01023 273.37937 191.27906 273.40969 190.53906 273.42969 C 189.86906 273.44969 189.19953 273.47023 188.51953 273.49023 C 190.16953 271.45023 191.82008 269.41953 193.33008 267.26953 C 193.55008 266.99953 193.77047 266.72922 193.98047 266.44922 C 197.21047 262.09922 200.30906 257.67016 203.28906 253.16016 C 203.44906 252.91016 204.2793 251.64977 204.5293 251.25977 C 206.4193 248.34977 208.24906 245.40969 210.03906 242.42969 C 212.95906 237.54969 215.75039 232.60008 218.40039 227.58008 z M 117.9707 228.76367 C 113.0537 235.01887 107.80537 240.98424 102.10938 246.57031 C 101.74938 246.93031 101.37953 247.28086 101.01953 247.63086 C 101.18953 247.66086 101.35953 247.6907 101.51953 247.7207 C 101.34953 247.6907 101.18953 247.66062 101.01953 247.64062 C 96.849631 251.67063 92.470781 255.45016 87.800781 258.91016 C 86.104264 260.16757 84.407924 261.42556 82.572266 262.49414 C 82.571825 262.48962 82.570763 262.48498 82.570312 262.48047 C 82.230312 261.01047 82.080156 259.50977 81.910156 258.00977 C 81.330156 253.22977 81.109609 248.43086 81.099609 243.63086 C 81.099609 241.82086 81.119922 239.99969 81.169922 238.17969 C 81.199922 237.09969 81.250547 236.03094 81.310547 234.96094 C 85.260547 234.02094 89.240469 233.18969 93.230469 232.42969 C 100.05037 231.13969 106.90906 230.09023 113.78906 229.24023 C 113.89906 229.23023 114.00914 229.20922 114.11914 229.19922 C 114.24914 229.17922 114.37977 229.16969 114.50977 229.17969 C 114.58977 229.17969 114.67 229.2007 114.75 229.2207 C 115.81038 228.99277 116.89051 228.87287 117.9707 228.76367 z M 101.01953 247.63086 L 101.01953 247.61914 L 100.38086 247.51953 C 100.59086 247.55953 100.80953 247.60086 101.01953 247.63086 z M 94.830078 246.56055 C 96.680078 246.90055 98.530959 247.2193 100.38086 247.5293 C 98.530959 247.2193 96.670078 246.90055 94.830078 246.56055 z M 83.335938 266.85156 C 83.504882 267.65412 83.68056 268.45547 83.871094 269.25195 C 83.680648 268.45473 83.502865 267.65488 83.335938 266.85156 z M 136.13086 272.18945 C 137.91086 272.32945 139.70047 272.46984 141.48047 272.58984 C 139.69047 272.46984 137.91086 272.32945 136.13086 272.18945 z M 60.089844 303.56055 C 60.139844 303.71055 60.250625 303.7507 60.390625 303.7207 C 60.350625 303.5607 60.239844 303.53055 60.089844 303.56055 z M 76.619141 310.66992 L 76.400391 310.86914 C 76.760391 311.16914 77.170625 311.36039 77.640625 311.40039 C 77.610625 311.34039 77.580781 311.28023 77.550781 311.24023 C 77.460781 311.11023 77.329453 311.01922 77.189453 310.94922 C 77.109453 310.90922 77.029219 310.87984 76.949219 310.83984 C 76.839219 310.78984 76.719141 310.73992 76.619141 310.66992 z M 115.61914 323.30078 L 115.60938 323.31055 L 111.56055 323.31055 L 110.21094 323.31055 L 110.11914 323.49023 L 115.69922 323.4707 C 115.67922 323.4207 115.64914 323.36078 115.61914 323.30078 z " />
</svg>
