<svg
   xmlns="http://www.w3.org/2000/svg"
   viewBox="0 0 400 400"
   version="1.1">
  <path
     d="m 252.83539,19.21994 c -6.85736,0 -9.0392,0.935083 -12.15625,7.169035 L 174.32789,156.61383 107.94858,27.40442 l -0.0183,-0.03591 c -0.27067,-0.86926 -0.63774,-1.834089 -1.40811,-2.96782 -1.10814,-1.630832 -3.07867,-3.1354 -4.7753,-3.814024 -3.393255,-1.357319 -5.380571,-1.046525 -8.188743,-1.046525 H 4.582047 L 59.487001,126.89059 153.09232,310.65673 c 0.59742,1.36552 1.33601,2.56626 2.22024,3.5918 l 29.22221,57.13556 0.17411,0.34822 c 1.13887,2.61218 3.25934,5.3956 6.10367,6.99554 2.99163,1.68279 6.08145,2.05221 9.03427,2.05221 h 0.31174 c 2.95294,0 6.04274,-0.36942 9.0344,-2.05221 2.84498,-1.60032 4.96552,-4.38471 6.10428,-6.99735 l 0.19055,-0.38111 L 395.41795,19.228445 H 317.406 c -0.11966,-0.0047 -0.23981,-0.0082 -0.36099,-0.0082 z m 65.23538,16.199741 h 50.89062 L 201.03764,364.0452 l -0.24893,0.498 c -0.20763,0.0193 -0.2784,0.0456 -0.63015,0.0456 h -0.31174 c -0.35163,0 -0.42252,-0.0262 -0.63003,-0.0456 l -0.24963,-0.49983 -0.0164,-0.0329 -24.51634,-47.93377 c 1.75551,-1.27365 3.07608,-3.0704 3.90535,-5.42001 z" />
</svg>
