<svg
   xmlns="http://www.w3.org/2000/svg"
   viewBox="0 0 300.00001 299.99999"
   version="1.1">
  <path
     d="m 196.41693,2.9672406 c -3.81139,0 -7.62392,0.8806944 -11.43531,1.1738781 L 38.979586,24.663976 c -5.694353,0.569451 -10.83166,3.3588 -15.151641,7.27808 l 69.974699,42.855186 c 0.293183,0.293184 3.520494,2.052286 8.211436,1.465918 l 60.10265,-8.50347 4.39776,-0.58408 c 2.05228,-0.293184 3.80795,1.759102 3.80795,4.397755 L 170.0304,177.70357 c 0,2.63865 1.46363,4.39776 3.51592,4.39776 h 0.5898 l 11.13754,-1.46592 h 0.58981 c 2.05228,-0.58637 3.51591,-2.92841 3.51591,-5.27388 l 0.29204,-106.135921 c 0,-2.638653 1.76139,-4.980693 3.81368,-5.273876 l 62.74245,-8.795511 4.39775,-0.589797 c 2.34547,-0.293184 3.81139,1.468205 2.93184,5.279593 L 263.2651,165.97622 c 0,2.34547 -1.46935,4.69323 -3.52164,5.2796 h -0.58407 -0.58981 c -0.29318,2.34547 -1.75681,4.39547 -3.51591,4.98183 h -0.58408 l -14.95695,2.05572 v 0.29201 48.37531 c 0,2.63865 -1.75566,4.98641 -3.80795,5.27959 h -0.5898 c 0,2.63865 -1.75567,4.98069 -3.80795,5.27388 l -14.95123,2.05571 v 0.29201 19.34901 c 0,2.63866 -1.76139,4.98641 -3.81368,5.2796 h -0.58407 c 0,2.63865 -1.76139,4.98069 -3.81368,5.27387 l -62.74245,8.79551 c -2.05229,0.29319 -3.80796,-1.7591 -3.80796,-4.39775 v -4.39776 -0.29201 -14.95122 c 0,-2.63869 -1.76139,-4.39893 -3.81367,-4.10575 l -15.54103,2.34776 c -2.05228,0.29318 -3.80795,-1.7591 -3.80795,-4.39776 v -4.39775 -0.29776 -43.97755 c 0,-2.63865 -1.7614,-4.39318 -3.81368,-4.1 l -15.5353,2.34204 h -0.589804 c -1.759102,-0.29318 -3.223874,-2.05229 -3.223874,-4.39776 V 188.84681 87.114358 c -0.293183,-1.172735 -0.877261,-5.28188 -4.981833,-7.62735 L 19.928373,36.282523 c -0.100776,0.13633 -0.202939,0.250086 -0.303491,0.400841 -3.225021,4.690938 -4.981832,9.969388 -4.981832,15.833062 v 0.292011 106.135953 c 0,5.57049 1.759102,10.25797 4.397755,14.06936 1.759102,2.34547 3.810243,4.10686 6.155712,5.27959 l 12.901227,7.03758 v 30.48653 c 0,4.98412 -0.587512,10.26486 0.292038,15.24898 0.586367,3.81139 2.348905,7.62163 4.987558,10.55347 1.465919,1.46592 3.222731,2.93298 4.981833,4.10572 L 138.36427,294.685 c 2.63866,1.46592 5.86826,2.34776 9.09328,2.34776 0.87955,0 1.75452,10e-4 2.63407,-0.29201 l 62.74245,-8.79551 c 12.31372,-1.7591 22.28082,-14.07396 22.28082,-27.56041 v -4.39776 l 1.17388,-0.29201 c 6.74322,-0.87955 12.90237,-5.27959 17.00694,-11.14326 0.10068,-0.0176 0.19142,-0.0355 0.29204,-0.0516 l 1.07654,-29.95399 c 0.89545,-28.55044 23.01713,-8.3083 29.1294,-28.24183 -0.91235,-43.72122 -0.72613,-79.39467 -0.30349,-128.216321 -0.29319,-1.172735 -0.87727,-5.276163 -4.98184,-7.621632 L 226.6286,16.441112 205.50448,5.0229566 c -2.93184,-1.4659184 -5.86253,-2.055716 -9.08755,-2.055716 z m 88.94002,170.3614694 -0.25768,5.6919 c 0.1519,-1.72893 0.25545,-3.59144 0.25768,-5.6919 z" />
</svg>
