<svg xmlns="http://www.w3.org/2000/svg" viewBox="28.5 0 40 40">
  <path d="M50.9626 16.8418L63.0984 4.63195L58.4945 0L48.6606 9.89379L38.8267 0L34.2228 4.63195L46.3587 16.8418C46.9943 17.4814 47.8275 17.8011 48.6606 17.8011C49.4937 17.8011 50.3269 17.4815 50.9626 16.8418ZM68.531 29.8853L58.6971 19.9916L68.531 10.0976L63.9271 5.46562L51.7912 17.6756C50.52 18.9547 50.52 21.0284 51.7912 22.3075L63.9271 34.5174L68.531 29.8853ZM48.6438 30.1062L58.4776 40L63.0815 35.368L50.9457 23.1582C49.6742 21.8792 47.6131 21.8792 46.3418 23.1582L34.206 35.368L38.8098 40L48.6438 30.1062ZM45.5132 22.3245C46.1237 21.7103 46.4667 20.8772 46.4667 20.0085C46.4667 19.1399 46.1237 18.3068 45.5132 17.6926L33.3773 5.48271L28.7734 10.1147L38.6075 20.0084L28.7734 29.9024L33.3773 34.5344L45.5132 22.3245Z"></path>
  </svg>