<svg
   xmlns="http://www.w3.org/2000/svg"
   viewBox="0 0 109.26 109.26">
  <path
     d="m 52.369141,0.046875 a 54.63,54.63 0 0 0 2.25,109.212895 A 54.63,54.63 0 0 0 109.25977,54.619141 54.63,54.63 0 0 0 52.369141,0.046875 Z m 2.25,4.2128906 A 50.34,50.34 0 0 1 105,54.619141 50.34,50.34 0 1 1 54.619141,4.2597656 Z M 56.71875,7.8554688 A 46.76,46.76 0 0 0 22.929688,20.189453 l 3.070312,3 a 42.47,42.47 0 0 1 57.320312,0 l 3,-3 A 46.76,46.76 0 0 0 56.71875,7.8554688 Z M 89.089844,22.859375 v 0.07031 l -3,3 a 42.47,42.47 0 0 1 0,57.320312 l 3,3 a 46.76,46.76 0 0 0 0,-63.390625 z m -68.900391,0.130859 a 46.76,46.76 0 0 0 0,63.390625 l 3,-3.101562 a 42.47,42.47 0 0 1 0,-57.289063 z M 46,27 v 8.679688 H 35.289062 v 5.65039 c 0,0 3.901797,-0.07 3.841797,0 a 2.73,2.73 0 0 1 3,2.320313 v 23.759765 a 1.85,1.85 0 0 1 -0.640625,1.289063 1.83,1.83 0 0 1 -1.359375,0.460937 c 0.07,0.06 -3.841797,0 -3.841797,0 l -1,6.310547 h 10.611329 v 8.818359 h 5.279297 v -8.689453 h 4.220703 V 84.25 h 5.289062 v -8.720703 c 8.92,-0.54 15.139922,-2.739844 15.919922,-11.089844 0.63,-6.72 -2.530078,-9.719687 -7.580078,-10.929687 3.07,-1.51 4.971016,-4.310625 4.541015,-8.890625 -0.599999,-6.26 -6.000078,-8.36 -12.830078,-9 V 27 h -5.279296 v 8.460938 H 51.240234 V 27 Z m 8.548828,14.640625 c 3.895313,0.02859 9.171875,0.671875 9.171875,5.359375 0,6 -9.381328,5.269531 -12.361328,5.269531 V 41.689453 c 0.745,0 1.891016,-0.05836 3.189453,-0.04883 z m 0.626953,15.880859 c 4.671563,0.03562 10.994141,0.741407 10.994141,5.878907 0,6.56 -11.240313,5.810546 -14.820313,5.810547 V 57.570312 c 0.895,0.0025 2.268985,-0.0607 3.826172,-0.04883 z m -29.214843,28.529297 -3,3 a 46.76,46.76 0 0 0 63.388671,0 l -3.070312,-3 a 42.47,42.47 0 0 1 -57.318359,0 z" />
</svg>
