<svg
   xmlns="http://www.w3.org/2000/svg"
   viewBox="0 0 400 400">
  <g
     transform="matrix(1.2376987,0,0,1.2376987,-42.787162,-42.021345)">
    <path
       d="m 188.75,37.822 c -0.825,0.095 -3.975,0.415 -7,0.712 -4.884,0.479 -11.273,1.505 -18.325,2.943 -17.857,3.641 -41.201,14.071 -57.362,25.629 -50.841,36.359 -75.935,96.034 -66.501,158.144 1.892,12.456 6.475,28.053 11.864,40.375 1.255,2.87 0.233,2.951 7.896,-0.624 13.106,-6.115 11.856,-4.805 9.611,-10.074 -23.431,-54.976 -9.198,-119.952 35.094,-160.2 8.715,-7.919 17.263,-14.045 27.723,-19.868 56.417,-31.405 128.82,-18.664 173.41,30.516 1.309,1.444 2.54,2.619 2.735,2.612 0.943,-0.034 14.372,-11.916 14.507,-12.836 C 322.74,92.853 301.558,73.157 291.206,66.145 267.589,50.147 243.091,41.197 214.889,38.265 208.414,37.592 193.024,37.331 188.75,37.822 M 189,83.491 C 97.233,92.662 51.596,197.162 107.22,270.75 127.493,297.569 163.543,316 195.73,316 h 3.123 l 0.258,-7.125 c 0.143,-3.919 0.149,-8.402 0.015,-9.963 l -0.244,-2.838 -3.816,-0.295 C 162.382,293.246 136.48,278.628 119.524,253.144 103.425,228.947 99.018,199.142 107.453,171.5 c 7.029,-23.03 22.536,-42.736 43.219,-54.919 3.602,-2.122 6.113,-3.395 11.578,-5.87 33.862,-15.337 77.547,-6.463 105.388,21.41 l 5.388,5.394 5.862,-4.88 c 3.224,-2.684 6.632,-5.591 7.574,-6.459 l 1.712,-1.579 -2.114,-2.525 C 264.213,95.977 224,79.993 189,83.491 m -3.755,49.219 c -22.645,4.706 -39.676,19.308 -49.91,42.79 -5.27,12.093 -5.597,31.153 -0.782,45.655 15.543,46.819 75.185,62.312 110.682,28.751 l 3.007,-2.843 -0.996,-1.259 c -0.548,-0.693 -3.584,-4.632 -6.746,-8.755 -6.751,-8.799 -5.716,-8.377 -10.235,-4.174 -29.677,27.601 -77.556,5.663 -76.114,-34.875 1.423,-40.018 47.505,-58.3 77.336,-30.682 l 2.997,2.775 5.138,-4.422 c 2.826,-2.431 6.529,-5.546 8.23,-6.921 3.995,-3.231 3.975,-3.35 -1.464,-8.526 -16.233,-15.447 -39.299,-22.055 -61.143,-17.514" />
  </g>
</svg>
