<svg
   xmlns="http://www.w3.org/2000/svg"
   viewBox="0 0 626 626">
  <path
     d="m 286.60065,1.3833425 c -31.095,2.69001 -63.897,10.4772695 -81.857,19.4330695 -51.469,25.6661 -19.295,65.9273 85.918,107.512808 7.389,2.922 40.71,15.175 74.046,27.233 33.336,12.057 70.423,25.512 82.416,29.9 l 21.806,7.978 2.932,6.873 c 19.354,45.359 47.605,80.693 97.487,121.932 22.878,18.914 51.976,41.127 52.52,40.091 2.103,-4.005 3.91,-32.121 3.543,-55.083 -2.898,-180.692 -158.805,-321.441408 -338.811,-305.8698775 z m -177.668,75.6688695 c -2.462,0.6373 -20.837198,18.3661 -30.667798,29.587008 -124.0657,141.616 -96.2439,359.166 59.472798,465.018 156.633,106.476 371.656,50.252 455.92,-119.213 17.374,-34.942 16.923,-39.385 -3.529,-34.789 -96.845,21.767 -202.274,3.55 -291.832,-50.422 -91.872,-55.368 -155.654,-142.177 -175.025,-238.21 -2.718,-13.472 -5.695,-37.805508 -5.695,-46.537908 0,-3.9054 -4.246,-6.5735 -8.644,-5.4331 z" />
</svg>
