<svg
   xmlns="http://www.w3.org/2000/svg"
   version="1.1"
   viewBox="0 0 1000 1000">
  <path
     d="m 500.0044,9.5263514 c -98.71237,0 -197.42628,29.5166926 -281.60091,88.5514366 -22.97521,16.119562 -44.88193,34.413382 -65.39159,54.929912 -20.51653,20.5108 -38.80823,42.41638 -54.923203,65.39159 L 214.92448,335.23507 233.42996,353.74056 379.68513,499.99572 214.92448,664.76533 98.081992,781.59887 c 16.113818,22.9752 34.413378,44.87505 54.929908,65.39158 20.50966,20.5108 42.41638,38.80823 65.39159,54.92321 168.34926,118.07634 394.85032,118.07634 563.19957,0 22.97522,-16.11498 44.87506,-34.41356 65.39159,-54.92321 20.51723,-20.51608 38.80964,-42.41467 54.9232,-65.38934 L 785.08432,664.76533 620.32142,499.99572 785.08432,335.23507 901.91785,218.39929 C 885.80402,195.4172 867.51233,173.5185 846.99465,153.0077 826.47812,132.49117 804.57828,114.19162 781.60306,98.077788 697.42843,39.043044 598.71678,9.5263514 500.0044,9.5263514 Z m 0,161.3958186 c 56.99243,0 113.98445,14.66586 164.76513,43.99811 L 500.00216,379.68317 335.23927,214.92028 c 50.78068,-29.33225 107.7727,-43.99811 164.76513,-43.99811 z M 82.883127,241.48974 c -97.793668,157.74081 -97.728922,359.2675 0.02462,517.02092 L 201.90616,639.51897 c -41.14654,-88.18704 -41.2796,-190.9247 -0.0918,-279.09798 z M 917.11,241.53004 798.10935,360.52845 c 41.12018,88.15953 41.26202,190.85818 0.10746,279.00395 l 118.93124,118.93796 h 0.002 C 1014.905,600.75018 1014.8372,399.25595 917.11,241.53004 Z M 500.00216,620.31947 664.76953,785.08236 c -101.56135,58.66451 -227.9689,58.66451 -329.53026,0 z" />
</svg>
