<svg
   xmlns="http://www.w3.org/2000/svg"
   viewBox="0 0 237 237">
  <path
     d="M 121.28515,18.549941 A 100,100 0 0 0 18.499998,118.52064 c 0,2.54667 0.09768,5.08271 0.291015,7.60938 A 18.19,18.19 0 0 1 8.9101538,143.71009 L 0.32031,148.09095 v 20.42969 l 25.289062,-12.89062 8.191407,-4.17969 8.070312,-4.10938 L 186.75,73.520644 203.03125,65.231582 236.67969,48.081191 V 27.661269 l -33.35938,17.019531 -28.46094,14.5 -137.429685,70 A 82.49,82.49 0 0 1 36.730466,118.49134 81.87,81.87 0 0 1 158.51953,47.120253 l 16.29101,-8.298828 2.42969,-1.240234 a 100,100 0 0 0 -55.95508,-19.03125 z m 115.39454,49.970703 -186.580083,94.999996 -16.279297,8.31055 -33.5,17.07031 v 20.4082 l 33.269531,-16.94922 28.460938,-14.5 137.570311,-70.09961 a 83.45,83.45 0 0 1 0.69922,10.75977 81.87,81.87 0 0 1 -121.910156,71.35938 l -1,0.53124 -17.660156,9 A 100,100 0 0 0 218.5,118.52064 c 0,-2.57 -0.0991,-5.13969 -0.28907,-7.67969 a 18.2,18.2 0 0 1 9.86915,-17.580076 l 8.59961,-4.38085 z" />
</svg>
