<svg
   xmlns="http://www.w3.org/2000/svg"
   viewBox="0, 0, 400,400"
   version="1.1">
  <path d="m 200,3.7599555 c -3.33619,0 -6.67273,0.1883063 -7.04621,0.5617817 -0.36679,0.3667863 -0.53565,2.54545 -0.53565,6.9112118 v 6.377736 h -5.99016 c -3.2955,0 -6.50671,0.194733 -7.13549,0.433311 l -1.14315,0.43549 v 6.699998 6.7 h -6.66298 c -8.0013,0 -7.34434,-0.670706 -7.53832,7.692913 l -0.15025,6.578062 h -6.3995 c -7.67242,0 -7.06024,-0.614719 -7.34453,7.357587 l -0.2221,6.242736 -5.57426,0.11105 c -3.06584,0.0602 -6.02621,0.212536 -6.57806,0.341859 l -1.0038,0.232986 v 13.315077 13.312901 l -1.39357,0.278713 c -0.7659,0.153849 -3.87126,0.278713 -6.90032,0.278713 h -5.50676 l -0.12193,6.802337 -0.12412,6.800162 -6.91121,0.2221 -6.91339,0.22428 -0.12194,7.02226 -0.12193,7.02444 h -6.89379 c -6.7783,0 -6.894735,0.0172 -7.133313,1.0038 -0.133782,0.55185 -0.188834,22.77512 -0.121943,49.38663 l 0.124117,48.38501 6.911209,0.2221 6.91339,0.22428 0.2221,6.91121 0.2221,6.91339 6.91339,0.2221 6.91121,0.2221 v 5.57426 5.57426 l -6.46484,0.22427 c -8.24321,0.28429 -7.58186,-0.37992 -7.58186,7.608 v 6.6608 h -6.59983 c -8.235415,0 -7.671144,-0.56442 -7.671144,7.67768 v 6.60636 L 81.490367,269.01633 68.66957,268.89875 v -6.02064 -6.02063 l 6.244912,-0.25694 c 6.538607,-0.27091 7.562861,-0.47831 8.002112,-1.62438 0.231889,-0.60425 0.167576,-0.61574 -0.479038,-0.0784 -0.547393,0.45486 -2.584575,0.66151 -7.603638,0.77299 l -6.854598,0.15243 0.121937,6.76096 0.124114,6.75879 h 13.378223 13.378222 l 0.222101,-6.54105 c 0.269794,-7.91433 -0.386274,-7.25117 7.361943,-7.42508 l 6.39734,-0.14372 0.1437,-6.39951 c 0.17392,-7.746 -0.46323,-7.10746 7.2705,-7.28138 7.50852,-0.16834 6.90552,0.42847 6.91556,-6.84371 0.008,-6.63114 0.47374,-6.15985 -6.17523,-6.21224 -8.54311,-0.0669 -7.82499,0.5818 -8.08921,-7.33364 l -0.22428,-6.66952 -6.68911,-0.2221 -6.689112,-0.22427 -0.113224,-48.33711 c -0.08138,-34.77334 0.02435,-48.50238 0.378871,-48.92937 0.357867,-0.43144 2.218065,-0.62719 6.802335,-0.71638 l 6.31024,-0.12411 0.27654,-6.68912 c 0.15273,-3.67901 0.30411,-6.73884 0.33533,-6.80016 0.0323,-0.0613 2.9429,-0.11105 6.46918,-0.11105 7.85525,0 7.3517,0.49394 7.51001,-7.388066 l 0.12629,-6.21443 6.68911,-0.263472 c 3.67901,-0.146046 6.73885,-0.297422 6.80016,-0.335327 0.0613,-0.03791 0.11424,-5.938502 0.11759,-13.112574 0.003,-7.174073 0.15685,-13.278967 0.33968,-13.565484 0.22074,-0.346719 2.45594,-0.571485 6.64556,-0.668477 7.65346,-0.178375 7.00941,0.480432 7.2792,-7.429442 l 0.2221,-6.543223 6.46701,-0.222099 6.46484,-0.224277 0.22427,-6.390802 c 0.28095,-8.043657 -0.11795,-7.655898 7.84098,-7.655898 6.99458,0 6.42782,0.63078 6.42782,-7.144197 0,-6.910968 -0.56572,-6.397229 7.35977,-6.680402 l 6.24273,-0.222099 0.2221,-6.467012 0.22428,-6.464835 H 200 h 6.91121 l 0.22428,6.464835 0.2221,6.467012 6.24273,0.222099 c 7.92549,0.283173 7.35977,-0.230566 7.35977,6.680402 0,7.774977 -0.56676,7.144197 6.42782,7.144197 7.95893,0 7.56003,-0.387759 7.84098,7.655898 l 0.22427,6.390802 6.46484,0.224277 6.46701,0.222099 0.2221,6.543223 c 0.26979,7.909874 -0.37426,7.251066 7.2792,7.429442 4.18962,0.09699 6.42482,0.321758 6.64556,0.668477 0.18283,0.286517 0.33634,6.391411 0.33968,13.565484 0.003,7.174072 0.0563,13.074669 0.11758,13.112574 0.0613,0.0379 3.12116,0.189281 6.80017,0.335327 l 6.68911,0.263472 0.12629,6.21443 c 0.15831,7.882006 -0.34524,7.388066 7.51001,7.388066 3.52628,0 6.43685,0.0497 6.46918,0.11105 0.0312,0.0613 0.18259,3.12115 0.33533,6.80016 l 0.27654,6.68912 6.31024,0.12411 c 4.58427,0.0892 6.44447,0.28494 6.80233,0.71638 0.35453,0.42699 0.46026,14.15603 0.37888,48.92937 l -0.11323,48.33711 -6.68911,0.22427 -6.68911,0.2221 -0.22428,6.66952 c -0.26422,7.91544 0.4539,7.26675 -8.08921,7.33364 -6.64897,0.0524 -6.18303,-0.4189 -6.17523,6.21224 0.01,7.27218 -0.59297,6.67537 6.91556,6.84371 7.73373,0.17392 7.09658,-0.46462 7.2705,7.28138 l 0.1437,6.39951 6.39734,0.14372 c 7.74822,0.17392 7.09215,-0.48925 7.36194,7.42508 l 0.2221,6.54105 h 13.37823 13.37822 l 0.12412,-6.75879 0.12193,-6.76096 -6.8546,-0.15243 c -5.01907,-0.11148 -7.05625,-0.31813 -7.60364,-0.77299 -0.64661,-0.53736 -0.71093,-0.52587 -0.47904,0.0784 0.43925,1.14607 1.46351,1.35347 8.00212,1.62438 l 6.24491,0.25694 v 6.02063 6.02064 l -12.8208,0.11758 -12.8208,0.11758 v -6.60636 c 0,-8.2421 0.56427,-7.67768 -7.67114,-7.67768 h -6.59983 v -6.6608 c 0,-7.98792 0.66135,-7.32371 -7.58186,-7.608 l -6.46484,-0.22427 v -5.57426 -5.57426 l 6.91121,-0.2221 6.91339,-0.2221 0.2221,-6.91339 0.2221,-6.91121 6.91339,-0.22428 6.91121,-0.2221 0.12412,-48.38501 c 0.0669,-26.61151 0.0118,-48.83478 -0.12195,-49.38663 -0.23858,-0.98665 -0.35501,-1.0038 -7.13331,-1.0038 h -6.89379 l -0.12193,-7.02444 -0.12194,-7.02226 -6.91339,-0.22428 -6.91121,-0.2221 -0.12412,-6.800162 -0.12193,-6.802337 h -5.50676 c -3.02906,0 -6.13331,-0.124864 -6.90033,-0.278713 l -1.39356,-0.278713 V 73.751754 60.436677 l -1.0038,-0.232986 c -0.55185,-0.129323 -3.51222,-0.281657 -6.57806,-0.341859 l -5.57426,-0.11105 -0.2221,-6.242736 c -0.28429,-7.972306 0.32789,-7.357587 -7.34453,-7.357587 h -6.3995 l -0.15025,-6.578062 c -0.19398,-8.363619 0.46298,-7.692913 -7.53832,-7.692913 h -6.66298 v -6.7 -6.699998 l -1.14315,-0.43549 c -0.62878,-0.238577 -3.83999,-0.433311 -7.13549,-0.433311 h -5.99016 v -6.377736 c 0,-4.3657618 -0.16886,-6.5444255 -0.53565,-6.9112118 C 206.67273,3.9482618 203.33619,3.7599555 200,3.7599555 Z m -6.26887,2.2558338 0.12412,5.9095857 0.12411,5.907409 H 200 h 6.02064 l 0.12411,-5.907409 0.12412,-5.9095857 H 200 Z m 19.87354,13.8376637 c -2.77263,-0.01881 -5.51373,0.07175 -5.72667,0.285246 -0.16388,0.162769 -0.29614,2.876492 -0.29614,6.031523 v 5.73539 l 6.13169,-0.124114 6.13168,-0.124114 0.12412,-5.539421 c 0.0936,-4.132756 -0.0183,-5.631082 -0.4442,-5.900876 -0.34226,-0.217396 -3.14783,-0.344821 -5.92048,-0.363634 z m -29.193,0.08274 c -2.08606,0.0161 -3.70103,0.120004 -3.93682,0.272181 -0.42587,0.276484 -0.53785,1.780175 -0.4442,5.909586 l 0.12412,5.539421 6.14692,0.124114 6.14258,0.124114 -0.12412,-5.92265 -0.12411,-5.920474 -5.57426,-0.111049 c -0.76646,-0.01561 -1.51475,-0.02061 -2.21011,-0.01524 z m 15.78647,0.0022 c -3.44712,-0.06689 -6.40749,0.0178 -6.57806,0.18726 -0.38016,0.380165 -0.41489,11.408646 -0.0392,12.387486 0.22855,0.596446 1.22854,0.705493 6.45831,0.705493 7.3413,0 6.74693,0.686991 6.55629,-7.581865 l -0.12848,-5.57426 z m 10.9003,13.206205 c -2.11048,-0.0047 -3.84638,0.107287 -4.11102,0.372343 -0.55519,0.554082 -0.33792,12.415374 0.23734,12.990638 1.00783,1.007827 12.26656,0.719167 12.82733,-0.328794 0.86736,-1.620994 0.58596,-11.372483 -0.35275,-12.222 -0.52467,-0.474509 -5.08343,-0.804359 -8.6009,-0.812187 z m -27.31823,0.132824 c -2.51793,0.0089 -3.04153,0.188654 -3.54489,0.744687 -0.87515,0.966576 -1.10349,10.631559 -0.28742,12.156676 0.59868,1.118197 11.96998,1.333085 12.87524,0.243874 0.34672,-0.418069 0.47338,-2.621697 0.38976,-6.800162 l -0.12411,-6.181767 -6.0533,-0.124114 c -1.35566,-0.02759 -2.41597,-0.04216 -3.25528,-0.03919 z m 43.85375,0.289601 c -2.87521,0.01826 -5.72806,0.316739 -5.85515,0.87751 -0.097,0.429218 -0.0705,3.287942 0.0588,6.353785 l 0.23734,5.57426 5.53724,0.126292 c 4.13276,0.09365 5.63326,-0.0205 5.90306,-0.446377 0.4203,-0.661107 0.5092,-10.629573 0.10451,-11.681993 -0.21405,-0.559098 -3.11059,-0.821733 -5.98579,-0.803477 z m -53.09483,0.08274 c -0.62665,0.0039 -1.35292,0.01524 -2.19269,0.01524 -4.78383,0 -5.73876,0.112392 -5.96619,0.705493 -0.4047,1.05242 -0.31579,11.020886 0.10451,11.681993 0.2698,0.425873 1.7703,0.540024 5.90306,0.446377 l 5.53724,-0.126292 0.23734,-5.57426 c 0.28972,-6.856757 0.76334,-7.175638 -3.62327,-7.148553 z m 70.90198,13.72226 c -1.11138,0.01533 -2.59735,0.05409 -4.19159,0.115405 l -5.79636,0.224277 -0.12629,5.465387 c -0.17392,7.574304 -0.47629,7.24436 6.60637,7.24436 h 5.78329 V 53.98057 c 0,-3.541886 -0.15137,-6.502253 -0.33532,-6.578063 -0.092,-0.03791 -0.82874,-0.04581 -1.9401,-0.03048 z m -91.0956,0.01307 c -1.11138,-0.0067 -1.82624,0.01622 -1.87697,0.0675 -0.10145,0.101451 -0.18507,3.059641 -0.18507,6.575884 v 6.392979 h 5.78329 c 7.08266,0 6.78029,0.329944 6.60637,-7.24436 l -0.12629,-5.465387 -5.94661,-0.224277 c -1.63549,-0.06132 -3.14336,-0.09565 -4.25472,-0.102339 z m 15.31832,12.489826 c -2.5475,-0.03167 -3.06665,0.171321 -4.19376,0.88622 l -1.59171,1.010334 v 5.913941 c 0,8.247675 -0.34734,7.897594 7.8301,7.897594 h 6.44088 v 6.410399 c 0,8.044771 -0.47271,7.56631 7.75824,7.858401 l 6.28846,0.224275 v 5.574259 5.574258 l -6.43653,0.12412 c -8.09717,0.15719 -7.55871,-0.37446 -7.71033,7.61234 l -0.12412,6.53234 -19.93234,0.22428 c -12.66917,0.14158 -20.09973,0.38843 -20.38959,0.67718 -0.25419,0.2553 -0.51008,3.29352 -0.5792,6.91121 l -0.12412,6.45831 -6.43653,0.12411 c -8.06929,0.15608 -7.61017,-0.25028 -7.61017,6.75879 0,7.62224 -0.43173,7.21966 7.58405,7.06581 l 6.46265,-0.12412 0.22211,-6.68911 0.22427,-6.68911 6.1883,-0.12629 c 8.68135,-0.17392 8.30478,-0.52413 8.30478,7.71686 v 6.45613 h 6.04894 c 8.2421,0 7.77348,-0.42915 7.77348,7.15073 v 6.22749 h 5.98797 c 6.08375,0 7.33043,0.32278 7.42073,1.92705 0.0156,0.28874 0.0653,3.03318 0.11105,6.09902 l 0.0828,5.57426 h 6.91121 6.91339 l 0.11758,-13.10169 c 0.1427,-15.76846 0.83004,-14.32324 -6.80669,-14.32324 -7.42492,0 -7.02942,0.42722 -6.72396,-7.20952 0.2698,-6.7705 0.95977,-19.26864 1.07348,-19.43587 0.0412,-0.0613 2.74334,-0.11105 6.0054,-0.11105 7.41377,0 7.00266,0.4099 7.00266,-6.95259 0,-6.93772 -0.49877,-6.42564 6.24274,-6.42564 6.74151,0 6.24274,-0.51208 6.24274,6.42564 0,7.36249 -0.41111,6.95259 7.00266,6.95259 3.26206,0 5.96415,0.0497 6.00539,0.11105 0.11372,0.16723 0.80369,12.66537 1.07348,19.43587 0.30547,7.63674 0.70097,7.20952 -6.72395,7.20952 -7.63673,0 -6.94939,-1.44522 -6.80669,14.32324 l 0.11758,13.10169 h 6.91339 6.91121 l 0.0828,-5.57426 c 0.0457,-3.06584 0.0954,-5.81028 0.11105,-6.09902 0.0903,-1.60427 1.33698,-1.92705 7.42073,-1.92705 h 5.98797 v -6.22749 c 0,-7.57988 -0.46862,-7.15073 7.77348,-7.15073 h 6.04894 v -6.45613 c 0,-8.24099 -0.37657,-7.89078 8.30478,-7.71686 l 6.1883,0.12629 0.22427,6.68911 0.22211,6.68911 6.46265,0.12412 c 8.01578,0.15385 7.58404,0.55643 7.58404,-7.06581 0,-7.00907 0.45913,-6.60271 -7.61016,-6.75879 l -6.43653,-0.12411 -0.12412,-6.45831 c -0.0691,-3.61769 -0.32501,-6.65591 -0.5792,-6.91121 -0.28986,-0.28875 -7.72042,-0.5356 -20.38959,-0.67718 l -19.93234,-0.22428 -0.12412,-6.53234 c -0.15162,-7.9868 0.38684,-7.45515 -7.71033,-7.61234 l -6.43653,-0.12412 v -5.574258 -5.574259 l 6.28846,-0.224275 c 8.23096,-0.292091 7.75824,0.18637 7.75824,-7.858401 v -6.410399 h 6.44088 c 8.17967,0 7.8301,0.355011 7.8301,-7.917191 V 61.727924 L 234.5518,60.80251 c -1.3891,-0.819416 -2.22301,-0.917105 -7.24653,-0.853559 -7.9043,0.101452 -7.62612,-0.160102 -7.7822,7.274845 l -0.12411,5.905232 -5.79854,0.115404 c -7.59437,0.151619 -7.35758,-0.105215 -7.35758,7.960739 v 5.972732 H 200 193.75726 v -5.972732 c 0,-8.065954 0.23679,-7.80912 -7.35758,-7.960739 l -5.79854,-0.115404 -0.12412,-5.863861 c -0.15607,-7.360252 0.21433,-7.000224 -7.49041,-7.290086 -1.39746,-0.05268 -2.47361,-0.08961 -3.32278,-0.100162 z m 57.83295,0.98856 c 2.6447,-0.01686 5.3589,0.132684 5.97708,0.463795 0.98553,0.527325 1.31367,10.351958 0.40283,12.054337 -0.63769,1.191776 -11.74871,1.335174 -12.20022,0.156776 -0.52064,-1.356775 -0.29953,-11.57408 0.26347,-12.137079 0.33724,-0.337244 2.91213,-0.520967 5.55684,-0.537829 z m -55.07195,0.01306 c 2.67885,0.0124 5.30077,0.190308 5.63523,0.524765 0.563,0.562999 0.78411,10.780304 0.26347,12.137079 -0.45151,1.178398 -11.56253,1.035 -12.20022,-0.156776 -0.85175,-1.592009 -0.58852,-11.503007 0.32008,-12.032563 0.5669,-0.330553 3.30259,-0.484908 5.98144,-0.472505 z m -30.79343,0.50299 c -2.41022,0.01029 -3.28278,0.153118 -3.40987,0.483393 -0.12152,0.316618 -0.16812,6.293461 -0.10235,13.280238 l 0.11759,12.703216 5.84426,0.124114 c 7.57431,0.160539 6.90478,1.525866 6.76097,-13.78105 l -0.11759,-12.653135 -6.14039,-0.124114 c -1.17422,-0.02397 -2.14921,-0.03609 -2.95262,-0.03266 z m 114.08506,0.03266 c -3.32448,-0.06801 -6.18321,0.01451 -6.35378,0.185083 -0.64996,0.651073 -0.35419,25.431601 0.31138,25.983453 0.41584,0.345604 2.50531,0.474492 6.35378,0.389763 l 5.73539,-0.124114 V 74.690233 61.536287 Z m -40.30233,13.683066 c 2.04292,0.004 3.8414,0.09899 4.39409,0.311375 0.5931,0.227428 0.70549,1.188117 0.70549,6.005393 0,7.028026 0.32548,6.732382 -7.24436,6.558465 l -5.46539,-0.124114 -0.12629,-5.774585 c -0.068,-3.175099 -0.0247,-6.033823 0.098,-6.353786 0.14632,-0.38114 4.2336,-0.629357 7.63847,-0.622748 z M 183.9348,75.23024 c 0.70473,0.01239 1.52186,0.03439 2.46488,0.0479 l 5.79636,0.08057 v 6.244913 6.242736 l -5.46539,0.124114 c -7.57096,0.173917 -7.24436,0.470938 -7.24436,-6.569352 0,-5.942718 -0.48452,-6.257593 4.44851,-6.170881 z m 15.97375,13.794114 c 2.60959,-0.0057 5.21289,0.06552 5.78983,0.219927 1.00225,0.268679 1.01209,0.354868 0.89057,6.349427 l -0.12194,6.077252 H 200 193.53299 l -0.12194,-6.099025 c -0.1126,-5.527436 -0.0506,-6.114238 0.66847,-6.301533 0.6037,-0.157194 3.21944,-0.240329 5.82903,-0.246048 z m -69.89164,0.41371 c -2.58771,0.0439 -5.07066,0.205468 -5.49152,0.450735 -0.84505,0.49165 -1.18874,10.224641 -0.405,11.459901 0.27202,0.4281 1.90147,0.54002 6.56935,0.44637 l 6.21007,-0.12411 0.12412,-5.852977 c 0.12263,-5.76267 0.10727,-5.859762 -0.89275,-6.127327 -0.83502,-0.223527 -3.52656,-0.296483 -6.11427,-0.252592 z m 139.78763,0.03049 c -2.63245,-0.034 -5.35847,0.0403 -6.15782,0.248221 -0.71797,0.186192 -0.78325,0.763819 -0.67065,6.079433 l 0.12412,5.874752 6.21007,0.12411 c 4.66788,0.0937 6.29733,-0.0183 6.56935,-0.44637 0.84394,-1.33002 0.43641,-10.986738 -0.48557,-11.479502 -0.41807,-0.223528 -2.95706,-0.366641 -5.5895,-0.400644 z m -77.3864,13.317256 v 6.41257 c 0,6.2755 -0.0206,6.42166 -1.00163,6.68476 -1.32444,0.35453 -8.76516,0.3567 -10.53666,0.002 l -1.39356,-0.27872 v -5.94225 c 0,-7.22647 -0.40135,-6.84652 7.24654,-6.86548 z m 15.16372,0 h 5.60257 c 3.08256,0 5.9932,0.20743 6.46701,0.46161 0.78708,0.42142 0.86227,0.98553 0.86227,6.4104 v 5.94878 l -1.39356,0.27872 c -1.7715,0.35452 -9.21222,0.35235 -10.53666,-0.002 -0.98107,-0.2631 -1.00163,-0.40926 -1.00163,-6.68476 z m -92.40859,0.45944 c -1.96341,0.0407 -3.65594,0.22325 -4.12626,0.57485 -1.03012,0.77148 -1.10177,11.351 -0.0806,12.00207 0.89411,0.56969 11.20318,0.40042 11.7974,-0.19379 0.65107,-0.65108 0.73568,-10.49891 0.098,-11.50562 -0.3888,-0.61596 -4.41622,-0.94533 -7.68855,-0.87751 z m 167.19512,0.009 c -1.71757,0.008 -3.30647,0.10283 -4.10665,0.30267 -0.49054,0.12263 -1.03877,0.45184 -1.21937,0.72943 -0.56858,0.87739 -0.39931,10.74922 0.19379,11.34232 0.59422,0.59421 10.90329,0.76348 11.7974,0.19379 1.00114,-0.63769 0.95339,-11.23031 -0.0544,-11.96723 -0.52608,-0.38462 -3.74809,-0.61428 -6.61073,-0.60098 z m -56.50252,13.27806 c 3.55396,0.008 8.13467,0.33916 8.52905,0.81437 0.92198,1.11262 0.87318,12.06342 -0.0566,12.65095 -1.23749,0.78151 -12.34968,0.54496 -12.66184,-0.27 -0.36902,-0.961 -0.34623,-12.44955 0.0261,-12.8208 0.26756,-0.26798 2.03089,-0.37931 4.16327,-0.37452 z m -56.0801,0.12412 c 0.72486,0.01 1.55941,0.0327 2.5193,0.0523 l 6.06637,0.12412 0.12846,5.79636 c 0.18953,8.50297 0.75025,7.80523 -6.26886,7.79743 -7.67798,-0.009 -7.23783,0.39352 -7.23783,-6.59549 0,-6.68214 -0.28142,-7.24354 4.79256,-7.17467 z m 125.36858,0.32662 c -2.05295,0.0172 -3.74157,0.16732 -3.93682,0.48338 -0.13936,0.22632 -0.37542,18.7367 -0.52259,41.1363 -0.22297,34.00076 -0.37372,41.06003 -0.91888,42.73454 -0.43591,1.34117 -0.60954,3.40878 -0.52259,6.24274 0.17281,5.61216 0.46922,5.35216 -6.07942,5.35216 -7.32903,0 -7.36412,0.0377 -7.36412,7.81267 0,6.46725 0.5494,5.99536 -7.00484,6.00539 -6.86191,0.008 -6.81976,-0.0434 -6.81976,7.89324 v 5.93789 l -5.68531,0.002 c -5.32899,0.002 -5.77023,0.0691 -7.02443,1.0713 l -1.33696,1.06913 -0.2221,6.10338 -0.22427,6.10556 -6.10991,0.0719 c -4.33009,0.0502 -6.27885,0.23861 -6.68912,0.64888 -0.9387,0.93647 -1.07849,12.2525 -0.16766,13.55242 0.60202,0.85955 0.70332,2.91206 0.70332,14.2579 0,15.41283 -0.68418,13.9235 6.34942,13.79195 7.5888,-0.14159 7.41485,-0.30565 7.57316,7.20734 l 0.12412,5.90741 6.23184,0.2221 c 6.10047,0.21851 6.24289,0.24769 6.79363,1.33913 0.78485,1.55522 0.82288,26.33203 0.0414,27.11354 -0.3679,0.3679 -2.59692,0.53348 -7.13549,0.53348 h -6.59983 v 6.75443 6.75226 l 13.48927,-0.32009 c 16.82646,-0.398 15.0505,-1.2408 15.0505,7.15292 v 6.8633 l 5.90959,0.007 c 8.63676,0.009 7.91501,-0.5813 7.91501,6.47571 0,8.03363 -0.65358,7.34235 6.93299,7.34235 7.66461,0 7.0537,-0.61472 7.33799,7.35759 l 0.2221,6.24274 h 13.15612 13.15395 l 0.22427,-6.68912 0.22211,-6.68911 6.68911,-0.2221 6.68911,-0.2221 0.11976,-6.24491 c 0.14827,-7.79058 -0.30465,-7.35759 7.7234,-7.35759 5.15954,0 6.15136,-0.10904 6.37991,-0.70549 0.54628,-1.42255 0.3007,-25.39533 -0.26565,-25.96168 -0.45263,-0.45263 -12.69309,-0.85387 -12.89265,-0.42242 -0.0992,0.21405 -0.89634,14.87261 -1.11485,20.51153 l -0.2221,5.68749 h -5.45014 c -5.45163,0 -6.8476,0.34492 -7.98252,1.97929 -0.18061,0.25976 -0.33198,3.03066 -0.33533,6.15782 l -0.007,5.68531 -12.26337,0.0675 c -6.74486,0.0368 -12.51422,0.0865 -12.8208,0.11105 -0.41472,0.0334 -0.58901,-1.4713 -0.68154,-5.86604 l -0.12412,-5.91177 -1.73977,-1.09743 c -1.5541,-0.98107 -2.30002,-1.11113 -7.01138,-1.22373 l -5.27159,-0.12629 -0.2221,-6.00757 c -0.27537,-7.4316 0.0773,-7.13093 -8.3788,-7.13984 l -5.92701,-0.007 0.0196,-13.71355 c 0.0111,-7.54197 -4.9e-4,-16.622 -0.0261,-20.17838 -0.0256,-3.55638 0.0961,-9.53322 0.27001,-13.28024 l 0.31572,-6.81323 5.85951,0.12412 5.85951,0.12411 -0.15679,5.22805 -0.16113,5.22805 1.41317,1.78114 1.41316,1.78333 5.65701,0.12412 5.65917,0.12629 -0.15895,5.45668 -0.15677,5.4545 1.20848,0.45944 c 0.75698,0.28763 6.14217,0.41544 14.42775,0.34186 l 13.21927,-0.11759 0.12412,-7.02443 0.12193,-7.02444 h 6.19483 c 8.30676,0 7.60799,0.59802 7.60799,-6.47573 0,-7.96226 0.49091,-7.34669 -5.86821,-7.34669 -8.25102,0 -8.40276,0.14539 -8.40276,8.06307 v 5.31515 h -12.93185 -12.93185 v -5.77676 -5.7724 l -1.47412,-1.12357 c -1.36458,-1.04016 -1.87722,-1.13279 -7.02226,-1.24985 l -5.55249,-0.12629 -0.11322,-5.79637 c -0.14939,-7.46727 -0.0448,-7.35631 -6.95912,-7.36412 -7.47954,-0.01 -6.88106,0.54148 -7.05274,-6.48878 -0.19064,-7.83741 0.15047,-7.50642 -7.89542,-7.70598 l -6.15782,-0.15242 -0.29178,-8.32002 c -0.15942,-4.57647 -0.29066,-10.47282 -0.29178,-13.10387 -10e-4,-5.67014 -0.66464,-5.20139 7.57969,-5.36304 l 5.57426,-0.10888 0.22428,-6.91338 0.2221,-6.91121 6.3908,-0.2221 c 8.04811,-0.28095 7.6559,0.12355 7.6559,-7.88889 v -5.93571 h 6.19047 c 5.03802,0 6.29278,-0.12948 6.75879,-0.69025 0.61651,-0.74249 0.36409,-93.67596 -0.25911,-95.29807 -0.20834,-0.54349 -4.63932,-0.88231 -8.06091,-0.85355 z m -195.351669,0.12846 c -2.409328,0.005 -2.807899,0.17689 -3.013578,0.71202 -0.625443,1.62992 -0.883331,94.5653 -0.263473,95.31114 0.466008,0.56077 1.720774,0.69025 6.75879,0.69025 h 6.19047 v 5.93571 c 0,8.01244 -0.39221,7.60794 7.6559,7.88889 l 6.3908,0.2221 0.2221,6.91121 0.22428,6.91338 5.57426,0.10888 c 8.24433,0.16165 7.5808,-0.3071 7.57969,5.36304 -10e-4,2.63105 -0.13236,8.5274 -0.29178,13.10387 l -0.29178,8.32002 -6.15782,0.15242 c -8.04589,0.19956 -7.70478,-0.13143 -7.89542,7.70598 -0.17168,7.03026 0.4268,6.47875 -7.05274,6.48878 -6.91431,0.008 -6.80973,-0.10315 -6.95912,7.36412 l -0.11322,5.79637 -5.55249,0.12629 c -5.145039,0.11706 -5.657681,0.20969 -7.02226,1.24985 l -1.474124,1.12357 v 5.7724 5.77676 H 81.379317 68.44747 v -5.31515 c 0,-7.91768 -0.151741,-8.06307 -8.40276,-8.06307 -6.359116,0 -5.868215,-0.61558 -5.868215,7.34669 0,7.07375 -0.698768,6.47573 7.607994,6.47573 h 6.194831 l 0.121937,7.02444 0.124114,7.02443 13.21927,0.11759 c 8.285576,0.0736 13.670768,-0.0542 14.427752,-0.34186 l 1.208478,-0.45944 -0.156771,-5.4545 -0.158955,-5.45668 5.659175,-0.12629 5.65701,-0.12412 1.41316,-1.78333 1.41316,-1.78114 -0.16112,-5.22805 -0.15679,-5.22805 5.85951,-0.12411 5.8595,-0.12412 0.31573,6.81323 c 0.17392,3.74702 0.29565,9.72386 0.27001,13.28024 -0.0256,3.55638 -0.0373,12.63641 -0.0261,20.17838 l 0.0196,13.71355 -5.92701,0.007 c -8.45614,0.009 -8.10343,-0.29176 -8.3788,7.13984 l -0.2221,6.00757 -5.27159,0.12629 c -4.711363,0.1126 -5.457277,0.24266 -7.011381,1.22373 l -1.739771,1.09743 -0.124116,5.91177 c -0.09253,4.39474 -0.266818,5.89947 -0.681543,5.86604 -0.306584,-0.0245 -6.075943,-0.0743 -12.820797,-0.11105 l -12.263372,-0.0675 -0.0065,-5.68531 c -0.0033,-3.12716 -0.154722,-5.89806 -0.335328,-6.15782 -1.134919,-1.63437 -2.530888,-1.97929 -7.982514,-1.97929 h -5.450145 l -0.2221,-5.68749 c -0.21851,-5.63892 -1.01563,-20.29748 -1.114852,-20.51153 -0.199558,-0.43145 -12.440023,-0.0302 -12.892653,0.42242 -0.566345,0.56635 -0.811925,24.53913 -0.265648,25.96168 0.228545,0.59645 1.22038,0.70549 6.379914,0.70549 8.028049,0 7.575124,-0.43299 7.723399,7.35759 l 0.11976,6.24491 6.689112,0.2221 6.689111,0.2221 0.222099,6.68911 0.224277,6.68912 h 13.153946 13.156124 l 0.222101,-6.24274 c 0.284287,-7.97231 -0.326619,-7.35759 7.337987,-7.35759 7.58657,0 6.93299,0.69128 6.93299,-7.34235 0,-7.05701 -0.72175,-6.46679 7.91501,-6.47571 l 5.90958,-0.007 v -6.8633 c 0,-8.39372 -1.77595,-7.55092 15.05051,-7.15292 l 13.48927,0.32009 v -6.75226 -6.75443 h -6.59983 c -4.53857,0 -6.76759,-0.16558 -7.13549,-0.53348 -0.78151,-0.78151 -0.74349,-25.55832 0.0414,-27.11354 0.55074,-1.09144 0.69316,-1.12062 6.79363,-1.33913 l 6.23184,-0.2221 0.12412,-5.90741 c 0.15831,-7.51299 -0.0156,-7.34893 7.57316,-7.20734 7.0336,0.13155 6.34942,1.62088 6.34942,-13.79195 0,-11.34584 0.1013,-13.39835 0.70332,-14.2579 0.91083,-1.29992 0.77104,-12.61595 -0.16766,-13.55242 -0.41027,-0.41027 -2.35903,-0.59871 -6.68912,-0.64888 l -6.10991,-0.0719 -0.22427,-6.10556 -0.2221,-6.10338 -1.33696,-1.06913 c -1.2542,-1.00225 -1.69544,-1.06907 -7.02443,-1.0713 l -5.68531,-0.002 v -5.93789 c 0,-7.93663 0.0421,-7.88543 -6.81976,-7.89324 -7.55424,-0.01 -7.00484,0.46186 -7.00484,-6.00539 0,-7.77498 -0.0351,-7.81267 -7.36412,-7.81267 -6.54976,0 -6.25223,0.26026 -6.07942,-5.36306 0.0914,-2.98668 -0.0757,-4.83913 -0.56396,-6.24273 -0.59533,-1.70796 -0.70626,-5.71722 -0.76646,-27.86041 -0.0379,-14.22551 -0.1903,-32.68615 -0.33969,-41.02525 l -0.27218,-15.16155 -5.85515,-0.12411 c -1.31719,-0.0279 -2.34329,-0.0453 -3.146408,-0.0435 z m 37.752539,27.12444 0.11759,13.72225 0.11758,13.72444 6.31895,0.22428 c 7.65123,0.26979 7.01376,-0.36985 7.28355,7.28137 l 0.2221,6.31895 h 13.6025 13.60032 l 0.12195,-6.80016 0.1241,-6.80016 h -5.9466 c -7.9121,0 -7.57529,0.30333 -7.48388,-6.73919 0.0992,-7.67799 0.6547,-7.08541 -6.65427,-7.08541 -7.63673,0 -7.18651,0.4585 -7.28573,-7.44468 l -0.0784,-6.15782 -7.0288,-0.12194 z m 117.99576,0.0218 c -4.00008,0 -7.00336,0.18354 -7.15944,0.43548 -0.14827,0.23971 -0.23929,3.05183 -0.2025,6.25146 0.0858,7.54866 0.50091,7.13766 -7.16815,7.13766 -7.30897,0 -6.7535,-0.59258 -6.65427,7.08541 0.0914,7.04252 0.42822,6.73919 -7.48388,6.73919 h -5.9466 l 0.1241,6.80016 0.12195,6.80016 h 13.60032 13.6025 l 0.2221,-6.31895 c 0.26979,-7.65122 -0.36768,-7.01158 7.28355,-7.28137 l 6.31895,-0.22428 0.11758,-13.71137 0.11758,-13.71355 z m -117.53631,0.86662 6.13168,0.12412 6.13169,0.12411 0.2221,6.06637 c 0.28986,7.89761 -0.0511,7.53396 7.10065,7.53396 7.07708,0 6.72395,-0.35313 6.72395,6.72395 0,7.15177 -0.36147,6.81078 7.53614,7.10065 l 6.06418,0.22427 0.12412,6.13169 0.12629,6.13168 h -12.91225 -12.91225 l -0.14371,-6.44524 c -0.18173,-8.08379 0.33644,-7.56563 -7.74736,-7.74735 l -6.44523,-0.1437 v -12.91225 z m 125.29455,0.002 0.11976,13.72443 0.11758,13.72444 5.84427,0.12412 c 7.51967,0.15942 6.8306,1.57832 6.87854,-14.2013 l 0.0392,-13.12564 -6.49967,-0.12411 z m -9.60907,0.0109 c 0.66896,0.003 1.44455,0.0131 2.34076,0.0131 h 5.94442 v 12.89701 12.90137 l -6.44523,0.1437 c -8.0838,0.18172 -7.56564,-0.33644 -7.74736,7.74735 l -0.14371,6.44524 h -12.91225 -12.91225 l 0.12629,-6.13168 0.12412,-6.13169 6.06418,-0.22427 c 7.89761,-0.28987 7.53614,0.0511 7.53614,-7.10065 0,-7.07931 -0.35715,-6.72395 6.75226,-6.72395 7.27106,0 7.07234,0.21705 7.07234,-7.60364 0,-5.96418 -0.48244,-6.25304 4.20029,-6.23185 z m -123.48291,0.0131 c -3.55973,0 -6.47775,0.1492 -6.48444,0.33315 -0.24527,6.4327 0.15214,26.27748 0.53565,26.73902 0.38128,0.45932 1.86682,0.57163 6.34072,0.47687 l 5.84427,-0.12412 0.11758,-13.71354 0.11976,-13.71138 z m 13.19313,28.10211 c -3.10263,-0.03 -6.20463,0.0572 -6.43652,0.2896 -0.16388,0.16277 -0.29831,2.73574 -0.29831,5.71797 0,7.41711 0.0221,7.43676 7.62541,7.26396 l 5.53071,-0.12412 0.2221,-6.15781 c 0.13156,-3.61658 0.0483,-6.32727 -0.20032,-6.57588 -0.23747,-0.23635 -3.34044,-0.38375 -6.44307,-0.41372 z m 110.89512,0.074 c -2.33262,0.0179 -3.95824,0.13765 -4.14804,0.32661 -0.26311,0.26199 -0.34611,2.86534 -0.21121,6.58895 l 0.2221,6.15781 5.59603,0.12195 c 7.62447,0.16945 7.63714,0.1583 7.46211,-7.52525 l -0.12629,-5.53072 -6.25363,-0.12194 c -0.90777,-0.0181 -1.76353,-0.0234 -2.54107,-0.0174 z m -89.31228,13.25628 c -6.78777,0 -13.57502,0.19245 -13.95742,0.57485 -0.80827,0.80826 -0.72589,10.62562 0.098,11.75385 0.73468,1.00448 24.72109,1.59926 27.15927,0.67282 l 1.19324,-0.45291 v -5.72015 c 0,-3.85404 -0.17556,-5.89352 -0.53565,-6.25361 -0.3824,-0.3824 -7.16965,-0.57485 -13.95743,-0.57485 z m 70.01358,0 c -6.78778,0 -13.57503,0.19245 -13.95743,0.57485 -0.36009,0.36009 -0.53565,2.39957 -0.53565,6.25361 v 5.72015 l 1.19324,0.45291 c 2.43818,0.92644 26.42459,0.33166 27.15927,-0.67282 0.82388,-1.12823 0.90626,-10.94559 0.098,-11.75385 -0.3824,-0.3824 -7.16965,-0.57485 -13.95742,-0.57485 z m -75.24162,27.04387 c -3.31569,-0.0383 -7.48597,0.20764 -8.00646,0.64452 -0.93982,0.7882 -1.22925,11.03089 -0.38977,13.82025 0.25865,0.85732 0.47033,3.97858 0.47033,6.93516 0,6.71699 -0.26243,6.44524 6.24273,6.44524 3.42929,0 5.35256,-0.17896 5.70708,-0.53348 0.72466,-0.72465 0.77145,-26.47163 0.0479,-26.91757 -0.4001,-0.2475 -2.08241,-0.37115 -4.07182,-0.39412 z m 80.34555,0.0348 c -2.06636,0.006 -3.7672,0.11739 -4.01303,0.36363 -0.65999,0.66223 -0.55234,26.24765 0.11322,26.91322 0.35453,0.35452 2.2778,0.53348 5.70709,0.53348 6.50516,0 6.24273,0.27175 6.24273,-6.44524 0,-2.95658 0.21168,-6.07784 0.47033,-6.93516 0.68229,-2.26872 0.53734,-13.00084 -0.18508,-13.72661 -0.43271,-0.4334 -4.89131,-0.71385 -8.33526,-0.70332 z m -67.55959,0.70767 c -3.20297,-0.068 -5.96223,0.0167 -6.13169,0.18726 -0.57972,0.57861 -0.36436,27.13023 0.22428,27.71887 0.35564,0.35564 2.28588,0.53566 5.74192,0.53566 h 5.20844 l 0.50735,-1.22591 c 0.35006,-0.84505 0.47115,-5.25337 0.38976,-14.15992 l -0.11975,-12.93185 z m 27.64701,0 c -3.44712,-0.0669 -6.40749,0.0178 -6.57806,0.18726 -0.16946,0.17057 -0.30919,9.60618 -0.30919,20.97098 V 256.189 h -6.88073 c -8.83409,0 -8.41612,-0.35409 -8.07832,6.85677 0.74249,15.81083 0.74781,33.6014 0.0109,34.33831 -0.59533,0.59533 -1.78319,0.72292 -6.71307,0.72292 h -5.98797 v 5.73756 c 0,8.13062 0.0409,8.08704 -7.60364,8.08704 -7.00127,0 -6.28357,-1.69904 -6.1208,14.49307 l 0.12412,12.48547 13.23233,0.11759 13.23451,0.11976 0.14371,-6.45178 c 0.18061,-8.06818 -0.29519,-7.57216 7.46864,-7.75388 l 6.16435,-0.1437 0.39194,-13.45662 0.39194,-13.45661 H 200 h 6.91121 l 0.39194,13.45661 0.39194,13.45662 6.16435,0.1437 c 7.76383,0.18172 7.28803,-0.3143 7.46864,7.75388 l 0.14371,6.45178 13.23451,-0.11976 13.23233,-0.11759 0.12412,-12.48547 c 0.16277,-16.19211 0.88047,-14.49307 -6.1208,-14.49307 -7.64454,0 -7.60364,0.0436 -7.60364,-8.08704 V 298.107 h -5.98797 c -4.92988,0 -6.11774,-0.12759 -6.71307,-0.72292 -0.73692,-0.73691 -0.7316,-18.52748 0.0109,-34.33831 0.3378,-7.20974 0.75454,-6.85677 -8.07397,-6.85677 h -6.87637 l -0.1154,-20.84904 -0.11541,-20.84686 z m 27.64921,0 c -3.20297,-0.068 -5.96223,0.0167 -6.13168,0.18726 -0.55632,0.55519 -0.36284,25.86815 0.20685,27.1179 0.61874,1.35789 10.41156,1.80573 11.47513,0.52476 0.3601,-0.43479 0.47338,-4.53323 0.38977,-14.15775 l -0.11976,-13.54806 z m 51.69254,0.38105 c 0.90016,-0.0338 2.13426,0.0277 3.82577,0.0653 -1.97602,-0.0444 -3.69834,-0.0205 -4.78166,0.0436 0.26952,-0.0567 0.57719,-0.0947 0.95589,-0.10887 z m -166.40472,0.002 c 0.89311,-0.0366 2.12096,0.0242 3.79965,0.061 -2.34027,-0.0511 -3.79326,-0.0427 -4.68586,0.0414 0.25404,-0.0512 0.53754,-0.0881 0.88621,-0.10234 z m 164.1576,1.37615 c -0.0855,1.06994 -0.14589,2.75948 -0.14589,4.69456 0,-2.35041 -0.0602,-3.7973 0.14589,-4.69456 z m -166.37205,0.12629 c -0.0494,1.05453 -0.0604,2.80938 -0.0131,4.73159 -0.0583,-2.33996 -0.14988,-3.80472 0.0131,-4.73159 z M 53.923911,226.8631 c -7.865281,-0.0647 -14.439074,0.019 -14.606302,0.18508 -0.167228,0.16723 -0.302666,3.27887 -0.302666,6.91775 v 6.39951 c 0.5323,-0.96243 0.446377,-2.74876 0.446377,-6.06855 0,-7.44052 -1.725373,-6.64773 14.475656,-6.64773 15.490867,0 13.99822,-0.77823 14.162103,7.38806 l 0.126292,6.21226 7.468637,0.12194 c 4.879707,0.0791 7.468637,-0.0355 7.468637,-0.33315 0,-0.29321 -2.629761,-0.45727 -7.3467,-0.45727 h -7.344523 l -0.124114,-6.80016 -0.121937,-6.80234 z m -14.908968,13.50234 c -0.04467,0.0808 -0.102969,0.14603 -0.156776,0.21556 h 0.156776 z m -0.156776,0.21556 h -6.477898 c -5.060314,0 -6.755219,0.14373 -7.139843,0.60751 -0.363442,0.43813 -0.4712,6.50739 -0.387586,21.73961 l 0.115405,21.13211 7.011373,0.12194 7.013551,0.12193 0.121937,7.01356 0.124114,7.01137 6.911212,0.22427 6.911211,0.2221 0.124114,6.80017 0.124114,6.80233 h 5.922651 c 7.818457,0 7.495237,-0.28574 7.335813,6.47137 l -0.128469,5.34563 -6.464834,0.2221 -6.467014,0.22427 -0.222098,6.91122 -0.224277,6.91121 -7.022261,0.12412 -7.024439,0.12193 v 14.70429 14.70646 h 6.913389 6.911211 v 5.99016 c 0,8.75939 -0.457838,8.22941 7.231296,8.3788 l 6.369027,0.12412 0.224277,6.24273 c 0.293206,8.21535 -1.443733,7.35759 14.911145,7.35759 16.527679,0 14.899683,0.79717 15.063566,-7.38807 l 0.126291,-6.21225 6.234025,-0.1263 c 7.59772,-0.15161 7.09539,0.36385 7.3663,-7.58839 l 0.22427,-6.55629 6.57589,-0.12412 c 3.6177,-0.068 6.60452,-0.16747 6.63685,-0.2221 0.0323,-0.0546 0.1837,-3.20972 0.33532,-7.01137 l 0.27437,-6.91338 h 12.70975 12.5878 c -1.60224,-0.85997 -5.16362,-0.63887 -13.12782,-0.56396 l -12.61393,0.11975 -0.22428,6.46484 c -0.28206,8.19528 0.27603,7.58186 -6.9025,7.58186 -8.03363,0 -7.3663,-0.58468 -7.3663,6.47791 0,8.00129 0.57065,7.34304 -6.40386,7.35976 -7.773867,0.0189 -7.420737,-0.3111 -7.420737,6.97 0,7.52636 1.409607,6.83936 -14.046699,6.83936 -15.477489,0 -14.048876,0.71567 -14.048876,-7.01137 v -5.94225 l -1.143159,-0.4355 c -0.628776,-0.23858 -3.628355,-0.43331 -6.662982,-0.43331 -6.664585,0 -6.1806,0.54789 -6.462657,-7.35976 l -0.224277,-6.24273 -6.689112,-0.22211 -6.689111,-0.22427 v -14.0467 -14.0467 l 6.913388,-0.2221 6.91121,-0.22428 0.224277,-6.68911 0.2221,-6.68911 6.689112,-0.26565 c 3.679011,-0.14604 6.738844,-0.29524 6.800161,-0.33315 0.334455,-0.20736 0.03008,-11.99326 -0.324439,-12.55515 -0.331111,-0.52509 -1.790173,-0.71772 -6.793629,-0.89275 l -6.371205,-0.2221 -0.124114,-6.21443 c -0.158309,-7.882 0.341737,-7.38807 -7.503477,-7.38807 -7.557581,0 -6.817057,0.82722 -6.978711,-7.80396 l -0.108873,-5.79636 -6.543222,-0.22428 c -3.598742,-0.12263 -6.655387,-0.33532 -6.793629,-0.47468 -0.559656,-0.563 -0.866363,-39.87122 -0.320085,-40.89242 0.511717,-0.95543 0.775292,-0.99727 6.669515,-0.99727 4.053825,0 5.826824,0.11678 6.606368,-0.89058 z M 149.70972,354.0717 c 0.0468,0.0251 0.0806,0.0579 0.12412,0.0849 l -0.002,-0.0849 z m 0.12412,0.0849 0.21992,6.82847 0.22428,6.91122 14.43863,0.11758 c 10.12286,0.0825 14.61933,-0.0299 15.03963,-0.37888 0.44036,-0.36456 0.63148,-2.22712 0.7229,-7.02879 l 0.12194,-6.53451 6.46701,-0.2221 6.46484,-0.22211 0.12412,-6.44741 c 0.14827,-7.65234 -0.30609,-7.14202 6.34289,-7.14202 6.64898,0 6.19462,-0.51032 6.34289,7.14202 l 0.12412,6.44741 6.46484,0.22211 6.46701,0.2221 0.12194,6.53451 c 0.0914,4.80167 0.28254,6.66423 0.7229,7.02879 0.4203,0.34895 4.91677,0.46138 15.03962,0.37888 l 14.43864,-0.11758 0.22428,-6.91122 0.21992,-6.82847 c -1.41523,0.87839 -1.13845,2.75946 -1.21283,6.72613 l -0.12195,6.56718 -13.88338,0.11976 -13.88122,0.11541 -0.27,-1.00816 c -0.14939,-0.5552 -0.27537,-3.66796 -0.27871,-6.91775 -0.003,-3.24979 -0.0541,-5.94136 -0.11541,-5.97926 -0.0613,-0.0379 -3.12332,-0.18711 -6.80234,-0.33315 l -6.68911,-0.26565 -0.12194,-6.80016 -0.12411,-6.80234 H 200 193.33484 l -0.12411,6.80234 -0.12194,6.80016 -6.68911,0.26565 c -3.67902,0.14604 -6.74102,0.29524 -6.80234,0.33315 -0.0613,0.0379 -0.11207,2.72947 -0.11541,5.97926 -0.003,3.24979 -0.12932,6.36255 -0.27871,6.91775 l -0.27,1.00816 -13.88122,-0.11541 -13.88338,-0.11976 -0.12195,-6.56718 c -0.0744,-3.96667 0.2024,-5.84774 -1.21283,-6.72613 z m 100.33232,0 c 0.0435,-0.027 0.0773,-0.0598 0.12412,-0.0849 h -0.12194 z m 0.12412,-0.0849 h 12.5878 12.70975 l 0.27437,6.91338 c 0.15162,3.80165 0.30299,6.95675 0.33532,7.01137 0.0323,0.0546 3.01915,0.1541 6.63685,0.2221 l 6.57589,0.12412 0.22427,6.55629 c 0.27091,7.95224 -0.23142,7.43678 7.3663,7.58839 l 6.23402,0.1263 0.1263,6.21225 c 0.16388,8.18524 -1.46412,7.38807 15.06356,7.38807 16.35488,0 14.61794,0.85776 14.91115,-7.35759 l 0.22427,-6.24273 6.36903,-0.12412 c 7.68913,-0.14939 7.2313,0.38059 7.2313,-8.3788 v -5.99016 h 6.91121 6.91339 v -14.70646 -14.70429 l -7.02444,-0.12193 -7.02226,-0.12412 -0.22428,-6.91121 -0.2221,-6.91122 -6.46701,-0.22427 -6.46484,-0.2221 -0.12846,-5.34563 c -0.15943,-6.75711 -0.48264,-6.47137 7.3358,-6.47137 h 5.92265 l 0.12412,-6.80233 0.12412,-6.80017 6.91121,-0.2221 6.91121,-0.22427 0.12412,-7.01137 0.12193,-7.01356 7.01355,-0.12193 7.01137,-0.12194 0.11541,-21.13211 c 0.0836,-15.23222 -0.0241,-21.30148 -0.38759,-21.73961 -0.38462,-0.46378 -2.07756,-0.60751 -7.12895,-0.60751 h -6.48878 c 0.77953,1.00736 2.55254,0.89058 6.60636,0.89058 5.89423,0 6.1578,0.0418 6.66952,0.99727 0.54627,1.0212 0.23957,40.32942 -0.32009,40.89242 -0.13824,0.13936 -3.19489,0.35205 -6.79363,0.47468 l -6.54322,0.22428 -0.10888,5.79636 c -0.16165,8.63118 0.57888,7.80396 -6.9787,7.80396 -7.84521,0 -7.34517,-0.49393 -7.50348,7.38807 l -0.12412,6.21443 -6.3712,0.2221 c -5.00345,0.17503 -6.46251,0.36766 -6.79363,0.89275 -0.35452,0.56189 -0.65889,12.34779 -0.32444,12.55515 0.0613,0.0379 3.12115,0.18711 6.80016,0.33315 l 6.68911,0.26565 0.22211,6.68911 0.22427,6.68911 6.91121,0.22428 6.91339,0.2221 v 14.0467 14.0467 l -6.68911,0.22427 -6.68911,0.22211 -0.22428,6.24273 c -0.28206,7.90765 0.20192,7.35976 -6.46266,7.35976 -3.03463,0 -6.03421,0.19473 -6.66298,0.43331 l -1.14316,0.4355 v 5.94225 c 0,7.72704 1.42862,7.01137 -14.04887,7.01137 -15.45631,0 -14.0467,0.687 -14.0467,-6.83936 0,-7.2811 0.35313,-6.95105 -7.42074,-6.97 -6.97451,-0.0167 -6.40386,0.64153 -6.40386,-7.35976 0,-7.06259 0.66733,-6.47791 -7.3663,-6.47791 -7.17853,0 -6.62044,0.61342 -6.9025,-7.58186 l -0.22428,-6.46484 -12.61393,-0.11975 c -7.96421,-0.0749 -11.52558,-0.29601 -13.12782,0.56396 z M 361.14184,240.58107 c -0.0461,-0.0595 -0.0978,-0.11299 -0.13719,-0.18073 l 0.004,0.18073 z m -0.13719,-0.18073 -0.11975,-6.61943 -0.12412,-6.80234 h -14.49307 -14.49308 l -0.12194,6.80234 -0.12411,6.80016 h -7.34453 c -4.71693,0 -7.3467,0.16406 -7.3467,0.45727 0,0.29767 2.58893,0.4123 7.46864,0.33315 l 7.46864,-0.12194 0.12629,-6.21226 c 0.16388,-8.16629 -1.32876,-7.38806 14.1621,-7.38806 16.20103,0 14.47566,-0.79279 14.47566,6.64773 0,3.35979 -0.0879,5.14943 0.46597,6.10338 z M 53.375195,228.4919 c -6.58989,0.0113 -13.118741,0.22514 -13.273706,0.62928 -0.122634,0.31996 -0.165991,3.17868 -0.09799,6.35378 l 0.126291,5.77459 13.101688,0.11758 c 9.294522,0.0836 13.279873,-0.0275 13.713551,-0.38759 0.811612,-0.67448 0.878903,-11.10139 0.07621,-11.90408 -0.403577,-0.40358 -7.056159,-0.59485 -13.646049,-0.58356 z m 287.074375,0.12411 c -5.14968,0.0117 -7.15992,0.14856 -7.46428,0.45291 -0.80938,0.80938 -0.74751,11.23168 0.0697,11.91062 0.43368,0.3601 4.41903,0.47121 13.71355,0.38759 l 13.10168,-0.11758 v -6.24274 -6.24273 l -13.17136,-0.11976 c -2.46772,-0.022 -4.53271,-0.0322 -6.24927,-0.0283 z m -75.85348,0.0327 c 0.40203,-0.0487 0.93172,0.0324 1.62655,0.16113 -0.49053,-0.0914 -1.3447,-0.0767 -1.89655,0.0348 -0.15715,0.0317 -0.28014,0.072 -0.39194,0.12411 0.17017,-0.18545 0.38367,-0.28638 0.66194,-0.32008 z m -1.26074,3.99997 c -0.006,0.65515 -0.0109,1.2373 -0.0109,2.16655 0,-0.82654 9.4e-4,-1.5372 0.0109,-2.16655 z m -74.83226,8.36573 c -0.61796,0.002 -1.3316,0.0131 -2.15785,0.0131 h -5.53506 l -0.89058,1.448 c -0.78151,1.27205 -0.87556,2.10552 -0.773,6.80016 l 0.11759,5.35216 6.57806,0.12412 6.57589,0.12193 v -6.21878 c 0,-7.26354 0.41067,-7.65583 -3.91505,-7.64066 z m 25.15167,0.0131 c -4.63444,0 -5.57658,0.11462 -5.80289,0.70549 -0.14939,0.38797 -0.27001,3.50285 -0.27001,6.9221 v 6.21878 l 6.57589,-0.12193 6.57806,-0.12412 0.11758,-5.35216 c 0.10257,-4.69464 0.009,-5.52811 -0.77299,-6.80016 l -0.89058,-1.448 z m 153.08092,1.313 c -2.92912,-0.0113 -5.78656,0.16703 -6.01845,0.54218 -0.42587,0.69009 -0.42481,37.77328 0.002,39.07208 0.32776,0.99891 0.43742,1.01321 6.2079,0.89058 l 5.87474,-0.12412 0.34622,-6.46483 c 0.84506,-15.78631 0.86317,-32.71933 0.0348,-33.32581 -0.51674,-0.37793 -3.51829,-0.57879 -6.44743,-0.59008 z m -336.034222,0.098 c -2.313805,0.0167 -3.436531,0.16464 -3.867143,0.47903 -0.846173,0.61874 -0.837672,17.37084 0.01742,33.33887 l 0.346214,6.46483 5.874746,0.12412 c 5.31227,0.1126 5.896174,0.0495 6.096847,-0.66848 0.440366,-1.57082 0.708559,-22.82454 0.391941,-31.11569 l -0.322263,-8.47462 -5.807246,-0.12194 c -1.054371,-0.0226 -1.959247,-0.0317 -2.730516,-0.0261 z m 37.746012,0.37234 v 6.02063 6.01846 l 6.353786,-0.004 c 9.130637,-0.009 8.361389,0.56905 8.361389,-6.29064 v -5.74409 h -7.357588 z m 248.38988,0 v 5.74409 c 0,6.85969 -0.76924,6.28173 8.36139,6.29064 l 6.35379,0.004 v -6.01846 -6.02063 h -7.35759 z m -33.86145,0.0152 c -2.89276,-0.0297 -5.75021,0.0562 -5.97708,0.28307 -0.37236,0.37124 -0.39515,10.52178 -0.0261,11.48167 0.32331,0.84394 11.93456,1.07215 12.44627,0.24605 0.6377,-1.03347 0.41745,-11.17996 -0.25258,-11.6036 -0.36846,-0.23301 -3.29772,-0.3775 -6.19048,-0.40719 z m -229.33288,0.024 c -6.167779,0.006 -12.329618,0.0925 -12.731522,0.25475 -1.137149,0.4582 -0.748431,11.56244 0.433312,12.38966 1.3512,0.94651 9.283303,0.96372 11.94111,0.0261 1.323329,-0.46712 3.696657,-0.67065 7.8584,-0.67065 h 5.966199 v -5.74845 c 0,-4.83177 -0.112391,-5.79321 -0.705492,-6.02064 -0.420299,-0.16165 -6.594228,-0.2368 -12.762007,-0.2308 z m 292.53758,0 c -6.16777,0.006 -12.33179,0.0925 -12.73369,0.25475 -0.40581,0.16388 -0.55743,1.79507 -0.55743,5.9858 v 5.75934 h 5.9662 c 4.16174,0 6.53507,0.20353 7.8584,0.67065 2.65781,0.93759 10.58991,0.92038 11.94111,-0.0261 1.30549,-0.91418 1.55952,-11.9253 0.28525,-12.41361 -0.4203,-0.16165 -6.59205,-0.2368 -12.75984,-0.2308 z m -92.29537,0.009 c 0.66033,0.01 1.41936,0.0306 2.29285,0.0501 -2.51878,-0.0559 -4.07604,-0.0152 -5.03425,0.11323 0.63778,-0.15213 1.51258,-0.18149 2.7414,-0.16331 z m -138.9101,0.0523 c -2.17737,0.0231 -3.87478,0.14349 -4.14151,0.31573 -0.67003,0.43145 -0.89028,10.57667 -0.25258,11.61014 0.1728,0.27871 2.63891,0.45944 6.26886,0.45944 7.086,0 6.54888,0.60158 6.35378,-7.13549 l -0.12846,-5.12788 -5.79636,-0.11105 c -0.79712,-0.0153 -1.57796,-0.0186 -2.30373,-0.0109 z m 249.81392,0.30484 c 0.62751,0.0155 1.35579,0.0414 2.2014,0.0414 -2.26353,0 -3.69285,0.0522 -4.59659,0.16332 0.55972,-0.21475 1.32398,-0.23108 2.39519,-0.20469 z m -115.04096,1.06041 c -0.16204,0.92539 -0.24823,2.47527 -0.24823,4.83394 0,-2.41965 -0.0375,-3.91175 0.24823,-4.83394 z m 111.34802,1.75939 c -0.0424,2.34879 -0.05,6.28759 -0.007,10.82843 -0.0532,-5.56187 -0.17815,-8.86111 0.007,-10.82843 z m -299.028554,10.0097 c -3.371949,-0.10271 -7.557738,0.38106 -7.901949,1.28688 -0.63881,1.68119 -0.558715,11.04053 0.100163,11.69941 0.596446,0.59645 10.904244,0.76354 11.803931,0.19162 0.791544,-0.50391 0.953267,-11.39567 0.182905,-12.32434 -0.432284,-0.5205 -2.161881,-0.79193 -4.18505,-0.85357 z m 275.864894,0 c -2.02318,0.0616 -3.75277,0.33307 -4.18506,0.85357 -0.77036,0.92867 -0.60864,11.82043 0.18291,12.32434 0.89968,0.57192 11.20748,0.40483 11.80393,-0.19162 0.65887,-0.65888 0.73898,-10.01822 0.10017,-11.69941 -0.34421,-0.90582 -4.53,-1.38959 -7.90195,-1.28688 z m -141.98032,0.17639 c 0.99778,-0.0305 2.36777,0.0285 4.24601,0.0653 l 6.26887,0.12412 0.12848,5.12789 c 0.19621,7.75268 0.76383,7.13548 -6.55629,7.13548 -7.3112,0 -6.72831,0.57767 -6.72831,-6.64991 0,-4.80362 -0.35208,-5.7115 2.64124,-5.80289 z m 103.54623,0.40282 c -0.63488,10e-4 -1.36879,0.0109 -2.21664,0.0109 -3.14276,0 -5.84916,0.13225 -6.01192,0.29613 -0.16389,0.16277 -0.29832,2.96862 -0.29832,6.23402 0,7.03026 -0.59824,6.50317 7.13549,6.30807 l 5.12788,-0.13065 0.13065,-5.34999 c 0.16779,-6.97479 0.57706,-7.37685 -3.86714,-7.36847 z m -199.967859,0.0544 c -2.488873,-8.8e-4 -2.58543,0.19416 -2.771889,0.94502 -0.139357,0.55965 -0.195467,3.42581 -0.124117,6.36902 l 0.13065,5.34999 5.127885,0.13065 c 7.78835,0.19621 7.18249,0.75455 7.03533,-6.49533 l -0.12412,-6.12079 -5.89652,-0.12412 c -1.45349,-0.0304 -2.54759,-0.0541 -3.377219,-0.0544 z m 42.832519,12.79249 c 3.82981,0.0145 8.72634,0.37505 8.93189,0.87534 0.66556,1.621 0.37291,12.5978 -0.3484,13.05378 -0.3679,0.23189 -3.52937,0.42562 -7.02443,0.42896 l -6.35379,0.007 -0.007,6.13169 c -0.009,7.95781 0.4761,7.43838 -7.10936,7.61453 l -6.25797,0.14589 -0.44856,-1.178 c -0.48273,-1.2687 -0.62343,-10.84583 -0.17637,-12.00862 0.23077,-0.6009 1.28697,-0.70549 7.13548,-0.70549 h 6.86331 v -6.83717 c 0,-3.76151 0.13443,-6.97055 0.29831,-7.13331 0.28554,-0.28555 2.19855,-0.40279 4.49642,-0.39413 z m 110.68826,0.13501 c 0.73602,0.0158 1.58756,0.0404 2.57156,0.0588 l 6.58677,0.12411 0.12194,7.02444 0.12193,7.02226 h 6.8546 c 5.83848,0 6.89165,0.10459 7.12242,0.70549 0.44706,1.16279 0.30636,10.73992 -0.17637,12.00862 l -0.44856,1.178 -6.25797,-0.14589 c -7.58546,-0.17615 -7.10044,0.34328 -7.10936,-7.61453 l -0.007,-6.13169 -6.35379,-0.007 c -8.20865,-0.009 -7.69291,0.4458 -7.69291,-6.77621 0,-7.15819 -0.48592,-7.55736 4.66627,-7.44686 z m -185.074138,0.85138 0.124115,6.35596 0.124114,6.35379 13.212738,0.11758 13.212741,0.11976 0.269995,-1.01034 c 0.351178,-1.30772 0.352249,-9.62746 0.0022,-10.93295 l -0.267832,-1.0038 H 81.316172 Z m 237.367658,0 -0.26783,1.0038 c -0.35006,1.30549 -0.34899,9.62523 0.002,10.93295 l 0.27,1.01034 13.21275,-0.11976 13.21273,-0.11758 0.12412,-6.35379 0.12411,-6.35596 h -13.33903 z m 47.29846,13.40436 c -2.83298,0.0485 -5.62272,0.21421 -6.04023,0.45725 -1.36012,0.79155 -1.1592,11.79962 0.2221,12.16975 1.62434,0.43479 10.43347,0.3181 11.67764,-0.1546 l 1.14316,-0.43549 v -5.75934 c 0,-4.8418 -0.11239,-5.8041 -0.70549,-6.03153 -0.58864,-0.22631 -3.4642,-0.29454 -6.29718,-0.24604 z m -305.449832,0.0196 c -2.860292,-0.0383 -5.746801,0.0341 -6.28193,0.25041 -0.405806,0.16388 -0.557426,1.79704 -0.557426,5.99669 v 5.77023 l 1.143159,0.43549 c 1.244175,0.4727 10.053299,0.58939 11.677639,0.1546 1.449307,-0.38797 1.575285,-11.42339 0.139356,-12.19152 -0.427546,-0.2291 -3.260506,-0.37757 -6.120798,-0.4159 z m 69.501872,0.43767 c -2.05848,0.0125 -3.90663,0.0675 -5.06038,0.13936 1.0022,-0.17254 2.56989,-0.12396 5.06038,-0.13936 z m 171.7547,0.11541 c 0.46013,0.0362 0.81359,0.0767 0.92542,0.11976 0.18365,0.0705 0.33035,0.41002 0.45073,0.90146 -0.22182,-0.5696 -0.63723,-0.86875 -1.37615,-1.02122 z m -178.42639,1.52856 c -0.0111,0.0768 -0.0248,0.13792 -0.0348,0.21993 0.0102,-0.076 0.0219,-0.15006 0.0348,-0.21993 z m 180.04206,1.18672 c 0.14638,1.64399 0.14923,3.73914 0.007,5.55466 0.01,-0.67835 0.009,-1.44428 0.009,-2.36906 0,-1.364 0.0133,-2.3647 -0.0152,-3.1856 z m -167.57401,2.7414 c 0.0658,2.68409 0.15173,4.31881 -0.0762,5.31949 0.0942,-1.13196 0.1299,-3.13407 0.0762,-5.31949 z m -12.57039,2.11429 c 0.10555,1.65335 0.29671,3.11654 0.57266,3.83667 -0.49444,-0.66691 -0.56645,-1.8615 -0.57266,-3.83667 z m 167.66328,3.2052 c 0.13911,0.61074 0.40545,0.97959 0.85574,1.20632 -0.37729,-0.083 -0.65106,-0.17462 -0.71203,-0.28308 -0.0572,-0.10149 -0.10491,-0.45682 -0.14371,-0.92324 z m 11.96724,0.57268 c -0.10095,0.26099 -0.21135,0.45836 -0.33533,0.52476 -0.17992,0.0963 -0.50578,0.1768 -0.92541,0.24387 0.59298,-0.14186 0.99686,-0.37763 1.26074,-0.76863 z m -167.99208,0.63364 c -0.73217,0.36864 -2.0295,0.35988 -4.11537,0.35274 1.69093,-0.0433 3.24797,-0.16201 4.11537,-0.35274 z m -9.85076,0.13499 c 0.71933,0.11498 1.74532,0.18199 2.86552,0.21557 -1.26888,-0.009 -2.19532,-0.0551 -2.86552,-0.21557 z m 173.71658,0.21557 c -0.93153,0.0279 -1.90392,0.0269 -2.86987,0.002 0.23203,-8e-4 0.41082,0 0.66411,0 0.8398,0 1.55872,0.002 2.20576,-0.002 z m -98.9148,0.92323 c -2.62212,0.0146 -5.07551,0.19598 -6.04895,0.41807 1.05051,-0.43704 2.86639,-0.4004 6.04895,-0.41807 z m 7.36629,0.86227 -0.32662,12.45717 c -0.17949,6.853 -0.1943,12.67426 -0.0326,12.93402 0.18395,0.29767 2.59476,0.47251 6.48225,0.47251 3.88749,0 6.2983,-0.17484 6.48225,-0.47251 0.16165,-0.25976 0.14684,-6.08102 -0.0326,-12.93402 l -0.32662,-12.45717 H 200 Z m -14.81969,3.33367 c -0.0116,0.79822 -0.0174,1.67816 -0.0174,2.92867 0,-1.18178 0.001,-2.10759 0.0174,-2.92867 z m -33.18644,10.47787 c -3.33893,-0.0456 -7.50121,0.1728 -7.6559,0.57485 -0.11928,0.30993 -0.16158,6.18093 -0.0958,13.04507 l 0.11759,12.47894 h 6.02063 6.02064 l 0.11758,-12.67709 c 0.0925,-9.84636 -0.007,-12.75876 -0.44637,-13.03636 -0.36833,-0.23412 -2.075,-0.35805 -4.07836,-0.38541 z m 108.10798,0.10887 c -2.08492,0.0154 -3.69567,0.11732 -3.92812,0.26782 -0.43813,0.28429 -0.5389,3.20093 -0.44637,13.04508 l 0.11758,12.67709 h 6.02064 6.02063 v -12.93185 -12.93185 l -5.57426,-0.11105 c -0.76646,-0.0156 -1.51514,-0.0204 -2.2101,-0.0152 z m -54.06596,12.87524 c -3.04648,0.006 -6.08851,0.0925 -6.49097,0.25475 -0.41027,0.165 -0.55743,1.92842 -0.55743,6.65428 v 6.42999 H 200 h 7.13549 v -6.4191 c 0,-5.44159 -0.10682,-6.45945 -0.70549,-6.68911 -0.41863,-0.1611 -3.47063,-0.23666 -6.51709,-0.23081 z m 106.4444,0.1633 c -0.32331,0.01 -0.64748,0.0481 -0.89275,0.11105 -1.88633,0.48385 -2.00543,0.90662 -2.00543,7.05057 0,7.22647 -1.78082,6.46048 14.97429,6.46048 h 13.56548 v -6.68911 -6.68911 l -11.93022,-0.007 c -6.5609,-0.003 -12.33026,-0.0837 -12.82079,-0.18073 -0.24527,-0.0479 -0.56727,-0.0665 -0.89058,-0.0566 z m -215.959018,0.0348 c -2.34845,-0.0322 -5.58037,0.0474 -10.022776,0.0936 l -12.374422,0.12846 v 6.68258 6.68258 h 13.565484 c 16.755112,0 14.974292,0.76599 14.974292,-6.46048 0,-5.93742 0.902785,-7.03004 -6.142578,-7.12678 z M 339.70924,326.22 c -2.60373,0.006 -5.22017,0.24647 -5.74192,0.71638 -0.85732,0.77148 -0.89941,1.16949 -0.66194,6.1774 l 0.25475,5.34999 h 6.01846 6.02064 l 0.12629,-5.53725 c 0.0803,-3.52516 -0.0495,-5.7108 -0.35493,-6.01627 -0.46712,-0.46713 -3.05761,-0.69653 -5.66135,-0.69025 z m -276.77506,0.0196 c -0.581107,-0.008 -1.246353,-10e-4 -2.005428,0.007 -2.364601,0.0245 -4.79996,0.18435 -5.413128,0.35492 l -1.114852,0.30921 v 5.77676 5.77676 h 6.020635 6.018459 l 0.254761,-5.34999 c 0.286795,-6.04221 0.307292,-6.81691 -3.760447,-6.87418 z m 249.19553,0.47903 c 1.69374,-0.003 3.78709,0.009 6.36685,0.0327 l 12.83387,0.11976 0.12411,5.91394 0.12412,5.91612 -13.05596,-0.11758 -13.05814,-0.11976 -0.12629,-5.32385 c -0.0702,-2.92872 -0.0236,-5.5917 0.10016,-5.91612 0.13712,-0.3562 1.61008,-0.49734 6.69128,-0.50517 z m -230.334501,0.0327 12.740232,0.11976 v 5.79636 5.79636 l -13.045074,0.11976 -13.042897,0.11758 v -5.72886 c 0,-3.15168 0.137614,-5.86647 0.304843,-6.0337 0.167228,-0.16723 6.036052,-0.25192 13.042896,-0.18726 z m 125.786651,12.35918 v 6.92427 6.9221 h 6.90032 6.90033 l 0.12194,7.02444 0.12411,7.02444 13.05379,0.11758 c 7.82779,0.071 11.22573,0.34071 12.68579,-0.56396 h 0.12412 v -0.0958 c 1.24703,-0.91363 0.89275,-2.87712 0.89275,-7.03967 v -6.24274 l -13.47838,-0.11758 -13.4784,-0.11976 -0.1241,-6.79363 -0.12194,-6.79363 -6.80017,-0.12194 z m -21.77662,0.0239 c -3.63888,0 -6.75062,0.13225 -6.91339,0.29614 -0.16388,0.16277 -0.29614,3.27243 -0.29614,6.90685 v 6.60637 l -13.49145,0.11976 -13.48927,0.11758 v 6.24274 c 0,4.15979 -0.35349,6.12305 0.89058,7.0375 l 0.002,0.098 h 0.12412 c 1.46006,0.90467 4.858,0.63496 12.68579,0.56396 l 13.05379,-0.11758 0.12411,-7.02444 0.12194,-7.02444 h 6.90033 6.90032 v -6.91121 -6.91121 z m -124.896085,0.50081 c -2.238205,-0.009 -4.529521,0.10217 -5.393531,0.34186 -1.100359,0.30547 -1.118406,0.38189 -1.245499,5.64177 -0.193985,8.02359 -0.764597,7.38716 6.495319,7.24 l 6.120798,-0.12412 0.124115,-6.13821 0.124114,-6.13822 -1.156224,-0.43985 c -0.646056,-0.24526 -2.830887,-0.37431 -5.069092,-0.38323 z m 278.793555,0.074 c -2.59538,-0.0342 -5.23223,0.0616 -5.82032,0.31137 -0.99668,0.42364 -1.01538,0.5491 -0.89275,6.57153 l 0.12412,6.14257 5.98579,0.12412 c 4.48951,0.0937 6.07523,-0.0161 6.34726,-0.4442 0.61874,-0.97438 0.45808,-11.83797 -0.18073,-12.24377 -0.41417,-0.26367 -2.96799,-0.42748 -5.56337,-0.46162 z m -155.39338,0.30919 c 0.61298,1.3e-4 1.32079,0.007 2.13825,0.007 -2.23253,0 -3.57831,0.0302 -4.42893,0.12411 0.55744,-0.10655 1.29451,-0.13085 2.29068,-0.13065 z m -115.86186,0.007 v 6.46701 6.46483 h 13.10822 c 11.540945,0 13.139643,-0.0845 13.378221,-0.70548 0.455975,-1.18732 0.30004,-10.44657 -0.19161,-11.36409 -0.440366,-0.82276 -1.064683,-0.86227 -13.378225,-0.86227 z m 250.18845,0 c -12.31354,0 -12.93786,0.0395 -13.37822,0.86227 -0.49165,0.91752 -0.64759,10.17677 -0.19161,11.36409 0.23858,0.62097 1.83727,0.70548 13.37822,0.70548 h 13.10822 v -6.46483 -6.46701 z m -100.65457,0.12411 c 0.91302,0.10084 1.25244,0.27548 1.3696,0.58138 0.0788,0.20543 0.13473,0.63683 0.18073,1.15405 -0.15714,-1.09376 -0.56562,-1.5472 -1.55033,-1.73543 z m 34.57999,0.21992 c 0.93414,-0.0341 2.19902,0.0354 3.91505,0.10234 -2.21021,-0.0862 -3.494,-0.10893 -4.37883,-0.0675 0.14809,-0.0135 0.29459,-0.0286 0.46378,-0.0348 z m -2.39518,1.34348 c -0.32372,2.14582 -0.26217,7.82644 0.12847,9.50455 -0.37042,-0.89214 -0.34839,-2.39293 -0.34839,-4.94933 0,-2.26661 -0.0366,-3.67668 0.21992,-4.55522 z m -69.69784,0.17637 c -0.0276,0.31109 -0.0531,0.63637 -0.0697,1.02559 0.0143,-0.3716 0.0295,-0.74413 0.0697,-1.02559 z m 39.13304,1.02559 c 0.0472,1.11067 0.0528,2.47614 0.0196,3.81924 -3e-5,-0.10755 0,-0.18235 0,-0.29396 0,-1.52279 0.0146,-2.63727 -0.0196,-3.52528 z m -27.62742,3.0789 c 0,1.88402 0.03,3.21147 -0.0501,4.16545 0.0427,-0.8961 0.0501,-2.1854 0.0501,-4.16545 z m -11.5949,0.74034 c 0.0453,1.83304 0.16255,3.58013 0.32662,4.52908 -0.3216,-0.82716 -0.32733,-2.23018 -0.32662,-4.52908 z m 27.6971,3.42511 c 0.10516,1.25228 0.40639,1.84945 1.24768,2.12084 -0.0892,-0.0174 -0.22134,-0.0284 -0.29395,-0.0479 -0.64395,-0.17275 -0.87108,-0.33832 -0.95373,-2.07294 z m 11.2182,1.10397 c -0.0634,0.36658 -0.13163,0.6368 -0.20903,0.7142 -0.0804,0.0804 -0.33122,0.15123 -0.66195,0.21557 0.42273,-0.182 0.69481,-0.47665 0.87098,-0.92977 z m -37.7177,0.92977 c 0.86795,0.16884 2.44195,0.27864 4.10448,0.31355 -2.07616,0.003 -3.33621,0.0172 -4.10448,-0.31355 z m 9.09954,0.0871 c -0.65685,0.21188 -1.68537,0.2338 -3.15948,0.23081 1.31094,-0.0193 2.46018,-0.0944 3.15948,-0.23081 z m 61.7088,0.14371 c 0.13235,0.01 0.26188,0.0208 0.41589,0.0283 -0.13532,-0.01 -0.29325,-0.015 -0.41589,-0.0283 z m 1.31735,0.0675 c 0.68373,0.0141 1.44708,0.0218 2.48664,0.0218 -0.99398,0 -1.78377,-0.005 -2.48664,-0.0218 z m -39.40958,0.0152 c -0.61125,0.0125 -1.21619,0.0131 -1.80945,0.004 0.54788,-10e-4 1.11805,-0.005 1.80945,-0.004 z m -100.05578,1.4393 c 0.67934,0.0114 1.46347,0.0322 2.37123,0.0457 -2.0382,-0.0304 -3.86932,-0.0102 -5.00595,0.0435 0.62489,-0.0994 1.46593,-0.10888 2.63472,-0.0893 z m -4.307,7.42073 c 0.21039,2.09401 0.60495,3.88809 1.13446,4.08924 -0.98468,-0.37479 -1.11539,-0.65303 -1.13446,-4.08924 z m 185.48568,6.74355 c 0.63901,0.002 1.3779,0.0109 2.23188,0.0109 -2.63404,0 -4.1354,0.0632 -5.01901,0.20033 0.59978,-0.18537 1.48445,-0.2143 2.78713,-0.21121 z m 41.61098,0 c 0.66256,0.002 1.42873,0.0109 2.31462,0.0109 -2.74198,0 -4.29554,0.0614 -5.20845,0.19815 0.62102,-0.1865 1.53738,-0.21277 2.89383,-0.20903 z m -45.50425,1.61131 c -0.0459,1.05712 -0.0553,2.77661 -0.009,4.66844 -0.0571,-2.29393 -0.14744,-3.74089 0.009,-4.66844 z m 41.47162,0.002 c -0.0458,1.05738 -0.0553,2.77565 -0.009,4.66627 -0.0569,-2.29248 -0.15067,-3.7384 0.009,-4.66627 z" />
</svg>
