<svg
   xmlns="http://www.w3.org/2000/svg"
   viewBox="0 0 1593 1593">
  <path
     d="m 967.23346,1592.9989 q -170.51,0 -248.91,-82.14 a 253.6,253.6 0 0 1 -78.15,-177 117.39,117.39 0 0 1 13.69,-58.5 101.21,101.21 0 0 1 37.33,-37.36 130.22,130.22 0 0 1 116.24,0 99.55,99.55 0 0 1 37.12,37.36 115,115 0 0 1 14.18,58.5 111.73,111.73 0 0 1 -19.91,68.45 92.78,92.78 0 0 1 -47.31,34.62 129.18,129.18 0 0 0 74.67,46.55 370,370 0 0 0 101.8,14.68 226.91,226.91 0 0 0 128.19004,-38.33 224,224 0 0 0 83.63,-113.25 492,492 0 0 0 27.38,-169.5 465.07,465.07 0 0 0 -29.87,-176.23 217.54,217.54 0 0 0 -86.37,-109.52002 229.68,229.68 0 0 0 -124.43004,-35.59 236.75,236.75 0 0 0 -107.78,36.59 l -79.92,40.07 v -40.07 l 359.17004,-481.83 H 640.17346 v 500 a 178.9,178.9 0 0 0 27.38,102.30002 94.34,94.34 0 0 0 83.63,40.07 139.85,139.85 0 0 0 82.63,-29.12 298.38,298.38 0 0 0 69.2,-71.19002 24.86,24.86 0 0 1 9,-11.94 18.4,18.4 0 0 1 12,-4.48 41.55,41.55 0 0 1 23.4,9.95 49.82,49.82 0 0 1 12.69,33.85 197.86,197.86 0 0 1 -4.48,24.89002 241,241 0 0 1 -85.38,106 211.78,211.78 0 0 1 -119.76,36.38 q -161.67,0 -224,-63.72 a 238.67,238.67 0 0 1 -61.73,-174.24002 v -498.75 h -253.2 v -92.9 h 254.38 v -211.82 l -58.24,-58.279997 V -0.00111668 h 169 l 63.48,32.85999968 V 317.59888 l 657.60004,-2 65.47,65.71 -403.23004,405.19 a 271,271 0 0 1 76.16004,-18.42 330.1,330.1 0 0 1 147.38,42.07 302.7,302.7 0 0 1 126.95,113.29 399.78,399.78 0 0 1 57.25,136.65002 575.65,575.65 0 0 1 13.69,117 489.39,489.39 0 0 1 -49.78,216.79 317.92,317.92 0 0 1 -149.35,149.35 483.27,483.27 0 0 1 -215.08004,49.77 z" />
</svg>
