<svg
   xmlns="http://www.w3.org/2000/svg"
   viewBox="0 0 256 256">
<path
   d="M 65.373343,19.565659 2.8064103,128 65.373343,236.43434 H 190.50951 l 2.11558,-3.52826 60.5685,-104.78893 L 190.62666,19.682809 H 65.373343 Z m 11.995174,14.347348 h 92.676613 l -60.92225,19.288294 c 1.05848,1.764132 1.88174,3.76348 2.35217,5.880437 l 70.2138,-22.111363 14.09237,67.990265 c -5.59215,1.5178 -10.37649,5.01411 -13.54108,9.69582 -2.5759,3.8108 -4.07955,8.40397 -4.07955,13.34354 0,3.48243 0.76471,6.78199 2.10869,9.76704 l -73.02079,42.09336 c -4.03177,-5.13963 -10.280863,-8.46232 -17.29446,-8.46232 -12.231309,0 -22.111363,9.87822 -22.111363,21.99192 0,7.15064 3.39021,13.48073 8.639189,17.51957 l -4.522883,7.88346 -43.986128,-76.09194 43.515235,38.45714 c 1.176087,-1.76413 2.589229,-3.29304 4.235751,-4.70435 L 20.91632,128.11715 77.694696,77.807255 c 2.539682,2.51951 5.748023,4.351925 9.319116,5.241858 v 88.466117 c 0.94087,-0.1176 1.88174,-0.2343 2.940218,-0.2343 1.176088,0 2.352634,0.1167 3.411113,0.2343 V 83.584324 c 5.680277,-0.440683 10.688507,-3.293582 14.051037,-7.53431 l 72.85999,42.070396 c 0.52709,-1.20479 1.20935,-2.35558 1.96397,-3.46395 0.42402,-0.62277 0.86459,-1.23611 1.32999,-1.82845 L 110.53556,70.606016 c -0.46514,1.317898 -1.10035,2.528094 -1.8721,3.675273 1.99472,-3.14986 3.16534,-6.873216 3.16534,-10.848947 0,-11.055222 -9.05588,-19.993486 -19.993489,-19.993486 -11.055222,0 -20.110636,8.937806 -20.110636,20.110636 0,3.367847 0.84785,6.547133 2.329204,9.344381 -0.02978,-0.05776 -0.06507,-0.111772 -0.09418,-0.169981 l -46.455452,41.163058 44.337577,-76.799426 6.58563,11.409427 c 1.528914,-1.411305 3.410654,-2.587853 5.292393,-3.411114 z m 113.140993,13.878751 44.57417,77.033722 h -8.9401 c 0.11761,1.05848 0.23659,2.11604 0.23659,3.17452 0,1.05848 -0.11898,2.11604 -0.23659,3.17452 h 8.9401 l -45.98686,79.62249 12.81982,-58.92152 c -0.0222,-0.001 -0.0444,-0.003 -0.0666,-0.005 0.0616,4.5e-4 0.1221,0.005 0.18377,0.005 13.17218,0 23.87549,-10.70331 23.87549,-23.87549 0,-13.14833 -10.66492,-23.83453 -23.80428,-23.8732 0.0163,-3e-5 0.0319,-0.002 0.0482,-0.002 z m -98.674199,1.881281 c 7.644568,0 13.759309,6.114734 13.759309,13.759303 0,7.644569 -6.114741,13.761602 -13.759309,13.761602 -7.644569,0 -13.759305,-6.117034 -13.759305,-13.761602 0,-7.644568 6.114736,-13.759303 13.759305,-13.759303 z M 74.384653,73.481917 c 0.188624,0.329018 0.386305,0.652181 0.592639,0.969353 -0.209068,-0.315778 -0.404954,-0.639909 -0.592639,-0.969353 z m 1.120959,1.73427 c 0.07639,0.106403 0.155902,0.209839 0.234299,0.314695 -0.07985,-0.103751 -0.156734,-0.209575 -0.234299,-0.314695 z M 202.03379,110.47584 c 9.76152,0 17.52416,7.76263 17.52416,17.52416 0,9.76153 -7.76264,17.52416 -17.52416,17.52416 -9.76153,0 -17.52187,-7.76263 -17.52187,-17.52416 0,-9.76153 7.76034,-17.52416 17.52187,-17.52416 z m -18.49812,32.59967 c 3.08496,3.77941 7.30283,6.59499 12.133,7.9317 l -15.15591,69.31565 -68.68396,-22.9337 c -0.35283,2.11696 -1.05756,4.1163 -1.99843,5.88044 l 55.86415,18.70024 H 77.368517 l 4.617061,-7.96615 c 2.473497,0.95429 5.154236,1.49767 7.968452,1.49767 12.1137,0 21.99192,-9.88005 21.99192,-22.11136 0,-2.83046 -0.55782,-5.53004 -1.53902,-8.01899 0.003,0.008 0.008,0.015 0.0115,0.023 z m -93.58164,34.55446 c 8.703046,0 15.76003,7.05699 15.76003,15.76003 0,8.82066 -7.056984,15.76003 -15.76003,15.76003 -8.820655,0 -15.760031,-6.93937 -15.760031,-15.76003 0,-8.70304 6.939376,-15.76003 15.760031,-15.76003 z" />
</svg>