<svg
   xmlns="http://www.w3.org/2000/svg"
   viewBox="0 0 1000 1000">
  <path
     d="M 517.22105,6.1790968 C 400.38423,5.962712 332.88982,60.428194 297.84388,117.07388 c -68.28624,118.86309 -30.46851,204.25607 -8.4068,247.47901 28.51513,54.62899 139.12559,132.5215 139.12559,132.5215 l 5.55178,-82.84279 C 335.06188,339.79209 320.50474,282.91014 333.41159,206.06936 363.87776,86.756037 466.08083,71.899322 510.05417,78.202667 c 49.97652,7.804142 71.14009,9.904672 115.71375,59.430963 75.64014,96.35113 18.90945,189.39935 18.90945,189.39935 l -24.61365,-103.25305 -62.43255,14.10807 46.82368,217.91449 209.96202,-55.67897 -18.75996,-67.98725 -86.1463,19.21137 c 0,0 17.86123,-45.77488 22.06346,-80.14312 C 755.88698,87.80718 599.0514,9.3143508 534.81731,6.6129171 528.83054,6.3315177 522.96712,6.1897375 517.22105,6.1790968 Z M 468.33378,192.11371 v 624.33135 h 67.98433 V 192.11371 Z m 105.65666,313.06557 -7.8059,82.6933 C 663.136,665.01352 676.19351,722.34395 661.33563,798.73449 627.71778,917.14734 525.06272,929.45329 481.38954,921.9493 431.41301,912.79444 410.40245,910.24368 367.17951,859.51675 294.2408,761.0645 353.37335,669.66599 353.37335,669.66599 l 21.91104,104.00637 62.88396,-12.45778 -41.12241,-219.11629 -211.46281,50.12719 16.96017,68.28624 86.59479,-16.81068 c 0,0 -19.05953,45.17456 -24.16224,79.39272 C 235.8604,905.7407 390.44302,988.43634 454.67712,992.78865 582.09474,1002.0936 656.08225,947.01378 694.50264,888.63279 765.79048,771.72074 730.2216,685.27369 709.51061,641.30035 682.49627,585.92096 573.99044,505.17928 573.99044,505.17928 Z" />
</svg>
