<svg
   xmlns="http://www.w3.org/2000/svg"
   viewBox="0 0 1000 1000">
  <path
     d="m 407.65089,185.16349 -68.37738,16.98281 16.83311,86.71036 c 0,0 -45.23485,-19.08497 -79.49868,-24.19449 C 93.717223,235.50786 10.911208,390.2968 6.5530891,454.61662 -2.7642683,582.20431 52.389062,656.29057 110.84797,694.76224 c 117.06809,71.38298 203.63052,35.76663 247.66254,15.028 55.45331,-27.0504 136.30275,-135.70105 136.30275,-135.70105 l -82.80367,-7.81631 C 334.76569,663.35373 277.35875,676.42867 200.86625,661.55095 82.29536,627.88824 69.972989,525.09617 77.486987,481.3647 86.654065,431.32147 89.208238,410.28287 140.00287,367.00224 238.58652,293.96618 330.10702,353.17765 330.10702,353.17765 l -104.14519,21.94029 12.47441,62.96789 219.40874,-41.1773 z m 343.6979,73.43759 c -51.56548,-0.25955 -90.69983,17.78351 -115.72145,30.55497 -54.7019,28.55319 -132.69837,139.31128 -132.69837,139.31128 l 82.95336,5.55918 c 74.53886,-99.18477 131.49672,-113.76134 208.44006,-100.83726 119.47257,30.50683 134.34911,132.84631 128.03735,176.87834 -7.81455,50.04322 -9.91789,71.23504 -59.51027,115.86819 -96.47974,75.7411 -189.65214,18.93469 -189.65214,18.93469 l 103.39085,-24.6465 -14.1269,-62.51588 -218.20532,46.88617 55.75327,210.24225 68.078,-18.78499 -19.23701,-86.26128 c 0,0 45.83597,17.88507 80.25008,22.09291 C 912.74241,756.2285 991.34,599.1836 994.04504,534.86378 1000.0562,406.97553 942.94751,334.39266 883.43665,297.57407 833.22436,268.72736 788.97763,258.79046 751.34879,258.60108 Z M 183.13204,468.29151 v 68.07507 h 625.16463 v -68.07507 z" />
</svg>
