<svg
   xmlns="http://www.w3.org/2000/svg"
   viewBox="0 0 2500 2500">
  <path
     d="m 1129.1357,1728.3899 h 820.5623 v 410.2887 h -484.154 v 347.1487 H 1044.4997 V 2149.4342 H 539.54642 c 0,-137.0053 -20.79923,-273.2834 10.75561,-399.5179 10.75561,-63.1249 83.92407,-126.2497 136.99013,-189.3594 157.80451,-189.3593 315.60904,-378.7187 484.16914,-568.078 63.1097,-73.88049 126.2345,-137.00533 200.115,-220.91424 H 582.58401 V 361.27596 H 1045.2116 V 14.172695 h 410.2887 V 350.4749 h 504.9533 c 0,136.99013 20.7992,273.28342 -10.7556,399.51794 -10.7557,63.12483 -83.9241,126.23452 -137.0053,189.35935 -157.7894,189.35931 -315.5939,378.71871 -484.154,568.07811 -63.14,73.9258 -126.2345,147.0792 -199.403,220.9596 z" />
</svg>
