<svg  
   xmlns="http://www.w3.org/2000/svg"
   viewBox="0 0 113.37 113.37">
  <path
     d="M 57.792969 0.03125 A 56.68 56.68 0 0 0 11.070312 90.330078 A 68.15 68.15 0 0 1 20.769531 77 A 81.58 81.58 0 0 1 30.640625 68.230469 A 67.78 67.78 0 0 1 70.720703 55.150391 A 68.59 68.59 0 0 1 85.150391 56.689453 A 28.47 28.47 0 0 0 28.210938 56.689453 A 28.12 28.12 0 0 0 28.480469 60.5 A 62.1 62.1 0 0 0 17.800781 70.390625 A 41.24 41.24 0 0 1 75.230469 19.839844 L 89.599609 10.550781 A 56.68 56.68 0 0 0 57.792969 0.03125 z M 102.7207 23.699219 A 56.66 56.66 0 0 1 102.74023 23.728516 L 102.75977 23.699219 L 102.7207 23.699219 z M 102.74023 23.728516 L 93.490234 38.060547 A 41.25 41.25 0 0 1 38.080078 93.5 L 23.720703 102.7793 A 56.66 56.66 0 0 0 102.74023 23.728516 z M 71.769531 60.324219 A 65.07 65.07 0 0 0 33.070312 72.5 A 28.43 28.43 0 0 0 56.679688 85.070312 A 28.48 28.48 0 0 0 84.679688 61.779297 A 65.07 65.07 0 0 0 71.769531 60.324219 z " />
</svg>
